G04*
G04 #@! TF.GenerationSoftware,Altium Limited,Altium Designer,25.5.2 (35)*
G04*
G04 Layer_Color=65535*
%FSLAX25Y25*%
%MOIN*%
G70*
G04*
G04 #@! TF.SameCoordinates,1AF6E2F4-78F0-4DA7-8A0E-505A44BB4709*
G04*
G04*
G04 #@! TF.FilePolarity,Positive*
G04*
G01*
G75*
%ADD10C,0.00984*%
%ADD11C,0.01000*%
%ADD12C,0.00591*%
%ADD13C,0.00276*%
%ADD14C,0.00787*%
G36*
X15056Y43647D02*
X15172D01*
Y43608D01*
X15250D01*
Y43569D01*
X15289D01*
Y43530D01*
X15367D01*
Y43492D01*
X15406D01*
Y43453D01*
X15483D01*
Y43414D01*
X15522D01*
Y43375D01*
X15561D01*
Y43336D01*
X15639D01*
Y43297D01*
X15678D01*
Y43258D01*
X15717D01*
Y43219D01*
X15795D01*
Y43181D01*
X15833D01*
Y43142D01*
X15911D01*
Y43103D01*
X15950D01*
Y43064D01*
X15989D01*
Y43025D01*
X16067D01*
Y42986D01*
X16106D01*
Y42947D01*
X16145D01*
Y42908D01*
X16222D01*
Y42869D01*
X16261D01*
Y42831D01*
X16300D01*
Y42792D01*
X16378D01*
Y42753D01*
X16417D01*
Y42714D01*
X16495D01*
Y42675D01*
X16533D01*
Y42636D01*
X16572D01*
Y42597D01*
X16650D01*
Y42558D01*
X16689D01*
Y42519D01*
X16728D01*
Y42480D01*
X16806D01*
Y42442D01*
X16845D01*
Y42403D01*
X16883D01*
Y42364D01*
X16961D01*
Y42325D01*
X17000D01*
Y42286D01*
X17039D01*
Y42247D01*
X17117D01*
Y42208D01*
X17156D01*
Y42169D01*
X17233D01*
Y42131D01*
X17272D01*
Y42092D01*
X17311D01*
Y42053D01*
X17389D01*
Y42014D01*
X17428D01*
Y41975D01*
X17467D01*
Y41936D01*
X17545D01*
Y41897D01*
X17583D01*
Y41858D01*
X17622D01*
Y41819D01*
X17700D01*
Y41780D01*
X17739D01*
Y41742D01*
X17778D01*
Y40808D01*
X17739D01*
Y40419D01*
X17700D01*
Y40458D01*
X17622D01*
Y40497D01*
X17583D01*
Y40536D01*
X17506D01*
Y40575D01*
X17467D01*
Y40614D01*
X17389D01*
Y40653D01*
X17350D01*
Y40692D01*
X17311D01*
Y40731D01*
X17233D01*
Y40769D01*
X17195D01*
Y40808D01*
X17117D01*
Y40847D01*
X17078D01*
Y40886D01*
X17000D01*
Y40925D01*
X16961D01*
Y40964D01*
X16922D01*
Y41003D01*
X16845D01*
Y41042D01*
X16806D01*
Y41080D01*
X16728D01*
Y41119D01*
X16689D01*
Y41158D01*
X16611D01*
Y41197D01*
X16572D01*
Y41236D01*
X16495D01*
Y41275D01*
X16456D01*
Y41314D01*
X16417D01*
Y41353D01*
X16339D01*
Y41392D01*
X16300D01*
Y41431D01*
X16222D01*
Y41469D01*
X16183D01*
Y41508D01*
X16106D01*
Y41547D01*
X16067D01*
Y41586D01*
X16028D01*
Y41625D01*
X15950D01*
Y41664D01*
X15911D01*
Y41703D01*
X15833D01*
Y41742D01*
X15795D01*
Y41780D01*
X15717D01*
Y41819D01*
X15678D01*
Y41858D01*
X15600D01*
Y41897D01*
X15561D01*
Y41936D01*
X15522D01*
Y41975D01*
X15445D01*
Y42014D01*
X15406D01*
Y42053D01*
X15328D01*
Y42092D01*
X15289D01*
Y42131D01*
X15211D01*
Y42169D01*
X15172D01*
Y42208D01*
X15094D01*
Y42247D01*
X15017D01*
Y42286D01*
X14589D01*
Y42247D01*
X14472D01*
Y42208D01*
X14394D01*
Y42169D01*
X14317D01*
Y42131D01*
X14200D01*
Y42092D01*
X14122D01*
Y42053D01*
X14044D01*
Y42014D01*
X13967D01*
Y41975D01*
X13889D01*
Y41936D01*
X13772D01*
Y41897D01*
X13694D01*
Y41858D01*
X13617D01*
Y41819D01*
X13539D01*
Y41780D01*
X13461D01*
Y41742D01*
X13500D01*
Y41703D01*
X13578D01*
Y41664D01*
X13617D01*
Y41625D01*
X13694D01*
Y41586D01*
X13733D01*
Y41547D01*
X13811D01*
Y41508D01*
X13850D01*
Y41469D01*
X13889D01*
Y41431D01*
X13967D01*
Y41392D01*
X14006D01*
Y41353D01*
X14083D01*
Y41314D01*
X14122D01*
Y41275D01*
X14200D01*
Y41236D01*
X14239D01*
Y41197D01*
X14317D01*
Y41158D01*
X14356D01*
Y41119D01*
X14433D01*
Y41080D01*
X14472D01*
Y41042D01*
X14550D01*
Y41003D01*
X14589D01*
Y40964D01*
X14667D01*
Y40925D01*
X14706D01*
Y40886D01*
X14783D01*
Y40847D01*
X14822D01*
Y40808D01*
X14900D01*
Y40769D01*
X14939D01*
Y40731D01*
X15017D01*
Y40692D01*
X15056D01*
Y40653D01*
X15133D01*
Y40614D01*
X15172D01*
Y40575D01*
X15211D01*
Y40536D01*
X15289D01*
Y40497D01*
X15328D01*
Y40458D01*
X15406D01*
Y40419D01*
X15445D01*
Y40380D01*
X15522D01*
Y40342D01*
X15561D01*
Y40303D01*
X15639D01*
Y40264D01*
X15678D01*
Y40225D01*
X15756D01*
Y40186D01*
X15795D01*
Y40147D01*
X15872D01*
Y40108D01*
X15911D01*
Y40069D01*
X15989D01*
Y40031D01*
X16028D01*
Y39992D01*
X16106D01*
Y39953D01*
X16145D01*
Y39914D01*
X16222D01*
Y39875D01*
X16261D01*
Y39836D01*
X16339D01*
Y39797D01*
X16378D01*
Y39758D01*
X16417D01*
Y39719D01*
X16495D01*
Y39680D01*
X16533D01*
Y39642D01*
X16611D01*
Y39603D01*
X16650D01*
Y39564D01*
X16728D01*
Y39525D01*
X16767D01*
Y39486D01*
X16845D01*
Y39447D01*
X16883D01*
Y39408D01*
X16961D01*
Y39369D01*
X17000D01*
Y39331D01*
X17078D01*
Y39292D01*
X17117D01*
Y39253D01*
X17195D01*
Y39214D01*
X17233D01*
Y39175D01*
X17311D01*
Y39136D01*
X17350D01*
Y39097D01*
X17389D01*
Y39058D01*
X17428D01*
Y39019D01*
X17467D01*
Y38942D01*
X17506D01*
Y38864D01*
X17545D01*
Y38825D01*
Y38786D01*
Y38747D01*
X17583D01*
Y38436D01*
X17545D01*
Y37697D01*
X17583D01*
Y37658D01*
X17622D01*
Y37619D01*
X17661D01*
Y37580D01*
X17700D01*
Y37542D01*
X17739D01*
Y37503D01*
X17778D01*
Y37464D01*
X17817D01*
Y37386D01*
X17856D01*
Y37308D01*
X17895D01*
Y37231D01*
X17933D01*
Y37153D01*
X17972D01*
Y36997D01*
X18011D01*
Y36569D01*
X17972D01*
Y36414D01*
X17933D01*
Y36336D01*
X17895D01*
Y36258D01*
X17856D01*
Y36180D01*
X17817D01*
Y36142D01*
X17778D01*
Y36064D01*
X17739D01*
Y36025D01*
X17700D01*
Y35986D01*
X17661D01*
Y35947D01*
X17622D01*
Y35908D01*
X17583D01*
Y35869D01*
X17506D01*
Y35831D01*
X17467D01*
Y35792D01*
X17389D01*
Y35753D01*
X17311D01*
Y35714D01*
X17195D01*
Y35675D01*
X17000D01*
Y35636D01*
X16689D01*
Y35675D01*
X16533D01*
Y35714D01*
X16456D01*
Y35753D01*
X16339D01*
Y35792D01*
X16300D01*
Y35831D01*
X16222D01*
Y35869D01*
X16183D01*
Y35908D01*
X16106D01*
Y35947D01*
X16067D01*
Y35986D01*
X16028D01*
Y36064D01*
X15989D01*
Y36103D01*
X15950D01*
Y36142D01*
X15911D01*
Y36219D01*
X15872D01*
Y36258D01*
X15833D01*
Y36375D01*
X15795D01*
Y36492D01*
X15756D01*
Y36725D01*
X15717D01*
Y36842D01*
X15756D01*
Y37075D01*
X15795D01*
Y37192D01*
X15833D01*
Y37269D01*
X15872D01*
Y37386D01*
X15911D01*
Y37425D01*
X15950D01*
Y37464D01*
X15989D01*
Y37542D01*
X16028D01*
Y37580D01*
X16067D01*
Y37619D01*
X16106D01*
Y37658D01*
X16145D01*
Y37697D01*
X16222D01*
Y37736D01*
X16300D01*
Y37775D01*
X16339D01*
Y37814D01*
X16378D01*
Y38203D01*
X16339D01*
Y38319D01*
X16300D01*
Y38397D01*
X16261D01*
Y38436D01*
X16222D01*
Y38475D01*
X16183D01*
Y38514D01*
X16145D01*
Y38553D01*
X16067D01*
Y38592D01*
X16028D01*
Y38631D01*
X15950D01*
Y38669D01*
X15911D01*
Y38708D01*
X15872D01*
Y38747D01*
X15795D01*
Y38786D01*
X15756D01*
Y38825D01*
X15678D01*
Y38864D01*
X15639D01*
Y38903D01*
X15561D01*
Y38942D01*
X15522D01*
Y38980D01*
X15445D01*
Y39019D01*
X15406D01*
Y39058D01*
X15328D01*
Y39097D01*
X15289D01*
Y39136D01*
X15250D01*
Y39175D01*
X15172D01*
Y39214D01*
X15133D01*
Y39253D01*
X15056D01*
Y39292D01*
X15017D01*
Y39331D01*
X14939D01*
Y39369D01*
X14900D01*
Y39408D01*
X14822D01*
Y39447D01*
X14783D01*
Y39486D01*
X14706D01*
Y39525D01*
X14667D01*
Y39564D01*
X14589D01*
Y39603D01*
X14550D01*
Y39642D01*
X14511D01*
Y39680D01*
X14433D01*
Y39719D01*
X14394D01*
Y39758D01*
X14317D01*
Y39797D01*
X14278D01*
Y39836D01*
X14200D01*
Y39875D01*
X14161D01*
Y39914D01*
X14083D01*
Y39953D01*
X14044D01*
Y39992D01*
X13967D01*
Y40031D01*
X13928D01*
Y40069D01*
X13889D01*
Y40108D01*
X13811D01*
Y40147D01*
X13772D01*
Y40186D01*
X13694D01*
Y40225D01*
X13656D01*
Y40264D01*
X13578D01*
Y40303D01*
X13539D01*
Y40342D01*
X13461D01*
Y40380D01*
X13422D01*
Y40419D01*
X13344D01*
Y40458D01*
X13306D01*
Y40497D01*
X13267D01*
Y40536D01*
X13189D01*
Y40575D01*
X13150D01*
Y40614D01*
X13072D01*
Y40653D01*
X13033D01*
Y40692D01*
X12956D01*
Y40731D01*
X12917D01*
Y40769D01*
X12839D01*
Y40808D01*
X12800D01*
Y40847D01*
X12722D01*
Y40886D01*
X12683D01*
Y40925D01*
X12606D01*
Y40964D01*
X12567D01*
Y41003D01*
X12528D01*
Y41042D01*
X12450D01*
Y41080D01*
X12411D01*
Y41119D01*
X12333D01*
Y41158D01*
X12295D01*
Y41197D01*
X12217D01*
Y41236D01*
X12178D01*
Y41275D01*
X12100D01*
Y41314D01*
X12061D01*
Y41353D01*
X11983D01*
Y41392D01*
X11945D01*
Y41431D01*
X11906D01*
Y41469D01*
X11828D01*
Y41508D01*
X11789D01*
Y41547D01*
X11711D01*
Y41586D01*
X11672D01*
Y41625D01*
X11594D01*
Y41664D01*
X11556D01*
Y41703D01*
X11478D01*
Y41742D01*
X11439D01*
Y41780D01*
X11361D01*
Y41819D01*
X11322D01*
Y41858D01*
X11244D01*
Y41897D01*
X11206D01*
Y41975D01*
X11283D01*
Y42014D01*
X11361D01*
Y42053D01*
X11439D01*
Y42092D01*
X11517D01*
Y42131D01*
X11594D01*
Y42169D01*
X11672D01*
Y42208D01*
X11750D01*
Y42247D01*
X11789D01*
Y42286D01*
X11867D01*
Y42325D01*
X11945D01*
Y42364D01*
X12022D01*
Y42403D01*
X12100D01*
Y42442D01*
X12178D01*
Y42480D01*
X12256D01*
Y42519D01*
X12333D01*
Y42558D01*
X12411D01*
Y42597D01*
X12489D01*
Y42636D01*
X12567D01*
Y42675D01*
X12644D01*
Y42714D01*
X12722D01*
Y42753D01*
X12800D01*
Y42792D01*
X12878D01*
Y42831D01*
X12956D01*
Y42869D01*
X13033D01*
Y42908D01*
X13111D01*
Y42947D01*
X13189D01*
Y42986D01*
X13267D01*
Y43025D01*
X13344D01*
Y43064D01*
X13422D01*
Y43103D01*
X13500D01*
Y43142D01*
X13578D01*
Y43181D01*
X13656D01*
Y43219D01*
X13733D01*
Y43258D01*
X13811D01*
Y43297D01*
X13889D01*
Y43336D01*
X13967D01*
Y43375D01*
X14044D01*
Y43414D01*
X14122D01*
Y43453D01*
X14200D01*
Y43492D01*
X14278D01*
Y43530D01*
X14356D01*
Y43569D01*
X14433D01*
Y43608D01*
X14511D01*
Y43647D01*
X14628D01*
Y43686D01*
X15056D01*
Y43647D01*
D02*
G37*
G36*
X10350Y40731D02*
X10428D01*
Y40692D01*
X10506D01*
Y40653D01*
X10583D01*
Y40614D01*
X10622D01*
Y40575D01*
X10700D01*
Y40536D01*
X10778D01*
Y40497D01*
X10856D01*
Y40458D01*
X10933D01*
Y40419D01*
X10972D01*
Y40380D01*
X11050D01*
Y40342D01*
X11128D01*
Y40303D01*
X11206D01*
Y40264D01*
X11244D01*
Y40225D01*
X11322D01*
Y40186D01*
X11400D01*
Y40147D01*
X11439D01*
Y40108D01*
X11400D01*
Y40069D01*
X11322D01*
Y40031D01*
X11244D01*
Y39992D01*
X11167D01*
Y39953D01*
X11128D01*
Y39914D01*
X11050D01*
Y39875D01*
X10972D01*
Y39836D01*
X10894D01*
Y39797D01*
X10817D01*
Y39758D01*
X10739D01*
Y39719D01*
X10661D01*
Y39680D01*
X10583D01*
Y39642D01*
X10506D01*
Y39603D01*
X10428D01*
Y39564D01*
X10350D01*
Y39525D01*
X10272D01*
Y39486D01*
X10194D01*
Y39447D01*
X10117D01*
Y39408D01*
X10039D01*
Y39369D01*
X9961D01*
Y39331D01*
X9883D01*
Y39292D01*
X9806D01*
Y39253D01*
X9728D01*
Y39214D01*
X9650D01*
Y39175D01*
X9572D01*
Y39136D01*
X9494D01*
Y39097D01*
X9417D01*
Y39058D01*
X9339D01*
Y39019D01*
X9261D01*
Y38980D01*
X9183D01*
Y38942D01*
X9106D01*
Y38903D01*
X9028D01*
Y38864D01*
X8950D01*
Y38825D01*
X8872D01*
Y38786D01*
X8794D01*
Y38747D01*
X8717D01*
Y38708D01*
X8678D01*
Y38669D01*
X8600D01*
Y38631D01*
X8561D01*
Y38592D01*
X8522D01*
Y38553D01*
X8483D01*
Y38514D01*
X8444D01*
Y38475D01*
X8406D01*
Y38397D01*
X8367D01*
Y38319D01*
X8328D01*
Y38008D01*
X8289D01*
Y37425D01*
X8250D01*
Y36997D01*
X8289D01*
Y37036D01*
X8367D01*
Y37075D01*
X8444D01*
Y37114D01*
X8522D01*
Y37153D01*
X8600D01*
Y37192D01*
X8678D01*
Y37231D01*
X8756D01*
Y37269D01*
X8833D01*
Y37308D01*
X8911D01*
Y37347D01*
X8989D01*
Y37386D01*
X9067D01*
Y37425D01*
X9106D01*
Y37464D01*
X9183D01*
Y37503D01*
X9261D01*
Y37542D01*
X9339D01*
Y37580D01*
X9417D01*
Y37619D01*
X9494D01*
Y37658D01*
X9572D01*
Y37697D01*
X9650D01*
Y37736D01*
X9728D01*
Y37775D01*
X9806D01*
Y37814D01*
X9883D01*
Y37853D01*
X9922D01*
Y37892D01*
X10000D01*
Y37931D01*
X10078D01*
Y37969D01*
X10156D01*
Y38008D01*
X10233D01*
Y38047D01*
X10311D01*
Y38086D01*
X10389D01*
Y38125D01*
X10467D01*
Y38164D01*
X10544D01*
Y38203D01*
X10622D01*
Y38242D01*
X10700D01*
Y38280D01*
X10739D01*
Y38319D01*
X10817D01*
Y38358D01*
X10894D01*
Y38397D01*
X10972D01*
Y38436D01*
X11050D01*
Y38475D01*
X11128D01*
Y38514D01*
X11206D01*
Y38553D01*
X11283D01*
Y38592D01*
X11361D01*
Y38631D01*
X11439D01*
Y38669D01*
X11517D01*
Y38708D01*
X11556D01*
Y38747D01*
X11633D01*
Y38786D01*
X11711D01*
Y38825D01*
X11789D01*
Y38864D01*
X11867D01*
Y38903D01*
X11945D01*
Y38942D01*
X12022D01*
Y38980D01*
X12100D01*
Y39019D01*
X12178D01*
Y39058D01*
X12256D01*
Y39097D01*
X12333D01*
Y39136D01*
X12411D01*
Y39175D01*
X12489D01*
Y39214D01*
X12800D01*
Y39175D01*
X12878D01*
Y39136D01*
X12956D01*
Y39097D01*
X13033D01*
Y39058D01*
X13111D01*
Y39019D01*
X13150D01*
Y38980D01*
X13228D01*
Y38942D01*
X13306D01*
Y38903D01*
X13344D01*
Y38864D01*
X13422D01*
Y38825D01*
X13500D01*
Y38786D01*
X13539D01*
Y38747D01*
X13617D01*
Y38708D01*
X13694D01*
Y38669D01*
X13772D01*
Y38708D01*
X13889D01*
Y38747D01*
X14044D01*
Y38786D01*
X14394D01*
Y38747D01*
X14589D01*
Y38708D01*
X14706D01*
Y38669D01*
X14783D01*
Y38631D01*
X14822D01*
Y38592D01*
X14900D01*
Y38553D01*
X14939D01*
Y38514D01*
X14978D01*
Y38475D01*
X15017D01*
Y38436D01*
X15094D01*
Y38358D01*
X15133D01*
Y38319D01*
X15172D01*
Y38280D01*
X15211D01*
Y38203D01*
X15250D01*
Y38125D01*
X15289D01*
Y38047D01*
X15328D01*
Y37892D01*
X15367D01*
Y37347D01*
X15328D01*
Y37231D01*
X15289D01*
Y37153D01*
X15250D01*
Y37075D01*
X15211D01*
Y37036D01*
X15172D01*
Y36958D01*
X15133D01*
Y36919D01*
X15094D01*
Y36880D01*
X15056D01*
Y36842D01*
X15017D01*
Y36803D01*
X14978D01*
Y36764D01*
X14939D01*
Y36725D01*
X14900D01*
Y36686D01*
X14822D01*
Y36647D01*
X14744D01*
Y36608D01*
X14667D01*
Y36569D01*
X14550D01*
Y36531D01*
X14394D01*
Y36492D01*
X14083D01*
Y36531D01*
X13928D01*
Y36569D01*
X13811D01*
Y36608D01*
X13733D01*
Y36647D01*
X13656D01*
Y36686D01*
X13578D01*
Y36725D01*
X13539D01*
Y36764D01*
X13500D01*
Y36803D01*
X13461D01*
Y36842D01*
X13422D01*
Y36880D01*
X13383D01*
Y36919D01*
X13344D01*
Y36958D01*
X13306D01*
Y37036D01*
X13267D01*
Y37075D01*
X13228D01*
Y37153D01*
X13189D01*
Y37231D01*
X13150D01*
Y37386D01*
X13111D01*
Y37697D01*
X13033D01*
Y37736D01*
X12956D01*
Y37775D01*
X12917D01*
Y37814D01*
X12800D01*
Y37853D01*
X12644D01*
Y37892D01*
X12567D01*
Y37853D01*
X12372D01*
Y37814D01*
X12295D01*
Y37775D01*
X12217D01*
Y37736D01*
X12139D01*
Y37697D01*
X12061D01*
Y37658D01*
X11983D01*
Y37619D01*
X11945D01*
Y37580D01*
X11867D01*
Y37542D01*
X11789D01*
Y37503D01*
X11711D01*
Y37464D01*
X11633D01*
Y37425D01*
X11556D01*
Y37386D01*
X11478D01*
Y37347D01*
X11400D01*
Y37308D01*
X11322D01*
Y37269D01*
X11244D01*
Y37231D01*
X11167D01*
Y37192D01*
X11089D01*
Y37153D01*
X11011D01*
Y37114D01*
X10933D01*
Y37075D01*
X10856D01*
Y37036D01*
X10778D01*
Y36997D01*
X10739D01*
Y36958D01*
X10661D01*
Y36919D01*
X10583D01*
Y36880D01*
X10506D01*
Y36842D01*
X10428D01*
Y36803D01*
X10350D01*
Y36764D01*
X10272D01*
Y36725D01*
X10194D01*
Y36686D01*
X10117D01*
Y36647D01*
X10039D01*
Y36608D01*
X9961D01*
Y36569D01*
X9883D01*
Y36531D01*
X9806D01*
Y36492D01*
X9728D01*
Y36453D01*
X9650D01*
Y36414D01*
X9572D01*
Y36375D01*
X9533D01*
Y36336D01*
X9456D01*
Y36297D01*
X9378D01*
Y36258D01*
X9300D01*
Y36219D01*
X9222D01*
Y36180D01*
X9144D01*
Y36142D01*
X9067D01*
Y36103D01*
X8989D01*
Y36064D01*
X8911D01*
Y36025D01*
X8833D01*
Y35986D01*
X8756D01*
Y35947D01*
X8678D01*
Y35908D01*
X8600D01*
Y35869D01*
X8522D01*
Y35831D01*
X8444D01*
Y35792D01*
X8367D01*
Y35753D01*
X8328D01*
Y35714D01*
X8250D01*
Y35675D01*
X8172D01*
Y35636D01*
X8095D01*
Y35597D01*
X8017D01*
Y35558D01*
X7939D01*
Y35519D01*
X7861D01*
Y35480D01*
X7783D01*
Y35442D01*
X7706D01*
Y35403D01*
X7628D01*
Y35364D01*
X7550D01*
Y35325D01*
X7472D01*
Y35286D01*
X7395D01*
Y35247D01*
X7317D01*
Y35208D01*
X7239D01*
Y35169D01*
X7161D01*
Y35131D01*
X7122D01*
Y35092D01*
X7006D01*
Y36180D01*
X7045D01*
Y37697D01*
X7083D01*
Y38825D01*
X7122D01*
Y38980D01*
X7161D01*
Y39097D01*
X7200D01*
Y39136D01*
X7239D01*
Y39214D01*
X7278D01*
Y39253D01*
X7317D01*
Y39292D01*
X7356D01*
Y39331D01*
X7395D01*
Y39369D01*
X7433D01*
Y39408D01*
X7511D01*
Y39447D01*
X7550D01*
Y39486D01*
X7628D01*
Y39525D01*
X7706D01*
Y39564D01*
X7783D01*
Y39603D01*
X7861D01*
Y39642D01*
X7939D01*
Y39680D01*
X8017D01*
Y39719D01*
X8095D01*
Y39758D01*
X8211D01*
Y39797D01*
X8289D01*
Y39836D01*
X8367D01*
Y39875D01*
X8444D01*
Y39914D01*
X8522D01*
Y39953D01*
X8600D01*
Y39992D01*
X8678D01*
Y40031D01*
X8756D01*
Y40069D01*
X8833D01*
Y40108D01*
X8911D01*
Y40147D01*
X9028D01*
Y40186D01*
X9106D01*
Y40225D01*
X9183D01*
Y40264D01*
X9261D01*
Y40303D01*
X9339D01*
Y40342D01*
X9417D01*
Y40380D01*
X9494D01*
Y40419D01*
X9572D01*
Y40458D01*
X9650D01*
Y40497D01*
X9767D01*
Y40536D01*
X9844D01*
Y40575D01*
X9922D01*
Y40614D01*
X10000D01*
Y40653D01*
X10078D01*
Y40692D01*
X10156D01*
Y40731D01*
X10233D01*
Y40769D01*
X10350D01*
Y40731D01*
D02*
G37*
G36*
X18633Y41897D02*
X18711D01*
Y41858D01*
X18789D01*
Y41819D01*
X18867D01*
Y41780D01*
X18945D01*
Y41742D01*
X19022D01*
Y41703D01*
X19100D01*
Y41664D01*
X19139D01*
Y41625D01*
X19217D01*
Y41586D01*
X19295D01*
Y41547D01*
X19372D01*
Y41508D01*
X19450D01*
Y41469D01*
X19528D01*
Y41431D01*
X19606D01*
Y41392D01*
X19645D01*
Y41353D01*
X19722D01*
Y41314D01*
X19800D01*
Y41275D01*
X19878D01*
Y41236D01*
X19956D01*
Y41197D01*
X20033D01*
Y41158D01*
X20111D01*
Y41119D01*
X20150D01*
Y41080D01*
X20228D01*
Y41042D01*
X20306D01*
Y41003D01*
X20383D01*
Y40964D01*
X20461D01*
Y40925D01*
X20539D01*
Y40886D01*
X20617D01*
Y40847D01*
X20656D01*
Y40808D01*
X20733D01*
Y40769D01*
X20811D01*
Y40731D01*
X20889D01*
Y40692D01*
X20967D01*
Y40653D01*
X21045D01*
Y40614D01*
X21122D01*
Y40575D01*
X21161D01*
Y40536D01*
X21239D01*
Y40497D01*
X21317D01*
Y40458D01*
X21395D01*
Y40419D01*
X21472D01*
Y40380D01*
X21550D01*
Y40342D01*
X21628D01*
Y40303D01*
X21706D01*
Y40264D01*
X21745D01*
Y40225D01*
X21822D01*
Y40186D01*
X21861D01*
Y40147D01*
X21939D01*
Y40108D01*
X21978D01*
Y40069D01*
X22017D01*
Y40031D01*
X22056D01*
Y39992D01*
X22095D01*
Y39914D01*
X22133D01*
Y39875D01*
X22172D01*
Y39797D01*
X22211D01*
Y39680D01*
X22250D01*
Y38319D01*
X22211D01*
Y36647D01*
X22172D01*
Y36414D01*
X22133D01*
Y36375D01*
X22095D01*
Y36336D01*
X22017D01*
Y36297D01*
X21978D01*
Y36258D01*
X21900D01*
Y36219D01*
X21861D01*
Y36180D01*
X21783D01*
Y36142D01*
X21745D01*
Y36103D01*
X21667D01*
Y36064D01*
X21628D01*
Y36025D01*
X21550D01*
Y35986D01*
X21511D01*
Y35947D01*
X21433D01*
Y35908D01*
X21395D01*
Y35869D01*
X21317D01*
Y35831D01*
X21278D01*
Y35792D01*
X21200D01*
Y35753D01*
X21161D01*
Y35714D01*
X21045D01*
Y39019D01*
X21006D01*
Y39136D01*
X20967D01*
Y39175D01*
X20928D01*
Y39253D01*
X20889D01*
Y39292D01*
X20850D01*
Y39331D01*
X20772D01*
Y39369D01*
X20733D01*
Y39408D01*
X20656D01*
Y39447D01*
X20617D01*
Y39486D01*
X20539D01*
Y39525D01*
X20461D01*
Y39564D01*
X20422D01*
Y39603D01*
X20345D01*
Y39642D01*
X20267D01*
Y39680D01*
X20228D01*
Y39719D01*
X20150D01*
Y39758D01*
X20072D01*
Y39797D01*
X19995D01*
Y39836D01*
X19956D01*
Y39875D01*
X19878D01*
Y39914D01*
X19800D01*
Y39953D01*
X19761D01*
Y39992D01*
X19722D01*
Y39019D01*
X19761D01*
Y36919D01*
Y36880D01*
Y36414D01*
X19800D01*
Y35169D01*
X19761D01*
Y35053D01*
X19722D01*
Y35014D01*
X19683D01*
Y34936D01*
X19645D01*
Y34897D01*
X19606D01*
Y34858D01*
X19567D01*
Y34819D01*
X19489D01*
Y34780D01*
X19450D01*
Y34742D01*
X19372D01*
Y34703D01*
X19333D01*
Y34664D01*
X19256D01*
Y34625D01*
X19178D01*
Y34586D01*
X19139D01*
Y34547D01*
X19061D01*
Y34508D01*
X19022D01*
Y34469D01*
X18945D01*
Y34431D01*
X18906D01*
Y34392D01*
X18828D01*
Y34353D01*
X18750D01*
Y34119D01*
X18711D01*
Y33964D01*
X18672D01*
Y33847D01*
X18633D01*
Y33769D01*
X18595D01*
Y33731D01*
X18556D01*
Y33653D01*
X18517D01*
Y33614D01*
X18478D01*
Y33575D01*
X18439D01*
Y33536D01*
X18400D01*
Y33497D01*
X18361D01*
Y33458D01*
X18322D01*
Y33419D01*
X18283D01*
Y33380D01*
X18206D01*
Y33342D01*
X18167D01*
Y33303D01*
X18050D01*
Y33264D01*
X17972D01*
Y33225D01*
X17817D01*
Y33186D01*
X17428D01*
Y33225D01*
X17233D01*
Y33264D01*
X17156D01*
Y33303D01*
X17078D01*
Y33342D01*
X17000D01*
Y33380D01*
X16961D01*
Y33419D01*
X16883D01*
Y33458D01*
X16845D01*
Y33497D01*
X16806D01*
Y33536D01*
X16767D01*
Y33575D01*
X16728D01*
Y33614D01*
X16689D01*
Y33692D01*
X16650D01*
Y33769D01*
X16611D01*
Y33808D01*
X16572D01*
Y33925D01*
X16533D01*
Y34003D01*
X16495D01*
Y34197D01*
X16456D01*
Y34431D01*
X16495D01*
Y34625D01*
X16533D01*
Y34742D01*
X16572D01*
Y34819D01*
X16611D01*
Y34897D01*
X16650D01*
Y34975D01*
X16689D01*
Y35014D01*
X16728D01*
Y35092D01*
X16767D01*
Y35131D01*
X16845D01*
Y35169D01*
X16883D01*
Y35208D01*
X16922D01*
Y35247D01*
X16961D01*
Y35286D01*
X17039D01*
Y35325D01*
X17078D01*
Y35364D01*
X17195D01*
Y35403D01*
X17272D01*
Y35442D01*
X17467D01*
Y35480D01*
X17739D01*
Y35442D01*
X17933D01*
Y35403D01*
X18011D01*
Y35364D01*
X18128D01*
Y35325D01*
X18206D01*
Y35364D01*
X18245D01*
Y35403D01*
X18322D01*
Y35442D01*
X18361D01*
Y35480D01*
X18400D01*
Y35519D01*
X18439D01*
Y35558D01*
X18478D01*
Y35597D01*
X18517D01*
Y35636D01*
X18556D01*
Y35714D01*
X18595D01*
Y35869D01*
X18633D01*
Y36453D01*
X18595D01*
Y40653D01*
X18556D01*
Y41936D01*
X18633D01*
Y41897D01*
D02*
G37*
G36*
X12256Y36686D02*
X12528D01*
Y36647D01*
X12683D01*
Y36608D01*
X12761D01*
Y36569D01*
X12839D01*
Y36531D01*
X12878D01*
Y36492D01*
X12956D01*
Y36453D01*
X12994D01*
Y36414D01*
X13033D01*
Y36375D01*
X13072D01*
Y36336D01*
X13111D01*
Y36297D01*
X13150D01*
Y36258D01*
X13189D01*
Y36180D01*
X13228D01*
Y36142D01*
X13267D01*
Y36064D01*
X13306D01*
Y35947D01*
X13344D01*
Y35831D01*
X13383D01*
Y35286D01*
X13344D01*
Y35169D01*
X13306D01*
Y35092D01*
X13267D01*
Y35014D01*
X13228D01*
Y34936D01*
X13189D01*
Y34897D01*
X13150D01*
Y34819D01*
X13111D01*
Y34780D01*
X13072D01*
Y34742D01*
X13033D01*
Y34703D01*
X12994D01*
Y34664D01*
X12917D01*
Y34625D01*
X12878D01*
Y34586D01*
X12800D01*
Y34547D01*
X12722D01*
Y34508D01*
X12644D01*
Y34469D01*
X12489D01*
Y34431D01*
X12022D01*
Y34469D01*
X11867D01*
Y34508D01*
X11789D01*
Y34547D01*
X11711D01*
Y34586D01*
X11672D01*
Y34547D01*
X11594D01*
Y34508D01*
X11517D01*
Y34469D01*
X11478D01*
Y34431D01*
X11400D01*
Y34392D01*
X11361D01*
Y34353D01*
X11322D01*
Y34275D01*
X11283D01*
Y34236D01*
X11244D01*
Y34119D01*
X11206D01*
Y33342D01*
X11167D01*
Y31592D01*
X11128D01*
Y29842D01*
X11089D01*
Y28092D01*
X11050D01*
Y27975D01*
X11011D01*
Y28014D01*
X10933D01*
Y28053D01*
X10894D01*
Y28092D01*
X10817D01*
Y28130D01*
X10739D01*
Y28169D01*
X10661D01*
Y28208D01*
X10622D01*
Y28247D01*
X10544D01*
Y28286D01*
X10467D01*
Y28325D01*
X10389D01*
Y28364D01*
X10350D01*
Y28403D01*
X10272D01*
Y28442D01*
X10194D01*
Y28480D01*
X10156D01*
Y28519D01*
X10078D01*
Y28558D01*
X10000D01*
Y28597D01*
X9922D01*
Y28636D01*
X9883D01*
Y28675D01*
X9806D01*
Y28714D01*
X9728D01*
Y28753D01*
X9650D01*
Y28792D01*
X9611D01*
Y28831D01*
X9533D01*
Y28869D01*
X9456D01*
Y28908D01*
X9417D01*
Y28947D01*
X9339D01*
Y28986D01*
X9261D01*
Y29025D01*
X9183D01*
Y29064D01*
X9144D01*
Y29103D01*
X9067D01*
Y29142D01*
X8989D01*
Y29180D01*
X8911D01*
Y29219D01*
X8872D01*
Y29258D01*
X8794D01*
Y29297D01*
X8717D01*
Y29336D01*
X8678D01*
Y29375D01*
X8600D01*
Y29414D01*
X8522D01*
Y29453D01*
X8444D01*
Y29492D01*
X8406D01*
Y29531D01*
X8328D01*
Y29569D01*
X8250D01*
Y29608D01*
X8172D01*
Y29647D01*
X8133D01*
Y29686D01*
X8056D01*
Y29725D01*
X7978D01*
Y29764D01*
X7939D01*
Y29803D01*
X7861D01*
Y29842D01*
X7822D01*
Y29880D01*
X7745D01*
Y29919D01*
X7706D01*
Y29958D01*
X7667D01*
Y30036D01*
X7628D01*
Y30075D01*
X7589D01*
Y30114D01*
X7550D01*
Y30192D01*
X7511D01*
Y30308D01*
X7472D01*
Y31280D01*
X7511D01*
Y31980D01*
X7550D01*
Y32680D01*
X7589D01*
Y33380D01*
X7628D01*
Y33614D01*
X7667D01*
Y33653D01*
X7706D01*
Y33692D01*
X7783D01*
Y33731D01*
X7861D01*
Y33769D01*
X7900D01*
Y33808D01*
X7978D01*
Y33847D01*
X8017D01*
Y33886D01*
X8095D01*
Y33925D01*
X8172D01*
Y33964D01*
X8211D01*
Y34003D01*
X8289D01*
Y34042D01*
X8328D01*
Y34080D01*
X8406D01*
Y34119D01*
X8483D01*
Y34158D01*
X8522D01*
Y34197D01*
X8600D01*
Y34236D01*
X8639D01*
Y34275D01*
X8717D01*
Y34314D01*
X8756D01*
Y33342D01*
X8717D01*
Y32058D01*
X8678D01*
Y30969D01*
X8717D01*
Y30892D01*
X8756D01*
Y30814D01*
X8794D01*
Y30736D01*
X8833D01*
Y30697D01*
X8872D01*
Y30658D01*
X8950D01*
Y30619D01*
X8989D01*
Y30580D01*
X9028D01*
Y30542D01*
X9106D01*
Y30503D01*
X9183D01*
Y30464D01*
X9222D01*
Y30425D01*
X9300D01*
Y30386D01*
X9339D01*
Y30347D01*
X9417D01*
Y30308D01*
X9456D01*
Y30269D01*
X9533D01*
Y30231D01*
X9611D01*
Y30192D01*
X9650D01*
Y30153D01*
X9728D01*
Y30114D01*
X9767D01*
Y30075D01*
X9844D01*
Y30036D01*
X9883D01*
Y29997D01*
X9961D01*
Y30814D01*
X10000D01*
Y33186D01*
X10039D01*
Y34742D01*
X10078D01*
Y34858D01*
X10117D01*
Y34936D01*
X10156D01*
Y34975D01*
X10194D01*
Y35053D01*
X10233D01*
Y35092D01*
X10311D01*
Y35131D01*
X10350D01*
Y35169D01*
X10428D01*
Y35208D01*
X10506D01*
Y35247D01*
X10544D01*
Y35286D01*
X10622D01*
Y35325D01*
X10700D01*
Y35364D01*
X10739D01*
Y35403D01*
X10817D01*
Y35442D01*
X10894D01*
Y35480D01*
X10933D01*
Y35519D01*
X11011D01*
Y35558D01*
X11089D01*
Y35597D01*
X11128D01*
Y35792D01*
X11167D01*
Y35947D01*
X11206D01*
Y36025D01*
X11244D01*
Y36103D01*
X11283D01*
Y36180D01*
X11322D01*
Y36219D01*
X11361D01*
Y36297D01*
X11400D01*
Y36336D01*
X11439D01*
Y36375D01*
X11478D01*
Y36414D01*
X11517D01*
Y36453D01*
X11556D01*
Y36492D01*
X11633D01*
Y36531D01*
X11711D01*
Y36569D01*
X11750D01*
Y36608D01*
X11867D01*
Y36647D01*
X11983D01*
Y36686D01*
X12178D01*
Y36725D01*
X12256D01*
Y36686D01*
D02*
G37*
G36*
X22911Y31242D02*
X22872D01*
Y31125D01*
X22833D01*
Y31047D01*
X22794D01*
Y30969D01*
X22756D01*
Y30931D01*
X22717D01*
Y30892D01*
X22678D01*
Y30853D01*
X22639D01*
Y30814D01*
X22600D01*
Y30775D01*
X22561D01*
Y30736D01*
X22483D01*
Y30697D01*
X22445D01*
Y30658D01*
X22367D01*
Y30619D01*
X22289D01*
Y30580D01*
X22211D01*
Y30542D01*
X22133D01*
Y30503D01*
X22056D01*
Y30464D01*
X21978D01*
Y30425D01*
X21900D01*
Y30386D01*
X21822D01*
Y30347D01*
X21745D01*
Y30308D01*
X21667D01*
Y30269D01*
X21589D01*
Y30231D01*
X21511D01*
Y30192D01*
X21433D01*
Y30153D01*
X21356D01*
Y30114D01*
X21278D01*
Y30075D01*
X21200D01*
Y30036D01*
X21122D01*
Y29997D01*
X21045D01*
Y29958D01*
X20967D01*
Y29919D01*
X20889D01*
Y29880D01*
X20811D01*
Y29842D01*
X20733D01*
Y29803D01*
X20656D01*
Y29764D01*
X20578D01*
Y29725D01*
X20500D01*
Y29686D01*
X20422D01*
Y29647D01*
X20383D01*
Y29608D01*
X20306D01*
Y29569D01*
X20228D01*
Y29531D01*
X20150D01*
Y29492D01*
X20072D01*
Y29453D01*
X19995D01*
Y29414D01*
X19917D01*
Y29375D01*
X19839D01*
Y29336D01*
X19722D01*
Y29375D01*
X19645D01*
Y29414D01*
X19567D01*
Y29453D01*
X19489D01*
Y29492D01*
X19411D01*
Y29531D01*
X19333D01*
Y29569D01*
X19256D01*
Y29608D01*
X19178D01*
Y29647D01*
X19100D01*
Y29686D01*
X19061D01*
Y29725D01*
X18983D01*
Y29764D01*
X18906D01*
Y29803D01*
X18828D01*
Y29842D01*
X18750D01*
Y29880D01*
X18672D01*
Y29919D01*
X18595D01*
Y29958D01*
X18633D01*
Y29997D01*
X18711D01*
Y30036D01*
X18750D01*
Y30075D01*
X18828D01*
Y30114D01*
X18906D01*
Y30153D01*
X18983D01*
Y30192D01*
X19061D01*
Y30231D01*
X19139D01*
Y30269D01*
X19217D01*
Y30308D01*
X19256D01*
Y30347D01*
X19333D01*
Y30386D01*
X19411D01*
Y30425D01*
X19489D01*
Y30464D01*
X19567D01*
Y30503D01*
X19645D01*
Y30542D01*
X19683D01*
Y30580D01*
X19761D01*
Y30619D01*
X19839D01*
Y30658D01*
X19917D01*
Y30697D01*
X19995D01*
Y30736D01*
X20072D01*
Y30775D01*
X20150D01*
Y30814D01*
X20189D01*
Y30853D01*
X20267D01*
Y30892D01*
X20345D01*
Y30931D01*
X20422D01*
Y30969D01*
X20500D01*
Y31008D01*
X20578D01*
Y31047D01*
X20656D01*
Y31086D01*
X20695D01*
Y31125D01*
X20772D01*
Y31164D01*
X20850D01*
Y31203D01*
X20928D01*
Y31242D01*
X21006D01*
Y31280D01*
X21083D01*
Y31319D01*
X21122D01*
Y31358D01*
X21200D01*
Y31397D01*
X21278D01*
Y31436D01*
X21356D01*
Y31475D01*
X21395D01*
Y31514D01*
X21472D01*
Y31553D01*
X21511D01*
Y31592D01*
X21550D01*
Y31669D01*
X21589D01*
Y31708D01*
X21628D01*
Y31825D01*
X21667D01*
Y32019D01*
X21706D01*
Y32992D01*
X21745D01*
Y33186D01*
X21706D01*
Y33147D01*
X21628D01*
Y33108D01*
X21589D01*
Y33069D01*
X21511D01*
Y33031D01*
X21433D01*
Y32992D01*
X21356D01*
Y32953D01*
X21278D01*
Y32914D01*
X21239D01*
Y32875D01*
X21161D01*
Y32836D01*
X21083D01*
Y32797D01*
X21006D01*
Y32758D01*
X20928D01*
Y32719D01*
X20889D01*
Y32680D01*
X20811D01*
Y32642D01*
X20733D01*
Y32603D01*
X20656D01*
Y32564D01*
X20617D01*
Y32525D01*
X20539D01*
Y32486D01*
X20461D01*
Y32447D01*
X20383D01*
Y32408D01*
X20306D01*
Y32369D01*
X20267D01*
Y32331D01*
X20189D01*
Y32292D01*
X20111D01*
Y32253D01*
X20033D01*
Y32214D01*
X19956D01*
Y32175D01*
X19917D01*
Y32136D01*
X19839D01*
Y32097D01*
X19761D01*
Y32058D01*
X19683D01*
Y32019D01*
X19606D01*
Y31980D01*
X19567D01*
Y31942D01*
X19489D01*
Y31903D01*
X19411D01*
Y31864D01*
X19333D01*
Y31825D01*
X19256D01*
Y31786D01*
X19217D01*
Y31747D01*
X19139D01*
Y31708D01*
X19061D01*
Y31669D01*
X18983D01*
Y31631D01*
X18945D01*
Y31592D01*
X18867D01*
Y31553D01*
X18789D01*
Y31514D01*
X18711D01*
Y31475D01*
X18633D01*
Y31436D01*
X18595D01*
Y31397D01*
X18517D01*
Y31358D01*
X18439D01*
Y31319D01*
X18361D01*
Y31280D01*
X18283D01*
Y31242D01*
X18245D01*
Y31203D01*
X18167D01*
Y31164D01*
X18089D01*
Y31125D01*
X18011D01*
Y31086D01*
X17933D01*
Y31047D01*
X17895D01*
Y31008D01*
X17817D01*
Y30969D01*
X17739D01*
Y30931D01*
X17661D01*
Y30892D01*
X17583D01*
Y30853D01*
X17428D01*
Y30814D01*
X17311D01*
Y30853D01*
X17156D01*
Y30892D01*
X17078D01*
Y30931D01*
X17000D01*
Y30969D01*
X16922D01*
Y31008D01*
X16883D01*
Y31047D01*
X16806D01*
Y31086D01*
X16728D01*
Y31125D01*
X16650D01*
Y31164D01*
X16572D01*
Y31203D01*
X16533D01*
Y31242D01*
X16456D01*
Y31280D01*
X16378D01*
Y31319D01*
X16300D01*
Y31358D01*
X16261D01*
Y31319D01*
X16183D01*
Y31280D01*
X16067D01*
Y31242D01*
X15872D01*
Y31203D01*
X15678D01*
Y31242D01*
X15445D01*
Y31280D01*
X15328D01*
Y31319D01*
X15250D01*
Y31358D01*
X15172D01*
Y31397D01*
X15094D01*
Y31436D01*
X15056D01*
Y31475D01*
X15017D01*
Y31514D01*
X14978D01*
Y31553D01*
X14939D01*
Y31592D01*
X14900D01*
Y31631D01*
X14861D01*
Y31669D01*
X14822D01*
Y31747D01*
X14783D01*
Y31786D01*
X14744D01*
Y31864D01*
X14706D01*
Y31942D01*
X14667D01*
Y32097D01*
X14628D01*
Y32642D01*
X14667D01*
Y32758D01*
X14706D01*
Y32836D01*
X14744D01*
Y32914D01*
X14783D01*
Y32992D01*
X14822D01*
Y33031D01*
X14861D01*
Y33069D01*
X14900D01*
Y33147D01*
X14939D01*
Y33186D01*
X14978D01*
Y33225D01*
X15056D01*
Y33264D01*
X15094D01*
Y33303D01*
X15133D01*
Y33342D01*
X15211D01*
Y33380D01*
X15289D01*
Y33419D01*
X15406D01*
Y33458D01*
X15522D01*
Y33497D01*
X15989D01*
Y33458D01*
X16106D01*
Y33419D01*
X16222D01*
Y33380D01*
X16300D01*
Y33342D01*
X16339D01*
Y33303D01*
X16417D01*
Y33264D01*
X16456D01*
Y33225D01*
X16495D01*
Y33186D01*
X16572D01*
Y33108D01*
X16611D01*
Y33069D01*
X16650D01*
Y33031D01*
X16689D01*
Y32992D01*
X16728D01*
Y32914D01*
X16767D01*
Y32836D01*
X16806D01*
Y32758D01*
X16845D01*
Y32603D01*
X16883D01*
Y32331D01*
X16961D01*
Y32292D01*
X17039D01*
Y32253D01*
X17117D01*
Y32214D01*
X17195D01*
Y32175D01*
X17545D01*
Y32214D01*
X17661D01*
Y32253D01*
X17739D01*
Y32292D01*
X17778D01*
Y32331D01*
X17856D01*
Y32369D01*
X17933D01*
Y32408D01*
X18011D01*
Y32447D01*
X18089D01*
Y32486D01*
X18128D01*
Y32525D01*
X18206D01*
Y32564D01*
X18283D01*
Y32603D01*
X18361D01*
Y32642D01*
X18439D01*
Y32680D01*
X18517D01*
Y32719D01*
X18556D01*
Y32758D01*
X18633D01*
Y32797D01*
X18711D01*
Y32836D01*
X18789D01*
Y32875D01*
X18867D01*
Y32914D01*
X18906D01*
Y32953D01*
X18983D01*
Y32992D01*
X19061D01*
Y33031D01*
X19139D01*
Y33069D01*
X19217D01*
Y33108D01*
X19295D01*
Y33147D01*
X19333D01*
Y33186D01*
X19411D01*
Y33225D01*
X19489D01*
Y33264D01*
X19567D01*
Y33303D01*
X19645D01*
Y33342D01*
X19683D01*
Y33380D01*
X19761D01*
Y33419D01*
X19839D01*
Y33458D01*
X19917D01*
Y33497D01*
X19995D01*
Y33536D01*
X20072D01*
Y33575D01*
X20111D01*
Y33614D01*
X20189D01*
Y33653D01*
X20267D01*
Y33692D01*
X20345D01*
Y33731D01*
X20422D01*
Y33769D01*
X20461D01*
Y33808D01*
X20539D01*
Y33847D01*
X20617D01*
Y33886D01*
X20695D01*
Y33925D01*
X20772D01*
Y33964D01*
X20811D01*
Y34003D01*
X20889D01*
Y34042D01*
X20967D01*
Y34080D01*
X21045D01*
Y34119D01*
X21122D01*
Y34158D01*
X21200D01*
Y34197D01*
X21239D01*
Y34236D01*
X21317D01*
Y34275D01*
X21395D01*
Y34314D01*
X21472D01*
Y34353D01*
X21550D01*
Y34392D01*
X21589D01*
Y34431D01*
X21667D01*
Y34469D01*
X21745D01*
Y34508D01*
X21822D01*
Y34547D01*
X21900D01*
Y34586D01*
X21978D01*
Y34625D01*
X22017D01*
Y34664D01*
X22095D01*
Y34703D01*
X22172D01*
Y34742D01*
X22250D01*
Y34780D01*
X22328D01*
Y34819D01*
X22367D01*
Y34858D01*
X22445D01*
Y34897D01*
X22522D01*
Y34936D01*
X22600D01*
Y34975D01*
X22678D01*
Y35014D01*
X22756D01*
Y35053D01*
X22794D01*
Y35092D01*
X22872D01*
Y35131D01*
X22911D01*
Y31242D01*
D02*
G37*
G36*
X13228Y34080D02*
X13383D01*
Y34042D01*
X13500D01*
Y34003D01*
X13578D01*
Y33964D01*
X13656D01*
Y33925D01*
X13694D01*
Y33886D01*
X13772D01*
Y33847D01*
X13811D01*
Y33808D01*
X13850D01*
Y33769D01*
X13889D01*
Y33731D01*
X13928D01*
Y33692D01*
X13967D01*
Y33614D01*
X14006D01*
Y33575D01*
X14044D01*
Y33497D01*
X14083D01*
Y33419D01*
X14122D01*
Y33342D01*
X14161D01*
Y33147D01*
X14200D01*
Y33031D01*
Y32992D01*
Y32797D01*
X14161D01*
Y32642D01*
X14122D01*
Y32525D01*
X14083D01*
Y32447D01*
X14044D01*
Y32369D01*
X14006D01*
Y32331D01*
X13967D01*
Y32253D01*
X13928D01*
Y32214D01*
X13889D01*
Y32175D01*
X13850D01*
Y32136D01*
X13811D01*
Y32097D01*
X13772D01*
Y32058D01*
X13694D01*
Y32019D01*
X13656D01*
Y31980D01*
X13617D01*
Y31592D01*
X13656D01*
Y31514D01*
X13694D01*
Y31436D01*
X13733D01*
Y31358D01*
X13772D01*
Y31319D01*
X13811D01*
Y31280D01*
X13889D01*
Y31242D01*
X13928D01*
Y31203D01*
X14006D01*
Y31164D01*
X14083D01*
Y31125D01*
X14122D01*
Y31086D01*
X14200D01*
Y31047D01*
X14239D01*
Y31008D01*
X14317D01*
Y30969D01*
X14394D01*
Y30931D01*
X14433D01*
Y30892D01*
X14511D01*
Y30853D01*
X14589D01*
Y30814D01*
X14628D01*
Y30775D01*
X14706D01*
Y30736D01*
X14744D01*
Y30697D01*
X14822D01*
Y30658D01*
X14900D01*
Y30619D01*
X14939D01*
Y30580D01*
X15017D01*
Y30542D01*
X15094D01*
Y30503D01*
X15133D01*
Y30464D01*
X15211D01*
Y30425D01*
X15250D01*
Y30386D01*
X15328D01*
Y30347D01*
X15406D01*
Y30308D01*
X15445D01*
Y30269D01*
X15522D01*
Y30231D01*
X15561D01*
Y30192D01*
X15639D01*
Y30153D01*
X15717D01*
Y30114D01*
X15756D01*
Y30075D01*
X15833D01*
Y30036D01*
X15911D01*
Y29997D01*
X15950D01*
Y29958D01*
X16028D01*
Y29919D01*
X16067D01*
Y29880D01*
X16145D01*
Y29842D01*
X16222D01*
Y29803D01*
X16261D01*
Y29764D01*
X16339D01*
Y29725D01*
X16417D01*
Y29686D01*
X16456D01*
Y29647D01*
X16533D01*
Y29608D01*
X16572D01*
Y29569D01*
X16650D01*
Y29531D01*
X16728D01*
Y29492D01*
X16767D01*
Y29453D01*
X16845D01*
Y29414D01*
X16922D01*
Y29375D01*
X16961D01*
Y29336D01*
X17039D01*
Y29297D01*
X17078D01*
Y29258D01*
X17156D01*
Y29219D01*
X17233D01*
Y29180D01*
X17272D01*
Y29142D01*
X17350D01*
Y29103D01*
X17389D01*
Y29064D01*
X17467D01*
Y29025D01*
X17545D01*
Y28986D01*
X17583D01*
Y28947D01*
X17661D01*
Y28908D01*
X17739D01*
Y28869D01*
X17778D01*
Y28831D01*
X17856D01*
Y28792D01*
X17895D01*
Y28753D01*
X17972D01*
Y28714D01*
X18050D01*
Y28675D01*
X18089D01*
Y28636D01*
X18167D01*
Y28597D01*
X18245D01*
Y28558D01*
X18283D01*
Y28519D01*
X18361D01*
Y28480D01*
X18400D01*
Y28442D01*
X18478D01*
Y28403D01*
X18556D01*
Y28364D01*
X18595D01*
Y28325D01*
X18672D01*
Y28286D01*
X18750D01*
Y28247D01*
X18789D01*
Y28208D01*
X18867D01*
Y28169D01*
X18906D01*
Y28130D01*
X18983D01*
Y28092D01*
X18945D01*
Y28053D01*
X18906D01*
Y28014D01*
X18828D01*
Y27975D01*
X18750D01*
Y27936D01*
X18672D01*
Y27897D01*
X18633D01*
Y27858D01*
X18556D01*
Y27819D01*
X18478D01*
Y27781D01*
X18400D01*
Y27742D01*
X18322D01*
Y27703D01*
X18283D01*
Y27664D01*
X18206D01*
Y27625D01*
X18128D01*
Y27586D01*
X18050D01*
Y27547D01*
X18011D01*
Y27508D01*
X17933D01*
Y27469D01*
X17856D01*
Y27430D01*
X17778D01*
Y27392D01*
X17739D01*
Y27353D01*
X17661D01*
Y27314D01*
X17583D01*
Y27275D01*
X17506D01*
Y27236D01*
X17467D01*
Y27197D01*
X17389D01*
Y27158D01*
X17311D01*
Y27119D01*
X17233D01*
Y27081D01*
X17195D01*
Y27042D01*
X17117D01*
Y27003D01*
X17039D01*
Y26964D01*
X16961D01*
Y26925D01*
X16883D01*
Y26886D01*
X16845D01*
Y26847D01*
X16767D01*
Y26808D01*
X16689D01*
Y26769D01*
X16611D01*
Y26730D01*
X16572D01*
Y26692D01*
X16495D01*
Y26653D01*
X16417D01*
Y26614D01*
X16339D01*
Y26575D01*
X16300D01*
Y26536D01*
X16222D01*
Y26497D01*
X16145D01*
Y26458D01*
X16067D01*
Y26419D01*
X16028D01*
Y26381D01*
X15950D01*
Y26342D01*
X15872D01*
Y26303D01*
X15795D01*
Y26264D01*
X15717D01*
Y26225D01*
X15600D01*
Y26186D01*
X15133D01*
Y26225D01*
X15056D01*
Y26264D01*
X14978D01*
Y26303D01*
X14900D01*
Y26342D01*
X14822D01*
Y26381D01*
X14783D01*
Y26419D01*
X14706D01*
Y26458D01*
X14667D01*
Y26497D01*
X14589D01*
Y26536D01*
X14550D01*
Y26575D01*
X14472D01*
Y26614D01*
X14433D01*
Y26653D01*
X14356D01*
Y26692D01*
X14317D01*
Y26730D01*
X14239D01*
Y26769D01*
X14200D01*
Y26808D01*
X14122D01*
Y26847D01*
X14083D01*
Y26886D01*
X14006D01*
Y26925D01*
X13967D01*
Y26964D01*
X13889D01*
Y27003D01*
X13850D01*
Y27042D01*
X13772D01*
Y27081D01*
X13733D01*
Y27119D01*
X13656D01*
Y27158D01*
X13617D01*
Y27197D01*
X13539D01*
Y27236D01*
X13500D01*
Y27275D01*
X13422D01*
Y27314D01*
X13383D01*
Y27353D01*
X13306D01*
Y27392D01*
X13267D01*
Y27430D01*
X13189D01*
Y27469D01*
X13150D01*
Y27508D01*
X13072D01*
Y27547D01*
X13033D01*
Y27586D01*
X12956D01*
Y27625D01*
X12917D01*
Y27664D01*
X12839D01*
Y27703D01*
X12800D01*
Y27742D01*
X12722D01*
Y27781D01*
X12683D01*
Y27819D01*
X12606D01*
Y27858D01*
X12567D01*
Y27897D01*
X12489D01*
Y27936D01*
X12450D01*
Y27975D01*
X12411D01*
Y28092D01*
X12372D01*
Y29297D01*
X12450D01*
Y29258D01*
X12489D01*
Y29219D01*
X12567D01*
Y29180D01*
X12606D01*
Y29142D01*
X12683D01*
Y29103D01*
X12761D01*
Y29064D01*
X12800D01*
Y29025D01*
X12878D01*
Y28986D01*
X12917D01*
Y28947D01*
X12994D01*
Y28908D01*
X13072D01*
Y28869D01*
X13111D01*
Y28831D01*
X13189D01*
Y28792D01*
X13228D01*
Y28753D01*
X13306D01*
Y28714D01*
X13383D01*
Y28675D01*
X13422D01*
Y28636D01*
X13500D01*
Y28597D01*
X13539D01*
Y28558D01*
X13617D01*
Y28519D01*
X13694D01*
Y28480D01*
X13733D01*
Y28442D01*
X13811D01*
Y28403D01*
X13850D01*
Y28364D01*
X13928D01*
Y28325D01*
X13967D01*
Y28286D01*
X14044D01*
Y28247D01*
X14122D01*
Y28208D01*
X14161D01*
Y28169D01*
X14239D01*
Y28130D01*
X14278D01*
Y28092D01*
X14356D01*
Y28053D01*
X14433D01*
Y28014D01*
X14472D01*
Y27975D01*
X14550D01*
Y27936D01*
X14589D01*
Y27897D01*
X14667D01*
Y27858D01*
X14744D01*
Y27819D01*
X14783D01*
Y27781D01*
X14861D01*
Y27742D01*
X14900D01*
Y27703D01*
X14978D01*
Y27664D01*
X15056D01*
Y27625D01*
X15133D01*
Y27586D01*
X15289D01*
Y27547D01*
X15445D01*
Y27586D01*
X15600D01*
Y27625D01*
X15678D01*
Y27664D01*
X15756D01*
Y27703D01*
X15833D01*
Y27742D01*
X15911D01*
Y27781D01*
X15989D01*
Y27819D01*
X16067D01*
Y27858D01*
X16145D01*
Y27897D01*
X16222D01*
Y27936D01*
X16300D01*
Y27975D01*
X16378D01*
Y28014D01*
X16456D01*
Y28053D01*
X16533D01*
Y28092D01*
X16611D01*
Y28130D01*
X16689D01*
Y28208D01*
X16611D01*
Y28247D01*
X16572D01*
Y28286D01*
X16495D01*
Y28325D01*
X16417D01*
Y28364D01*
X16378D01*
Y28403D01*
X16300D01*
Y28442D01*
X16222D01*
Y28480D01*
X16183D01*
Y28519D01*
X16106D01*
Y28558D01*
X16028D01*
Y28597D01*
X15989D01*
Y28636D01*
X15911D01*
Y28675D01*
X15872D01*
Y28714D01*
X15795D01*
Y28753D01*
X15717D01*
Y28792D01*
X15678D01*
Y28831D01*
X15600D01*
Y28869D01*
X15522D01*
Y28908D01*
X15483D01*
Y28947D01*
X15406D01*
Y28986D01*
X15328D01*
Y29025D01*
X15289D01*
Y29064D01*
X15211D01*
Y29103D01*
X15133D01*
Y29142D01*
X15094D01*
Y29180D01*
X15017D01*
Y29219D01*
X14978D01*
Y29258D01*
X14900D01*
Y29297D01*
X14822D01*
Y29336D01*
X14783D01*
Y29375D01*
X14706D01*
Y29414D01*
X14628D01*
Y29453D01*
X14589D01*
Y29492D01*
X14511D01*
Y29531D01*
X14433D01*
Y29569D01*
X14394D01*
Y29608D01*
X14317D01*
Y29647D01*
X14278D01*
Y29686D01*
X14200D01*
Y29725D01*
X14122D01*
Y29764D01*
X14083D01*
Y29803D01*
X14006D01*
Y29842D01*
X13928D01*
Y29880D01*
X13889D01*
Y29919D01*
X13811D01*
Y29958D01*
X13733D01*
Y29997D01*
X13694D01*
Y30036D01*
X13617D01*
Y30075D01*
X13539D01*
Y30114D01*
X13500D01*
Y30153D01*
X13422D01*
Y30192D01*
X13383D01*
Y30231D01*
X13306D01*
Y30269D01*
X13228D01*
Y30308D01*
X13189D01*
Y30347D01*
X13111D01*
Y30386D01*
X13033D01*
Y30425D01*
X12994D01*
Y30464D01*
X12917D01*
Y30503D01*
X12839D01*
Y30542D01*
X12800D01*
Y30580D01*
X12722D01*
Y30619D01*
X12683D01*
Y30658D01*
X12644D01*
Y30697D01*
X12606D01*
Y30736D01*
X12567D01*
Y30775D01*
X12528D01*
Y30853D01*
X12489D01*
Y30931D01*
X12450D01*
Y32019D01*
X12411D01*
Y32058D01*
X12372D01*
Y32097D01*
X12333D01*
Y32136D01*
X12256D01*
Y32175D01*
X12217D01*
Y32214D01*
X12178D01*
Y32292D01*
X12139D01*
Y32331D01*
X12100D01*
Y32408D01*
X12061D01*
Y32447D01*
X12022D01*
Y32564D01*
X11983D01*
Y32642D01*
X11945D01*
Y32836D01*
X11906D01*
Y33108D01*
X11945D01*
Y33303D01*
X11983D01*
Y33380D01*
X12022D01*
Y33497D01*
X12061D01*
Y33575D01*
X12100D01*
Y33614D01*
X12139D01*
Y33692D01*
X12178D01*
Y33731D01*
X12217D01*
Y33769D01*
X12256D01*
Y33808D01*
X12295D01*
Y33847D01*
X12333D01*
Y33886D01*
X12411D01*
Y33925D01*
X12450D01*
Y33964D01*
X12528D01*
Y34003D01*
X12606D01*
Y34042D01*
X12722D01*
Y34080D01*
X12878D01*
Y34119D01*
X13228D01*
Y34080D01*
D02*
G37*
%LPC*%
G36*
X17078Y37386D02*
X16689D01*
Y37347D01*
X16572D01*
Y37308D01*
X16533D01*
Y37269D01*
X16456D01*
Y37231D01*
X16417D01*
Y37192D01*
X16378D01*
Y37114D01*
X16339D01*
Y37036D01*
X16300D01*
Y36958D01*
X16261D01*
Y36608D01*
X16300D01*
Y36531D01*
X16339D01*
Y36453D01*
X16378D01*
Y36414D01*
X16417D01*
Y36336D01*
X16495D01*
Y36297D01*
X16533D01*
Y36258D01*
X16611D01*
Y36219D01*
X16689D01*
Y36180D01*
X17039D01*
Y36219D01*
X17156D01*
Y36258D01*
X17233D01*
Y36297D01*
X17272D01*
Y36336D01*
X17311D01*
Y36375D01*
X17350D01*
Y36414D01*
X17389D01*
Y36492D01*
X17428D01*
Y36569D01*
X17467D01*
Y36997D01*
X17428D01*
Y37075D01*
X17389D01*
Y37153D01*
X17350D01*
Y37192D01*
X17311D01*
Y37231D01*
X17272D01*
Y37269D01*
X17233D01*
Y37308D01*
X17156D01*
Y37347D01*
X17078D01*
Y37386D01*
D02*
G37*
G36*
X14433Y38242D02*
X14044D01*
Y38203D01*
X13967D01*
Y38164D01*
X13889D01*
Y38125D01*
X13850D01*
Y38086D01*
X13811D01*
Y38047D01*
X13772D01*
Y38008D01*
X13733D01*
Y37969D01*
X13694D01*
Y37892D01*
X13656D01*
Y37736D01*
X13617D01*
Y37542D01*
X13656D01*
Y37386D01*
X13694D01*
Y37308D01*
X13733D01*
Y37269D01*
X13772D01*
Y37231D01*
X13811D01*
Y37192D01*
X13850D01*
Y37153D01*
X13889D01*
Y37114D01*
X13967D01*
Y37075D01*
X14044D01*
Y37036D01*
X14433D01*
Y37075D01*
X14511D01*
Y37114D01*
X14589D01*
Y37153D01*
X14628D01*
Y37192D01*
X14667D01*
Y37231D01*
X14706D01*
Y37269D01*
X14744D01*
Y37308D01*
X14783D01*
Y37386D01*
X14822D01*
Y37542D01*
X14861D01*
Y37736D01*
X14822D01*
Y37892D01*
X14783D01*
Y37969D01*
X14744D01*
Y38008D01*
X14706D01*
Y38047D01*
X14667D01*
Y38086D01*
X14628D01*
Y38125D01*
X14589D01*
Y38164D01*
X14511D01*
Y38203D01*
X14433D01*
Y38242D01*
D02*
G37*
G36*
X17778Y34936D02*
X17428D01*
Y34897D01*
X17350D01*
Y34858D01*
X17272D01*
Y34819D01*
X17233D01*
Y34780D01*
X17156D01*
Y34703D01*
X17117D01*
Y34664D01*
X17078D01*
Y34586D01*
X17039D01*
Y34469D01*
X17000D01*
Y34158D01*
X17039D01*
Y34042D01*
X17078D01*
Y34003D01*
X17117D01*
Y33925D01*
X17156D01*
Y33886D01*
X17195D01*
Y33847D01*
X17272D01*
Y33808D01*
X17311D01*
Y33769D01*
X17389D01*
Y33731D01*
X17817D01*
Y33769D01*
X17895D01*
Y33808D01*
X17972D01*
Y33847D01*
X18011D01*
Y33886D01*
X18050D01*
Y33925D01*
X18089D01*
Y33964D01*
X18128D01*
Y34042D01*
X18167D01*
Y34119D01*
X18206D01*
Y34547D01*
X18167D01*
Y34625D01*
X18128D01*
Y34703D01*
X18089D01*
Y34742D01*
X18050D01*
Y34780D01*
X18011D01*
Y34819D01*
X17933D01*
Y34858D01*
X17895D01*
Y34897D01*
X17778D01*
Y34936D01*
D02*
G37*
G36*
X12411Y36180D02*
X12139D01*
Y36142D01*
X12022D01*
Y36103D01*
X11945D01*
Y36064D01*
X11867D01*
Y36025D01*
X11828D01*
Y35986D01*
X11789D01*
Y35947D01*
X11750D01*
Y35869D01*
X11711D01*
Y35792D01*
X11672D01*
Y35636D01*
X11633D01*
Y35480D01*
X11672D01*
Y35325D01*
X11711D01*
Y35247D01*
X11750D01*
Y35208D01*
X11789D01*
Y35131D01*
X11828D01*
Y35092D01*
X11906D01*
Y35053D01*
X11945D01*
Y35014D01*
X12022D01*
Y34975D01*
X12178D01*
Y34936D01*
X12333D01*
Y34975D01*
X12489D01*
Y35014D01*
X12567D01*
Y35053D01*
X12644D01*
Y35092D01*
X12683D01*
Y35131D01*
X12722D01*
Y35169D01*
X12761D01*
Y35247D01*
X12800D01*
Y35325D01*
X12839D01*
Y35442D01*
X12878D01*
Y35714D01*
X12839D01*
Y35831D01*
X12800D01*
Y35908D01*
X12761D01*
Y35947D01*
X12722D01*
Y35986D01*
X12683D01*
Y36025D01*
X12644D01*
Y36064D01*
X12567D01*
Y36103D01*
X12528D01*
Y36142D01*
X12411D01*
Y36180D01*
D02*
G37*
G36*
X15950Y32953D02*
X15522D01*
Y32914D01*
X15445D01*
Y32875D01*
X15406D01*
Y32836D01*
X15328D01*
Y32797D01*
X15289D01*
Y32758D01*
X15250D01*
Y32680D01*
X15211D01*
Y32603D01*
X15172D01*
Y32486D01*
X15133D01*
Y32253D01*
X15172D01*
Y32097D01*
X15211D01*
Y32019D01*
X15250D01*
Y31980D01*
X15289D01*
Y31942D01*
X15328D01*
Y31903D01*
X15367D01*
Y31864D01*
X15406D01*
Y31825D01*
X15483D01*
Y31786D01*
X15600D01*
Y31747D01*
X15911D01*
Y31786D01*
X16028D01*
Y31825D01*
X16067D01*
Y31864D01*
X16145D01*
Y31903D01*
X16183D01*
Y31942D01*
X16222D01*
Y31980D01*
X16261D01*
Y32058D01*
X16300D01*
Y32136D01*
X16339D01*
Y32292D01*
X16378D01*
Y32447D01*
X16339D01*
Y32603D01*
X16300D01*
Y32680D01*
X16261D01*
Y32719D01*
X16222D01*
Y32758D01*
X16183D01*
Y32797D01*
X16145D01*
Y32836D01*
X16106D01*
Y32875D01*
X16067D01*
Y32914D01*
X15950D01*
Y32953D01*
D02*
G37*
G36*
X13267Y33575D02*
X12878D01*
Y33536D01*
X12761D01*
Y33497D01*
X12722D01*
Y33458D01*
X12644D01*
Y33419D01*
X12606D01*
Y33380D01*
X12567D01*
Y33303D01*
X12528D01*
Y33264D01*
X12489D01*
Y33186D01*
Y33147D01*
X12450D01*
Y32797D01*
X12489D01*
Y32719D01*
X12528D01*
Y32642D01*
X12567D01*
Y32564D01*
X12606D01*
Y32525D01*
X12644D01*
Y32486D01*
X12722D01*
Y32447D01*
X12761D01*
Y32408D01*
X12878D01*
Y32369D01*
X13228D01*
Y32408D01*
X13344D01*
Y32447D01*
X13422D01*
Y32486D01*
X13461D01*
Y32525D01*
X13500D01*
Y32564D01*
X13539D01*
Y32603D01*
X13578D01*
Y32680D01*
X13617D01*
Y32758D01*
X13656D01*
Y33186D01*
X13617D01*
Y33264D01*
X13578D01*
Y33342D01*
X13539D01*
Y33380D01*
X13500D01*
Y33419D01*
X13461D01*
Y33458D01*
X13422D01*
Y33497D01*
X13344D01*
Y33536D01*
X13267D01*
Y33575D01*
D02*
G37*
%LPD*%
D10*
X66929Y52165D02*
G03*
X66929Y52165I-492J0D01*
G01*
D11*
X22835Y15748D02*
G03*
X22835Y15748I-7087J0D01*
G01*
Y102362D02*
G03*
X22835Y102362I-7087J0D01*
G01*
X109449Y15748D02*
G03*
X109449Y15748I-7087J0D01*
G01*
Y102362D02*
G03*
X109449Y102362I-7087J0D01*
G01*
D12*
X125925Y139499D02*
X129075D01*
X125925Y104999D02*
X129075D01*
X125925Y70499D02*
X129075D01*
X125925Y36000D02*
X129075D01*
X101500Y37000D02*
X102500Y38000D01*
X101500Y37000D02*
X102500Y36000D01*
Y38000D01*
X100500Y37000D02*
X101500D01*
Y33457D02*
Y40543D01*
X94000Y38000D02*
Y40543D01*
X109500D01*
Y39756D02*
Y40543D01*
X94000Y33457D02*
Y36000D01*
Y33457D02*
X109500D01*
Y34244D01*
X93500Y38000D02*
X94000D01*
X93500D02*
Y40543D01*
X94000D01*
X93500Y33457D02*
X94000D01*
X93500D02*
Y36000D01*
X94000D01*
X64000Y44925D02*
Y48075D01*
X55316Y80024D02*
X58071D01*
Y81402D01*
X57612Y81861D01*
X55775D01*
X55316Y81402D01*
Y80024D01*
Y84616D02*
Y82779D01*
X58071D01*
Y84616D01*
X56694Y82779D02*
Y83698D01*
X55775Y87371D02*
X55316Y86912D01*
Y85994D01*
X55775Y85534D01*
X56234D01*
X56694Y85994D01*
Y86912D01*
X57153Y87371D01*
X57612D01*
X58071Y86912D01*
Y85994D01*
X57612Y85534D01*
X55316Y88289D02*
Y89208D01*
Y88749D01*
X58071D01*
Y88289D01*
Y89208D01*
X55775Y92422D02*
X55316Y91963D01*
Y91044D01*
X55775Y90585D01*
X57612D01*
X58071Y91044D01*
Y91963D01*
X57612Y92422D01*
X56694D01*
Y91504D01*
X58071Y93340D02*
X55316D01*
X58071Y95177D01*
X55316D01*
Y97932D02*
Y96095D01*
X58071D01*
Y97932D01*
X56694Y96095D02*
Y97014D01*
X55316Y98850D02*
X58071D01*
Y100228D01*
X57612Y100687D01*
X55775D01*
X55316Y100228D01*
Y98850D01*
Y104360D02*
X58071D01*
Y105738D01*
X57612Y106197D01*
X57153D01*
X56694Y105738D01*
Y104360D01*
Y105738D01*
X56234Y106197D01*
X55775D01*
X55316Y105738D01*
Y104360D01*
Y107115D02*
X55775D01*
X56694Y108034D01*
X55775Y108952D01*
X55316D01*
X56694Y108034D02*
X58071D01*
X60498Y82320D02*
X60039Y81861D01*
Y80943D01*
X60498Y80484D01*
X60958D01*
X61417Y80943D01*
Y81861D01*
X61876Y82320D01*
X62335D01*
X62794Y81861D01*
Y80943D01*
X62335Y80484D01*
X62794Y83239D02*
X62335D01*
Y83698D01*
X62794D01*
Y83239D01*
X60498Y87371D02*
X60039Y86912D01*
Y85994D01*
X60498Y85534D01*
X60958D01*
X61417Y85994D01*
Y86912D01*
X61876Y87371D01*
X62335D01*
X62794Y86912D01*
Y85994D01*
X62335Y85534D01*
X62794Y88289D02*
X62335D01*
Y88749D01*
X62794D01*
Y88289D01*
Y90585D02*
X60958D01*
X60039Y91504D01*
X60958Y92422D01*
X62794D01*
X61417D01*
Y90585D01*
X62794Y93340D02*
X62335D01*
Y93799D01*
X62794D01*
Y93340D01*
Y100228D02*
Y98391D01*
X60958Y100228D01*
X60498D01*
X60039Y99769D01*
Y98850D01*
X60498Y98391D01*
Y101146D02*
X60039Y101605D01*
Y102524D01*
X60498Y102983D01*
X62335D01*
X62794Y102524D01*
Y101605D01*
X62335Y101146D01*
X60498D01*
X62794Y105738D02*
Y103901D01*
X60958Y105738D01*
X60498D01*
X60039Y105279D01*
Y104360D01*
X60498Y103901D01*
X60039Y108493D02*
X60498Y107574D01*
X61417Y106656D01*
X62335D01*
X62794Y107115D01*
Y108034D01*
X62335Y108493D01*
X61876D01*
X61417Y108034D01*
Y106656D01*
X92185Y83837D02*
Y81738D01*
X92054Y81344D01*
X91923Y81213D01*
X91660Y81082D01*
X91398D01*
X91136Y81213D01*
X91004Y81344D01*
X90873Y81738D01*
Y82000D01*
X93156Y83837D02*
X94599D01*
X93812Y82787D01*
X94206D01*
X94468Y82656D01*
X94599Y82525D01*
X94731Y82131D01*
Y81869D01*
X94599Y81475D01*
X94337Y81213D01*
X93943Y81082D01*
X93550D01*
X93156Y81213D01*
X93025Y81344D01*
X92894Y81606D01*
X95347Y80163D02*
X97447D01*
X99638Y83443D02*
X99375Y83706D01*
X98982Y83837D01*
X98457D01*
X98063Y83706D01*
X97801Y83443D01*
Y83181D01*
X97932Y82918D01*
X98063Y82787D01*
X98326Y82656D01*
X99113Y82394D01*
X99375Y82262D01*
X99507Y82131D01*
X99638Y81869D01*
Y81475D01*
X99375Y81213D01*
X98982Y81082D01*
X98457D01*
X98063Y81213D01*
X97801Y81475D01*
X101960Y83837D02*
X100254D01*
Y81082D01*
X101960D01*
X100254Y82525D02*
X101304D01*
X102419Y83837D02*
Y81082D01*
Y83837D02*
X104256Y81082D01*
Y83837D02*
Y81082D01*
X106854Y83443D02*
X106592Y83706D01*
X106198Y83837D01*
X105673D01*
X105280Y83706D01*
X105017Y83443D01*
Y83181D01*
X105148Y82918D01*
X105280Y82787D01*
X105542Y82656D01*
X106329Y82394D01*
X106592Y82262D01*
X106723Y82131D01*
X106854Y81869D01*
Y81475D01*
X106592Y81213D01*
X106198Y81082D01*
X105673D01*
X105280Y81213D01*
X105017Y81475D01*
X107471Y83312D02*
X107733Y83443D01*
X108127Y83837D01*
Y81082D01*
X66595Y115337D02*
Y113238D01*
X66464Y112844D01*
X66332Y112713D01*
X66070Y112582D01*
X65808D01*
X65545Y112713D01*
X65414Y112844D01*
X65283Y113238D01*
Y113500D01*
X67566Y115337D02*
X69009D01*
X68222Y114287D01*
X68615D01*
X68878Y114156D01*
X69009Y114025D01*
X69140Y113631D01*
Y113369D01*
X69009Y112975D01*
X68747Y112713D01*
X68353Y112582D01*
X67959D01*
X67566Y112713D01*
X67435Y112844D01*
X67303Y113106D01*
X69757Y111663D02*
X71856D01*
X74047Y114943D02*
X73785Y115206D01*
X73391Y115337D01*
X72866D01*
X72473Y115206D01*
X72211Y114943D01*
Y114681D01*
X72342Y114418D01*
X72473Y114287D01*
X72735Y114156D01*
X73523Y113894D01*
X73785Y113762D01*
X73916Y113631D01*
X74047Y113369D01*
Y112975D01*
X73785Y112713D01*
X73391Y112582D01*
X72866D01*
X72473Y112713D01*
X72211Y112975D01*
X76370Y115337D02*
X74664D01*
Y112582D01*
X76370D01*
X74664Y114025D02*
X75714D01*
X76829Y115337D02*
Y112582D01*
Y115337D02*
X78666Y112582D01*
Y115337D02*
Y112582D01*
X81264Y114943D02*
X81001Y115206D01*
X80608Y115337D01*
X80083D01*
X79689Y115206D01*
X79427Y114943D01*
Y114681D01*
X79558Y114418D01*
X79689Y114287D01*
X79952Y114156D01*
X80739Y113894D01*
X81001Y113762D01*
X81132Y113631D01*
X81264Y113369D01*
Y112975D01*
X81001Y112713D01*
X80608Y112582D01*
X80083D01*
X79689Y112713D01*
X79427Y112975D01*
X82011Y114681D02*
Y114812D01*
X82143Y115075D01*
X82274Y115206D01*
X82536Y115337D01*
X83061D01*
X83324Y115206D01*
X83455Y115075D01*
X83586Y114812D01*
Y114550D01*
X83455Y114287D01*
X83192Y113894D01*
X81880Y112582D01*
X83717D01*
X35595Y115337D02*
Y113238D01*
X35464Y112844D01*
X35333Y112713D01*
X35070Y112582D01*
X34808D01*
X34545Y112713D01*
X34414Y112844D01*
X34283Y113238D01*
Y113500D01*
X36566Y115337D02*
X38009D01*
X37222Y114287D01*
X37615D01*
X37878Y114156D01*
X38009Y114025D01*
X38140Y113631D01*
Y113369D01*
X38009Y112975D01*
X37747Y112713D01*
X37353Y112582D01*
X36959D01*
X36566Y112713D01*
X36435Y112844D01*
X36303Y113106D01*
X38757Y111663D02*
X40856D01*
X43047Y114943D02*
X42785Y115206D01*
X42391Y115337D01*
X41866D01*
X41473Y115206D01*
X41210Y114943D01*
Y114681D01*
X41342Y114418D01*
X41473Y114287D01*
X41735Y114156D01*
X42522Y113894D01*
X42785Y113762D01*
X42916Y113631D01*
X43047Y113369D01*
Y112975D01*
X42785Y112713D01*
X42391Y112582D01*
X41866D01*
X41473Y112713D01*
X41210Y112975D01*
X45370Y115337D02*
X43664D01*
Y112582D01*
X45370D01*
X43664Y114025D02*
X44714D01*
X45829Y115337D02*
Y112582D01*
Y115337D02*
X47666Y112582D01*
Y115337D02*
Y112582D01*
X50264Y114943D02*
X50001Y115206D01*
X49608Y115337D01*
X49083D01*
X48689Y115206D01*
X48427Y114943D01*
Y114681D01*
X48558Y114418D01*
X48689Y114287D01*
X48952Y114156D01*
X49739Y113894D01*
X50001Y113762D01*
X50133Y113631D01*
X50264Y113369D01*
Y112975D01*
X50001Y112713D01*
X49608Y112582D01*
X49083D01*
X48689Y112713D01*
X48427Y112975D01*
X51143Y115337D02*
X52586D01*
X51799Y114287D01*
X52192D01*
X52455Y114156D01*
X52586Y114025D01*
X52717Y113631D01*
Y113369D01*
X52586Y112975D01*
X52324Y112713D01*
X51930Y112582D01*
X51536D01*
X51143Y112713D01*
X51012Y112844D01*
X50880Y113106D01*
X10029Y83837D02*
Y81738D01*
X9898Y81344D01*
X9767Y81213D01*
X9504Y81082D01*
X9242D01*
X8980Y81213D01*
X8848Y81344D01*
X8717Y81738D01*
Y82000D01*
X11000Y83837D02*
X12443D01*
X11656Y82787D01*
X12050D01*
X12312Y82656D01*
X12443Y82525D01*
X12575Y82131D01*
Y81869D01*
X12443Y81475D01*
X12181Y81213D01*
X11787Y81082D01*
X11394D01*
X11000Y81213D01*
X10869Y81344D01*
X10738Y81606D01*
X13191Y80163D02*
X15291D01*
X17482Y83443D02*
X17219Y83706D01*
X16826Y83837D01*
X16301D01*
X15907Y83706D01*
X15645Y83443D01*
Y83181D01*
X15776Y82918D01*
X15907Y82787D01*
X16170Y82656D01*
X16957Y82394D01*
X17219Y82262D01*
X17350Y82131D01*
X17482Y81869D01*
Y81475D01*
X17219Y81213D01*
X16826Y81082D01*
X16301D01*
X15907Y81213D01*
X15645Y81475D01*
X19804Y83837D02*
X18098D01*
Y81082D01*
X19804D01*
X18098Y82525D02*
X19148D01*
X20263Y83837D02*
Y81082D01*
Y83837D02*
X22100Y81082D01*
Y83837D02*
Y81082D01*
X24698Y83443D02*
X24436Y83706D01*
X24042Y83837D01*
X23517D01*
X23124Y83706D01*
X22861Y83443D01*
Y83181D01*
X22992Y82918D01*
X23124Y82787D01*
X23386Y82656D01*
X24173Y82394D01*
X24436Y82262D01*
X24567Y82131D01*
X24698Y81869D01*
Y81475D01*
X24436Y81213D01*
X24042Y81082D01*
X23517D01*
X23124Y81213D01*
X22861Y81475D01*
X26627Y83837D02*
X25315Y82000D01*
X27283D01*
X26627Y83837D02*
Y81082D01*
X106445Y31878D02*
Y29122D01*
Y31878D02*
X107626D01*
X108020Y31746D01*
X108151Y31615D01*
X108282Y31353D01*
Y31090D01*
X108151Y30828D01*
X108020Y30697D01*
X107626Y30566D01*
X106445D01*
X107364D02*
X108282Y29122D01*
X108899Y31353D02*
X109161Y31484D01*
X109555Y31878D01*
Y29122D01*
X88445Y38378D02*
Y35622D01*
Y38378D02*
X89364D01*
X89757Y38246D01*
X90020Y37984D01*
X90151Y37722D01*
X90282Y37328D01*
Y36672D01*
X90151Y36278D01*
X90020Y36016D01*
X89757Y35754D01*
X89364Y35622D01*
X88445D01*
X90899Y37853D02*
X91161Y37984D01*
X91555Y38378D01*
Y35622D01*
X80920Y48878D02*
Y46122D01*
Y48878D02*
X82101D01*
X82495Y48746D01*
X82626Y48615D01*
X82757Y48353D01*
Y48090D01*
X82626Y47828D01*
X82495Y47697D01*
X82101Y47566D01*
X80920D01*
X81839D02*
X82757Y46122D01*
X84948Y48484D02*
X84817Y48746D01*
X84424Y48878D01*
X84161D01*
X83768Y48746D01*
X83505Y48353D01*
X83374Y47697D01*
Y47041D01*
X83505Y46516D01*
X83768Y46254D01*
X84161Y46122D01*
X84292D01*
X84686Y46254D01*
X84948Y46516D01*
X85080Y46910D01*
Y47041D01*
X84948Y47434D01*
X84686Y47697D01*
X84292Y47828D01*
X84161D01*
X83768Y47697D01*
X83505Y47434D01*
X83374Y47041D01*
X80855Y54878D02*
Y52122D01*
Y54878D02*
X82036D01*
X82429Y54747D01*
X82560Y54615D01*
X82692Y54353D01*
Y54090D01*
X82560Y53828D01*
X82429Y53697D01*
X82036Y53566D01*
X80855D01*
X81773D02*
X82692Y52122D01*
X84883Y54878D02*
X83571D01*
X83439Y53697D01*
X83571Y53828D01*
X83964Y53959D01*
X84358D01*
X84752Y53828D01*
X85014Y53566D01*
X85145Y53172D01*
Y52910D01*
X85014Y52516D01*
X84752Y52254D01*
X84358Y52122D01*
X83964D01*
X83571Y52254D01*
X83439Y52385D01*
X83308Y52647D01*
X32789Y53878D02*
Y51122D01*
Y53878D02*
X33970D01*
X34364Y53746D01*
X34495Y53615D01*
X34626Y53353D01*
Y53090D01*
X34495Y52828D01*
X34364Y52697D01*
X33970Y52566D01*
X32789D01*
X33708D02*
X34626Y51122D01*
X36555Y53878D02*
X35243Y52041D01*
X37211D01*
X36555Y53878D02*
Y51122D01*
X23122Y22974D02*
X25222D01*
X25615Y22842D01*
X25746Y22711D01*
X25878Y22449D01*
Y22186D01*
X25746Y21924D01*
X25615Y21793D01*
X25222Y21662D01*
X24959D01*
X23647Y23682D02*
X23516Y23945D01*
X23122Y24338D01*
X25878D01*
X64512Y68378D02*
Y65622D01*
X67058Y67722D02*
X66926Y67984D01*
X66664Y68247D01*
X66402Y68378D01*
X65877D01*
X65614Y68247D01*
X65352Y67984D01*
X65221Y67722D01*
X65089Y67328D01*
Y66672D01*
X65221Y66278D01*
X65352Y66016D01*
X65614Y65754D01*
X65877Y65622D01*
X66402D01*
X66664Y65754D01*
X66926Y66016D01*
X67058Y66278D01*
X67832Y67853D02*
X68094Y67984D01*
X68488Y68378D01*
Y65622D01*
X54678Y47222D02*
X54547Y47484D01*
X54285Y47746D01*
X54023Y47878D01*
X53498D01*
X53235Y47746D01*
X52973Y47484D01*
X52842Y47222D01*
X52710Y46828D01*
Y46172D01*
X52842Y45778D01*
X52973Y45516D01*
X53235Y45254D01*
X53498Y45122D01*
X54023D01*
X54285Y45254D01*
X54547Y45516D01*
X54678Y45778D01*
X55584Y47222D02*
Y47353D01*
X55715Y47615D01*
X55846Y47746D01*
X56109Y47878D01*
X56634D01*
X56896Y47746D01*
X57027Y47615D01*
X57158Y47353D01*
Y47090D01*
X57027Y46828D01*
X56765Y46434D01*
X55453Y45122D01*
X57289D01*
D13*
X125181Y144886D02*
X129819D01*
X125181Y142524D02*
Y144886D01*
X129819Y142524D02*
Y144886D01*
X125181Y134114D02*
Y136476D01*
X129819Y134114D02*
Y136476D01*
X125181Y134114D02*
X129819D01*
X125181Y110386D02*
X129819D01*
X125181Y108024D02*
Y110386D01*
X129819Y108024D02*
Y110386D01*
X125181Y99614D02*
Y101976D01*
X129819Y99614D02*
Y101976D01*
X125181Y99614D02*
X129819D01*
X125181Y75886D02*
X129819D01*
X125181Y73524D02*
Y75886D01*
X129819Y73523D02*
Y75886D01*
X125181Y65114D02*
Y67476D01*
X129819Y65114D02*
Y67476D01*
X125181Y65114D02*
X129819D01*
X125181Y41386D02*
X129819D01*
X125181Y39024D02*
Y41386D01*
X129819Y39024D02*
Y41386D01*
X125181Y30614D02*
Y32976D01*
X129819Y30614D02*
Y32976D01*
X125181Y30614D02*
X129819D01*
X58614Y44181D02*
Y48819D01*
X58614Y44181D02*
X60976D01*
X58614Y48819D02*
X60976D01*
X67024Y44181D02*
X69386D01*
X67024Y48819D02*
X69386D01*
Y44181D02*
Y48819D01*
D14*
X97732Y75866D02*
Y78866D01*
X104360D01*
X111831Y51992D02*
Y73898D01*
X97732Y47118D02*
X104360D01*
X97732D02*
Y50118D01*
X72142Y78614D02*
Y81614D01*
Y78614D02*
X78770D01*
X86240Y83488D02*
Y105394D01*
X72142Y110362D02*
X78770D01*
X72142Y107362D02*
Y110362D01*
X45968Y107362D02*
Y110362D01*
X39341D02*
X45968D01*
X31870Y83583D02*
Y105488D01*
X39341Y78614D02*
X45968D01*
Y81614D01*
X20378Y75866D02*
Y78866D01*
X13750D02*
X20378D01*
X6279Y52087D02*
Y73992D01*
X13750Y47118D02*
X20378D01*
Y50118D01*
X75556Y46220D02*
X76343D01*
X75556Y48779D02*
X76343D01*
X41657Y51221D02*
X42444D01*
X41657Y53780D02*
X42444D01*
X34646Y2362D02*
X83465D01*
X82677Y25984D02*
X87008D01*
Y31890D01*
X90551D01*
Y16535D02*
Y31890D01*
X31102Y25984D02*
X35433D01*
X31102D02*
Y31890D01*
X27559D02*
X31102D01*
X27559Y16535D02*
Y31890D01*
X75556Y54779D02*
X76343D01*
X75556Y52220D02*
X76343D01*
X101056Y29221D02*
X101843D01*
X101056Y31780D02*
X101843D01*
X127062Y156149D02*
X126874Y156524D01*
X126499Y156899D01*
X126124Y157086D01*
X125375D01*
X125000Y156899D01*
X124625Y156524D01*
X124437Y156149D01*
X124250Y155587D01*
Y154649D01*
X124437Y154087D01*
X124625Y153712D01*
X125000Y153337D01*
X125375Y153150D01*
X126124D01*
X126499Y153337D01*
X126874Y153712D01*
X127062Y154087D01*
X130042Y157086D02*
X128167Y154462D01*
X130979D01*
X130042Y157086D02*
Y153150D01*
X131673Y151838D02*
X134671D01*
X137802Y156524D02*
X137427Y156899D01*
X136864Y157086D01*
X136115D01*
X135552Y156899D01*
X135178Y156524D01*
Y156149D01*
X135365Y155774D01*
X135552Y155587D01*
X135927Y155399D01*
X137052Y155024D01*
X137427Y154837D01*
X137614Y154649D01*
X137802Y154275D01*
Y153712D01*
X137427Y153337D01*
X136864Y153150D01*
X136115D01*
X135552Y153337D01*
X135178Y153712D01*
X141119Y157086D02*
X138683D01*
Y153150D01*
X141119D01*
X138683Y155212D02*
X140182D01*
X141775Y157086D02*
Y153150D01*
Y157086D02*
X144399Y153150D01*
Y157086D02*
Y153150D01*
X148111Y156524D02*
X147736Y156899D01*
X147174Y157086D01*
X146424D01*
X145861Y156899D01*
X145486Y156524D01*
Y156149D01*
X145674Y155774D01*
X145861Y155587D01*
X146236Y155399D01*
X147361Y155024D01*
X147736Y154837D01*
X147923Y154649D01*
X148111Y154275D01*
Y153712D01*
X147736Y153337D01*
X147174Y153150D01*
X146424D01*
X145861Y153337D01*
X145486Y153712D01*
X150866Y157086D02*
X148992Y154462D01*
X151803D01*
X150866Y157086D02*
Y153150D01*
X127062Y121649D02*
X126874Y122024D01*
X126499Y122399D01*
X126124Y122586D01*
X125375D01*
X125000Y122399D01*
X124625Y122024D01*
X124437Y121649D01*
X124250Y121087D01*
Y120150D01*
X124437Y119587D01*
X124625Y119212D01*
X125000Y118837D01*
X125375Y118650D01*
X126124D01*
X126499Y118837D01*
X126874Y119212D01*
X127062Y119587D01*
X130042Y122586D02*
X128167Y119962D01*
X130979D01*
X130042Y122586D02*
Y118650D01*
X131673Y117338D02*
X134671D01*
X137802Y122024D02*
X137427Y122399D01*
X136864Y122586D01*
X136115D01*
X135552Y122399D01*
X135178Y122024D01*
Y121649D01*
X135365Y121274D01*
X135552Y121087D01*
X135927Y120899D01*
X137052Y120524D01*
X137427Y120337D01*
X137614Y120150D01*
X137802Y119775D01*
Y119212D01*
X137427Y118837D01*
X136864Y118650D01*
X136115D01*
X135552Y118837D01*
X135178Y119212D01*
X141119Y122586D02*
X138683D01*
Y118650D01*
X141119D01*
X138683Y120712D02*
X140182D01*
X141775Y122586D02*
Y118650D01*
Y122586D02*
X144399Y118650D01*
Y122586D02*
Y118650D01*
X148111Y122024D02*
X147736Y122399D01*
X147174Y122586D01*
X146424D01*
X145861Y122399D01*
X145486Y122024D01*
Y121649D01*
X145674Y121274D01*
X145861Y121087D01*
X146236Y120899D01*
X147361Y120524D01*
X147736Y120337D01*
X147923Y120150D01*
X148111Y119775D01*
Y119212D01*
X147736Y118837D01*
X147174Y118650D01*
X146424D01*
X145861Y118837D01*
X145486Y119212D01*
X149366Y122586D02*
X151428D01*
X150304Y121087D01*
X150866D01*
X151241Y120899D01*
X151428Y120712D01*
X151616Y120150D01*
Y119775D01*
X151428Y119212D01*
X151053Y118837D01*
X150491Y118650D01*
X149929D01*
X149366Y118837D01*
X149179Y119025D01*
X148992Y119400D01*
X127062Y87149D02*
X126874Y87524D01*
X126499Y87899D01*
X126124Y88086D01*
X125375D01*
X125000Y87899D01*
X124625Y87524D01*
X124437Y87149D01*
X124250Y86587D01*
Y85650D01*
X124437Y85087D01*
X124625Y84712D01*
X125000Y84337D01*
X125375Y84150D01*
X126124D01*
X126499Y84337D01*
X126874Y84712D01*
X127062Y85087D01*
X130042Y88086D02*
X128167Y85462D01*
X130979D01*
X130042Y88086D02*
Y84150D01*
X131673Y82838D02*
X134671D01*
X137802Y87524D02*
X137427Y87899D01*
X136864Y88086D01*
X136115D01*
X135552Y87899D01*
X135178Y87524D01*
Y87149D01*
X135365Y86774D01*
X135552Y86587D01*
X135927Y86399D01*
X137052Y86024D01*
X137427Y85837D01*
X137614Y85650D01*
X137802Y85275D01*
Y84712D01*
X137427Y84337D01*
X136864Y84150D01*
X136115D01*
X135552Y84337D01*
X135178Y84712D01*
X141119Y88086D02*
X138683D01*
Y84150D01*
X141119D01*
X138683Y86212D02*
X140182D01*
X141775Y88086D02*
Y84150D01*
Y88086D02*
X144399Y84150D01*
Y88086D02*
Y84150D01*
X148111Y87524D02*
X147736Y87899D01*
X147174Y88086D01*
X146424D01*
X145861Y87899D01*
X145486Y87524D01*
Y87149D01*
X145674Y86774D01*
X145861Y86587D01*
X146236Y86399D01*
X147361Y86024D01*
X147736Y85837D01*
X147923Y85650D01*
X148111Y85275D01*
Y84712D01*
X147736Y84337D01*
X147174Y84150D01*
X146424D01*
X145861Y84337D01*
X145486Y84712D01*
X149179Y87149D02*
Y87336D01*
X149366Y87711D01*
X149554Y87899D01*
X149929Y88086D01*
X150679D01*
X151053Y87899D01*
X151241Y87711D01*
X151428Y87336D01*
Y86962D01*
X151241Y86587D01*
X150866Y86024D01*
X148992Y84150D01*
X151616D01*
X127062Y52649D02*
X126874Y53024D01*
X126499Y53399D01*
X126124Y53586D01*
X125375D01*
X125000Y53399D01*
X124625Y53024D01*
X124437Y52649D01*
X124250Y52087D01*
Y51149D01*
X124437Y50587D01*
X124625Y50212D01*
X125000Y49837D01*
X125375Y49650D01*
X126124D01*
X126499Y49837D01*
X126874Y50212D01*
X127062Y50587D01*
X130042Y53586D02*
X128167Y50962D01*
X130979D01*
X130042Y53586D02*
Y49650D01*
X131673Y48338D02*
X134671D01*
X137802Y53024D02*
X137427Y53399D01*
X136864Y53586D01*
X136115D01*
X135552Y53399D01*
X135178Y53024D01*
Y52649D01*
X135365Y52274D01*
X135552Y52087D01*
X135927Y51899D01*
X137052Y51524D01*
X137427Y51337D01*
X137614Y51149D01*
X137802Y50775D01*
Y50212D01*
X137427Y49837D01*
X136864Y49650D01*
X136115D01*
X135552Y49837D01*
X135178Y50212D01*
X141119Y53586D02*
X138683D01*
Y49650D01*
X141119D01*
X138683Y51712D02*
X140182D01*
X141775Y53586D02*
Y49650D01*
Y53586D02*
X144399Y49650D01*
Y53586D02*
Y49650D01*
X148111Y53024D02*
X147736Y53399D01*
X147174Y53586D01*
X146424D01*
X145861Y53399D01*
X145486Y53024D01*
Y52649D01*
X145674Y52274D01*
X145861Y52087D01*
X146236Y51899D01*
X147361Y51524D01*
X147736Y51337D01*
X147923Y51149D01*
X148111Y50775D01*
Y50212D01*
X147736Y49837D01*
X147174Y49650D01*
X146424D01*
X145861Y49837D01*
X145486Y50212D01*
X148992Y52836D02*
X149366Y53024D01*
X149929Y53586D01*
Y49650D01*
M02*
