G04*
G04 #@! TF.GenerationSoftware,Altium Limited,Altium Designer,25.5.2 (35)*
G04*
G04 Layer_Physical_Order=2*
G04 Layer_Color=16711680*
%FSLAX25Y25*%
%MOIN*%
G70*
G04*
G04 #@! TF.SameCoordinates,1AF6E2F4-78F0-4DA7-8A0E-505A44BB4709*
G04*
G04*
G04 #@! TF.FilePolarity,Positive*
G04*
G01*
G75*
%ADD40C,0.01181*%
%ADD42C,0.02362*%
%ADD43C,0.11811*%
%ADD44C,0.01968*%
%ADD45C,0.02362*%
%ADD46R,0.03347X0.02362*%
%ADD47R,0.04134X0.06299*%
%ADD48C,0.01772*%
G36*
X102362Y118110D02*
X103394D01*
X105441Y117841D01*
X107435Y117306D01*
X109342Y116516D01*
X111130Y115484D01*
X112768Y114228D01*
X114228Y112768D01*
X115484Y111130D01*
X116516Y109342D01*
X117306Y107435D01*
X117841Y105441D01*
X118110Y103394D01*
Y102362D01*
X118110D01*
X118110Y16000D01*
X118110Y15748D01*
Y14716D01*
X117841Y12669D01*
X117306Y10675D01*
X116516Y8768D01*
X115484Y6980D01*
X114228Y5342D01*
X112768Y3883D01*
X111130Y2626D01*
X109342Y1594D01*
X107435Y804D01*
X105441Y270D01*
X103394Y0D01*
X14716D01*
X12669Y270D01*
X10675Y804D01*
X8768Y1594D01*
X6980Y2626D01*
X5342Y3883D01*
X3883Y5342D01*
X2626Y6980D01*
X1594Y8768D01*
X804Y10675D01*
X270Y12669D01*
X0Y14716D01*
Y15748D01*
Y102362D01*
Y103394D01*
X270Y105441D01*
X804Y107435D01*
X1594Y109342D01*
X2626Y111130D01*
X3883Y112768D01*
X5342Y114228D01*
X6980Y115484D01*
X8768Y116516D01*
X10675Y117306D01*
X12669Y117841D01*
X14716Y118110D01*
X15748D01*
X15748Y118110D01*
X102362Y118110D01*
D02*
G37*
%LPC*%
G36*
X103021Y109055D02*
X101703D01*
X100410Y108798D01*
X99192Y108293D01*
X98096Y107561D01*
X97163Y106629D01*
X96431Y105533D01*
X95926Y104314D01*
X95669Y103021D01*
Y101703D01*
X95926Y100410D01*
X96431Y99192D01*
X97163Y98096D01*
X98096Y97163D01*
X99192Y96431D01*
X100410Y95926D01*
X101703Y95669D01*
X103021D01*
X104314Y95926D01*
X105533Y96431D01*
X106629Y97163D01*
X107561Y98096D01*
X108293Y99192D01*
X108798Y100410D01*
X109055Y101703D01*
Y103021D01*
X108798Y104314D01*
X108293Y105533D01*
X107561Y106629D01*
X106629Y107561D01*
X105533Y108293D01*
X104314Y108798D01*
X103021Y109055D01*
D02*
G37*
G36*
X16407D02*
X15089D01*
X13796Y108798D01*
X12578Y108293D01*
X11482Y107561D01*
X10549Y106629D01*
X9817Y105533D01*
X9312Y104314D01*
X9055Y103021D01*
Y101703D01*
X9312Y100410D01*
X9817Y99192D01*
X10549Y98096D01*
X11482Y97163D01*
X12578Y96431D01*
X13796Y95926D01*
X15089Y95669D01*
X16407D01*
X17700Y95926D01*
X18918Y96431D01*
X20015Y97163D01*
X20947Y98096D01*
X21679Y99192D01*
X22184Y100410D01*
X22441Y101703D01*
Y103021D01*
X22184Y104314D01*
X21679Y105533D01*
X20947Y106629D01*
X20015Y107561D01*
X18918Y108293D01*
X17700Y108798D01*
X16407Y109055D01*
D02*
G37*
G36*
X59039Y106206D02*
X34000D01*
X33347Y106076D01*
X32794Y105706D01*
X13794Y86706D01*
X13424Y86153D01*
X13294Y85500D01*
Y68500D01*
X13424Y67847D01*
X13794Y67294D01*
X17333Y63754D01*
X17887Y63384D01*
X18539Y63255D01*
X20989D01*
X21148Y63189D01*
X21852D01*
X22504Y63459D01*
X23002Y63957D01*
X23272Y64608D01*
Y65313D01*
X23002Y65964D01*
X22774Y66192D01*
X23158Y67192D01*
X45294D01*
Y40000D01*
X45424Y39347D01*
X45794Y38794D01*
X48794Y35794D01*
X49347Y35424D01*
X50000Y35294D01*
X52595D01*
Y35032D01*
X53539D01*
X53553Y34996D01*
X54052Y34498D01*
X54703Y34228D01*
X55408D01*
X56059Y34498D01*
X56549Y34988D01*
X57529Y34930D01*
X57644Y34085D01*
Y29451D01*
X57751Y28914D01*
X58055Y28458D01*
X59948Y26566D01*
X60403Y26261D01*
X60941Y26154D01*
X62008D01*
Y23622D01*
X67716D01*
Y25552D01*
X76559D01*
X76608Y25532D01*
X76806D01*
X77000Y25493D01*
X77194Y25532D01*
X77392D01*
X77574Y25607D01*
X77768Y25646D01*
X77932Y25756D01*
X78115Y25831D01*
X78255Y25971D01*
X78419Y26081D01*
X78529Y26245D01*
X78669Y26385D01*
X78745Y26568D01*
X78854Y26732D01*
X78893Y26926D01*
X78969Y27108D01*
Y27306D01*
X79007Y27500D01*
X78969Y27694D01*
Y27892D01*
X78893Y28074D01*
X78854Y28268D01*
X78745Y28433D01*
X78669Y28615D01*
X78529Y28755D01*
X78419Y28919D01*
X78360Y28978D01*
X78196Y29088D01*
X78115Y29169D01*
X78010Y29212D01*
X77709Y29413D01*
X76941Y29566D01*
X67716D01*
Y31496D01*
X62008D01*
Y30159D01*
X61069Y29745D01*
X60454Y30231D01*
Y34138D01*
X60463Y34736D01*
X61309Y34964D01*
X61454Y34970D01*
X61926Y34498D01*
X62577Y34228D01*
X63282D01*
X63358Y34260D01*
X64324Y33294D01*
X64877Y32924D01*
X65530Y32794D01*
X85000D01*
X85653Y32924D01*
X86206Y33294D01*
X101706Y48794D01*
X102076Y49347D01*
X102206Y50000D01*
Y59986D01*
X102076Y60639D01*
X101706Y61192D01*
X100669Y62230D01*
X100115Y62600D01*
X99462Y62730D01*
X97317D01*
X87706Y72341D01*
Y77539D01*
X87576Y78192D01*
X87206Y78746D01*
X72587Y93365D01*
X72522Y93523D01*
X72023Y94022D01*
X71865Y94087D01*
X60246Y105706D01*
X59692Y106076D01*
X59039Y106206D01*
D02*
G37*
G36*
X56315Y31709D02*
X53878D01*
Y30595D01*
X52618D01*
Y31709D01*
X50181D01*
Y28189D01*
X51295D01*
Y26929D01*
X50181D01*
Y23410D01*
X52618D01*
Y24523D01*
X53878D01*
Y23410D01*
X56315D01*
Y26929D01*
X55201D01*
Y28189D01*
X56315D01*
Y31709D01*
D02*
G37*
G36*
X103021Y22441D02*
X101703D01*
X100410Y22184D01*
X99192Y21679D01*
X98096Y20947D01*
X97163Y20015D01*
X96431Y18918D01*
X95926Y17700D01*
X95669Y16407D01*
Y15089D01*
X95926Y13796D01*
X96431Y12578D01*
X97163Y11482D01*
X98096Y10549D01*
X99192Y9817D01*
X100410Y9312D01*
X101703Y9055D01*
X103021D01*
X104314Y9312D01*
X105533Y9817D01*
X106629Y10549D01*
X107561Y11482D01*
X108293Y12578D01*
X108798Y13796D01*
X109055Y15089D01*
Y16407D01*
X108798Y17700D01*
X108293Y18918D01*
X107561Y20015D01*
X106629Y20947D01*
X105533Y21679D01*
X104314Y22184D01*
X103021Y22441D01*
D02*
G37*
G36*
X16407D02*
X15089D01*
X13796Y22184D01*
X12578Y21679D01*
X11482Y20947D01*
X10549Y20015D01*
X9817Y18918D01*
X9312Y17700D01*
X9055Y16407D01*
Y15089D01*
X9312Y13796D01*
X9817Y12578D01*
X10549Y11482D01*
X11482Y10549D01*
X12578Y9817D01*
X13796Y9312D01*
X15089Y9055D01*
X16407D01*
X17700Y9312D01*
X18918Y9817D01*
X20015Y10549D01*
X20947Y11482D01*
X21679Y12578D01*
X22184Y13796D01*
X22441Y15089D01*
Y16407D01*
X22184Y17700D01*
X21679Y18918D01*
X20947Y20015D01*
X20015Y20947D01*
X18918Y21679D01*
X17700Y22184D01*
X16407Y22441D01*
D02*
G37*
%LPD*%
G36*
X37794Y99500D02*
X37924Y98847D01*
X38294Y98294D01*
X41337Y95250D01*
X41890Y94881D01*
X42543Y94751D01*
X46580D01*
X46738Y94685D01*
X47443D01*
X48094Y94955D01*
X48592Y95453D01*
X48862Y96104D01*
Y96809D01*
X48592Y97460D01*
X48403Y97650D01*
X48817Y98650D01*
X49937D01*
X51294Y97293D01*
Y70604D01*
X22011D01*
X21852Y70669D01*
X21148D01*
X20496Y70400D01*
X19998Y69901D01*
X19728Y69250D01*
Y68545D01*
X19887Y68162D01*
X19578Y67320D01*
X19401Y67077D01*
X18909Y67004D01*
X16706Y69207D01*
Y84793D01*
X34707Y102794D01*
X37794D01*
Y99500D01*
D02*
G37*
G36*
X95043Y56242D02*
X95108Y56083D01*
X95607Y55585D01*
X96258Y55315D01*
X96963D01*
X97614Y55585D01*
X97794Y55765D01*
X98794Y55351D01*
Y50707D01*
X84293Y36206D01*
X73464D01*
X72772Y37148D01*
Y37285D01*
X74430Y38943D01*
X74734Y39399D01*
X74841Y39937D01*
Y50463D01*
X74938Y50560D01*
X75208Y51211D01*
Y51916D01*
X74938Y52567D01*
X74440Y53065D01*
X73789Y53335D01*
X73084D01*
X72433Y53065D01*
X71935Y52567D01*
X71665Y51916D01*
Y51860D01*
X70665Y51368D01*
X70597Y51416D01*
X70471Y51534D01*
X70403Y51603D01*
X70073Y51933D01*
X69788Y52051D01*
X69673Y52309D01*
X69640Y52355D01*
X69620Y52408D01*
X69387Y52781D01*
X69348Y52822D01*
X69321Y52872D01*
X69038Y53209D01*
X68994Y53245D01*
X68960Y53290D01*
X68633Y53585D01*
X68584Y53614D01*
X68545Y53654D01*
X68179Y53900D01*
X68127Y53922D01*
X68082Y53956D01*
X67686Y54149D01*
X67632Y54163D01*
X67583Y54191D01*
X67164Y54327D01*
X67108Y54334D01*
X67055Y54354D01*
X66838Y54392D01*
X66768Y54391D01*
X66699Y54405D01*
X66613Y54387D01*
X66525Y54386D01*
X66461Y54357D01*
X66391Y54343D01*
X66336Y54307D01*
X66326Y54323D01*
X66251Y54372D01*
X66190Y54437D01*
X66088Y54482D01*
X65995Y54544D01*
X65907Y54561D01*
X65825Y54597D01*
X65714Y54600D01*
X65605Y54621D01*
X65517Y54604D01*
X65428Y54606D01*
X65211Y54568D01*
X65144Y54542D01*
X65073Y54533D01*
X64654Y54397D01*
X64591Y54362D01*
X64522Y54344D01*
X64126Y54151D01*
X64069Y54107D01*
X64003Y54080D01*
X63638Y53833D01*
X63587Y53782D01*
X63526Y53746D01*
X63198Y53451D01*
X63155Y53394D01*
X63099Y53349D01*
X62816Y53011D01*
X62782Y52948D01*
X62733Y52896D01*
X62499Y52523D01*
X62474Y52456D01*
X62433Y52397D01*
X62253Y51995D01*
X62238Y51925D01*
X62205Y51861D01*
X62083Y51437D01*
X62077Y51366D01*
X62054Y51298D01*
X62030Y51130D01*
X63180D01*
Y49870D01*
X62030D01*
X62054Y49702D01*
X62077Y49634D01*
X62083Y49562D01*
X62205Y49139D01*
X62238Y49075D01*
X62253Y49005D01*
X62433Y48603D01*
X62474Y48544D01*
X62499Y48477D01*
X62733Y48104D01*
X62782Y48052D01*
X62816Y47989D01*
X63099Y47651D01*
X63155Y47607D01*
X63198Y47549D01*
X63526Y47254D01*
X63587Y47218D01*
X63638Y47167D01*
X64003Y46920D01*
X64069Y46893D01*
X64126Y46849D01*
X64522Y46656D01*
X64591Y46638D01*
X64654Y46603D01*
X65073Y46467D01*
X65144Y46458D01*
X65211Y46432D01*
X65428Y46394D01*
X65517Y46396D01*
X65605Y46379D01*
X65714Y46400D01*
X65825Y46403D01*
X65907Y46439D01*
X65995Y46456D01*
X66088Y46518D01*
X66190Y46563D01*
X66251Y46628D01*
X66326Y46677D01*
X66337Y46693D01*
X66391Y46657D01*
X66461Y46643D01*
X66525Y46614D01*
X66613Y46613D01*
X66699Y46595D01*
X66768Y46609D01*
X66838Y46608D01*
X67055Y46646D01*
X67108Y46666D01*
X67164Y46673D01*
X67583Y46809D01*
X67632Y46837D01*
X67686Y46851D01*
X68082Y47044D01*
X68127Y47078D01*
X68179Y47100D01*
X68545Y47346D01*
X68584Y47387D01*
X68633Y47415D01*
X68960Y47710D01*
X68994Y47755D01*
X69038Y47791D01*
X69321Y48128D01*
X69348Y48178D01*
X69387Y48219D01*
X69620Y48592D01*
X69640Y48645D01*
X69673Y48691D01*
X69712Y48780D01*
X70073Y48929D01*
X70571Y49428D01*
X70759Y49882D01*
X71447Y50166D01*
X71841Y50223D01*
X72032Y50037D01*
Y40519D01*
X70785Y39272D01*
X70648D01*
X69996Y39002D01*
X69498Y38504D01*
X69228Y37852D01*
Y37148D01*
X68536Y36206D01*
X66237D01*
X65390Y37053D01*
Y39031D01*
X65390Y39069D01*
Y40031D01*
X65390Y40069D01*
Y43968D01*
X60469D01*
Y43355D01*
X57516D01*
Y43868D01*
X52595D01*
Y39968D01*
X52595Y39931D01*
Y38969D01*
X51688Y38706D01*
X50707D01*
X48706Y40707D01*
Y67192D01*
X84093D01*
X95043Y56242D01*
D02*
G37*
G36*
G01X65605Y47398D02*
G01Y53602D01*
G03Y47398I547J-3102D01*
D02*
G37*
G36*
G01X66699D02*
G03Y53602I-547J3102D01*
G01Y47398D01*
D02*
G37*
D40*
X55055Y41899D02*
X55106Y41950D01*
X59049D01*
X62992D01*
X59049Y29451D02*
Y41950D01*
Y29451D02*
X60941Y27559D01*
X64862D01*
X71000Y37500D02*
X73436Y39937D01*
Y51564D01*
D42*
X76941Y27559D02*
X77000Y27500D01*
X64862Y27559D02*
X76941D01*
D43*
X15748Y15748D02*
D03*
Y102362D02*
D03*
X102362Y15748D02*
D03*
Y102362D02*
D03*
D44*
X62929Y36000D02*
D03*
X96610Y61024D02*
D03*
X71020Y92520D02*
D03*
X47091Y96457D02*
D03*
X21500Y64961D02*
D03*
X55055Y36000D02*
D03*
X21500Y68898D02*
D03*
X71020Y88583D02*
D03*
X96610Y57087D02*
D03*
X47091Y100394D02*
D03*
X68500Y45000D02*
D03*
X7874Y7874D02*
D03*
Y23622D02*
D03*
Y31496D02*
D03*
Y62992D02*
D03*
Y70866D02*
D03*
Y94488D02*
D03*
Y110236D02*
D03*
X15748Y39370D02*
D03*
Y47244D02*
D03*
X23622Y7874D02*
D03*
Y31496D02*
D03*
Y39370D02*
D03*
Y47244D02*
D03*
Y78740D02*
D03*
Y110236D02*
D03*
X31496Y23622D02*
D03*
Y31496D02*
D03*
Y39370D02*
D03*
Y47244D02*
D03*
Y94488D02*
D03*
X39370Y7874D02*
D03*
Y47244D02*
D03*
X47244Y7874D02*
D03*
Y78740D02*
D03*
Y110236D02*
D03*
X55118Y7874D02*
D03*
Y110236D02*
D03*
X62992Y7874D02*
D03*
Y110236D02*
D03*
X70866Y7874D02*
D03*
Y62992D02*
D03*
Y110236D02*
D03*
X78740Y7874D02*
D03*
Y15748D02*
D03*
Y62992D02*
D03*
X86614Y47244D02*
D03*
Y55118D02*
D03*
Y86614D02*
D03*
Y94488D02*
D03*
X94488Y7874D02*
D03*
Y78740D02*
D03*
Y86614D02*
D03*
Y110236D02*
D03*
X102362Y47244D02*
D03*
X110236Y7874D02*
D03*
Y23622D02*
D03*
Y39370D02*
D03*
Y55118D02*
D03*
Y62992D02*
D03*
Y86614D02*
D03*
Y94488D02*
D03*
Y110236D02*
D03*
X71000Y37500D02*
D03*
X73436Y51564D02*
D03*
X69069Y50431D02*
D03*
D45*
X77000Y27500D02*
D03*
D46*
X62929Y42000D02*
D03*
Y37101D02*
D03*
X55055Y41899D02*
D03*
Y37000D02*
D03*
D47*
X64862Y27559D02*
D03*
X53248D02*
D03*
D48*
X62929Y37101D02*
X63480Y36550D01*
Y36805D02*
X63717D01*
Y36313D02*
Y36805D01*
Y36313D02*
X65530Y34500D01*
X85000D01*
X100500Y50000D01*
Y59986D01*
X99462Y61024D02*
X100500Y59986D01*
X96610Y61024D02*
X99462D01*
X86000Y71634D02*
X96610Y61024D01*
X86000Y71634D02*
Y77539D01*
X71020Y92520D02*
X86000Y77539D01*
X59039Y104500D02*
X71020Y92520D01*
X39500Y104500D02*
X59039D01*
X34000D02*
X39500D01*
Y99500D02*
Y104500D01*
X15000Y85500D02*
X34000Y104500D01*
X39500Y99500D02*
X42543Y96457D01*
X15000Y68500D02*
Y85500D01*
X42543Y96457D02*
X47091D01*
X15000Y68500D02*
X18539Y64961D01*
X21500D01*
X50000Y37000D02*
X55055D01*
X47000Y40000D02*
X50000Y37000D01*
X47000Y40000D02*
Y68898D01*
X21500D02*
X47000D01*
X53000D01*
X71000D01*
X53000D02*
Y98000D01*
X71000Y68898D02*
X71020Y68917D01*
Y88583D01*
X71000Y68898D02*
X84799D01*
X50644Y100356D02*
X53000Y98000D01*
X84799Y68898D02*
X96610Y57087D01*
X47128Y100356D02*
X50644D01*
X47091Y100394D02*
X47128Y100356D01*
M02*
