G04*
G04 #@! TF.GenerationSoftware,Altium Limited,Altium Designer,25.5.2 (35)*
G04*
G04 Layer_Color=16711935*
%FSLAX25Y25*%
%MOIN*%
G70*
G04*
G04 #@! TF.SameCoordinates,1AF6E2F4-78F0-4DA7-8A0E-505A44BB4709*
G04*
G04*
G04 #@! TF.FilePolarity,Negative*
G04*
G01*
G75*
%ADD37C,0.12126*%
%ADD38C,0.02284*%
%ADD39C,0.02677*%
%ADD49R,0.03661X0.02677*%
%ADD50R,0.04449X0.06614*%
G36*
X65606Y53760D02*
X65608Y53760D01*
X65622Y53758D01*
X65636Y53757D01*
X65637Y53756D01*
X65639Y53756D01*
X65652Y53752D01*
X65665Y53748D01*
X65667Y53747D01*
X65668Y53747D01*
X65680Y53740D01*
X65693Y53733D01*
X65694Y53732D01*
X65696Y53731D01*
X65706Y53723D01*
X65717Y53714D01*
X65718Y53712D01*
X65719Y53711D01*
X65728Y53700D01*
X65736Y53690D01*
X65737Y53688D01*
X65738Y53687D01*
X65745Y53675D01*
X65751Y53662D01*
X65751Y53661D01*
X65752Y53659D01*
X65756Y53646D01*
X65760Y53633D01*
X65760Y53631D01*
X65761Y53629D01*
X65762Y53615D01*
X65763Y53602D01*
X65763Y47398D01*
X65762Y47384D01*
X65761Y47371D01*
X65760Y47369D01*
X65760Y47367D01*
X65756Y47354D01*
X65752Y47341D01*
X65751Y47339D01*
X65751Y47338D01*
X65744Y47325D01*
X65738Y47313D01*
X65737Y47312D01*
X65736Y47310D01*
X65728Y47300D01*
X65719Y47289D01*
X65718Y47288D01*
X65717Y47286D01*
X65706Y47277D01*
X65696Y47269D01*
X65694Y47268D01*
X65693Y47267D01*
X65680Y47260D01*
X65668Y47253D01*
X65667Y47253D01*
X65665Y47252D01*
X65652Y47248D01*
X65639Y47244D01*
X65637Y47243D01*
X65636Y47243D01*
X65622Y47242D01*
X65608Y47240D01*
X65606Y47240D01*
X65605Y47240D01*
X65605D01*
X65591Y47241D01*
X65577Y47242D01*
X65360Y47281D01*
X65350Y47284D01*
X65339Y47286D01*
X64920Y47422D01*
X64910Y47427D01*
X64900Y47430D01*
X64504Y47624D01*
X64494Y47629D01*
X64485Y47635D01*
X64119Y47881D01*
X64111Y47888D01*
X64102Y47894D01*
X63775Y48189D01*
X63767Y48197D01*
X63759Y48205D01*
X63476Y48542D01*
X63470Y48552D01*
X63463Y48560D01*
X63230Y48934D01*
X63225Y48944D01*
X63219Y48953D01*
X63040Y49356D01*
X63037Y49366D01*
X63033Y49376D01*
X62911Y49800D01*
X62909Y49811D01*
X62907Y49821D01*
X62845Y50258D01*
X62845Y50269D01*
X62844Y50280D01*
X62844Y50720D01*
X62845Y50731D01*
X62845Y50742D01*
X62907Y51178D01*
X62909Y51189D01*
X62911Y51200D01*
X63033Y51623D01*
X63037Y51634D01*
X63040Y51644D01*
X63219Y52047D01*
X63225Y52056D01*
X63230Y52066D01*
X63463Y52440D01*
X63470Y52448D01*
X63476Y52457D01*
X63759Y52795D01*
X63767Y52803D01*
X63775Y52811D01*
X64102Y53106D01*
X64111Y53112D01*
X64119Y53119D01*
X64485Y53365D01*
X64494Y53371D01*
X64504Y53377D01*
X64900Y53570D01*
X64910Y53574D01*
X64920Y53578D01*
X65339Y53714D01*
X65350Y53716D01*
X65360Y53719D01*
X65577Y53758D01*
X65591Y53759D01*
X65605Y53760D01*
X65606Y53760D01*
D02*
G37*
G36*
X66712Y53759D02*
X66726Y53758D01*
X66943Y53719D01*
X66954Y53716D01*
X66965Y53714D01*
X67383Y53578D01*
X67393Y53574D01*
X67404Y53570D01*
X67800Y53377D01*
X67809Y53371D01*
X67819Y53365D01*
X68184Y53119D01*
X68192Y53112D01*
X68201Y53106D01*
X68529Y52811D01*
X68536Y52803D01*
X68544Y52795D01*
X68827Y52457D01*
X68834Y52448D01*
X68840Y52440D01*
X69074Y52066D01*
X69079Y52056D01*
X69084Y52047D01*
X69263Y51644D01*
X69267Y51634D01*
X69271Y51623D01*
X69392Y51200D01*
X69394Y51189D01*
X69397Y51178D01*
X69458Y50742D01*
X69459Y50731D01*
X69460Y50720D01*
X69460Y50280D01*
X69459Y50269D01*
X69458Y50258D01*
X69397Y49821D01*
X69394Y49811D01*
X69392Y49800D01*
X69271Y49376D01*
X69267Y49366D01*
X69263Y49356D01*
X69084Y48953D01*
X69078Y48944D01*
X69074Y48934D01*
X68840Y48560D01*
X68834Y48552D01*
X68827Y48542D01*
X68544Y48205D01*
X68536Y48197D01*
X68529Y48189D01*
X68201Y47894D01*
X68193Y47888D01*
X68184Y47881D01*
X67819Y47635D01*
X67809Y47629D01*
X67800Y47624D01*
X67404Y47430D01*
X67393Y47427D01*
X67383Y47422D01*
X66965Y47286D01*
X66954Y47284D01*
X66943Y47281D01*
X66726Y47242D01*
X66712Y47241D01*
X66699Y47240D01*
X66697Y47240D01*
X66695Y47240D01*
X66682Y47242D01*
X66668Y47243D01*
X66666Y47243D01*
X66664Y47244D01*
X66651Y47248D01*
X66638Y47252D01*
X66637Y47253D01*
X66635Y47253D01*
X66623Y47260D01*
X66611Y47267D01*
X66609Y47268D01*
X66608Y47269D01*
X66597Y47278D01*
X66587Y47286D01*
X66586Y47288D01*
X66584Y47289D01*
X66576Y47300D01*
X66567Y47310D01*
X66566Y47312D01*
X66565Y47313D01*
X66559Y47326D01*
X66553Y47338D01*
X66552Y47339D01*
X66551Y47341D01*
X66547Y47354D01*
X66544Y47367D01*
X66543Y47369D01*
X66543Y47371D01*
X66542Y47385D01*
X66540Y47398D01*
X66540Y53602D01*
X66542Y53616D01*
X66543Y53629D01*
X66543Y53631D01*
X66543Y53633D01*
X66548Y53646D01*
X66551Y53659D01*
X66552Y53661D01*
X66553Y53662D01*
X66559Y53675D01*
X66565Y53687D01*
X66566Y53688D01*
X66567Y53690D01*
X66576Y53701D01*
X66584Y53711D01*
X66586Y53712D01*
X66587Y53714D01*
X66598Y53723D01*
X66608Y53731D01*
X66609Y53732D01*
X66611Y53733D01*
X66623Y53740D01*
X66635Y53747D01*
X66637Y53747D01*
X66638Y53748D01*
X66651Y53752D01*
X66664Y53756D01*
X66666Y53756D01*
X66668Y53757D01*
X66682Y53758D01*
X66695Y53760D01*
X66697Y53760D01*
X66699Y53760D01*
X66699D01*
X66712Y53759D01*
D02*
G37*
D37*
X15748Y15748D02*
D03*
Y102362D02*
D03*
X102362Y15748D02*
D03*
Y102362D02*
D03*
D38*
X62929Y36000D02*
D03*
X96610Y61024D02*
D03*
X71020Y92520D02*
D03*
X47091Y96457D02*
D03*
X21500Y64961D02*
D03*
X55055Y36000D02*
D03*
X21500Y68898D02*
D03*
X71020Y88583D02*
D03*
X96610Y57087D02*
D03*
X47091Y100394D02*
D03*
X68500Y45000D02*
D03*
X71000Y37500D02*
D03*
X73436Y51564D02*
D03*
X69069Y50431D02*
D03*
D39*
X77000Y27500D02*
D03*
D49*
X62929Y42000D02*
D03*
Y37101D02*
D03*
X55055Y41899D02*
D03*
Y37000D02*
D03*
D50*
X64862Y27559D02*
D03*
X53248D02*
D03*
M02*
