G04*
G04 #@! TF.GenerationSoftware,Altium Limited,Altium Designer,25.5.2 (35)*
G04*
G04 Layer_Color=8388736*
%FSLAX25Y25*%
%MOIN*%
G70*
G04*
G04 #@! TF.SameCoordinates,1AF6E2F4-78F0-4DA7-8A0E-505A44BB4709*
G04*
G04*
G04 #@! TF.FilePolarity,Negative*
G04*
G01*
G75*
%ADD26R,0.03661X0.03661*%
%ADD27R,0.06417X0.02677*%
%ADD28R,0.07402X0.05039*%
%ADD29R,0.02677X0.03661*%
%ADD30R,0.06221X0.13701*%
%ADD31R,0.04252X0.14094*%
%ADD32R,0.03661X0.01496*%
%ADD33R,0.01496X0.03661*%
%ADD34R,0.06417X0.06417*%
%ADD35R,0.03661X0.03661*%
%ADD36R,0.05039X0.05039*%
%ADD37C,0.12126*%
%ADD38C,0.02284*%
%ADD39C,0.02677*%
D26*
X127500Y136449D02*
D03*
Y142551D02*
D03*
Y101949D02*
D03*
Y108051D02*
D03*
Y67449D02*
D03*
Y73551D02*
D03*
Y32949D02*
D03*
Y39051D02*
D03*
D27*
X99360Y57087D02*
D03*
Y64961D02*
D03*
Y72835D02*
D03*
Y68898D02*
D03*
Y61024D02*
D03*
Y53150D02*
D03*
X73770Y84646D02*
D03*
Y92520D02*
D03*
Y100394D02*
D03*
Y104331D02*
D03*
Y96457D02*
D03*
Y88583D02*
D03*
X44341Y104331D02*
D03*
Y96457D02*
D03*
Y88583D02*
D03*
Y84646D02*
D03*
Y92520D02*
D03*
Y100394D02*
D03*
X18750Y72835D02*
D03*
Y64961D02*
D03*
Y57087D02*
D03*
Y53150D02*
D03*
Y61024D02*
D03*
Y68898D02*
D03*
D28*
X109301Y48031D02*
D03*
Y77953D02*
D03*
X83711Y109449D02*
D03*
Y79528D02*
D03*
X34400D02*
D03*
Y109449D02*
D03*
X8809Y48031D02*
D03*
Y77953D02*
D03*
D29*
X78399Y47500D02*
D03*
X73500D02*
D03*
X44500Y52500D02*
D03*
X39601D02*
D03*
X73500Y53500D02*
D03*
X78399D02*
D03*
X99000Y30500D02*
D03*
X103899D02*
D03*
D30*
X30118Y8268D02*
D03*
X87992D02*
D03*
D31*
X70866Y30906D02*
D03*
X78740D02*
D03*
X62992D02*
D03*
X55118D02*
D03*
X47244D02*
D03*
X39370D02*
D03*
D32*
X64764Y55118D02*
D03*
Y57087D02*
D03*
Y59055D02*
D03*
Y61024D02*
D03*
X53347D02*
D03*
Y59055D02*
D03*
Y57087D02*
D03*
Y55118D02*
D03*
D33*
X62008Y63779D02*
D03*
X60039D02*
D03*
X58071D02*
D03*
X56102D02*
D03*
Y52362D02*
D03*
X58071D02*
D03*
X60039D02*
D03*
X62008D02*
D03*
D34*
X59055Y58071D02*
D03*
D35*
X60949Y46500D02*
D03*
X67051D02*
D03*
D36*
X97366Y37000D02*
D03*
X105634D02*
D03*
D37*
X15748Y15748D02*
D03*
Y102362D02*
D03*
X102362Y15748D02*
D03*
Y102362D02*
D03*
D38*
X62929Y36000D02*
D03*
X96610Y61024D02*
D03*
X71020Y92520D02*
D03*
X47091Y96457D02*
D03*
X21500Y64961D02*
D03*
X55055Y36000D02*
D03*
X21500Y68898D02*
D03*
X71020Y88583D02*
D03*
X96610Y57087D02*
D03*
X47091Y100394D02*
D03*
X68500Y45000D02*
D03*
X71000Y37500D02*
D03*
X73436Y51564D02*
D03*
X69069Y50431D02*
D03*
D39*
X77000Y27500D02*
D03*
M02*
