G04*
G04 #@! TF.GenerationSoftware,Altium Limited,Altium Designer,25.5.2 (35)*
G04*
G04 Layer_Color=128*
%FSLAX25Y25*%
%MOIN*%
G70*
G04*
G04 #@! TF.SameCoordinates,1AF6E2F4-78F0-4DA7-8A0E-505A44BB4709*
G04*
G04*
G04 #@! TF.FilePolarity,Positive*
G04*
G01*
G75*
%ADD46R,0.03347X0.02362*%
%ADD47R,0.04134X0.06299*%
G36*
X65605Y47398D02*
X65605D01*
X65388Y47436D01*
X64969Y47573D01*
X64573Y47766D01*
X64208Y48012D01*
X63881Y48307D01*
X63597Y48644D01*
X63364Y49018D01*
X63185Y49420D01*
X63063Y49844D01*
X63002Y50280D01*
X63002Y50720D01*
X63063Y51156D01*
X63185Y51580D01*
X63364Y51982D01*
X63597Y52356D01*
X63881Y52693D01*
X64208Y52988D01*
X64573Y53234D01*
X64969Y53427D01*
X65388Y53563D01*
X65605Y53602D01*
X65605Y47398D01*
D02*
G37*
G36*
X66916Y53563D02*
X67335Y53427D01*
X67730Y53234D01*
X68096Y52988D01*
X68423Y52693D01*
X68706Y52356D01*
X68940Y51982D01*
X69119Y51580D01*
X69240Y51156D01*
X69301Y50720D01*
X69301Y50280D01*
X69240Y49844D01*
X69119Y49420D01*
X68940Y49018D01*
X68706Y48644D01*
X68423Y48307D01*
X68096Y48012D01*
X67730Y47766D01*
X67335Y47573D01*
X66916Y47436D01*
X66699Y47398D01*
X66699Y53602D01*
X66699D01*
X66916Y53563D01*
D02*
G37*
D46*
X62929Y42000D02*
D03*
Y37101D02*
D03*
X55055Y41899D02*
D03*
Y37000D02*
D03*
D47*
X64862Y27559D02*
D03*
X53248D02*
D03*
M02*
