G04*
G04 #@! TF.GenerationSoftware,Altium Limited,Altium Designer,25.5.2 (35)*
G04*
G04 Layer_Physical_Order=4*
G04 Layer_Color=16711680*
%FSLAX25Y25*%
%MOIN*%
G70*
G04*
G04 #@! TF.SameCoordinates,C00E9742-E408-46E0-AF1C-4EDC3A8FA902*
G04*
G04*
G04 #@! TF.FilePolarity,Positive*
G04*
G01*
G75*
%ADD176C,0.23622*%
%ADD177R,0.05984X0.05984*%
%ADD178C,0.05984*%
%ADD179C,0.04016*%
%ADD180R,0.05984X0.05984*%
%ADD181C,0.02362*%
%ADD182O,0.09843X0.06890*%
%ADD183C,0.10630*%
%ADD184C,0.15945*%
%ADD185R,0.15945X0.15945*%
%ADD186C,0.06496*%
D176*
X543000Y323000D02*
D03*
X484000Y328000D02*
D03*
X446500Y321000D02*
D03*
X411000Y318500D02*
D03*
D177*
X943012Y235189D02*
D03*
D178*
Y223378D02*
D03*
Y211567D02*
D03*
Y199756D02*
D03*
X931201Y235189D02*
D03*
Y223378D02*
D03*
Y211567D02*
D03*
Y199756D02*
D03*
X870500Y66000D02*
D03*
X882311Y77811D02*
D03*
X870500D02*
D03*
X814189Y51689D02*
D03*
X826000Y63500D02*
D03*
X814189D02*
D03*
X625500Y180689D02*
D03*
X637311Y192500D02*
D03*
X625500D02*
D03*
X671000Y45000D02*
D03*
X682811Y56811D02*
D03*
X671000D02*
D03*
D179*
X927500Y247000D02*
D03*
Y187945D02*
D03*
X894122Y81512D02*
D03*
X858689D02*
D03*
X837811Y67201D02*
D03*
X802378D02*
D03*
X649122Y196201D02*
D03*
X613689D02*
D03*
X694622Y60512D02*
D03*
X659189D02*
D03*
D180*
X882311Y66000D02*
D03*
X826000Y51689D02*
D03*
X637311Y180689D02*
D03*
X682811Y45000D02*
D03*
D181*
X552000Y1177500D02*
D03*
D03*
X501000D02*
D03*
D03*
X550000Y1111500D02*
D03*
D03*
X499500D02*
D03*
D03*
X549000Y1045500D02*
D03*
D03*
X498500D02*
D03*
D03*
X690500Y979500D02*
D03*
D03*
X640000D02*
D03*
D03*
X673000Y930000D02*
D03*
D03*
X625500D02*
D03*
D03*
X691500Y880500D02*
D03*
D03*
X641500D02*
D03*
D03*
X447500Y605000D02*
D03*
D03*
X431000D02*
D03*
D03*
X415000D02*
D03*
D03*
X432000Y540500D02*
D03*
D03*
X416000D02*
D03*
D03*
Y126500D02*
D03*
D03*
X400500D02*
D03*
D03*
D182*
X760500Y267921D02*
D03*
Y248236D02*
D03*
Y258079D02*
D03*
Y277764D02*
D03*
D183*
X890000Y223000D02*
D03*
X836850D02*
D03*
D184*
X877598Y199378D02*
D03*
D185*
X849252D02*
D03*
D186*
X992500Y245709D02*
D03*
Y150630D02*
D03*
M02*
