G04*
G04 #@! TF.GenerationSoftware,Altium Limited,Altium Designer,25.5.2 (35)*
G04*
G04 Layer_Physical_Order=1*
G04 Layer_Color=255*
%FSLAX25Y25*%
%MOIN*%
G70*
G04*
G04 #@! TF.SameCoordinates,C00E9742-E408-46E0-AF1C-4EDC3A8FA902*
G04*
G04*
G04 #@! TF.FilePolarity,Positive*
G04*
G01*
G75*
%ADD25R,0.06299X0.04134*%
%ADD26R,0.07874X0.15748*%
%ADD27R,0.05118X0.05512*%
%ADD28R,0.07874X0.16142*%
%ADD29R,0.08465X0.14961*%
%ADD30R,0.06299X0.12598*%
%ADD31R,0.03347X0.03347*%
%ADD32R,0.03347X0.02362*%
%ADD33R,0.09646X0.12402*%
%ADD34R,0.06693X0.09843*%
%ADD35R,0.09843X0.06693*%
%ADD36R,0.06496X0.04724*%
%ADD37R,0.02362X0.03347*%
%ADD38R,0.07087X0.04724*%
%ADD39R,0.01575X0.02756*%
%ADD40R,0.03150X0.01968*%
%ADD41R,0.01000X0.05500*%
%ADD42R,0.02400X0.01000*%
%ADD43R,0.01000X0.02400*%
%ADD44R,0.09055X0.11811*%
%ADD45R,0.05512X0.05118*%
%ADD46R,0.05709X0.06102*%
%ADD47R,0.00903X0.03081*%
%ADD48R,0.03081X0.00903*%
%ADD49R,0.06100X0.11000*%
%ADD50R,0.03700X0.11000*%
%ADD51R,0.09055X0.17913*%
%ADD52R,0.12402X0.09646*%
%ADD53R,0.01697X0.03928*%
%ADD54R,0.02953X0.03937*%
%ADD55R,0.21260X0.11417*%
%ADD56R,0.03347X0.03347*%
%ADD57R,0.12598X0.06299*%
G04:AMPARAMS|DCode=58|XSize=14.76mil|YSize=56.1mil|CornerRadius=1.97mil|HoleSize=0mil|Usage=FLASHONLY|Rotation=0.000|XOffset=0mil|YOffset=0mil|HoleType=Round|Shape=RoundedRectangle|*
%AMROUNDEDRECTD58*
21,1,0.01476,0.05217,0,0,0.0*
21,1,0.01083,0.05610,0,0,0.0*
1,1,0.00394,0.00541,-0.02608*
1,1,0.00394,-0.00541,-0.02608*
1,1,0.00394,-0.00541,0.02608*
1,1,0.00394,0.00541,0.02608*
%
%ADD58ROUNDEDRECTD58*%
G04:AMPARAMS|DCode=59|XSize=9.84mil|YSize=28.54mil|CornerRadius=1.97mil|HoleSize=0mil|Usage=FLASHONLY|Rotation=90.000|XOffset=0mil|YOffset=0mil|HoleType=Round|Shape=RoundedRectangle|*
%AMROUNDEDRECTD59*
21,1,0.00984,0.02461,0,0,90.0*
21,1,0.00591,0.02854,0,0,90.0*
1,1,0.00394,0.01230,0.00295*
1,1,0.00394,0.01230,-0.00295*
1,1,0.00394,-0.01230,-0.00295*
1,1,0.00394,-0.01230,0.00295*
%
%ADD59ROUNDEDRECTD59*%
G04:AMPARAMS|DCode=60|XSize=9.84mil|YSize=23.62mil|CornerRadius=1.97mil|HoleSize=0mil|Usage=FLASHONLY|Rotation=90.000|XOffset=0mil|YOffset=0mil|HoleType=Round|Shape=RoundedRectangle|*
%AMROUNDEDRECTD60*
21,1,0.00984,0.01968,0,0,90.0*
21,1,0.00591,0.02362,0,0,90.0*
1,1,0.00394,0.00984,0.00295*
1,1,0.00394,0.00984,-0.00295*
1,1,0.00394,-0.00984,-0.00295*
1,1,0.00394,-0.00984,0.00295*
%
%ADD60ROUNDEDRECTD60*%
G04:AMPARAMS|DCode=61|XSize=9.84mil|YSize=23.62mil|CornerRadius=1.97mil|HoleSize=0mil|Usage=FLASHONLY|Rotation=180.000|XOffset=0mil|YOffset=0mil|HoleType=Round|Shape=RoundedRectangle|*
%AMROUNDEDRECTD61*
21,1,0.00984,0.01968,0,0,180.0*
21,1,0.00591,0.02362,0,0,180.0*
1,1,0.00394,-0.00295,0.00984*
1,1,0.00394,0.00295,0.00984*
1,1,0.00394,0.00295,-0.00984*
1,1,0.00394,-0.00295,-0.00984*
%
%ADD61ROUNDEDRECTD61*%
G04:AMPARAMS|DCode=62|XSize=9.84mil|YSize=24.61mil|CornerRadius=1.97mil|HoleSize=0mil|Usage=FLASHONLY|Rotation=180.000|XOffset=0mil|YOffset=0mil|HoleType=Round|Shape=RoundedRectangle|*
%AMROUNDEDRECTD62*
21,1,0.00984,0.02067,0,0,180.0*
21,1,0.00591,0.02461,0,0,180.0*
1,1,0.00394,-0.00295,0.01034*
1,1,0.00394,0.00295,0.01034*
1,1,0.00394,0.00295,-0.01034*
1,1,0.00394,-0.00295,-0.01034*
%
%ADD62ROUNDEDRECTD62*%
G04:AMPARAMS|DCode=63|XSize=9.84mil|YSize=26.57mil|CornerRadius=1.97mil|HoleSize=0mil|Usage=FLASHONLY|Rotation=180.000|XOffset=0mil|YOffset=0mil|HoleType=Round|Shape=RoundedRectangle|*
%AMROUNDEDRECTD63*
21,1,0.00984,0.02264,0,0,180.0*
21,1,0.00591,0.02657,0,0,180.0*
1,1,0.00394,-0.00295,0.01132*
1,1,0.00394,0.00295,0.01132*
1,1,0.00394,0.00295,-0.01132*
1,1,0.00394,-0.00295,-0.01132*
%
%ADD63ROUNDEDRECTD63*%
%ADD64R,0.14370X0.06299*%
%ADD65R,0.12205X0.22047*%
%ADD66R,0.02362X0.00984*%
%ADD67R,0.00984X0.06299*%
%ADD68R,0.00984X0.04134*%
%ADD69R,0.00984X0.11417*%
%ADD70R,0.08465X0.09646*%
%ADD71R,0.01968X0.03150*%
%ADD72R,0.06496X0.04921*%
%ADD73R,0.09449X0.20079*%
%ADD74R,0.02800X0.01000*%
%ADD75R,0.06890X0.06496*%
%ADD76R,0.02362X0.06102*%
%ADD77R,0.04724X0.07087*%
%ADD78R,0.03827X0.03158*%
%ADD79R,0.02756X0.03937*%
%ADD80R,0.13583X0.13583*%
%ADD81R,0.00787X0.03347*%
%ADD82R,0.03347X0.00787*%
%ADD83R,0.02362X0.02520*%
%ADD84R,0.04134X0.01772*%
%ADD85R,0.13583X0.17126*%
%ADD86R,0.02953X0.02362*%
%ADD87R,0.05118X0.04134*%
%ADD88R,0.03937X0.06299*%
%ADD89R,0.04921X0.02362*%
%ADD90R,0.02520X0.02362*%
%ADD91R,0.09449X0.07087*%
%ADD92R,0.05512X0.05472*%
%ADD93R,0.19134X0.13228*%
%ADD151R,0.00800X0.10400*%
%ADD152R,0.02800X0.00800*%
%ADD166R,0.01200X0.02400*%
%ADD167R,0.09400X0.01200*%
%AMCUSTOMSHAPE168*
4,1,20,-0.10925,-0.07249,-0.08996,-0.07249,-0.08976,-0.07229,-0.08976,-0.08922,0.08976,-0.08922,0.08976,-0.07229,0.08996,-0.07249,0.10925,-0.07249,0.10925,-0.03666,0.08996,-0.03666,0.08976,-0.03686,0.08976,0.08922,0.06024,0.08922,0.06024,0.07052,-0.06024,0.07052,-0.06024,0.08922,-0.08976,0.08922,-0.08976,-0.03686,-0.08996,-0.03666,-0.10925,-0.03666,-0.10925,-0.07249,0.0*%
%ADD168CUSTOMSHAPE168*%

%AMCUSTOMSHAPE169*
4,1,6,0.01132,0.01624,0.01132,-0.01624,0.00246,-0.01624,0.00246,-0.00148,-0.01132,-0.00148,-0.01132,0.01624,0.01132,0.01624,0.0*%
%ADD169CUSTOMSHAPE169*%

%AMCUSTOMSHAPE170*
4,1,6,-0.01132,-0.01624,-0.01132,0.00148,0.00246,0.00148,0.00246,0.01624,0.01132,0.01624,0.01132,-0.01624,-0.01132,-0.01624,0.0*%
%ADD170CUSTOMSHAPE170*%

%AMCUSTOMSHAPE171*
4,1,6,0.01132,0.01624,0.01132,-0.00148,-0.00246,-0.00148,-0.00246,-0.01624,-0.01132,-0.01624,-0.01132,0.01624,0.01132,0.01624,0.0*%
%ADD171CUSTOMSHAPE171*%

%AMCUSTOMSHAPE172*
4,1,6,-0.01132,-0.01624,-0.01132,0.01624,-0.00246,0.01624,-0.00246,0.00148,0.01132,0.00148,0.01132,-0.01624,-0.01132,-0.01624,0.0*%
%ADD172CUSTOMSHAPE172*%

%ADD173R,0.01968X0.05906*%
%ADD174R,0.02800X0.01600*%
%ADD175R,0.05906X0.05906*%
%ADD176C,0.23622*%
%ADD177R,0.05984X0.05984*%
%ADD178C,0.05984*%
%ADD179C,0.04016*%
%ADD180R,0.05984X0.05984*%
%ADD181C,0.02362*%
%ADD182O,0.09843X0.06890*%
%ADD183C,0.10630*%
%ADD184C,0.15945*%
%ADD185R,0.15945X0.15945*%
%ADD186C,0.06496*%
G36*
X1143112Y979300D02*
X1144512D01*
Y978300D01*
X1141912Y978300D01*
Y980700D01*
X1143112D01*
X1143112Y979300D01*
D02*
G37*
G36*
X1137600Y978300D02*
X1135000Y978300D01*
Y979300D01*
X1136400D01*
X1136400Y980700D01*
X1137600D01*
Y978300D01*
D02*
G37*
G36*
X1144512Y972613D02*
X1143112D01*
X1143112Y971213D01*
X1141912D01*
Y973613D01*
X1144512D01*
Y972613D01*
D02*
G37*
G36*
X1137600Y971213D02*
X1136400D01*
X1136400Y972613D01*
X1135000D01*
Y973613D01*
X1137600D01*
Y971213D01*
D02*
G37*
G36*
X1098856Y928843D02*
X1100256D01*
Y927843D01*
X1097656Y927843D01*
Y930243D01*
X1098856D01*
X1098856Y928843D01*
D02*
G37*
G36*
X1093344Y927843D02*
X1090744Y927843D01*
Y928843D01*
X1092144D01*
X1092144Y930243D01*
X1093344D01*
Y927843D01*
D02*
G37*
G36*
X1100256Y922157D02*
X1098856D01*
X1098856Y920757D01*
X1097656D01*
Y923157D01*
X1100256D01*
Y922157D01*
D02*
G37*
G36*
X1093344Y920757D02*
X1092144D01*
X1092144Y922157D01*
X1090744D01*
Y923157D01*
X1093344D01*
Y920757D01*
D02*
G37*
G36*
X1145856Y879343D02*
X1147256D01*
Y878343D01*
X1144656Y878343D01*
Y880743D01*
X1145856D01*
X1145856Y879343D01*
D02*
G37*
G36*
X1140344Y878343D02*
X1137744Y878343D01*
Y879343D01*
X1139144D01*
X1139144Y880743D01*
X1140344D01*
Y878343D01*
D02*
G37*
G36*
X1147256Y872657D02*
X1145856D01*
X1145856Y871257D01*
X1144656D01*
Y873657D01*
X1147256D01*
Y872657D01*
D02*
G37*
G36*
X1140344Y871257D02*
X1139144D01*
X1139144Y872657D01*
X1137744D01*
Y873657D01*
X1140344D01*
Y871257D01*
D02*
G37*
G36*
X864752Y124500D02*
X866152D01*
Y122900D01*
X863352D01*
Y126600D01*
X864752D01*
Y124500D01*
D02*
G37*
G36*
X847648Y122900D02*
X844848D01*
Y124500D01*
X846248D01*
Y126600D01*
X847648D01*
Y122900D01*
D02*
G37*
G36*
X866152Y109500D02*
X864752D01*
Y107400D01*
X863352D01*
Y111100D01*
X866152D01*
Y109500D01*
D02*
G37*
G36*
X847648Y107400D02*
X846248D01*
Y109500D01*
X844848D01*
Y111100D01*
X847648D01*
Y107400D01*
D02*
G37*
G36*
G01X920339Y601610D02*
G01Y602102D01*
G02X920535Y602299I197J0D01*
G01X921618D01*
G03X921815Y602496I0J197D01*
G01Y603480D01*
G02X922012Y603677I197J0D01*
G01X923193D01*
G02X923390Y603480I0J-197D01*
G01Y601610D01*
G02X923193Y601413I-197J0D01*
G01X920535D01*
G02X920339Y601610I0J197D01*
D02*
G37*
G36*
G01X934906Y588520D02*
G03X935102Y588323I197J0D01*
G01X936087D01*
G03X936283Y588520I0J197D01*
G01Y589504D01*
G02X936480Y589701I197J0D01*
G01X937465D01*
G03X937661Y589898I0J197D01*
G01Y590390D01*
G03X937465Y590587I-197J0D01*
G01X935102D01*
G03X934906Y590390I0J-197D01*
G01Y588520D01*
D02*
G37*
G36*
G01X934610Y601610D02*
G01Y603480D01*
G02X934807Y603677I197J0D01*
G01X935988D01*
G02X936185Y603480I0J-197D01*
G01Y602496D01*
G03X936382Y602299I197J0D01*
G01X937465D01*
G02X937661Y602102I0J-197D01*
G01Y601610D01*
G02X937465Y601413I-197J0D01*
G01X934807D01*
G02X934610Y601610I0J197D01*
D02*
G37*
G36*
G01X920535Y589701D02*
G02X920339Y589898I0J197D01*
G01Y590390D01*
G02X920535Y590587I197J0D01*
G01X922898D01*
G02X923094Y590390I0J-197D01*
G01Y588520D01*
G02X922898Y588323I-197J0D01*
G01X921913D01*
G02X921716Y588520I0J197D01*
G01Y589504D01*
G03X921520Y589701I-197J0D01*
G01X920535D01*
D02*
G37*
D25*
X832500Y151307D02*
D03*
Y139693D02*
D03*
X813500Y151307D02*
D03*
Y139693D02*
D03*
X795000Y151307D02*
D03*
Y139693D02*
D03*
X776000Y151307D02*
D03*
Y139693D02*
D03*
X757000Y151307D02*
D03*
Y139693D02*
D03*
X738000Y151307D02*
D03*
Y139693D02*
D03*
X653500Y151307D02*
D03*
Y139693D02*
D03*
D26*
X764000Y44024D02*
D03*
Y71976D02*
D03*
X614500Y34000D02*
D03*
Y61953D02*
D03*
D27*
X672350Y151000D02*
D03*
X678650D02*
D03*
X475850D02*
D03*
X482150D02*
D03*
X402850D02*
D03*
X409150D02*
D03*
X1071350Y602500D02*
D03*
X1077650D02*
D03*
X1052350D02*
D03*
X1058650D02*
D03*
X711850D02*
D03*
X718150D02*
D03*
X692850D02*
D03*
X699150D02*
D03*
X673850D02*
D03*
X680150D02*
D03*
X654850D02*
D03*
X661150D02*
D03*
X817850Y538000D02*
D03*
X824150D02*
D03*
X798850D02*
D03*
X805150D02*
D03*
X636350D02*
D03*
X642650D02*
D03*
X617350D02*
D03*
X623650D02*
D03*
X598350D02*
D03*
X604650D02*
D03*
X1145350Y286000D02*
D03*
X1151650D02*
D03*
D28*
X489000Y22374D02*
D03*
Y56626D02*
D03*
X550500Y23374D02*
D03*
Y57626D02*
D03*
D29*
X669000Y529886D02*
D03*
Y503114D02*
D03*
X744500Y594386D02*
D03*
Y567614D02*
D03*
D30*
X857500Y1253158D02*
D03*
Y1272843D02*
D03*
X889000Y1202658D02*
D03*
Y1222342D02*
D03*
X1222500Y1171842D02*
D03*
Y1152157D02*
D03*
X1212500Y1105842D02*
D03*
Y1086158D02*
D03*
X1205500Y1039843D02*
D03*
Y1020158D02*
D03*
X1097500Y973843D02*
D03*
Y954158D02*
D03*
X1057000Y924343D02*
D03*
Y904657D02*
D03*
X1101000Y874842D02*
D03*
Y855157D02*
D03*
D31*
X498000Y968449D02*
D03*
Y974551D02*
D03*
X492000Y918949D02*
D03*
Y925051D02*
D03*
X498500Y869449D02*
D03*
Y875551D02*
D03*
X403000Y1166449D02*
D03*
Y1172551D02*
D03*
Y1100449D02*
D03*
Y1106551D02*
D03*
Y1034449D02*
D03*
Y1040551D02*
D03*
X1198500Y1270949D02*
D03*
Y1277051D02*
D03*
X1025000Y1270949D02*
D03*
Y1277051D02*
D03*
X623500Y1270949D02*
D03*
Y1277051D02*
D03*
X490000Y1270949D02*
D03*
Y1277051D02*
D03*
X1251500Y1220449D02*
D03*
Y1226551D02*
D03*
X1069000Y1220449D02*
D03*
Y1226551D02*
D03*
X639000Y1220449D02*
D03*
Y1226551D02*
D03*
X496000Y1220449D02*
D03*
Y1226551D02*
D03*
X1054000Y1169949D02*
D03*
Y1176051D02*
D03*
X806500Y1169949D02*
D03*
Y1176051D02*
D03*
X754500Y1169949D02*
D03*
Y1176051D02*
D03*
X653000Y1169949D02*
D03*
Y1176051D02*
D03*
X1046000Y1103949D02*
D03*
Y1110051D02*
D03*
X801500Y1103949D02*
D03*
Y1110051D02*
D03*
X750000Y1103949D02*
D03*
Y1110051D02*
D03*
X650000Y1103949D02*
D03*
Y1110051D02*
D03*
X1040500Y1037949D02*
D03*
Y1044051D02*
D03*
X798000Y1037949D02*
D03*
Y1044051D02*
D03*
X747000Y1037949D02*
D03*
Y1044051D02*
D03*
X648000Y1037949D02*
D03*
Y1044051D02*
D03*
X985500Y971949D02*
D03*
Y978051D02*
D03*
X951000Y922449D02*
D03*
Y928551D02*
D03*
X988500Y872949D02*
D03*
Y879051D02*
D03*
X566500Y823449D02*
D03*
Y829551D02*
D03*
X457500Y823449D02*
D03*
Y829551D02*
D03*
X401500Y823449D02*
D03*
Y829551D02*
D03*
X564500Y790949D02*
D03*
Y797051D02*
D03*
X456500Y790949D02*
D03*
Y797051D02*
D03*
X401500Y790949D02*
D03*
Y797051D02*
D03*
X553500Y758449D02*
D03*
Y764551D02*
D03*
X453000Y758449D02*
D03*
Y764551D02*
D03*
X401500Y758449D02*
D03*
Y764551D02*
D03*
X563500Y725949D02*
D03*
Y732051D02*
D03*
X456500Y725949D02*
D03*
Y732051D02*
D03*
X401500Y725949D02*
D03*
Y732051D02*
D03*
X552000Y693449D02*
D03*
Y699551D02*
D03*
X452500Y693449D02*
D03*
Y699551D02*
D03*
X401500Y693449D02*
D03*
Y699551D02*
D03*
X543500Y660949D02*
D03*
Y667051D02*
D03*
X449500Y660949D02*
D03*
Y667051D02*
D03*
X401500Y660949D02*
D03*
Y667051D02*
D03*
X553000Y628449D02*
D03*
Y634551D02*
D03*
X453000Y628449D02*
D03*
Y634551D02*
D03*
X401500Y628449D02*
D03*
Y634551D02*
D03*
D32*
X445500Y281000D02*
D03*
Y285899D02*
D03*
X401000Y281000D02*
D03*
Y285899D02*
D03*
X449000Y255500D02*
D03*
Y260399D02*
D03*
X401000Y255500D02*
D03*
Y260399D02*
D03*
X449500Y230000D02*
D03*
Y234899D02*
D03*
X401000Y230000D02*
D03*
Y234899D02*
D03*
X544000Y175500D02*
D03*
Y180399D02*
D03*
X496500Y175500D02*
D03*
Y180399D02*
D03*
X449000Y175500D02*
D03*
Y180399D02*
D03*
X401000Y175500D02*
D03*
Y180399D02*
D03*
X535000Y134000D02*
D03*
Y138899D02*
D03*
X490500Y134000D02*
D03*
Y138899D02*
D03*
X446000Y134000D02*
D03*
Y138899D02*
D03*
X401000Y134000D02*
D03*
Y138899D02*
D03*
X446500Y92500D02*
D03*
Y97399D02*
D03*
X401000Y92500D02*
D03*
Y97399D02*
D03*
X534500Y1272500D02*
D03*
Y1277399D02*
D03*
X445000Y1272500D02*
D03*
Y1277399D02*
D03*
X401000Y1272500D02*
D03*
Y1277399D02*
D03*
X543500Y1222000D02*
D03*
Y1226899D02*
D03*
X448000Y1222000D02*
D03*
Y1226899D02*
D03*
X401000Y1222000D02*
D03*
Y1226899D02*
D03*
X907500Y1171500D02*
D03*
Y1176399D02*
D03*
X858500Y1171500D02*
D03*
Y1176399D02*
D03*
X705000Y1171500D02*
D03*
Y1176399D02*
D03*
X604500Y1171500D02*
D03*
Y1176399D02*
D03*
X453000Y1171500D02*
D03*
Y1176399D02*
D03*
X701500Y1105500D02*
D03*
Y1110399D02*
D03*
X602000Y1105500D02*
D03*
Y1110399D02*
D03*
X452500Y1105500D02*
D03*
Y1110399D02*
D03*
X897000Y1039500D02*
D03*
Y1044399D02*
D03*
X849000Y1039500D02*
D03*
Y1044399D02*
D03*
X698500Y1039500D02*
D03*
Y1044399D02*
D03*
X600500Y1039500D02*
D03*
Y1044399D02*
D03*
X452000Y1039500D02*
D03*
Y1044399D02*
D03*
X401000Y973500D02*
D03*
Y978399D02*
D03*
Y924000D02*
D03*
Y928899D02*
D03*
X793500Y874500D02*
D03*
Y879399D02*
D03*
X594500Y874500D02*
D03*
Y879399D02*
D03*
X547000Y874500D02*
D03*
Y879399D02*
D03*
X449000Y874500D02*
D03*
Y879399D02*
D03*
X401000Y874500D02*
D03*
Y879399D02*
D03*
X671000Y825000D02*
D03*
Y829899D02*
D03*
X513000Y825000D02*
D03*
Y829899D02*
D03*
X668000Y792500D02*
D03*
Y797399D02*
D03*
X512000Y792500D02*
D03*
Y797399D02*
D03*
X649500Y760000D02*
D03*
Y764899D02*
D03*
X504500Y760000D02*
D03*
Y764899D02*
D03*
X666000Y727500D02*
D03*
Y732399D02*
D03*
X511000Y727500D02*
D03*
Y732399D02*
D03*
X647500Y695000D02*
D03*
Y699899D02*
D03*
X503500Y695000D02*
D03*
Y699899D02*
D03*
X648500Y630000D02*
D03*
Y634899D02*
D03*
X504000Y630000D02*
D03*
Y634899D02*
D03*
D33*
X559705Y246000D02*
D03*
X535295D02*
D03*
D34*
X595000Y162126D02*
D03*
Y177874D02*
D03*
X895500Y861126D02*
D03*
Y876874D02*
D03*
D35*
X579874Y146000D02*
D03*
X564126D02*
D03*
D36*
X436000Y60988D02*
D03*
Y72012D02*
D03*
X515000Y454488D02*
D03*
Y465512D02*
D03*
X477500Y454488D02*
D03*
Y465512D02*
D03*
D37*
X417500Y73500D02*
D03*
X422399D02*
D03*
X401500D02*
D03*
X406399D02*
D03*
X444000Y41000D02*
D03*
X448899D02*
D03*
X415500D02*
D03*
X420399D02*
D03*
X442500Y10000D02*
D03*
X447399D02*
D03*
X426500D02*
D03*
X431399D02*
D03*
X962000Y604000D02*
D03*
X966899D02*
D03*
X947500D02*
D03*
X952399D02*
D03*
X801000D02*
D03*
X805899D02*
D03*
X786000D02*
D03*
X790899D02*
D03*
X605500D02*
D03*
X610399D02*
D03*
X590500D02*
D03*
X595399D02*
D03*
X575500D02*
D03*
X580399D02*
D03*
X511000D02*
D03*
X515899D02*
D03*
X496000D02*
D03*
X500899D02*
D03*
X401500D02*
D03*
X406399D02*
D03*
X742500Y539500D02*
D03*
X747399D02*
D03*
X694000D02*
D03*
X698899D02*
D03*
X498000D02*
D03*
X502899D02*
D03*
X482500D02*
D03*
X487399D02*
D03*
X401500D02*
D03*
X406399D02*
D03*
X509000Y423000D02*
D03*
X513899D02*
D03*
X870500Y369500D02*
D03*
X875399D02*
D03*
X770000D02*
D03*
X774899D02*
D03*
X631500D02*
D03*
X636399D02*
D03*
X615000D02*
D03*
X619899D02*
D03*
X583500D02*
D03*
X588399D02*
D03*
X567500D02*
D03*
X572399D02*
D03*
X473500D02*
D03*
X478399D02*
D03*
X457000D02*
D03*
X461899D02*
D03*
X896500Y287500D02*
D03*
X901399D02*
D03*
X880500D02*
D03*
X885399D02*
D03*
X833000D02*
D03*
X837899D02*
D03*
X817000D02*
D03*
X821899D02*
D03*
X605500Y220000D02*
D03*
X610399D02*
D03*
X589000D02*
D03*
X593899D02*
D03*
X572500D02*
D03*
X577399D02*
D03*
X556500D02*
D03*
X561399D02*
D03*
X493000D02*
D03*
X497899D02*
D03*
X477000D02*
D03*
X481899D02*
D03*
X427000D02*
D03*
X431899D02*
D03*
X907000Y125500D02*
D03*
X911899D02*
D03*
X702500D02*
D03*
X707399D02*
D03*
X565000D02*
D03*
X569899D02*
D03*
X549000D02*
D03*
X553899D02*
D03*
X466000D02*
D03*
X470899D02*
D03*
X450000D02*
D03*
X454899D02*
D03*
D38*
X432200Y40800D02*
D03*
Y28900D02*
D03*
X403200Y40800D02*
D03*
Y28900D02*
D03*
D39*
X416378Y9500D02*
D03*
X413622D02*
D03*
X403878D02*
D03*
X401122D02*
D03*
D40*
X406043Y219500D02*
D03*
X398957D02*
D03*
D41*
X1160531Y1272507D02*
D03*
X1164469D02*
D03*
X1162500Y1276493D02*
D03*
X1211031Y1222007D02*
D03*
X1214969D02*
D03*
X1213000Y1225993D02*
D03*
D42*
X1168012Y1271546D02*
D03*
Y1273516D02*
D03*
Y1275484D02*
D03*
Y1277454D02*
D03*
X1156988D02*
D03*
Y1275484D02*
D03*
Y1273516D02*
D03*
Y1271546D02*
D03*
X1218512Y1221047D02*
D03*
Y1223015D02*
D03*
Y1224984D02*
D03*
Y1226954D02*
D03*
X1207488D02*
D03*
Y1224984D02*
D03*
Y1223015D02*
D03*
Y1221047D02*
D03*
D43*
X1160531Y1278043D02*
D03*
X1211031Y1227543D02*
D03*
X1138870Y972413D02*
D03*
X1140642D02*
D03*
Y979500D02*
D03*
X1138870D02*
D03*
X1094614Y921957D02*
D03*
X1096386D02*
D03*
Y929043D02*
D03*
X1094614D02*
D03*
X1141614Y872457D02*
D03*
X1143386D02*
D03*
Y879543D02*
D03*
X1141614D02*
D03*
D44*
X1073311Y1262500D02*
D03*
X1099689D02*
D03*
X1120311Y1212000D02*
D03*
X1146689D02*
D03*
D45*
X981500Y1269850D02*
D03*
Y1276150D02*
D03*
X937000Y1269850D02*
D03*
Y1276150D02*
D03*
X892000Y1269850D02*
D03*
Y1276150D02*
D03*
X803000Y1269850D02*
D03*
Y1276150D02*
D03*
X758000Y1269850D02*
D03*
Y1276150D02*
D03*
X713000Y1269850D02*
D03*
Y1276150D02*
D03*
X1022500Y1219350D02*
D03*
Y1225650D02*
D03*
X974500Y1219350D02*
D03*
Y1225650D02*
D03*
X926500Y1219350D02*
D03*
Y1225650D02*
D03*
X831000Y1219350D02*
D03*
Y1225650D02*
D03*
X783000Y1219350D02*
D03*
Y1225650D02*
D03*
X735000Y1219350D02*
D03*
Y1225650D02*
D03*
D46*
X580000Y1275815D02*
D03*
Y1265185D02*
D03*
X592500Y1225315D02*
D03*
Y1214685D02*
D03*
X1160000Y1174815D02*
D03*
Y1164185D02*
D03*
X1107500Y1174815D02*
D03*
Y1164185D02*
D03*
X1003500Y1174815D02*
D03*
Y1164185D02*
D03*
X1150500Y1108815D02*
D03*
Y1098185D02*
D03*
X1099000Y1108815D02*
D03*
Y1098185D02*
D03*
X996000Y1108815D02*
D03*
Y1098185D02*
D03*
X1144000Y1042815D02*
D03*
Y1032185D02*
D03*
X1093000Y1042815D02*
D03*
Y1032185D02*
D03*
X991000Y1042815D02*
D03*
Y1032185D02*
D03*
X1037000Y976815D02*
D03*
Y966185D02*
D03*
X937500Y976815D02*
D03*
Y966185D02*
D03*
X840500Y976815D02*
D03*
Y966185D02*
D03*
X743000Y976815D02*
D03*
Y966185D02*
D03*
X999500Y927315D02*
D03*
Y916685D02*
D03*
X905500Y927315D02*
D03*
Y916685D02*
D03*
X814500Y927315D02*
D03*
Y916685D02*
D03*
X723000Y927315D02*
D03*
Y916685D02*
D03*
X1040500Y877815D02*
D03*
Y867185D02*
D03*
X940000Y877815D02*
D03*
Y867185D02*
D03*
X842500Y877815D02*
D03*
Y867185D02*
D03*
X745000Y877815D02*
D03*
Y867185D02*
D03*
X528000Y601815D02*
D03*
Y591185D02*
D03*
X515500Y537315D02*
D03*
Y526685D02*
D03*
X1045500Y274685D02*
D03*
Y285315D02*
D03*
X643500Y274685D02*
D03*
Y285315D02*
D03*
X521500Y274685D02*
D03*
Y285315D02*
D03*
X422500Y274685D02*
D03*
Y285315D02*
D03*
X753500Y123315D02*
D03*
Y112685D02*
D03*
X737500Y123315D02*
D03*
Y112685D02*
D03*
X671000Y123315D02*
D03*
Y112685D02*
D03*
X654500Y123315D02*
D03*
Y112685D02*
D03*
X582500Y123315D02*
D03*
Y112685D02*
D03*
X534000Y123315D02*
D03*
Y112685D02*
D03*
D47*
X1318579Y1160309D02*
D03*
X1320547D02*
D03*
X1322516D02*
D03*
X1324484D02*
D03*
X1326453D02*
D03*
X1328421D02*
D03*
Y1175691D02*
D03*
X1326453D02*
D03*
X1324484D02*
D03*
X1322516D02*
D03*
X1320547D02*
D03*
X1318579D02*
D03*
X1307079Y1094309D02*
D03*
X1309047D02*
D03*
X1311016D02*
D03*
X1312984D02*
D03*
X1314953D02*
D03*
X1316921D02*
D03*
Y1109691D02*
D03*
X1314953D02*
D03*
X1312984D02*
D03*
X1311016D02*
D03*
X1309047D02*
D03*
X1307079D02*
D03*
X1299579Y1028309D02*
D03*
X1301547D02*
D03*
X1303516D02*
D03*
X1305484D02*
D03*
X1307453D02*
D03*
X1309421D02*
D03*
Y1043691D02*
D03*
X1307453D02*
D03*
X1305484D02*
D03*
X1303516D02*
D03*
X1301547D02*
D03*
X1299579D02*
D03*
D48*
X1331191Y1163079D02*
D03*
Y1165047D02*
D03*
Y1167016D02*
D03*
Y1168984D02*
D03*
Y1170953D02*
D03*
Y1172921D02*
D03*
X1315809D02*
D03*
Y1170953D02*
D03*
Y1168984D02*
D03*
Y1167016D02*
D03*
Y1165047D02*
D03*
Y1163079D02*
D03*
X1319691Y1097079D02*
D03*
Y1099047D02*
D03*
Y1101016D02*
D03*
Y1102984D02*
D03*
Y1104953D02*
D03*
Y1106921D02*
D03*
X1304309D02*
D03*
Y1104953D02*
D03*
Y1102984D02*
D03*
Y1101016D02*
D03*
Y1099047D02*
D03*
Y1097079D02*
D03*
X1312191Y1031079D02*
D03*
Y1033047D02*
D03*
Y1035016D02*
D03*
Y1036984D02*
D03*
Y1038953D02*
D03*
Y1040921D02*
D03*
X1296809D02*
D03*
Y1038953D02*
D03*
Y1036984D02*
D03*
Y1035016D02*
D03*
Y1033047D02*
D03*
Y1031079D02*
D03*
D49*
X1321039Y1168000D02*
D03*
X1309539Y1102000D02*
D03*
X1302039Y1036000D02*
D03*
D50*
X1327142Y1168000D02*
D03*
X1315642Y1102000D02*
D03*
X1308142Y1036000D02*
D03*
D51*
X1278000Y1138539D02*
D03*
Y1168461D02*
D03*
X1267500Y1072539D02*
D03*
Y1102461D02*
D03*
X1260000Y1006539D02*
D03*
Y1036461D02*
D03*
D52*
X967500Y1147295D02*
D03*
Y1171705D02*
D03*
X956000Y1015295D02*
D03*
Y1039705D02*
D03*
X466500Y393295D02*
D03*
Y417705D02*
D03*
X412500Y393295D02*
D03*
Y417705D02*
D03*
X724500Y68795D02*
D03*
Y93205D02*
D03*
D53*
X623161Y829214D02*
D03*
X625721D02*
D03*
X628279D02*
D03*
X630839D02*
D03*
Y818786D02*
D03*
X628279D02*
D03*
X625721D02*
D03*
X623161D02*
D03*
X620661Y796714D02*
D03*
X623220D02*
D03*
X625779D02*
D03*
X628339D02*
D03*
Y786286D02*
D03*
X625779D02*
D03*
X623220D02*
D03*
X620661D02*
D03*
X605661Y764214D02*
D03*
X608220D02*
D03*
X610779D02*
D03*
X613339D02*
D03*
Y753786D02*
D03*
X610779D02*
D03*
X608220D02*
D03*
X605661D02*
D03*
X619161Y731714D02*
D03*
X621721D02*
D03*
X624279D02*
D03*
X626839D02*
D03*
Y721286D02*
D03*
X624279D02*
D03*
X621721D02*
D03*
X619161D02*
D03*
X604161Y699214D02*
D03*
X606720D02*
D03*
X609279D02*
D03*
X611839D02*
D03*
Y688786D02*
D03*
X609279D02*
D03*
X606720D02*
D03*
X604161D02*
D03*
X592661Y666714D02*
D03*
X595221D02*
D03*
X597780D02*
D03*
X600339D02*
D03*
Y656286D02*
D03*
X597780D02*
D03*
X595221D02*
D03*
X592661D02*
D03*
X605161Y634214D02*
D03*
X607721D02*
D03*
X610280D02*
D03*
X612839D02*
D03*
Y623786D02*
D03*
X610280D02*
D03*
X607721D02*
D03*
X605161D02*
D03*
D54*
X1189000Y578083D02*
D03*
X1184000D02*
D03*
X1179000D02*
D03*
X1174000D02*
D03*
X997000D02*
D03*
X992000D02*
D03*
X987000D02*
D03*
X982000D02*
D03*
X801500Y194083D02*
D03*
X796500D02*
D03*
X791500D02*
D03*
X786500D02*
D03*
X766500D02*
D03*
X761500D02*
D03*
X756500D02*
D03*
X751500D02*
D03*
D55*
X1136000Y605988D02*
D03*
Y567012D02*
D03*
D56*
X1089449Y603500D02*
D03*
X1095551D02*
D03*
X904449D02*
D03*
X910551D02*
D03*
X887949D02*
D03*
X894051D02*
D03*
X871449D02*
D03*
X877551D02*
D03*
X854449D02*
D03*
X860551D02*
D03*
X837949D02*
D03*
X844051D02*
D03*
X769449D02*
D03*
X775551D02*
D03*
X636949D02*
D03*
X643051D02*
D03*
X620449D02*
D03*
X626551D02*
D03*
X559449D02*
D03*
X565551D02*
D03*
X542449D02*
D03*
X548551D02*
D03*
X479449D02*
D03*
X485551D02*
D03*
X462949D02*
D03*
X469051D02*
D03*
X911949Y539000D02*
D03*
X918051D02*
D03*
X868949D02*
D03*
X875051D02*
D03*
X852449D02*
D03*
X858551D02*
D03*
X835949D02*
D03*
X842051D02*
D03*
X726449D02*
D03*
X732551D02*
D03*
X709949D02*
D03*
X716051D02*
D03*
X580449D02*
D03*
X586551D02*
D03*
X563949D02*
D03*
X570051D02*
D03*
X547449D02*
D03*
X553551D02*
D03*
X530449D02*
D03*
X536551D02*
D03*
X465949D02*
D03*
X472051D02*
D03*
X449449D02*
D03*
X455551D02*
D03*
X886949Y369000D02*
D03*
X893051D02*
D03*
X753449D02*
D03*
X759551D02*
D03*
X647949D02*
D03*
X654051D02*
D03*
X598449D02*
D03*
X604551D02*
D03*
X658449Y287000D02*
D03*
X664551D02*
D03*
X620449Y219500D02*
D03*
X626551D02*
D03*
X539949D02*
D03*
X546051D02*
D03*
X923449Y125000D02*
D03*
X929551D02*
D03*
X719449D02*
D03*
X725551D02*
D03*
X686449D02*
D03*
X692551D02*
D03*
X515949D02*
D03*
X522051D02*
D03*
X499449D02*
D03*
X505551D02*
D03*
X482949D02*
D03*
X489051D02*
D03*
X433449D02*
D03*
X439551D02*
D03*
D57*
X1036343Y592000D02*
D03*
X1016658D02*
D03*
X782842Y527500D02*
D03*
X763158D02*
D03*
X705342Y357500D02*
D03*
X685658D02*
D03*
X830342Y113500D02*
D03*
X810658D02*
D03*
X791342D02*
D03*
X771658D02*
D03*
D58*
X926539Y596000D02*
D03*
X929000D02*
D03*
X931461D02*
D03*
D59*
X921766Y594031D02*
D03*
Y596000D02*
D03*
Y597968D02*
D03*
X936234D02*
D03*
Y596000D02*
D03*
Y594031D02*
D03*
D60*
X921520Y599937D02*
D03*
Y592063D02*
D03*
X936480D02*
D03*
Y599937D02*
D03*
D61*
X928016Y602496D02*
D03*
X929984D02*
D03*
D62*
X924571Y589553D02*
D03*
X926539D02*
D03*
X928508D02*
D03*
X931461D02*
D03*
X933429D02*
D03*
D63*
X924866Y602348D02*
D03*
X933134D02*
D03*
D64*
X821500Y576500D02*
D03*
Y601500D02*
D03*
X493500Y395500D02*
D03*
Y420500D02*
D03*
X439500Y395500D02*
D03*
Y420500D02*
D03*
X946000Y98000D02*
D03*
Y123000D02*
D03*
D65*
X936118Y512500D02*
D03*
X975882D02*
D03*
D66*
X887004Y532020D02*
D03*
Y533988D02*
D03*
X899996Y532020D02*
D03*
Y533988D02*
D03*
D67*
X889563Y530445D02*
D03*
X897437D02*
D03*
D68*
Y536646D02*
D03*
X889563D02*
D03*
D69*
X891531Y533000D02*
D03*
X893500D02*
D03*
X895469D02*
D03*
D70*
X535000Y462465D02*
D03*
Y445535D02*
D03*
X497000Y462465D02*
D03*
Y445535D02*
D03*
D71*
X460000Y465543D02*
D03*
Y458457D02*
D03*
X447500Y465543D02*
D03*
Y458457D02*
D03*
X415500Y465543D02*
D03*
Y458457D02*
D03*
X402000Y465543D02*
D03*
Y458457D02*
D03*
D72*
X859000Y375791D02*
D03*
Y362209D02*
D03*
D73*
X806736Y354500D02*
D03*
X836264D02*
D03*
D74*
X793150Y368953D02*
D03*
Y366985D02*
D03*
Y365016D02*
D03*
Y363047D02*
D03*
X786850D02*
D03*
Y365016D02*
D03*
Y366985D02*
D03*
Y368953D02*
D03*
D75*
X738500Y367177D02*
D03*
Y351823D02*
D03*
X722000Y367177D02*
D03*
Y351823D02*
D03*
X666500Y367177D02*
D03*
Y351823D02*
D03*
D76*
X549469Y356030D02*
D03*
X545532D02*
D03*
X501968D02*
D03*
X498032D02*
D03*
X413469D02*
D03*
X409531D02*
D03*
X690937Y274029D02*
D03*
X683063D02*
D03*
X687000D02*
D03*
X501937D02*
D03*
X494063D02*
D03*
X498000D02*
D03*
X458937Y206529D02*
D03*
X451063D02*
D03*
X455000D02*
D03*
D77*
X540413Y365970D02*
D03*
X554587D02*
D03*
X492913D02*
D03*
X507087D02*
D03*
X404413D02*
D03*
X418587D02*
D03*
X696055Y283970D02*
D03*
X677945D02*
D03*
X507055D02*
D03*
X488945D02*
D03*
X464055Y216471D02*
D03*
X445945D02*
D03*
D78*
X520016Y367240D02*
D03*
Y359760D02*
D03*
X526984Y363500D02*
D03*
X510016Y217740D02*
D03*
Y210260D02*
D03*
X516984Y214000D02*
D03*
D79*
X434768Y348642D02*
D03*
Y366358D02*
D03*
X443232Y348642D02*
D03*
Y366358D02*
D03*
X728768Y266642D02*
D03*
Y284358D02*
D03*
X737232Y266642D02*
D03*
Y284358D02*
D03*
D80*
X1199000Y267500D02*
D03*
D81*
X1184039Y286988D02*
D03*
X1185614D02*
D03*
X1187189D02*
D03*
X1188764D02*
D03*
X1190339D02*
D03*
X1191913D02*
D03*
X1193488D02*
D03*
X1195063D02*
D03*
X1196638D02*
D03*
X1198213D02*
D03*
X1199787D02*
D03*
X1201362D02*
D03*
X1202937D02*
D03*
X1204512D02*
D03*
X1206087D02*
D03*
X1207661D02*
D03*
X1209236D02*
D03*
X1210811D02*
D03*
X1212386D02*
D03*
X1213961D02*
D03*
Y248012D02*
D03*
X1212386D02*
D03*
X1210811D02*
D03*
X1209236D02*
D03*
X1207661D02*
D03*
X1206087D02*
D03*
X1204512D02*
D03*
X1202937D02*
D03*
X1201362D02*
D03*
X1199787D02*
D03*
X1198213D02*
D03*
X1196638D02*
D03*
X1195063D02*
D03*
X1193488D02*
D03*
X1191913D02*
D03*
X1190339D02*
D03*
X1188764D02*
D03*
X1187189D02*
D03*
X1185614D02*
D03*
X1184039D02*
D03*
D82*
X1218488Y282461D02*
D03*
Y280886D02*
D03*
Y279311D02*
D03*
Y277736D02*
D03*
Y276161D02*
D03*
Y274587D02*
D03*
Y273012D02*
D03*
Y271437D02*
D03*
Y269862D02*
D03*
Y268287D02*
D03*
Y266713D02*
D03*
Y265138D02*
D03*
Y263563D02*
D03*
Y261988D02*
D03*
Y260413D02*
D03*
Y258839D02*
D03*
Y257264D02*
D03*
Y255689D02*
D03*
Y254114D02*
D03*
Y252539D02*
D03*
X1179512D02*
D03*
Y254114D02*
D03*
Y255689D02*
D03*
Y257264D02*
D03*
Y258839D02*
D03*
Y260413D02*
D03*
Y261988D02*
D03*
Y263563D02*
D03*
Y265138D02*
D03*
Y266713D02*
D03*
Y268287D02*
D03*
Y269862D02*
D03*
Y271437D02*
D03*
Y273012D02*
D03*
Y274587D02*
D03*
Y276161D02*
D03*
Y277736D02*
D03*
Y279311D02*
D03*
Y280886D02*
D03*
Y282461D02*
D03*
D83*
X1166232Y287500D02*
D03*
X1162768D02*
D03*
X1130732D02*
D03*
X1127268D02*
D03*
X1113732D02*
D03*
X1110268D02*
D03*
X1097232D02*
D03*
X1093768D02*
D03*
X1030732D02*
D03*
X1027268D02*
D03*
X1014232D02*
D03*
X1010768D02*
D03*
X997732D02*
D03*
X994268D02*
D03*
X981232D02*
D03*
X977768D02*
D03*
X964732D02*
D03*
X961268D02*
D03*
X948232D02*
D03*
X944768D02*
D03*
X933232D02*
D03*
X929768D02*
D03*
X916232D02*
D03*
X912768D02*
D03*
X867232D02*
D03*
X863768D02*
D03*
X803232D02*
D03*
X799768D02*
D03*
X712232D02*
D03*
X708768D02*
D03*
X539732D02*
D03*
X536268D02*
D03*
X473232D02*
D03*
X469768D02*
D03*
X440732D02*
D03*
X437268D02*
D03*
D84*
X1060779Y286000D02*
D03*
Y281000D02*
D03*
Y276000D02*
D03*
Y271000D02*
D03*
X1083220D02*
D03*
Y276000D02*
D03*
Y281000D02*
D03*
Y286000D02*
D03*
D85*
X1072000Y278500D02*
D03*
D86*
X852764Y287500D02*
D03*
X848236D02*
D03*
X788764D02*
D03*
X784236D02*
D03*
X557764D02*
D03*
X553236D02*
D03*
X458264D02*
D03*
X453736D02*
D03*
D87*
X618972Y276555D02*
D03*
X628028D02*
D03*
Y283445D02*
D03*
X618972D02*
D03*
D88*
X600937Y282500D02*
D03*
X593063D02*
D03*
D89*
X578634D02*
D03*
X570366Y278760D02*
D03*
Y286240D02*
D03*
D90*
X409500Y279465D02*
D03*
Y276000D02*
D03*
D91*
X1007461Y239213D02*
D03*
Y229370D02*
D03*
Y219528D02*
D03*
Y209685D02*
D03*
Y199843D02*
D03*
Y190000D02*
D03*
Y180157D02*
D03*
Y170315D02*
D03*
Y160472D02*
D03*
Y140787D02*
D03*
D92*
X606323Y97622D02*
D03*
Y90378D02*
D03*
D93*
X622000Y94000D02*
D03*
D151*
X861730Y121400D02*
D03*
X858167D02*
D03*
X854604D02*
D03*
X859959Y112600D02*
D03*
X856396D02*
D03*
X852833D02*
D03*
X851041Y121400D02*
D03*
X849270Y112600D02*
D03*
D152*
X864752Y121725D02*
D03*
Y120150D02*
D03*
Y118575D02*
D03*
Y117000D02*
D03*
Y115425D02*
D03*
Y113850D02*
D03*
Y112275D02*
D03*
X846248D02*
D03*
Y113850D02*
D03*
Y115425D02*
D03*
Y117000D02*
D03*
Y118575D02*
D03*
Y120150D02*
D03*
Y121725D02*
D03*
D166*
X1137000Y972413D02*
D03*
X1142512D02*
D03*
Y979500D02*
D03*
X1137000D02*
D03*
X1092744Y921957D02*
D03*
X1098256D02*
D03*
Y929043D02*
D03*
X1092744D02*
D03*
X1139744Y872457D02*
D03*
X1145256D02*
D03*
Y879543D02*
D03*
X1139744D02*
D03*
D167*
X1139756Y976941D02*
D03*
Y974973D02*
D03*
X1095500Y926484D02*
D03*
Y924516D02*
D03*
X1142500Y876984D02*
D03*
Y875016D02*
D03*
D168*
X1181500Y592765D02*
D03*
X989500D02*
D03*
X794000Y208765D02*
D03*
X759000D02*
D03*
D169*
X887004Y528915D02*
D03*
D170*
Y537085D02*
D03*
D171*
X899996Y528915D02*
D03*
D172*
Y537085D02*
D03*
D173*
X896453Y124000D02*
D03*
X890547D02*
D03*
X880453D02*
D03*
X874547D02*
D03*
D174*
X864752Y123700D02*
D03*
Y110300D02*
D03*
X846248D02*
D03*
Y123700D02*
D03*
D175*
X893500Y124000D02*
D03*
X877500D02*
D03*
D176*
X543000Y323000D02*
D03*
X484000Y328000D02*
D03*
X446500Y321000D02*
D03*
X411000Y318500D02*
D03*
D177*
X943012Y235189D02*
D03*
D178*
Y223378D02*
D03*
Y211567D02*
D03*
Y199756D02*
D03*
X931201Y235189D02*
D03*
Y223378D02*
D03*
Y211567D02*
D03*
Y199756D02*
D03*
X870500Y66000D02*
D03*
X882311Y77811D02*
D03*
X870500D02*
D03*
X814189Y51689D02*
D03*
X826000Y63500D02*
D03*
X814189D02*
D03*
X625500Y180689D02*
D03*
X637311Y192500D02*
D03*
X625500D02*
D03*
X671000Y45000D02*
D03*
X682811Y56811D02*
D03*
X671000D02*
D03*
D179*
X927500Y247000D02*
D03*
Y187945D02*
D03*
X894122Y81512D02*
D03*
X858689D02*
D03*
X837811Y67201D02*
D03*
X802378D02*
D03*
X649122Y196201D02*
D03*
X613689D02*
D03*
X694622Y60512D02*
D03*
X659189D02*
D03*
D180*
X882311Y66000D02*
D03*
X826000Y51689D02*
D03*
X637311Y180689D02*
D03*
X682811Y45000D02*
D03*
D181*
X552000Y1177500D02*
D03*
D03*
X501000D02*
D03*
D03*
X550000Y1111500D02*
D03*
D03*
X499500D02*
D03*
D03*
X549000Y1045500D02*
D03*
D03*
X498500D02*
D03*
D03*
X690500Y979500D02*
D03*
D03*
X640000D02*
D03*
D03*
X673000Y930000D02*
D03*
D03*
X625500D02*
D03*
D03*
X691500Y880500D02*
D03*
D03*
X641500D02*
D03*
D03*
X447500Y605000D02*
D03*
D03*
X431000D02*
D03*
D03*
X415000D02*
D03*
D03*
X432000Y540500D02*
D03*
D03*
X416000D02*
D03*
D03*
Y126500D02*
D03*
D03*
X400500D02*
D03*
D03*
D182*
X760500Y267921D02*
D03*
Y248236D02*
D03*
Y258079D02*
D03*
Y277764D02*
D03*
D183*
X890000Y223000D02*
D03*
X836850D02*
D03*
D184*
X877598Y199378D02*
D03*
D185*
X849252D02*
D03*
D186*
X992500Y245709D02*
D03*
Y150630D02*
D03*
M02*
