G04*
G04 #@! TF.GenerationSoftware,Altium Limited,Altium Designer,25.5.2 (35)*
G04*
G04 Layer_Color=8388736*
%FSLAX25Y25*%
%MOIN*%
G70*
G04*
G04 #@! TF.SameCoordinates,C00E9742-E408-46E0-AF1C-4EDC3A8FA902*
G04*
G04*
G04 #@! TF.FilePolarity,Negative*
G04*
G01*
G75*
%ADD41R,0.01000X0.05500*%
%ADD42R,0.02400X0.01000*%
%ADD43R,0.01000X0.02400*%
%ADD47R,0.00903X0.03081*%
%ADD48R,0.03081X0.00903*%
%ADD49R,0.06100X0.11000*%
%ADD50R,0.03700X0.11000*%
%ADD53R,0.01697X0.03928*%
%ADD71R,0.01968X0.03150*%
%ADD74R,0.02800X0.01000*%
%ADD94R,0.06693X0.04528*%
%ADD95R,0.08268X0.16142*%
%ADD96R,0.05512X0.05906*%
%ADD97R,0.08268X0.16535*%
%ADD98R,0.08858X0.15354*%
%ADD99R,0.06693X0.12992*%
%ADD100R,0.03740X0.03740*%
%ADD101R,0.03740X0.02756*%
%ADD102R,0.10039X0.12795*%
%ADD103R,0.07087X0.10236*%
%ADD104R,0.10236X0.07087*%
%ADD105R,0.06890X0.05118*%
%ADD106R,0.02756X0.03740*%
%ADD107R,0.07480X0.05118*%
%ADD108R,0.03543X0.02362*%
%ADD109R,0.09449X0.12205*%
%ADD110R,0.05906X0.05512*%
%ADD111R,0.06102X0.06496*%
%ADD112R,0.09449X0.18307*%
%ADD113R,0.12795X0.10039*%
%ADD114R,0.03347X0.04331*%
%ADD115R,0.21654X0.11811*%
%ADD116R,0.03740X0.03740*%
%ADD117R,0.12992X0.06693*%
G04:AMPARAMS|DCode=118|XSize=18.7mil|YSize=60.04mil|CornerRadius=3.94mil|HoleSize=0mil|Usage=FLASHONLY|Rotation=0.000|XOffset=0mil|YOffset=0mil|HoleType=Round|Shape=RoundedRectangle|*
%AMROUNDEDRECTD118*
21,1,0.01870,0.05217,0,0,0.0*
21,1,0.01083,0.06004,0,0,0.0*
1,1,0.00787,0.00541,-0.02608*
1,1,0.00787,-0.00541,-0.02608*
1,1,0.00787,-0.00541,0.02608*
1,1,0.00787,0.00541,0.02608*
%
%ADD118ROUNDEDRECTD118*%
G04:AMPARAMS|DCode=119|XSize=13.78mil|YSize=32.48mil|CornerRadius=3.94mil|HoleSize=0mil|Usage=FLASHONLY|Rotation=90.000|XOffset=0mil|YOffset=0mil|HoleType=Round|Shape=RoundedRectangle|*
%AMROUNDEDRECTD119*
21,1,0.01378,0.02461,0,0,90.0*
21,1,0.00591,0.03248,0,0,90.0*
1,1,0.00787,0.01230,0.00295*
1,1,0.00787,0.01230,-0.00295*
1,1,0.00787,-0.01230,-0.00295*
1,1,0.00787,-0.01230,0.00295*
%
%ADD119ROUNDEDRECTD119*%
G04:AMPARAMS|DCode=120|XSize=13.78mil|YSize=27.56mil|CornerRadius=3.94mil|HoleSize=0mil|Usage=FLASHONLY|Rotation=90.000|XOffset=0mil|YOffset=0mil|HoleType=Round|Shape=RoundedRectangle|*
%AMROUNDEDRECTD120*
21,1,0.01378,0.01968,0,0,90.0*
21,1,0.00591,0.02756,0,0,90.0*
1,1,0.00787,0.00984,0.00295*
1,1,0.00787,0.00984,-0.00295*
1,1,0.00787,-0.00984,-0.00295*
1,1,0.00787,-0.00984,0.00295*
%
%ADD120ROUNDEDRECTD120*%
G04:AMPARAMS|DCode=121|XSize=13.78mil|YSize=27.56mil|CornerRadius=3.94mil|HoleSize=0mil|Usage=FLASHONLY|Rotation=180.000|XOffset=0mil|YOffset=0mil|HoleType=Round|Shape=RoundedRectangle|*
%AMROUNDEDRECTD121*
21,1,0.01378,0.01968,0,0,180.0*
21,1,0.00591,0.02756,0,0,180.0*
1,1,0.00787,-0.00295,0.00984*
1,1,0.00787,0.00295,0.00984*
1,1,0.00787,0.00295,-0.00984*
1,1,0.00787,-0.00295,-0.00984*
%
%ADD121ROUNDEDRECTD121*%
G04:AMPARAMS|DCode=122|XSize=13.78mil|YSize=28.54mil|CornerRadius=3.94mil|HoleSize=0mil|Usage=FLASHONLY|Rotation=180.000|XOffset=0mil|YOffset=0mil|HoleType=Round|Shape=RoundedRectangle|*
%AMROUNDEDRECTD122*
21,1,0.01378,0.02067,0,0,180.0*
21,1,0.00591,0.02854,0,0,180.0*
1,1,0.00787,-0.00295,0.01034*
1,1,0.00787,0.00295,0.01034*
1,1,0.00787,0.00295,-0.01034*
1,1,0.00787,-0.00295,-0.01034*
%
%ADD122ROUNDEDRECTD122*%
G04:AMPARAMS|DCode=123|XSize=13.78mil|YSize=30.51mil|CornerRadius=3.94mil|HoleSize=0mil|Usage=FLASHONLY|Rotation=180.000|XOffset=0mil|YOffset=0mil|HoleType=Round|Shape=RoundedRectangle|*
%AMROUNDEDRECTD123*
21,1,0.01378,0.02264,0,0,180.0*
21,1,0.00591,0.03051,0,0,180.0*
1,1,0.00787,-0.00295,0.01132*
1,1,0.00787,0.00295,0.01132*
1,1,0.00787,0.00295,-0.01132*
1,1,0.00787,-0.00295,-0.01132*
%
%ADD123ROUNDEDRECTD123*%
%ADD124R,0.14764X0.06693*%
%ADD125R,0.12598X0.22441*%
%ADD126R,0.02756X0.01378*%
%ADD127R,0.01378X0.06693*%
%ADD128R,0.01378X0.04528*%
%ADD129R,0.01378X0.11811*%
%ADD130R,0.08858X0.10039*%
%ADD131R,0.02362X0.03543*%
%ADD132R,0.06890X0.05315*%
%ADD133R,0.09843X0.20472*%
%ADD134R,0.07284X0.06890*%
%ADD135R,0.02756X0.06496*%
%ADD136R,0.05118X0.07480*%
%ADD137R,0.04221X0.03551*%
%ADD138R,0.03150X0.04331*%
%ADD139R,0.13976X0.13976*%
%ADD140R,0.01181X0.03740*%
%ADD141R,0.03740X0.01181*%
%ADD142R,0.02756X0.02913*%
%ADD143R,0.04528X0.02165*%
%ADD144R,0.13976X0.17520*%
%ADD145R,0.03347X0.02756*%
%ADD146R,0.05512X0.04528*%
%ADD147R,0.04331X0.06693*%
%ADD148R,0.05315X0.02756*%
%ADD149R,0.02913X0.02756*%
%ADD150R,0.09843X0.07480*%
%ADD151R,0.00800X0.10400*%
%ADD152R,0.02800X0.00800*%
%ADD153R,0.05906X0.05866*%
%ADD154R,0.19528X0.13622*%
%ADD155C,0.24016*%
%ADD156R,0.06378X0.06378*%
%ADD157C,0.06378*%
%ADD158C,0.04409*%
%ADD159R,0.06378X0.06378*%
%ADD160C,0.02756*%
%ADD161O,0.10236X0.07284*%
%ADD162C,0.11024*%
%ADD163C,0.16339*%
%ADD164R,0.16339X0.16339*%
%ADD165C,0.06890*%
G36*
X1143112Y979300D02*
X1144512D01*
Y978300D01*
X1141912Y978300D01*
Y980700D01*
X1143112D01*
X1143112Y979300D01*
D02*
G37*
G36*
X1137600Y978300D02*
X1135000Y978300D01*
Y979300D01*
X1136400D01*
X1136400Y980700D01*
X1137600D01*
Y978300D01*
D02*
G37*
G36*
X1144512Y972613D02*
X1143112D01*
X1143112Y971213D01*
X1141912D01*
Y973613D01*
X1144512D01*
Y972613D01*
D02*
G37*
G36*
X1137600Y971213D02*
X1136400D01*
X1136400Y972613D01*
X1135000D01*
Y973613D01*
X1137600D01*
Y971213D01*
D02*
G37*
G36*
X1098856Y928843D02*
X1100256D01*
Y927843D01*
X1097656Y927843D01*
Y930243D01*
X1098856D01*
X1098856Y928843D01*
D02*
G37*
G36*
X1093344Y927843D02*
X1090744Y927843D01*
Y928843D01*
X1092144D01*
X1092144Y930243D01*
X1093344D01*
Y927843D01*
D02*
G37*
G36*
X1100256Y922157D02*
X1098856D01*
X1098856Y920757D01*
X1097656D01*
Y923157D01*
X1100256D01*
Y922157D01*
D02*
G37*
G36*
X1093344Y920757D02*
X1092144D01*
X1092144Y922157D01*
X1090744D01*
Y923157D01*
X1093344D01*
Y920757D01*
D02*
G37*
G36*
X1145856Y879343D02*
X1147256D01*
Y878343D01*
X1144656Y878343D01*
Y880743D01*
X1145856D01*
X1145856Y879343D01*
D02*
G37*
G36*
X1140344Y878343D02*
X1137744Y878343D01*
Y879343D01*
X1139144D01*
X1139144Y880743D01*
X1140344D01*
Y878343D01*
D02*
G37*
G36*
X1147256Y872657D02*
X1145856D01*
X1145856Y871257D01*
X1144656D01*
Y873657D01*
X1147256D01*
Y872657D01*
D02*
G37*
G36*
X1140344Y871257D02*
X1139144D01*
X1139144Y872657D01*
X1137744D01*
Y873657D01*
X1140344D01*
Y871257D01*
D02*
G37*
G36*
X936066Y603871D02*
X936103Y603860D01*
X936175Y603830D01*
X936210Y603812D01*
X936240Y603787D01*
X936295Y603732D01*
X936320Y603702D01*
X936338Y603667D01*
X936368Y603595D01*
X936379Y603558D01*
X936383Y603519D01*
Y603480D01*
Y602506D01*
X936386Y602500D01*
X936392Y602497D01*
X937504D01*
D01*
X937504D01*
X937542Y602493D01*
X937579Y602482D01*
X937652Y602452D01*
X937686Y602434D01*
X937716Y602409D01*
X937771Y602354D01*
X937796Y602324D01*
X937814Y602290D01*
X937844Y602217D01*
X937855Y602180D01*
X937859Y602142D01*
Y602102D01*
Y601610D01*
Y601571D01*
D01*
Y601571D01*
X937855Y601533D01*
X937844Y601495D01*
X937814Y601423D01*
X937796Y601389D01*
X937771Y601359D01*
X937716Y601303D01*
X937686Y601279D01*
X937652Y601261D01*
X937579Y601231D01*
X937542Y601219D01*
X937504Y601216D01*
X934768D01*
D01*
X934768D01*
X934729Y601219D01*
X934692Y601231D01*
X934620Y601261D01*
X934586Y601279D01*
X934556Y601303D01*
X934500Y601359D01*
X934476Y601389D01*
X934457Y601423D01*
X934428Y601495D01*
X934416Y601533D01*
X934412Y601571D01*
Y601610D01*
Y601610D01*
Y603480D01*
Y603519D01*
D01*
Y603519D01*
X934416Y603558D01*
X934428Y603595D01*
X934457Y603667D01*
X934476Y603702D01*
X934500Y603732D01*
X934556Y603787D01*
X934586Y603812D01*
X934620Y603830D01*
X934692Y603860D01*
X934729Y603871D01*
X934768Y603875D01*
X936027D01*
D01*
X936027D01*
X936066Y603871D01*
D02*
G37*
G36*
X923271D02*
X923308Y603860D01*
X923380Y603830D01*
X923414Y603812D01*
X923444Y603787D01*
X923500Y603732D01*
X923524Y603702D01*
X923542Y603667D01*
X923573Y603595D01*
X923584Y603558D01*
X923588Y603519D01*
Y603480D01*
Y601610D01*
Y601571D01*
D01*
Y601571D01*
X923584Y601533D01*
X923573Y601495D01*
X923542Y601423D01*
X923524Y601389D01*
X923500Y601359D01*
X923444Y601303D01*
X923414Y601279D01*
X923380Y601261D01*
X923308Y601231D01*
X923271Y601219D01*
X923232Y601216D01*
X920496D01*
D01*
X920496D01*
X920458Y601219D01*
X920421Y601231D01*
X920348Y601261D01*
X920314Y601279D01*
X920284Y601303D01*
X920229Y601359D01*
X920204Y601389D01*
X920186Y601423D01*
X920156Y601495D01*
X920145Y601533D01*
X920141Y601571D01*
Y601610D01*
Y601610D01*
Y602102D01*
Y602142D01*
D01*
Y602142D01*
X920145Y602180D01*
X920156Y602217D01*
X920186Y602290D01*
X920204Y602324D01*
X920229Y602354D01*
X920284Y602409D01*
X920314Y602434D01*
X920348Y602452D01*
X920421Y602482D01*
X920458Y602493D01*
X920496Y602497D01*
X921608D01*
X921614Y602500D01*
X921617Y602506D01*
Y603480D01*
Y603519D01*
D01*
Y603519D01*
X921621Y603558D01*
X921632Y603595D01*
X921662Y603667D01*
X921681Y603702D01*
X921705Y603732D01*
X921760Y603787D01*
X921790Y603812D01*
X921825Y603830D01*
X921897Y603860D01*
X921934Y603871D01*
X921973Y603875D01*
X923232D01*
D01*
X923232D01*
X923271Y603871D01*
D02*
G37*
G36*
X1190515Y601881D02*
X1190552Y601870D01*
X1190586Y601852D01*
X1190616Y601827D01*
X1190641Y601797D01*
X1190659Y601763D01*
X1190670Y601726D01*
X1190674Y601687D01*
Y589296D01*
X1192425D01*
X1192464Y589292D01*
X1192501Y589281D01*
X1192535Y589263D01*
X1192565Y589238D01*
X1192590Y589208D01*
X1192608Y589174D01*
X1192619Y589137D01*
X1192623Y589098D01*
Y585516D01*
X1192619Y585477D01*
X1192608Y585440D01*
X1192590Y585406D01*
X1192565Y585376D01*
X1192535Y585351D01*
X1192501Y585333D01*
X1192464Y585322D01*
X1192425Y585318D01*
X1190674D01*
Y583843D01*
X1190670Y583804D01*
X1190659Y583767D01*
X1190641Y583733D01*
X1190616Y583703D01*
X1190586Y583678D01*
X1190552Y583660D01*
X1190515Y583648D01*
X1190476Y583645D01*
X1172524D01*
X1172485Y583648D01*
X1172448Y583660D01*
X1172414Y583678D01*
X1172384Y583703D01*
X1172359Y583733D01*
X1172341Y583767D01*
X1172330Y583804D01*
X1172326Y583843D01*
Y585318D01*
X1170575D01*
X1170536Y585322D01*
X1170499Y585333D01*
X1170465Y585351D01*
X1170435Y585376D01*
X1170410Y585406D01*
X1170392Y585440D01*
X1170381Y585477D01*
X1170377Y585516D01*
Y589098D01*
X1170381Y589137D01*
X1170392Y589174D01*
X1170410Y589208D01*
X1170435Y589238D01*
X1170465Y589263D01*
X1170499Y589281D01*
X1170536Y589292D01*
X1170575Y589296D01*
X1172326D01*
Y601687D01*
X1172330Y601726D01*
X1172341Y601763D01*
X1172359Y601797D01*
X1172384Y601827D01*
X1172414Y601852D01*
X1172448Y601870D01*
X1172485Y601881D01*
X1172524Y601885D01*
X1175476D01*
X1175515Y601881D01*
X1175552Y601870D01*
X1175586Y601852D01*
X1175616Y601827D01*
X1175641Y601797D01*
X1175659Y601763D01*
X1175670Y601726D01*
X1175674Y601687D01*
Y600015D01*
X1187326D01*
Y601687D01*
X1187330Y601726D01*
X1187341Y601763D01*
X1187359Y601797D01*
X1187384Y601827D01*
X1187414Y601852D01*
X1187448Y601870D01*
X1187485Y601881D01*
X1187524Y601885D01*
X1190476D01*
X1190515Y601881D01*
D02*
G37*
G36*
X998515D02*
X998552Y601870D01*
X998586Y601852D01*
X998616Y601827D01*
X998641Y601797D01*
X998659Y601763D01*
X998670Y601726D01*
X998674Y601687D01*
Y589296D01*
X1000425D01*
X1000464Y589292D01*
X1000501Y589281D01*
X1000535Y589263D01*
X1000565Y589238D01*
X1000590Y589208D01*
X1000608Y589174D01*
X1000619Y589137D01*
X1000623Y589098D01*
Y585516D01*
X1000619Y585477D01*
X1000608Y585440D01*
X1000590Y585406D01*
X1000565Y585376D01*
X1000535Y585351D01*
X1000501Y585333D01*
X1000464Y585322D01*
X1000425Y585318D01*
X998674D01*
Y583843D01*
X998670Y583804D01*
X998659Y583767D01*
X998641Y583733D01*
X998616Y583703D01*
X998586Y583678D01*
X998552Y583660D01*
X998515Y583648D01*
X998476Y583645D01*
X980524D01*
X980485Y583648D01*
X980448Y583660D01*
X980414Y583678D01*
X980384Y583703D01*
X980359Y583733D01*
X980341Y583767D01*
X980330Y583804D01*
X980326Y583843D01*
Y585318D01*
X978575D01*
X978536Y585322D01*
X978499Y585333D01*
X978465Y585351D01*
X978435Y585376D01*
X978410Y585406D01*
X978392Y585440D01*
X978381Y585477D01*
X978377Y585516D01*
Y589098D01*
X978381Y589137D01*
X978392Y589174D01*
X978410Y589208D01*
X978435Y589238D01*
X978465Y589263D01*
X978499Y589281D01*
X978536Y589292D01*
X978575Y589296D01*
X980326D01*
Y601687D01*
X980330Y601726D01*
X980341Y601763D01*
X980359Y601797D01*
X980384Y601827D01*
X980414Y601852D01*
X980448Y601870D01*
X980485Y601881D01*
X980524Y601885D01*
X983476D01*
X983515Y601881D01*
X983552Y601870D01*
X983586Y601852D01*
X983616Y601827D01*
X983641Y601797D01*
X983659Y601763D01*
X983670Y601726D01*
X983674Y601687D01*
Y600015D01*
X995326D01*
Y601687D01*
X995330Y601726D01*
X995341Y601763D01*
X995359Y601797D01*
X995384Y601827D01*
X995414Y601852D01*
X995448Y601870D01*
X995485Y601881D01*
X995524Y601885D01*
X998476D01*
X998515Y601881D01*
D02*
G37*
G36*
X937542Y590781D02*
X937579Y590769D01*
X937652Y590739D01*
X937686Y590721D01*
X937716Y590696D01*
X937771Y590641D01*
X937796Y590611D01*
X937814Y590577D01*
X937844Y590505D01*
X937855Y590468D01*
X937859Y590429D01*
Y590429D01*
D01*
Y590390D01*
Y589898D01*
Y589858D01*
X937855Y589820D01*
X937844Y589783D01*
X937814Y589710D01*
X937796Y589676D01*
X937771Y589646D01*
X937716Y589591D01*
X937686Y589566D01*
X937652Y589548D01*
X937579Y589518D01*
X937542Y589507D01*
X937504Y589503D01*
X937504D01*
D01*
X936490D01*
X936484Y589500D01*
X936481Y589494D01*
Y588520D01*
Y588481D01*
X936477Y588442D01*
X936466Y588405D01*
X936436Y588333D01*
X936418Y588298D01*
X936393Y588268D01*
X936338Y588213D01*
X936308Y588188D01*
X936274Y588170D01*
X936201Y588140D01*
X936164Y588129D01*
X936126Y588125D01*
X936126D01*
D01*
X935063D01*
X935025Y588129D01*
X934988Y588140D01*
X934915Y588170D01*
X934881Y588188D01*
X934851Y588213D01*
X934796Y588268D01*
X934771Y588298D01*
X934753Y588333D01*
X934723Y588405D01*
X934711Y588442D01*
X934708Y588481D01*
Y588481D01*
D01*
Y588520D01*
Y590390D01*
Y590429D01*
X934711Y590468D01*
X934723Y590505D01*
X934753Y590577D01*
X934771Y590611D01*
X934796Y590641D01*
X934851Y590696D01*
X934881Y590721D01*
X934915Y590739D01*
X934988Y590769D01*
X935025Y590781D01*
X935063Y590784D01*
X935063D01*
D01*
X937504D01*
X937542Y590781D01*
D02*
G37*
G36*
X922975D02*
X923013Y590769D01*
X923085Y590739D01*
X923119Y590721D01*
X923149Y590696D01*
X923204Y590641D01*
X923229Y590611D01*
X923247Y590577D01*
X923277Y590505D01*
X923289Y590468D01*
X923292Y590429D01*
Y590390D01*
Y588520D01*
Y588481D01*
D01*
Y588481D01*
X923289Y588442D01*
X923277Y588405D01*
X923247Y588333D01*
X923229Y588298D01*
X923204Y588268D01*
X923149Y588213D01*
X923119Y588188D01*
X923085Y588170D01*
X923013Y588140D01*
X922975Y588129D01*
X922937Y588125D01*
X921874D01*
D01*
X921874D01*
X921836Y588129D01*
X921799Y588140D01*
X921726Y588170D01*
X921692Y588188D01*
X921662Y588213D01*
X921607Y588268D01*
X921582Y588298D01*
X921564Y588333D01*
X921534Y588405D01*
X921523Y588442D01*
X921519Y588481D01*
Y588520D01*
Y589494D01*
X921516Y589500D01*
X921510Y589503D01*
X920496D01*
D01*
X920496D01*
X920458Y589507D01*
X920421Y589518D01*
X920348Y589548D01*
X920314Y589566D01*
X920284Y589591D01*
X920229Y589646D01*
X920204Y589676D01*
X920186Y589710D01*
X920156Y589783D01*
X920145Y589820D01*
X920141Y589858D01*
Y589898D01*
Y589898D01*
Y590390D01*
Y590429D01*
D01*
Y590429D01*
X920145Y590468D01*
X920156Y590505D01*
X920186Y590577D01*
X920204Y590611D01*
X920229Y590641D01*
X920284Y590696D01*
X920314Y590721D01*
X920348Y590739D01*
X920421Y590769D01*
X920458Y590781D01*
X920496Y590784D01*
X922937D01*
D01*
X922937D01*
X922975Y590781D01*
D02*
G37*
G36*
X899789Y538903D02*
X899826Y538891D01*
X899860Y538873D01*
X899890Y538848D01*
X899914Y538819D01*
X899933Y538784D01*
X899944Y538747D01*
X899948Y538709D01*
Y537430D01*
X901128D01*
X901167Y537426D01*
X901204Y537415D01*
X901238Y537397D01*
X901268Y537372D01*
X901292Y537342D01*
X901311Y537308D01*
X901322Y537271D01*
X901326Y537232D01*
Y535461D01*
X901322Y535422D01*
X901311Y535385D01*
X901292Y535351D01*
X901268Y535321D01*
X901238Y535296D01*
X901204Y535278D01*
X901167Y535267D01*
X901128Y535263D01*
X898864D01*
X898826Y535267D01*
X898789Y535278D01*
X898754Y535296D01*
X898724Y535321D01*
X898700Y535351D01*
X898681Y535385D01*
X898670Y535422D01*
X898666Y535461D01*
Y538709D01*
X898670Y538747D01*
X898681Y538784D01*
X898700Y538819D01*
X898724Y538848D01*
X898754Y538873D01*
X898789Y538891D01*
X898826Y538903D01*
X898864Y538906D01*
X899750D01*
X899789Y538903D01*
D02*
G37*
G36*
X888174D02*
X888212Y538891D01*
X888246Y538873D01*
X888276Y538848D01*
X888300Y538819D01*
X888319Y538784D01*
X888330Y538747D01*
X888334Y538709D01*
Y535461D01*
X888330Y535422D01*
X888319Y535385D01*
X888300Y535351D01*
X888276Y535321D01*
X888246Y535296D01*
X888212Y535278D01*
X888174Y535267D01*
X888136Y535263D01*
X885872D01*
X885833Y535267D01*
X885796Y535278D01*
X885762Y535296D01*
X885732Y535321D01*
X885708Y535351D01*
X885689Y535385D01*
X885678Y535422D01*
X885674Y535461D01*
Y537232D01*
X885678Y537271D01*
X885689Y537308D01*
X885708Y537342D01*
X885732Y537372D01*
X885762Y537397D01*
X885796Y537415D01*
X885833Y537426D01*
X885872Y537430D01*
X887052D01*
Y538709D01*
X887056Y538747D01*
X887067Y538784D01*
X887086Y538819D01*
X887110Y538848D01*
X887140Y538873D01*
X887174Y538891D01*
X887211Y538903D01*
X887250Y538906D01*
X888136D01*
X888174Y538903D01*
D02*
G37*
G36*
X901167Y530733D02*
X901204Y530722D01*
X901238Y530704D01*
X901268Y530679D01*
X901292Y530649D01*
X901311Y530615D01*
X901322Y530578D01*
X901326Y530539D01*
Y528768D01*
X901322Y528729D01*
X901311Y528692D01*
X901292Y528658D01*
X901268Y528628D01*
X901238Y528603D01*
X901204Y528585D01*
X901167Y528574D01*
X901128Y528570D01*
X899948D01*
Y527291D01*
X899944Y527253D01*
X899933Y527216D01*
X899914Y527181D01*
X899890Y527151D01*
X899860Y527127D01*
X899826Y527109D01*
X899789Y527097D01*
X899750Y527094D01*
X898864D01*
X898826Y527097D01*
X898789Y527109D01*
X898754Y527127D01*
X898724Y527151D01*
X898700Y527181D01*
X898681Y527216D01*
X898670Y527253D01*
X898666Y527291D01*
Y530539D01*
X898670Y530578D01*
X898681Y530615D01*
X898700Y530649D01*
X898724Y530679D01*
X898754Y530704D01*
X898789Y530722D01*
X898826Y530733D01*
X898864Y530737D01*
X901128D01*
X901167Y530733D01*
D02*
G37*
G36*
X888174D02*
X888212Y530722D01*
X888246Y530704D01*
X888276Y530679D01*
X888300Y530649D01*
X888319Y530615D01*
X888330Y530578D01*
X888334Y530539D01*
Y527291D01*
X888330Y527253D01*
X888319Y527216D01*
X888300Y527181D01*
X888276Y527151D01*
X888246Y527127D01*
X888212Y527109D01*
X888174Y527097D01*
X888136Y527094D01*
X887250D01*
X887211Y527097D01*
X887174Y527109D01*
X887140Y527127D01*
X887110Y527151D01*
X887086Y527181D01*
X887067Y527216D01*
X887056Y527253D01*
X887052Y527291D01*
Y528570D01*
X885872D01*
X885833Y528574D01*
X885796Y528585D01*
X885762Y528603D01*
X885732Y528628D01*
X885708Y528658D01*
X885689Y528692D01*
X885678Y528729D01*
X885674Y528768D01*
Y530539D01*
X885678Y530578D01*
X885689Y530615D01*
X885708Y530649D01*
X885732Y530679D01*
X885762Y530704D01*
X885796Y530722D01*
X885833Y530733D01*
X885872Y530737D01*
X888136D01*
X888174Y530733D01*
D02*
G37*
G36*
X803015Y217881D02*
X803052Y217870D01*
X803086Y217851D01*
X803116Y217827D01*
X803141Y217797D01*
X803159Y217763D01*
X803170Y217726D01*
X803174Y217687D01*
Y205296D01*
X804925D01*
X804964Y205292D01*
X805001Y205281D01*
X805035Y205263D01*
X805065Y205238D01*
X805090Y205208D01*
X805108Y205174D01*
X805119Y205137D01*
X805123Y205098D01*
Y201516D01*
X805119Y201477D01*
X805108Y201440D01*
X805090Y201406D01*
X805065Y201376D01*
X805035Y201351D01*
X805001Y201333D01*
X804964Y201322D01*
X804925Y201318D01*
X803174D01*
Y199843D01*
X803170Y199804D01*
X803159Y199767D01*
X803141Y199733D01*
X803116Y199703D01*
X803086Y199678D01*
X803052Y199660D01*
X803015Y199648D01*
X802976Y199645D01*
X785024D01*
X784985Y199648D01*
X784948Y199660D01*
X784914Y199678D01*
X784884Y199703D01*
X784859Y199733D01*
X784841Y199767D01*
X784830Y199804D01*
X784826Y199843D01*
Y201318D01*
X783075D01*
X783036Y201322D01*
X782999Y201333D01*
X782965Y201351D01*
X782935Y201376D01*
X782910Y201406D01*
X782892Y201440D01*
X782881Y201477D01*
X782877Y201516D01*
Y205098D01*
X782881Y205137D01*
X782892Y205174D01*
X782910Y205208D01*
X782935Y205238D01*
X782965Y205263D01*
X782999Y205281D01*
X783036Y205292D01*
X783075Y205296D01*
X784826D01*
Y217687D01*
X784830Y217726D01*
X784841Y217763D01*
X784859Y217797D01*
X784884Y217827D01*
X784914Y217851D01*
X784948Y217870D01*
X784985Y217881D01*
X785024Y217885D01*
X787976D01*
X788015Y217881D01*
X788052Y217870D01*
X788086Y217851D01*
X788116Y217827D01*
X788141Y217797D01*
X788159Y217763D01*
X788170Y217726D01*
X788174Y217687D01*
Y216015D01*
X799826D01*
Y217687D01*
X799830Y217726D01*
X799841Y217763D01*
X799859Y217797D01*
X799884Y217827D01*
X799914Y217851D01*
X799948Y217870D01*
X799985Y217881D01*
X800024Y217885D01*
X802976D01*
X803015Y217881D01*
D02*
G37*
G36*
X768015D02*
X768052Y217870D01*
X768086Y217851D01*
X768116Y217827D01*
X768141Y217797D01*
X768159Y217763D01*
X768170Y217726D01*
X768174Y217687D01*
Y205296D01*
X769925D01*
X769964Y205292D01*
X770001Y205281D01*
X770035Y205263D01*
X770065Y205238D01*
X770090Y205208D01*
X770108Y205174D01*
X770119Y205137D01*
X770123Y205098D01*
Y201516D01*
X770119Y201477D01*
X770108Y201440D01*
X770090Y201406D01*
X770065Y201376D01*
X770035Y201351D01*
X770001Y201333D01*
X769964Y201322D01*
X769925Y201318D01*
X768174D01*
Y199843D01*
X768170Y199804D01*
X768159Y199767D01*
X768141Y199733D01*
X768116Y199703D01*
X768086Y199678D01*
X768052Y199660D01*
X768015Y199648D01*
X767976Y199645D01*
X750024D01*
X749985Y199648D01*
X749948Y199660D01*
X749914Y199678D01*
X749884Y199703D01*
X749859Y199733D01*
X749841Y199767D01*
X749830Y199804D01*
X749826Y199843D01*
Y201318D01*
X748075D01*
X748036Y201322D01*
X747999Y201333D01*
X747965Y201351D01*
X747935Y201376D01*
X747910Y201406D01*
X747892Y201440D01*
X747881Y201477D01*
X747877Y201516D01*
Y205098D01*
X747881Y205137D01*
X747892Y205174D01*
X747910Y205208D01*
X747935Y205238D01*
X747965Y205263D01*
X747999Y205281D01*
X748036Y205292D01*
X748075Y205296D01*
X749826D01*
Y217687D01*
X749830Y217726D01*
X749841Y217763D01*
X749859Y217797D01*
X749884Y217827D01*
X749914Y217851D01*
X749948Y217870D01*
X749985Y217881D01*
X750024Y217885D01*
X752976D01*
X753015Y217881D01*
X753052Y217870D01*
X753086Y217851D01*
X753116Y217827D01*
X753141Y217797D01*
X753159Y217763D01*
X753170Y217726D01*
X753174Y217687D01*
Y216015D01*
X764826D01*
Y217687D01*
X764830Y217726D01*
X764841Y217763D01*
X764859Y217797D01*
X764884Y217827D01*
X764914Y217851D01*
X764948Y217870D01*
X764985Y217881D01*
X765024Y217885D01*
X767976D01*
X768015Y217881D01*
D02*
G37*
G36*
X847648Y122900D02*
X844848D01*
Y124500D01*
X846248D01*
Y126600D01*
X847648D01*
Y122900D01*
D02*
G37*
D41*
X1160531Y1272507D02*
D03*
X1164469D02*
D03*
X1162500Y1276493D02*
D03*
X1211031Y1222007D02*
D03*
X1214969D02*
D03*
X1213000Y1225993D02*
D03*
D42*
X1168012Y1271546D02*
D03*
Y1273516D02*
D03*
Y1275484D02*
D03*
Y1277454D02*
D03*
X1156988D02*
D03*
Y1275484D02*
D03*
Y1273516D02*
D03*
Y1271546D02*
D03*
X1218512Y1221047D02*
D03*
Y1223015D02*
D03*
Y1224984D02*
D03*
Y1226954D02*
D03*
X1207488D02*
D03*
Y1224984D02*
D03*
Y1223015D02*
D03*
Y1221047D02*
D03*
D43*
X1160531Y1278043D02*
D03*
X1211031Y1227543D02*
D03*
X1138870Y972413D02*
D03*
X1140642D02*
D03*
Y979500D02*
D03*
X1138870D02*
D03*
X1094614Y921957D02*
D03*
X1096386D02*
D03*
Y929043D02*
D03*
X1094614D02*
D03*
X1141614Y872457D02*
D03*
X1143386D02*
D03*
Y879543D02*
D03*
X1141614D02*
D03*
D47*
X1318579Y1160309D02*
D03*
X1320547D02*
D03*
X1322516D02*
D03*
X1324484D02*
D03*
X1326453D02*
D03*
X1328421D02*
D03*
Y1175691D02*
D03*
X1326453D02*
D03*
X1324484D02*
D03*
X1322516D02*
D03*
X1320547D02*
D03*
X1318579D02*
D03*
X1307079Y1094309D02*
D03*
X1309047D02*
D03*
X1311016D02*
D03*
X1312984D02*
D03*
X1314953D02*
D03*
X1316921D02*
D03*
Y1109691D02*
D03*
X1314953D02*
D03*
X1312984D02*
D03*
X1311016D02*
D03*
X1309047D02*
D03*
X1307079D02*
D03*
X1299579Y1028309D02*
D03*
X1301547D02*
D03*
X1303516D02*
D03*
X1305484D02*
D03*
X1307453D02*
D03*
X1309421D02*
D03*
Y1043691D02*
D03*
X1307453D02*
D03*
X1305484D02*
D03*
X1303516D02*
D03*
X1301547D02*
D03*
X1299579D02*
D03*
D48*
X1331191Y1163079D02*
D03*
Y1165047D02*
D03*
Y1167016D02*
D03*
Y1168984D02*
D03*
Y1170953D02*
D03*
Y1172921D02*
D03*
X1315809D02*
D03*
Y1170953D02*
D03*
Y1168984D02*
D03*
Y1167016D02*
D03*
Y1165047D02*
D03*
Y1163079D02*
D03*
X1319691Y1097079D02*
D03*
Y1099047D02*
D03*
Y1101016D02*
D03*
Y1102984D02*
D03*
Y1104953D02*
D03*
Y1106921D02*
D03*
X1304309D02*
D03*
Y1104953D02*
D03*
Y1102984D02*
D03*
Y1101016D02*
D03*
Y1099047D02*
D03*
Y1097079D02*
D03*
X1312191Y1031079D02*
D03*
Y1033047D02*
D03*
Y1035016D02*
D03*
Y1036984D02*
D03*
Y1038953D02*
D03*
Y1040921D02*
D03*
X1296809D02*
D03*
Y1038953D02*
D03*
Y1036984D02*
D03*
Y1035016D02*
D03*
Y1033047D02*
D03*
Y1031079D02*
D03*
D49*
X1321039Y1168000D02*
D03*
X1309539Y1102000D02*
D03*
X1302039Y1036000D02*
D03*
D50*
X1327142Y1168000D02*
D03*
X1315642Y1102000D02*
D03*
X1308142Y1036000D02*
D03*
D53*
X623161Y829214D02*
D03*
X625721D02*
D03*
X628279D02*
D03*
X630839D02*
D03*
Y818786D02*
D03*
X628279D02*
D03*
X625721D02*
D03*
X623161D02*
D03*
X620661Y796714D02*
D03*
X623220D02*
D03*
X625779D02*
D03*
X628339D02*
D03*
Y786286D02*
D03*
X625779D02*
D03*
X623220D02*
D03*
X620661D02*
D03*
X605661Y764214D02*
D03*
X608220D02*
D03*
X610779D02*
D03*
X613339D02*
D03*
Y753786D02*
D03*
X610779D02*
D03*
X608220D02*
D03*
X605661D02*
D03*
X619161Y731714D02*
D03*
X621721D02*
D03*
X624279D02*
D03*
X626839D02*
D03*
Y721286D02*
D03*
X624279D02*
D03*
X621721D02*
D03*
X619161D02*
D03*
X604161Y699214D02*
D03*
X606720D02*
D03*
X609279D02*
D03*
X611839D02*
D03*
Y688786D02*
D03*
X609279D02*
D03*
X606720D02*
D03*
X604161D02*
D03*
X592661Y666714D02*
D03*
X595221D02*
D03*
X597780D02*
D03*
X600339D02*
D03*
Y656286D02*
D03*
X597780D02*
D03*
X595221D02*
D03*
X592661D02*
D03*
X605161Y634214D02*
D03*
X607721D02*
D03*
X610280D02*
D03*
X612839D02*
D03*
Y623786D02*
D03*
X610280D02*
D03*
X607721D02*
D03*
X605161D02*
D03*
D71*
X416378Y9500D02*
D03*
X413622D02*
D03*
X403878D02*
D03*
X401122D02*
D03*
D74*
X793150Y368953D02*
D03*
Y366985D02*
D03*
Y365016D02*
D03*
Y363047D02*
D03*
X786850D02*
D03*
Y365016D02*
D03*
Y366985D02*
D03*
Y368953D02*
D03*
D94*
X832500Y151307D02*
D03*
Y139693D02*
D03*
X813500Y151307D02*
D03*
Y139693D02*
D03*
X795000Y151307D02*
D03*
Y139693D02*
D03*
X776000Y151307D02*
D03*
Y139693D02*
D03*
X757000Y151307D02*
D03*
Y139693D02*
D03*
X738000Y151307D02*
D03*
Y139693D02*
D03*
X653500Y151307D02*
D03*
Y139693D02*
D03*
D95*
X764000Y44024D02*
D03*
Y71976D02*
D03*
X614500Y34000D02*
D03*
Y61953D02*
D03*
D96*
X672350Y151000D02*
D03*
X678650D02*
D03*
X475850D02*
D03*
X482150D02*
D03*
X402850D02*
D03*
X409150D02*
D03*
X1071350Y602500D02*
D03*
X1077650D02*
D03*
X1052350D02*
D03*
X1058650D02*
D03*
X711850D02*
D03*
X718150D02*
D03*
X692850D02*
D03*
X699150D02*
D03*
X673850D02*
D03*
X680150D02*
D03*
X654850D02*
D03*
X661150D02*
D03*
X817850Y538000D02*
D03*
X824150D02*
D03*
X798850D02*
D03*
X805150D02*
D03*
X636350D02*
D03*
X642650D02*
D03*
X617350D02*
D03*
X623650D02*
D03*
X598350D02*
D03*
X604650D02*
D03*
X1145350Y286000D02*
D03*
X1151650D02*
D03*
D97*
X489000Y22374D02*
D03*
Y56626D02*
D03*
X550500Y23374D02*
D03*
Y57626D02*
D03*
D98*
X669000Y529886D02*
D03*
Y503114D02*
D03*
X744500Y594386D02*
D03*
Y567614D02*
D03*
D99*
X857500Y1253158D02*
D03*
Y1272843D02*
D03*
X889000Y1202658D02*
D03*
Y1222342D02*
D03*
X1222500Y1171842D02*
D03*
Y1152157D02*
D03*
X1212500Y1105842D02*
D03*
Y1086158D02*
D03*
X1205500Y1039843D02*
D03*
Y1020158D02*
D03*
X1097500Y973843D02*
D03*
Y954158D02*
D03*
X1057000Y924343D02*
D03*
Y904657D02*
D03*
X1101000Y874842D02*
D03*
Y855157D02*
D03*
D100*
X498000Y968449D02*
D03*
Y974551D02*
D03*
X492000Y918949D02*
D03*
Y925051D02*
D03*
X498500Y869449D02*
D03*
Y875551D02*
D03*
X403000Y1166449D02*
D03*
Y1172551D02*
D03*
Y1100449D02*
D03*
Y1106551D02*
D03*
Y1034449D02*
D03*
Y1040551D02*
D03*
X1198500Y1270949D02*
D03*
Y1277051D02*
D03*
X1025000Y1270949D02*
D03*
Y1277051D02*
D03*
X623500Y1270949D02*
D03*
Y1277051D02*
D03*
X490000Y1270949D02*
D03*
Y1277051D02*
D03*
X1251500Y1220449D02*
D03*
Y1226551D02*
D03*
X1069000Y1220449D02*
D03*
Y1226551D02*
D03*
X639000Y1220449D02*
D03*
Y1226551D02*
D03*
X496000Y1220449D02*
D03*
Y1226551D02*
D03*
X1054000Y1169949D02*
D03*
Y1176051D02*
D03*
X806500Y1169949D02*
D03*
Y1176051D02*
D03*
X754500Y1169949D02*
D03*
Y1176051D02*
D03*
X653000Y1169949D02*
D03*
Y1176051D02*
D03*
X1046000Y1103949D02*
D03*
Y1110051D02*
D03*
X801500Y1103949D02*
D03*
Y1110051D02*
D03*
X750000Y1103949D02*
D03*
Y1110051D02*
D03*
X650000Y1103949D02*
D03*
Y1110051D02*
D03*
X1040500Y1037949D02*
D03*
Y1044051D02*
D03*
X798000Y1037949D02*
D03*
Y1044051D02*
D03*
X747000Y1037949D02*
D03*
Y1044051D02*
D03*
X648000Y1037949D02*
D03*
Y1044051D02*
D03*
X985500Y971949D02*
D03*
Y978051D02*
D03*
X951000Y922449D02*
D03*
Y928551D02*
D03*
X988500Y872949D02*
D03*
Y879051D02*
D03*
X566500Y823449D02*
D03*
Y829551D02*
D03*
X457500Y823449D02*
D03*
Y829551D02*
D03*
X401500Y823449D02*
D03*
Y829551D02*
D03*
X564500Y790949D02*
D03*
Y797051D02*
D03*
X456500Y790949D02*
D03*
Y797051D02*
D03*
X401500Y790949D02*
D03*
Y797051D02*
D03*
X553500Y758449D02*
D03*
Y764551D02*
D03*
X453000Y758449D02*
D03*
Y764551D02*
D03*
X401500Y758449D02*
D03*
Y764551D02*
D03*
X563500Y725949D02*
D03*
Y732051D02*
D03*
X456500Y725949D02*
D03*
Y732051D02*
D03*
X401500Y725949D02*
D03*
Y732051D02*
D03*
X552000Y693449D02*
D03*
Y699551D02*
D03*
X452500Y693449D02*
D03*
Y699551D02*
D03*
X401500Y693449D02*
D03*
Y699551D02*
D03*
X543500Y660949D02*
D03*
Y667051D02*
D03*
X449500Y660949D02*
D03*
Y667051D02*
D03*
X401500Y660949D02*
D03*
Y667051D02*
D03*
X553000Y628449D02*
D03*
Y634551D02*
D03*
X453000Y628449D02*
D03*
Y634551D02*
D03*
X401500Y628449D02*
D03*
Y634551D02*
D03*
D101*
X445500Y281000D02*
D03*
Y285899D02*
D03*
X401000Y281000D02*
D03*
Y285899D02*
D03*
X449000Y255500D02*
D03*
Y260399D02*
D03*
X401000Y255500D02*
D03*
Y260399D02*
D03*
X449500Y230000D02*
D03*
Y234899D02*
D03*
X401000Y230000D02*
D03*
Y234899D02*
D03*
X544000Y175500D02*
D03*
Y180399D02*
D03*
X496500Y175500D02*
D03*
Y180399D02*
D03*
X449000Y175500D02*
D03*
Y180399D02*
D03*
X401000Y175500D02*
D03*
Y180399D02*
D03*
X535000Y134000D02*
D03*
Y138899D02*
D03*
X490500Y134000D02*
D03*
Y138899D02*
D03*
X446000Y134000D02*
D03*
Y138899D02*
D03*
X401000Y134000D02*
D03*
Y138899D02*
D03*
X446500Y92500D02*
D03*
Y97399D02*
D03*
X401000Y92500D02*
D03*
Y97399D02*
D03*
X534500Y1272500D02*
D03*
Y1277399D02*
D03*
X445000Y1272500D02*
D03*
Y1277399D02*
D03*
X401000Y1272500D02*
D03*
Y1277399D02*
D03*
X543500Y1222000D02*
D03*
Y1226899D02*
D03*
X448000Y1222000D02*
D03*
Y1226899D02*
D03*
X401000Y1222000D02*
D03*
Y1226899D02*
D03*
X907500Y1171500D02*
D03*
Y1176399D02*
D03*
X858500Y1171500D02*
D03*
Y1176399D02*
D03*
X705000Y1171500D02*
D03*
Y1176399D02*
D03*
X604500Y1171500D02*
D03*
Y1176399D02*
D03*
X453000Y1171500D02*
D03*
Y1176399D02*
D03*
X701500Y1105500D02*
D03*
Y1110399D02*
D03*
X602000Y1105500D02*
D03*
Y1110399D02*
D03*
X452500Y1105500D02*
D03*
Y1110399D02*
D03*
X897000Y1039500D02*
D03*
Y1044399D02*
D03*
X849000Y1039500D02*
D03*
Y1044399D02*
D03*
X698500Y1039500D02*
D03*
Y1044399D02*
D03*
X600500Y1039500D02*
D03*
Y1044399D02*
D03*
X452000Y1039500D02*
D03*
Y1044399D02*
D03*
X401000Y973500D02*
D03*
Y978399D02*
D03*
Y924000D02*
D03*
Y928899D02*
D03*
X793500Y874500D02*
D03*
Y879399D02*
D03*
X594500Y874500D02*
D03*
Y879399D02*
D03*
X547000Y874500D02*
D03*
Y879399D02*
D03*
X449000Y874500D02*
D03*
Y879399D02*
D03*
X401000Y874500D02*
D03*
Y879399D02*
D03*
X671000Y825000D02*
D03*
Y829899D02*
D03*
X513000Y825000D02*
D03*
Y829899D02*
D03*
X668000Y792500D02*
D03*
Y797399D02*
D03*
X512000Y792500D02*
D03*
Y797399D02*
D03*
X649500Y760000D02*
D03*
Y764899D02*
D03*
X504500Y760000D02*
D03*
Y764899D02*
D03*
X666000Y727500D02*
D03*
Y732399D02*
D03*
X511000Y727500D02*
D03*
Y732399D02*
D03*
X647500Y695000D02*
D03*
Y699899D02*
D03*
X503500Y695000D02*
D03*
Y699899D02*
D03*
X648500Y630000D02*
D03*
Y634899D02*
D03*
X504000Y630000D02*
D03*
Y634899D02*
D03*
D102*
X559705Y246000D02*
D03*
X535295D02*
D03*
D103*
X595000Y162126D02*
D03*
Y177874D02*
D03*
X895500Y861126D02*
D03*
Y876874D02*
D03*
D104*
X579874Y146000D02*
D03*
X564126D02*
D03*
D105*
X436000Y60988D02*
D03*
Y72012D02*
D03*
X515000Y454488D02*
D03*
Y465512D02*
D03*
X477500Y454488D02*
D03*
Y465512D02*
D03*
D106*
X417500Y73500D02*
D03*
X422399D02*
D03*
X401500D02*
D03*
X406399D02*
D03*
X444000Y41000D02*
D03*
X448899D02*
D03*
X415500D02*
D03*
X420399D02*
D03*
X442500Y10000D02*
D03*
X447399D02*
D03*
X426500D02*
D03*
X431399D02*
D03*
X962000Y604000D02*
D03*
X966899D02*
D03*
X947500D02*
D03*
X952399D02*
D03*
X801000D02*
D03*
X805899D02*
D03*
X786000D02*
D03*
X790899D02*
D03*
X605500D02*
D03*
X610399D02*
D03*
X590500D02*
D03*
X595399D02*
D03*
X575500D02*
D03*
X580399D02*
D03*
X511000D02*
D03*
X515899D02*
D03*
X496000D02*
D03*
X500899D02*
D03*
X401500D02*
D03*
X406399D02*
D03*
X742500Y539500D02*
D03*
X747399D02*
D03*
X694000D02*
D03*
X698899D02*
D03*
X498000D02*
D03*
X502899D02*
D03*
X482500D02*
D03*
X487399D02*
D03*
X401500D02*
D03*
X406399D02*
D03*
X509000Y423000D02*
D03*
X513899D02*
D03*
X870500Y369500D02*
D03*
X875399D02*
D03*
X770000D02*
D03*
X774899D02*
D03*
X631500D02*
D03*
X636399D02*
D03*
X615000D02*
D03*
X619899D02*
D03*
X583500D02*
D03*
X588399D02*
D03*
X567500D02*
D03*
X572399D02*
D03*
X473500D02*
D03*
X478399D02*
D03*
X457000D02*
D03*
X461899D02*
D03*
X896500Y287500D02*
D03*
X901399D02*
D03*
X880500D02*
D03*
X885399D02*
D03*
X833000D02*
D03*
X837899D02*
D03*
X817000D02*
D03*
X821899D02*
D03*
X605500Y220000D02*
D03*
X610399D02*
D03*
X589000D02*
D03*
X593899D02*
D03*
X572500D02*
D03*
X577399D02*
D03*
X556500D02*
D03*
X561399D02*
D03*
X493000D02*
D03*
X497899D02*
D03*
X477000D02*
D03*
X481899D02*
D03*
X427000D02*
D03*
X431899D02*
D03*
X907000Y125500D02*
D03*
X911899D02*
D03*
X702500D02*
D03*
X707399D02*
D03*
X565000D02*
D03*
X569899D02*
D03*
X549000D02*
D03*
X553899D02*
D03*
X466000D02*
D03*
X470899D02*
D03*
X450000D02*
D03*
X454899D02*
D03*
D107*
X432200Y40800D02*
D03*
Y28900D02*
D03*
X403200Y40800D02*
D03*
Y28900D02*
D03*
D108*
X406043Y219500D02*
D03*
X398957D02*
D03*
D109*
X1073311Y1262500D02*
D03*
X1099689D02*
D03*
X1120311Y1212000D02*
D03*
X1146689D02*
D03*
D110*
X981500Y1269850D02*
D03*
Y1276150D02*
D03*
X937000Y1269850D02*
D03*
Y1276150D02*
D03*
X892000Y1269850D02*
D03*
Y1276150D02*
D03*
X803000Y1269850D02*
D03*
Y1276150D02*
D03*
X758000Y1269850D02*
D03*
Y1276150D02*
D03*
X713000Y1269850D02*
D03*
Y1276150D02*
D03*
X1022500Y1219350D02*
D03*
Y1225650D02*
D03*
X974500Y1219350D02*
D03*
Y1225650D02*
D03*
X926500Y1219350D02*
D03*
Y1225650D02*
D03*
X831000Y1219350D02*
D03*
Y1225650D02*
D03*
X783000Y1219350D02*
D03*
Y1225650D02*
D03*
X735000Y1219350D02*
D03*
Y1225650D02*
D03*
D111*
X580000Y1275815D02*
D03*
Y1265185D02*
D03*
X592500Y1225315D02*
D03*
Y1214685D02*
D03*
X1160000Y1174815D02*
D03*
Y1164185D02*
D03*
X1107500Y1174815D02*
D03*
Y1164185D02*
D03*
X1003500Y1174815D02*
D03*
Y1164185D02*
D03*
X1150500Y1108815D02*
D03*
Y1098185D02*
D03*
X1099000Y1108815D02*
D03*
Y1098185D02*
D03*
X996000Y1108815D02*
D03*
Y1098185D02*
D03*
X1144000Y1042815D02*
D03*
Y1032185D02*
D03*
X1093000Y1042815D02*
D03*
Y1032185D02*
D03*
X991000Y1042815D02*
D03*
Y1032185D02*
D03*
X1037000Y976815D02*
D03*
Y966185D02*
D03*
X937500Y976815D02*
D03*
Y966185D02*
D03*
X840500Y976815D02*
D03*
Y966185D02*
D03*
X743000Y976815D02*
D03*
Y966185D02*
D03*
X999500Y927315D02*
D03*
Y916685D02*
D03*
X905500Y927315D02*
D03*
Y916685D02*
D03*
X814500Y927315D02*
D03*
Y916685D02*
D03*
X723000Y927315D02*
D03*
Y916685D02*
D03*
X1040500Y877815D02*
D03*
Y867185D02*
D03*
X940000Y877815D02*
D03*
Y867185D02*
D03*
X842500Y877815D02*
D03*
Y867185D02*
D03*
X745000Y877815D02*
D03*
Y867185D02*
D03*
X528000Y601815D02*
D03*
Y591185D02*
D03*
X515500Y537315D02*
D03*
Y526685D02*
D03*
X1045500Y274685D02*
D03*
Y285315D02*
D03*
X643500Y274685D02*
D03*
Y285315D02*
D03*
X521500Y274685D02*
D03*
Y285315D02*
D03*
X422500Y274685D02*
D03*
Y285315D02*
D03*
X753500Y123315D02*
D03*
Y112685D02*
D03*
X737500Y123315D02*
D03*
Y112685D02*
D03*
X671000Y123315D02*
D03*
Y112685D02*
D03*
X654500Y123315D02*
D03*
Y112685D02*
D03*
X582500Y123315D02*
D03*
Y112685D02*
D03*
X534000Y123315D02*
D03*
Y112685D02*
D03*
D112*
X1278000Y1138539D02*
D03*
Y1168461D02*
D03*
X1267500Y1072539D02*
D03*
Y1102461D02*
D03*
X1260000Y1006539D02*
D03*
Y1036461D02*
D03*
D113*
X967500Y1147295D02*
D03*
Y1171705D02*
D03*
X956000Y1015295D02*
D03*
Y1039705D02*
D03*
X466500Y393295D02*
D03*
Y417705D02*
D03*
X412500Y393295D02*
D03*
Y417705D02*
D03*
X724500Y68795D02*
D03*
Y93205D02*
D03*
D114*
X1189000Y578083D02*
D03*
X1184000D02*
D03*
X1179000D02*
D03*
X1174000D02*
D03*
X997000D02*
D03*
X992000D02*
D03*
X987000D02*
D03*
X982000D02*
D03*
X801500Y194083D02*
D03*
X796500D02*
D03*
X791500D02*
D03*
X786500D02*
D03*
X766500D02*
D03*
X761500D02*
D03*
X756500D02*
D03*
X751500D02*
D03*
D115*
X1136000Y605988D02*
D03*
Y567012D02*
D03*
D116*
X1089449Y603500D02*
D03*
X1095551D02*
D03*
X904449D02*
D03*
X910551D02*
D03*
X887949D02*
D03*
X894051D02*
D03*
X871449D02*
D03*
X877551D02*
D03*
X854449D02*
D03*
X860551D02*
D03*
X837949D02*
D03*
X844051D02*
D03*
X769449D02*
D03*
X775551D02*
D03*
X636949D02*
D03*
X643051D02*
D03*
X620449D02*
D03*
X626551D02*
D03*
X559449D02*
D03*
X565551D02*
D03*
X542449D02*
D03*
X548551D02*
D03*
X479449D02*
D03*
X485551D02*
D03*
X462949D02*
D03*
X469051D02*
D03*
X911949Y539000D02*
D03*
X918051D02*
D03*
X868949D02*
D03*
X875051D02*
D03*
X852449D02*
D03*
X858551D02*
D03*
X835949D02*
D03*
X842051D02*
D03*
X726449D02*
D03*
X732551D02*
D03*
X709949D02*
D03*
X716051D02*
D03*
X580449D02*
D03*
X586551D02*
D03*
X563949D02*
D03*
X570051D02*
D03*
X547449D02*
D03*
X553551D02*
D03*
X530449D02*
D03*
X536551D02*
D03*
X465949D02*
D03*
X472051D02*
D03*
X449449D02*
D03*
X455551D02*
D03*
X886949Y369000D02*
D03*
X893051D02*
D03*
X753449D02*
D03*
X759551D02*
D03*
X647949D02*
D03*
X654051D02*
D03*
X598449D02*
D03*
X604551D02*
D03*
X658449Y287000D02*
D03*
X664551D02*
D03*
X620449Y219500D02*
D03*
X626551D02*
D03*
X539949D02*
D03*
X546051D02*
D03*
X923449Y125000D02*
D03*
X929551D02*
D03*
X719449D02*
D03*
X725551D02*
D03*
X686449D02*
D03*
X692551D02*
D03*
X515949D02*
D03*
X522051D02*
D03*
X499449D02*
D03*
X505551D02*
D03*
X482949D02*
D03*
X489051D02*
D03*
X433449D02*
D03*
X439551D02*
D03*
D117*
X1036343Y592000D02*
D03*
X1016658D02*
D03*
X782842Y527500D02*
D03*
X763158D02*
D03*
X705342Y357500D02*
D03*
X685658D02*
D03*
X830342Y113500D02*
D03*
X810658D02*
D03*
X791342D02*
D03*
X771658D02*
D03*
D118*
X926539Y596000D02*
D03*
X929000D02*
D03*
X931461D02*
D03*
D119*
X921766Y594031D02*
D03*
Y596000D02*
D03*
Y597968D02*
D03*
X936234D02*
D03*
Y596000D02*
D03*
Y594031D02*
D03*
D120*
X921520Y599937D02*
D03*
Y592063D02*
D03*
X936480D02*
D03*
Y599937D02*
D03*
D121*
X928016Y602496D02*
D03*
X929984D02*
D03*
D122*
X924571Y589553D02*
D03*
X926539D02*
D03*
X928508D02*
D03*
X931461D02*
D03*
X933429D02*
D03*
D123*
X924866Y602348D02*
D03*
X933134D02*
D03*
D124*
X821500Y576500D02*
D03*
Y601500D02*
D03*
X493500Y395500D02*
D03*
Y420500D02*
D03*
X439500Y395500D02*
D03*
Y420500D02*
D03*
X946000Y98000D02*
D03*
Y123000D02*
D03*
D125*
X936118Y512500D02*
D03*
X975882D02*
D03*
D126*
X887004Y532020D02*
D03*
Y533988D02*
D03*
X899996Y532020D02*
D03*
Y533988D02*
D03*
D127*
X889563Y530445D02*
D03*
X897437D02*
D03*
D128*
Y536646D02*
D03*
X889563D02*
D03*
D129*
X891531Y533000D02*
D03*
X893500D02*
D03*
X895469D02*
D03*
D130*
X535000Y462465D02*
D03*
Y445535D02*
D03*
X497000Y462465D02*
D03*
Y445535D02*
D03*
D131*
X460000Y465543D02*
D03*
Y458457D02*
D03*
X447500Y465543D02*
D03*
Y458457D02*
D03*
X415500Y465543D02*
D03*
Y458457D02*
D03*
X402000Y465543D02*
D03*
Y458457D02*
D03*
D132*
X859000Y375791D02*
D03*
Y362209D02*
D03*
D133*
X806736Y354500D02*
D03*
X836264D02*
D03*
D134*
X738500Y367177D02*
D03*
Y351823D02*
D03*
X722000Y367177D02*
D03*
Y351823D02*
D03*
X666500Y367177D02*
D03*
Y351823D02*
D03*
D135*
X549469Y356030D02*
D03*
X545532D02*
D03*
X501968D02*
D03*
X498032D02*
D03*
X413469D02*
D03*
X409531D02*
D03*
X690937Y274029D02*
D03*
X683063D02*
D03*
X687000D02*
D03*
X501937D02*
D03*
X494063D02*
D03*
X498000D02*
D03*
X458937Y206529D02*
D03*
X451063D02*
D03*
X455000D02*
D03*
D136*
X540413Y365970D02*
D03*
X554587D02*
D03*
X492913D02*
D03*
X507087D02*
D03*
X404413D02*
D03*
X418587D02*
D03*
X696055Y283970D02*
D03*
X677945D02*
D03*
X507055D02*
D03*
X488945D02*
D03*
X464055Y216471D02*
D03*
X445945D02*
D03*
D137*
X520016Y367240D02*
D03*
Y359760D02*
D03*
X526984Y363500D02*
D03*
X510016Y217740D02*
D03*
Y210260D02*
D03*
X516984Y214000D02*
D03*
D138*
X434768Y348642D02*
D03*
Y366358D02*
D03*
X443232Y348642D02*
D03*
Y366358D02*
D03*
X728768Y266642D02*
D03*
Y284358D02*
D03*
X737232Y266642D02*
D03*
Y284358D02*
D03*
D139*
X1199000Y267500D02*
D03*
D140*
X1184039Y286988D02*
D03*
X1185614D02*
D03*
X1187189D02*
D03*
X1188764D02*
D03*
X1190339D02*
D03*
X1191913D02*
D03*
X1193488D02*
D03*
X1195063D02*
D03*
X1196638D02*
D03*
X1198213D02*
D03*
X1199787D02*
D03*
X1201362D02*
D03*
X1202937D02*
D03*
X1204512D02*
D03*
X1206087D02*
D03*
X1207661D02*
D03*
X1209236D02*
D03*
X1210811D02*
D03*
X1212386D02*
D03*
X1213961D02*
D03*
Y248012D02*
D03*
X1212386D02*
D03*
X1210811D02*
D03*
X1209236D02*
D03*
X1207661D02*
D03*
X1206087D02*
D03*
X1204512D02*
D03*
X1202937D02*
D03*
X1201362D02*
D03*
X1199787D02*
D03*
X1198213D02*
D03*
X1196638D02*
D03*
X1195063D02*
D03*
X1193488D02*
D03*
X1191913D02*
D03*
X1190339D02*
D03*
X1188764D02*
D03*
X1187189D02*
D03*
X1185614D02*
D03*
X1184039D02*
D03*
D141*
X1218488Y282461D02*
D03*
Y280886D02*
D03*
Y279311D02*
D03*
Y277736D02*
D03*
Y276161D02*
D03*
Y274587D02*
D03*
Y273012D02*
D03*
Y271437D02*
D03*
Y269862D02*
D03*
Y268287D02*
D03*
Y266713D02*
D03*
Y265138D02*
D03*
Y263563D02*
D03*
Y261988D02*
D03*
Y260413D02*
D03*
Y258839D02*
D03*
Y257264D02*
D03*
Y255689D02*
D03*
Y254114D02*
D03*
Y252539D02*
D03*
X1179512D02*
D03*
Y254114D02*
D03*
Y255689D02*
D03*
Y257264D02*
D03*
Y258839D02*
D03*
Y260413D02*
D03*
Y261988D02*
D03*
Y263563D02*
D03*
Y265138D02*
D03*
Y266713D02*
D03*
Y268287D02*
D03*
Y269862D02*
D03*
Y271437D02*
D03*
Y273012D02*
D03*
Y274587D02*
D03*
Y276161D02*
D03*
Y277736D02*
D03*
Y279311D02*
D03*
Y280886D02*
D03*
Y282461D02*
D03*
D142*
X1166232Y287500D02*
D03*
X1162768D02*
D03*
X1130732D02*
D03*
X1127268D02*
D03*
X1113732D02*
D03*
X1110268D02*
D03*
X1097232D02*
D03*
X1093768D02*
D03*
X1030732D02*
D03*
X1027268D02*
D03*
X1014232D02*
D03*
X1010768D02*
D03*
X997732D02*
D03*
X994268D02*
D03*
X981232D02*
D03*
X977768D02*
D03*
X964732D02*
D03*
X961268D02*
D03*
X948232D02*
D03*
X944768D02*
D03*
X933232D02*
D03*
X929768D02*
D03*
X916232D02*
D03*
X912768D02*
D03*
X867232D02*
D03*
X863768D02*
D03*
X803232D02*
D03*
X799768D02*
D03*
X712232D02*
D03*
X708768D02*
D03*
X539732D02*
D03*
X536268D02*
D03*
X473232D02*
D03*
X469768D02*
D03*
X440732D02*
D03*
X437268D02*
D03*
D143*
X1060779Y286000D02*
D03*
Y281000D02*
D03*
Y276000D02*
D03*
Y271000D02*
D03*
X1083220D02*
D03*
Y276000D02*
D03*
Y281000D02*
D03*
Y286000D02*
D03*
D144*
X1072000Y278500D02*
D03*
D145*
X852764Y287500D02*
D03*
X848236D02*
D03*
X788764D02*
D03*
X784236D02*
D03*
X557764D02*
D03*
X553236D02*
D03*
X458264D02*
D03*
X453736D02*
D03*
D146*
X618972Y276555D02*
D03*
X628028D02*
D03*
Y283445D02*
D03*
X618972D02*
D03*
D147*
X600937Y282500D02*
D03*
X593063D02*
D03*
D148*
X578634D02*
D03*
X570366Y278760D02*
D03*
Y286240D02*
D03*
D149*
X409500Y279465D02*
D03*
Y276000D02*
D03*
D150*
X1007461Y239213D02*
D03*
Y229370D02*
D03*
Y219528D02*
D03*
Y209685D02*
D03*
Y199843D02*
D03*
Y190000D02*
D03*
Y180157D02*
D03*
Y170315D02*
D03*
Y160472D02*
D03*
Y140787D02*
D03*
D151*
X861730Y121400D02*
D03*
X858167D02*
D03*
X854604D02*
D03*
X859959Y112600D02*
D03*
X856396D02*
D03*
X852833D02*
D03*
X851041Y121400D02*
D03*
X849270Y112600D02*
D03*
D152*
X864752Y121725D02*
D03*
Y120150D02*
D03*
Y118575D02*
D03*
Y117000D02*
D03*
Y115425D02*
D03*
Y113850D02*
D03*
Y112275D02*
D03*
X846248D02*
D03*
Y113850D02*
D03*
Y115425D02*
D03*
Y117000D02*
D03*
Y118575D02*
D03*
Y120150D02*
D03*
Y121725D02*
D03*
D153*
X606323Y97622D02*
D03*
Y90378D02*
D03*
D154*
X622000Y94000D02*
D03*
D155*
X543000Y323000D02*
D03*
X484000Y328000D02*
D03*
X446500Y321000D02*
D03*
X411000Y318500D02*
D03*
D156*
X943012Y235189D02*
D03*
D157*
Y223378D02*
D03*
Y211567D02*
D03*
Y199756D02*
D03*
X931201Y235189D02*
D03*
Y223378D02*
D03*
Y211567D02*
D03*
Y199756D02*
D03*
X870500Y66000D02*
D03*
X882311Y77811D02*
D03*
X870500D02*
D03*
X814189Y51689D02*
D03*
X826000Y63500D02*
D03*
X814189D02*
D03*
X625500Y180689D02*
D03*
X637311Y192500D02*
D03*
X625500D02*
D03*
X671000Y45000D02*
D03*
X682811Y56811D02*
D03*
X671000D02*
D03*
D158*
X927500Y247000D02*
D03*
Y187945D02*
D03*
X894122Y81512D02*
D03*
X858689D02*
D03*
X837811Y67201D02*
D03*
X802378D02*
D03*
X649122Y196201D02*
D03*
X613689D02*
D03*
X694622Y60512D02*
D03*
X659189D02*
D03*
D159*
X882311Y66000D02*
D03*
X826000Y51689D02*
D03*
X637311Y180689D02*
D03*
X682811Y45000D02*
D03*
D160*
X552000Y1177500D02*
D03*
D03*
X501000D02*
D03*
D03*
X550000Y1111500D02*
D03*
D03*
X499500D02*
D03*
D03*
X549000Y1045500D02*
D03*
D03*
X498500D02*
D03*
D03*
X690500Y979500D02*
D03*
D03*
X640000D02*
D03*
D03*
X673000Y930000D02*
D03*
D03*
X625500D02*
D03*
D03*
X691500Y880500D02*
D03*
D03*
X641500D02*
D03*
D03*
X447500Y605000D02*
D03*
D03*
X431000D02*
D03*
D03*
X415000D02*
D03*
D03*
X432000Y540500D02*
D03*
D03*
X416000D02*
D03*
D03*
Y126500D02*
D03*
D03*
X400500D02*
D03*
D03*
D161*
X760500Y267921D02*
D03*
Y248236D02*
D03*
Y258079D02*
D03*
Y277764D02*
D03*
D162*
X890000Y223000D02*
D03*
X836850D02*
D03*
D163*
X877598Y199378D02*
D03*
D164*
X849252D02*
D03*
D165*
X992500Y245709D02*
D03*
Y150630D02*
D03*
M02*
