G04*
G04 #@! TF.GenerationSoftware,Altium Limited,Altium Designer,25.5.2 (35)*
G04*
G04 Layer_Color=65535*
%FSLAX25Y25*%
%MOIN*%
G70*
G04*
G04 #@! TF.SameCoordinates,451A5486-46BA-4C40-879D-0E611A364EE7*
G04*
G04*
G04 #@! TF.FilePolarity,Positive*
G04*
G01*
G75*
%ADD10C,0.01000*%
%ADD11C,0.00787*%
%ADD12C,0.00591*%
%ADD13C,0.00276*%
D10*
X754087Y148000D02*
G03*
X754087Y148000I-7087J0D01*
G01*
X722087Y149000D02*
G03*
X722087Y149000I-7087J0D01*
G01*
D11*
X874553Y122618D02*
Y123012D01*
X888480D01*
Y122224D02*
Y123012D01*
X874540Y112046D02*
Y112439D01*
Y112046D02*
X888468D01*
Y112833D01*
X846598Y124000D02*
Y127000D01*
X839970D02*
X846598D01*
X832471Y116000D02*
Y122000D01*
X839970Y111000D02*
X846598D01*
Y114000D01*
X801553Y122618D02*
Y123012D01*
X815480D01*
Y122224D02*
Y123012D01*
X801540Y112046D02*
Y112439D01*
Y112046D02*
X815467D01*
Y112833D01*
X762553Y122618D02*
Y123012D01*
X776480D01*
Y122224D02*
Y123012D01*
X762540Y112046D02*
Y112439D01*
Y112046D02*
X776468D01*
Y112833D01*
X708200Y163336D02*
Y159400D01*
X710824Y163336D02*
Y159400D01*
X708200Y161462D02*
X710824D01*
X712848Y162024D02*
X712473Y161837D01*
X712099Y161462D01*
X711911Y160899D01*
Y160525D01*
X712099Y159962D01*
X712473Y159587D01*
X712848Y159400D01*
X713411D01*
X713786Y159587D01*
X714160Y159962D01*
X714348Y160525D01*
Y160899D01*
X714160Y161462D01*
X713786Y161837D01*
X713411Y162024D01*
X712848D01*
X715210Y163336D02*
Y159400D01*
X716035Y160899D02*
X718284D01*
Y161274D01*
X718097Y161649D01*
X717909Y161837D01*
X717534Y162024D01*
X716972D01*
X716597Y161837D01*
X716222Y161462D01*
X716035Y160899D01*
Y160525D01*
X716222Y159962D01*
X716597Y159587D01*
X716972Y159400D01*
X717534D01*
X717909Y159587D01*
X718284Y159962D01*
X719128Y162586D02*
X719502Y162774D01*
X720065Y163336D01*
Y159400D01*
X740200Y162336D02*
Y158400D01*
X742824Y162336D02*
Y158400D01*
X740200Y160462D02*
X742824D01*
X744848Y161024D02*
X744474Y160837D01*
X744099Y160462D01*
X743911Y159899D01*
Y159525D01*
X744099Y158962D01*
X744474Y158587D01*
X744848Y158400D01*
X745411D01*
X745786Y158587D01*
X746161Y158962D01*
X746348Y159525D01*
Y159899D01*
X746161Y160462D01*
X745786Y160837D01*
X745411Y161024D01*
X744848D01*
X747210Y162336D02*
Y158400D01*
X748035Y159899D02*
X750284D01*
Y160274D01*
X750097Y160649D01*
X749909Y160837D01*
X749534Y161024D01*
X748972D01*
X748597Y160837D01*
X748222Y160462D01*
X748035Y159899D01*
Y159525D01*
X748222Y158962D01*
X748597Y158587D01*
X748972Y158400D01*
X749534D01*
X749909Y158587D01*
X750284Y158962D01*
X751315Y161399D02*
Y161586D01*
X751502Y161961D01*
X751690Y162149D01*
X752065Y162336D01*
X752814D01*
X753189Y162149D01*
X753377Y161961D01*
X753564Y161586D01*
Y161212D01*
X753377Y160837D01*
X753002Y160274D01*
X751127Y158400D01*
X753752D01*
X824324Y130586D02*
Y127587D01*
X824137Y127025D01*
X823950Y126837D01*
X823575Y126650D01*
X823200D01*
X822825Y126837D01*
X822637Y127025D01*
X822450Y127587D01*
Y127962D01*
X825336Y129836D02*
X825711Y130024D01*
X826274Y130586D01*
Y126650D01*
X761650Y130586D02*
Y126650D01*
Y130586D02*
X762962D01*
X763524Y130399D01*
X763899Y130024D01*
X764087Y129649D01*
X764274Y129087D01*
Y128149D01*
X764087Y127587D01*
X763899Y127212D01*
X763524Y126837D01*
X762962Y126650D01*
X761650D01*
X765530Y130586D02*
X767592D01*
X766467Y129087D01*
X767029D01*
X767404Y128899D01*
X767592Y128712D01*
X767779Y128149D01*
Y127775D01*
X767592Y127212D01*
X767217Y126837D01*
X766655Y126650D01*
X766092D01*
X765530Y126837D01*
X765343Y127025D01*
X765155Y127400D01*
X800650Y130586D02*
Y126650D01*
Y130586D02*
X801962D01*
X802524Y130399D01*
X802899Y130024D01*
X803087Y129649D01*
X803274Y129087D01*
Y128149D01*
X803087Y127587D01*
X802899Y127212D01*
X802524Y126837D01*
X801962Y126650D01*
X800650D01*
X804342Y129649D02*
Y129836D01*
X804530Y130211D01*
X804717Y130399D01*
X805092Y130586D01*
X805842D01*
X806217Y130399D01*
X806404Y130211D01*
X806592Y129836D01*
Y129462D01*
X806404Y129087D01*
X806029Y128524D01*
X804155Y126650D01*
X806779D01*
X873650Y130586D02*
Y126650D01*
Y130586D02*
X874962D01*
X875524Y130399D01*
X875899Y130024D01*
X876087Y129649D01*
X876274Y129087D01*
Y128149D01*
X876087Y127587D01*
X875899Y127212D01*
X875524Y126837D01*
X874962Y126650D01*
X873650D01*
X877155Y129836D02*
X877530Y130024D01*
X878092Y130586D01*
Y126650D01*
X747761Y129549D02*
X747574Y129924D01*
X747199Y130299D01*
X746824Y130486D01*
X746075D01*
X745700Y130299D01*
X745325Y129924D01*
X745137Y129549D01*
X744950Y128987D01*
Y128050D01*
X745137Y127487D01*
X745325Y127112D01*
X745700Y126737D01*
X746075Y126550D01*
X746824D01*
X747199Y126737D01*
X747574Y127112D01*
X747761Y127487D01*
X749242Y130486D02*
X751304D01*
X750179Y128987D01*
X750742D01*
X751117Y128799D01*
X751304Y128612D01*
X751491Y128050D01*
Y127675D01*
X751304Y127112D01*
X750929Y126737D01*
X750367Y126550D01*
X749805D01*
X749242Y126737D01*
X749055Y126925D01*
X748867Y127300D01*
X786762Y129549D02*
X786574Y129924D01*
X786199Y130299D01*
X785824Y130486D01*
X785075D01*
X784700Y130299D01*
X784325Y129924D01*
X784137Y129549D01*
X783950Y128987D01*
Y128050D01*
X784137Y127487D01*
X784325Y127112D01*
X784700Y126737D01*
X785075Y126550D01*
X785824D01*
X786199Y126737D01*
X786574Y127112D01*
X786762Y127487D01*
X788055Y129549D02*
Y129736D01*
X788242Y130111D01*
X788430Y130299D01*
X788805Y130486D01*
X789554D01*
X789929Y130299D01*
X790117Y130111D01*
X790304Y129736D01*
Y129362D01*
X790117Y128987D01*
X789742Y128424D01*
X787867Y126550D01*
X790491D01*
X859762Y129549D02*
X859574Y129924D01*
X859199Y130299D01*
X858824Y130486D01*
X858075D01*
X857700Y130299D01*
X857325Y129924D01*
X857137Y129549D01*
X856950Y128987D01*
Y128050D01*
X857137Y127487D01*
X857325Y127112D01*
X857700Y126737D01*
X858075Y126550D01*
X858824D01*
X859199Y126737D01*
X859574Y127112D01*
X859762Y127487D01*
X860867Y129736D02*
X861242Y129924D01*
X861805Y130486D01*
Y126550D01*
D12*
X862000Y119425D02*
Y122575D01*
X789000Y119425D02*
Y122575D01*
X750000Y119425D02*
Y122575D01*
D13*
X867386Y118681D02*
Y123319D01*
X865024D02*
X867386D01*
X865024Y118681D02*
X867386D01*
X856614Y123319D02*
X858976D01*
X856614Y118681D02*
X858976D01*
X856614D02*
Y123319D01*
X794386Y118681D02*
Y123319D01*
X792024D02*
X794386D01*
X792024Y118681D02*
X794386D01*
X783614Y123319D02*
X785976D01*
X783614Y118681D02*
X785976D01*
X783614D02*
Y123319D01*
X755386Y118681D02*
Y123319D01*
X753024D02*
X755386D01*
X753023Y118681D02*
X755386D01*
X744614Y123319D02*
X746976D01*
X744614Y118681D02*
X746976D01*
X744614D02*
Y123319D01*
M02*
