G04*
G04 #@! TF.GenerationSoftware,Altium Limited,Altium Designer,25.5.2 (35)*
G04*
G04 Layer_Color=16711935*
%FSLAX25Y25*%
%MOIN*%
G70*
G04*
G04 #@! TF.SameCoordinates,499291C8-297C-4914-A442-172DFADCE089*
G04*
G04*
G04 #@! TF.FilePolarity,Negative*
G04*
G01*
G75*
%ADD108O,0.07205X0.10158*%
%ADD109O,0.10158X0.07205*%
%ADD110C,0.02776*%
%ADD111C,0.06339*%
%ADD112C,0.03858*%
%ADD113C,0.16063*%
%ADD114R,0.06299X0.06299*%
%ADD115C,0.06299*%
%ADD116C,0.04331*%
D108*
X461158Y181000D02*
D03*
X471000D02*
D03*
X451315D02*
D03*
X674500Y86500D02*
D03*
X664657D02*
D03*
X230421Y554000D02*
D03*
X220579D02*
D03*
X229921Y511000D02*
D03*
X220079D02*
D03*
X229921Y468000D02*
D03*
X220079D02*
D03*
X224921Y425000D02*
D03*
X215079D02*
D03*
X746921Y615500D02*
D03*
X737079D02*
D03*
X746421Y572500D02*
D03*
X736579D02*
D03*
X746421Y529500D02*
D03*
X736579D02*
D03*
X145421Y208500D02*
D03*
X135579D02*
D03*
X666421Y199000D02*
D03*
X656579D02*
D03*
D109*
X653500Y255842D02*
D03*
Y246000D02*
D03*
Y265685D02*
D03*
X781500Y252842D02*
D03*
Y243000D02*
D03*
Y262685D02*
D03*
X616000Y94342D02*
D03*
Y84500D02*
D03*
X359000Y656421D02*
D03*
Y636736D02*
D03*
Y646579D02*
D03*
Y666264D02*
D03*
X358500Y587421D02*
D03*
Y567736D02*
D03*
Y577579D02*
D03*
Y597264D02*
D03*
Y518421D02*
D03*
Y498736D02*
D03*
Y508579D02*
D03*
Y528264D02*
D03*
X353500Y449421D02*
D03*
Y429736D02*
D03*
Y439579D02*
D03*
Y459264D02*
D03*
X551000Y256579D02*
D03*
Y236894D02*
D03*
Y246736D02*
D03*
Y266421D02*
D03*
Y276264D02*
D03*
Y286106D02*
D03*
X518500Y256579D02*
D03*
Y236894D02*
D03*
Y246736D02*
D03*
Y266421D02*
D03*
Y276264D02*
D03*
Y286106D02*
D03*
X706500Y137421D02*
D03*
Y117736D02*
D03*
Y127579D02*
D03*
Y147264D02*
D03*
D110*
X314004Y148000D02*
D03*
X309004Y73000D02*
D03*
X307504Y20000D02*
D03*
D111*
X305500Y168000D02*
D03*
Y158000D02*
D03*
Y148000D02*
D03*
Y138000D02*
D03*
X300500Y93000D02*
D03*
Y83000D02*
D03*
Y73000D02*
D03*
Y63000D02*
D03*
X299000Y40000D02*
D03*
Y30000D02*
D03*
Y20000D02*
D03*
Y10000D02*
D03*
D112*
X241000Y165905D02*
D03*
Y154095D02*
D03*
Y101906D02*
D03*
Y90095D02*
D03*
X187000Y33000D02*
D03*
Y21189D02*
D03*
D113*
X538000Y322000D02*
D03*
X514000D02*
D03*
X490000D02*
D03*
X466000D02*
D03*
D114*
X802000Y183500D02*
D03*
D115*
X790189D02*
D03*
X802000Y195311D02*
D03*
X790189D02*
D03*
D116*
X813811Y199012D02*
D03*
X778378D02*
D03*
M02*
