G04*
G04 #@! TF.GenerationSoftware,Altium Limited,Altium Designer,25.5.2 (35)*
G04*
G04 Layer_Color=8388736*
%FSLAX25Y25*%
%MOIN*%
G70*
G04*
G04 #@! TF.SameCoordinates,499291C8-297C-4914-A442-172DFADCE089*
G04*
G04*
G04 #@! TF.FilePolarity,Negative*
G04*
G01*
G75*
%ADD61R,0.03928X0.01697*%
%ADD64R,0.06811X0.05039*%
%ADD65R,0.05433X0.05827*%
%ADD66R,0.06024X0.06417*%
%ADD67R,0.03661X0.03661*%
%ADD68R,0.02677X0.05039*%
%ADD69R,0.06614X0.12913*%
%ADD70R,0.03661X0.02677*%
%ADD71R,0.06417X0.02677*%
%ADD72R,0.07402X0.05039*%
%ADD73R,0.03661X0.03661*%
%ADD74R,0.05827X0.05433*%
%ADD75R,0.02677X0.03661*%
%ADD76R,0.04646X0.02677*%
%ADD77R,0.20394X0.07402*%
%ADD78R,0.03465X0.04252*%
%ADD79R,0.04646X0.03071*%
%ADD80R,0.12913X0.06614*%
%ADD81R,0.03465X0.03858*%
%ADD82R,0.05039X0.05039*%
%ADD83R,0.05039X0.05039*%
%ADD84R,0.02677X0.04646*%
%ADD85R,0.07402X0.20394*%
%ADD86R,0.03858X0.03465*%
%ADD87R,0.01496X0.05827*%
%ADD88R,0.08976X0.08976*%
%ADD89R,0.01693X0.04055*%
%ADD90R,0.04055X0.01693*%
%ADD91R,0.06811X0.05236*%
%ADD92R,0.03071X0.04252*%
%ADD93R,0.02776X0.03583*%
%ADD94R,0.11339X0.06614*%
%ADD95R,0.13898X0.13898*%
%ADD96R,0.01102X0.03661*%
%ADD97R,0.03661X0.01102*%
%ADD98R,0.02677X0.02835*%
%ADD99R,0.04449X0.02087*%
%ADD100R,0.13898X0.17441*%
%ADD101R,0.02677X0.06417*%
%ADD102R,0.05039X0.07402*%
%ADD103R,0.05433X0.04449*%
%ADD104R,0.06614X0.04252*%
%ADD105R,0.03268X0.02677*%
%ADD106R,0.02677X0.01693*%
%ADD107R,0.04646X0.07008*%
%ADD108O,0.07205X0.10158*%
%ADD109O,0.10158X0.07205*%
%ADD110C,0.02776*%
%ADD111C,0.06339*%
%ADD112C,0.03858*%
%ADD113C,0.16063*%
%ADD114R,0.06299X0.06299*%
%ADD115C,0.06299*%
%ADD116C,0.04331*%
D61*
X814214Y64839D02*
D03*
Y62279D02*
D03*
Y59720D02*
D03*
Y57161D02*
D03*
X803786D02*
D03*
Y59720D02*
D03*
Y62279D02*
D03*
Y64839D02*
D03*
X791714D02*
D03*
Y62279D02*
D03*
Y59720D02*
D03*
Y57161D02*
D03*
X781286D02*
D03*
Y59720D02*
D03*
Y62279D02*
D03*
Y64839D02*
D03*
D64*
X765000Y45988D02*
D03*
Y57012D02*
D03*
X722000Y18488D02*
D03*
Y29512D02*
D03*
D65*
X513850Y199000D02*
D03*
X520150D02*
D03*
X211650Y18500D02*
D03*
X205350D02*
D03*
X873850Y110500D02*
D03*
X880150D02*
D03*
D66*
X491000Y206315D02*
D03*
Y195685D02*
D03*
D67*
X572500Y76449D02*
D03*
Y82551D02*
D03*
X496000Y72500D02*
D03*
Y78602D02*
D03*
X590000Y89449D02*
D03*
Y95551D02*
D03*
X495500Y89449D02*
D03*
Y95551D02*
D03*
X401500Y154449D02*
D03*
Y160551D02*
D03*
Y127449D02*
D03*
Y133551D02*
D03*
Y100449D02*
D03*
Y106551D02*
D03*
Y73449D02*
D03*
Y79551D02*
D03*
X449000Y46449D02*
D03*
Y52551D02*
D03*
X622000Y257000D02*
D03*
Y263102D02*
D03*
X129000Y556949D02*
D03*
Y563051D02*
D03*
Y513949D02*
D03*
Y520051D02*
D03*
Y470949D02*
D03*
Y477051D02*
D03*
X127500Y427949D02*
D03*
Y434051D02*
D03*
X483000Y622949D02*
D03*
Y629051D02*
D03*
X481000Y563949D02*
D03*
Y570051D02*
D03*
X696000Y618449D02*
D03*
Y624551D02*
D03*
Y575449D02*
D03*
Y581551D02*
D03*
Y532449D02*
D03*
Y538551D02*
D03*
Y489449D02*
D03*
Y495551D02*
D03*
X42000Y545449D02*
D03*
Y551551D02*
D03*
Y481449D02*
D03*
Y487551D02*
D03*
X881000Y8709D02*
D03*
Y14811D02*
D03*
X534500Y488449D02*
D03*
Y494551D02*
D03*
X490000Y488449D02*
D03*
Y494551D02*
D03*
X401500Y488449D02*
D03*
Y494551D02*
D03*
X534000Y456449D02*
D03*
Y462551D02*
D03*
X490000Y456449D02*
D03*
Y462551D02*
D03*
X401500Y456449D02*
D03*
Y462551D02*
D03*
X534000Y424449D02*
D03*
Y430551D02*
D03*
X490000Y424449D02*
D03*
Y430551D02*
D03*
X401500Y424449D02*
D03*
Y430551D02*
D03*
X529000Y392449D02*
D03*
Y398551D02*
D03*
X486500Y392449D02*
D03*
Y398551D02*
D03*
X401500Y392449D02*
D03*
Y398551D02*
D03*
D68*
X523760Y70579D02*
D03*
X527500D02*
D03*
X531240D02*
D03*
Y80421D02*
D03*
X523760D02*
D03*
X543260Y85079D02*
D03*
X547000D02*
D03*
X550740D02*
D03*
Y94921D02*
D03*
X543260D02*
D03*
X418000Y54500D02*
D03*
X421740D02*
D03*
X425480D02*
D03*
Y64342D02*
D03*
X418000D02*
D03*
X715020Y249158D02*
D03*
X718760D02*
D03*
X722500D02*
D03*
Y259000D02*
D03*
X715020D02*
D03*
X271760Y666579D02*
D03*
X275500D02*
D03*
X279240D02*
D03*
Y676421D02*
D03*
X271760D02*
D03*
Y597579D02*
D03*
X275500D02*
D03*
X279240D02*
D03*
Y607421D02*
D03*
X271760D02*
D03*
Y528579D02*
D03*
X275500D02*
D03*
X279240D02*
D03*
Y538421D02*
D03*
X271760D02*
D03*
X270260Y459579D02*
D03*
X274000D02*
D03*
X277740D02*
D03*
Y469421D02*
D03*
X270260D02*
D03*
X579260Y493921D02*
D03*
X586740D02*
D03*
Y484079D02*
D03*
X583000D02*
D03*
X579260D02*
D03*
X578760Y461921D02*
D03*
X586240D02*
D03*
Y452079D02*
D03*
X582500D02*
D03*
X578760D02*
D03*
Y429921D02*
D03*
X586240D02*
D03*
Y420079D02*
D03*
X582500D02*
D03*
X578760D02*
D03*
X572260Y397921D02*
D03*
X579740D02*
D03*
Y388079D02*
D03*
X576000D02*
D03*
X572260D02*
D03*
D69*
X482000Y243342D02*
D03*
Y223657D02*
D03*
X460000Y91343D02*
D03*
Y71658D02*
D03*
X447000Y624843D02*
D03*
Y605158D02*
D03*
Y565842D02*
D03*
Y546158D02*
D03*
X267000Y36843D02*
D03*
Y17157D02*
D03*
D70*
X423000Y94500D02*
D03*
Y99399D02*
D03*
X401000Y91000D02*
D03*
Y95899D02*
D03*
X419500Y142000D02*
D03*
Y146899D02*
D03*
X516500Y142000D02*
D03*
Y146899D02*
D03*
X787000Y104500D02*
D03*
Y109399D02*
D03*
X388500Y671000D02*
D03*
Y675899D02*
D03*
X309000Y671000D02*
D03*
Y675899D02*
D03*
X388000Y602000D02*
D03*
Y606899D02*
D03*
X308500Y602000D02*
D03*
Y606899D02*
D03*
X388000Y533000D02*
D03*
Y537899D02*
D03*
X308500Y533000D02*
D03*
Y537899D02*
D03*
X381000Y464000D02*
D03*
Y468899D02*
D03*
X305500Y464000D02*
D03*
Y468899D02*
D03*
X170000Y558500D02*
D03*
Y563399D02*
D03*
X87500Y558500D02*
D03*
Y563399D02*
D03*
X169500Y515500D02*
D03*
Y520399D02*
D03*
X87500Y515500D02*
D03*
Y520399D02*
D03*
X169500Y472500D02*
D03*
Y477399D02*
D03*
X87500Y472500D02*
D03*
Y477399D02*
D03*
X166500Y429500D02*
D03*
Y434399D02*
D03*
X87500Y429500D02*
D03*
Y434399D02*
D03*
X529500Y624500D02*
D03*
Y629399D02*
D03*
X526000Y565500D02*
D03*
Y570399D02*
D03*
X797000Y620000D02*
D03*
Y624899D02*
D03*
X766000Y620000D02*
D03*
Y624899D02*
D03*
X796500Y577000D02*
D03*
Y581899D02*
D03*
X766000Y577000D02*
D03*
Y581899D02*
D03*
X796500Y534000D02*
D03*
Y538899D02*
D03*
X766000Y534000D02*
D03*
Y538899D02*
D03*
X793500Y491000D02*
D03*
Y495899D02*
D03*
X764000Y491000D02*
D03*
Y495899D02*
D03*
X962500Y448000D02*
D03*
Y452899D02*
D03*
X329500Y170000D02*
D03*
Y174899D02*
D03*
X962500Y384000D02*
D03*
Y388899D02*
D03*
X329500Y106000D02*
D03*
Y110899D02*
D03*
X819000Y10260D02*
D03*
Y15159D02*
D03*
X787000Y10260D02*
D03*
Y15159D02*
D03*
X954000Y320000D02*
D03*
Y324899D02*
D03*
X322500Y42000D02*
D03*
Y46899D02*
D03*
X623000Y490000D02*
D03*
Y494899D02*
D03*
X445500Y490000D02*
D03*
Y494899D02*
D03*
X622000Y458000D02*
D03*
Y462899D02*
D03*
X445500Y458000D02*
D03*
Y462899D02*
D03*
X622000Y426000D02*
D03*
Y430899D02*
D03*
X445500Y426000D02*
D03*
Y430899D02*
D03*
X613500Y394000D02*
D03*
Y398899D02*
D03*
X444000Y394000D02*
D03*
Y398899D02*
D03*
D71*
X719971Y85874D02*
D03*
Y78000D02*
D03*
Y70126D02*
D03*
Y74063D02*
D03*
Y81937D02*
D03*
X495471Y287842D02*
D03*
Y279969D02*
D03*
Y272094D02*
D03*
Y268158D02*
D03*
Y276031D02*
D03*
Y283906D02*
D03*
X468470Y287811D02*
D03*
Y283874D02*
D03*
Y276000D02*
D03*
Y268126D02*
D03*
Y264189D02*
D03*
Y272063D02*
D03*
Y279937D02*
D03*
X441970Y287811D02*
D03*
Y283874D02*
D03*
Y276000D02*
D03*
Y268126D02*
D03*
Y264189D02*
D03*
Y272063D02*
D03*
Y279937D02*
D03*
X414970Y287874D02*
D03*
Y280000D02*
D03*
Y272126D02*
D03*
Y276063D02*
D03*
Y283937D02*
D03*
D72*
X710030Y90992D02*
D03*
Y65008D02*
D03*
X432200Y329300D02*
D03*
Y317400D02*
D03*
X403200Y329300D02*
D03*
Y317400D02*
D03*
X485530Y263039D02*
D03*
Y292961D02*
D03*
X458530Y259071D02*
D03*
Y292929D02*
D03*
X432029Y259071D02*
D03*
Y292929D02*
D03*
X405029Y292992D02*
D03*
Y267008D02*
D03*
X431200Y208300D02*
D03*
Y196400D02*
D03*
X417200Y208300D02*
D03*
Y196400D02*
D03*
X403200Y208300D02*
D03*
Y196400D02*
D03*
D73*
X857449Y112000D02*
D03*
X863551D02*
D03*
X511449Y368000D02*
D03*
X517551D02*
D03*
X433449D02*
D03*
X439551D02*
D03*
X699449Y38500D02*
D03*
X705551D02*
D03*
X682949D02*
D03*
X689051D02*
D03*
X666449D02*
D03*
X672551D02*
D03*
X649949D02*
D03*
X656051D02*
D03*
X566449D02*
D03*
X572551D02*
D03*
X549449D02*
D03*
X555551D02*
D03*
X532949D02*
D03*
X539051D02*
D03*
X516449D02*
D03*
X522551D02*
D03*
X434449D02*
D03*
X440551D02*
D03*
X417949D02*
D03*
X424051D02*
D03*
D74*
X593000Y197850D02*
D03*
Y204150D02*
D03*
X541000Y197850D02*
D03*
Y204150D02*
D03*
X128000Y167350D02*
D03*
Y173650D02*
D03*
Y103350D02*
D03*
Y109650D02*
D03*
D75*
X732500Y149500D02*
D03*
X737399D02*
D03*
X793000D02*
D03*
X797899D02*
D03*
X866500Y210500D02*
D03*
X861601D02*
D03*
X866500Y177000D02*
D03*
X861601D02*
D03*
X930500Y210500D02*
D03*
X925601D02*
D03*
X930500Y177000D02*
D03*
X925601D02*
D03*
X449500Y368500D02*
D03*
X454399D02*
D03*
X417500D02*
D03*
X422399D02*
D03*
X401500D02*
D03*
X406399D02*
D03*
X444000Y329500D02*
D03*
X448899D02*
D03*
X415500D02*
D03*
X420399D02*
D03*
X744500Y208500D02*
D03*
X749399D02*
D03*
X474000D02*
D03*
X478899D02*
D03*
X458500D02*
D03*
X463399D02*
D03*
X443000D02*
D03*
X447899D02*
D03*
X836500Y149500D02*
D03*
X841399D02*
D03*
X822000D02*
D03*
X826899D02*
D03*
X775500D02*
D03*
X780399D02*
D03*
X761000D02*
D03*
X765899D02*
D03*
X841000Y66500D02*
D03*
X845899D02*
D03*
X825000D02*
D03*
X829899D02*
D03*
X634500Y39000D02*
D03*
X639399D02*
D03*
X618500D02*
D03*
X623399D02*
D03*
X499500D02*
D03*
X504399D02*
D03*
X468601Y25500D02*
D03*
X473500D02*
D03*
X467000Y39000D02*
D03*
X471899D02*
D03*
X451000D02*
D03*
X455899D02*
D03*
X401500D02*
D03*
X406399D02*
D03*
D76*
X270488Y215760D02*
D03*
Y223240D02*
D03*
X281512D02*
D03*
Y219500D02*
D03*
Y215760D02*
D03*
X334488D02*
D03*
Y223240D02*
D03*
X345512D02*
D03*
Y219500D02*
D03*
Y215760D02*
D03*
D77*
X271500Y172252D02*
D03*
Y153748D02*
D03*
Y108252D02*
D03*
Y89748D02*
D03*
D78*
X245528Y145236D02*
D03*
Y174764D02*
D03*
X236472D02*
D03*
Y145236D02*
D03*
X245528Y81236D02*
D03*
Y110764D02*
D03*
X236472D02*
D03*
Y81236D02*
D03*
X191528Y12331D02*
D03*
Y41858D02*
D03*
X182472D02*
D03*
Y12331D02*
D03*
D79*
X249071Y168858D02*
D03*
Y151142D02*
D03*
Y157047D02*
D03*
Y104858D02*
D03*
Y87142D02*
D03*
Y93047D02*
D03*
X195071Y35953D02*
D03*
Y18236D02*
D03*
Y24142D02*
D03*
D80*
X216843Y163000D02*
D03*
X197158D02*
D03*
X216843Y99000D02*
D03*
X197158D02*
D03*
X632342Y196500D02*
D03*
X612657D02*
D03*
D81*
X165000Y174437D02*
D03*
X168740Y166563D02*
D03*
X161260D02*
D03*
X165000Y110437D02*
D03*
X168740Y102563D02*
D03*
X161260D02*
D03*
D82*
X98500Y173130D02*
D03*
Y109130D02*
D03*
X220500Y22870D02*
D03*
D83*
X98500Y161870D02*
D03*
Y97870D02*
D03*
X220500Y34130D02*
D03*
D84*
X852260Y14272D02*
D03*
X859740D02*
D03*
Y3248D02*
D03*
X856000D02*
D03*
X852260D02*
D03*
D85*
X229748Y27500D02*
D03*
X248252D02*
D03*
D86*
X212437Y30000D02*
D03*
X204563Y26260D02*
D03*
Y33740D02*
D03*
D87*
X492563Y349839D02*
D03*
X494531D02*
D03*
X496500D02*
D03*
X498468D02*
D03*
X500437D02*
D03*
Y367161D02*
D03*
X498468D02*
D03*
X496500D02*
D03*
X494531D02*
D03*
X492563D02*
D03*
D88*
X474000Y360500D02*
D03*
D89*
X470850Y367980D02*
D03*
X474000D02*
D03*
X477150D02*
D03*
Y353020D02*
D03*
X474000D02*
D03*
X470850D02*
D03*
D90*
X481480Y363650D02*
D03*
Y360500D02*
D03*
Y357350D02*
D03*
X466520D02*
D03*
Y360500D02*
D03*
Y363650D02*
D03*
D91*
X838500Y214791D02*
D03*
Y201209D02*
D03*
X762000Y207291D02*
D03*
Y193709D02*
D03*
X732500Y207291D02*
D03*
Y193709D02*
D03*
D92*
X708768Y187642D02*
D03*
Y205358D02*
D03*
X717232Y187642D02*
D03*
Y205358D02*
D03*
X667768Y128642D02*
D03*
Y146358D02*
D03*
X676232Y128642D02*
D03*
Y146358D02*
D03*
D93*
X686620Y207500D02*
D03*
X695380D02*
D03*
D94*
X577465Y199000D02*
D03*
X560535D02*
D03*
D95*
X198850Y272350D02*
D03*
D96*
X183890Y291839D02*
D03*
X185465D02*
D03*
X187039D02*
D03*
X188614D02*
D03*
X190189D02*
D03*
X191764D02*
D03*
X193339D02*
D03*
X194913D02*
D03*
X196488D02*
D03*
X198063D02*
D03*
X199638D02*
D03*
X201213D02*
D03*
X202787D02*
D03*
X204362D02*
D03*
X205937D02*
D03*
X207512D02*
D03*
X209087D02*
D03*
X210661D02*
D03*
X212236D02*
D03*
X213811D02*
D03*
Y252862D02*
D03*
X212236D02*
D03*
X210661D02*
D03*
X209087D02*
D03*
X207512D02*
D03*
X205937D02*
D03*
X204362D02*
D03*
X202787D02*
D03*
X201213D02*
D03*
X199638D02*
D03*
X198063D02*
D03*
X196488D02*
D03*
X194913D02*
D03*
X193339D02*
D03*
X191764D02*
D03*
X190189D02*
D03*
X188614D02*
D03*
X187039D02*
D03*
X185465D02*
D03*
X183890D02*
D03*
D97*
X218339Y287311D02*
D03*
Y285736D02*
D03*
Y284161D02*
D03*
Y282587D02*
D03*
Y281012D02*
D03*
Y279437D02*
D03*
Y277862D02*
D03*
Y276287D02*
D03*
Y274713D02*
D03*
Y273138D02*
D03*
Y271563D02*
D03*
Y269988D02*
D03*
Y268413D02*
D03*
Y266839D02*
D03*
Y265264D02*
D03*
Y263689D02*
D03*
Y262114D02*
D03*
Y260539D02*
D03*
Y258965D02*
D03*
Y257390D02*
D03*
X179362D02*
D03*
Y258965D02*
D03*
Y260539D02*
D03*
Y262114D02*
D03*
Y263689D02*
D03*
Y265264D02*
D03*
Y266839D02*
D03*
Y268413D02*
D03*
Y269988D02*
D03*
Y271563D02*
D03*
Y273138D02*
D03*
Y274713D02*
D03*
Y276287D02*
D03*
Y277862D02*
D03*
Y279437D02*
D03*
Y281012D02*
D03*
Y282587D02*
D03*
Y284161D02*
D03*
Y285736D02*
D03*
Y287311D02*
D03*
D98*
X894732Y112000D02*
D03*
X891268D02*
D03*
X849232D02*
D03*
X845768D02*
D03*
X835732D02*
D03*
X832268D02*
D03*
X775232D02*
D03*
X771768D02*
D03*
X761732D02*
D03*
X758268D02*
D03*
X748232D02*
D03*
X744768D02*
D03*
X917232Y149500D02*
D03*
X913768D02*
D03*
X901232D02*
D03*
X897768D02*
D03*
X887232D02*
D03*
X883768D02*
D03*
X871232D02*
D03*
X867768D02*
D03*
X855232D02*
D03*
X851768D02*
D03*
X809232D02*
D03*
X805768D02*
D03*
X748232D02*
D03*
X744768D02*
D03*
X651732D02*
D03*
X648268D02*
D03*
X532232D02*
D03*
X528768D02*
D03*
X468732D02*
D03*
X465268D02*
D03*
X437232D02*
D03*
X433768D02*
D03*
X404732D02*
D03*
X401268D02*
D03*
D99*
X798779Y110500D02*
D03*
Y105500D02*
D03*
Y100500D02*
D03*
Y95500D02*
D03*
X821220D02*
D03*
Y100500D02*
D03*
Y105500D02*
D03*
Y110500D02*
D03*
D100*
X810000Y103000D02*
D03*
D101*
X630437Y136030D02*
D03*
X622563D02*
D03*
X626500D02*
D03*
X496937D02*
D03*
X489063D02*
D03*
X493000D02*
D03*
D102*
X635555Y145970D02*
D03*
X617445D02*
D03*
X502055D02*
D03*
X483945D02*
D03*
D103*
X199445Y238500D02*
D03*
X208500D02*
D03*
Y231610D02*
D03*
X199445D02*
D03*
D104*
X572000Y145063D02*
D03*
Y152937D02*
D03*
D105*
X549264Y149500D02*
D03*
X544736D02*
D03*
X454264D02*
D03*
X449736D02*
D03*
D106*
X600366Y37559D02*
D03*
Y35000D02*
D03*
Y32441D02*
D03*
X608634D02*
D03*
Y35000D02*
D03*
Y37559D02*
D03*
X582366D02*
D03*
Y35000D02*
D03*
Y32441D02*
D03*
X590634D02*
D03*
Y35000D02*
D03*
Y37559D02*
D03*
D107*
X604500Y35000D02*
D03*
X586500D02*
D03*
D108*
X461158Y181000D02*
D03*
X471000D02*
D03*
X451315D02*
D03*
X674500Y86500D02*
D03*
X664657D02*
D03*
X230421Y554000D02*
D03*
X220579D02*
D03*
X229921Y511000D02*
D03*
X220079D02*
D03*
X229921Y468000D02*
D03*
X220079D02*
D03*
X224921Y425000D02*
D03*
X215079D02*
D03*
X746921Y615500D02*
D03*
X737079D02*
D03*
X746421Y572500D02*
D03*
X736579D02*
D03*
X746421Y529500D02*
D03*
X736579D02*
D03*
X145421Y208500D02*
D03*
X135579D02*
D03*
X666421Y199000D02*
D03*
X656579D02*
D03*
D109*
X653500Y255842D02*
D03*
Y246000D02*
D03*
Y265685D02*
D03*
X781500Y252842D02*
D03*
Y243000D02*
D03*
Y262685D02*
D03*
X616000Y94342D02*
D03*
Y84500D02*
D03*
X359000Y656421D02*
D03*
Y636736D02*
D03*
Y646579D02*
D03*
Y666264D02*
D03*
X358500Y587421D02*
D03*
Y567736D02*
D03*
Y577579D02*
D03*
Y597264D02*
D03*
Y518421D02*
D03*
Y498736D02*
D03*
Y508579D02*
D03*
Y528264D02*
D03*
X353500Y449421D02*
D03*
Y429736D02*
D03*
Y439579D02*
D03*
Y459264D02*
D03*
X551000Y256579D02*
D03*
Y236894D02*
D03*
Y246736D02*
D03*
Y266421D02*
D03*
Y276264D02*
D03*
Y286106D02*
D03*
X518500Y256579D02*
D03*
Y236894D02*
D03*
Y246736D02*
D03*
Y266421D02*
D03*
Y276264D02*
D03*
Y286106D02*
D03*
X706500Y137421D02*
D03*
Y117736D02*
D03*
Y127579D02*
D03*
Y147264D02*
D03*
D110*
X314004Y148000D02*
D03*
X309004Y73000D02*
D03*
X307504Y20000D02*
D03*
D111*
X305500Y168000D02*
D03*
Y158000D02*
D03*
Y148000D02*
D03*
Y138000D02*
D03*
X300500Y93000D02*
D03*
Y83000D02*
D03*
Y73000D02*
D03*
Y63000D02*
D03*
X299000Y40000D02*
D03*
Y30000D02*
D03*
Y20000D02*
D03*
Y10000D02*
D03*
D112*
X241000Y165905D02*
D03*
Y154095D02*
D03*
Y101906D02*
D03*
Y90095D02*
D03*
X187000Y33000D02*
D03*
Y21189D02*
D03*
D113*
X538000Y322000D02*
D03*
X514000D02*
D03*
X490000D02*
D03*
X466000D02*
D03*
D114*
X802000Y183500D02*
D03*
D115*
X790189D02*
D03*
X802000Y195311D02*
D03*
X790189D02*
D03*
D116*
X813811Y199012D02*
D03*
X778378D02*
D03*
M02*
