G04*
G04 #@! TF.GenerationSoftware,Altium Limited,Altium Designer,25.5.2 (35)*
G04*
G04 Layer_Color=8421504*
%FSLAX25Y25*%
%MOIN*%
G70*
G04*
G04 #@! TF.SameCoordinates,DEEBFFD1-7943-4915-A8E4-7FE5A80A0D93*
G04*
G04*
G04 #@! TF.FilePolarity,Positive*
G04*
G01*
G75*
%ADD18R,0.03347X0.03740*%
%ADD19R,0.04724X0.06496*%
%ADD20R,0.03827X0.03158*%
%ADD21R,0.07087X0.15354*%
%ADD22R,0.05118X0.17717*%
%ADD23R,0.12402X0.09646*%
%ADD24R,0.03543X0.03150*%
%ADD25R,0.01968X0.00984*%
%ADD26R,0.03347X0.03347*%
%ADD27R,0.06102X0.02362*%
%ADD28R,0.07087X0.04724*%
%ADD29R,0.02362X0.06102*%
%ADD30R,0.04724X0.07087*%
%ADD31R,0.09449X0.06102*%
%ADD32R,0.04724X0.06299*%
%ADD33R,0.02461X0.03268*%
%ADD34R,0.02756X0.03937*%
%ADD35R,0.04724X0.02362*%
%ADD36R,0.14370X0.06299*%
%ADD37R,0.01575X0.02756*%
%ADD38R,0.00803X0.02981*%
%ADD39R,0.02981X0.00803*%
%ADD40R,0.11400X0.11400*%
G36*
X240094Y284234D02*
X235181D01*
Y289147D01*
X240094D01*
Y284234D01*
D02*
G37*
G36*
X234394D02*
X229481D01*
Y289147D01*
X234394D01*
Y284234D01*
D02*
G37*
G36*
X240094Y278534D02*
X235181D01*
Y283447D01*
X240094D01*
Y278534D01*
D02*
G37*
G36*
X234394D02*
X229481D01*
Y283447D01*
X234394D01*
Y278534D01*
D02*
G37*
G36*
X323652Y268043D02*
X322470D01*
Y270287D01*
X323652D01*
Y268043D01*
D02*
G37*
G36*
X321093D02*
X319911D01*
Y270287D01*
X321093D01*
Y268043D01*
D02*
G37*
G36*
X318533D02*
X317352D01*
Y270287D01*
X318533D01*
Y268043D01*
D02*
G37*
G36*
X315974D02*
X314793D01*
Y270287D01*
X315974D01*
Y268043D01*
D02*
G37*
G36*
X323809Y265957D02*
X319478D01*
Y267453D01*
X323809D01*
Y265957D01*
D02*
G37*
G36*
X318967D02*
X314636D01*
Y267453D01*
X318967D01*
Y265957D01*
D02*
G37*
G36*
X323809Y263870D02*
X319478D01*
Y265366D01*
X323809D01*
Y263870D01*
D02*
G37*
G36*
X318967D02*
X314636D01*
Y265366D01*
X318967D01*
Y263870D01*
D02*
G37*
G36*
X320935Y261311D02*
X314636D01*
Y263280D01*
X320935D01*
Y261311D01*
D02*
G37*
G36*
X326463Y260563D02*
X324809D01*
Y262138D01*
X326463D01*
Y260563D01*
D02*
G37*
G36*
X324219D02*
X322565D01*
Y262138D01*
X324219D01*
Y260563D01*
D02*
G37*
G36*
X323652Y257610D02*
X319478D01*
Y258476D01*
X323652D01*
Y257610D01*
D02*
G37*
G36*
X318967D02*
X314793D01*
Y258476D01*
X318967D01*
Y257610D01*
D02*
G37*
G36*
X323652Y255524D02*
X322470D01*
Y257098D01*
X323652D01*
Y255524D01*
D02*
G37*
G36*
X321093D02*
X319911D01*
Y257098D01*
X321093D01*
Y255524D01*
D02*
G37*
G36*
X318533D02*
X317352D01*
Y257098D01*
X318533D01*
Y255524D01*
D02*
G37*
G36*
X315974D02*
X314793D01*
Y257098D01*
X315974D01*
Y255524D01*
D02*
G37*
G36*
X323992Y248402D02*
X322811D01*
Y249976D01*
X323992D01*
Y248402D01*
D02*
G37*
G36*
X321433D02*
X320252D01*
Y249976D01*
X321433D01*
Y248402D01*
D02*
G37*
G36*
X318874D02*
X317693D01*
Y249976D01*
X318874D01*
Y248402D01*
D02*
G37*
G36*
X316315D02*
X315134D01*
Y249976D01*
X316315D01*
Y248402D01*
D02*
G37*
G36*
X323992Y247024D02*
X319819D01*
Y247890D01*
X323992D01*
Y247024D01*
D02*
G37*
G36*
X319307D02*
X315134D01*
Y247890D01*
X319307D01*
Y247024D01*
D02*
G37*
G36*
X316220Y243362D02*
X314567D01*
Y244937D01*
X316220D01*
Y243362D01*
D02*
G37*
G36*
X313976D02*
X312323D01*
Y244937D01*
X313976D01*
Y243362D01*
D02*
G37*
G36*
X324150Y242220D02*
X317850D01*
Y244189D01*
X324150D01*
Y242220D01*
D02*
G37*
G36*
Y240134D02*
X319819D01*
Y241630D01*
X324150D01*
Y240134D01*
D02*
G37*
G36*
X319307D02*
X314976D01*
Y241630D01*
X319307D01*
Y240134D01*
D02*
G37*
G36*
X324150Y238047D02*
X319819D01*
Y239543D01*
X324150D01*
Y238047D01*
D02*
G37*
G36*
X319307D02*
X314976D01*
Y239543D01*
X319307D01*
Y238047D01*
D02*
G37*
G36*
X323992Y235213D02*
X322811D01*
Y237457D01*
X323992D01*
Y235213D01*
D02*
G37*
G36*
X321433D02*
X320252D01*
Y237457D01*
X321433D01*
Y235213D01*
D02*
G37*
G36*
X318874D02*
X317693D01*
Y237457D01*
X318874D01*
Y235213D01*
D02*
G37*
G36*
X316315D02*
X315134D01*
Y237457D01*
X316315D01*
Y235213D01*
D02*
G37*
G36*
X438421Y127130D02*
X435059D01*
Y132902D01*
X438421D01*
Y127130D01*
D02*
G37*
G36*
X411264Y41063D02*
X411683Y40927D01*
X412079Y40734D01*
X412444Y40488D01*
X412771Y40193D01*
X413054Y39856D01*
X413288Y39482D01*
X413467Y39080D01*
X413588Y38656D01*
X413650Y38220D01*
Y37780D01*
X413588Y37344D01*
X413467Y36920D01*
X413288Y36518D01*
X413054Y36144D01*
X412771Y35807D01*
X412444Y35512D01*
X412079Y35266D01*
X411683Y35073D01*
X411264Y34936D01*
X411047Y34898D01*
X411047D01*
X411047Y41102D01*
X411264Y41063D01*
D02*
G37*
G36*
X409953Y34898D02*
X409736Y34936D01*
X409317Y35073D01*
X408921Y35266D01*
X408556Y35512D01*
X408229Y35807D01*
X407946Y36144D01*
X407712Y36518D01*
X407533Y36920D01*
X407412Y37344D01*
X407350Y37780D01*
X407350Y38220D01*
X407412Y38656D01*
X407533Y39080D01*
X407712Y39482D01*
X407946Y39856D01*
X408229Y40193D01*
X408556Y40488D01*
X408921Y40734D01*
X409317Y40927D01*
X409736Y41063D01*
X409953Y41102D01*
X409953D01*
X409953Y34898D01*
D02*
G37*
D18*
X480941Y10000D02*
D03*
X486059D02*
D03*
X465441D02*
D03*
X470559D02*
D03*
X449441D02*
D03*
X454559D02*
D03*
X433441D02*
D03*
X438559D02*
D03*
X417441D02*
D03*
X422559D02*
D03*
X401941D02*
D03*
X407059D02*
D03*
X415441Y106500D02*
D03*
X420559D02*
D03*
X464941D02*
D03*
X470059D02*
D03*
X497941D02*
D03*
X503059D02*
D03*
X513941D02*
D03*
X519059D02*
D03*
X530441D02*
D03*
X535559D02*
D03*
X437441Y58500D02*
D03*
X442559D02*
D03*
X613441D02*
D03*
X618559D02*
D03*
X687441D02*
D03*
X692559D02*
D03*
X719441D02*
D03*
X724559D02*
D03*
X661042Y101000D02*
D03*
X666160D02*
D03*
X750941Y58500D02*
D03*
X756059D02*
D03*
X464941Y23500D02*
D03*
X470059D02*
D03*
X449042D02*
D03*
X454160D02*
D03*
X543941Y10000D02*
D03*
X549059D02*
D03*
X574441D02*
D03*
X579559D02*
D03*
X559441D02*
D03*
X564559D02*
D03*
X589941D02*
D03*
X595059D02*
D03*
X466441D02*
D03*
X471559D02*
D03*
X497941D02*
D03*
X503059D02*
D03*
X512441D02*
D03*
X517559D02*
D03*
X539542Y21500D02*
D03*
X544660D02*
D03*
D19*
X483488Y173000D02*
D03*
X494512D02*
D03*
X486988Y139000D02*
D03*
X498012D02*
D03*
X483988Y154000D02*
D03*
X495012D02*
D03*
X640988Y27000D02*
D03*
X652012D02*
D03*
D20*
X842516Y57740D02*
D03*
Y50260D02*
D03*
X849484Y54000D02*
D03*
X299016Y299740D02*
D03*
Y292260D02*
D03*
X305984Y296000D02*
D03*
D21*
X206638Y381858D02*
D03*
X261362D02*
D03*
D22*
X229079Y354299D02*
D03*
X238921D02*
D03*
X248764D02*
D03*
X219236D02*
D03*
D23*
X441500Y206205D02*
D03*
Y181795D02*
D03*
D24*
X477500Y40500D02*
D03*
X469626Y36760D02*
D03*
Y44240D02*
D03*
X433437Y11500D02*
D03*
X425563Y7760D02*
D03*
Y15240D02*
D03*
X460000Y43000D02*
D03*
X452126Y39260D02*
D03*
Y46740D02*
D03*
X813437Y54000D02*
D03*
X805563Y50260D02*
D03*
Y57740D02*
D03*
D25*
X433000Y132968D02*
D03*
Y131000D02*
D03*
Y129032D02*
D03*
Y127063D02*
D03*
X440480D02*
D03*
Y129032D02*
D03*
Y131000D02*
D03*
Y132968D02*
D03*
D26*
X549449Y106000D02*
D03*
X555551D02*
D03*
X483949D02*
D03*
X490051D02*
D03*
X450949D02*
D03*
X457051D02*
D03*
X434449D02*
D03*
X440551D02*
D03*
X401949D02*
D03*
X408051D02*
D03*
X724449Y144500D02*
D03*
X730551D02*
D03*
X782949Y86500D02*
D03*
X789051D02*
D03*
X520449D02*
D03*
X526551D02*
D03*
X401949D02*
D03*
X408051D02*
D03*
X652449Y9500D02*
D03*
X658551D02*
D03*
X507500Y26000D02*
D03*
X513602D02*
D03*
X454000Y84000D02*
D03*
X460102D02*
D03*
X477449Y81500D02*
D03*
X483551D02*
D03*
X419449Y85000D02*
D03*
X425551D02*
D03*
X860449Y58000D02*
D03*
X866551D02*
D03*
X769449D02*
D03*
X775551D02*
D03*
X737449D02*
D03*
X743551D02*
D03*
X705949D02*
D03*
X712051D02*
D03*
X631949D02*
D03*
X638051D02*
D03*
X543449D02*
D03*
X549551D02*
D03*
X526949D02*
D03*
X533051D02*
D03*
X509949D02*
D03*
X516051D02*
D03*
X471949D02*
D03*
X478051D02*
D03*
X423449D02*
D03*
X429551D02*
D03*
X483949Y9500D02*
D03*
X490051D02*
D03*
X494449Y82000D02*
D03*
X500551D02*
D03*
D27*
X725000Y186437D02*
D03*
Y182500D02*
D03*
D28*
X715059Y177382D02*
D03*
Y191555D02*
D03*
X677700Y58300D02*
D03*
Y46400D02*
D03*
X664200Y58300D02*
D03*
Y46400D02*
D03*
X650200Y58300D02*
D03*
Y46400D02*
D03*
D29*
X711969Y95530D02*
D03*
X708032D02*
D03*
X620968Y73529D02*
D03*
X617031D02*
D03*
X471437Y216000D02*
D03*
X467500D02*
D03*
D30*
X702913Y105471D02*
D03*
X717087D02*
D03*
X611913Y83470D02*
D03*
X626087D02*
D03*
X462382Y225941D02*
D03*
X476555D02*
D03*
D31*
X319035Y290323D02*
D03*
Y280677D02*
D03*
D32*
X327500Y285500D02*
D03*
D33*
X786120Y57500D02*
D03*
X794880D02*
D03*
D34*
X593768Y37642D02*
D03*
Y55358D02*
D03*
X602232Y37642D02*
D03*
Y55358D02*
D03*
D35*
X498921Y57240D02*
D03*
Y49760D02*
D03*
X489079D02*
D03*
Y53500D02*
D03*
Y57240D02*
D03*
D36*
X285000Y288000D02*
D03*
Y263000D02*
D03*
D37*
X458878Y9500D02*
D03*
X456122D02*
D03*
X436878Y38500D02*
D03*
X434122D02*
D03*
X442878Y84000D02*
D03*
X440122D02*
D03*
X403878Y9500D02*
D03*
X401122D02*
D03*
D38*
X229275Y291681D02*
D03*
Y276000D02*
D03*
X230850D02*
D03*
X232425D02*
D03*
X234000D02*
D03*
X235575D02*
D03*
X237150D02*
D03*
X238725D02*
D03*
X240300D02*
D03*
Y291681D02*
D03*
X238725D02*
D03*
X237150D02*
D03*
X235575D02*
D03*
X234000D02*
D03*
X232425D02*
D03*
X230850D02*
D03*
D39*
X226947Y289353D02*
D03*
Y287778D02*
D03*
Y286203D02*
D03*
Y284628D02*
D03*
Y283053D02*
D03*
Y281478D02*
D03*
Y279903D02*
D03*
Y278328D02*
D03*
X242628D02*
D03*
Y279903D02*
D03*
Y281478D02*
D03*
Y283053D02*
D03*
Y284628D02*
D03*
Y286203D02*
D03*
Y287778D02*
D03*
Y289353D02*
D03*
D40*
X234788Y283840D02*
D03*
M02*
