G04*
G04 #@! TF.GenerationSoftware,Altium Limited,Altium Designer,25.5.2 (35)*
G04*
G04 Layer_Color=65535*
%FSLAX25Y25*%
%MOIN*%
G70*
G04*
G04 #@! TF.SameCoordinates,DEEBFFD1-7943-4915-A8E4-7FE5A80A0D93*
G04*
G04*
G04 #@! TF.FilePolarity,Positive*
G04*
G01*
G75*
%ADD10C,0.00984*%
%ADD11C,0.00394*%
%ADD12C,0.01000*%
%ADD13C,0.00787*%
%ADD14C,0.00591*%
%ADD15C,0.00669*%
%ADD16C,0.00276*%
%ADD17C,0.00600*%
D10*
X841965Y61185D02*
G03*
X841965Y61185I-492J0D01*
G01*
X316219Y232950D02*
G03*
X316219Y232950I-492J0D01*
G01*
X323551Y272550D02*
G03*
X323551Y272550I-492J0D01*
G01*
X298465Y303185D02*
G03*
X298465Y303185I-492J0D01*
G01*
D11*
X289500Y313551D02*
G03*
X289500Y313158I0J-197D01*
G01*
D02*
G03*
X289500Y313551I0J197D01*
G01*
X243500Y53543D02*
G03*
X243500Y53937I0J197D01*
G01*
D02*
G03*
X243500Y53543I0J-197D01*
G01*
X675531Y53878D02*
X679468D01*
X677500Y51910D02*
X679468Y53878D01*
X675531D02*
X677500Y51910D01*
X675728Y51516D02*
X679272D01*
X677500Y53878D02*
Y54862D01*
Y49744D02*
Y51910D01*
X662032Y53878D02*
X665969D01*
X664000Y51910D02*
X665969Y53878D01*
X662032D02*
X664000Y51910D01*
X662228Y51516D02*
X665772D01*
X664000Y53878D02*
Y54862D01*
Y49744D02*
Y51910D01*
X648032Y53878D02*
X651968D01*
X650000Y51910D02*
X651968Y53878D01*
X648032D02*
X650000Y51910D01*
X648228Y51516D02*
X651772D01*
X650000Y53878D02*
Y54862D01*
Y49744D02*
Y51910D01*
X591701Y38232D02*
Y54669D01*
X604299Y38232D02*
Y54669D01*
D12*
X592055Y114500D02*
G03*
X592055Y114500I-9055J0D01*
G01*
X549555Y135500D02*
G03*
X549555Y135500I-9055J0D01*
G01*
X592555Y83500D02*
G03*
X592555Y83500I-9055J0D01*
G01*
X625055Y125000D02*
G03*
X625055Y125000I-9055J0D01*
G01*
D13*
X414831Y38000D02*
G03*
X414831Y38000I-4331J0D01*
G01*
X318937Y296130D02*
G03*
X318937Y295736I0J-197D01*
G01*
D02*
G03*
X318937Y296130I0J197D01*
G01*
D02*
G03*
X318937Y295736I0J-197D01*
G01*
X593276Y34295D02*
G03*
X594063Y34295I394J0D01*
G01*
D02*
G03*
X593276Y34295I-394J0D01*
G01*
X224681Y290841D02*
G03*
X224681Y290841I-394J0D01*
G01*
X340547Y7677D02*
G03*
X343303Y7677I1378J0D01*
G01*
X330705Y10827D02*
G03*
X333461Y10827I1378J0D01*
G01*
X320862D02*
G03*
X323618Y10827I1378J0D01*
G01*
X311020D02*
G03*
X313776Y10827I1378J0D01*
G01*
X301177D02*
G03*
X303933Y10827I1378J0D01*
G01*
X291335D02*
G03*
X294091Y10827I1378J0D01*
G01*
X281492D02*
G03*
X284248Y10827I1378J0D01*
G01*
X271650D02*
G03*
X274406Y10827I1378J0D01*
G01*
X261807D02*
G03*
X264563Y10827I1378J0D01*
G01*
X250193Y7283D02*
G03*
X256492Y7283I3150J0D01*
G01*
X242122Y10827D02*
G03*
X244878Y10827I1378J0D01*
G01*
X479945Y176150D02*
Y177331D01*
X498055D01*
Y176150D02*
Y177331D01*
Y168669D02*
Y169850D01*
X479945Y168669D02*
X498055D01*
X479945D02*
Y169850D01*
X489000Y168669D02*
Y177331D01*
X483445Y142150D02*
Y143331D01*
X501555D01*
Y142150D02*
Y143331D01*
Y134669D02*
Y135850D01*
X483445Y134669D02*
X501555D01*
X483445D02*
Y135850D01*
X492500Y134669D02*
Y143331D01*
X480445Y157150D02*
Y158331D01*
X498555D01*
Y157150D02*
Y158331D01*
Y149669D02*
Y150850D01*
X480445Y149669D02*
X498555D01*
X480445D02*
Y150850D01*
X489500Y149669D02*
Y158331D01*
X637445Y30150D02*
Y31331D01*
X655555D01*
Y30150D02*
Y31331D01*
Y22669D02*
Y23850D01*
X637445Y22669D02*
X655555D01*
X637445D02*
Y23850D01*
X646500Y22669D02*
Y31331D01*
X845606Y59905D02*
X848756D01*
Y56854D02*
Y59905D01*
X845606Y48094D02*
X848756D01*
Y51146D01*
X325913Y235803D02*
X326307D01*
X325913Y249189D02*
X326307D01*
X312921Y235803D02*
X313315D01*
X312921Y249189D02*
X313315D01*
X312921Y246827D02*
Y249189D01*
X326307Y235803D02*
Y249189D01*
X312921Y235803D02*
Y241315D01*
X204472Y367094D02*
Y372606D01*
X209394Y358236D02*
X215299D01*
X209394D02*
Y367094D01*
X204472D02*
X209394D01*
X211559Y388748D02*
X256244D01*
X263528Y367094D02*
Y372606D01*
X252701Y358236D02*
X258606D01*
Y367094D01*
X263528D01*
X454492Y174709D02*
Y213291D01*
X428508Y174709D02*
Y213291D01*
X449276D02*
X454492D01*
X428508D02*
X433724D01*
X428508Y174709D02*
X439532D01*
Y175496D01*
X428508D02*
X439532D01*
X443469D02*
X454492D01*
X443469Y174709D02*
Y175496D01*
Y174709D02*
X454492D01*
X439532Y192425D02*
X443469D01*
X441500D02*
X443075Y195181D01*
X439532D02*
X441500Y192425D01*
X439532Y195181D02*
X443075D01*
X441500Y191638D02*
Y192425D01*
Y195181D02*
Y196362D01*
X470807Y39319D02*
Y41681D01*
X476319Y34791D02*
Y37646D01*
X472776Y34791D02*
X476319D01*
Y43354D02*
Y46209D01*
X472776D02*
X476319D01*
X426744Y10319D02*
Y12681D01*
X432256Y5791D02*
Y8646D01*
X428713Y5791D02*
X432256D01*
Y14354D02*
Y17209D01*
X428713D02*
X432256D01*
X453307Y41819D02*
Y44181D01*
X458819Y37291D02*
Y40146D01*
X455276Y37291D02*
X458819D01*
Y45854D02*
Y48709D01*
X455276D02*
X458819D01*
X299736Y315717D02*
X309579D01*
X334185Y352528D02*
Y387370D01*
X273161D02*
X334185D01*
X273161Y352528D02*
Y387370D01*
X325327Y315717D02*
X334185D01*
Y340717D01*
X273161Y315717D02*
X278083D01*
X273161D02*
Y340717D01*
X726628Y189469D02*
Y192469D01*
X720000D02*
X726628D01*
X712500Y181468D02*
Y187469D01*
X720000Y176469D02*
X726628D01*
Y179469D01*
X715000Y93902D02*
X718000D01*
Y100530D01*
X707000Y108029D02*
X713000D01*
X702000Y93902D02*
Y100530D01*
Y93902D02*
X705000D01*
X624000Y71902D02*
X627000D01*
Y78530D01*
X616000Y86029D02*
X622000D01*
X611000Y71902D02*
Y78530D01*
Y71902D02*
X614000D01*
X474469Y214372D02*
X477468D01*
Y221000D01*
X466468Y228500D02*
X472469D01*
X461469Y214372D02*
Y221000D01*
Y214372D02*
X464468D01*
X325864Y264185D02*
Y269697D01*
X312478Y256311D02*
Y269697D01*
X325864Y256311D02*
Y258673D01*
X325470Y256311D02*
X325864D01*
X325470Y269697D02*
X325864D01*
X312478Y256311D02*
X312872D01*
X312478Y269697D02*
X312872D01*
X302106Y301905D02*
X305256D01*
Y298854D02*
Y301905D01*
X302106Y290094D02*
X305256D01*
Y293146D01*
X812256Y48291D02*
Y51146D01*
X809106Y48291D02*
X812256D01*
Y56854D02*
Y59709D01*
X809106D02*
X812256D01*
X806744Y53016D02*
Y54984D01*
X788925Y55532D02*
Y59469D01*
Y57500D02*
X791681Y55925D01*
X788925Y57500D02*
X791681Y59469D01*
Y55925D02*
Y59469D01*
X788138Y57500D02*
X788925D01*
X791681D02*
X792862D01*
X673800Y51038D02*
Y53400D01*
X681800Y51100D02*
Y53462D01*
X660300Y51038D02*
Y53400D01*
X668300Y51100D02*
Y53462D01*
X646300Y51038D02*
Y53400D01*
X654300Y51100D02*
Y53462D01*
X486717Y59405D02*
X491441D01*
X492819Y47791D02*
Y59209D01*
Y47791D02*
X495181D01*
Y59209D01*
X492819D02*
X495181D01*
X289921Y292429D02*
X293071D01*
Y258571D02*
Y292429D01*
X289921Y258571D02*
X293071D01*
X276929D02*
X280079D01*
X276929D02*
Y292429D01*
X280079D01*
X276929Y275500D02*
X293071D01*
X343303Y7677D02*
Y24016D01*
X340547Y7677D02*
Y24016D01*
X333461Y10827D02*
Y24016D01*
X330705Y10827D02*
Y24016D01*
X323618Y10827D02*
Y24016D01*
X320862Y10827D02*
Y24016D01*
X313776Y10827D02*
Y24016D01*
X311020Y10827D02*
Y24016D01*
X303933Y10827D02*
Y24016D01*
X301177Y10827D02*
Y24016D01*
X294091Y10827D02*
Y24016D01*
X291335Y10827D02*
Y24016D01*
X284248Y10827D02*
Y24016D01*
X281492Y10827D02*
Y24016D01*
X274406Y10827D02*
Y24016D01*
X271650Y10827D02*
Y24016D01*
X264563Y10827D02*
Y24016D01*
X261807Y10827D02*
Y24016D01*
X256492Y7283D02*
Y24016D01*
X250193Y7283D02*
Y24016D01*
X244878Y10827D02*
Y24016D01*
X242122Y10827D02*
Y24016D01*
X345862Y38583D02*
X349209D01*
Y51575D01*
X365744D01*
Y24016D02*
Y51575D01*
X219681Y24016D02*
X365744D01*
X219681D02*
Y51575D01*
X236216D01*
Y38583D02*
Y51575D01*
Y38583D02*
X237595D01*
X463400Y19736D02*
Y15800D01*
Y19736D02*
X465087D01*
X465649Y19549D01*
X465837Y19361D01*
X466024Y18986D01*
Y18611D01*
X465837Y18237D01*
X465649Y18049D01*
X465087Y17862D01*
X463400D01*
X464712D02*
X466024Y15800D01*
X469154Y19174D02*
X468967Y19549D01*
X468405Y19736D01*
X468030D01*
X467467Y19549D01*
X467093Y18986D01*
X466905Y18049D01*
Y17112D01*
X467093Y16362D01*
X467467Y15987D01*
X468030Y15800D01*
X468217D01*
X468779Y15987D01*
X469154Y16362D01*
X469342Y16925D01*
Y17112D01*
X469154Y17674D01*
X468779Y18049D01*
X468217Y18237D01*
X468030D01*
X467467Y18049D01*
X467093Y17674D01*
X466905Y17112D01*
X478900Y19736D02*
Y15800D01*
Y19736D02*
X480587D01*
X481149Y19549D01*
X481337Y19361D01*
X481524Y18986D01*
Y18611D01*
X481337Y18237D01*
X481149Y18049D01*
X480587Y17862D01*
X478900D01*
X480212D02*
X481524Y15800D01*
X485029Y19736D02*
X483155Y15800D01*
X482405Y19736D02*
X485029D01*
X415400D02*
Y15800D01*
Y19736D02*
X417087D01*
X417649Y19549D01*
X417837Y19361D01*
X418024Y18986D01*
Y18611D01*
X417837Y18237D01*
X417649Y18049D01*
X417087Y17862D01*
X415400D01*
X416712D02*
X418024Y15800D01*
X418905Y18986D02*
X419280Y19174D01*
X419842Y19736D01*
Y15800D01*
X423666Y19736D02*
X421792Y17112D01*
X424603D01*
X423666Y19736D02*
Y15800D01*
X447400Y19736D02*
Y15800D01*
Y19736D02*
X449087D01*
X449649Y19549D01*
X449837Y19361D01*
X450024Y18986D01*
Y18611D01*
X449837Y18237D01*
X449649Y18049D01*
X449087Y17862D01*
X447400D01*
X448712D02*
X450024Y15800D01*
X450905Y18986D02*
X451280Y19174D01*
X451842Y19736D01*
Y15800D01*
X454166Y19736D02*
X456228D01*
X455104Y18237D01*
X455666D01*
X456041Y18049D01*
X456228Y17862D01*
X456416Y17300D01*
Y16925D01*
X456228Y16362D01*
X455853Y15987D01*
X455291Y15800D01*
X454729D01*
X454166Y15987D01*
X453979Y16175D01*
X453792Y16550D01*
X431400Y19736D02*
Y15800D01*
Y19736D02*
X433087D01*
X433649Y19549D01*
X433837Y19361D01*
X434024Y18986D01*
Y18611D01*
X433837Y18237D01*
X433649Y18049D01*
X433087Y17862D01*
X431400D01*
X432712D02*
X434024Y15800D01*
X434905Y18986D02*
X435280Y19174D01*
X435842Y19736D01*
Y15800D01*
X437792Y18986D02*
X438166Y19174D01*
X438729Y19736D01*
Y15800D01*
X399900Y19736D02*
Y15800D01*
Y19736D02*
X401587D01*
X402149Y19549D01*
X402337Y19361D01*
X402524Y18986D01*
Y18611D01*
X402337Y18237D01*
X402149Y18049D01*
X401587Y17862D01*
X399900D01*
X401212D02*
X402524Y15800D01*
X403592Y18799D02*
Y18986D01*
X403780Y19361D01*
X403967Y19549D01*
X404342Y19736D01*
X405092D01*
X405467Y19549D01*
X405654Y19361D01*
X405842Y18986D01*
Y18611D01*
X405654Y18237D01*
X405279Y17674D01*
X403405Y15800D01*
X406029D01*
X409159Y19174D02*
X408972Y19549D01*
X408410Y19736D01*
X408035D01*
X407472Y19549D01*
X407098Y18986D01*
X406910Y18049D01*
Y17112D01*
X407098Y16362D01*
X407472Y15987D01*
X408035Y15800D01*
X408222D01*
X408784Y15987D01*
X409159Y16362D01*
X409347Y16925D01*
Y17112D01*
X409159Y17674D01*
X408784Y18049D01*
X408222Y18237D01*
X408035D01*
X407472Y18049D01*
X407098Y17674D01*
X406910Y17112D01*
X428800Y220436D02*
Y216500D01*
Y220436D02*
X430112D01*
X430674Y220249D01*
X431049Y219874D01*
X431237Y219499D01*
X431424Y218937D01*
Y218000D01*
X431237Y217437D01*
X431049Y217062D01*
X430674Y216687D01*
X430112Y216500D01*
X428800D01*
X432492Y219499D02*
Y219686D01*
X432680Y220061D01*
X432867Y220249D01*
X433242Y220436D01*
X433992D01*
X434367Y220249D01*
X434554Y220061D01*
X434742Y219686D01*
Y219311D01*
X434554Y218937D01*
X434179Y218374D01*
X432305Y216500D01*
X434929D01*
X477700Y184336D02*
Y180400D01*
Y184336D02*
X479387D01*
X479949Y184149D01*
X480137Y183961D01*
X480324Y183586D01*
Y183212D01*
X480137Y182837D01*
X479949Y182649D01*
X479387Y182462D01*
X477700D01*
X479012D02*
X480324Y180400D01*
X481392Y183399D02*
Y183586D01*
X481580Y183961D01*
X481767Y184149D01*
X482142Y184336D01*
X482892D01*
X483267Y184149D01*
X483454Y183961D01*
X483642Y183586D01*
Y183212D01*
X483454Y182837D01*
X483079Y182274D01*
X481205Y180400D01*
X483829D01*
X485085Y184336D02*
X487147D01*
X486022Y182837D01*
X486585D01*
X486959Y182649D01*
X487147Y182462D01*
X487334Y181899D01*
Y181525D01*
X487147Y180962D01*
X486772Y180587D01*
X486210Y180400D01*
X485647D01*
X485085Y180587D01*
X484898Y180775D01*
X484710Y181150D01*
X481200Y150336D02*
Y146400D01*
Y150336D02*
X482887D01*
X483449Y150149D01*
X483637Y149961D01*
X483824Y149586D01*
Y149212D01*
X483637Y148837D01*
X483449Y148649D01*
X482887Y148462D01*
X481200D01*
X482512D02*
X483824Y146400D01*
X484893Y149399D02*
Y149586D01*
X485080Y149961D01*
X485267Y150149D01*
X485642Y150336D01*
X486392D01*
X486767Y150149D01*
X486954Y149961D01*
X487142Y149586D01*
Y149212D01*
X486954Y148837D01*
X486579Y148274D01*
X484705Y146400D01*
X487329D01*
X488210Y149586D02*
X488585Y149774D01*
X489147Y150336D01*
Y146400D01*
X478200Y165336D02*
Y161400D01*
Y165336D02*
X479887D01*
X480449Y165149D01*
X480637Y164961D01*
X480824Y164586D01*
Y164212D01*
X480637Y163837D01*
X480449Y163649D01*
X479887Y163462D01*
X478200D01*
X479512D02*
X480824Y161400D01*
X481705Y164586D02*
X482080Y164774D01*
X482642Y165336D01*
Y161400D01*
X485529Y165336D02*
X484966Y165149D01*
X484779Y164774D01*
Y164399D01*
X484966Y164024D01*
X485341Y163837D01*
X486091Y163649D01*
X486653Y163462D01*
X487028Y163087D01*
X487216Y162712D01*
Y162150D01*
X487028Y161775D01*
X486841Y161587D01*
X486278Y161400D01*
X485529D01*
X484966Y161587D01*
X484779Y161775D01*
X484592Y162150D01*
Y162712D01*
X484779Y163087D01*
X485154Y163462D01*
X485716Y163649D01*
X486466Y163837D01*
X486841Y164024D01*
X487028Y164399D01*
Y164774D01*
X486841Y165149D01*
X486278Y165336D01*
X485529D01*
X450100Y56536D02*
Y52600D01*
X453736Y55599D02*
X453549Y55974D01*
X453174Y56349D01*
X452799Y56536D01*
X452049D01*
X451675Y56349D01*
X451300Y55974D01*
X451112Y55599D01*
X450925Y55037D01*
Y54100D01*
X451112Y53537D01*
X451300Y53162D01*
X451675Y52787D01*
X452049Y52600D01*
X452799D01*
X453174Y52787D01*
X453549Y53162D01*
X453736Y53537D01*
X457091Y55974D02*
X456904Y56349D01*
X456342Y56536D01*
X455967D01*
X455404Y56349D01*
X455030Y55786D01*
X454842Y54849D01*
Y53912D01*
X455030Y53162D01*
X455404Y52787D01*
X455967Y52600D01*
X456154D01*
X456716Y52787D01*
X457091Y53162D01*
X457279Y53725D01*
Y53912D01*
X457091Y54474D01*
X456716Y54849D01*
X456154Y55037D01*
X455967D01*
X455404Y54849D01*
X455030Y54474D01*
X454842Y53912D01*
X423500Y25036D02*
Y21100D01*
X427136Y24099D02*
X426949Y24474D01*
X426574Y24849D01*
X426199Y25036D01*
X425449D01*
X425074Y24849D01*
X424700Y24474D01*
X424512Y24099D01*
X424325Y23537D01*
Y22600D01*
X424512Y22037D01*
X424700Y21662D01*
X425074Y21287D01*
X425449Y21100D01*
X426199D01*
X426574Y21287D01*
X426949Y21662D01*
X427136Y22037D01*
X430491Y25036D02*
X428617D01*
X428430Y23349D01*
X428617Y23537D01*
X429179Y23724D01*
X429742D01*
X430304Y23537D01*
X430679Y23162D01*
X430866Y22600D01*
Y22225D01*
X430679Y21662D01*
X430304Y21287D01*
X429742Y21100D01*
X429179D01*
X428617Y21287D01*
X428430Y21475D01*
X428242Y21850D01*
X467600Y54036D02*
Y50100D01*
X471236Y53099D02*
X471049Y53474D01*
X470674Y53849D01*
X470299Y54036D01*
X469549D01*
X469174Y53849D01*
X468800Y53474D01*
X468612Y53099D01*
X468425Y52537D01*
Y51600D01*
X468612Y51037D01*
X468800Y50662D01*
X469174Y50287D01*
X469549Y50100D01*
X470299D01*
X470674Y50287D01*
X471049Y50662D01*
X471236Y51037D01*
X474217Y54036D02*
X472342Y51412D01*
X475154D01*
X474217Y54036D02*
Y50100D01*
X574200Y130736D02*
Y126800D01*
X576824Y130736D02*
Y126800D01*
X574200Y128862D02*
X576824D01*
X578848Y129424D02*
X578474Y129237D01*
X578099Y128862D01*
X577911Y128299D01*
Y127925D01*
X578099Y127362D01*
X578474Y126987D01*
X578848Y126800D01*
X579411D01*
X579786Y126987D01*
X580161Y127362D01*
X580348Y127925D01*
Y128299D01*
X580161Y128862D01*
X579786Y129237D01*
X579411Y129424D01*
X578848D01*
X581210Y130736D02*
Y126800D01*
X582035Y128299D02*
X584284D01*
Y128674D01*
X584097Y129049D01*
X583909Y129237D01*
X583534Y129424D01*
X582972D01*
X582597Y129237D01*
X582222Y128862D01*
X582035Y128299D01*
Y127925D01*
X582222Y127362D01*
X582597Y126987D01*
X582972Y126800D01*
X583534D01*
X583909Y126987D01*
X584284Y127362D01*
X587002Y130736D02*
X585127Y128112D01*
X587939D01*
X587002Y130736D02*
Y126800D01*
X531700Y151736D02*
Y147800D01*
X534324Y151736D02*
Y147800D01*
X531700Y149862D02*
X534324D01*
X536348Y150424D02*
X535974Y150237D01*
X535599Y149862D01*
X535411Y149300D01*
Y148925D01*
X535599Y148362D01*
X535974Y147987D01*
X536348Y147800D01*
X536911D01*
X537286Y147987D01*
X537661Y148362D01*
X537848Y148925D01*
Y149300D01*
X537661Y149862D01*
X537286Y150237D01*
X536911Y150424D01*
X536348D01*
X538710Y151736D02*
Y147800D01*
X539535Y149300D02*
X541784D01*
Y149674D01*
X541597Y150049D01*
X541409Y150237D01*
X541034Y150424D01*
X540472D01*
X540097Y150237D01*
X539722Y149862D01*
X539535Y149300D01*
Y148925D01*
X539722Y148362D01*
X540097Y147987D01*
X540472Y147800D01*
X541034D01*
X541409Y147987D01*
X541784Y148362D01*
X543002Y151736D02*
X545064D01*
X543940Y150237D01*
X544502D01*
X544877Y150049D01*
X545064Y149862D01*
X545252Y149300D01*
Y148925D01*
X545064Y148362D01*
X544689Y147987D01*
X544127Y147800D01*
X543565D01*
X543002Y147987D01*
X542815Y148175D01*
X542627Y148550D01*
X574700Y99736D02*
Y95800D01*
X577324Y99736D02*
Y95800D01*
X574700Y97862D02*
X577324D01*
X579348Y98424D02*
X578973Y98237D01*
X578599Y97862D01*
X578411Y97299D01*
Y96925D01*
X578599Y96362D01*
X578973Y95987D01*
X579348Y95800D01*
X579911D01*
X580286Y95987D01*
X580660Y96362D01*
X580848Y96925D01*
Y97299D01*
X580660Y97862D01*
X580286Y98237D01*
X579911Y98424D01*
X579348D01*
X581710Y99736D02*
Y95800D01*
X582535Y97299D02*
X584784D01*
Y97674D01*
X584597Y98049D01*
X584409Y98237D01*
X584034Y98424D01*
X583472D01*
X583097Y98237D01*
X582722Y97862D01*
X582535Y97299D01*
Y96925D01*
X582722Y96362D01*
X583097Y95987D01*
X583472Y95800D01*
X584034D01*
X584409Y95987D01*
X584784Y96362D01*
X585815Y98799D02*
Y98986D01*
X586002Y99361D01*
X586190Y99549D01*
X586565Y99736D01*
X587315D01*
X587689Y99549D01*
X587877Y99361D01*
X588064Y98986D01*
Y98611D01*
X587877Y98237D01*
X587502Y97674D01*
X585628Y95800D01*
X588252D01*
X607200Y141236D02*
Y137300D01*
X609824Y141236D02*
Y137300D01*
X607200Y139362D02*
X609824D01*
X611848Y139924D02*
X611474Y139737D01*
X611099Y139362D01*
X610911Y138800D01*
Y138425D01*
X611099Y137862D01*
X611474Y137487D01*
X611848Y137300D01*
X612411D01*
X612786Y137487D01*
X613161Y137862D01*
X613348Y138425D01*
Y138800D01*
X613161Y139362D01*
X612786Y139737D01*
X612411Y139924D01*
X611848D01*
X614210Y141236D02*
Y137300D01*
X615035Y138800D02*
X617284D01*
Y139174D01*
X617097Y139549D01*
X616909Y139737D01*
X616534Y139924D01*
X615972D01*
X615597Y139737D01*
X615222Y139362D01*
X615035Y138800D01*
Y138425D01*
X615222Y137862D01*
X615597Y137487D01*
X615972Y137300D01*
X616534D01*
X616909Y137487D01*
X617284Y137862D01*
X618127Y140486D02*
X618502Y140674D01*
X619065Y141236D01*
Y137300D01*
X408474Y49436D02*
Y46437D01*
X408287Y45875D01*
X408100Y45687D01*
X407725Y45500D01*
X407350D01*
X406975Y45687D01*
X406787Y45875D01*
X406600Y46437D01*
Y46812D01*
X410424Y49436D02*
X409861Y49249D01*
X409674Y48874D01*
Y48499D01*
X409861Y48124D01*
X410236Y47937D01*
X410986Y47749D01*
X411548Y47562D01*
X411923Y47187D01*
X412111Y46812D01*
Y46250D01*
X411923Y45875D01*
X411736Y45687D01*
X411173Y45500D01*
X410424D01*
X409861Y45687D01*
X409674Y45875D01*
X409486Y46250D01*
Y46812D01*
X409674Y47187D01*
X410049Y47562D01*
X410611Y47749D01*
X411361Y47937D01*
X411736Y48124D01*
X411923Y48499D01*
Y48874D01*
X411736Y49249D01*
X411173Y49436D01*
X410424D01*
X416300Y115536D02*
Y111600D01*
Y115536D02*
X417987D01*
X418549Y115349D01*
X418737Y115161D01*
X418924Y114786D01*
Y114412D01*
X418737Y114037D01*
X418549Y113849D01*
X417987Y113662D01*
X416300D01*
X417612D02*
X418924Y111600D01*
X420180Y115536D02*
X422242D01*
X421117Y114037D01*
X421679D01*
X422054Y113849D01*
X422242Y113662D01*
X422429Y113100D01*
Y112725D01*
X422242Y112162D01*
X421867Y111787D01*
X421305Y111600D01*
X420742D01*
X420180Y111787D01*
X419992Y111975D01*
X419805Y112350D01*
X423498Y114599D02*
Y114786D01*
X423685Y115161D01*
X423872Y115349D01*
X424247Y115536D01*
X424997D01*
X425372Y115349D01*
X425559Y115161D01*
X425747Y114786D01*
Y114412D01*
X425559Y114037D01*
X425184Y113474D01*
X423310Y111600D01*
X425934D01*
X465800Y115536D02*
Y111600D01*
Y115536D02*
X467487D01*
X468049Y115349D01*
X468237Y115161D01*
X468424Y114786D01*
Y114412D01*
X468237Y114037D01*
X468049Y113849D01*
X467487Y113662D01*
X465800D01*
X467112D02*
X468424Y111600D01*
X469680Y115536D02*
X471742D01*
X470617Y114037D01*
X471179D01*
X471554Y113849D01*
X471742Y113662D01*
X471929Y113100D01*
Y112725D01*
X471742Y112162D01*
X471367Y111787D01*
X470805Y111600D01*
X470242D01*
X469680Y111787D01*
X469492Y111975D01*
X469305Y112350D01*
X472810Y114786D02*
X473185Y114974D01*
X473747Y115536D01*
Y111600D01*
X498800Y115536D02*
Y111600D01*
Y115536D02*
X500487D01*
X501049Y115349D01*
X501237Y115161D01*
X501424Y114786D01*
Y114412D01*
X501237Y114037D01*
X501049Y113849D01*
X500487Y113662D01*
X498800D01*
X500112D02*
X501424Y111600D01*
X502680Y115536D02*
X504742D01*
X503617Y114037D01*
X504179D01*
X504554Y113849D01*
X504742Y113662D01*
X504929Y113100D01*
Y112725D01*
X504742Y112162D01*
X504367Y111787D01*
X503805Y111600D01*
X503242D01*
X502680Y111787D01*
X502493Y111975D01*
X502305Y112350D01*
X506935Y115536D02*
X506372Y115349D01*
X505998Y114786D01*
X505810Y113849D01*
Y113287D01*
X505998Y112350D01*
X506372Y111787D01*
X506935Y111600D01*
X507310D01*
X507872Y111787D01*
X508247Y112350D01*
X508434Y113287D01*
Y113849D01*
X508247Y114786D01*
X507872Y115349D01*
X507310Y115536D01*
X506935D01*
X514800D02*
Y111600D01*
Y115536D02*
X516487D01*
X517049Y115349D01*
X517237Y115161D01*
X517424Y114786D01*
Y114412D01*
X517237Y114037D01*
X517049Y113849D01*
X516487Y113662D01*
X514800D01*
X516112D02*
X517424Y111600D01*
X518493Y114599D02*
Y114786D01*
X518680Y115161D01*
X518867Y115349D01*
X519242Y115536D01*
X519992D01*
X520367Y115349D01*
X520554Y115161D01*
X520742Y114786D01*
Y114412D01*
X520554Y114037D01*
X520179Y113474D01*
X518305Y111600D01*
X520929D01*
X524247Y114224D02*
X524059Y113662D01*
X523685Y113287D01*
X523122Y113100D01*
X522935D01*
X522372Y113287D01*
X521998Y113662D01*
X521810Y114224D01*
Y114412D01*
X521998Y114974D01*
X522372Y115349D01*
X522935Y115536D01*
X523122D01*
X523685Y115349D01*
X524059Y114974D01*
X524247Y114224D01*
Y113287D01*
X524059Y112350D01*
X523685Y111787D01*
X523122Y111600D01*
X522747D01*
X522185Y111787D01*
X521998Y112162D01*
X531300Y115536D02*
Y111600D01*
Y115536D02*
X532987D01*
X533549Y115349D01*
X533737Y115161D01*
X533924Y114786D01*
Y114412D01*
X533737Y114037D01*
X533549Y113849D01*
X532987Y113662D01*
X531300D01*
X532612D02*
X533924Y111600D01*
X534993Y114599D02*
Y114786D01*
X535180Y115161D01*
X535367Y115349D01*
X535742Y115536D01*
X536492D01*
X536867Y115349D01*
X537054Y115161D01*
X537242Y114786D01*
Y114412D01*
X537054Y114037D01*
X536679Y113474D01*
X534805Y111600D01*
X537429D01*
X539247Y115536D02*
X538685Y115349D01*
X538498Y114974D01*
Y114599D01*
X538685Y114224D01*
X539060Y114037D01*
X539810Y113849D01*
X540372Y113662D01*
X540747Y113287D01*
X540934Y112912D01*
Y112350D01*
X540747Y111975D01*
X540559Y111787D01*
X539997Y111600D01*
X539247D01*
X538685Y111787D01*
X538498Y111975D01*
X538310Y112350D01*
Y112912D01*
X538498Y113287D01*
X538872Y113662D01*
X539435Y113849D01*
X540184Y114037D01*
X540559Y114224D01*
X540747Y114599D01*
Y114974D01*
X540559Y115349D01*
X539997Y115536D01*
X539247D01*
X459774Y238636D02*
Y235637D01*
X459587Y235075D01*
X459400Y234887D01*
X459025Y234700D01*
X458650D01*
X458275Y234887D01*
X458087Y235075D01*
X457900Y235637D01*
Y236012D01*
X463036Y238074D02*
X462848Y238449D01*
X462286Y238636D01*
X461911D01*
X461349Y238449D01*
X460974Y237886D01*
X460786Y236949D01*
Y236012D01*
X460974Y235262D01*
X461349Y234887D01*
X461911Y234700D01*
X462099D01*
X462661Y234887D01*
X463036Y235262D01*
X463223Y235825D01*
Y236012D01*
X463036Y236574D01*
X462661Y236949D01*
X462099Y237137D01*
X461911D01*
X461349Y236949D01*
X460974Y236574D01*
X460786Y236012D01*
X609274Y96136D02*
Y93137D01*
X609087Y92575D01*
X608899Y92387D01*
X608525Y92200D01*
X608150D01*
X607775Y92387D01*
X607587Y92575D01*
X607400Y93137D01*
Y93512D01*
X612161Y96136D02*
X610287Y93512D01*
X613098D01*
X612161Y96136D02*
Y92200D01*
X270274Y398236D02*
Y395237D01*
X270087Y394675D01*
X269900Y394487D01*
X269525Y394300D01*
X269150D01*
X268775Y394487D01*
X268587Y394675D01*
X268400Y395237D01*
Y395612D01*
X273536Y398236D02*
X271661D01*
X271474Y396549D01*
X271661Y396737D01*
X272224Y396924D01*
X272786D01*
X273348Y396737D01*
X273723Y396362D01*
X273911Y395799D01*
Y395425D01*
X273723Y394862D01*
X273348Y394487D01*
X272786Y394300D01*
X272224D01*
X271661Y394487D01*
X271474Y394675D01*
X271287Y395050D01*
X700274Y118136D02*
Y115137D01*
X700087Y114575D01*
X699899Y114387D01*
X699525Y114200D01*
X699150D01*
X698775Y114387D01*
X698587Y114575D01*
X698400Y115137D01*
Y115512D01*
X701474Y117199D02*
Y117386D01*
X701661Y117761D01*
X701849Y117949D01*
X702224Y118136D01*
X702973D01*
X703348Y117949D01*
X703536Y117761D01*
X703723Y117386D01*
Y117012D01*
X703536Y116637D01*
X703161Y116074D01*
X701287Y114200D01*
X703911D01*
X203974Y398236D02*
Y395237D01*
X203787Y394675D01*
X203600Y394487D01*
X203225Y394300D01*
X202850D01*
X202475Y394487D01*
X202287Y394675D01*
X202100Y395237D01*
Y395612D01*
X205361Y398236D02*
X207423D01*
X206299Y396737D01*
X206861D01*
X207236Y396549D01*
X207423Y396362D01*
X207611Y395799D01*
Y395425D01*
X207423Y394862D01*
X207048Y394487D01*
X206486Y394300D01*
X205924D01*
X205361Y394487D01*
X205174Y394675D01*
X204987Y395050D01*
X704374Y196036D02*
Y193037D01*
X704187Y192475D01*
X704000Y192287D01*
X703625Y192100D01*
X703250D01*
X702875Y192287D01*
X702687Y192475D01*
X702500Y193037D01*
Y193412D01*
X705386Y195286D02*
X705761Y195474D01*
X706324Y196036D01*
Y192100D01*
X402762Y114549D02*
X402574Y114924D01*
X402199Y115299D01*
X401824Y115486D01*
X401075D01*
X400700Y115299D01*
X400325Y114924D01*
X400137Y114549D01*
X399950Y113987D01*
Y113049D01*
X400137Y112487D01*
X400325Y112112D01*
X400700Y111737D01*
X401075Y111550D01*
X401824D01*
X402199Y111737D01*
X402574Y112112D01*
X402762Y112487D01*
X404055Y114549D02*
Y114736D01*
X404242Y115111D01*
X404430Y115299D01*
X404805Y115486D01*
X405554D01*
X405929Y115299D01*
X406117Y115111D01*
X406304Y114736D01*
Y114362D01*
X406117Y113987D01*
X405742Y113424D01*
X403867Y111550D01*
X406492D01*
X409622Y114924D02*
X409434Y115299D01*
X408872Y115486D01*
X408497D01*
X407935Y115299D01*
X407560Y114736D01*
X407373Y113799D01*
Y112862D01*
X407560Y112112D01*
X407935Y111737D01*
X408497Y111550D01*
X408684D01*
X409247Y111737D01*
X409622Y112112D01*
X409809Y112675D01*
Y112862D01*
X409622Y113424D01*
X409247Y113799D01*
X408684Y113987D01*
X408497D01*
X407935Y113799D01*
X407560Y113424D01*
X407373Y112862D01*
X435261Y114549D02*
X435074Y114924D01*
X434699Y115299D01*
X434324Y115486D01*
X433575D01*
X433200Y115299D01*
X432825Y114924D01*
X432637Y114549D01*
X432450Y113987D01*
Y113049D01*
X432637Y112487D01*
X432825Y112112D01*
X433200Y111737D01*
X433575Y111550D01*
X434324D01*
X434699Y111737D01*
X435074Y112112D01*
X435261Y112487D01*
X436555Y114549D02*
Y114736D01*
X436742Y115111D01*
X436930Y115299D01*
X437305Y115486D01*
X438054D01*
X438429Y115299D01*
X438617Y115111D01*
X438804Y114736D01*
Y114362D01*
X438617Y113987D01*
X438242Y113424D01*
X436367Y111550D01*
X438991D01*
X442122Y115486D02*
X440247D01*
X440060Y113799D01*
X440247Y113987D01*
X440810Y114174D01*
X441372D01*
X441934Y113987D01*
X442309Y113612D01*
X442497Y113049D01*
Y112675D01*
X442309Y112112D01*
X441934Y111737D01*
X441372Y111550D01*
X440810D01*
X440247Y111737D01*
X440060Y111925D01*
X439873Y112300D01*
X451761Y114549D02*
X451574Y114924D01*
X451199Y115299D01*
X450824Y115486D01*
X450075D01*
X449700Y115299D01*
X449325Y114924D01*
X449137Y114549D01*
X448950Y113987D01*
Y113049D01*
X449137Y112487D01*
X449325Y112112D01*
X449700Y111737D01*
X450075Y111550D01*
X450824D01*
X451199Y111737D01*
X451574Y112112D01*
X451761Y112487D01*
X453055Y114549D02*
Y114736D01*
X453242Y115111D01*
X453430Y115299D01*
X453805Y115486D01*
X454554D01*
X454929Y115299D01*
X455117Y115111D01*
X455304Y114736D01*
Y114362D01*
X455117Y113987D01*
X454742Y113424D01*
X452867Y111550D01*
X455491D01*
X458247Y115486D02*
X456372Y112862D01*
X459184D01*
X458247Y115486D02*
Y111550D01*
X484761Y114549D02*
X484574Y114924D01*
X484199Y115299D01*
X483824Y115486D01*
X483075D01*
X482700Y115299D01*
X482325Y114924D01*
X482137Y114549D01*
X481950Y113987D01*
Y113049D01*
X482137Y112487D01*
X482325Y112112D01*
X482700Y111737D01*
X483075Y111550D01*
X483824D01*
X484199Y111737D01*
X484574Y112112D01*
X484761Y112487D01*
X486055Y114549D02*
Y114736D01*
X486242Y115111D01*
X486430Y115299D01*
X486805Y115486D01*
X487554D01*
X487929Y115299D01*
X488117Y115111D01*
X488304Y114736D01*
Y114362D01*
X488117Y113987D01*
X487742Y113424D01*
X485867Y111550D01*
X488491D01*
X489747Y115486D02*
X491809D01*
X490685Y113987D01*
X491247D01*
X491622Y113799D01*
X491809Y113612D01*
X491997Y113049D01*
Y112675D01*
X491809Y112112D01*
X491434Y111737D01*
X490872Y111550D01*
X490310D01*
X489747Y111737D01*
X489560Y111925D01*
X489372Y112300D01*
X550261Y114549D02*
X550074Y114924D01*
X549699Y115299D01*
X549324Y115486D01*
X548575D01*
X548200Y115299D01*
X547825Y114924D01*
X547637Y114549D01*
X547450Y113987D01*
Y113049D01*
X547637Y112487D01*
X547825Y112112D01*
X548200Y111737D01*
X548575Y111550D01*
X549324D01*
X549699Y111737D01*
X550074Y112112D01*
X550261Y112487D01*
X551555Y114549D02*
Y114736D01*
X551742Y115111D01*
X551930Y115299D01*
X552305Y115486D01*
X553054D01*
X553429Y115299D01*
X553617Y115111D01*
X553804Y114736D01*
Y114362D01*
X553617Y113987D01*
X553242Y113424D01*
X551367Y111550D01*
X553992D01*
X555060Y114549D02*
Y114736D01*
X555247Y115111D01*
X555435Y115299D01*
X555810Y115486D01*
X556559D01*
X556934Y115299D01*
X557122Y115111D01*
X557309Y114736D01*
Y114362D01*
X557122Y113987D01*
X556747Y113424D01*
X554873Y111550D01*
X557497D01*
X402762Y95049D02*
X402574Y95424D01*
X402199Y95799D01*
X401824Y95986D01*
X401075D01*
X400700Y95799D01*
X400325Y95424D01*
X400137Y95049D01*
X399950Y94487D01*
Y93550D01*
X400137Y92987D01*
X400325Y92612D01*
X400700Y92237D01*
X401075Y92050D01*
X401824D01*
X402199Y92237D01*
X402574Y92612D01*
X402762Y92987D01*
X405742Y95986D02*
X403867Y93362D01*
X406679D01*
X405742Y95986D02*
Y92050D01*
X521262Y95049D02*
X521074Y95424D01*
X520699Y95799D01*
X520324Y95986D01*
X519575D01*
X519200Y95799D01*
X518825Y95424D01*
X518637Y95049D01*
X518450Y94487D01*
Y93550D01*
X518637Y92987D01*
X518825Y92612D01*
X519200Y92237D01*
X519575Y92050D01*
X520324D01*
X520699Y92237D01*
X521074Y92612D01*
X521262Y92987D01*
X522742Y95986D02*
X524804D01*
X523679Y94487D01*
X524242D01*
X524617Y94299D01*
X524804Y94112D01*
X524992Y93550D01*
Y93175D01*
X524804Y92612D01*
X524429Y92237D01*
X523867Y92050D01*
X523305D01*
X522742Y92237D01*
X522555Y92425D01*
X522367Y92800D01*
X783762Y95049D02*
X783574Y95424D01*
X783199Y95799D01*
X782824Y95986D01*
X782075D01*
X781700Y95799D01*
X781325Y95424D01*
X781137Y95049D01*
X780950Y94487D01*
Y93550D01*
X781137Y92987D01*
X781325Y92612D01*
X781700Y92237D01*
X782075Y92050D01*
X782824D01*
X783199Y92237D01*
X783574Y92612D01*
X783762Y92987D01*
X785055Y95049D02*
Y95236D01*
X785242Y95611D01*
X785430Y95799D01*
X785805Y95986D01*
X786554D01*
X786929Y95799D01*
X787117Y95611D01*
X787304Y95236D01*
Y94862D01*
X787117Y94487D01*
X786742Y93924D01*
X784867Y92050D01*
X787492D01*
X725312Y152999D02*
X725124Y153374D01*
X724749Y153749D01*
X724374Y153936D01*
X723625D01*
X723250Y153749D01*
X722875Y153374D01*
X722687Y152999D01*
X722500Y152437D01*
Y151499D01*
X722687Y150937D01*
X722875Y150562D01*
X723250Y150187D01*
X723625Y150000D01*
X724374D01*
X724749Y150187D01*
X725124Y150562D01*
X725312Y150937D01*
X726417Y153186D02*
X726792Y153374D01*
X727355Y153936D01*
Y150000D01*
X465800Y32536D02*
Y28600D01*
Y32536D02*
X467487D01*
X468049Y32349D01*
X468237Y32161D01*
X468424Y31786D01*
Y31411D01*
X468237Y31037D01*
X468049Y30849D01*
X467487Y30662D01*
X465800D01*
X467112D02*
X468424Y28600D01*
X469305Y31786D02*
X469680Y31974D01*
X470242Y32536D01*
Y28600D01*
X474441Y31974D02*
X474253Y32349D01*
X473691Y32536D01*
X473316D01*
X472754Y32349D01*
X472379Y31786D01*
X472192Y30849D01*
Y29912D01*
X472379Y29162D01*
X472754Y28787D01*
X473316Y28600D01*
X473504D01*
X474066Y28787D01*
X474441Y29162D01*
X474628Y29725D01*
Y29912D01*
X474441Y30474D01*
X474066Y30849D01*
X473504Y31037D01*
X473316D01*
X472754Y30849D01*
X472379Y30474D01*
X472192Y29912D01*
X449900Y32536D02*
Y28600D01*
Y32536D02*
X451587D01*
X452149Y32349D01*
X452337Y32161D01*
X452524Y31786D01*
Y31411D01*
X452337Y31037D01*
X452149Y30849D01*
X451587Y30662D01*
X449900D01*
X451212D02*
X452524Y28600D01*
X453405Y31786D02*
X453780Y31974D01*
X454342Y32536D01*
Y28600D01*
X458541Y32536D02*
X456666D01*
X456479Y30849D01*
X456666Y31037D01*
X457229Y31224D01*
X457791D01*
X458353Y31037D01*
X458728Y30662D01*
X458916Y30099D01*
Y29725D01*
X458728Y29162D01*
X458353Y28787D01*
X457791Y28600D01*
X457229D01*
X456666Y28787D01*
X456479Y28975D01*
X456292Y29350D01*
X544800Y19036D02*
Y15100D01*
Y19036D02*
X546487D01*
X547049Y18849D01*
X547237Y18661D01*
X547424Y18286D01*
Y17911D01*
X547237Y17537D01*
X547049Y17349D01*
X546487Y17162D01*
X544800D01*
X546112D02*
X547424Y15100D01*
X548305Y18286D02*
X548680Y18474D01*
X549242Y19036D01*
Y15100D01*
X551379Y18099D02*
Y18286D01*
X551566Y18661D01*
X551754Y18849D01*
X552129Y19036D01*
X552879D01*
X553253Y18849D01*
X553441Y18661D01*
X553628Y18286D01*
Y17911D01*
X553441Y17537D01*
X553066Y16974D01*
X551192Y15100D01*
X553816D01*
X575300Y19036D02*
Y15100D01*
Y19036D02*
X576987D01*
X577549Y18849D01*
X577737Y18661D01*
X577924Y18286D01*
Y17911D01*
X577737Y17537D01*
X577549Y17349D01*
X576987Y17162D01*
X575300D01*
X576612D02*
X577924Y15100D01*
X578805Y18286D02*
X579180Y18474D01*
X579742Y19036D01*
Y15100D01*
X582816Y19036D02*
X582254Y18849D01*
X581879Y18286D01*
X581692Y17349D01*
Y16787D01*
X581879Y15850D01*
X582254Y15287D01*
X582816Y15100D01*
X583191D01*
X583753Y15287D01*
X584128Y15850D01*
X584316Y16787D01*
Y17349D01*
X584128Y18286D01*
X583753Y18849D01*
X583191Y19036D01*
X582816D01*
X560300D02*
Y15100D01*
Y19036D02*
X561987D01*
X562549Y18849D01*
X562737Y18661D01*
X562924Y18286D01*
Y17911D01*
X562737Y17537D01*
X562549Y17349D01*
X561987Y17162D01*
X560300D01*
X561612D02*
X562924Y15100D01*
X566242Y17724D02*
X566054Y17162D01*
X565679Y16787D01*
X565117Y16600D01*
X564930D01*
X564367Y16787D01*
X563993Y17162D01*
X563805Y17724D01*
Y17911D01*
X563993Y18474D01*
X564367Y18849D01*
X564930Y19036D01*
X565117D01*
X565679Y18849D01*
X566054Y18474D01*
X566242Y17724D01*
Y16787D01*
X566054Y15850D01*
X565679Y15287D01*
X565117Y15100D01*
X564742D01*
X564180Y15287D01*
X563993Y15662D01*
X590800Y19036D02*
Y15100D01*
Y19036D02*
X592487D01*
X593049Y18849D01*
X593237Y18661D01*
X593424Y18286D01*
Y17911D01*
X593237Y17537D01*
X593049Y17349D01*
X592487Y17162D01*
X590800D01*
X592112D02*
X593424Y15100D01*
X595242Y19036D02*
X594680Y18849D01*
X594492Y18474D01*
Y18099D01*
X594680Y17724D01*
X595055Y17537D01*
X595805Y17349D01*
X596367Y17162D01*
X596742Y16787D01*
X596929Y16412D01*
Y15850D01*
X596742Y15475D01*
X596554Y15287D01*
X595992Y15100D01*
X595242D01*
X594680Y15287D01*
X594492Y15475D01*
X594305Y15850D01*
Y16412D01*
X594492Y16787D01*
X594867Y17162D01*
X595430Y17349D01*
X596179Y17537D01*
X596554Y17724D01*
X596742Y18099D01*
Y18474D01*
X596554Y18849D01*
X595992Y19036D01*
X595242D01*
X635200Y38336D02*
Y34400D01*
Y38336D02*
X636887D01*
X637449Y38149D01*
X637637Y37961D01*
X637824Y37586D01*
Y37211D01*
X637637Y36837D01*
X637449Y36649D01*
X636887Y36462D01*
X635200D01*
X636512D02*
X637824Y34400D01*
X640954Y38336D02*
X639080D01*
X638893Y36649D01*
X639080Y36837D01*
X639642Y37024D01*
X640205D01*
X640767Y36837D01*
X641142Y36462D01*
X641329Y35899D01*
Y35525D01*
X641142Y34962D01*
X640767Y34587D01*
X640205Y34400D01*
X639642D01*
X639080Y34587D01*
X638893Y34775D01*
X638705Y35150D01*
X420311Y93499D02*
X420124Y93874D01*
X419749Y94249D01*
X419374Y94436D01*
X418625D01*
X418250Y94249D01*
X417875Y93874D01*
X417687Y93499D01*
X417500Y92937D01*
Y92000D01*
X417687Y91437D01*
X417875Y91062D01*
X418250Y90687D01*
X418625Y90500D01*
X419374D01*
X419749Y90687D01*
X420124Y91062D01*
X420311Y91437D01*
X421417Y93686D02*
X421792Y93874D01*
X422355Y94436D01*
Y90500D01*
X426741Y93124D02*
X426553Y92562D01*
X426178Y92187D01*
X425616Y92000D01*
X425429D01*
X424866Y92187D01*
X424491Y92562D01*
X424304Y93124D01*
Y93312D01*
X424491Y93874D01*
X424866Y94249D01*
X425429Y94436D01*
X425616D01*
X426178Y94249D01*
X426553Y93874D01*
X426741Y93124D01*
Y92187D01*
X426553Y91250D01*
X426178Y90687D01*
X425616Y90500D01*
X425241D01*
X424679Y90687D01*
X424491Y91062D01*
X478311Y89999D02*
X478124Y90374D01*
X477749Y90749D01*
X477374Y90936D01*
X476625D01*
X476250Y90749D01*
X475875Y90374D01*
X475687Y89999D01*
X475500Y89437D01*
Y88499D01*
X475687Y87937D01*
X475875Y87562D01*
X476250Y87187D01*
X476625Y87000D01*
X477374D01*
X477749Y87187D01*
X478124Y87562D01*
X478311Y87937D01*
X479417Y90186D02*
X479792Y90374D01*
X480355Y90936D01*
Y87000D01*
X483241Y90936D02*
X482679Y90749D01*
X482491Y90374D01*
Y89999D01*
X482679Y89624D01*
X483054Y89437D01*
X483803Y89249D01*
X484366Y89062D01*
X484741Y88687D01*
X484928Y88312D01*
Y87750D01*
X484741Y87375D01*
X484553Y87187D01*
X483991Y87000D01*
X483241D01*
X482679Y87187D01*
X482491Y87375D01*
X482304Y87750D01*
Y88312D01*
X482491Y88687D01*
X482866Y89062D01*
X483429Y89249D01*
X484178Y89437D01*
X484553Y89624D01*
X484741Y89999D01*
Y90374D01*
X484553Y90749D01*
X483991Y90936D01*
X483241D01*
X454811Y92499D02*
X454624Y92874D01*
X454249Y93249D01*
X453874Y93436D01*
X453125D01*
X452750Y93249D01*
X452375Y92874D01*
X452187Y92499D01*
X452000Y91937D01*
Y91000D01*
X452187Y90437D01*
X452375Y90062D01*
X452750Y89687D01*
X453125Y89500D01*
X453874D01*
X454249Y89687D01*
X454624Y90062D01*
X454811Y90437D01*
X455917Y92686D02*
X456292Y92874D01*
X456855Y93436D01*
Y89500D01*
X458991Y92499D02*
Y92686D01*
X459179Y93061D01*
X459366Y93249D01*
X459741Y93436D01*
X460491D01*
X460866Y93249D01*
X461053Y93061D01*
X461241Y92686D01*
Y92312D01*
X461053Y91937D01*
X460678Y91374D01*
X458804Y89500D01*
X461428D01*
X508312Y34499D02*
X508124Y34874D01*
X507749Y35249D01*
X507374Y35436D01*
X506625D01*
X506250Y35249D01*
X505875Y34874D01*
X505687Y34499D01*
X505500Y33937D01*
Y33000D01*
X505687Y32437D01*
X505875Y32062D01*
X506250Y31687D01*
X506625Y31500D01*
X507374D01*
X507749Y31687D01*
X508124Y32062D01*
X508312Y32437D01*
X511854Y34124D02*
X511667Y33562D01*
X511292Y33187D01*
X510730Y33000D01*
X510542D01*
X509980Y33187D01*
X509605Y33562D01*
X509417Y34124D01*
Y34312D01*
X509605Y34874D01*
X509980Y35249D01*
X510542Y35436D01*
X510730D01*
X511292Y35249D01*
X511667Y34874D01*
X511854Y34124D01*
Y33187D01*
X511667Y32250D01*
X511292Y31687D01*
X510730Y31500D01*
X510355D01*
X509792Y31687D01*
X509605Y32062D01*
X653311Y17999D02*
X653124Y18374D01*
X652749Y18749D01*
X652374Y18936D01*
X651625D01*
X651250Y18749D01*
X650875Y18374D01*
X650687Y17999D01*
X650500Y17437D01*
Y16499D01*
X650687Y15937D01*
X650875Y15562D01*
X651250Y15187D01*
X651625Y15000D01*
X652374D01*
X652749Y15187D01*
X653124Y15562D01*
X653311Y15937D01*
X655355Y18936D02*
X654792Y18749D01*
X654605Y18374D01*
Y17999D01*
X654792Y17624D01*
X655167Y17437D01*
X655917Y17249D01*
X656479Y17062D01*
X656854Y16687D01*
X657042Y16312D01*
Y15750D01*
X656854Y15375D01*
X656667Y15187D01*
X656104Y15000D01*
X655355D01*
X654792Y15187D01*
X654605Y15375D01*
X654417Y15750D01*
Y16312D01*
X654605Y16687D01*
X654980Y17062D01*
X655542Y17249D01*
X656292Y17437D01*
X656667Y17624D01*
X656854Y17999D01*
Y18374D01*
X656667Y18749D01*
X656104Y18936D01*
X655355D01*
X590974Y67024D02*
X590599Y67399D01*
X590037Y67586D01*
X589287D01*
X588725Y67399D01*
X588350Y67024D01*
Y66649D01*
X588537Y66274D01*
X588725Y66087D01*
X589100Y65899D01*
X590224Y65524D01*
X590599Y65337D01*
X590787Y65149D01*
X590974Y64775D01*
Y64212D01*
X590599Y63837D01*
X590037Y63650D01*
X589287D01*
X588725Y63837D01*
X588350Y64212D01*
X591855Y66836D02*
X592230Y67024D01*
X592792Y67586D01*
Y63650D01*
X310900Y307036D02*
Y303100D01*
Y307036D02*
X312587D01*
X313149Y306849D01*
X313337Y306661D01*
X313524Y306286D01*
Y305911D01*
X313337Y305537D01*
X313149Y305349D01*
X312587Y305162D01*
X310900D01*
X312212D02*
X313524Y303100D01*
X314405Y307036D02*
X315905Y303100D01*
X317404Y307036D02*
X315905Y303100D01*
X317910Y306286D02*
X318285Y306474D01*
X318847Y307036D01*
Y303100D01*
X277300Y299536D02*
Y295600D01*
Y299536D02*
X278987D01*
X279549Y299349D01*
X279737Y299161D01*
X279924Y298786D01*
Y298411D01*
X279737Y298037D01*
X279549Y297849D01*
X278987Y297662D01*
X277300D01*
X278612D02*
X279924Y295600D01*
X280993Y298599D02*
Y298786D01*
X281180Y299161D01*
X281367Y299349D01*
X281742Y299536D01*
X282492D01*
X282867Y299349D01*
X283054Y299161D01*
X283242Y298786D01*
Y298411D01*
X283054Y298037D01*
X282679Y297474D01*
X280805Y295600D01*
X283429D01*
X286934Y299536D02*
X285060Y295600D01*
X284310Y299536D02*
X286934D01*
X438300Y67536D02*
Y63600D01*
Y67536D02*
X439987D01*
X440549Y67349D01*
X440737Y67161D01*
X440924Y66786D01*
Y66412D01*
X440737Y66037D01*
X440549Y65849D01*
X439987Y65662D01*
X438300D01*
X439612D02*
X440924Y63600D01*
X441993Y66599D02*
Y66786D01*
X442180Y67161D01*
X442367Y67349D01*
X442742Y67536D01*
X443492D01*
X443867Y67349D01*
X444054Y67161D01*
X444242Y66786D01*
Y66412D01*
X444054Y66037D01*
X443679Y65474D01*
X441805Y63600D01*
X444429D01*
X447559Y67536D02*
X445685D01*
X445498Y65849D01*
X445685Y66037D01*
X446247Y66224D01*
X446810D01*
X447372Y66037D01*
X447747Y65662D01*
X447934Y65100D01*
Y64725D01*
X447747Y64162D01*
X447372Y63787D01*
X446810Y63600D01*
X446247D01*
X445685Y63787D01*
X445498Y63975D01*
X445310Y64350D01*
X614300Y67536D02*
Y63600D01*
Y67536D02*
X615987D01*
X616549Y67349D01*
X616737Y67161D01*
X616924Y66786D01*
Y66412D01*
X616737Y66037D01*
X616549Y65849D01*
X615987Y65662D01*
X614300D01*
X615612D02*
X616924Y63600D01*
X617992Y66599D02*
Y66786D01*
X618180Y67161D01*
X618367Y67349D01*
X618742Y67536D01*
X619492D01*
X619867Y67349D01*
X620054Y67161D01*
X620242Y66786D01*
Y66412D01*
X620054Y66037D01*
X619679Y65474D01*
X617805Y63600D01*
X620429D01*
X623184Y67536D02*
X621310Y64912D01*
X624122D01*
X623184Y67536D02*
Y63600D01*
X688300Y67536D02*
Y63600D01*
Y67536D02*
X689987D01*
X690549Y67349D01*
X690737Y67161D01*
X690924Y66786D01*
Y66412D01*
X690737Y66037D01*
X690549Y65849D01*
X689987Y65662D01*
X688300D01*
X689612D02*
X690924Y63600D01*
X691993Y66599D02*
Y66786D01*
X692180Y67161D01*
X692367Y67349D01*
X692742Y67536D01*
X693492D01*
X693867Y67349D01*
X694054Y67161D01*
X694242Y66786D01*
Y66412D01*
X694054Y66037D01*
X693679Y65474D01*
X691805Y63600D01*
X694429D01*
X695498Y66599D02*
Y66786D01*
X695685Y67161D01*
X695872Y67349D01*
X696247Y67536D01*
X696997D01*
X697372Y67349D01*
X697559Y67161D01*
X697747Y66786D01*
Y66412D01*
X697559Y66037D01*
X697185Y65474D01*
X695310Y63600D01*
X697934D01*
X720300Y67536D02*
Y63600D01*
Y67536D02*
X721987D01*
X722549Y67349D01*
X722737Y67161D01*
X722924Y66786D01*
Y66412D01*
X722737Y66037D01*
X722549Y65849D01*
X721987Y65662D01*
X720300D01*
X721612D02*
X722924Y63600D01*
X723992Y66599D02*
Y66786D01*
X724180Y67161D01*
X724367Y67349D01*
X724742Y67536D01*
X725492D01*
X725867Y67349D01*
X726054Y67161D01*
X726242Y66786D01*
Y66412D01*
X726054Y66037D01*
X725679Y65474D01*
X723805Y63600D01*
X726429D01*
X728435Y67536D02*
X727872Y67349D01*
X727498Y66786D01*
X727310Y65849D01*
Y65287D01*
X727498Y64350D01*
X727872Y63787D01*
X728435Y63600D01*
X728810D01*
X729372Y63787D01*
X729747Y64350D01*
X729934Y65287D01*
Y65849D01*
X729747Y66786D01*
X729372Y67349D01*
X728810Y67536D01*
X728435D01*
X751800D02*
Y63600D01*
Y67536D02*
X753487D01*
X754049Y67349D01*
X754237Y67161D01*
X754424Y66786D01*
Y66412D01*
X754237Y66037D01*
X754049Y65849D01*
X753487Y65662D01*
X751800D01*
X753112D02*
X754424Y63600D01*
X755305Y66786D02*
X755680Y66974D01*
X756242Y67536D01*
Y63600D01*
X760816Y67536D02*
X758941Y63600D01*
X758192Y67536D02*
X760816D01*
X661900Y110036D02*
Y106100D01*
Y110036D02*
X663587D01*
X664149Y109849D01*
X664337Y109661D01*
X664524Y109286D01*
Y108912D01*
X664337Y108537D01*
X664149Y108349D01*
X663587Y108162D01*
X661900D01*
X663212D02*
X664524Y106100D01*
X665405Y109286D02*
X665780Y109474D01*
X666342Y110036D01*
Y106100D01*
X670728Y108724D02*
X670541Y108162D01*
X670166Y107787D01*
X669604Y107599D01*
X669416D01*
X668854Y107787D01*
X668479Y108162D01*
X668292Y108724D01*
Y108912D01*
X668479Y109474D01*
X668854Y109849D01*
X669416Y110036D01*
X669604D01*
X670166Y109849D01*
X670541Y109474D01*
X670728Y108724D01*
Y107787D01*
X670541Y106850D01*
X670166Y106287D01*
X669604Y106100D01*
X669229D01*
X668666Y106287D01*
X668479Y106662D01*
X467350Y18986D02*
Y15050D01*
Y18986D02*
X469037D01*
X469599Y18799D01*
X469787Y18611D01*
X469974Y18236D01*
Y17862D01*
X469787Y17487D01*
X469599Y17299D01*
X469037Y17112D01*
X467350D01*
X468662D02*
X469974Y15050D01*
X472729Y18986D02*
X470855Y16362D01*
X473667D01*
X472729Y18986D02*
Y15050D01*
X498850Y18986D02*
Y15050D01*
Y18986D02*
X500537D01*
X501099Y18799D01*
X501287Y18611D01*
X501474Y18236D01*
Y17862D01*
X501287Y17487D01*
X501099Y17299D01*
X500537Y17112D01*
X498850D01*
X500162D02*
X501474Y15050D01*
X502730Y18986D02*
X504792D01*
X503667Y17487D01*
X504229D01*
X504604Y17299D01*
X504792Y17112D01*
X504979Y16549D01*
Y16175D01*
X504792Y15612D01*
X504417Y15237D01*
X503855Y15050D01*
X503292D01*
X502730Y15237D01*
X502542Y15425D01*
X502355Y15800D01*
X513350Y18986D02*
Y15050D01*
Y18986D02*
X515037D01*
X515599Y18799D01*
X515787Y18611D01*
X515974Y18236D01*
Y17862D01*
X515787Y17487D01*
X515599Y17299D01*
X515037Y17112D01*
X513350D01*
X514662D02*
X515974Y15050D01*
X517042Y18049D02*
Y18236D01*
X517230Y18611D01*
X517417Y18799D01*
X517792Y18986D01*
X518542D01*
X518917Y18799D01*
X519104Y18611D01*
X519292Y18236D01*
Y17862D01*
X519104Y17487D01*
X518729Y16924D01*
X516855Y15050D01*
X519479D01*
X540400Y30536D02*
Y26600D01*
Y30536D02*
X542087D01*
X542649Y30349D01*
X542837Y30161D01*
X543024Y29786D01*
Y29412D01*
X542837Y29037D01*
X542649Y28849D01*
X542087Y28662D01*
X540400D01*
X541712D02*
X543024Y26600D01*
X543905Y29786D02*
X544280Y29974D01*
X544842Y30536D01*
Y26600D01*
X300854Y251155D02*
X300479Y250968D01*
X300104Y250593D01*
X299917Y250218D01*
X299729Y249656D01*
Y248719D01*
X299917Y248156D01*
X300104Y247782D01*
X300479Y247407D01*
X300854Y247219D01*
X301604D01*
X301978Y247407D01*
X302353Y247782D01*
X302541Y248156D01*
X302728Y248719D01*
Y249656D01*
X302541Y250218D01*
X302353Y250593D01*
X301978Y250968D01*
X301604Y251155D01*
X300854D01*
X301416Y247969D02*
X302541Y246845D01*
X303834Y250218D02*
Y250406D01*
X304022Y250781D01*
X304209Y250968D01*
X304584Y251155D01*
X305334D01*
X305709Y250968D01*
X305896Y250781D01*
X306083Y250406D01*
Y250031D01*
X305896Y249656D01*
X305521Y249094D01*
X303647Y247219D01*
X306271D01*
X312225Y280636D02*
X311850Y280449D01*
X311475Y280074D01*
X311287Y279699D01*
X311100Y279137D01*
Y278200D01*
X311287Y277637D01*
X311475Y277262D01*
X311850Y276887D01*
X312225Y276700D01*
X312974D01*
X313349Y276887D01*
X313724Y277262D01*
X313912Y277637D01*
X314099Y278200D01*
Y279137D01*
X313912Y279699D01*
X313724Y280074D01*
X313349Y280449D01*
X312974Y280636D01*
X312225D01*
X312787Y277450D02*
X313912Y276325D01*
X315017Y279886D02*
X315392Y280074D01*
X315955Y280636D01*
Y276700D01*
X570400Y68136D02*
Y64200D01*
Y68136D02*
X573024Y64200D01*
Y68136D02*
Y64200D01*
X575423Y68136D02*
Y64200D01*
X574111Y68136D02*
X576735D01*
X577391Y67199D02*
Y67386D01*
X577579Y67761D01*
X577766Y67949D01*
X578141Y68136D01*
X578891D01*
X579266Y67949D01*
X579453Y67761D01*
X579641Y67386D01*
Y67011D01*
X579453Y66637D01*
X579078Y66074D01*
X577204Y64200D01*
X579828D01*
X555700Y79536D02*
Y75600D01*
Y79536D02*
X558324Y75600D01*
Y79536D02*
Y75600D01*
X560723Y79536D02*
Y75600D01*
X559411Y79536D02*
X562035D01*
X562504Y78786D02*
X562879Y78974D01*
X563441Y79536D01*
Y75600D01*
X486400Y67336D02*
Y63400D01*
X490036Y66399D02*
X489849Y66774D01*
X489474Y67149D01*
X489099Y67336D01*
X488349D01*
X487975Y67149D01*
X487600Y66774D01*
X487412Y66399D01*
X487225Y65837D01*
Y64899D01*
X487412Y64337D01*
X487600Y63962D01*
X487975Y63587D01*
X488349Y63400D01*
X489099D01*
X489474Y63587D01*
X489849Y63962D01*
X490036Y64337D01*
X493766Y67336D02*
X491892Y63400D01*
X491142Y67336D02*
X493766D01*
X296900Y310936D02*
Y307000D01*
X300536Y309999D02*
X300349Y310374D01*
X299974Y310749D01*
X299599Y310936D01*
X298849D01*
X298475Y310749D01*
X298100Y310374D01*
X297912Y309999D01*
X297725Y309437D01*
Y308500D01*
X297912Y307937D01*
X298100Y307562D01*
X298475Y307187D01*
X298849Y307000D01*
X299599D01*
X299974Y307187D01*
X300349Y307562D01*
X300536Y307937D01*
X302017Y310936D02*
X304079D01*
X302954Y309437D01*
X303517D01*
X303891Y309249D01*
X304079Y309062D01*
X304266Y308500D01*
Y308125D01*
X304079Y307562D01*
X303704Y307187D01*
X303142Y307000D01*
X302579D01*
X302017Y307187D01*
X301830Y307375D01*
X301642Y307750D01*
X803500Y67736D02*
Y63800D01*
X807136Y66799D02*
X806949Y67174D01*
X806574Y67549D01*
X806199Y67736D01*
X805449D01*
X805075Y67549D01*
X804700Y67174D01*
X804512Y66799D01*
X804325Y66237D01*
Y65299D01*
X804512Y64737D01*
X804700Y64362D01*
X805075Y63987D01*
X805449Y63800D01*
X806199D01*
X806574Y63987D01*
X806949Y64362D01*
X807136Y64737D01*
X808242Y66986D02*
X808617Y67174D01*
X809179Y67736D01*
Y63800D01*
X839950Y67686D02*
Y63750D01*
X843586Y66749D02*
X843399Y67124D01*
X843024Y67499D01*
X842649Y67686D01*
X841899D01*
X841525Y67499D01*
X841150Y67124D01*
X840962Y66749D01*
X840775Y66187D01*
Y65250D01*
X840962Y64687D01*
X841150Y64312D01*
X841525Y63937D01*
X841899Y63750D01*
X842649D01*
X843024Y63937D01*
X843399Y64312D01*
X843586Y64687D01*
X844880Y66749D02*
Y66936D01*
X845067Y67311D01*
X845254Y67499D01*
X845629Y67686D01*
X846379D01*
X846754Y67499D01*
X846941Y67311D01*
X847129Y66936D01*
Y66562D01*
X846941Y66187D01*
X846566Y65624D01*
X844692Y63750D01*
X847316D01*
X674200Y67536D02*
Y63600D01*
Y67536D02*
X675512D01*
X676074Y67349D01*
X676449Y66974D01*
X676637Y66599D01*
X676824Y66037D01*
Y65100D01*
X676637Y64537D01*
X676449Y64162D01*
X676074Y63787D01*
X675512Y63600D01*
X674200D01*
X680329Y67536D02*
X678455Y63600D01*
X677705Y67536D02*
X680329D01*
X660700D02*
Y63600D01*
Y67536D02*
X662012D01*
X662574Y67349D01*
X662949Y66974D01*
X663137Y66599D01*
X663324Y66037D01*
Y65100D01*
X663137Y64537D01*
X662949Y64162D01*
X662574Y63787D01*
X662012Y63600D01*
X660700D01*
X665142Y67536D02*
X664580Y67349D01*
X664393Y66974D01*
Y66599D01*
X664580Y66224D01*
X664955Y66037D01*
X665705Y65849D01*
X666267Y65662D01*
X666642Y65287D01*
X666829Y64912D01*
Y64350D01*
X666642Y63975D01*
X666454Y63787D01*
X665892Y63600D01*
X665142D01*
X664580Y63787D01*
X664393Y63975D01*
X664205Y64350D01*
Y64912D01*
X664393Y65287D01*
X664767Y65662D01*
X665330Y65849D01*
X666079Y66037D01*
X666454Y66224D01*
X666642Y66599D01*
Y66974D01*
X666454Y67349D01*
X665892Y67536D01*
X665142D01*
X646700D02*
Y63600D01*
Y67536D02*
X648012D01*
X648574Y67349D01*
X648949Y66974D01*
X649137Y66599D01*
X649324Y66037D01*
Y65100D01*
X649137Y64537D01*
X648949Y64162D01*
X648574Y63787D01*
X648012Y63600D01*
X646700D01*
X652642Y66224D02*
X652454Y65662D01*
X652079Y65287D01*
X651517Y65100D01*
X651330D01*
X650767Y65287D01*
X650392Y65662D01*
X650205Y66224D01*
Y66412D01*
X650392Y66974D01*
X650767Y67349D01*
X651330Y67536D01*
X651517D01*
X652079Y67349D01*
X652454Y66974D01*
X652642Y66224D01*
Y65287D01*
X652454Y64350D01*
X652079Y63787D01*
X651517Y63600D01*
X651142D01*
X650580Y63787D01*
X650392Y64162D01*
X784000Y67636D02*
Y63700D01*
Y67636D02*
X785312D01*
X785874Y67449D01*
X786249Y67074D01*
X786437Y66699D01*
X786624Y66137D01*
Y65200D01*
X786437Y64637D01*
X786249Y64262D01*
X785874Y63887D01*
X785312Y63700D01*
X784000D01*
X789754Y67074D02*
X789567Y67449D01*
X789005Y67636D01*
X788630D01*
X788067Y67449D01*
X787692Y66886D01*
X787505Y65949D01*
Y65012D01*
X787692Y64262D01*
X788067Y63887D01*
X788630Y63700D01*
X788817D01*
X789379Y63887D01*
X789754Y64262D01*
X789942Y64825D01*
Y65012D01*
X789754Y65574D01*
X789379Y65949D01*
X788817Y66137D01*
X788630D01*
X788067Y65949D01*
X787692Y65574D01*
X787505Y65012D01*
X399800Y18936D02*
Y15000D01*
Y18936D02*
X401112D01*
X401674Y18749D01*
X402049Y18374D01*
X402237Y17999D01*
X402424Y17437D01*
Y16499D01*
X402237Y15937D01*
X402049Y15562D01*
X401674Y15187D01*
X401112Y15000D01*
X399800D01*
X405554Y18936D02*
X403680D01*
X403492Y17249D01*
X403680Y17437D01*
X404242Y17624D01*
X404805D01*
X405367Y17437D01*
X405742Y17062D01*
X405929Y16499D01*
Y16125D01*
X405742Y15562D01*
X405367Y15187D01*
X404805Y15000D01*
X404242D01*
X403680Y15187D01*
X403492Y15375D01*
X403305Y15750D01*
X438800Y93436D02*
Y89500D01*
Y93436D02*
X440112D01*
X440674Y93249D01*
X441049Y92874D01*
X441237Y92499D01*
X441424Y91937D01*
Y91000D01*
X441237Y90437D01*
X441049Y90062D01*
X440674Y89687D01*
X440112Y89500D01*
X438800D01*
X444179Y93436D02*
X442305Y90812D01*
X445117D01*
X444179Y93436D02*
Y89500D01*
X432800Y47936D02*
Y44000D01*
Y47936D02*
X434112D01*
X434674Y47749D01*
X435049Y47374D01*
X435237Y46999D01*
X435424Y46437D01*
Y45500D01*
X435237Y44937D01*
X435049Y44562D01*
X434674Y44187D01*
X434112Y44000D01*
X432800D01*
X436680Y47936D02*
X438742D01*
X437617Y46437D01*
X438179D01*
X438554Y46249D01*
X438742Y46062D01*
X438929Y45500D01*
Y45125D01*
X438742Y44562D01*
X438367Y44187D01*
X437805Y44000D01*
X437242D01*
X436680Y44187D01*
X436492Y44375D01*
X436305Y44750D01*
X454800Y18936D02*
Y15000D01*
Y18936D02*
X456112D01*
X456674Y18749D01*
X457049Y18374D01*
X457237Y17999D01*
X457424Y17437D01*
Y16499D01*
X457237Y15937D01*
X457049Y15562D01*
X456674Y15187D01*
X456112Y15000D01*
X454800D01*
X458305Y18186D02*
X458680Y18374D01*
X459242Y18936D01*
Y15000D01*
X472812Y66499D02*
X472624Y66874D01*
X472249Y67249D01*
X471874Y67436D01*
X471125D01*
X470750Y67249D01*
X470375Y66874D01*
X470187Y66499D01*
X470000Y65937D01*
Y65000D01*
X470187Y64437D01*
X470375Y64062D01*
X470750Y63687D01*
X471125Y63500D01*
X471874D01*
X472249Y63687D01*
X472624Y64062D01*
X472812Y64437D01*
X474105Y66499D02*
Y66686D01*
X474292Y67061D01*
X474480Y67249D01*
X474855Y67436D01*
X475604D01*
X475979Y67249D01*
X476167Y67061D01*
X476354Y66686D01*
Y66312D01*
X476167Y65937D01*
X475792Y65374D01*
X473917Y63500D01*
X476542D01*
X477423Y66686D02*
X477797Y66874D01*
X478360Y67436D01*
Y63500D01*
X424311Y66499D02*
X424124Y66874D01*
X423749Y67249D01*
X423374Y67436D01*
X422625D01*
X422250Y67249D01*
X421875Y66874D01*
X421687Y66499D01*
X421500Y65937D01*
Y65000D01*
X421687Y64437D01*
X421875Y64062D01*
X422250Y63687D01*
X422625Y63500D01*
X423374D01*
X423749Y63687D01*
X424124Y64062D01*
X424311Y64437D01*
X425605Y66499D02*
Y66686D01*
X425792Y67061D01*
X425980Y67249D01*
X426355Y67436D01*
X427104D01*
X427479Y67249D01*
X427667Y67061D01*
X427854Y66686D01*
Y66312D01*
X427667Y65937D01*
X427292Y65374D01*
X425417Y63500D01*
X428042D01*
X430047Y67436D02*
X429485Y67249D01*
X429110Y66686D01*
X428923Y65749D01*
Y65187D01*
X429110Y64250D01*
X429485Y63687D01*
X430047Y63500D01*
X430422D01*
X430984Y63687D01*
X431359Y64250D01*
X431547Y65187D01*
Y65749D01*
X431359Y66686D01*
X430984Y67249D01*
X430422Y67436D01*
X430047D01*
X510812Y66499D02*
X510624Y66874D01*
X510249Y67249D01*
X509874Y67436D01*
X509125D01*
X508750Y67249D01*
X508375Y66874D01*
X508187Y66499D01*
X508000Y65937D01*
Y65000D01*
X508187Y64437D01*
X508375Y64062D01*
X508750Y63687D01*
X509125Y63500D01*
X509874D01*
X510249Y63687D01*
X510624Y64062D01*
X510812Y64437D01*
X511917Y66686D02*
X512292Y66874D01*
X512855Y67436D01*
Y63500D01*
X517053Y67436D02*
X515179D01*
X514991Y65749D01*
X515179Y65937D01*
X515741Y66124D01*
X516303D01*
X516866Y65937D01*
X517241Y65562D01*
X517428Y65000D01*
Y64625D01*
X517241Y64062D01*
X516866Y63687D01*
X516303Y63500D01*
X515741D01*
X515179Y63687D01*
X514991Y63875D01*
X514804Y64250D01*
X544312Y66499D02*
X544124Y66874D01*
X543749Y67249D01*
X543374Y67436D01*
X542625D01*
X542250Y67249D01*
X541875Y66874D01*
X541687Y66499D01*
X541500Y65937D01*
Y65000D01*
X541687Y64437D01*
X541875Y64062D01*
X542250Y63687D01*
X542625Y63500D01*
X543374D01*
X543749Y63687D01*
X544124Y64062D01*
X544312Y64437D01*
X545417Y66686D02*
X545792Y66874D01*
X546355Y67436D01*
Y63500D01*
X550928Y67436D02*
X549054Y63500D01*
X548304Y67436D02*
X550928D01*
X527811Y66499D02*
X527624Y66874D01*
X527249Y67249D01*
X526874Y67436D01*
X526125D01*
X525750Y67249D01*
X525375Y66874D01*
X525187Y66499D01*
X525000Y65937D01*
Y65000D01*
X525187Y64437D01*
X525375Y64062D01*
X525750Y63687D01*
X526125Y63500D01*
X526874D01*
X527249Y63687D01*
X527624Y64062D01*
X527811Y64437D01*
X528917Y66686D02*
X529292Y66874D01*
X529855Y67436D01*
Y63500D01*
X534053Y66874D02*
X533866Y67249D01*
X533303Y67436D01*
X532929D01*
X532366Y67249D01*
X531991Y66686D01*
X531804Y65749D01*
Y64812D01*
X531991Y64062D01*
X532366Y63687D01*
X532929Y63500D01*
X533116D01*
X533678Y63687D01*
X534053Y64062D01*
X534241Y64625D01*
Y64812D01*
X534053Y65374D01*
X533678Y65749D01*
X533116Y65937D01*
X532929D01*
X532366Y65749D01*
X531991Y65374D01*
X531804Y64812D01*
X632811Y66499D02*
X632624Y66874D01*
X632249Y67249D01*
X631874Y67436D01*
X631125D01*
X630750Y67249D01*
X630375Y66874D01*
X630187Y66499D01*
X630000Y65937D01*
Y65000D01*
X630187Y64437D01*
X630375Y64062D01*
X630750Y63687D01*
X631125Y63500D01*
X631874D01*
X632249Y63687D01*
X632624Y64062D01*
X632811Y64437D01*
X633917Y66686D02*
X634292Y66874D01*
X634855Y67436D01*
Y63500D01*
X638678Y67436D02*
X636804Y64812D01*
X639615D01*
X638678Y67436D02*
Y63500D01*
X706812Y66499D02*
X706624Y66874D01*
X706249Y67249D01*
X705874Y67436D01*
X705125D01*
X704750Y67249D01*
X704375Y66874D01*
X704187Y66499D01*
X704000Y65937D01*
Y65000D01*
X704187Y64437D01*
X704375Y64062D01*
X704750Y63687D01*
X705125Y63500D01*
X705874D01*
X706249Y63687D01*
X706624Y64062D01*
X706812Y64437D01*
X707917Y66686D02*
X708292Y66874D01*
X708855Y67436D01*
Y63500D01*
X711179Y67436D02*
X713241D01*
X712116Y65937D01*
X712678D01*
X713053Y65749D01*
X713241Y65562D01*
X713428Y65000D01*
Y64625D01*
X713241Y64062D01*
X712866Y63687D01*
X712303Y63500D01*
X711741D01*
X711179Y63687D01*
X710991Y63875D01*
X710804Y64250D01*
X738311Y66499D02*
X738124Y66874D01*
X737749Y67249D01*
X737374Y67436D01*
X736625D01*
X736250Y67249D01*
X735875Y66874D01*
X735687Y66499D01*
X735500Y65937D01*
Y65000D01*
X735687Y64437D01*
X735875Y64062D01*
X736250Y63687D01*
X736625Y63500D01*
X737374D01*
X737749Y63687D01*
X738124Y64062D01*
X738311Y64437D01*
X739417Y66686D02*
X739792Y66874D01*
X740355Y67436D01*
Y63500D01*
X742304Y66686D02*
X742679Y66874D01*
X743241Y67436D01*
Y63500D01*
X770311Y66499D02*
X770124Y66874D01*
X769749Y67249D01*
X769374Y67436D01*
X768625D01*
X768250Y67249D01*
X767875Y66874D01*
X767687Y66499D01*
X767500Y65937D01*
Y65000D01*
X767687Y64437D01*
X767875Y64062D01*
X768250Y63687D01*
X768625Y63500D01*
X769374D01*
X769749Y63687D01*
X770124Y64062D01*
X770311Y64437D01*
X771417Y66686D02*
X771792Y66874D01*
X772355Y67436D01*
Y63500D01*
X775429Y67436D02*
X774866Y67249D01*
X774491Y66686D01*
X774304Y65749D01*
Y65187D01*
X774491Y64250D01*
X774866Y63687D01*
X775429Y63500D01*
X775803D01*
X776366Y63687D01*
X776741Y64250D01*
X776928Y65187D01*
Y65749D01*
X776741Y66686D01*
X776366Y67249D01*
X775803Y67436D01*
X775429D01*
X861312Y66499D02*
X861124Y66874D01*
X860749Y67249D01*
X860374Y67436D01*
X859625D01*
X859250Y67249D01*
X858875Y66874D01*
X858687Y66499D01*
X858500Y65937D01*
Y65000D01*
X858687Y64437D01*
X858875Y64062D01*
X859250Y63687D01*
X859625Y63500D01*
X860374D01*
X860749Y63687D01*
X861124Y64062D01*
X861312Y64437D01*
X865042Y67436D02*
X863167Y63500D01*
X862417Y67436D02*
X865042D01*
X495311Y90499D02*
X495124Y90874D01*
X494749Y91249D01*
X494374Y91436D01*
X493625D01*
X493250Y91249D01*
X492875Y90874D01*
X492687Y90499D01*
X492500Y89937D01*
Y88999D01*
X492687Y88437D01*
X492875Y88062D01*
X493250Y87687D01*
X493625Y87500D01*
X494374D01*
X494749Y87687D01*
X495124Y88062D01*
X495311Y88437D01*
X498667Y90874D02*
X498479Y91249D01*
X497917Y91436D01*
X497542D01*
X496980Y91249D01*
X496605Y90686D01*
X496417Y89749D01*
Y88812D01*
X496605Y88062D01*
X496980Y87687D01*
X497542Y87500D01*
X497729D01*
X498292Y87687D01*
X498667Y88062D01*
X498854Y88625D01*
Y88812D01*
X498667Y89374D01*
X498292Y89749D01*
X497729Y89937D01*
X497542D01*
X496980Y89749D01*
X496605Y89374D01*
X496417Y88812D01*
X484811Y17999D02*
X484624Y18374D01*
X484249Y18749D01*
X483874Y18936D01*
X483125D01*
X482750Y18749D01*
X482375Y18374D01*
X482187Y17999D01*
X482000Y17437D01*
Y16499D01*
X482187Y15937D01*
X482375Y15562D01*
X482750Y15187D01*
X483125Y15000D01*
X483874D01*
X484249Y15187D01*
X484624Y15562D01*
X484811Y15937D01*
X488167Y18936D02*
X486292D01*
X486105Y17249D01*
X486292Y17437D01*
X486855Y17624D01*
X487417D01*
X487979Y17437D01*
X488354Y17062D01*
X488542Y16499D01*
Y16125D01*
X488354Y15562D01*
X487979Y15187D01*
X487417Y15000D01*
X486855D01*
X486292Y15187D01*
X486105Y15375D01*
X485917Y15750D01*
X224300Y300936D02*
Y298125D01*
X224487Y297562D01*
X224862Y297187D01*
X225425Y297000D01*
X225799D01*
X226362Y297187D01*
X226737Y297562D01*
X226924Y298125D01*
Y300936D01*
X228011Y300186D02*
X228386Y300374D01*
X228948Y300936D01*
Y297000D01*
X218174Y62407D02*
Y59408D01*
X217987Y58846D01*
X217799Y58658D01*
X217425Y58471D01*
X217050D01*
X216675Y58658D01*
X216487Y58846D01*
X216300Y59408D01*
Y59783D01*
X221811Y62407D02*
X219936Y58471D01*
X219186Y62407D02*
X221811D01*
X432600Y141636D02*
Y138825D01*
X432787Y138262D01*
X433162Y137887D01*
X433725Y137700D01*
X434099D01*
X434662Y137887D01*
X435037Y138262D01*
X435224Y138825D01*
Y141636D01*
X436499Y140699D02*
Y140886D01*
X436686Y141261D01*
X436873Y141449D01*
X437248Y141636D01*
X437998D01*
X438373Y141449D01*
X438560Y141261D01*
X438748Y140886D01*
Y140512D01*
X438560Y140137D01*
X438186Y139574D01*
X436311Y137700D01*
X438935D01*
D14*
X483500Y7244D02*
Y12756D01*
X478500Y12000D02*
Y12756D01*
X488500D01*
Y12000D02*
Y12756D01*
Y7244D02*
Y8000D01*
X478500Y7244D02*
X488500D01*
X478500D02*
Y8000D01*
X468000Y7244D02*
Y12756D01*
X463000Y12000D02*
Y12756D01*
X473000D01*
Y12000D02*
Y12756D01*
Y7244D02*
Y8000D01*
X463000Y7244D02*
X473000D01*
X463000D02*
Y8000D01*
X452000Y7244D02*
Y12756D01*
X447000Y12000D02*
Y12756D01*
X457000D01*
Y12000D02*
Y12756D01*
Y7244D02*
Y8000D01*
X447000Y7244D02*
X457000D01*
X447000D02*
Y8000D01*
X436000Y7244D02*
Y12756D01*
X431000Y12000D02*
Y12756D01*
X441000D01*
Y12000D02*
Y12756D01*
Y7244D02*
Y8000D01*
X431000Y7244D02*
X441000D01*
X431000D02*
Y8000D01*
X420000Y7244D02*
Y12756D01*
X415000Y12000D02*
Y12756D01*
X425000D01*
Y12000D02*
Y12756D01*
Y7244D02*
Y8000D01*
X415000Y7244D02*
X425000D01*
X415000D02*
Y8000D01*
X404500Y7244D02*
Y12756D01*
X399500Y12000D02*
Y12756D01*
X409500D01*
Y12000D02*
Y12756D01*
Y7244D02*
Y8000D01*
X399500Y7244D02*
X409500D01*
X399500D02*
Y8000D01*
X418000Y103744D02*
Y109256D01*
X413000Y108500D02*
Y109256D01*
X423000D01*
Y108500D02*
Y109256D01*
Y103744D02*
Y104500D01*
X413000Y103744D02*
X423000D01*
X413000D02*
Y104500D01*
X467500Y103744D02*
Y109256D01*
X462500Y108500D02*
Y109256D01*
X472500D01*
Y108500D02*
Y109256D01*
Y103744D02*
Y104500D01*
X462500Y103744D02*
X472500D01*
X462500D02*
Y104500D01*
X500500Y103744D02*
Y109256D01*
X495500Y108500D02*
Y109256D01*
X505500D01*
Y108500D02*
Y109256D01*
Y103744D02*
Y104500D01*
X495500Y103744D02*
X505500D01*
X495500D02*
Y104500D01*
X516500Y103744D02*
Y109256D01*
X511500Y108500D02*
Y109256D01*
X521500D01*
Y108500D02*
Y109256D01*
Y103744D02*
Y104500D01*
X511500Y103744D02*
X521500D01*
X511500D02*
Y104500D01*
X533000Y103744D02*
Y109256D01*
X528000Y108500D02*
Y109256D01*
X538000D01*
Y108500D02*
Y109256D01*
Y103744D02*
Y104500D01*
X528000Y103744D02*
X538000D01*
X528000D02*
Y104500D01*
X440000Y55744D02*
Y61256D01*
X435000Y60500D02*
Y61256D01*
X445000D01*
Y60500D02*
Y61256D01*
Y55744D02*
Y56500D01*
X435000Y55744D02*
X445000D01*
X435000D02*
Y56500D01*
X616000Y55744D02*
Y61256D01*
X611000Y60500D02*
Y61256D01*
X621000D01*
Y60500D02*
Y61256D01*
Y55744D02*
Y56500D01*
X611000Y55744D02*
X621000D01*
X611000D02*
Y56500D01*
X690000Y55744D02*
Y61256D01*
X685000Y60500D02*
Y61256D01*
X695000D01*
Y60500D02*
Y61256D01*
Y55744D02*
Y56500D01*
X685000Y55744D02*
X695000D01*
X685000D02*
Y56500D01*
X722000Y55744D02*
Y61256D01*
X717000Y60500D02*
Y61256D01*
X727000D01*
Y60500D02*
Y61256D01*
Y55744D02*
Y56500D01*
X717000Y55744D02*
X727000D01*
X717000D02*
Y56500D01*
X663601Y98244D02*
Y103756D01*
X658601Y103000D02*
Y103756D01*
X668601D01*
Y103000D02*
Y103756D01*
Y98244D02*
Y99000D01*
X658601Y98244D02*
X668601D01*
X658601D02*
Y99000D01*
X753500Y55744D02*
Y61256D01*
X748500Y60500D02*
Y61256D01*
X758500D01*
Y60500D02*
Y61256D01*
Y55744D02*
Y56500D01*
X748500Y55744D02*
X758500D01*
X748500D02*
Y56500D01*
X467500Y20744D02*
Y26256D01*
X462500Y25500D02*
Y26256D01*
X472500D01*
Y25500D02*
Y26256D01*
Y20744D02*
Y21500D01*
X462500Y20744D02*
X472500D01*
X462500D02*
Y21500D01*
X451601Y20744D02*
Y26256D01*
X446601Y25500D02*
Y26256D01*
X456601D01*
Y25500D02*
Y26256D01*
Y20744D02*
Y21500D01*
X446601Y20744D02*
X456601D01*
X446601D02*
Y21500D01*
X546500Y7244D02*
Y12756D01*
X541500Y12000D02*
Y12756D01*
X551500D01*
Y12000D02*
Y12756D01*
Y7244D02*
Y8000D01*
X541500Y7244D02*
X551500D01*
X541500D02*
Y8000D01*
X577000Y7244D02*
Y12756D01*
X572000Y12000D02*
Y12756D01*
X582000D01*
Y12000D02*
Y12756D01*
Y7244D02*
Y8000D01*
X572000Y7244D02*
X582000D01*
X572000D02*
Y8000D01*
X562000Y7244D02*
Y12756D01*
X557000Y12000D02*
Y12756D01*
X567000D01*
Y12000D02*
Y12756D01*
Y7244D02*
Y8000D01*
X557000Y7244D02*
X567000D01*
X557000D02*
Y8000D01*
X592500Y7244D02*
Y12756D01*
X587500Y12000D02*
Y12756D01*
X597500D01*
Y12000D02*
Y12756D01*
Y7244D02*
Y8000D01*
X587500Y7244D02*
X597500D01*
X587500D02*
Y8000D01*
X469000Y7244D02*
Y12756D01*
X464000Y12000D02*
Y12756D01*
X474000D01*
Y12000D02*
Y12756D01*
Y7244D02*
Y8000D01*
X464000Y7244D02*
X474000D01*
X464000D02*
Y8000D01*
X500500Y7244D02*
Y12756D01*
X495500Y12000D02*
Y12756D01*
X505500D01*
Y12000D02*
Y12756D01*
Y7244D02*
Y8000D01*
X495500Y7244D02*
X505500D01*
X495500D02*
Y8000D01*
X515000Y7244D02*
Y12756D01*
X510000Y12000D02*
Y12756D01*
X520000D01*
Y12000D02*
Y12756D01*
Y7244D02*
Y8000D01*
X510000Y7244D02*
X520000D01*
X510000D02*
Y8000D01*
X542101Y18744D02*
Y24256D01*
X537101Y23500D02*
Y24256D01*
X547101D01*
Y23500D02*
Y24256D01*
Y18744D02*
Y19500D01*
X537101Y18744D02*
X547101D01*
X537101D02*
Y19500D01*
X567457Y64724D02*
X574543D01*
Y55276D02*
Y64724D01*
X567457Y55276D02*
Y64724D01*
Y55276D02*
X574543D01*
X564677Y65457D02*
Y72543D01*
X555228Y65457D02*
X564677D01*
X555228Y72543D02*
X564677D01*
X555228Y65457D02*
Y72543D01*
X552499Y104425D02*
Y107575D01*
X487000Y104425D02*
Y107575D01*
X454000Y104425D02*
Y107575D01*
X437500Y104425D02*
Y107575D01*
X404999Y104425D02*
Y107575D01*
X727499Y142925D02*
Y146075D01*
X785999Y84925D02*
Y88075D01*
X523499Y84925D02*
Y88075D01*
X404999Y84925D02*
Y88075D01*
X655500Y7925D02*
Y11075D01*
X510551Y24425D02*
Y27575D01*
X457051Y82425D02*
Y85575D01*
X480500Y79925D02*
Y83075D01*
X422500Y83425D02*
Y86575D01*
X863500Y56425D02*
Y59575D01*
X783500Y60256D02*
X797106D01*
X784000Y58500D02*
Y60150D01*
X783500Y58500D02*
X784000D01*
X783500D02*
Y60256D01*
Y54744D02*
X797106D01*
Y55827D01*
X784000Y54850D02*
Y56500D01*
X783500D02*
X784000D01*
X783500Y54744D02*
Y56500D01*
X797106Y59173D02*
Y60256D01*
X772500Y56425D02*
Y59575D01*
X740499Y56425D02*
Y59575D01*
X708999Y56425D02*
Y59575D01*
X635000Y56425D02*
Y59575D01*
X546499Y56425D02*
Y59575D01*
X529999Y56425D02*
Y59575D01*
X512999Y56425D02*
Y59575D01*
X475000Y56425D02*
Y59575D01*
X426500Y56425D02*
Y59575D01*
X487000Y7925D02*
Y11075D01*
X461142Y10386D02*
Y11961D01*
X460650Y10386D02*
Y11961D01*
X454350D02*
X460650D01*
X454350Y11468D02*
Y11961D01*
X460650Y7039D02*
X461142D01*
X460650Y8614D02*
X461142D01*
Y7039D02*
Y8614D01*
X460650Y7039D02*
Y8614D01*
X454350Y7039D02*
X460650D01*
X454350D02*
Y7531D01*
X460650Y11961D02*
X461142D01*
X460650Y10386D02*
X461142D01*
X497500Y80425D02*
Y83575D01*
X439142Y39386D02*
Y40961D01*
X438650Y39386D02*
Y40961D01*
X432350D02*
X438650D01*
X432350Y40468D02*
Y40961D01*
X438650Y36039D02*
X439142D01*
X438650Y37614D02*
X439142D01*
Y36039D02*
Y37614D01*
X438650Y36039D02*
Y37614D01*
X432350Y36039D02*
X438650D01*
X432350D02*
Y36531D01*
X438650Y40961D02*
X439142D01*
X438650Y39386D02*
X439142D01*
X445142Y84886D02*
Y86461D01*
X444650Y84886D02*
Y86461D01*
X438350D02*
X444650D01*
X438350Y85969D02*
Y86461D01*
X444650Y81539D02*
X445142D01*
X444650Y83114D02*
X445142D01*
Y81539D02*
Y83114D01*
X444650Y81539D02*
Y83114D01*
X438350Y81539D02*
X444650D01*
X438350D02*
Y82032D01*
X444650Y86461D02*
X445142D01*
X444650Y84886D02*
X445142D01*
X406142Y10386D02*
Y11961D01*
X405650Y10386D02*
Y11961D01*
X399350D02*
X405650D01*
X399350Y11468D02*
Y11961D01*
X405650Y7039D02*
X406142D01*
X405650Y8614D02*
X406142D01*
Y7039D02*
Y8614D01*
X405650Y7039D02*
Y8614D01*
X399350Y7039D02*
X405650D01*
X399350D02*
Y7531D01*
X405650Y11961D02*
X406142D01*
X405650Y10386D02*
X406142D01*
D15*
X432508Y134543D02*
X435067D01*
X440283D02*
X440972D01*
X432508Y125488D02*
X440972Y125516D01*
D16*
X557886Y103681D02*
Y108319D01*
X555524D02*
X557886D01*
X555523Y103681D02*
X557886D01*
X547114Y108319D02*
X549476D01*
X547114Y103681D02*
X549476D01*
X547114D02*
Y108319D01*
X492386Y103681D02*
Y108319D01*
X490024D02*
X492386D01*
X490024Y103681D02*
X492386D01*
X481614Y108319D02*
X483976D01*
X481614Y103681D02*
X483976D01*
X481614D02*
Y108319D01*
X459386Y103681D02*
Y108319D01*
X457024D02*
X459386D01*
X457023Y103681D02*
X459386D01*
X448614Y108319D02*
X450976D01*
X448614Y103681D02*
X450976D01*
X448614D02*
Y108319D01*
X442886Y103681D02*
Y108319D01*
X440524D02*
X442886D01*
X440523Y103681D02*
X442886D01*
X432114Y108319D02*
X434476D01*
X432114Y103681D02*
X434476D01*
X432114D02*
Y108319D01*
X410386Y103681D02*
Y108319D01*
X408024D02*
X410386D01*
X408024Y103681D02*
X410386D01*
X399614Y108319D02*
X401976D01*
X399614Y103681D02*
X401976D01*
X399614D02*
Y108319D01*
X732886Y142181D02*
Y146819D01*
X730524D02*
X732886D01*
X730523Y142181D02*
X732886D01*
X722114Y146819D02*
X724476D01*
X722114Y142181D02*
X724476D01*
X722114D02*
Y146819D01*
X791386Y84181D02*
Y88819D01*
X789024D02*
X791386D01*
X789023Y84181D02*
X791386D01*
X780614Y88819D02*
X782976D01*
X780614Y84181D02*
X782976D01*
X780614D02*
Y88819D01*
X528886Y84181D02*
Y88819D01*
X526524D02*
X528886D01*
X526523Y84181D02*
X528886D01*
X518114Y88819D02*
X520476D01*
X518114Y84181D02*
X520476D01*
X518114D02*
Y88819D01*
X410386Y84181D02*
Y88819D01*
X408024D02*
X410386D01*
X408024Y84181D02*
X410386D01*
X399614Y88819D02*
X401976D01*
X399614Y84181D02*
X401976D01*
X399614D02*
Y88819D01*
X660886Y7181D02*
Y11819D01*
X658524D02*
X660886D01*
X658524Y7181D02*
X660886D01*
X650114Y11819D02*
X652476D01*
X650114Y7181D02*
X652476D01*
X650114D02*
Y11819D01*
X515937Y23681D02*
Y28319D01*
X513575D02*
X515937D01*
X513575Y23681D02*
X515937D01*
X505165Y28319D02*
X507528D01*
X505165Y23681D02*
X507528D01*
X505165D02*
Y28319D01*
X462437Y81681D02*
Y86319D01*
X460075D02*
X462437D01*
X460075Y81681D02*
X462437D01*
X451665Y86319D02*
X454028D01*
X451665Y81681D02*
X454028D01*
X451665D02*
Y86319D01*
X485886Y79181D02*
Y83819D01*
X483524D02*
X485886D01*
X483524Y79181D02*
X485886D01*
X475114Y83819D02*
X477476D01*
X475114Y79181D02*
X477476D01*
X475114D02*
Y83819D01*
X427886Y82681D02*
Y87319D01*
X425524D02*
X427886D01*
X425524Y82681D02*
X427886D01*
X417114Y87319D02*
X419476D01*
X417114Y82681D02*
X419476D01*
X417114D02*
Y87319D01*
X868886Y55681D02*
Y60319D01*
X866524D02*
X868886D01*
X866523Y55681D02*
X868886D01*
X858114Y60319D02*
X860476D01*
X858114Y55681D02*
X860476D01*
X858114D02*
Y60319D01*
X777886Y55681D02*
Y60319D01*
X775524D02*
X777886D01*
X775524Y55681D02*
X777886D01*
X767114Y60319D02*
X769476D01*
X767114Y55681D02*
X769476D01*
X767114D02*
Y60319D01*
X745886Y55681D02*
Y60319D01*
X743524D02*
X745886D01*
X743524Y55681D02*
X745886D01*
X735114Y60319D02*
X737476D01*
X735114Y55681D02*
X737476D01*
X735114D02*
Y60319D01*
X714386Y55681D02*
Y60319D01*
X712024D02*
X714386D01*
X712023Y55681D02*
X714386D01*
X703614Y60319D02*
X705976D01*
X703614Y55681D02*
X705976D01*
X703614D02*
Y60319D01*
X640386Y55681D02*
Y60319D01*
X638024D02*
X640386D01*
X638024Y55681D02*
X640386D01*
X629614Y60319D02*
X631976D01*
X629614Y55681D02*
X631976D01*
X629614D02*
Y60319D01*
X551886Y55681D02*
Y60319D01*
X549524D02*
X551886D01*
X549523Y55681D02*
X551886D01*
X541114Y60319D02*
X543476D01*
X541114Y55681D02*
X543476D01*
X541114D02*
Y60319D01*
X535386Y55681D02*
Y60319D01*
X533024D02*
X535386D01*
X533024Y55681D02*
X535386D01*
X524614Y60319D02*
X526976D01*
X524614Y55681D02*
X526976D01*
X524614D02*
Y60319D01*
X518386Y55681D02*
Y60319D01*
X516024D02*
X518386D01*
X516023Y55681D02*
X518386D01*
X507614Y60319D02*
X509976D01*
X507614Y55681D02*
X509976D01*
X507614D02*
Y60319D01*
X480386Y55681D02*
Y60319D01*
X478024D02*
X480386D01*
X478023Y55681D02*
X480386D01*
X469614Y60319D02*
X471976D01*
X469614Y55681D02*
X471976D01*
X469614D02*
Y60319D01*
X431886Y55681D02*
Y60319D01*
X429524D02*
X431886D01*
X429524Y55681D02*
X431886D01*
X421114Y60319D02*
X423476D01*
X421114Y55681D02*
X423476D01*
X421114D02*
Y60319D01*
X492386Y7181D02*
Y11819D01*
X490024D02*
X492386D01*
X490024Y7181D02*
X492386D01*
X481614Y11819D02*
X483976D01*
X481614Y7181D02*
X483976D01*
X481614D02*
Y11819D01*
X502886Y79681D02*
Y84319D01*
X500524D02*
X502886D01*
X500524Y79681D02*
X502886D01*
X492114Y84319D02*
X494476D01*
X492114Y79681D02*
X494476D01*
X492114D02*
Y84319D01*
D17*
X226137Y275190D02*
X227563D01*
X243438D02*
Y276617D01*
X242012Y292491D02*
X243438D01*
X226137Y291065D02*
Y292491D01*
Y275190D02*
Y276617D01*
X242012Y275190D02*
X243438D01*
Y291065D02*
Y292491D01*
X226137D02*
X227563D01*
M02*
