M48
;Layer_Color=9474304
;FILE_FORMAT=2:5
INCH,TZ
;TYPE=PLATED
T01F00S00C0.01181
T02F00S00C0.05512
T03F00S00C0.07087
T04F00S00C0.08661
T05F00S00C0.10236
T06F00S00C0.10630
%
T01
X436740Y128441
Y131590
X234788Y279510
Y283840
Y288171
X239118Y283840
X230457
T02
X243500Y33071
X263185
X273028
X282870
X292713
X302555
X312398
X322240
X332083
X341925
T03
X277098Y346622
X330248
T04
X227949Y38583
X357476
T05
X583500Y83500
X583000Y114500
X616000Y125000
X540500Y135500
T06
X289500Y323000
X317846
M30
