G04*
G04 #@! TF.GenerationSoftware,Altium Limited,Altium Designer,26.7.1 (11)*
G04*
G04 Layer_Physical_Order=2*
G04 Layer_Color=16711680*
G04 Board_Origin=0|0*
%FSLAX25Y25*%
%MOIN*%
G70*
G04*
G04 #@! TF.SameCoordinates,CABA3DA7-016B-4E50-8321-5EC41EE3296A*
G04*
G04*
G04 #@! TF.FilePolarity,Positive*
G04*
G01*
G75*
%ADD77C,0.02362*%
%ADD83C,0.10630*%
%ADD84C,0.15945*%
%ADD85R,0.15945X0.15945*%
%ADD86C,0.15748*%
%ADD87C,0.12992*%
%ADD88C,0.08268*%
%ADD89R,0.08268X0.08268*%
D77*
X436740Y128441D02*
D03*
Y131590D02*
D03*
X234788Y279510D02*
D03*
Y288171D02*
D03*
X239118Y283840D02*
D03*
X230457D02*
D03*
X234788D02*
D03*
D83*
X330248Y346622D02*
D03*
X277098D02*
D03*
D84*
X317846Y323000D02*
D03*
D85*
X289500D02*
D03*
D86*
X583000Y114500D02*
D03*
X540500Y135500D02*
D03*
X583500Y83500D02*
D03*
X616000Y125000D02*
D03*
D87*
X357476Y38583D02*
D03*
X227949D02*
D03*
D88*
X341925Y33071D02*
D03*
X332083D02*
D03*
X322240D02*
D03*
X312398D02*
D03*
X302555D02*
D03*
X292713D02*
D03*
X282870D02*
D03*
X273028D02*
D03*
X263185D02*
D03*
D89*
X243500D02*
D03*
M02*
