G04*
G04 #@! TF.GenerationSoftware,Altium Limited,Altium Designer,25.5.2 (35)*
G04*
G04 Layer_Color=32896*
%FSLAX25Y25*%
%MOIN*%
G70*
G04*
G04 #@! TF.SameCoordinates,672FA988-C404-43CE-99EC-9311219A220C*
G04*
G04*
G04 #@! TF.FilePolarity,Positive*
G04*
G01*
G75*
%ADD11C,0.00787*%
%ADD13C,0.00591*%
%ADD14C,0.00276*%
D11*
X125721Y320657D02*
Y321444D01*
X128279Y320657D02*
Y321444D01*
X141220Y398657D02*
Y399444D01*
X143780Y398657D02*
Y399444D01*
X131220Y398657D02*
Y399444D01*
X133780Y398657D02*
Y399444D01*
X235720Y345657D02*
Y346444D01*
X238280Y345657D02*
Y346444D01*
X230279Y369556D02*
Y370343D01*
X227720Y369556D02*
Y370343D01*
X235720Y364657D02*
Y365444D01*
X238280Y364657D02*
Y365444D01*
X566220Y194657D02*
Y195444D01*
X568780Y194657D02*
Y195444D01*
X560280Y199556D02*
Y200343D01*
X557721Y199556D02*
Y200343D01*
X442220Y256657D02*
Y257444D01*
X444779Y256657D02*
Y257444D01*
X596056Y163721D02*
X596843D01*
X596056Y166279D02*
X596843D01*
X80642Y435248D02*
X81430D01*
X80642Y437807D02*
X81430D01*
X137221Y366657D02*
Y367444D01*
X139779Y366657D02*
Y367444D01*
X145220Y366657D02*
Y367444D01*
X147780Y366657D02*
Y367444D01*
X501972Y44780D02*
X502759D01*
X501972Y42221D02*
X502759D01*
X502157Y85780D02*
X502944D01*
X502157Y83220D02*
X502944D01*
X423741Y320220D02*
X424528D01*
X423741Y322779D02*
X424528D01*
X423741Y280720D02*
X424528D01*
X423741Y283279D02*
X424528D01*
X347436Y347205D02*
X348224D01*
X347436Y344646D02*
X348224D01*
X563721Y95657D02*
Y96444D01*
X566280Y95657D02*
Y96444D01*
X497720Y244157D02*
Y244944D01*
X500280Y244157D02*
Y244944D01*
X492815Y172371D02*
Y173158D01*
X490256Y172371D02*
Y173158D01*
X140094Y330173D02*
Y335094D01*
X140252Y328795D02*
X151748D01*
Y328205D02*
Y328795D01*
X140252Y328205D02*
X151748D01*
X140252D02*
Y328795D01*
X541791Y196319D02*
Y198681D01*
Y196319D02*
X553209D01*
Y198681D01*
X541791D02*
X553209D01*
X541201Y200059D02*
Y204784D01*
X125819Y368744D02*
X128181D01*
X121291Y374256D02*
X124146D01*
X121291Y370713D02*
Y374256D01*
X129854D02*
X132709D01*
Y370713D02*
Y374256D01*
X572646Y160350D02*
Y166650D01*
X578354Y160350D02*
Y166650D01*
X581075Y200532D02*
Y204468D01*
X578319Y200925D02*
X581075Y202500D01*
X578319Y204468D02*
X581075Y202500D01*
X578319Y200925D02*
Y204468D01*
X581075Y202500D02*
X581862D01*
X577138D02*
X578319D01*
X543461Y24705D02*
Y29823D01*
X514327D02*
X543461D01*
X542870Y24705D02*
X543461D01*
X542870D02*
Y29823D01*
Y15650D02*
Y20768D01*
X543461D01*
X514327Y28543D02*
Y29823D01*
X543461Y15650D02*
Y20768D01*
X514327Y15650D02*
Y16929D01*
Y15650D02*
X543461D01*
X530075Y20768D02*
Y24705D01*
X527319Y21161D02*
X530075Y22736D01*
X527319Y24705D02*
X530075Y22736D01*
X527319Y21161D02*
Y24705D01*
X530075Y22736D02*
X530862D01*
X526138D02*
X527319D01*
X286461Y385347D02*
Y390465D01*
X257327D02*
X286461D01*
X285870Y385347D02*
X286461D01*
X285870D02*
Y390465D01*
Y376291D02*
Y381410D01*
X286461D01*
X257327Y389185D02*
Y390465D01*
X286461Y376291D02*
Y381410D01*
X257327Y376291D02*
Y377571D01*
Y376291D02*
X286461D01*
X273075Y381410D02*
Y385347D01*
X270319Y381803D02*
X273075Y383378D01*
X270319Y385347D02*
X273075Y383378D01*
X270319Y381803D02*
Y385347D01*
X273075Y383378D02*
X273862D01*
X269138D02*
X270319D01*
X54571Y388496D02*
Y393614D01*
Y388496D02*
X83705D01*
X54571Y393614D02*
X55161D01*
Y388496D02*
Y393614D01*
Y397551D02*
Y402669D01*
X54571Y397551D02*
X55161D01*
X83705Y388496D02*
Y389776D01*
X54571Y397551D02*
Y402669D01*
X83705Y401390D02*
Y402669D01*
X54571D02*
X83705D01*
X67957Y393614D02*
Y397551D01*
Y395583D02*
X70713Y397158D01*
X67957Y395583D02*
X70713Y393614D01*
Y397158D01*
X67169Y395583D02*
X67957D01*
X70713D02*
X71894D01*
X7498Y379205D02*
Y384323D01*
Y379205D02*
X36632D01*
X7498Y384323D02*
X8089D01*
Y379205D02*
Y384323D01*
Y388260D02*
Y393378D01*
X7498Y388260D02*
X8089D01*
X36632Y379205D02*
Y380484D01*
X7498Y388260D02*
Y393378D01*
X36632Y392098D02*
Y393378D01*
X7498D02*
X36632D01*
X20884Y384323D02*
Y388260D01*
Y386291D02*
X23640Y387866D01*
X20884Y386291D02*
X23640Y384323D01*
Y387866D01*
X20097Y386291D02*
X20884D01*
X23640D02*
X24821D01*
X159476Y283214D02*
Y278491D01*
X157114D01*
X156327Y279279D01*
Y282427D01*
X157114Y283214D01*
X159476D01*
X152392Y278491D02*
X153966D01*
X154753Y279279D01*
Y280853D01*
X153966Y281640D01*
X152392D01*
X151604Y280853D01*
Y280066D01*
X154753D01*
X150030Y278491D02*
X147669D01*
X146881Y279279D01*
X147669Y280066D01*
X149243D01*
X150030Y280853D01*
X149243Y281640D01*
X146881D01*
X145307Y278491D02*
X143733D01*
X144520D01*
Y281640D01*
X145307D01*
X139797Y276917D02*
X139010D01*
X138223Y277704D01*
Y281640D01*
X140584D01*
X141372Y280853D01*
Y279279D01*
X140584Y278491D01*
X138223D01*
X136649D02*
Y281640D01*
X134287D01*
X133500Y280853D01*
Y278491D01*
X129564D02*
X131139D01*
X131926Y279279D01*
Y280853D01*
X131139Y281640D01*
X129564D01*
X128777Y280853D01*
Y280066D01*
X131926D01*
X124054Y283214D02*
Y278491D01*
X126416D01*
X127203Y279279D01*
Y280853D01*
X126416Y281640D01*
X124054D01*
X117757Y283214D02*
Y278491D01*
X115396D01*
X114609Y279279D01*
Y280066D01*
Y280853D01*
X115396Y281640D01*
X117757D01*
X113034D02*
Y279279D01*
X112247Y278491D01*
X109886D01*
Y277704D01*
X110673Y276917D01*
X111460D01*
X109886Y278491D02*
Y281640D01*
X108311D02*
X107524D01*
Y280853D01*
X108311D01*
Y281640D01*
Y279279D02*
X107524D01*
Y278491D01*
X108311D01*
Y279279D01*
X173251Y273296D02*
X174038Y274083D01*
X175612D01*
X176400Y273296D01*
Y272509D01*
X175612Y271721D01*
X174038D01*
X173251Y270934D01*
Y270147D01*
X174038Y269360D01*
X175612D01*
X176400Y270147D01*
X170889Y272509D02*
X169315D01*
X168528Y271721D01*
Y269360D01*
X170889D01*
X171677Y270147D01*
X170889Y270934D01*
X168528D01*
X166954Y269360D02*
Y272509D01*
X166167D01*
X165379Y271721D01*
Y269360D01*
Y271721D01*
X164592Y272509D01*
X163805Y271721D01*
Y269360D01*
X162231Y272509D02*
Y270147D01*
X161444Y269360D01*
X159082D01*
Y268573D01*
X159869Y267786D01*
X160657D01*
X159082Y269360D02*
Y272509D01*
X156721D02*
X155147D01*
X154359Y271721D01*
Y269360D01*
X156721D01*
X157508Y270147D01*
X156721Y270934D01*
X154359D01*
X152785Y272509D02*
Y269360D01*
Y270934D01*
X151998Y271721D01*
X151211Y272509D01*
X150424D01*
X140191Y273296D02*
X140978Y274083D01*
X142552D01*
X143339Y273296D01*
Y272509D01*
X142552Y271721D01*
X140978D01*
X140191Y270934D01*
Y270147D01*
X140978Y269360D01*
X142552D01*
X143339Y270147D01*
X137829Y272509D02*
X136255D01*
X135468Y271721D01*
Y269360D01*
X137829D01*
X138617Y270147D01*
X137829Y270934D01*
X135468D01*
X130745Y274083D02*
Y269360D01*
X133106D01*
X133894Y270147D01*
Y271721D01*
X133106Y272509D01*
X130745D01*
X128384D02*
X126809D01*
X126022Y271721D01*
Y269360D01*
X128384D01*
X129171Y270147D01*
X128384Y270934D01*
X126022D01*
X123661Y273296D02*
Y272509D01*
X124448D01*
X122873D01*
X123661D01*
Y270147D01*
X122873Y269360D01*
X115789D02*
Y272509D01*
X114215Y274083D01*
X112641Y272509D01*
Y269360D01*
Y271721D01*
X115789D01*
X111066Y269360D02*
Y274083D01*
Y270934D02*
X108705Y272509D01*
X111066Y270934D02*
X108705Y269360D01*
X106343Y274083D02*
Y269360D01*
Y271721D01*
X105556Y272509D01*
X103982D01*
X103195Y271721D01*
Y269360D01*
X100833Y272509D02*
X99259D01*
X98472Y271721D01*
Y269360D01*
X100833D01*
X101621Y270147D01*
X100833Y270934D01*
X98472D01*
X96898Y272509D02*
X95323Y269360D01*
X93749Y272509D01*
X92175Y269360D02*
X90601D01*
X91388D01*
Y272509D01*
X92175D01*
X43889Y230699D02*
X44076Y231074D01*
X44451Y231449D01*
X44826Y231636D01*
X45575D01*
X45950Y231449D01*
X46325Y231074D01*
X46513Y230699D01*
X46700Y230137D01*
Y229200D01*
X46513Y228637D01*
X46325Y228262D01*
X45950Y227887D01*
X45575Y227700D01*
X44826D01*
X44451Y227887D01*
X44076Y228262D01*
X43889Y228637D01*
X41845Y231636D02*
X42408Y231449D01*
X42595Y231074D01*
Y230699D01*
X42408Y230324D01*
X42033Y230137D01*
X41283Y229949D01*
X40721Y229762D01*
X40346Y229387D01*
X40159Y229012D01*
Y228450D01*
X40346Y228075D01*
X40533Y227887D01*
X41096Y227700D01*
X41845D01*
X42408Y227887D01*
X42595Y228075D01*
X42783Y228450D01*
Y229012D01*
X42595Y229387D01*
X42220Y229762D01*
X41658Y229949D01*
X40908Y230137D01*
X40533Y230324D01*
X40346Y230699D01*
Y231074D01*
X40533Y231449D01*
X41096Y231636D01*
X41845D01*
X39277Y226388D02*
X36279D01*
X35772Y231636D02*
Y227700D01*
Y231636D02*
X34460D01*
X33898Y231449D01*
X33523Y231074D01*
X33336Y230699D01*
X33148Y230137D01*
Y229200D01*
X33336Y228637D01*
X33523Y228262D01*
X33898Y227887D01*
X34460Y227700D01*
X35772D01*
X32267Y231636D02*
Y227700D01*
Y231636D02*
X30580D01*
X30018Y231449D01*
X29831Y231261D01*
X29643Y230886D01*
Y230511D01*
X29831Y230137D01*
X30018Y229949D01*
X30580Y229762D01*
X32267D01*
X30955D02*
X29643Y227700D01*
X28762Y231636D02*
X27263Y227700D01*
X25763Y231636D02*
X27263Y227700D01*
X25070Y230699D02*
Y230886D01*
X24882Y231261D01*
X24695Y231449D01*
X24320Y231636D01*
X23570D01*
X23196Y231449D01*
X23008Y231261D01*
X22821Y230886D01*
Y230511D01*
X23008Y230137D01*
X23383Y229574D01*
X25257Y227700D01*
X22633D01*
D13*
X572894Y205256D02*
X586500D01*
X586000Y203500D02*
Y205150D01*
Y203500D02*
X586500D01*
Y205256D01*
X572894Y199744D02*
X586500D01*
X572894D02*
Y200827D01*
X586000Y199850D02*
Y201500D01*
X586500D01*
Y199744D02*
Y201500D01*
X572894Y204173D02*
Y205256D01*
X210425Y372000D02*
X213575D01*
X337485Y373484D02*
Y376634D01*
X272485Y402276D02*
Y405425D01*
X397291Y352776D02*
Y355925D01*
Y183484D02*
Y186634D01*
X337485Y394350D02*
Y397500D01*
X272485Y423142D02*
Y426291D01*
X397291Y373642D02*
Y376791D01*
Y204351D02*
Y207500D01*
X278065Y137045D02*
Y139144D01*
X279639D01*
Y138094D01*
Y139144D01*
X281214D01*
Y135995D02*
Y134946D01*
Y135471D01*
X279115D01*
Y135995D01*
X281214Y133372D02*
X279115D01*
Y131797D01*
X279639Y131272D01*
X281214D01*
X279115Y129698D02*
Y128649D01*
X279639Y128124D01*
X281214D01*
Y129698D01*
X280689Y130223D01*
X280164Y129698D01*
Y128124D01*
X281214Y127074D02*
Y126025D01*
Y126550D01*
X278065D01*
Y127074D01*
X281214Y124451D02*
Y123401D01*
Y123926D01*
X279115D01*
Y124451D01*
Y121827D02*
Y119728D01*
X281214Y121827D01*
Y119728D01*
Y117104D02*
Y118153D01*
X280689Y118678D01*
X279639D01*
X279115Y118153D01*
Y117104D01*
X279639Y116579D01*
X280164D01*
Y118678D01*
X278065Y113431D02*
X281214D01*
Y115005D01*
X280689Y115530D01*
X279639D01*
X279115Y115005D01*
Y113431D01*
Y112381D02*
Y111856D01*
X279639D01*
Y112381D01*
X279115D01*
X280689D02*
Y111856D01*
X281214D01*
Y112381D01*
X280689D01*
X286409Y137045D02*
Y139144D01*
X284310Y137045D01*
X283786D01*
X283261Y137570D01*
Y138619D01*
X283786Y139144D01*
X286409Y135995D02*
X284310Y133896D01*
X286409Y130748D02*
Y132847D01*
X284310Y130748D01*
X283786D01*
X283261Y131272D01*
Y132322D01*
X283786Y132847D01*
X286409Y128124D02*
X283261D01*
X284835Y129698D01*
Y127599D01*
X286409Y126550D02*
X284310Y124451D01*
X286409Y121302D02*
Y123401D01*
X284310Y121302D01*
X283786D01*
X283261Y121827D01*
Y122876D01*
X283786Y123401D01*
Y120253D02*
X283261Y119728D01*
Y118678D01*
X283786Y118153D01*
X285885D01*
X286409Y118678D01*
Y119728D01*
X285885Y120253D01*
X283786D01*
X286409Y115005D02*
Y117104D01*
X284310Y115005D01*
X283786D01*
X283261Y115530D01*
Y116579D01*
X283786Y117104D01*
X283261Y111856D02*
X283786Y112906D01*
X284835Y113955D01*
X285885D01*
X286409Y113431D01*
Y112381D01*
X285885Y111856D01*
X285360D01*
X284835Y112381D01*
Y113955D01*
X28760Y195906D02*
X28910Y196206D01*
X29060Y196356D01*
X29360Y196506D01*
X29660D01*
X29960Y196356D01*
X30110Y196206D01*
X30260Y195906D01*
Y195606D01*
X30110Y195307D01*
X29960Y195157D01*
X29660Y195007D01*
X29360D01*
X29060Y195157D01*
X28910Y195307D01*
X28760Y195606D01*
Y195906D01*
X28910Y196206D02*
X29210Y196356D01*
X29810D01*
X30110Y196206D01*
Y195307D02*
X29810Y195157D01*
X29210D01*
X28910Y195307D01*
X29060Y195157D02*
X28910Y195007D01*
X28760Y194707D01*
X28910D01*
Y195007D01*
X29960Y196356D02*
X30110Y196506D01*
X30410Y196656D01*
X30560D01*
X30860Y196506D01*
X31010Y196056D01*
Y195307D01*
X31160Y194857D01*
X31310Y194707D01*
X30560Y196656D02*
X30710Y196506D01*
X30860Y196056D01*
Y195307D01*
X31010Y194857D01*
X31310Y194707D01*
X31460D01*
X31760Y194857D01*
X31909Y195307D01*
Y196206D01*
X31760Y196656D01*
X31460Y196806D01*
X31310D01*
X31010Y196656D01*
X30860Y196206D01*
X27711Y193792D02*
X27861Y193942D01*
X28011Y193792D01*
X27861Y193642D01*
X27711Y193792D01*
X28760D02*
X30860D01*
X28760Y193642D02*
X30860D01*
X28760Y194242D02*
Y193642D01*
X30860Y194242D02*
Y193192D01*
Y191723D02*
X30710Y191873D01*
X30260Y192023D01*
X27711D01*
Y192173D01*
X30260D01*
X30710Y192023D01*
X30860Y191723D01*
Y191423D01*
X30710Y191123D01*
X30410Y190973D01*
X28760Y192622D02*
Y191423D01*
X27711Y190013D02*
X30860D01*
X27711Y189863D02*
X30860D01*
X29210D02*
X28910Y189563D01*
X28760Y189114D01*
Y188814D01*
X28910Y188364D01*
X29210Y188214D01*
X30860D01*
X28760Y188814D02*
X28910Y188514D01*
X29210Y188364D01*
X30860D01*
X27711Y190463D02*
Y189863D01*
X30860Y190463D02*
Y189413D01*
Y188814D02*
Y187764D01*
X28760Y186909D02*
X30410D01*
X30710Y186759D01*
X30860Y186310D01*
Y186010D01*
X30710Y185560D01*
X30410Y185260D01*
X28760Y186759D02*
X30410D01*
X30710Y186609D01*
X30860Y186310D01*
X28760Y185260D02*
X30860D01*
X28760Y185110D02*
X30860D01*
X28760Y187359D02*
Y186759D01*
Y185710D02*
Y185110D01*
X30860Y185260D02*
Y184660D01*
X27711Y183805D02*
X30860D01*
X27711Y183655D02*
X30860D01*
X29210D02*
X28910Y183355D01*
X28760Y183056D01*
Y182756D01*
X28910Y182306D01*
X29210Y182006D01*
X29660Y181856D01*
X29960D01*
X30410Y182006D01*
X30710Y182306D01*
X30860Y182756D01*
Y183056D01*
X30710Y183355D01*
X30410Y183655D01*
X28760Y182756D02*
X28910Y182456D01*
X29210Y182156D01*
X29660Y182006D01*
X29960D01*
X30410Y182156D01*
X30710Y182456D01*
X30860Y182756D01*
X27711Y184255D02*
Y183655D01*
X30560Y181271D02*
X30710Y181421D01*
X30860Y181271D01*
X30710Y181121D01*
X30560Y181271D01*
X29210Y178677D02*
X29360Y178827D01*
X29510Y178677D01*
X29360Y178527D01*
X29210D01*
X28910Y178827D01*
X28760Y179127D01*
Y179577D01*
X28910Y180027D01*
X29210Y180326D01*
X29660Y180476D01*
X29960D01*
X30410Y180326D01*
X30710Y180027D01*
X30860Y179577D01*
Y179277D01*
X30710Y178827D01*
X30410Y178527D01*
X28760Y179577D02*
X28910Y179877D01*
X29210Y180177D01*
X29660Y180326D01*
X29960D01*
X30410Y180177D01*
X30710Y179877D01*
X30860Y179577D01*
X28760Y177148D02*
X28910Y177597D01*
X29210Y177897D01*
X29660Y178047D01*
X29960D01*
X30410Y177897D01*
X30710Y177597D01*
X30860Y177148D01*
Y176848D01*
X30710Y176398D01*
X30410Y176098D01*
X29960Y175948D01*
X29660D01*
X29210Y176098D01*
X28910Y176398D01*
X28760Y176848D01*
Y177148D01*
X28910Y177447D01*
X29210Y177747D01*
X29660Y177897D01*
X29960D01*
X30410Y177747D01*
X30710Y177447D01*
X30860Y177148D01*
Y176848D02*
X30710Y176548D01*
X30410Y176248D01*
X29960Y176098D01*
X29660D01*
X29210Y176248D01*
X28910Y176548D01*
X28760Y176848D01*
Y175033D02*
X30860D01*
X28760Y174883D02*
X30860D01*
X29210D02*
X28910Y174583D01*
X28760Y174134D01*
Y173834D01*
X28910Y173384D01*
X29210Y173234D01*
X30860D01*
X28760Y173834D02*
X28910Y173534D01*
X29210Y173384D01*
X30860D01*
X29210Y173234D02*
X28910Y172934D01*
X28760Y172484D01*
Y172184D01*
X28910Y171734D01*
X29210Y171584D01*
X30860D01*
X28760Y172184D02*
X28910Y171884D01*
X29210Y171734D01*
X30860D01*
X28760Y175483D02*
Y174883D01*
X30860Y175483D02*
Y174434D01*
Y173834D02*
Y172784D01*
Y172184D02*
Y171135D01*
X28311Y168046D02*
X30860Y170595D01*
Y170895D01*
X27711Y167746D01*
Y167446D01*
X28311Y168046D01*
X29060Y166021D02*
X28760Y165871D01*
X29360D01*
X29060Y166021D01*
X28910Y166171D01*
X28760Y166471D01*
Y167071D01*
X28910Y167371D01*
X29060Y167521D01*
X29360D01*
X29510Y167371D01*
X29660Y167071D01*
X29960Y166321D01*
X30110Y166021D01*
X30260Y165871D01*
X29210Y167521D02*
X29360Y167371D01*
X29510Y167071D01*
X29810Y166321D01*
X29960Y166021D01*
X30110Y165871D01*
X30560D01*
X30710Y166021D01*
X30860Y166321D01*
Y166921D01*
X30710Y167221D01*
X30560Y167371D01*
X30260Y167521D01*
X30860D01*
X30560Y167371D01*
X29060Y165062D02*
X29210D01*
Y165212D01*
X29060D01*
X28910Y165062D01*
X28760Y164762D01*
Y164162D01*
X28910Y163862D01*
X29060Y163712D01*
X29360Y163562D01*
X30410D01*
X30710Y163412D01*
X30860Y163262D01*
X29060Y163712D02*
X30410D01*
X30710Y163562D01*
X30860Y163262D01*
Y163112D01*
X29360Y163712D02*
X29510Y163862D01*
X29660Y164762D01*
X29810Y165212D01*
X30110Y165362D01*
X30410D01*
X30710Y165212D01*
X30860Y164762D01*
Y164312D01*
X30710Y164012D01*
X30410Y163712D01*
X29660Y164762D02*
X29810Y165062D01*
X30110Y165212D01*
X30410D01*
X30710Y165062D01*
X30860Y164762D01*
X28760Y162213D02*
X30860D01*
X28760Y162063D02*
X30860D01*
X29210D02*
X28910Y161763D01*
X28760Y161313D01*
Y161013D01*
X28910Y160563D01*
X29210Y160413D01*
X30860D01*
X28760Y161013D02*
X28910Y160713D01*
X29210Y160563D01*
X30860D01*
X29210Y160413D02*
X28910Y160113D01*
X28760Y159663D01*
Y159364D01*
X28910Y158914D01*
X29210Y158764D01*
X30860D01*
X28760Y159364D02*
X28910Y159064D01*
X29210Y158914D01*
X30860D01*
X28760Y162662D02*
Y162063D01*
X30860Y162662D02*
Y161613D01*
Y161013D02*
Y159963D01*
Y159364D02*
Y158314D01*
X28760Y157774D02*
X30860Y156875D01*
X28760Y157624D02*
X30560Y156875D01*
X28760Y155975D02*
X30860Y156875D01*
X31460Y157174D01*
X31760Y157474D01*
X31909Y157774D01*
Y157924D01*
X31760Y158074D01*
X31610Y157924D01*
X31760Y157774D01*
X28760Y158074D02*
Y157174D01*
Y156575D02*
Y155675D01*
X29060Y154940D02*
X29210D01*
Y155090D01*
X29060D01*
X28910Y154940D01*
X28760Y154640D01*
Y154040D01*
X28910Y153741D01*
X29060Y153591D01*
X29360Y153441D01*
X30410D01*
X30710Y153291D01*
X30860Y153141D01*
X29060Y153591D02*
X30410D01*
X30710Y153441D01*
X30860Y153141D01*
Y152991D01*
X29360Y153591D02*
X29510Y153741D01*
X29660Y154640D01*
X29810Y155090D01*
X30110Y155240D01*
X30410D01*
X30710Y155090D01*
X30860Y154640D01*
Y154190D01*
X30710Y153891D01*
X30410Y153591D01*
X29660Y154640D02*
X29810Y154940D01*
X30110Y155090D01*
X30410D01*
X30710Y154940D01*
X30860Y154640D01*
X28760Y152091D02*
X30860D01*
X28760Y151941D02*
X30860D01*
X29660D02*
X29210Y151791D01*
X28910Y151491D01*
X28760Y151191D01*
Y150742D01*
X28910Y150592D01*
X29060D01*
X29210Y150742D01*
X29060Y150891D01*
X28910Y150742D01*
X28760Y152541D02*
Y151941D01*
X30860Y152541D02*
Y151491D01*
X29060Y148612D02*
X28760Y148462D01*
X29360D01*
X29060Y148612D01*
X28910Y148762D01*
X28760Y149062D01*
Y149662D01*
X28910Y149962D01*
X29060Y150112D01*
X29360D01*
X29510Y149962D01*
X29660Y149662D01*
X29960Y148912D01*
X30110Y148612D01*
X30260Y148462D01*
X29210Y150112D02*
X29360Y149962D01*
X29510Y149662D01*
X29810Y148912D01*
X29960Y148612D01*
X30110Y148462D01*
X30560D01*
X30710Y148612D01*
X30860Y148912D01*
Y149512D01*
X30710Y149812D01*
X30560Y149962D01*
X30260Y150112D01*
X30860D01*
X30560Y149962D01*
X29060Y147653D02*
X29210D01*
Y147802D01*
X29060D01*
X28910Y147653D01*
X28760Y147353D01*
Y146753D01*
X28910Y146453D01*
X29060Y146303D01*
X29360Y146153D01*
X30410D01*
X30710Y146003D01*
X30860Y145853D01*
X29060Y146303D02*
X30410D01*
X30710Y146153D01*
X30860Y145853D01*
Y145703D01*
X29360Y146303D02*
X29510Y146453D01*
X29660Y147353D01*
X29810Y147802D01*
X30110Y147952D01*
X30410D01*
X30710Y147802D01*
X30860Y147353D01*
Y146903D01*
X30710Y146603D01*
X30410Y146303D01*
X29660Y147353D02*
X29810Y147653D01*
X30110Y147802D01*
X30410D01*
X30710Y147653D01*
X30860Y147353D01*
X27711Y143454D02*
X30860D01*
X27711Y143304D02*
X30860D01*
X29210Y143454D02*
X28910Y143754D01*
X28760Y144054D01*
Y144354D01*
X28910Y144804D01*
X29210Y145103D01*
X29660Y145253D01*
X29960D01*
X30410Y145103D01*
X30710Y144804D01*
X30860Y144354D01*
Y144054D01*
X30710Y143754D01*
X30410Y143454D01*
X28760Y144354D02*
X28910Y144654D01*
X29210Y144954D01*
X29660Y145103D01*
X29960D01*
X30410Y144954D01*
X30710Y144654D01*
X30860Y144354D01*
X27711Y143904D02*
Y143304D01*
X30860Y143454D02*
Y142854D01*
X29060Y142120D02*
X29210D01*
Y142269D01*
X29060D01*
X28910Y142120D01*
X28760Y141820D01*
Y141220D01*
X28910Y140920D01*
X29060Y140770D01*
X29360Y140620D01*
X30410D01*
X30710Y140470D01*
X30860Y140320D01*
X29060Y140770D02*
X30410D01*
X30710Y140620D01*
X30860Y140320D01*
Y140170D01*
X29360Y140770D02*
X29510Y140920D01*
X29660Y141820D01*
X29810Y142269D01*
X30110Y142419D01*
X30410D01*
X30710Y142269D01*
X30860Y141820D01*
Y141370D01*
X30710Y141070D01*
X30410Y140770D01*
X29660Y141820D02*
X29810Y142120D01*
X30110Y142269D01*
X30410D01*
X30710Y142120D01*
X30860Y141820D01*
Y138821D02*
X30710Y138970D01*
X30260Y139120D01*
X27711D01*
Y139270D01*
X30260D01*
X30710Y139120D01*
X30860Y138821D01*
Y138521D01*
X30710Y138221D01*
X30410Y138071D01*
X28760Y139720D02*
Y138521D01*
X28311Y134712D02*
X30860Y137261D01*
Y137561D01*
X27711Y134412D01*
Y134112D01*
X28311Y134712D01*
X27711Y133737D02*
X30860D01*
X27711Y133587D02*
X30860D01*
X27711Y134187D02*
Y132388D01*
X27861Y131938D01*
X28011Y131788D01*
X28311Y131638D01*
X28611D01*
X28910Y131788D01*
X29060Y131938D01*
X29210Y132388D01*
Y133587D01*
X27711Y132388D02*
X27861Y132088D01*
X28011Y131938D01*
X28311Y131788D01*
X28611D01*
X28910Y131938D01*
X29060Y132088D01*
X29210Y132388D01*
X30860Y134187D02*
Y133138D01*
X29210Y132838D02*
X29360Y132538D01*
X29510Y132388D01*
X30560Y131938D01*
X30710Y131788D01*
Y131638D01*
X30560Y131488D01*
X29360Y132538D02*
X29660Y132388D01*
X30710Y132088D01*
X30860Y131938D01*
Y131638D01*
X30560Y131488D01*
X30410D01*
X27711Y130034D02*
X27861Y130483D01*
X28161Y130783D01*
X28461Y130933D01*
X29060Y131083D01*
X29510D01*
X30110Y130933D01*
X30410Y130783D01*
X30710Y130483D01*
X30860Y130034D01*
Y129734D01*
X30710Y129284D01*
X30410Y128984D01*
X30110Y128834D01*
X29510Y128684D01*
X29060D01*
X28461Y128834D01*
X28161Y128984D01*
X27861Y129284D01*
X27711Y129734D01*
Y130034D01*
X27861Y130333D01*
X28161Y130633D01*
X28461Y130783D01*
X29060Y130933D01*
X29510D01*
X30110Y130783D01*
X30410Y130633D01*
X30710Y130333D01*
X30860Y130034D01*
Y129734D02*
X30710Y129434D01*
X30410Y129134D01*
X30110Y128984D01*
X29510Y128834D01*
X29060D01*
X28461Y128984D01*
X28161Y129134D01*
X27861Y129434D01*
X27711Y129734D01*
X28161Y126300D02*
X27711Y126150D01*
X28611D01*
X28161Y126300D01*
X27861Y126600D01*
X27711Y127050D01*
Y127499D01*
X27861Y127949D01*
X28161Y128249D01*
X28461D01*
X28760Y128099D01*
X28910Y127949D01*
X29060Y127649D01*
X29360Y126750D01*
X29510Y126450D01*
X29810Y126150D01*
X28461Y128249D02*
X28760Y127949D01*
X28910Y127649D01*
X29210Y126750D01*
X29360Y126450D01*
X29510Y126300D01*
X29810Y126150D01*
X30410D01*
X30710Y126450D01*
X30860Y126900D01*
Y127349D01*
X30710Y127799D01*
X30410Y128099D01*
X29960Y128249D01*
X30860D01*
X30410Y128099D01*
X29510Y125685D02*
Y122986D01*
X27711Y122131D02*
X30860D01*
X27711Y121981D02*
X30860D01*
X27711Y122581D02*
Y120782D01*
X27861Y120332D01*
X28011Y120182D01*
X28311Y120032D01*
X28611D01*
X28910Y120182D01*
X29060Y120332D01*
X29210Y120782D01*
Y121981D01*
X27711Y120782D02*
X27861Y120482D01*
X28011Y120332D01*
X28311Y120182D01*
X28611D01*
X28910Y120332D01*
X29060Y120482D01*
X29210Y120782D01*
X30860Y122581D02*
Y121531D01*
X29210Y121231D02*
X29360Y120932D01*
X29510Y120782D01*
X30560Y120332D01*
X30710Y120182D01*
Y120032D01*
X30560Y119882D01*
X29360Y120932D02*
X29660Y120782D01*
X30710Y120482D01*
X30860Y120332D01*
Y120032D01*
X30560Y119882D01*
X30410D01*
X28760Y118577D02*
X28910Y119027D01*
X29210Y119327D01*
X29660Y119477D01*
X29960D01*
X30410Y119327D01*
X30710Y119027D01*
X30860Y118577D01*
Y118278D01*
X30710Y117828D01*
X30410Y117528D01*
X29960Y117378D01*
X29660D01*
X29210Y117528D01*
X28910Y117828D01*
X28760Y118278D01*
Y118577D01*
X28910Y118877D01*
X29210Y119177D01*
X29660Y119327D01*
X29960D01*
X30410Y119177D01*
X30710Y118877D01*
X30860Y118577D01*
Y118278D02*
X30710Y117978D01*
X30410Y117678D01*
X29960Y117528D01*
X29660D01*
X29210Y117678D01*
X28910Y117978D01*
X28760Y118278D01*
X27711Y116463D02*
X30860D01*
X27711Y116313D02*
X30860D01*
X29210D02*
X28910Y116013D01*
X28760Y115713D01*
Y115413D01*
X28910Y114964D01*
X29210Y114664D01*
X29660Y114514D01*
X29960D01*
X30410Y114664D01*
X30710Y114964D01*
X30860Y115413D01*
Y115713D01*
X30710Y116013D01*
X30410Y116313D01*
X28760Y115413D02*
X28910Y115114D01*
X29210Y114814D01*
X29660Y114664D01*
X29960D01*
X30410Y114814D01*
X30710Y115114D01*
X30860Y115413D01*
X27711Y116913D02*
Y116313D01*
X28760Y113179D02*
X28910Y113629D01*
X29210Y113929D01*
X29660Y114079D01*
X29960D01*
X30410Y113929D01*
X30710Y113629D01*
X30860Y113179D01*
Y112879D01*
X30710Y112429D01*
X30410Y112130D01*
X29960Y111980D01*
X29660D01*
X29210Y112130D01*
X28910Y112429D01*
X28760Y112879D01*
Y113179D01*
X28910Y113479D01*
X29210Y113779D01*
X29660Y113929D01*
X29960D01*
X30410Y113779D01*
X30710Y113479D01*
X30860Y113179D01*
Y112879D02*
X30710Y112579D01*
X30410Y112279D01*
X29960Y112130D01*
X29660D01*
X29210Y112279D01*
X28910Y112579D01*
X28760Y112879D01*
X30860Y110615D02*
X30710Y110765D01*
X30260Y110915D01*
X27711D01*
Y111065D01*
X30260D01*
X30710Y110915D01*
X30860Y110615D01*
Y110315D01*
X30710Y110015D01*
X30410Y109865D01*
X28760Y111515D02*
Y110315D01*
X29510Y109355D02*
Y106656D01*
X27711Y105802D02*
X30860D01*
X27711Y105652D02*
X30860D01*
X27711Y103852D02*
X30860D01*
X27711Y103702D02*
X30860D01*
X27711Y106252D02*
Y105202D01*
Y104302D02*
Y103253D01*
X29210Y105652D02*
Y103852D01*
X30860Y106252D02*
Y105202D01*
Y104302D02*
Y103253D01*
X29060Y102578D02*
X29210D01*
Y102728D01*
X29060D01*
X28910Y102578D01*
X28760Y102278D01*
Y101678D01*
X28910Y101378D01*
X29060Y101228D01*
X29360Y101078D01*
X30410D01*
X30710Y100928D01*
X30860Y100778D01*
X29060Y101228D02*
X30410D01*
X30710Y101078D01*
X30860Y100778D01*
Y100628D01*
X29360Y101228D02*
X29510Y101378D01*
X29660Y102278D01*
X29810Y102728D01*
X30110Y102878D01*
X30410D01*
X30710Y102728D01*
X30860Y102278D01*
Y101828D01*
X30710Y101528D01*
X30410Y101228D01*
X29660Y102278D02*
X29810Y102578D01*
X30110Y102728D01*
X30410D01*
X30710Y102578D01*
X30860Y102278D01*
X28760Y99729D02*
X30860D01*
X28760Y99579D02*
X30860D01*
X29660D02*
X29210Y99429D01*
X28910Y99129D01*
X28760Y98829D01*
Y98379D01*
X28910Y98229D01*
X29060D01*
X29210Y98379D01*
X29060Y98529D01*
X28910Y98379D01*
X28760Y100179D02*
Y99579D01*
X30860Y100179D02*
Y99129D01*
X27711Y95950D02*
X30860D01*
X27711Y95800D02*
X30860D01*
X29210Y95950D02*
X28910Y96250D01*
X28760Y96550D01*
Y96850D01*
X28910Y97300D01*
X29210Y97600D01*
X29660Y97750D01*
X29960D01*
X30410Y97600D01*
X30710Y97300D01*
X30860Y96850D01*
Y96550D01*
X30710Y96250D01*
X30410Y95950D01*
X28760Y96850D02*
X28910Y97150D01*
X29210Y97450D01*
X29660Y97600D01*
X29960D01*
X30410Y97450D01*
X30710Y97150D01*
X30860Y96850D01*
X27711Y96400D02*
Y95800D01*
X30860Y95950D02*
Y95350D01*
X28760Y94466D02*
X30860Y93866D01*
X28760Y94316D02*
X30410Y93866D01*
X28760Y93266D02*
X30860Y93866D01*
X28760Y93266D02*
X30860Y92666D01*
X28760Y93116D02*
X30410Y92666D01*
X28760Y92066D02*
X30860Y92666D01*
X28760Y94915D02*
Y93866D01*
Y92516D02*
Y91616D01*
X29060Y90972D02*
X29210D01*
Y91122D01*
X29060D01*
X28910Y90972D01*
X28760Y90672D01*
Y90072D01*
X28910Y89772D01*
X29060Y89622D01*
X29360Y89472D01*
X30410D01*
X30710Y89322D01*
X30860Y89172D01*
X29060Y89622D02*
X30410D01*
X30710Y89472D01*
X30860Y89172D01*
Y89022D01*
X29360Y89622D02*
X29510Y89772D01*
X29660Y90672D01*
X29810Y91122D01*
X30110Y91272D01*
X30410D01*
X30710Y91122D01*
X30860Y90672D01*
Y90222D01*
X30710Y89922D01*
X30410Y89622D01*
X29660Y90672D02*
X29810Y90972D01*
X30110Y91122D01*
X30410D01*
X30710Y90972D01*
X30860Y90672D01*
X28760Y88123D02*
X30860D01*
X28760Y87973D02*
X30860D01*
X29660D02*
X29210Y87823D01*
X28910Y87523D01*
X28760Y87223D01*
Y86773D01*
X28910Y86623D01*
X29060D01*
X29210Y86773D01*
X29060Y86923D01*
X28910Y86773D01*
X28760Y88573D02*
Y87973D01*
X30860Y88573D02*
Y87523D01*
X29660Y85993D02*
Y84194D01*
X29360D01*
X29060Y84344D01*
X28910Y84494D01*
X28760Y84794D01*
Y85244D01*
X28910Y85694D01*
X29210Y85993D01*
X29660Y86143D01*
X29960D01*
X30410Y85993D01*
X30710Y85694D01*
X30860Y85244D01*
Y84944D01*
X30710Y84494D01*
X30410Y84194D01*
X29660Y84344D02*
X29210D01*
X28910Y84494D01*
X28760Y85244D02*
X28910Y85544D01*
X29210Y85843D01*
X29660Y85993D01*
X29960D01*
X30410Y85843D01*
X30710Y85544D01*
X30860Y85244D01*
X563663Y87779D02*
X566418D01*
X563663D02*
Y86598D01*
X563794Y86205D01*
X563926Y86073D01*
X564188Y85942D01*
X564450D01*
X564713Y86073D01*
X564844Y86205D01*
X564975Y86598D01*
Y87779D01*
Y86861D02*
X566418Y85942D01*
X564319Y85194D02*
X564188D01*
X563926Y85063D01*
X563794Y84932D01*
X563663Y84670D01*
Y84145D01*
X563794Y83882D01*
X563926Y83751D01*
X564188Y83620D01*
X564450D01*
X564713Y83751D01*
X565106Y84013D01*
X566418Y85325D01*
Y83489D01*
X567337Y82872D02*
Y80773D01*
X563663Y80418D02*
X566418D01*
X563663D02*
Y79500D01*
X563794Y79106D01*
X564057Y78844D01*
X564319Y78713D01*
X564713Y78582D01*
X565369D01*
X565762Y78713D01*
X566025Y78844D01*
X566287Y79106D01*
X566418Y79500D01*
Y80418D01*
X563663Y77965D02*
X566418D01*
X563663D02*
Y76784D01*
X563794Y76390D01*
X563926Y76259D01*
X564188Y76128D01*
X564450D01*
X564713Y76259D01*
X564844Y76390D01*
X564975Y76784D01*
Y77965D01*
Y77047D02*
X566418Y76128D01*
X563663Y75511D02*
X566418Y74462D01*
X563663Y73412D02*
X566418Y74462D01*
X563663Y72795D02*
Y71352D01*
X564713Y72139D01*
Y71746D01*
X564844Y71483D01*
X564975Y71352D01*
X565369Y71221D01*
X565631D01*
X566025Y71352D01*
X566287Y71614D01*
X566418Y72008D01*
Y72402D01*
X566287Y72795D01*
X566156Y72927D01*
X565894Y73058D01*
X106981Y16739D02*
Y14640D01*
X105931Y13590D01*
X104882Y14640D01*
Y16739D01*
X101733Y16214D02*
X102258Y16739D01*
X103307D01*
X103832Y16214D01*
Y14115D01*
X103307Y13590D01*
X102258D01*
X101733Y14115D01*
X98584Y16214D02*
X99109Y16739D01*
X100159D01*
X100683Y16214D01*
Y15690D01*
X100159Y15165D01*
X99109D01*
X98584Y14640D01*
Y14115D01*
X99109Y13590D01*
X100159D01*
X100683Y14115D01*
X92287Y16214D02*
X92812Y16739D01*
X93861D01*
X94386Y16214D01*
Y14115D01*
X93861Y13590D01*
X92812D01*
X92287Y14115D01*
X90713Y13590D02*
X89663D01*
X89139Y14115D01*
Y15165D01*
X89663Y15690D01*
X90713D01*
X91238Y15165D01*
Y14115D01*
X90713Y13590D01*
X88089D02*
Y15690D01*
X87564D01*
X87040Y15165D01*
Y13590D01*
Y15165D01*
X86515Y15690D01*
X85990Y15165D01*
Y13590D01*
X84940D02*
Y15690D01*
X84416D01*
X83891Y15165D01*
Y13590D01*
Y15165D01*
X83366Y15690D01*
X82841Y15165D01*
Y13590D01*
X81792D02*
X80742D01*
X81267D01*
Y15690D01*
X81792D01*
X78643Y16214D02*
Y15690D01*
X79168D01*
X78118D01*
X78643D01*
Y14115D01*
X78118Y13590D01*
X76544Y15690D02*
X76019D01*
Y15165D01*
X76544D01*
Y15690D01*
Y14115D02*
X76019D01*
Y13590D01*
X76544D01*
Y14115D01*
X106910Y10050D02*
X106385Y10574D01*
X105335D01*
X104810Y10050D01*
Y9525D01*
X105335Y9000D01*
X105860D01*
X105335D01*
X104810Y8475D01*
Y7950D01*
X105335Y7426D01*
X106385D01*
X106910Y7950D01*
X103761Y10050D02*
X103236Y10574D01*
X102187D01*
X101662Y10050D01*
Y9525D01*
X102187Y9000D01*
X102711D01*
X102187D01*
X101662Y8475D01*
Y7950D01*
X102187Y7426D01*
X103236D01*
X103761Y7950D01*
X98513Y10574D02*
X99563Y10050D01*
X100612Y9000D01*
Y7950D01*
X100087Y7426D01*
X99038D01*
X98513Y7950D01*
Y8475D01*
X99038Y9000D01*
X100612D01*
X96939Y9525D02*
X95889D01*
X95365Y9000D01*
Y7426D01*
X96939D01*
X97464Y7950D01*
X96939Y8475D01*
X95365D01*
X94315Y10050D02*
X93790Y10574D01*
X92741D01*
X92216Y10050D01*
Y9525D01*
X92741Y9000D01*
X93266D01*
X92741D01*
X92216Y8475D01*
Y7950D01*
X92741Y7426D01*
X93790D01*
X94315Y7950D01*
X89067Y7426D02*
X91167D01*
X89067Y9525D01*
Y10050D01*
X89592Y10574D01*
X90642D01*
X91167Y10050D01*
X87493Y7426D02*
Y10050D01*
Y9000D01*
X88018D01*
X86968D01*
X87493D01*
Y10050D01*
X86968Y10574D01*
X85394Y10050D02*
X84869Y10574D01*
X83820D01*
X83295Y10050D01*
Y9525D01*
X83820Y9000D01*
X84345D01*
X83820D01*
X83295Y8475D01*
Y7950D01*
X83820Y7426D01*
X84869D01*
X85394Y7950D01*
X134622Y63264D02*
X135016Y63133D01*
X135278Y62739D01*
X135409Y62084D01*
Y61690D01*
X135278Y61034D01*
X135016Y60640D01*
X134622Y60509D01*
X134360D01*
X133966Y60640D01*
X133704Y61034D01*
X133573Y61690D01*
Y62084D01*
X133704Y62739D01*
X133966Y63133D01*
X134360Y63264D01*
X134622D01*
X132825Y60771D02*
X132956Y60640D01*
X132825Y60509D01*
X132694Y60640D01*
X132825Y60771D01*
X130516Y63264D02*
X131827D01*
X131959Y62084D01*
X131827Y62215D01*
X131434Y62346D01*
X131040D01*
X130647Y62215D01*
X130384Y61952D01*
X130253Y61559D01*
Y61296D01*
X130384Y60903D01*
X130647Y60640D01*
X131040Y60509D01*
X131434D01*
X131827Y60640D01*
X131959Y60771D01*
X132090Y61034D01*
X127537Y60509D02*
X128587Y63264D01*
X129636Y60509D01*
X129243Y61427D02*
X127931D01*
X123811Y63789D02*
X124073Y63527D01*
X124336Y63133D01*
X124598Y62608D01*
X124729Y61952D01*
Y61427D01*
X124598Y60771D01*
X124336Y60247D01*
X124073Y59853D01*
X123811Y59591D01*
X124073Y63527D02*
X124336Y63002D01*
X124467Y62608D01*
X124598Y61952D01*
Y61427D01*
X124467Y60771D01*
X124336Y60378D01*
X124073Y59853D01*
X123286Y62739D02*
X123024Y62871D01*
X122630Y63264D01*
Y60509D01*
X119166D02*
X120216Y63264D01*
X121265Y60509D01*
X120872Y61427D02*
X119560D01*
X118523Y63789D02*
X118261Y63527D01*
X117999Y63133D01*
X117736Y62608D01*
X117605Y61952D01*
Y61427D01*
X117736Y60771D01*
X117999Y60247D01*
X118261Y59853D01*
X118523Y59591D01*
X118261Y63527D02*
X117999Y63002D01*
X117867Y62608D01*
X117736Y61952D01*
Y61427D01*
X117867Y60771D01*
X117999Y60378D01*
X118261Y59853D01*
X592645Y203878D02*
Y201122D01*
Y203878D02*
X591727D01*
X591333Y203747D01*
X591071Y203484D01*
X590940Y203222D01*
X590808Y202828D01*
Y202172D01*
X590940Y201778D01*
X591071Y201516D01*
X591333Y201254D01*
X591727Y201122D01*
X592645D01*
X588355Y203878D02*
X589667Y201122D01*
X590192Y203878D02*
X588355D01*
X141156Y382878D02*
Y380122D01*
Y382878D02*
X139975D01*
X139581Y382747D01*
X139450Y382615D01*
X139319Y382353D01*
Y382090D01*
X139450Y381828D01*
X139581Y381697D01*
X139975Y381566D01*
X141156D01*
X140237D02*
X139319Y380122D01*
X138702Y382353D02*
X138440Y382484D01*
X138046Y382878D01*
Y380122D01*
X135894Y382878D02*
X136288Y382747D01*
X136550Y382353D01*
X136681Y381697D01*
Y381303D01*
X136550Y380647D01*
X136288Y380254D01*
X135894Y380122D01*
X135632D01*
X135238Y380254D01*
X134976Y380647D01*
X134845Y381303D01*
Y381697D01*
X134976Y382353D01*
X135238Y382747D01*
X135632Y382878D01*
X135894D01*
X240090Y337878D02*
Y335122D01*
Y337878D02*
X238909D01*
X238515Y337747D01*
X238384Y337615D01*
X238253Y337353D01*
Y337090D01*
X238384Y336828D01*
X238515Y336697D01*
X238909Y336566D01*
X240090D01*
X239172D02*
X238253Y335122D01*
X237636Y337353D02*
X237374Y337484D01*
X236980Y337878D01*
Y335122D01*
X233910Y336959D02*
X234041Y336566D01*
X234304Y336303D01*
X234697Y336172D01*
X234828D01*
X235222Y336303D01*
X235485Y336566D01*
X235616Y336959D01*
Y337090D01*
X235485Y337484D01*
X235222Y337747D01*
X234828Y337878D01*
X234697D01*
X234304Y337747D01*
X234041Y337484D01*
X233910Y336959D01*
Y336303D01*
X234041Y335647D01*
X234304Y335254D01*
X234697Y335122D01*
X234960D01*
X235353Y335254D01*
X235485Y335516D01*
X232155Y380878D02*
Y378122D01*
Y380878D02*
X230975D01*
X230581Y380747D01*
X230450Y380615D01*
X230319Y380353D01*
Y380090D01*
X230450Y379828D01*
X230581Y379697D01*
X230975Y379566D01*
X232155D01*
X231237D02*
X230319Y378122D01*
X229702Y380353D02*
X229439Y380484D01*
X229046Y380878D01*
Y378122D01*
X227025Y380878D02*
X227419Y380747D01*
X227550Y380484D01*
Y380222D01*
X227419Y379959D01*
X227157Y379828D01*
X226632Y379697D01*
X226238Y379566D01*
X225976Y379303D01*
X225845Y379041D01*
Y378647D01*
X225976Y378385D01*
X226107Y378254D01*
X226501Y378122D01*
X227025D01*
X227419Y378254D01*
X227550Y378385D01*
X227681Y378647D01*
Y379041D01*
X227550Y379303D01*
X227288Y379566D01*
X226894Y379697D01*
X226369Y379828D01*
X226107Y379959D01*
X225976Y380222D01*
Y380484D01*
X226107Y380747D01*
X226501Y380878D01*
X227025D01*
X240655D02*
Y378122D01*
Y380878D02*
X239475D01*
X239081Y380747D01*
X238950Y380615D01*
X238819Y380353D01*
Y380090D01*
X238950Y379828D01*
X239081Y379697D01*
X239475Y379566D01*
X240655D01*
X239737D02*
X238819Y378122D01*
X238202Y380353D02*
X237940Y380484D01*
X237546Y380878D01*
Y378122D01*
X234345Y380878D02*
X235657Y378122D01*
X236181Y380878D02*
X234345D01*
X222278Y343741D02*
X222016Y343872D01*
X221754Y344135D01*
X221622Y344397D01*
Y344922D01*
X221754Y345185D01*
X222016Y345447D01*
X222278Y345578D01*
X222672Y345709D01*
X223328D01*
X223722Y345578D01*
X223984Y345447D01*
X224247Y345185D01*
X224378Y344922D01*
Y344397D01*
X224247Y344135D01*
X223984Y343872D01*
X223722Y343741D01*
X222147Y342967D02*
X222016Y342705D01*
X221622Y342311D01*
X224378D01*
X222147Y340947D02*
X222016Y340684D01*
X221622Y340291D01*
X224378D01*
X205278Y397832D02*
X205016Y397963D01*
X204753Y398225D01*
X204622Y398488D01*
Y399013D01*
X204753Y399275D01*
X205016Y399537D01*
X205278Y399669D01*
X205672Y399800D01*
X206328D01*
X206722Y399669D01*
X206984Y399537D01*
X207246Y399275D01*
X207378Y399013D01*
Y398488D01*
X207246Y398225D01*
X206984Y397963D01*
X206722Y397832D01*
X205147Y397058D02*
X205016Y396795D01*
X204622Y396402D01*
X207378D01*
X204622Y394250D02*
X204753Y394643D01*
X205147Y394906D01*
X205803Y395037D01*
X206197D01*
X206853Y394906D01*
X207246Y394643D01*
X207378Y394250D01*
Y393987D01*
X207246Y393594D01*
X206853Y393331D01*
X206197Y393200D01*
X205803D01*
X205147Y393331D01*
X204753Y393594D01*
X204622Y393987D01*
Y394250D01*
X116622Y374578D02*
X119378D01*
X117278Y372033D02*
X117016Y372164D01*
X116753Y372426D01*
X116622Y372689D01*
Y373214D01*
X116753Y373476D01*
X117016Y373739D01*
X117278Y373870D01*
X117672Y374001D01*
X118328D01*
X118722Y373870D01*
X118984Y373739D01*
X119246Y373476D01*
X119378Y373214D01*
Y372689D01*
X119246Y372426D01*
X118984Y372164D01*
X118722Y372033D01*
X117278Y371128D02*
X117147D01*
X116885Y370996D01*
X116753Y370865D01*
X116622Y370603D01*
Y370078D01*
X116753Y369815D01*
X116885Y369684D01*
X117147Y369553D01*
X117410D01*
X117672Y369684D01*
X118066Y369947D01*
X119378Y371259D01*
Y369422D01*
X548837Y14872D02*
X546082D01*
X548837D02*
Y15790D01*
X548706Y16184D01*
X548443Y16446D01*
X548181Y16578D01*
X547787Y16709D01*
X547131D01*
X546738Y16578D01*
X546475Y16446D01*
X546213Y16184D01*
X546082Y15790D01*
Y14872D01*
X548312Y17325D02*
X548443Y17588D01*
X548837Y17981D01*
X546082D01*
X545163Y19346D02*
Y21445D01*
X548837Y21800D02*
X546082D01*
X548837D02*
Y22718D01*
X548706Y23111D01*
X548443Y23374D01*
X548181Y23505D01*
X547787Y23636D01*
X547131D01*
X546738Y23505D01*
X546475Y23374D01*
X546213Y23111D01*
X546082Y22718D01*
Y21800D01*
X548837Y24253D02*
X546082D01*
X548837D02*
Y25434D01*
X548706Y25828D01*
X548574Y25959D01*
X548312Y26090D01*
X548050D01*
X547787Y25959D01*
X547656Y25828D01*
X547525Y25434D01*
Y24253D01*
Y25172D02*
X546082Y26090D01*
X548837Y26707D02*
X546082Y27756D01*
X548837Y28806D02*
X546082Y27756D01*
X548837Y30472D02*
X547000Y29160D01*
Y31128D01*
X548837Y30472D02*
X546082D01*
X273563Y395837D02*
Y393082D01*
Y395837D02*
X272644D01*
X272251Y395706D01*
X271988Y395443D01*
X271857Y395181D01*
X271726Y394787D01*
Y394131D01*
X271857Y393738D01*
X271988Y393475D01*
X272251Y393213D01*
X272644Y393082D01*
X273563D01*
X271109Y395312D02*
X270847Y395443D01*
X270453Y395837D01*
Y393082D01*
X269089Y392163D02*
X266989D01*
X266635Y395837D02*
Y393082D01*
Y395837D02*
X265717D01*
X265323Y395706D01*
X265060Y395443D01*
X264929Y395181D01*
X264798Y394787D01*
Y394131D01*
X264929Y393738D01*
X265060Y393475D01*
X265323Y393213D01*
X265717Y393082D01*
X266635D01*
X264181Y395837D02*
Y393082D01*
Y395837D02*
X263000D01*
X262607Y395706D01*
X262476Y395574D01*
X262345Y395312D01*
Y395050D01*
X262476Y394787D01*
X262607Y394656D01*
X263000Y394525D01*
X264181D01*
X263263D02*
X262345Y393082D01*
X261728Y395837D02*
X260678Y393082D01*
X259629Y395837D02*
X260678Y393082D01*
X259012Y395837D02*
X257569D01*
X258356Y394787D01*
X257962D01*
X257700Y394656D01*
X257569Y394525D01*
X257437Y394131D01*
Y393869D01*
X257569Y393475D01*
X257831Y393213D01*
X258225Y393082D01*
X258618D01*
X259012Y393213D01*
X259143Y393344D01*
X259274Y393606D01*
X83563Y386337D02*
Y383582D01*
Y386337D02*
X82644D01*
X82250Y386206D01*
X81988Y385943D01*
X81857Y385681D01*
X81726Y385287D01*
Y384631D01*
X81857Y384238D01*
X81988Y383975D01*
X82250Y383713D01*
X82644Y383582D01*
X83563D01*
X81109Y385812D02*
X80847Y385943D01*
X80453Y386337D01*
Y383582D01*
X79088Y382663D02*
X76989D01*
X76635Y386337D02*
Y383582D01*
Y386337D02*
X75717D01*
X75323Y386206D01*
X75060Y385943D01*
X74929Y385681D01*
X74798Y385287D01*
Y384631D01*
X74929Y384238D01*
X75060Y383975D01*
X75323Y383713D01*
X75717Y383582D01*
X76635D01*
X74181Y386337D02*
Y383582D01*
Y386337D02*
X73001D01*
X72607Y386206D01*
X72476Y386074D01*
X72344Y385812D01*
Y385550D01*
X72476Y385287D01*
X72607Y385156D01*
X73001Y385025D01*
X74181D01*
X73263D02*
X72344Y383582D01*
X71728Y386337D02*
X70678Y383582D01*
X69629Y386337D02*
X70678Y383582D01*
X69143Y385681D02*
Y385812D01*
X69012Y386074D01*
X68881Y386206D01*
X68618Y386337D01*
X68093D01*
X67831Y386206D01*
X67700Y386074D01*
X67569Y385812D01*
Y385550D01*
X67700Y385287D01*
X67962Y384894D01*
X69274Y383582D01*
X67437D01*
X2090Y393972D02*
X4846D01*
X2090D02*
Y393054D01*
X2222Y392660D01*
X2484Y392398D01*
X2747Y392267D01*
X3140Y392135D01*
X3796D01*
X4190Y392267D01*
X4452Y392398D01*
X4715Y392660D01*
X4846Y393054D01*
Y393972D01*
X2615Y391519D02*
X2484Y391256D01*
X2090Y390863D01*
X4846D01*
X5764Y389498D02*
Y387399D01*
X2090Y387045D02*
X4846D01*
X2090D02*
Y386126D01*
X2222Y385732D01*
X2484Y385470D01*
X2747Y385339D01*
X3140Y385208D01*
X3796D01*
X4190Y385339D01*
X4452Y385470D01*
X4715Y385732D01*
X4846Y386126D01*
Y387045D01*
X2090Y384591D02*
X4846D01*
X2090D02*
Y383410D01*
X2222Y383016D01*
X2353Y382885D01*
X2615Y382754D01*
X2878D01*
X3140Y382885D01*
X3271Y383016D01*
X3403Y383410D01*
Y384591D01*
Y383672D02*
X4846Y382754D01*
X2090Y382137D02*
X4846Y381088D01*
X2090Y380038D02*
X4846Y381088D01*
X2615Y379684D02*
X2484Y379421D01*
X2090Y379028D01*
X4846D01*
X125622Y312372D02*
X128378D01*
X125622D02*
Y311191D01*
X125753Y310798D01*
X125885Y310666D01*
X126147Y310535D01*
X126410D01*
X126672Y310666D01*
X126803Y310798D01*
X126934Y311191D01*
Y312372D01*
Y311454D02*
X128378Y310535D01*
X126278Y309787D02*
X126147D01*
X125885Y309656D01*
X125753Y309525D01*
X125622Y309262D01*
Y308738D01*
X125753Y308475D01*
X125885Y308344D01*
X126147Y308213D01*
X126410D01*
X126672Y308344D01*
X127066Y308606D01*
X128378Y309918D01*
Y308082D01*
X126278Y307334D02*
X126147D01*
X125885Y307203D01*
X125753Y307071D01*
X125622Y306809D01*
Y306284D01*
X125753Y306022D01*
X125885Y305890D01*
X126147Y305759D01*
X126410D01*
X126672Y305890D01*
X127066Y306153D01*
X128378Y307465D01*
Y305628D01*
X145282Y390878D02*
Y388122D01*
Y390878D02*
X144101D01*
X143707Y390746D01*
X143576Y390615D01*
X143445Y390353D01*
Y390090D01*
X143576Y389828D01*
X143707Y389697D01*
X144101Y389566D01*
X145282D01*
X144363D02*
X143445Y388122D01*
X142697Y390222D02*
Y390353D01*
X142566Y390615D01*
X142434Y390746D01*
X142172Y390878D01*
X141647D01*
X141385Y390746D01*
X141253Y390615D01*
X141122Y390353D01*
Y390090D01*
X141253Y389828D01*
X141516Y389434D01*
X142828Y388122D01*
X140991D01*
X140375Y390353D02*
X140112Y390484D01*
X139718Y390878D01*
Y388122D01*
X135872Y390878D02*
Y388122D01*
Y390878D02*
X134691D01*
X134298Y390746D01*
X134166Y390615D01*
X134035Y390353D01*
Y390090D01*
X134166Y389828D01*
X134298Y389697D01*
X134691Y389566D01*
X135872D01*
X134953D02*
X134035Y388122D01*
X133287Y390222D02*
Y390353D01*
X133156Y390615D01*
X133025Y390746D01*
X132762Y390878D01*
X132238D01*
X131975Y390746D01*
X131844Y390615D01*
X131713Y390353D01*
Y390090D01*
X131844Y389828D01*
X132106Y389434D01*
X133418Y388122D01*
X131582D01*
X130178Y390878D02*
X130571Y390746D01*
X130834Y390353D01*
X130965Y389697D01*
Y389303D01*
X130834Y388647D01*
X130571Y388253D01*
X130178Y388122D01*
X129915D01*
X129522Y388253D01*
X129259Y388647D01*
X129128Y389303D01*
Y389697D01*
X129259Y390353D01*
X129522Y390746D01*
X129915Y390878D01*
X130178D01*
X607378Y161845D02*
X604622D01*
X607378D02*
Y163025D01*
X607246Y163419D01*
X607115Y163550D01*
X606853Y163681D01*
X606590D01*
X606328Y163550D01*
X606197Y163419D01*
X606066Y163025D01*
Y161845D01*
Y162763D02*
X604622Y163681D01*
X606853Y164298D02*
X606984Y164560D01*
X607378Y164954D01*
X604622D01*
X607378Y166581D02*
Y168024D01*
X606328Y167237D01*
Y167631D01*
X606197Y167893D01*
X606066Y168024D01*
X605672Y168156D01*
X605410D01*
X605016Y168024D01*
X604753Y167762D01*
X604622Y167368D01*
Y166975D01*
X604753Y166581D01*
X604885Y166450D01*
X605147Y166319D01*
X65122Y439655D02*
X67878D01*
X65122D02*
Y438475D01*
X65254Y438081D01*
X65385Y437950D01*
X65647Y437819D01*
X65910D01*
X66172Y437950D01*
X66303Y438081D01*
X66434Y438475D01*
Y439655D01*
Y438737D02*
X67878Y437819D01*
X65647Y437202D02*
X65516Y436939D01*
X65122Y436546D01*
X67878D01*
X65778Y435050D02*
X65647D01*
X65385Y434919D01*
X65254Y434788D01*
X65122Y434525D01*
Y434000D01*
X65254Y433738D01*
X65385Y433607D01*
X65647Y433476D01*
X65910D01*
X66172Y433607D01*
X66566Y433869D01*
X67878Y435181D01*
Y433345D01*
X566122Y186674D02*
X568878D01*
X566122D02*
Y185493D01*
X566254Y185099D01*
X566385Y184968D01*
X566647Y184837D01*
X566910D01*
X567172Y184968D01*
X567303Y185099D01*
X567434Y185493D01*
Y186674D01*
Y185755D02*
X568878Y184837D01*
X566647Y184220D02*
X566516Y183958D01*
X566122Y183564D01*
X568878D01*
X566516Y180625D02*
X566254Y180756D01*
X566122Y181150D01*
Y181412D01*
X566254Y181806D01*
X566647Y182068D01*
X567303Y182200D01*
X567959D01*
X568484Y182068D01*
X568747Y181806D01*
X568878Y181412D01*
Y181281D01*
X568747Y180888D01*
X568484Y180625D01*
X568090Y180494D01*
X567959D01*
X567566Y180625D01*
X567303Y180888D01*
X567172Y181281D01*
Y181412D01*
X567303Y181806D01*
X567566Y182068D01*
X567959Y182200D01*
X557622Y186431D02*
X560378D01*
X557622D02*
Y185250D01*
X557754Y184857D01*
X557885Y184725D01*
X558147Y184594D01*
X558410D01*
X558672Y184725D01*
X558803Y184857D01*
X558934Y185250D01*
Y186431D01*
Y185513D02*
X560378Y184594D01*
X558147Y183977D02*
X558016Y183715D01*
X557622Y183321D01*
X560378D01*
X557622Y180382D02*
Y181694D01*
X558803Y181826D01*
X558672Y181694D01*
X558541Y181301D01*
Y180907D01*
X558672Y180514D01*
X558934Y180251D01*
X559328Y180120D01*
X559590D01*
X559984Y180251D01*
X560247Y180514D01*
X560378Y180907D01*
Y181301D01*
X560247Y181694D01*
X560115Y181826D01*
X559853Y181957D01*
X436122Y268221D02*
X438878D01*
X436122D02*
Y267040D01*
X436253Y266647D01*
X436385Y266515D01*
X436647Y266384D01*
X436910D01*
X437172Y266515D01*
X437303Y266647D01*
X437434Y267040D01*
Y268221D01*
Y267303D02*
X438878Y266384D01*
X436647Y265768D02*
X436516Y265505D01*
X436122Y265111D01*
X438878D01*
X436122Y262435D02*
X437959Y263747D01*
Y261779D01*
X436122Y262435D02*
X438878D01*
X148645Y382878D02*
Y380122D01*
Y382878D02*
X147464D01*
X147071Y382747D01*
X146940Y382615D01*
X146808Y382353D01*
Y382090D01*
X146940Y381828D01*
X147071Y381697D01*
X147464Y381566D01*
X148645D01*
X147727D02*
X146808Y380122D01*
X145536Y382878D02*
X145929Y382747D01*
X146060Y382484D01*
Y382222D01*
X145929Y381959D01*
X145667Y381828D01*
X145142Y381697D01*
X144748Y381566D01*
X144486Y381303D01*
X144355Y381041D01*
Y380647D01*
X144486Y380385D01*
X144617Y380254D01*
X145011Y380122D01*
X145536D01*
X145929Y380254D01*
X146060Y380385D01*
X146192Y380647D01*
Y381041D01*
X146060Y381303D01*
X145798Y381566D01*
X145404Y381697D01*
X144880Y381828D01*
X144617Y381959D01*
X144486Y382222D01*
Y382484D01*
X144617Y382747D01*
X145011Y382878D01*
X145536D01*
X532272Y45337D02*
Y42582D01*
Y45337D02*
X531092D01*
X530698Y45206D01*
X530567Y45074D01*
X530436Y44812D01*
Y44550D01*
X530567Y44287D01*
X530698Y44156D01*
X531092Y44025D01*
X532272D01*
X531354D02*
X530436Y42582D01*
X528244Y44943D02*
X528376Y45206D01*
X528769Y45337D01*
X529032D01*
X529425Y45206D01*
X529688Y44812D01*
X529819Y44156D01*
Y43500D01*
X529688Y42975D01*
X529425Y42713D01*
X529032Y42582D01*
X528900D01*
X528507Y42713D01*
X528244Y42975D01*
X528113Y43369D01*
Y43500D01*
X528244Y43894D01*
X528507Y44156D01*
X528900Y44287D01*
X529032D01*
X529425Y44156D01*
X529688Y43894D01*
X529819Y43500D01*
X527510Y41663D02*
X525411D01*
X525056Y45337D02*
Y42582D01*
Y45337D02*
X524138D01*
X523744Y45206D01*
X523482Y44943D01*
X523350Y44681D01*
X523219Y44287D01*
Y43631D01*
X523350Y43238D01*
X523482Y42975D01*
X523744Y42713D01*
X524138Y42582D01*
X525056D01*
X522603Y45337D02*
Y42582D01*
Y45337D02*
X521422D01*
X521028Y45206D01*
X520897Y45074D01*
X520766Y44812D01*
Y44550D01*
X520897Y44287D01*
X521028Y44156D01*
X521422Y44025D01*
X522603D01*
X521684D02*
X520766Y42582D01*
X520149Y45337D02*
X519100Y42582D01*
X518050Y45337D02*
X519100Y42582D01*
X516384Y45337D02*
X517696Y43500D01*
X515728D01*
X516384Y45337D02*
Y42582D01*
X532207Y85837D02*
Y83082D01*
Y85837D02*
X531026D01*
X530632Y85706D01*
X530501Y85575D01*
X530370Y85312D01*
Y85050D01*
X530501Y84787D01*
X530632Y84656D01*
X531026Y84525D01*
X532207D01*
X531288D02*
X530370Y83082D01*
X528179Y85443D02*
X528310Y85706D01*
X528704Y85837D01*
X528966D01*
X529360Y85706D01*
X529622Y85312D01*
X529753Y84656D01*
Y84000D01*
X529622Y83475D01*
X529360Y83213D01*
X528966Y83082D01*
X528835D01*
X528441Y83213D01*
X528179Y83475D01*
X528048Y83869D01*
Y84000D01*
X528179Y84394D01*
X528441Y84656D01*
X528835Y84787D01*
X528966D01*
X529360Y84656D01*
X529622Y84394D01*
X529753Y84000D01*
X527444Y82163D02*
X525345D01*
X524991Y85837D02*
Y83082D01*
Y85837D02*
X524072D01*
X523678Y85706D01*
X523416Y85443D01*
X523285Y85181D01*
X523154Y84787D01*
Y84131D01*
X523285Y83738D01*
X523416Y83475D01*
X523678Y83213D01*
X524072Y83082D01*
X524991D01*
X522537Y85837D02*
Y83082D01*
Y85837D02*
X521356D01*
X520963Y85706D01*
X520831Y85575D01*
X520700Y85312D01*
Y85050D01*
X520831Y84787D01*
X520963Y84656D01*
X521356Y84525D01*
X522537D01*
X521619D02*
X520700Y83082D01*
X520084Y85837D02*
X519034Y83082D01*
X517984Y85837D02*
X519034Y83082D01*
X517368Y85837D02*
X515924D01*
X516712Y84787D01*
X516318D01*
X516055Y84656D01*
X515924Y84525D01*
X515793Y84131D01*
Y83869D01*
X515924Y83475D01*
X516187Y83213D01*
X516580Y83082D01*
X516974D01*
X517368Y83213D01*
X517499Y83344D01*
X517630Y83606D01*
X429707Y316337D02*
Y313582D01*
Y316337D02*
X428526D01*
X428132Y316206D01*
X428001Y316074D01*
X427870Y315812D01*
Y315550D01*
X428001Y315287D01*
X428132Y315156D01*
X428526Y315025D01*
X429707D01*
X428789D02*
X427870Y313582D01*
X425679Y315943D02*
X425810Y316206D01*
X426204Y316337D01*
X426466D01*
X426860Y316206D01*
X427122Y315812D01*
X427253Y315156D01*
Y314500D01*
X427122Y313975D01*
X426860Y313713D01*
X426466Y313582D01*
X426335D01*
X425941Y313713D01*
X425679Y313975D01*
X425548Y314369D01*
Y314500D01*
X425679Y314894D01*
X425941Y315156D01*
X426335Y315287D01*
X426466D01*
X426860Y315156D01*
X427122Y314894D01*
X427253Y314500D01*
X424944Y312663D02*
X422845D01*
X422491Y316337D02*
Y313582D01*
Y316337D02*
X421572D01*
X421178Y316206D01*
X420916Y315943D01*
X420785Y315681D01*
X420654Y315287D01*
Y314631D01*
X420785Y314238D01*
X420916Y313975D01*
X421178Y313713D01*
X421572Y313582D01*
X422491D01*
X420037Y316337D02*
Y313582D01*
Y316337D02*
X418856D01*
X418463Y316206D01*
X418331Y316074D01*
X418200Y315812D01*
Y315550D01*
X418331Y315287D01*
X418463Y315156D01*
X418856Y315025D01*
X420037D01*
X419119D02*
X418200Y313582D01*
X417584Y316337D02*
X416534Y313582D01*
X415484Y316337D02*
X416534Y313582D01*
X414999Y315681D02*
Y315812D01*
X414867Y316074D01*
X414736Y316206D01*
X414474Y316337D01*
X413949D01*
X413687Y316206D01*
X413555Y316074D01*
X413424Y315812D01*
Y315550D01*
X413555Y315287D01*
X413818Y314894D01*
X415130Y313582D01*
X413293D01*
X410616Y283337D02*
Y280582D01*
Y283337D02*
X409436D01*
X409042Y283206D01*
X408911Y283074D01*
X408780Y282812D01*
Y282550D01*
X408911Y282287D01*
X409042Y282156D01*
X409436Y282025D01*
X410616D01*
X409698D02*
X408780Y280582D01*
X406589Y282943D02*
X406720Y283206D01*
X407113Y283337D01*
X407376D01*
X407769Y283206D01*
X408032Y282812D01*
X408163Y282156D01*
Y281500D01*
X408032Y280975D01*
X407769Y280713D01*
X407376Y280582D01*
X407244D01*
X406851Y280713D01*
X406589Y280975D01*
X406457Y281369D01*
Y281500D01*
X406589Y281894D01*
X406851Y282156D01*
X407244Y282287D01*
X407376D01*
X407769Y282156D01*
X408032Y281894D01*
X408163Y281500D01*
X405854Y279663D02*
X403754D01*
X403400Y283337D02*
Y280582D01*
Y283337D02*
X402482D01*
X402088Y283206D01*
X401826Y282943D01*
X401694Y282681D01*
X401563Y282287D01*
Y281631D01*
X401694Y281238D01*
X401826Y280975D01*
X402088Y280713D01*
X402482Y280582D01*
X403400D01*
X400947Y283337D02*
Y280582D01*
Y283337D02*
X399766D01*
X399372Y283206D01*
X399241Y283074D01*
X399110Y282812D01*
Y282550D01*
X399241Y282287D01*
X399372Y282156D01*
X399766Y282025D01*
X400947D01*
X400028D02*
X399110Y280582D01*
X398493Y283337D02*
X397443Y280582D01*
X396394Y283337D02*
X397443Y280582D01*
X396040Y282812D02*
X395777Y282943D01*
X395384Y283337D01*
Y280582D01*
X358345Y330837D02*
Y328082D01*
Y330837D02*
X357164D01*
X356770Y330706D01*
X356639Y330574D01*
X356508Y330312D01*
Y330050D01*
X356639Y329787D01*
X356770Y329656D01*
X357164Y329525D01*
X358345D01*
X357426D02*
X356508Y328082D01*
X355760Y330181D02*
Y330312D01*
X355629Y330574D01*
X355498Y330706D01*
X355235Y330837D01*
X354710D01*
X354448Y330706D01*
X354317Y330574D01*
X354186Y330312D01*
Y330050D01*
X354317Y329787D01*
X354579Y329394D01*
X355891Y328082D01*
X354054D01*
X353438Y327163D02*
X351338D01*
X350984Y330837D02*
Y328082D01*
Y330837D02*
X350066D01*
X349672Y330706D01*
X349410Y330443D01*
X349278Y330181D01*
X349147Y329787D01*
Y329131D01*
X349278Y328738D01*
X349410Y328475D01*
X349672Y328213D01*
X350066Y328082D01*
X350984D01*
X348531Y330837D02*
Y328082D01*
Y330837D02*
X347350D01*
X346956Y330706D01*
X346825Y330574D01*
X346694Y330312D01*
Y330050D01*
X346825Y329787D01*
X346956Y329656D01*
X347350Y329525D01*
X348531D01*
X347612D02*
X346694Y328082D01*
X346077Y330837D02*
X345027Y328082D01*
X343978Y330837D02*
X345027Y328082D01*
X342311Y330837D02*
X343623Y329000D01*
X341655D01*
X342311Y330837D02*
Y328082D01*
X497663Y236063D02*
X500418D01*
X497663D02*
Y234882D01*
X497794Y234488D01*
X497926Y234357D01*
X498188Y234226D01*
X498450D01*
X498713Y234357D01*
X498844Y234488D01*
X498975Y234882D01*
Y236063D01*
Y235144D02*
X500418Y234226D01*
X498319Y233478D02*
X498188D01*
X497926Y233347D01*
X497794Y233215D01*
X497663Y232953D01*
Y232428D01*
X497794Y232166D01*
X497926Y232035D01*
X498188Y231903D01*
X498450D01*
X498713Y232035D01*
X499106Y232297D01*
X500418Y233609D01*
Y231772D01*
X501337Y231155D02*
Y229056D01*
X497663Y228702D02*
X500418D01*
X497663D02*
Y227783D01*
X497794Y227390D01*
X498057Y227128D01*
X498319Y226996D01*
X498713Y226865D01*
X499369D01*
X499762Y226996D01*
X500025Y227128D01*
X500287Y227390D01*
X500418Y227783D01*
Y228702D01*
X497663Y226248D02*
X500418D01*
X497663D02*
Y225067D01*
X497794Y224674D01*
X497926Y224543D01*
X498188Y224412D01*
X498450D01*
X498713Y224543D01*
X498844Y224674D01*
X498975Y225067D01*
Y226248D01*
Y225330D02*
X500418Y224412D01*
X497663Y223795D02*
X500418Y222745D01*
X497663Y221696D02*
X500418Y222745D01*
X498319Y221210D02*
X498188D01*
X497926Y221079D01*
X497794Y220948D01*
X497663Y220685D01*
Y220160D01*
X497794Y219898D01*
X497926Y219767D01*
X498188Y219636D01*
X498450D01*
X498713Y219767D01*
X499106Y220029D01*
X500418Y221341D01*
Y219504D01*
X492837Y181311D02*
X490082D01*
X492837D02*
Y182492D01*
X492706Y182886D01*
X492575Y183017D01*
X492312Y183148D01*
X492050D01*
X491787Y183017D01*
X491656Y182886D01*
X491525Y182492D01*
Y181311D01*
Y182230D02*
X490082Y183148D01*
X492181Y183896D02*
X492312D01*
X492575Y184027D01*
X492706Y184159D01*
X492837Y184421D01*
Y184946D01*
X492706Y185208D01*
X492575Y185339D01*
X492312Y185471D01*
X492050D01*
X491787Y185339D01*
X491394Y185077D01*
X490082Y183765D01*
Y185602D01*
X489163Y186218D02*
Y188318D01*
X492837Y188672D02*
X490082D01*
X492837D02*
Y189590D01*
X492706Y189984D01*
X492443Y190246D01*
X492181Y190378D01*
X491787Y190509D01*
X491131D01*
X490738Y190378D01*
X490475Y190246D01*
X490213Y189984D01*
X490082Y189590D01*
Y188672D01*
X492837Y191126D02*
X490082D01*
X492837D02*
Y192306D01*
X492706Y192700D01*
X492575Y192831D01*
X492312Y192962D01*
X492050D01*
X491787Y192831D01*
X491656Y192700D01*
X491525Y192306D01*
Y191126D01*
Y192044D02*
X490082Y192962D01*
X492837Y193579D02*
X490082Y194629D01*
X492837Y195678D02*
X490082Y194629D01*
X492312Y196033D02*
X492443Y196295D01*
X492837Y196689D01*
X490082D01*
X153122Y333644D02*
X155878D01*
X153778Y331098D02*
X153516Y331230D01*
X153253Y331492D01*
X153122Y331754D01*
Y332279D01*
X153253Y332542D01*
X153516Y332804D01*
X153778Y332935D01*
X154172Y333067D01*
X154828D01*
X155222Y332935D01*
X155484Y332804D01*
X155746Y332542D01*
X155878Y332279D01*
Y331754D01*
X155746Y331492D01*
X155484Y331230D01*
X155222Y331098D01*
X153122Y329012D02*
X154959Y330324D01*
Y328356D01*
X153122Y329012D02*
X155878D01*
X552078Y208878D02*
Y206122D01*
X549533Y208222D02*
X549664Y208484D01*
X549926Y208747D01*
X550189Y208878D01*
X550714D01*
X550976Y208747D01*
X551238Y208484D01*
X551370Y208222D01*
X551501Y207828D01*
Y207172D01*
X551370Y206778D01*
X551238Y206516D01*
X550976Y206254D01*
X550714Y206122D01*
X550189D01*
X549926Y206254D01*
X549664Y206516D01*
X549533Y206778D01*
X548496Y208878D02*
X547053D01*
X547840Y207828D01*
X547447D01*
X547184Y207697D01*
X547053Y207566D01*
X546922Y207172D01*
Y206910D01*
X547053Y206516D01*
X547315Y206254D01*
X547709Y206122D01*
X548103D01*
X548496Y206254D01*
X548628Y206385D01*
X548759Y206647D01*
X568338Y158878D02*
Y156122D01*
Y158878D02*
X566633D01*
X568338Y157566D02*
X567289D01*
X566318Y158353D02*
X566055Y158484D01*
X565662Y158878D01*
Y156122D01*
X343949Y369181D02*
X344080Y369443D01*
X344342Y369706D01*
X344605Y369837D01*
X345130D01*
X345392Y369706D01*
X345654Y369443D01*
X345786Y369181D01*
X345917Y368787D01*
Y368131D01*
X345786Y367738D01*
X345654Y367475D01*
X345392Y367213D01*
X345130Y367082D01*
X344605D01*
X344342Y367213D01*
X344080Y367475D01*
X343949Y367738D01*
X341600Y369443D02*
X341731Y369706D01*
X342125Y369837D01*
X342387D01*
X342781Y369706D01*
X343043Y369312D01*
X343175Y368656D01*
Y368000D01*
X343043Y367475D01*
X342781Y367213D01*
X342387Y367082D01*
X342256D01*
X341863Y367213D01*
X341600Y367475D01*
X341469Y367869D01*
Y368000D01*
X341600Y368394D01*
X341863Y368656D01*
X342256Y368787D01*
X342387D01*
X342781Y368656D01*
X343043Y368394D01*
X343175Y368000D01*
X340865Y366163D02*
X338766D01*
X338412Y369837D02*
Y367082D01*
Y369837D02*
X337493D01*
X337100Y369706D01*
X336837Y369443D01*
X336706Y369181D01*
X336575Y368787D01*
Y368131D01*
X336706Y367738D01*
X336837Y367475D01*
X337100Y367213D01*
X337493Y367082D01*
X338412D01*
X335958Y369837D02*
Y367082D01*
Y369837D02*
X334777D01*
X334384Y369706D01*
X334253Y369574D01*
X334121Y369312D01*
Y369050D01*
X334253Y368787D01*
X334384Y368656D01*
X334777Y368525D01*
X335958D01*
X335040D02*
X334121Y367082D01*
X333505Y369837D02*
X332455Y367082D01*
X331405Y369837D02*
X332455Y367082D01*
X329739Y369837D02*
X331051Y368000D01*
X329083D01*
X329739Y369837D02*
Y367082D01*
X278883Y410681D02*
X279014Y410943D01*
X279277Y411206D01*
X279539Y411337D01*
X280064D01*
X280326Y411206D01*
X280589Y410943D01*
X280720Y410681D01*
X280851Y410287D01*
Y409631D01*
X280720Y409238D01*
X280589Y408975D01*
X280326Y408713D01*
X280064Y408582D01*
X279539D01*
X279277Y408713D01*
X279014Y408975D01*
X278883Y409238D01*
X276535Y410943D02*
X276666Y411206D01*
X277059Y411337D01*
X277322D01*
X277715Y411206D01*
X277978Y410812D01*
X278109Y410156D01*
Y409500D01*
X277978Y408975D01*
X277715Y408713D01*
X277322Y408582D01*
X277191D01*
X276797Y408713D01*
X276535Y408975D01*
X276403Y409369D01*
Y409500D01*
X276535Y409894D01*
X276797Y410156D01*
X277191Y410287D01*
X277322D01*
X277715Y410156D01*
X277978Y409894D01*
X278109Y409500D01*
X275800Y407663D02*
X273700D01*
X273346Y411337D02*
Y408582D01*
Y411337D02*
X272428D01*
X272034Y411206D01*
X271772Y410943D01*
X271641Y410681D01*
X271509Y410287D01*
Y409631D01*
X271641Y409238D01*
X271772Y408975D01*
X272034Y408713D01*
X272428Y408582D01*
X273346D01*
X270893Y411337D02*
Y408582D01*
Y411337D02*
X269712D01*
X269318Y411206D01*
X269187Y411074D01*
X269056Y410812D01*
Y410550D01*
X269187Y410287D01*
X269318Y410156D01*
X269712Y410025D01*
X270893D01*
X269974D02*
X269056Y408582D01*
X268439Y411337D02*
X267389Y408582D01*
X266340Y411337D02*
X267389Y408582D01*
X265723Y411337D02*
X264280D01*
X265067Y410287D01*
X264674D01*
X264411Y410156D01*
X264280Y410025D01*
X264149Y409631D01*
Y409369D01*
X264280Y408975D01*
X264542Y408713D01*
X264936Y408582D01*
X265330D01*
X265723Y408713D01*
X265854Y408844D01*
X265986Y409106D01*
X403883Y361681D02*
X404014Y361943D01*
X404277Y362206D01*
X404539Y362337D01*
X405064D01*
X405326Y362206D01*
X405589Y361943D01*
X405720Y361681D01*
X405851Y361287D01*
Y360631D01*
X405720Y360238D01*
X405589Y359975D01*
X405326Y359713D01*
X405064Y359582D01*
X404539D01*
X404277Y359713D01*
X404014Y359975D01*
X403883Y360238D01*
X401535Y361943D02*
X401666Y362206D01*
X402059Y362337D01*
X402322D01*
X402715Y362206D01*
X402978Y361812D01*
X403109Y361156D01*
Y360500D01*
X402978Y359975D01*
X402715Y359713D01*
X402322Y359582D01*
X402191D01*
X401797Y359713D01*
X401535Y359975D01*
X401403Y360369D01*
Y360500D01*
X401535Y360894D01*
X401797Y361156D01*
X402191Y361287D01*
X402322D01*
X402715Y361156D01*
X402978Y360894D01*
X403109Y360500D01*
X400800Y358663D02*
X398700D01*
X398346Y362337D02*
Y359582D01*
Y362337D02*
X397428D01*
X397034Y362206D01*
X396772Y361943D01*
X396641Y361681D01*
X396509Y361287D01*
Y360631D01*
X396641Y360238D01*
X396772Y359975D01*
X397034Y359713D01*
X397428Y359582D01*
X398346D01*
X395893Y362337D02*
Y359582D01*
Y362337D02*
X394712D01*
X394318Y362206D01*
X394187Y362074D01*
X394056Y361812D01*
Y361550D01*
X394187Y361287D01*
X394318Y361156D01*
X394712Y361025D01*
X395893D01*
X394974D02*
X394056Y359582D01*
X393439Y362337D02*
X392389Y359582D01*
X391340Y362337D02*
X392389Y359582D01*
X390854Y361681D02*
Y361812D01*
X390723Y362074D01*
X390592Y362206D01*
X390330Y362337D01*
X389805D01*
X389542Y362206D01*
X389411Y362074D01*
X389280Y361812D01*
Y361550D01*
X389411Y361287D01*
X389674Y360894D01*
X390986Y359582D01*
X389149D01*
X403293Y192181D02*
X403424Y192443D01*
X403686Y192706D01*
X403949Y192837D01*
X404474D01*
X404736Y192706D01*
X404998Y192443D01*
X405130Y192181D01*
X405261Y191787D01*
Y191131D01*
X405130Y190738D01*
X404998Y190475D01*
X404736Y190213D01*
X404474Y190082D01*
X403949D01*
X403686Y190213D01*
X403424Y190475D01*
X403293Y190738D01*
X400944Y192443D02*
X401075Y192706D01*
X401469Y192837D01*
X401731D01*
X402125Y192706D01*
X402387Y192312D01*
X402519Y191656D01*
Y191000D01*
X402387Y190475D01*
X402125Y190213D01*
X401731Y190082D01*
X401600D01*
X401207Y190213D01*
X400944Y190475D01*
X400813Y190869D01*
Y191000D01*
X400944Y191394D01*
X401207Y191656D01*
X401600Y191787D01*
X401731D01*
X402125Y191656D01*
X402387Y191394D01*
X402519Y191000D01*
X400209Y189163D02*
X398110D01*
X397756Y192837D02*
Y190082D01*
Y192837D02*
X396837D01*
X396444Y192706D01*
X396181Y192443D01*
X396050Y192181D01*
X395919Y191787D01*
Y191131D01*
X396050Y190738D01*
X396181Y190475D01*
X396444Y190213D01*
X396837Y190082D01*
X397756D01*
X395302Y192837D02*
Y190082D01*
Y192837D02*
X394122D01*
X393728Y192706D01*
X393597Y192575D01*
X393465Y192312D01*
Y192050D01*
X393597Y191787D01*
X393728Y191656D01*
X394122Y191525D01*
X395302D01*
X394384D02*
X393465Y190082D01*
X392849Y192837D02*
X391799Y190082D01*
X390750Y192837D02*
X391799Y190082D01*
X390395Y192312D02*
X390133Y192443D01*
X389739Y192837D01*
Y190082D01*
X344021Y390181D02*
X344152Y390443D01*
X344415Y390706D01*
X344677Y390837D01*
X345202D01*
X345464Y390706D01*
X345727Y390443D01*
X345858Y390181D01*
X345989Y389787D01*
Y389131D01*
X345858Y388738D01*
X345727Y388475D01*
X345464Y388213D01*
X345202Y388082D01*
X344677D01*
X344415Y388213D01*
X344152Y388475D01*
X344021Y388738D01*
X341672Y390837D02*
X342984D01*
X343116Y389656D01*
X342984Y389787D01*
X342591Y389918D01*
X342197D01*
X341804Y389787D01*
X341541Y389525D01*
X341410Y389131D01*
Y388869D01*
X341541Y388475D01*
X341804Y388213D01*
X342197Y388082D01*
X342591D01*
X342984Y388213D01*
X343116Y388344D01*
X343247Y388606D01*
X340793Y387163D02*
X338694D01*
X338340Y390837D02*
Y388082D01*
Y390837D02*
X337421D01*
X337028Y390706D01*
X336765Y390443D01*
X336634Y390181D01*
X336503Y389787D01*
Y389131D01*
X336634Y388738D01*
X336765Y388475D01*
X337028Y388213D01*
X337421Y388082D01*
X338340D01*
X335886Y390837D02*
Y388082D01*
Y390837D02*
X334705D01*
X334312Y390706D01*
X334180Y390575D01*
X334049Y390312D01*
Y390050D01*
X334180Y389787D01*
X334312Y389656D01*
X334705Y389525D01*
X335886D01*
X334968D02*
X334049Y388082D01*
X333433Y390837D02*
X332383Y388082D01*
X331333Y390837D02*
X332383Y388082D01*
X329667Y390837D02*
X330979Y389000D01*
X329011D01*
X329667Y390837D02*
Y388082D01*
X278955Y431681D02*
X279086Y431943D01*
X279349Y432206D01*
X279611Y432337D01*
X280136D01*
X280399Y432206D01*
X280661Y431943D01*
X280792Y431681D01*
X280923Y431287D01*
Y430631D01*
X280792Y430238D01*
X280661Y429975D01*
X280399Y429713D01*
X280136Y429582D01*
X279611D01*
X279349Y429713D01*
X279086Y429975D01*
X278955Y430238D01*
X276607Y432337D02*
X277919D01*
X278050Y431156D01*
X277919Y431287D01*
X277525Y431418D01*
X277132D01*
X276738Y431287D01*
X276476Y431025D01*
X276344Y430631D01*
Y430369D01*
X276476Y429975D01*
X276738Y429713D01*
X277132Y429582D01*
X277525D01*
X277919Y429713D01*
X278050Y429844D01*
X278181Y430106D01*
X275728Y428663D02*
X273628D01*
X273274Y432337D02*
Y429582D01*
Y432337D02*
X272356D01*
X271962Y432206D01*
X271700Y431943D01*
X271568Y431681D01*
X271437Y431287D01*
Y430631D01*
X271568Y430238D01*
X271700Y429975D01*
X271962Y429713D01*
X272356Y429582D01*
X273274D01*
X270821Y432337D02*
Y429582D01*
Y432337D02*
X269640D01*
X269246Y432206D01*
X269115Y432074D01*
X268984Y431812D01*
Y431550D01*
X269115Y431287D01*
X269246Y431156D01*
X269640Y431025D01*
X270821D01*
X269902D02*
X268984Y429582D01*
X268367Y432337D02*
X267317Y429582D01*
X266268Y432337D02*
X267317Y429582D01*
X265651Y432337D02*
X264208D01*
X264995Y431287D01*
X264601D01*
X264339Y431156D01*
X264208Y431025D01*
X264077Y430631D01*
Y430369D01*
X264208Y429975D01*
X264470Y429713D01*
X264864Y429582D01*
X265257D01*
X265651Y429713D01*
X265782Y429844D01*
X265914Y430106D01*
X403955Y369681D02*
X404086Y369943D01*
X404349Y370206D01*
X404611Y370337D01*
X405136D01*
X405399Y370206D01*
X405661Y369943D01*
X405792Y369681D01*
X405923Y369287D01*
Y368631D01*
X405792Y368238D01*
X405661Y367975D01*
X405399Y367713D01*
X405136Y367582D01*
X404611D01*
X404349Y367713D01*
X404086Y367975D01*
X403955Y368238D01*
X401607Y370337D02*
X402919D01*
X403050Y369156D01*
X402919Y369287D01*
X402525Y369418D01*
X402132D01*
X401738Y369287D01*
X401475Y369025D01*
X401344Y368631D01*
Y368369D01*
X401475Y367975D01*
X401738Y367713D01*
X402132Y367582D01*
X402525D01*
X402919Y367713D01*
X403050Y367844D01*
X403181Y368106D01*
X400728Y366663D02*
X398628D01*
X398274Y370337D02*
Y367582D01*
Y370337D02*
X397356D01*
X396962Y370206D01*
X396700Y369943D01*
X396568Y369681D01*
X396437Y369287D01*
Y368631D01*
X396568Y368238D01*
X396700Y367975D01*
X396962Y367713D01*
X397356Y367582D01*
X398274D01*
X395821Y370337D02*
Y367582D01*
Y370337D02*
X394640D01*
X394246Y370206D01*
X394115Y370075D01*
X393984Y369812D01*
Y369550D01*
X394115Y369287D01*
X394246Y369156D01*
X394640Y369025D01*
X395821D01*
X394902D02*
X393984Y367582D01*
X393367Y370337D02*
X392317Y367582D01*
X391268Y370337D02*
X392317Y367582D01*
X390782Y369681D02*
Y369812D01*
X390651Y370075D01*
X390520Y370206D01*
X390257Y370337D01*
X389733D01*
X389470Y370206D01*
X389339Y370075D01*
X389208Y369812D01*
Y369550D01*
X389339Y369287D01*
X389601Y368894D01*
X390914Y367582D01*
X389077D01*
X403365Y213181D02*
X403496Y213443D01*
X403758Y213706D01*
X404021Y213837D01*
X404546D01*
X404808Y213706D01*
X405071Y213443D01*
X405202Y213181D01*
X405333Y212787D01*
Y212131D01*
X405202Y211738D01*
X405071Y211475D01*
X404808Y211213D01*
X404546Y211082D01*
X404021D01*
X403758Y211213D01*
X403496Y211475D01*
X403365Y211738D01*
X401016Y213837D02*
X402328D01*
X402460Y212656D01*
X402328Y212787D01*
X401935Y212918D01*
X401541D01*
X401148Y212787D01*
X400885Y212525D01*
X400754Y212131D01*
Y211869D01*
X400885Y211475D01*
X401148Y211213D01*
X401541Y211082D01*
X401935D01*
X402328Y211213D01*
X402460Y211344D01*
X402591Y211606D01*
X400137Y210163D02*
X398038D01*
X397684Y213837D02*
Y211082D01*
Y213837D02*
X396765D01*
X396372Y213706D01*
X396109Y213443D01*
X395978Y213181D01*
X395847Y212787D01*
Y212131D01*
X395978Y211738D01*
X396109Y211475D01*
X396372Y211213D01*
X396765Y211082D01*
X397684D01*
X395230Y213837D02*
Y211082D01*
Y213837D02*
X394049D01*
X393656Y213706D01*
X393525Y213575D01*
X393393Y213312D01*
Y213050D01*
X393525Y212787D01*
X393656Y212656D01*
X394049Y212525D01*
X395230D01*
X394312D02*
X393393Y211082D01*
X392777Y213837D02*
X391727Y211082D01*
X390677Y213837D02*
X391727Y211082D01*
X390323Y213312D02*
X390061Y213443D01*
X389667Y213837D01*
Y211082D01*
D14*
X29551Y208547D02*
Y214453D01*
X23449Y208547D02*
Y214453D01*
X22500Y223000D02*
X30500D01*
X22500Y200000D02*
X30500D01*
X22500D02*
Y205750D01*
Y217250D02*
Y223000D01*
X30500Y200000D02*
Y205750D01*
Y217250D02*
Y223000D01*
X232500Y339500D02*
Y344000D01*
Y353000D02*
Y357500D01*
X225500Y339500D02*
Y344000D01*
Y353000D02*
Y357500D01*
Y339500D02*
X232500D01*
X225500Y357500D02*
X232500D01*
X226500Y347000D02*
Y350000D01*
X231500Y347000D02*
Y350000D01*
X209681Y377386D02*
X214319D01*
Y375024D02*
Y377386D01*
X209681Y375024D02*
Y377386D01*
X214319Y366614D02*
Y368976D01*
X209681Y366614D02*
Y368976D01*
Y366614D02*
X214319D01*
X332099Y372740D02*
Y377378D01*
X332098D02*
X334461D01*
X332099Y372740D02*
X334461D01*
X340508Y377378D02*
X342870D01*
X340508Y372740D02*
X342870D01*
Y377378D01*
X267098Y401532D02*
Y406169D01*
X267098D02*
X269461D01*
X267098Y401532D02*
X269461D01*
X275508Y406169D02*
X277870D01*
X275508Y401532D02*
X277870D01*
Y406169D01*
X402677Y352032D02*
Y356669D01*
X400315Y352032D02*
X402677D01*
X400315Y356669D02*
X402677D01*
X391905Y352032D02*
X394268D01*
X391905Y356669D02*
X394268D01*
X391905Y352032D02*
Y356669D01*
X402677Y182740D02*
Y187378D01*
X400315Y182740D02*
X402677D01*
X400315Y187378D02*
X402677D01*
X391905Y182740D02*
X394268D01*
X391905Y187378D02*
X394268D01*
X391905Y182740D02*
Y187378D01*
X332099Y393606D02*
Y398244D01*
X332098D02*
X334461D01*
X332099Y393606D02*
X334461D01*
X340508Y398244D02*
X342870D01*
X340508Y393606D02*
X342870D01*
Y398244D01*
X267098Y422398D02*
Y427035D01*
X267098D02*
X269461D01*
X267098Y422398D02*
X269461D01*
X275508Y427035D02*
X277870D01*
X275508Y422398D02*
X277870D01*
Y427035D01*
X402677Y372898D02*
Y377535D01*
X400315Y372898D02*
X402677D01*
X400315Y377535D02*
X402677D01*
X391905Y372898D02*
X394268D01*
X391905Y377535D02*
X394268D01*
X391905Y372898D02*
Y377535D01*
X402677Y203606D02*
Y208244D01*
X400315Y203606D02*
X402677D01*
X400315Y208244D02*
X402677D01*
X391905Y203606D02*
X394268D01*
X391905Y208244D02*
X394268D01*
X391905Y203606D02*
Y208244D01*
M02*
