G04*
G04 #@! TF.GenerationSoftware,Altium Limited,Altium Designer,25.5.2 (35)*
G04*
G04 Layer_Color=8388736*
%FSLAX25Y25*%
%MOIN*%
G70*
G04*
G04 #@! TF.SameCoordinates,672FA988-C404-43CE-99EC-9311219A220C*
G04*
G04*
G04 #@! TF.FilePolarity,Negative*
G04*
G01*
G75*
%ADD34R,0.02559X0.00984*%
%ADD35R,0.00984X0.02559*%
%ADD42R,0.02362X0.03543*%
%ADD43R,0.04134X0.02165*%
%ADD44R,0.05512X0.05906*%
%ADD45R,0.02244X0.01575*%
%ADD46R,0.06496X0.02756*%
%ADD47R,0.07480X0.05118*%
%ADD48R,0.03740X0.03740*%
%ADD49R,0.02756X0.03740*%
%ADD50R,0.02756X0.06496*%
%ADD51R,0.05118X0.07480*%
%ADD52R,0.06102X0.06496*%
%ADD53R,0.04331X0.03150*%
%ADD54R,0.03740X0.02756*%
%ADD55R,0.19685X0.14370*%
%ADD56R,0.06890X0.05315*%
%ADD57R,0.03740X0.03740*%
%ADD58R,0.07284X0.06890*%
%ADD59R,0.07480X0.07480*%
%ADD60C,0.07480*%
%ADD61O,0.07284X0.10236*%
%ADD62C,0.04409*%
%ADD63C,0.06378*%
%ADD64R,0.06378X0.06378*%
%ADD65O,0.10236X0.07284*%
%ADD66C,0.16142*%
%ADD67O,0.08071X0.05512*%
%ADD68O,0.05906X0.08661*%
G36*
X54752Y51177D02*
X54949Y50980D01*
Y49799D01*
X55244D01*
Y44189D01*
X55047Y43992D01*
X53866D01*
X53669Y44189D01*
Y49799D01*
X53965D01*
Y50980D01*
X54161Y51177D01*
X54752Y51177D01*
D02*
G37*
G36*
X51602D02*
X51799Y50980D01*
X51799Y49799D01*
X52095D01*
Y44189D01*
X51898Y43992D01*
X50717D01*
X50520Y44189D01*
X50520Y49799D01*
X50815D01*
Y50980D01*
X51012Y51177D01*
X51602Y51177D01*
D02*
G37*
G36*
X58295D02*
X58492Y50980D01*
Y49799D01*
X58787D01*
Y37201D01*
X58492D01*
Y36020D01*
X58295Y35823D01*
X57705Y35823D01*
X57508Y36020D01*
Y37201D01*
X57213D01*
Y49799D01*
X57508D01*
Y50980D01*
X57705Y51177D01*
X58295Y51177D01*
D02*
G37*
G36*
X55244Y42811D02*
Y37201D01*
X54949D01*
X54949Y36020D01*
X54752Y35823D01*
X54161D01*
X53965Y36020D01*
Y37201D01*
X53669D01*
X53669Y42811D01*
X53866Y43008D01*
X55047D01*
X55244Y42811D01*
D02*
G37*
G36*
X52095D02*
Y37201D01*
X51799D01*
X51799Y36020D01*
X51602Y35823D01*
X51012Y35823D01*
X50815Y36020D01*
Y37201D01*
X50520D01*
X50520Y42811D01*
X50717Y43008D01*
X51898D01*
X52095Y42811D01*
D02*
G37*
G36*
X48059Y51177D02*
X48256Y50980D01*
Y49799D01*
X48551D01*
Y37201D01*
X48256D01*
Y36020D01*
X48059Y35823D01*
X47469D01*
X47272Y36020D01*
Y37201D01*
X46976D01*
Y40055D01*
X43827D01*
X43630Y40252D01*
Y40843D01*
X43827Y41039D01*
X46976D01*
Y42024D01*
X43827D01*
X43630Y42221D01*
Y42811D01*
X43827Y43008D01*
X46976D01*
Y43992D01*
X43827D01*
X43630Y44189D01*
Y44780D01*
X43827Y44976D01*
X46976D01*
Y45961D01*
X43827D01*
X43630Y46158D01*
Y46748D01*
X43827Y46945D01*
X46976D01*
Y49799D01*
X47272D01*
Y50980D01*
X47469Y51177D01*
X48059Y51177D01*
D02*
G37*
G36*
X236992Y92065D02*
Y90884D01*
X237287D01*
X237287Y85274D01*
X237090Y85077D01*
X235910D01*
X235713Y85274D01*
Y90884D01*
X236008D01*
X236008Y92065D01*
X236205Y92262D01*
X236795Y92262D01*
X236992Y92065D01*
D02*
G37*
G36*
X233842D02*
Y90884D01*
X234138D01*
X234138Y85274D01*
X233941Y85077D01*
X232760D01*
X232563Y85274D01*
Y90884D01*
X232858D01*
X232858Y92065D01*
X233055Y92262D01*
X233646D01*
X233842Y92065D01*
D02*
G37*
G36*
X240535Y92065D02*
Y90884D01*
X240831D01*
Y88029D01*
X243980D01*
X244177Y87833D01*
Y87242D01*
X243980Y87045D01*
X240831D01*
Y86061D01*
X243980D01*
X244177Y85864D01*
Y85274D01*
X243980Y85077D01*
X240831D01*
Y84092D01*
X243980D01*
X244177Y83896D01*
Y83305D01*
X243980Y83108D01*
X240831D01*
Y82124D01*
X243980D01*
X244177Y81927D01*
Y81337D01*
X243980Y81140D01*
X240831D01*
Y78285D01*
X240535D01*
Y77104D01*
X240339Y76907D01*
X239748Y76907D01*
X239551Y77104D01*
Y78285D01*
X239256D01*
Y90884D01*
X239551D01*
Y92065D01*
X239748Y92262D01*
X240339D01*
X240535Y92065D01*
D02*
G37*
G36*
X237287Y83896D02*
X237287Y78285D01*
X236992D01*
Y77104D01*
X236795Y76907D01*
X236205Y76907D01*
X236008Y77104D01*
X236008Y78285D01*
X235713D01*
Y83896D01*
X235910Y84092D01*
X237090D01*
X237287Y83896D01*
D02*
G37*
G36*
X234138D02*
Y78285D01*
X233842D01*
Y77104D01*
X233646Y76907D01*
X233055Y76907D01*
X232858Y77104D01*
Y78285D01*
X232563D01*
Y83896D01*
X232760Y84092D01*
X233941D01*
X234138Y83896D01*
D02*
G37*
G36*
X230102Y92262D02*
X230299Y92065D01*
Y90884D01*
X230594D01*
Y78285D01*
X230299D01*
Y77104D01*
X230102Y76907D01*
X229512Y76907D01*
X229315Y77104D01*
Y78285D01*
X229020D01*
Y90884D01*
X229315D01*
Y92065D01*
X229512Y92262D01*
X230102Y92262D01*
D02*
G37*
G36*
X59752Y218677D02*
X59949Y218480D01*
Y217299D01*
X60244D01*
Y211689D01*
X60047Y211492D01*
X58866D01*
X58669Y211689D01*
Y217299D01*
X58965D01*
Y218480D01*
X59161Y218677D01*
X59752Y218677D01*
D02*
G37*
G36*
X56602D02*
X56799Y218480D01*
X56799Y217299D01*
X57095D01*
Y211689D01*
X56898Y211492D01*
X55717D01*
X55520Y211689D01*
X55520Y217299D01*
X55815D01*
Y218480D01*
X56012Y218677D01*
X56602Y218677D01*
D02*
G37*
G36*
X63295D02*
X63492Y218480D01*
Y217299D01*
X63787D01*
Y204701D01*
X63492D01*
Y203520D01*
X63295Y203323D01*
X62705Y203323D01*
X62508Y203520D01*
Y204701D01*
X62213D01*
Y217299D01*
X62508D01*
Y218480D01*
X62705Y218677D01*
X63295Y218677D01*
D02*
G37*
G36*
X60244Y210311D02*
Y204701D01*
X59949D01*
X59949Y203520D01*
X59752Y203323D01*
X59161D01*
X58965Y203520D01*
Y204701D01*
X58669D01*
X58669Y210311D01*
X58866Y210508D01*
X60047D01*
X60244Y210311D01*
D02*
G37*
G36*
X57095D02*
Y204701D01*
X56799D01*
X56799Y203520D01*
X56602Y203323D01*
X56012Y203323D01*
X55815Y203520D01*
Y204701D01*
X55520D01*
X55520Y210311D01*
X55717Y210508D01*
X56898D01*
X57095Y210311D01*
D02*
G37*
G36*
X53059Y218677D02*
X53256Y218480D01*
Y217299D01*
X53551D01*
Y204701D01*
X53256D01*
Y203520D01*
X53059Y203323D01*
X52469D01*
X52272Y203520D01*
Y204701D01*
X51976D01*
Y207555D01*
X48827D01*
X48630Y207752D01*
Y208343D01*
X48827Y208539D01*
X51976D01*
Y209524D01*
X48827D01*
X48630Y209720D01*
Y210311D01*
X48827Y210508D01*
X51976D01*
Y211492D01*
X48827D01*
X48630Y211689D01*
Y212280D01*
X48827Y212476D01*
X51976D01*
Y213461D01*
X48827D01*
X48630Y213657D01*
Y214248D01*
X48827Y214445D01*
X51976D01*
Y217299D01*
X52272D01*
Y218480D01*
X52469Y218677D01*
X53059Y218677D01*
D02*
G37*
G36*
X241929Y260480D02*
Y259299D01*
X242224D01*
X242224Y253689D01*
X242028Y253492D01*
X240846D01*
X240650Y253689D01*
Y259299D01*
X240945D01*
X240945Y260480D01*
X241142Y260677D01*
X241732Y260677D01*
X241929Y260480D01*
D02*
G37*
G36*
X238779D02*
Y259299D01*
X239075D01*
X239075Y253689D01*
X238878Y253492D01*
X237697D01*
X237500Y253689D01*
Y259299D01*
X237795D01*
X237795Y260480D01*
X237992Y260677D01*
X238583D01*
X238779Y260480D01*
D02*
G37*
G36*
X245472Y260480D02*
Y259299D01*
X245768D01*
Y256445D01*
X248917D01*
X249114Y256248D01*
Y255658D01*
X248917Y255461D01*
X245768D01*
Y254476D01*
X248917D01*
X249114Y254279D01*
Y253689D01*
X248917Y253492D01*
X245768D01*
Y252508D01*
X248917D01*
X249114Y252311D01*
Y251720D01*
X248917Y251524D01*
X245768D01*
Y250539D01*
X248917D01*
X249114Y250342D01*
Y249752D01*
X248917Y249555D01*
X245768D01*
Y246701D01*
X245472D01*
Y245520D01*
X245276Y245323D01*
X244685Y245323D01*
X244488Y245520D01*
Y246701D01*
X244193D01*
Y259299D01*
X244488D01*
Y260480D01*
X244685Y260677D01*
X245276D01*
X245472Y260480D01*
D02*
G37*
G36*
X242224Y252311D02*
X242224Y246701D01*
X241929D01*
Y245520D01*
X241732Y245323D01*
X241142Y245323D01*
X240945Y245520D01*
X240945Y246701D01*
X240650D01*
Y252311D01*
X240846Y252508D01*
X242028D01*
X242224Y252311D01*
D02*
G37*
G36*
X239075D02*
Y246701D01*
X238779D01*
Y245520D01*
X238583Y245323D01*
X237992Y245323D01*
X237795Y245520D01*
Y246701D01*
X237500D01*
Y252311D01*
X237697Y252508D01*
X238878D01*
X239075Y252311D01*
D02*
G37*
G36*
X235039Y260677D02*
X235236Y260480D01*
Y259299D01*
X235531D01*
Y246701D01*
X235236D01*
Y245520D01*
X235039Y245323D01*
X234449Y245323D01*
X234252Y245520D01*
Y246701D01*
X233957D01*
Y259299D01*
X234252D01*
Y260480D01*
X234449Y260677D01*
X235039Y260677D01*
D02*
G37*
D34*
X222228Y81632D02*
D03*
Y83600D02*
D03*
Y85569D02*
D03*
Y87537D02*
D03*
X227165Y250047D02*
D03*
Y252016D02*
D03*
Y253984D02*
D03*
Y255953D02*
D03*
X70579Y213953D02*
D03*
Y211984D02*
D03*
Y210016D02*
D03*
Y208047D02*
D03*
X65579Y46453D02*
D03*
Y44484D02*
D03*
Y42516D02*
D03*
Y40547D02*
D03*
D35*
X223213Y90982D02*
D03*
X225181D02*
D03*
X227150D02*
D03*
Y78187D02*
D03*
X225181D02*
D03*
X223213D02*
D03*
X228150Y259398D02*
D03*
X230118D02*
D03*
X232087D02*
D03*
Y246602D02*
D03*
X230118D02*
D03*
X228150D02*
D03*
X69595Y204602D02*
D03*
X67626D02*
D03*
X65658D02*
D03*
Y217398D02*
D03*
X67626D02*
D03*
X69595D02*
D03*
X64595Y37102D02*
D03*
X62626D02*
D03*
X60658D02*
D03*
Y49898D02*
D03*
X62626D02*
D03*
X64595D02*
D03*
D42*
X303500Y133543D02*
D03*
Y126457D02*
D03*
Y104043D02*
D03*
Y96957D02*
D03*
X339500Y92500D02*
D03*
Y85413D02*
D03*
X303500Y45043D02*
D03*
Y37957D02*
D03*
X336000Y18587D02*
D03*
Y11500D02*
D03*
D43*
X316421Y387854D02*
D03*
Y385295D02*
D03*
Y382736D02*
D03*
X325083D02*
D03*
Y385295D02*
D03*
Y387854D02*
D03*
X251421Y416646D02*
D03*
Y414087D02*
D03*
Y411527D02*
D03*
X260083D02*
D03*
Y414087D02*
D03*
Y416646D02*
D03*
X418354Y362421D02*
D03*
Y364980D02*
D03*
Y367539D02*
D03*
X409693D02*
D03*
Y364980D02*
D03*
Y362421D02*
D03*
X418354Y193130D02*
D03*
Y195689D02*
D03*
Y198248D02*
D03*
X409693D02*
D03*
Y195689D02*
D03*
Y193130D02*
D03*
D44*
X565815Y171500D02*
D03*
X572114D02*
D03*
D45*
X410787Y67469D02*
D03*
Y65500D02*
D03*
Y63532D02*
D03*
X404213D02*
D03*
Y65500D02*
D03*
Y67469D02*
D03*
X352287D02*
D03*
Y65500D02*
D03*
Y63532D02*
D03*
X345713D02*
D03*
Y65500D02*
D03*
Y67469D02*
D03*
D46*
X391471Y59311D02*
D03*
Y55374D02*
D03*
Y47500D02*
D03*
Y39626D02*
D03*
Y35689D02*
D03*
Y43563D02*
D03*
Y51437D02*
D03*
X332970Y59311D02*
D03*
Y55374D02*
D03*
Y47500D02*
D03*
Y39626D02*
D03*
Y35689D02*
D03*
Y43563D02*
D03*
Y51437D02*
D03*
D47*
X381529Y30571D02*
D03*
Y64429D02*
D03*
X323029Y30571D02*
D03*
Y64429D02*
D03*
D48*
X361949Y67000D02*
D03*
X368051D02*
D03*
X303449D02*
D03*
X309551D02*
D03*
X319949Y23500D02*
D03*
X326051D02*
D03*
X306949Y18500D02*
D03*
X313051D02*
D03*
X303449Y108500D02*
D03*
X309551D02*
D03*
X351449D02*
D03*
X357551D02*
D03*
X401449D02*
D03*
X407551D02*
D03*
X384449D02*
D03*
X390551D02*
D03*
X449949D02*
D03*
X456051D02*
D03*
X497949D02*
D03*
X504051D02*
D03*
X481449D02*
D03*
X487551D02*
D03*
X321638Y341988D02*
D03*
X327740D02*
D03*
X256638Y370779D02*
D03*
X262740D02*
D03*
X81638Y407787D02*
D03*
X75535D02*
D03*
X413138Y238996D02*
D03*
X407035D02*
D03*
X492949Y21500D02*
D03*
X499051D02*
D03*
X235949Y435291D02*
D03*
X242051D02*
D03*
X433679Y343776D02*
D03*
X427577D02*
D03*
X55479Y333984D02*
D03*
X49376D02*
D03*
D49*
X303000Y9000D02*
D03*
X307899D02*
D03*
X192000Y409000D02*
D03*
X187101D02*
D03*
X192000Y400500D02*
D03*
X187101D02*
D03*
X599500Y200000D02*
D03*
X594601D02*
D03*
X619000D02*
D03*
X614101D02*
D03*
X304000Y364000D02*
D03*
X308899D02*
D03*
X239000Y392791D02*
D03*
X243899D02*
D03*
X99500Y385791D02*
D03*
X94601D02*
D03*
X431000Y217000D02*
D03*
X426101D02*
D03*
D50*
X114492Y342059D02*
D03*
X106618D02*
D03*
X110555D02*
D03*
X171106Y402030D02*
D03*
X163232D02*
D03*
X167169D02*
D03*
X621032Y175470D02*
D03*
X624968D02*
D03*
D51*
X119610Y352000D02*
D03*
X101500D02*
D03*
X176224Y411971D02*
D03*
X158114D02*
D03*
X630087Y165530D02*
D03*
X615913D02*
D03*
X599800Y165300D02*
D03*
X587900D02*
D03*
X84537Y436800D02*
D03*
X72637D02*
D03*
X605450Y191300D02*
D03*
X593550D02*
D03*
X624950D02*
D03*
X613050D02*
D03*
D52*
X309000Y45130D02*
D03*
Y34500D02*
D03*
X369500Y106815D02*
D03*
Y96185D02*
D03*
X467500Y106815D02*
D03*
Y96185D02*
D03*
D53*
X145713Y400799D02*
D03*
X127996D02*
D03*
X145713Y409264D02*
D03*
X127996D02*
D03*
X573858Y214768D02*
D03*
X556142D02*
D03*
X573858Y223232D02*
D03*
X556142D02*
D03*
D54*
X490500Y44000D02*
D03*
Y48899D02*
D03*
Y76000D02*
D03*
Y71101D02*
D03*
X436500Y321000D02*
D03*
Y316101D02*
D03*
Y289000D02*
D03*
Y293899D02*
D03*
X347500Y321709D02*
D03*
Y326608D02*
D03*
X282500Y350500D02*
D03*
Y355399D02*
D03*
X56000Y429000D02*
D03*
Y424101D02*
D03*
X516000Y164500D02*
D03*
Y159601D02*
D03*
X556000Y21815D02*
D03*
Y26714D02*
D03*
X565000Y98500D02*
D03*
Y93601D02*
D03*
X499000Y247000D02*
D03*
Y242101D02*
D03*
X491536Y170315D02*
D03*
Y175214D02*
D03*
D55*
X148500Y102638D02*
D03*
Y57362D02*
D03*
D56*
X211000Y28709D02*
D03*
Y42291D02*
D03*
D57*
X303500Y272949D02*
D03*
Y279051D02*
D03*
Y229949D02*
D03*
Y236051D02*
D03*
X63500Y197051D02*
D03*
Y190949D02*
D03*
X582000Y56449D02*
D03*
Y62551D02*
D03*
X499000Y40949D02*
D03*
Y47051D02*
D03*
Y79051D02*
D03*
Y72949D02*
D03*
X63500Y224949D02*
D03*
Y231051D02*
D03*
X428000Y285949D02*
D03*
Y292051D02*
D03*
X542000Y49051D02*
D03*
Y42949D02*
D03*
X565000Y70949D02*
D03*
Y77051D02*
D03*
X513276Y219449D02*
D03*
Y225551D02*
D03*
X490276Y197551D02*
D03*
Y191449D02*
D03*
D58*
X339000Y277677D02*
D03*
Y262323D02*
D03*
X338500Y234677D02*
D03*
Y219323D02*
D03*
X337000Y148677D02*
D03*
Y133323D02*
D03*
D59*
X102638Y216535D02*
D03*
D60*
Y206535D02*
D03*
Y196535D02*
D03*
Y186535D02*
D03*
Y176535D02*
D03*
Y166535D02*
D03*
Y156535D02*
D03*
Y146535D02*
D03*
Y136535D02*
D03*
Y126535D02*
D03*
X112638Y216535D02*
D03*
Y206535D02*
D03*
Y196535D02*
D03*
Y186535D02*
D03*
Y176535D02*
D03*
Y166535D02*
D03*
Y156535D02*
D03*
Y146535D02*
D03*
Y136535D02*
D03*
Y126535D02*
D03*
X122638Y216535D02*
D03*
Y206535D02*
D03*
Y136535D02*
D03*
Y126535D02*
D03*
X132638Y216535D02*
D03*
Y206535D02*
D03*
Y136535D02*
D03*
Y126535D02*
D03*
X142638Y216535D02*
D03*
Y206535D02*
D03*
Y136535D02*
D03*
Y126535D02*
D03*
X152638Y216535D02*
D03*
Y206535D02*
D03*
Y136535D02*
D03*
Y126535D02*
D03*
X162638Y216535D02*
D03*
Y206535D02*
D03*
Y136535D02*
D03*
Y126535D02*
D03*
X172638Y216535D02*
D03*
Y206535D02*
D03*
Y136535D02*
D03*
Y126535D02*
D03*
X182638Y216535D02*
D03*
Y206535D02*
D03*
Y196535D02*
D03*
Y186535D02*
D03*
Y176535D02*
D03*
Y166535D02*
D03*
Y156535D02*
D03*
Y146535D02*
D03*
Y136535D02*
D03*
Y126535D02*
D03*
X192638Y216535D02*
D03*
Y206535D02*
D03*
Y196535D02*
D03*
Y186535D02*
D03*
Y176535D02*
D03*
Y166535D02*
D03*
Y156535D02*
D03*
Y146535D02*
D03*
Y136535D02*
D03*
Y126535D02*
D03*
D61*
X185000Y363500D02*
D03*
X165315D02*
D03*
X175157D02*
D03*
X194843D02*
D03*
D62*
X118110Y33228D02*
D03*
X177165D02*
D03*
D63*
X129921Y29528D02*
D03*
X141732D02*
D03*
X153543D02*
D03*
X165354D02*
D03*
X129921Y17717D02*
D03*
X141732D02*
D03*
X153543D02*
D03*
D64*
X165354D02*
D03*
D65*
X280315Y67913D02*
D03*
Y87598D02*
D03*
Y77756D02*
D03*
Y58071D02*
D03*
Y48228D02*
D03*
Y38386D02*
D03*
Y237205D02*
D03*
Y256890D02*
D03*
Y247047D02*
D03*
Y227362D02*
D03*
Y217520D02*
D03*
Y207677D02*
D03*
X14961Y227362D02*
D03*
Y207677D02*
D03*
Y217520D02*
D03*
Y237205D02*
D03*
Y247047D02*
D03*
Y256890D02*
D03*
Y58071D02*
D03*
Y38386D02*
D03*
Y48228D02*
D03*
Y67913D02*
D03*
Y77756D02*
D03*
Y87598D02*
D03*
D66*
X281496Y281496D02*
D03*
X13780Y13780D02*
D03*
X281496D02*
D03*
X13780Y281496D02*
D03*
D67*
X189000Y82079D02*
D03*
Y91921D02*
D03*
X108500Y82421D02*
D03*
Y72579D02*
D03*
D68*
X441280Y32500D02*
D03*
X427500D02*
D03*
X201890Y326000D02*
D03*
X188110D02*
D03*
X104110Y427000D02*
D03*
X117890D02*
D03*
X404610Y262000D02*
D03*
X418390D02*
D03*
M02*
