G04*
G04 #@! TF.GenerationSoftware,Altium Limited,Altium Designer,25.5.2 (35)*
G04*
G04 Layer_Physical_Order=1*
G04 Layer_Color=255*
%FSLAX25Y25*%
%MOIN*%
G70*
G04*
G04 #@! TF.SameCoordinates,672FA988-C404-43CE-99EC-9311219A220C*
G04*
G04*
G04 #@! TF.FilePolarity,Positive*
G04*
G01*
G75*
%ADD23R,0.01968X0.03150*%
%ADD24R,0.03740X0.01772*%
%ADD25R,0.05118X0.05512*%
%ADD26R,0.01850X0.01181*%
%ADD27R,0.06102X0.02362*%
%ADD28R,0.07087X0.04724*%
%ADD29R,0.03347X0.03347*%
%ADD30R,0.02362X0.03347*%
%ADD31R,0.02362X0.06102*%
%ADD32R,0.04724X0.07087*%
%ADD33R,0.05709X0.06102*%
%ADD34R,0.02559X0.00984*%
%ADD35R,0.00984X0.02559*%
%ADD36R,0.03937X0.02756*%
%ADD37R,0.03347X0.02362*%
%ADD38R,0.19291X0.13976*%
%ADD39R,0.06496X0.04921*%
%ADD40R,0.03347X0.03347*%
%ADD41R,0.06890X0.06496*%
%ADD69R,0.01968X0.07579*%
%ADD70R,0.05315X0.15748*%
%ADD71R,0.01968X0.15748*%
%ADD72R,0.07087X0.07087*%
%ADD73C,0.07087*%
%ADD74O,0.06890X0.09843*%
%ADD75C,0.04016*%
%ADD76C,0.05984*%
%ADD77R,0.05984X0.05984*%
%ADD78O,0.09843X0.06890*%
%ADD79C,0.15748*%
%ADD80O,0.07677X0.05118*%
%ADD81O,0.05512X0.08268*%
D23*
X303500Y133543D02*
D03*
Y126457D02*
D03*
Y104043D02*
D03*
Y96957D02*
D03*
X339500Y92500D02*
D03*
Y85413D02*
D03*
X303500Y45043D02*
D03*
Y37957D02*
D03*
X336000Y18587D02*
D03*
Y11500D02*
D03*
D24*
X316421Y387854D02*
D03*
Y385295D02*
D03*
Y382736D02*
D03*
X325083D02*
D03*
Y385295D02*
D03*
Y387854D02*
D03*
X251421Y416646D02*
D03*
Y414087D02*
D03*
Y411527D02*
D03*
X260083D02*
D03*
Y414087D02*
D03*
Y416646D02*
D03*
X418354Y362421D02*
D03*
Y364980D02*
D03*
Y367539D02*
D03*
X409693D02*
D03*
Y364980D02*
D03*
Y362421D02*
D03*
X418354Y193130D02*
D03*
Y195689D02*
D03*
Y198248D02*
D03*
X409693D02*
D03*
Y195689D02*
D03*
Y193130D02*
D03*
D25*
X565815Y171500D02*
D03*
X572114D02*
D03*
D26*
X410787Y67469D02*
D03*
Y65500D02*
D03*
Y63532D02*
D03*
X404213D02*
D03*
Y65500D02*
D03*
Y67469D02*
D03*
X352287D02*
D03*
Y65500D02*
D03*
Y63532D02*
D03*
X345713D02*
D03*
Y65500D02*
D03*
Y67469D02*
D03*
D27*
X391471Y59311D02*
D03*
Y55374D02*
D03*
Y47500D02*
D03*
Y39626D02*
D03*
Y35689D02*
D03*
Y43563D02*
D03*
Y51437D02*
D03*
X332970Y59311D02*
D03*
Y55374D02*
D03*
Y47500D02*
D03*
Y39626D02*
D03*
Y35689D02*
D03*
Y43563D02*
D03*
Y51437D02*
D03*
D28*
X381529Y30571D02*
D03*
Y64429D02*
D03*
X323029Y30571D02*
D03*
Y64429D02*
D03*
D29*
X361949Y67000D02*
D03*
X368051D02*
D03*
X303449D02*
D03*
X309551D02*
D03*
X319949Y23500D02*
D03*
X326051D02*
D03*
X306949Y18500D02*
D03*
X313051D02*
D03*
X303449Y108500D02*
D03*
X309551D02*
D03*
X351449D02*
D03*
X357551D02*
D03*
X401449D02*
D03*
X407551D02*
D03*
X384449D02*
D03*
X390551D02*
D03*
X449949D02*
D03*
X456051D02*
D03*
X497949D02*
D03*
X504051D02*
D03*
X481449D02*
D03*
X487551D02*
D03*
X321638Y341988D02*
D03*
X327740D02*
D03*
X256638Y370779D02*
D03*
X262740D02*
D03*
X81638Y407787D02*
D03*
X75535D02*
D03*
X413138Y238996D02*
D03*
X407035D02*
D03*
X492949Y21500D02*
D03*
X499051D02*
D03*
X235949Y435291D02*
D03*
X242051D02*
D03*
X433679Y343776D02*
D03*
X427577D02*
D03*
X55479Y333984D02*
D03*
X49376D02*
D03*
D30*
X303000Y9000D02*
D03*
X307899D02*
D03*
X192000Y409000D02*
D03*
X187101D02*
D03*
X192000Y400500D02*
D03*
X187101D02*
D03*
X599500Y200000D02*
D03*
X594601D02*
D03*
X619000D02*
D03*
X614101D02*
D03*
X304000Y364000D02*
D03*
X308899D02*
D03*
X239000Y392791D02*
D03*
X243899D02*
D03*
X99500Y385791D02*
D03*
X94601D02*
D03*
X431000Y217000D02*
D03*
X426101D02*
D03*
D31*
X114492Y342059D02*
D03*
X106618D02*
D03*
X110555D02*
D03*
X171106Y402030D02*
D03*
X163232D02*
D03*
X167169D02*
D03*
X621032Y175470D02*
D03*
X624968D02*
D03*
D32*
X119610Y352000D02*
D03*
X101500D02*
D03*
X176224Y411971D02*
D03*
X158114D02*
D03*
X630087Y165530D02*
D03*
X615913D02*
D03*
X599800Y165300D02*
D03*
X587900D02*
D03*
X84537Y436800D02*
D03*
X72637D02*
D03*
X605450Y191300D02*
D03*
X593550D02*
D03*
X624950D02*
D03*
X613050D02*
D03*
D33*
X309000Y45130D02*
D03*
Y34500D02*
D03*
X369500Y106815D02*
D03*
Y96185D02*
D03*
X467500Y106815D02*
D03*
Y96185D02*
D03*
D34*
X222228Y81632D02*
D03*
Y83600D02*
D03*
Y85569D02*
D03*
Y87537D02*
D03*
X227165Y250047D02*
D03*
Y252016D02*
D03*
Y253984D02*
D03*
Y255953D02*
D03*
X70579Y213953D02*
D03*
Y211984D02*
D03*
Y210016D02*
D03*
Y208047D02*
D03*
X65579Y46453D02*
D03*
Y44484D02*
D03*
Y42516D02*
D03*
Y40547D02*
D03*
D35*
X223213Y90982D02*
D03*
X225181D02*
D03*
X227150D02*
D03*
Y78187D02*
D03*
X225181D02*
D03*
X223213D02*
D03*
X228150Y259398D02*
D03*
X230118D02*
D03*
X232087D02*
D03*
Y246602D02*
D03*
X230118D02*
D03*
X228150D02*
D03*
X69595Y204602D02*
D03*
X67626D02*
D03*
X65658D02*
D03*
Y217398D02*
D03*
X67626D02*
D03*
X69595D02*
D03*
X64595Y37102D02*
D03*
X62626D02*
D03*
X60658D02*
D03*
Y49898D02*
D03*
X62626D02*
D03*
X64595D02*
D03*
D36*
X145713Y400799D02*
D03*
X127996D02*
D03*
X145713Y409264D02*
D03*
X127996D02*
D03*
X573858Y214768D02*
D03*
X556142D02*
D03*
X573858Y223232D02*
D03*
X556142D02*
D03*
D37*
X490500Y44000D02*
D03*
Y48899D02*
D03*
Y76000D02*
D03*
Y71101D02*
D03*
X436500Y321000D02*
D03*
Y316101D02*
D03*
Y289000D02*
D03*
Y293899D02*
D03*
X347500Y321709D02*
D03*
Y326608D02*
D03*
X282500Y350500D02*
D03*
Y355399D02*
D03*
X56000Y429000D02*
D03*
Y424101D02*
D03*
X516000Y164500D02*
D03*
Y159601D02*
D03*
X556000Y21815D02*
D03*
Y26714D02*
D03*
X565000Y98500D02*
D03*
Y93601D02*
D03*
X499000Y247000D02*
D03*
Y242101D02*
D03*
X491536Y170315D02*
D03*
Y175214D02*
D03*
D38*
X148500Y102638D02*
D03*
Y57362D02*
D03*
D39*
X211000Y28709D02*
D03*
Y42291D02*
D03*
D40*
X303500Y272949D02*
D03*
Y279051D02*
D03*
Y229949D02*
D03*
Y236051D02*
D03*
X63500Y197051D02*
D03*
Y190949D02*
D03*
X582000Y56449D02*
D03*
Y62551D02*
D03*
X499000Y40949D02*
D03*
Y47051D02*
D03*
Y79051D02*
D03*
Y72949D02*
D03*
X63500Y224949D02*
D03*
Y231051D02*
D03*
X428000Y285949D02*
D03*
Y292051D02*
D03*
X542000Y49051D02*
D03*
Y42949D02*
D03*
X565000Y70949D02*
D03*
Y77051D02*
D03*
X513276Y219449D02*
D03*
Y225551D02*
D03*
X490276Y197551D02*
D03*
Y191449D02*
D03*
D41*
X339000Y277677D02*
D03*
Y262323D02*
D03*
X338500Y234677D02*
D03*
Y219323D02*
D03*
X337000Y148677D02*
D03*
Y133323D02*
D03*
D69*
X233350Y80500D02*
D03*
Y88669D02*
D03*
X236500D02*
D03*
Y80500D02*
D03*
X238287Y248915D02*
D03*
Y257085D02*
D03*
X241437D02*
D03*
Y248915D02*
D03*
X59457Y215085D02*
D03*
Y206915D02*
D03*
X56307D02*
D03*
Y215085D02*
D03*
X54457Y47585D02*
D03*
Y39415D02*
D03*
X51307D02*
D03*
Y47585D02*
D03*
D70*
X241717Y84585D02*
D03*
X246654Y253000D02*
D03*
X51091Y211000D02*
D03*
X46091Y43500D02*
D03*
D71*
X229807Y84585D02*
D03*
X234744Y253000D02*
D03*
X63000Y211000D02*
D03*
X58000Y43500D02*
D03*
D72*
X102638Y216535D02*
D03*
D73*
Y206535D02*
D03*
Y196535D02*
D03*
Y186535D02*
D03*
Y176535D02*
D03*
Y166535D02*
D03*
Y156535D02*
D03*
Y146535D02*
D03*
Y136535D02*
D03*
Y126535D02*
D03*
X112638Y216535D02*
D03*
Y206535D02*
D03*
Y196535D02*
D03*
Y186535D02*
D03*
Y176535D02*
D03*
Y166535D02*
D03*
Y156535D02*
D03*
Y146535D02*
D03*
Y136535D02*
D03*
Y126535D02*
D03*
X122638Y216535D02*
D03*
Y206535D02*
D03*
Y136535D02*
D03*
Y126535D02*
D03*
X132638Y216535D02*
D03*
Y206535D02*
D03*
Y136535D02*
D03*
Y126535D02*
D03*
X142638Y216535D02*
D03*
Y206535D02*
D03*
Y136535D02*
D03*
Y126535D02*
D03*
X152638Y216535D02*
D03*
Y206535D02*
D03*
Y136535D02*
D03*
Y126535D02*
D03*
X162638Y216535D02*
D03*
Y206535D02*
D03*
Y136535D02*
D03*
Y126535D02*
D03*
X172638Y216535D02*
D03*
Y206535D02*
D03*
Y136535D02*
D03*
Y126535D02*
D03*
X182638Y216535D02*
D03*
Y206535D02*
D03*
Y196535D02*
D03*
Y186535D02*
D03*
Y176535D02*
D03*
Y166535D02*
D03*
Y156535D02*
D03*
Y146535D02*
D03*
Y136535D02*
D03*
Y126535D02*
D03*
X192638Y216535D02*
D03*
Y206535D02*
D03*
Y196535D02*
D03*
Y186535D02*
D03*
Y176535D02*
D03*
Y166535D02*
D03*
Y156535D02*
D03*
Y146535D02*
D03*
Y136535D02*
D03*
Y126535D02*
D03*
D74*
X185000Y363500D02*
D03*
X165315D02*
D03*
X175157D02*
D03*
X194843D02*
D03*
D75*
X118110Y33228D02*
D03*
X177165D02*
D03*
D76*
X129921Y29528D02*
D03*
X141732D02*
D03*
X153543D02*
D03*
X165354D02*
D03*
X129921Y17717D02*
D03*
X141732D02*
D03*
X153543D02*
D03*
D77*
X165354D02*
D03*
D78*
X280315Y67913D02*
D03*
Y87598D02*
D03*
Y77756D02*
D03*
Y58071D02*
D03*
Y48228D02*
D03*
Y38386D02*
D03*
Y237205D02*
D03*
Y256890D02*
D03*
Y247047D02*
D03*
Y227362D02*
D03*
Y217520D02*
D03*
Y207677D02*
D03*
X14961Y227362D02*
D03*
Y207677D02*
D03*
Y217520D02*
D03*
Y237205D02*
D03*
Y247047D02*
D03*
Y256890D02*
D03*
Y58071D02*
D03*
Y38386D02*
D03*
Y48228D02*
D03*
Y67913D02*
D03*
Y77756D02*
D03*
Y87598D02*
D03*
D79*
X281496Y281496D02*
D03*
X13780Y13780D02*
D03*
X281496D02*
D03*
X13780Y281496D02*
D03*
D80*
X189000Y82079D02*
D03*
Y91921D02*
D03*
X108500Y82421D02*
D03*
Y72579D02*
D03*
D81*
X441280Y32500D02*
D03*
X427500D02*
D03*
X201890Y326000D02*
D03*
X188110D02*
D03*
X104110Y427000D02*
D03*
X117890D02*
D03*
X404610Y262000D02*
D03*
X418390D02*
D03*
M02*
