G04*
G04 #@! TF.GenerationSoftware,Altium Limited,Altium Designer,25.5.2 (35)*
G04*
G04 Layer_Color=8421504*
%FSLAX25Y25*%
%MOIN*%
G70*
G04*
G04 #@! TF.SameCoordinates,672FA988-C404-43CE-99EC-9311219A220C*
G04*
G04*
G04 #@! TF.FilePolarity,Positive*
G04*
G01*
G75*
%ADD23R,0.01968X0.03150*%
%ADD24R,0.03740X0.01772*%
%ADD25R,0.05118X0.05512*%
%ADD26R,0.01850X0.01181*%
%ADD27R,0.06102X0.02362*%
%ADD28R,0.07087X0.04724*%
%ADD29R,0.03347X0.03347*%
%ADD30R,0.02362X0.03347*%
%ADD31R,0.02362X0.06102*%
%ADD32R,0.04724X0.07087*%
%ADD33R,0.05709X0.06102*%
%ADD34R,0.02559X0.00984*%
%ADD35R,0.00984X0.02559*%
%ADD36R,0.03937X0.02756*%
%ADD37R,0.03347X0.02362*%
%ADD38R,0.19291X0.13976*%
%ADD39R,0.06496X0.04921*%
%ADD40R,0.03347X0.03347*%
%ADD41R,0.06890X0.06496*%
G36*
X47469Y35823D02*
X48059Y35823D01*
X48256Y36020D01*
Y37201D01*
X48551D01*
Y42909D01*
X48354Y43106D01*
X47173Y43106D01*
X46976Y42909D01*
X46976Y37201D01*
X47272D01*
Y36020D01*
X47469Y35823D01*
D02*
G37*
G36*
X43827Y40055D02*
X43630Y40252D01*
Y40843D01*
X43827Y41039D01*
X45992D01*
X46189Y40843D01*
Y40252D01*
X45992Y40055D01*
X43827D01*
D02*
G37*
G36*
Y43008D02*
X45992D01*
X46189Y42811D01*
Y42221D01*
X45992Y42024D01*
X43827D01*
X43630Y42221D01*
Y42811D01*
X43827Y43008D01*
D02*
G37*
G36*
X51012Y35823D02*
X51602Y35823D01*
X51799Y36020D01*
X51799Y37201D01*
X52095D01*
Y42811D01*
X51898Y43008D01*
X50717D01*
X50520Y42811D01*
X50520Y37201D01*
X50815D01*
Y36020D01*
X51012Y35823D01*
D02*
G37*
G36*
X54161D02*
X54752D01*
X54949Y36020D01*
X54949Y37201D01*
X55244D01*
Y42811D01*
X55047Y43008D01*
X53866D01*
X53669Y42811D01*
X53669Y37201D01*
X53965D01*
Y36020D01*
X54161Y35823D01*
D02*
G37*
G36*
X57705D02*
X58295Y35823D01*
X58492Y36020D01*
Y37201D01*
X58787D01*
Y42909D01*
X58591Y43106D01*
X57410D01*
X57213Y42909D01*
Y37201D01*
X57508D01*
Y36020D01*
X57705Y35823D01*
D02*
G37*
G36*
X43827Y44976D02*
X45992D01*
X46189Y44780D01*
Y44189D01*
X45992Y43992D01*
X43827D01*
X43630Y44189D01*
Y44780D01*
X43827Y44976D01*
D02*
G37*
G36*
Y46945D02*
X45992D01*
X46189Y46748D01*
Y46158D01*
X45992Y45961D01*
X43827D01*
X43630Y46158D01*
Y46748D01*
X43827Y46945D01*
D02*
G37*
G36*
X47469Y51177D02*
X48059Y51177D01*
X48256Y50980D01*
Y49799D01*
X48551D01*
X48551Y44091D01*
X48354Y43894D01*
X47173Y43894D01*
X46976Y44091D01*
X46976Y49799D01*
X47272D01*
Y50980D01*
X47469Y51177D01*
D02*
G37*
G36*
X51012D02*
X51602Y51177D01*
X51799Y50980D01*
X51799Y49799D01*
X52095D01*
Y44189D01*
X51898Y43992D01*
X50717D01*
X50520Y44189D01*
X50520Y49799D01*
X50815D01*
Y50980D01*
X51012Y51177D01*
D02*
G37*
G36*
X54161D02*
X54752Y51177D01*
X54949Y50980D01*
Y49799D01*
X55244D01*
Y44189D01*
X55047Y43992D01*
X53866D01*
X53669Y44189D01*
Y49799D01*
X53965D01*
Y50980D01*
X54161Y51177D01*
D02*
G37*
G36*
X57705Y51177D02*
X58295D01*
X58492Y50980D01*
Y49799D01*
X58787D01*
Y44091D01*
X58591Y43894D01*
X57410Y43894D01*
X57213Y44091D01*
Y49799D01*
X57508D01*
Y50980D01*
X57705Y51177D01*
D02*
G37*
G36*
X233646Y76907D02*
X233055Y76907D01*
X232858Y77104D01*
Y78285D01*
X232563D01*
Y83896D01*
X232760Y84092D01*
X233941D01*
X234138Y83896D01*
Y78285D01*
X233842D01*
Y77104D01*
X233646Y76907D01*
D02*
G37*
G36*
X230102Y76907D02*
X229512D01*
X229315Y77104D01*
Y78285D01*
X229020D01*
Y83994D01*
X229217Y84191D01*
X230398Y84191D01*
X230594Y83994D01*
Y78285D01*
X230299D01*
Y77104D01*
X230102Y76907D01*
D02*
G37*
G36*
X236795Y76907D02*
X236205Y76907D01*
X236008Y77104D01*
X236008Y78285D01*
X235713D01*
Y83896D01*
X235910Y84092D01*
X237090D01*
X237287Y83896D01*
X237287Y78285D01*
X236992D01*
Y77104D01*
X236795Y76907D01*
D02*
G37*
G36*
X244177Y83896D02*
Y83305D01*
X243980Y83108D01*
X241815D01*
X241618Y83305D01*
Y83896D01*
X241815Y84092D01*
X243980D01*
X244177Y83896D01*
D02*
G37*
G36*
Y81927D02*
Y81337D01*
X243980Y81140D01*
X241815D01*
X241618Y81337D01*
Y81927D01*
X241815Y82124D01*
X243980D01*
X244177Y81927D01*
D02*
G37*
G36*
X240634Y84191D02*
X240831Y83994D01*
X240831Y78285D01*
X240535D01*
Y77104D01*
X240339Y76907D01*
X239748Y76907D01*
X239551Y77104D01*
Y78285D01*
X239256D01*
X239256Y83994D01*
X239453Y84191D01*
X240634Y84191D01*
D02*
G37*
G36*
X230102Y92262D02*
X229512Y92262D01*
X229315Y92065D01*
Y90884D01*
X229020D01*
Y85175D01*
X229217Y84978D01*
X230398D01*
X230594Y85175D01*
Y90884D01*
X230299D01*
Y92065D01*
X230102Y92262D01*
D02*
G37*
G36*
X233646D02*
X233055D01*
X232858Y92065D01*
X232858Y90884D01*
X232563D01*
Y85274D01*
X232760Y85077D01*
X233941D01*
X234138Y85274D01*
X234138Y90884D01*
X233842D01*
Y92065D01*
X233646Y92262D01*
D02*
G37*
G36*
X236795D02*
X236205Y92262D01*
X236008Y92065D01*
X236008Y90884D01*
X235713D01*
Y85274D01*
X235910Y85077D01*
X237090D01*
X237287Y85274D01*
X237287Y90884D01*
X236992D01*
Y92065D01*
X236795Y92262D01*
D02*
G37*
G36*
X243980Y85077D02*
X241815D01*
X241618Y85274D01*
Y85864D01*
X241815Y86061D01*
X243980D01*
X244177Y85864D01*
Y85274D01*
X243980Y85077D01*
D02*
G37*
G36*
Y88029D02*
X244177Y87833D01*
Y87242D01*
X243980Y87045D01*
X241815D01*
X241618Y87242D01*
Y87833D01*
X241815Y88029D01*
X243980D01*
D02*
G37*
G36*
X240339Y92262D02*
X239748Y92262D01*
X239551Y92065D01*
Y90884D01*
X239256D01*
Y85175D01*
X239453Y84978D01*
X240634Y84978D01*
X240831Y85175D01*
X240831Y90884D01*
X240535D01*
Y92065D01*
X240339Y92262D01*
D02*
G37*
G36*
X51189Y210311D02*
Y209720D01*
X50992Y209524D01*
X48827D01*
X48630Y209720D01*
Y210311D01*
X48827Y210508D01*
X50992D01*
X51189Y210311D01*
D02*
G37*
G36*
Y208343D02*
Y207752D01*
X50992Y207555D01*
X48827D01*
X48630Y207752D01*
Y208343D01*
X48827Y208539D01*
X50992D01*
X51189Y208343D01*
D02*
G37*
G36*
X53551Y210409D02*
Y204701D01*
X53256D01*
Y203520D01*
X53059Y203323D01*
X52469Y203323D01*
X52272Y203520D01*
Y204701D01*
X51976D01*
X51976Y210409D01*
X52173Y210606D01*
X53354Y210606D01*
X53551Y210409D01*
D02*
G37*
G36*
X56012Y203323D02*
X56602Y203323D01*
X56799Y203520D01*
X56799Y204701D01*
X57095D01*
Y210311D01*
X56898Y210508D01*
X55717D01*
X55520Y210311D01*
X55520Y204701D01*
X55815D01*
Y203520D01*
X56012Y203323D01*
D02*
G37*
G36*
X59161D02*
X59752D01*
X59949Y203520D01*
X59949Y204701D01*
X60244D01*
Y210311D01*
X60047Y210508D01*
X58866D01*
X58669Y210311D01*
X58669Y204701D01*
X58965D01*
Y203520D01*
X59161Y203323D01*
D02*
G37*
G36*
X62705D02*
X63295Y203323D01*
X63492Y203520D01*
Y204701D01*
X63787D01*
Y210409D01*
X63591Y210606D01*
X62410D01*
X62213Y210409D01*
Y204701D01*
X62508D01*
Y203520D01*
X62705Y203323D01*
D02*
G37*
G36*
X48827Y212476D02*
X50992D01*
X51189Y212280D01*
Y211689D01*
X50992Y211492D01*
X48827D01*
X48630Y211689D01*
Y212280D01*
X48827Y212476D01*
D02*
G37*
G36*
Y214445D02*
X50992D01*
X51189Y214248D01*
Y213657D01*
X50992Y213461D01*
X48827D01*
X48630Y213657D01*
Y214248D01*
X48827Y214445D01*
D02*
G37*
G36*
X52469Y218677D02*
X53059Y218677D01*
X53256Y218480D01*
Y217299D01*
X53551D01*
X53551Y211591D01*
X53354Y211394D01*
X52173Y211394D01*
X51976Y211591D01*
X51976Y217299D01*
X52272D01*
Y218480D01*
X52469Y218677D01*
D02*
G37*
G36*
X56012D02*
X56602Y218677D01*
X56799Y218480D01*
X56799Y217299D01*
X57095D01*
Y211689D01*
X56898Y211492D01*
X55717D01*
X55520Y211689D01*
X55520Y217299D01*
X55815D01*
Y218480D01*
X56012Y218677D01*
D02*
G37*
G36*
X59161D02*
X59752Y218677D01*
X59949Y218480D01*
Y217299D01*
X60244D01*
Y211689D01*
X60047Y211492D01*
X58866D01*
X58669Y211689D01*
Y217299D01*
X58965D01*
Y218480D01*
X59161Y218677D01*
D02*
G37*
G36*
X62705Y218677D02*
X63295D01*
X63492Y218480D01*
Y217299D01*
X63787D01*
Y211591D01*
X63591Y211394D01*
X62410Y211394D01*
X62213Y211591D01*
Y217299D01*
X62508D01*
Y218480D01*
X62705Y218677D01*
D02*
G37*
G36*
X238583Y245323D02*
X237992Y245323D01*
X237795Y245520D01*
Y246701D01*
X237500D01*
Y252311D01*
X237697Y252508D01*
X238878D01*
X239075Y252311D01*
Y246701D01*
X238779D01*
Y245520D01*
X238583Y245323D01*
D02*
G37*
G36*
X235039Y245323D02*
X234449D01*
X234252Y245520D01*
Y246701D01*
X233957D01*
Y252410D01*
X234154Y252606D01*
X235335Y252606D01*
X235531Y252410D01*
Y246701D01*
X235236D01*
Y245520D01*
X235039Y245323D01*
D02*
G37*
G36*
X241732Y245323D02*
X241142Y245323D01*
X240945Y245520D01*
X240945Y246701D01*
X240650D01*
Y252311D01*
X240846Y252508D01*
X242028D01*
X242224Y252311D01*
X242224Y246701D01*
X241929D01*
Y245520D01*
X241732Y245323D01*
D02*
G37*
G36*
X249114Y252311D02*
Y251720D01*
X248917Y251524D01*
X246752D01*
X246555Y251720D01*
Y252311D01*
X246752Y252508D01*
X248917D01*
X249114Y252311D01*
D02*
G37*
G36*
Y250342D02*
Y249752D01*
X248917Y249555D01*
X246752D01*
X246555Y249752D01*
Y250342D01*
X246752Y250539D01*
X248917D01*
X249114Y250342D01*
D02*
G37*
G36*
X245571Y252606D02*
X245768Y252410D01*
X245768Y246701D01*
X245472D01*
Y245520D01*
X245276Y245323D01*
X244685Y245323D01*
X244488Y245520D01*
Y246701D01*
X244193D01*
X244193Y252410D01*
X244390Y252606D01*
X245571Y252606D01*
D02*
G37*
G36*
X235039Y260677D02*
X234449Y260677D01*
X234252Y260480D01*
Y259299D01*
X233957D01*
Y253590D01*
X234154Y253394D01*
X235335D01*
X235531Y253590D01*
Y259299D01*
X235236D01*
Y260480D01*
X235039Y260677D01*
D02*
G37*
G36*
X238583D02*
X237992D01*
X237795Y260480D01*
X237795Y259299D01*
X237500D01*
Y253689D01*
X237697Y253492D01*
X238878D01*
X239075Y253689D01*
X239075Y259299D01*
X238779D01*
Y260480D01*
X238583Y260677D01*
D02*
G37*
G36*
X241732D02*
X241142Y260677D01*
X240945Y260480D01*
X240945Y259299D01*
X240650D01*
Y253689D01*
X240846Y253492D01*
X242028D01*
X242224Y253689D01*
X242224Y259299D01*
X241929D01*
Y260480D01*
X241732Y260677D01*
D02*
G37*
G36*
X248917Y253492D02*
X246752D01*
X246555Y253689D01*
Y254279D01*
X246752Y254476D01*
X248917D01*
X249114Y254279D01*
Y253689D01*
X248917Y253492D01*
D02*
G37*
G36*
Y256445D02*
X249114Y256248D01*
Y255658D01*
X248917Y255461D01*
X246752D01*
X246555Y255658D01*
Y256248D01*
X246752Y256445D01*
X248917D01*
D02*
G37*
G36*
X245276Y260677D02*
X244685Y260677D01*
X244488Y260480D01*
Y259299D01*
X244193D01*
Y253590D01*
X244390Y253394D01*
X245571Y253394D01*
X245768Y253590D01*
X245768Y259299D01*
X245472D01*
Y260480D01*
X245276Y260677D01*
D02*
G37*
D23*
X303500Y133543D02*
D03*
Y126457D02*
D03*
Y104043D02*
D03*
Y96957D02*
D03*
X339500Y92500D02*
D03*
Y85413D02*
D03*
X303500Y45043D02*
D03*
Y37957D02*
D03*
X336000Y18587D02*
D03*
Y11500D02*
D03*
D24*
X316421Y387854D02*
D03*
Y385295D02*
D03*
Y382736D02*
D03*
X325083D02*
D03*
Y385295D02*
D03*
Y387854D02*
D03*
X251421Y416646D02*
D03*
Y414087D02*
D03*
Y411527D02*
D03*
X260083D02*
D03*
Y414087D02*
D03*
Y416646D02*
D03*
X418354Y362421D02*
D03*
Y364980D02*
D03*
Y367539D02*
D03*
X409693D02*
D03*
Y364980D02*
D03*
Y362421D02*
D03*
X418354Y193130D02*
D03*
Y195689D02*
D03*
Y198248D02*
D03*
X409693D02*
D03*
Y195689D02*
D03*
Y193130D02*
D03*
D25*
X565815Y171500D02*
D03*
X572114D02*
D03*
D26*
X410787Y67469D02*
D03*
Y65500D02*
D03*
Y63532D02*
D03*
X404213D02*
D03*
Y65500D02*
D03*
Y67469D02*
D03*
X352287D02*
D03*
Y65500D02*
D03*
Y63532D02*
D03*
X345713D02*
D03*
Y65500D02*
D03*
Y67469D02*
D03*
D27*
X391471Y59311D02*
D03*
Y55374D02*
D03*
Y47500D02*
D03*
Y39626D02*
D03*
Y35689D02*
D03*
Y43563D02*
D03*
Y51437D02*
D03*
X332970Y59311D02*
D03*
Y55374D02*
D03*
Y47500D02*
D03*
Y39626D02*
D03*
Y35689D02*
D03*
Y43563D02*
D03*
Y51437D02*
D03*
D28*
X381529Y30571D02*
D03*
Y64429D02*
D03*
X323029Y30571D02*
D03*
Y64429D02*
D03*
D29*
X361949Y67000D02*
D03*
X368051D02*
D03*
X303449D02*
D03*
X309551D02*
D03*
X319949Y23500D02*
D03*
X326051D02*
D03*
X306949Y18500D02*
D03*
X313051D02*
D03*
X303449Y108500D02*
D03*
X309551D02*
D03*
X351449D02*
D03*
X357551D02*
D03*
X401449D02*
D03*
X407551D02*
D03*
X384449D02*
D03*
X390551D02*
D03*
X449949D02*
D03*
X456051D02*
D03*
X497949D02*
D03*
X504051D02*
D03*
X481449D02*
D03*
X487551D02*
D03*
X321638Y341988D02*
D03*
X327740D02*
D03*
X256638Y370779D02*
D03*
X262740D02*
D03*
X81638Y407787D02*
D03*
X75535D02*
D03*
X413138Y238996D02*
D03*
X407035D02*
D03*
X492949Y21500D02*
D03*
X499051D02*
D03*
X235949Y435291D02*
D03*
X242051D02*
D03*
X433679Y343776D02*
D03*
X427577D02*
D03*
X55479Y333984D02*
D03*
X49376D02*
D03*
D30*
X303000Y9000D02*
D03*
X307899D02*
D03*
X192000Y409000D02*
D03*
X187101D02*
D03*
X192000Y400500D02*
D03*
X187101D02*
D03*
X599500Y200000D02*
D03*
X594601D02*
D03*
X619000D02*
D03*
X614101D02*
D03*
X304000Y364000D02*
D03*
X308899D02*
D03*
X239000Y392791D02*
D03*
X243899D02*
D03*
X99500Y385791D02*
D03*
X94601D02*
D03*
X431000Y217000D02*
D03*
X426101D02*
D03*
D31*
X114492Y342059D02*
D03*
X106618D02*
D03*
X110555D02*
D03*
X171106Y402030D02*
D03*
X163232D02*
D03*
X167169D02*
D03*
X621032Y175470D02*
D03*
X624968D02*
D03*
D32*
X119610Y352000D02*
D03*
X101500D02*
D03*
X176224Y411971D02*
D03*
X158114D02*
D03*
X630087Y165530D02*
D03*
X615913D02*
D03*
X599800Y165300D02*
D03*
X587900D02*
D03*
X84537Y436800D02*
D03*
X72637D02*
D03*
X605450Y191300D02*
D03*
X593550D02*
D03*
X624950D02*
D03*
X613050D02*
D03*
D33*
X309000Y45130D02*
D03*
Y34500D02*
D03*
X369500Y106815D02*
D03*
Y96185D02*
D03*
X467500Y106815D02*
D03*
Y96185D02*
D03*
D34*
X222228Y81632D02*
D03*
Y83600D02*
D03*
Y85569D02*
D03*
Y87537D02*
D03*
X227165Y250047D02*
D03*
Y252016D02*
D03*
Y253984D02*
D03*
Y255953D02*
D03*
X70579Y213953D02*
D03*
Y211984D02*
D03*
Y210016D02*
D03*
Y208047D02*
D03*
X65579Y46453D02*
D03*
Y44484D02*
D03*
Y42516D02*
D03*
Y40547D02*
D03*
D35*
X223213Y90982D02*
D03*
X225181D02*
D03*
X227150D02*
D03*
Y78187D02*
D03*
X225181D02*
D03*
X223213D02*
D03*
X228150Y259398D02*
D03*
X230118D02*
D03*
X232087D02*
D03*
Y246602D02*
D03*
X230118D02*
D03*
X228150D02*
D03*
X69595Y204602D02*
D03*
X67626D02*
D03*
X65658D02*
D03*
Y217398D02*
D03*
X67626D02*
D03*
X69595D02*
D03*
X64595Y37102D02*
D03*
X62626D02*
D03*
X60658D02*
D03*
Y49898D02*
D03*
X62626D02*
D03*
X64595D02*
D03*
D36*
X145713Y400799D02*
D03*
X127996D02*
D03*
X145713Y409264D02*
D03*
X127996D02*
D03*
X573858Y214768D02*
D03*
X556142D02*
D03*
X573858Y223232D02*
D03*
X556142D02*
D03*
D37*
X490500Y44000D02*
D03*
Y48899D02*
D03*
Y76000D02*
D03*
Y71101D02*
D03*
X436500Y321000D02*
D03*
Y316101D02*
D03*
Y289000D02*
D03*
Y293899D02*
D03*
X347500Y321709D02*
D03*
Y326608D02*
D03*
X282500Y350500D02*
D03*
Y355399D02*
D03*
X56000Y429000D02*
D03*
Y424101D02*
D03*
X516000Y164500D02*
D03*
Y159601D02*
D03*
X556000Y21815D02*
D03*
Y26714D02*
D03*
X565000Y98500D02*
D03*
Y93601D02*
D03*
X499000Y247000D02*
D03*
Y242101D02*
D03*
X491536Y170315D02*
D03*
Y175214D02*
D03*
D38*
X148500Y102638D02*
D03*
Y57362D02*
D03*
D39*
X211000Y28709D02*
D03*
Y42291D02*
D03*
D40*
X303500Y272949D02*
D03*
Y279051D02*
D03*
Y229949D02*
D03*
Y236051D02*
D03*
X63500Y197051D02*
D03*
Y190949D02*
D03*
X582000Y56449D02*
D03*
Y62551D02*
D03*
X499000Y40949D02*
D03*
Y47051D02*
D03*
Y79051D02*
D03*
Y72949D02*
D03*
X63500Y224949D02*
D03*
Y231051D02*
D03*
X428000Y285949D02*
D03*
Y292051D02*
D03*
X542000Y49051D02*
D03*
Y42949D02*
D03*
X565000Y70949D02*
D03*
Y77051D02*
D03*
X513276Y219449D02*
D03*
Y225551D02*
D03*
X490276Y197551D02*
D03*
Y191449D02*
D03*
D41*
X339000Y277677D02*
D03*
Y262323D02*
D03*
X338500Y234677D02*
D03*
Y219323D02*
D03*
X337000Y148677D02*
D03*
Y133323D02*
D03*
M02*
