M48
;Layer_Color=9474304
;FILE_FORMAT=2:5
INCH,TZ
;TYPE=PLATED
T01F00S00C0.02756
T02F00S00C0.03150
T03F00S00C0.03543
T04F00S00C0.03937
T05F00S00C0.04016
T06F00S00C0.10236
;TYPE=NON_PLATED
T07F00S00C0.04016
%
T01
X108500Y72579
Y82421
X189000Y82079
Y91921
T02
X427500Y32500
X441280
X418390Y262000
X404610
X117890Y427000
X104110
X188110Y326000
X201890
T03
X14961Y38386
Y48228
Y58071
Y67913
Y77756
Y87598
X280315
Y77756
Y67913
Y58071
Y48228
Y38386
Y207677
Y217520
Y227362
Y237205
Y247047
Y256890
X14961
Y247047
Y237205
Y227362
Y217520
Y207677
X165315Y363500
X175157
X185000
X194843
T04
X102638Y126535
Y136535
Y146535
X112638
Y136535
Y126535
X122638
Y136535
X132638
Y126535
X142638
Y136535
X152638
Y126535
X162638
Y136535
X172638
Y126535
X182638
Y136535
Y146535
X192638
Y136535
Y126535
Y156535
X182638
Y166535
Y176535
Y186535
Y196535
Y206535
X172638
X162638
Y216535
X172638
X182638
X192638
Y206535
Y196535
Y186535
Y176535
Y166535
X112638
X102638
Y176535
Y186535
Y196535
Y206535
Y216535
X112638
Y206535
Y196535
Y186535
Y176535
Y156535
X102638
X122638Y206535
Y216535
X132638
Y206535
X142638
Y216535
X152638
Y206535
T05
X129921Y17717
Y29528
X141732
Y17717
X153543
Y29528
X165354
Y17717
T06
X13780Y13780
X281496
Y281496
X13780
T07
X118110Y33228
X177165
M30
