G04*
G04 #@! TF.GenerationSoftware,Altium Limited,Altium Designer,25.5.2 (35)*
G04*
G04 Layer_Physical_Order=2*
G04 Layer_Color=16711680*
%FSLAX25Y25*%
%MOIN*%
G70*
G04*
G04 #@! TF.SameCoordinates,672FA988-C404-43CE-99EC-9311219A220C*
G04*
G04*
G04 #@! TF.FilePolarity,Positive*
G04*
G01*
G75*
%ADD29R,0.03347X0.03347*%
%ADD30R,0.02362X0.03347*%
%ADD33R,0.05709X0.06102*%
%ADD37R,0.03347X0.02362*%
%ADD39R,0.06496X0.04921*%
%ADD40R,0.03347X0.03347*%
%ADD41R,0.06890X0.06496*%
%ADD72R,0.07087X0.07087*%
%ADD73C,0.07087*%
%ADD74O,0.06890X0.09843*%
%ADD75C,0.04016*%
%ADD76C,0.05984*%
%ADD77R,0.05984X0.05984*%
%ADD78O,0.09843X0.06890*%
%ADD79C,0.15748*%
%ADD80O,0.07677X0.05118*%
%ADD81O,0.05512X0.08268*%
%ADD82R,0.02362X0.04921*%
%ADD83R,0.02362X0.04724*%
%ADD84R,0.03150X0.03543*%
%ADD85R,0.02461X0.03268*%
%ADD86R,0.09646X0.08465*%
D29*
X340535Y375059D02*
D03*
X334433D02*
D03*
X275535Y403850D02*
D03*
X269433D02*
D03*
X394240Y354350D02*
D03*
X400343D02*
D03*
X394240Y185059D02*
D03*
X400343D02*
D03*
X340535Y395925D02*
D03*
X334433D02*
D03*
X275535Y424717D02*
D03*
X269433D02*
D03*
X394240Y375217D02*
D03*
X400343D02*
D03*
X394240Y205925D02*
D03*
X400343D02*
D03*
D30*
X594000Y165000D02*
D03*
X598899D02*
D03*
X78587Y436528D02*
D03*
X83486D02*
D03*
X504815Y43500D02*
D03*
X499916D02*
D03*
X505000Y84500D02*
D03*
X500101D02*
D03*
X421685Y321500D02*
D03*
X426584D02*
D03*
X421685Y282000D02*
D03*
X426584D02*
D03*
X350279Y345925D02*
D03*
X345380D02*
D03*
D33*
X229000Y343185D02*
D03*
Y353815D02*
D03*
D37*
X127000Y323500D02*
D03*
Y318601D02*
D03*
X142500Y401500D02*
D03*
Y396601D02*
D03*
X132500Y401500D02*
D03*
Y396601D02*
D03*
X237000Y348500D02*
D03*
Y343601D02*
D03*
X229000Y367500D02*
D03*
Y372399D02*
D03*
X237000Y367500D02*
D03*
Y362601D02*
D03*
X567500Y197500D02*
D03*
Y192601D02*
D03*
X559000Y197500D02*
D03*
Y202399D02*
D03*
X443500Y259500D02*
D03*
Y254601D02*
D03*
X138500Y369500D02*
D03*
Y364601D02*
D03*
X146500Y369500D02*
D03*
Y364601D02*
D03*
X565000Y98500D02*
D03*
Y93601D02*
D03*
X499000Y247000D02*
D03*
Y242101D02*
D03*
X491536Y170315D02*
D03*
Y175214D02*
D03*
D39*
X575500Y170291D02*
D03*
Y156709D02*
D03*
D40*
X212000Y368949D02*
D03*
Y375051D02*
D03*
D41*
X26500Y203823D02*
D03*
Y219177D02*
D03*
D72*
X102638Y216535D02*
D03*
D73*
Y206535D02*
D03*
Y196535D02*
D03*
Y186535D02*
D03*
Y176535D02*
D03*
Y166535D02*
D03*
Y156535D02*
D03*
Y146535D02*
D03*
Y136535D02*
D03*
Y126535D02*
D03*
X112638Y216535D02*
D03*
Y206535D02*
D03*
Y196535D02*
D03*
Y186535D02*
D03*
Y176535D02*
D03*
Y166535D02*
D03*
Y156535D02*
D03*
Y146535D02*
D03*
Y136535D02*
D03*
Y126535D02*
D03*
X122638Y216535D02*
D03*
Y206535D02*
D03*
Y136535D02*
D03*
Y126535D02*
D03*
X132638Y216535D02*
D03*
Y206535D02*
D03*
Y136535D02*
D03*
Y126535D02*
D03*
X142638Y216535D02*
D03*
Y206535D02*
D03*
Y136535D02*
D03*
Y126535D02*
D03*
X152638Y216535D02*
D03*
Y206535D02*
D03*
Y136535D02*
D03*
Y126535D02*
D03*
X162638Y216535D02*
D03*
Y206535D02*
D03*
Y136535D02*
D03*
Y126535D02*
D03*
X172638Y216535D02*
D03*
Y206535D02*
D03*
Y136535D02*
D03*
Y126535D02*
D03*
X182638Y216535D02*
D03*
Y206535D02*
D03*
Y196535D02*
D03*
Y186535D02*
D03*
Y176535D02*
D03*
Y166535D02*
D03*
Y156535D02*
D03*
Y146535D02*
D03*
Y136535D02*
D03*
Y126535D02*
D03*
X192638Y216535D02*
D03*
Y206535D02*
D03*
Y196535D02*
D03*
Y186535D02*
D03*
Y176535D02*
D03*
Y166535D02*
D03*
Y156535D02*
D03*
Y146535D02*
D03*
Y136535D02*
D03*
Y126535D02*
D03*
D74*
X185000Y363500D02*
D03*
X165315D02*
D03*
X175157D02*
D03*
X194843D02*
D03*
D75*
X118110Y33228D02*
D03*
X177165D02*
D03*
D76*
X129921Y29528D02*
D03*
X141732D02*
D03*
X153543D02*
D03*
X165354D02*
D03*
X129921Y17717D02*
D03*
X141732D02*
D03*
X153543D02*
D03*
D77*
X165354D02*
D03*
D78*
X280315Y67913D02*
D03*
Y87598D02*
D03*
Y77756D02*
D03*
Y58071D02*
D03*
Y48228D02*
D03*
Y38386D02*
D03*
Y237205D02*
D03*
Y256890D02*
D03*
Y247047D02*
D03*
Y227362D02*
D03*
Y217520D02*
D03*
Y207677D02*
D03*
X14961Y227362D02*
D03*
Y207677D02*
D03*
Y217520D02*
D03*
Y237205D02*
D03*
Y247047D02*
D03*
Y256890D02*
D03*
Y58071D02*
D03*
Y38386D02*
D03*
Y48228D02*
D03*
Y67913D02*
D03*
Y77756D02*
D03*
Y87598D02*
D03*
D79*
X281496Y281496D02*
D03*
X13780Y13780D02*
D03*
X281496D02*
D03*
X13780Y281496D02*
D03*
D80*
X189000Y82079D02*
D03*
Y91921D02*
D03*
X108500Y82421D02*
D03*
Y72579D02*
D03*
D81*
X441280Y32500D02*
D03*
X427500D02*
D03*
X201890Y326000D02*
D03*
X188110D02*
D03*
X104110Y427000D02*
D03*
X117890D02*
D03*
X404610Y262000D02*
D03*
X418390D02*
D03*
D82*
X146000Y324366D02*
D03*
X149740Y332634D02*
D03*
X142260D02*
D03*
D83*
X543760Y202421D02*
D03*
X547500D02*
D03*
X551240D02*
D03*
Y192579D02*
D03*
X547500D02*
D03*
X543760D02*
D03*
D84*
X127000Y375437D02*
D03*
X123260Y367563D02*
D03*
X130740D02*
D03*
D85*
X583880Y202500D02*
D03*
X575120D02*
D03*
D86*
X536965Y22736D02*
D03*
X520035D02*
D03*
X279965Y383378D02*
D03*
X263035D02*
D03*
X61067Y395583D02*
D03*
X77996D02*
D03*
X13994Y386291D02*
D03*
X30924D02*
D03*
M02*
