G04*
G04 #@! TF.GenerationSoftware,Altium Limited,Altium Designer,25.5.2 (35)*
G04*
G04 Layer_Color=8388736*
%FSLAX25Y25*%
%MOIN*%
G70*
G04*
G04 #@! TF.SameCoordinates,1FF4F048-C47D-4A12-B42C-E52ACFCD088C*
G04*
G04*
G04 #@! TF.FilePolarity,Negative*
G04*
G01*
G75*
%ADD21R,0.07480X0.04724*%
%ADD22R,0.07480X0.09055*%
%ADD23R,0.03740X0.03740*%
%ADD24R,0.04331X0.04331*%
%ADD25R,0.06496X0.02756*%
%ADD26R,0.07480X0.05118*%
%ADD27C,0.12205*%
D21*
X1017500Y552971D02*
D03*
X930000D02*
D03*
X843000D02*
D03*
X1005500Y520471D02*
D03*
X921500D02*
D03*
X838000D02*
D03*
D22*
X1017500Y561789D02*
D03*
X930000D02*
D03*
X843000D02*
D03*
X1005500Y529289D02*
D03*
X921500D02*
D03*
X838000D02*
D03*
D23*
X970000Y557949D02*
D03*
Y564051D02*
D03*
X882500Y557949D02*
D03*
Y564051D02*
D03*
X795500Y557949D02*
D03*
Y564051D02*
D03*
X959500Y525449D02*
D03*
Y531551D02*
D03*
X876000Y525449D02*
D03*
Y531551D02*
D03*
X792000Y525449D02*
D03*
Y531551D02*
D03*
X756500Y492949D02*
D03*
Y499051D02*
D03*
Y447949D02*
D03*
Y454051D02*
D03*
Y402949D02*
D03*
Y409051D02*
D03*
Y357949D02*
D03*
Y364051D02*
D03*
X757000Y312949D02*
D03*
Y319051D02*
D03*
X756500Y267949D02*
D03*
Y274051D02*
D03*
Y222949D02*
D03*
Y229051D02*
D03*
X755000Y177949D02*
D03*
Y184051D02*
D03*
D24*
X712701Y495661D02*
D03*
X725299D02*
D03*
Y478339D02*
D03*
X712701D02*
D03*
Y450661D02*
D03*
X725299D02*
D03*
Y433339D02*
D03*
X712701D02*
D03*
Y405661D02*
D03*
X725299D02*
D03*
Y388339D02*
D03*
X712701D02*
D03*
Y360661D02*
D03*
X725299D02*
D03*
Y343339D02*
D03*
X712701D02*
D03*
Y315661D02*
D03*
X725299D02*
D03*
Y298339D02*
D03*
X712701D02*
D03*
Y270661D02*
D03*
X725299D02*
D03*
Y253339D02*
D03*
X712701D02*
D03*
Y225661D02*
D03*
X725299D02*
D03*
Y208339D02*
D03*
X712701D02*
D03*
Y180661D02*
D03*
X725299D02*
D03*
Y163339D02*
D03*
X712701D02*
D03*
D25*
X805970Y155374D02*
D03*
Y147500D02*
D03*
Y139626D02*
D03*
Y143563D02*
D03*
Y151437D02*
D03*
D26*
X796030Y160492D02*
D03*
Y134508D02*
D03*
D27*
X713000Y114500D02*
D03*
X739000Y118000D02*
D03*
X762000Y129000D02*
D03*
M02*
