G04*
G04 #@! TF.GenerationSoftware,Altium Limited,Altium Designer,25.5.2 (35)*
G04*
G04 Layer_Color=65535*
%FSLAX25Y25*%
%MOIN*%
G70*
G04*
G04 #@! TF.SameCoordinates,1FF4F048-C47D-4A12-B42C-E52ACFCD088C*
G04*
G04*
G04 #@! TF.FilePolarity,Positive*
G04*
G01*
G75*
%ADD10C,0.01000*%
%ADD11C,0.00394*%
%ADD12C,0.00787*%
%ADD13C,0.00591*%
%ADD14C,0.00276*%
D10*
X720087Y114500D02*
G03*
X720087Y114500I-7087J0D01*
G01*
X746087Y118000D02*
G03*
X746087Y118000I-7087J0D01*
G01*
X769087Y129000D02*
G03*
X769087Y129000I-7087J0D01*
G01*
D11*
X712701Y474008D02*
G03*
X712701Y474402I0J197D01*
G01*
D02*
G03*
X712701Y474008I0J-197D01*
G01*
Y429008D02*
G03*
X712701Y429402I0J197D01*
G01*
D02*
G03*
X712701Y429008I0J-197D01*
G01*
Y384008D02*
G03*
X712701Y384402I0J197D01*
G01*
D02*
G03*
X712701Y384008I0J-197D01*
G01*
Y339008D02*
G03*
X712701Y339402I0J197D01*
G01*
D02*
G03*
X712701Y339008I0J-197D01*
G01*
Y294008D02*
G03*
X712701Y294402I0J197D01*
G01*
D02*
G03*
X712701Y294008I0J-197D01*
G01*
Y249008D02*
G03*
X712701Y249402I0J197D01*
G01*
D02*
G03*
X712701Y249008I0J-197D01*
G01*
Y204008D02*
G03*
X712701Y204402I0J197D01*
G01*
D02*
G03*
X712701Y204008I0J-197D01*
G01*
Y159008D02*
G03*
X712701Y159402I0J197D01*
G01*
D02*
G03*
X712701Y159008I0J-197D01*
G01*
X728842Y481488D02*
Y492512D01*
X709158Y481488D02*
Y492512D01*
X715850Y496842D02*
X722150D01*
X715850Y477157D02*
X722150D01*
X728842Y436488D02*
Y447512D01*
X709158Y436488D02*
Y447512D01*
X715850Y451842D02*
X722150D01*
X715850Y432158D02*
X722150D01*
X728842Y391488D02*
Y402512D01*
X709158Y391488D02*
Y402512D01*
X715850Y406843D02*
X722150D01*
X715850Y387158D02*
X722150D01*
X728842Y346488D02*
Y357512D01*
X709158Y346488D02*
Y357512D01*
X715850Y361842D02*
X722150D01*
X715850Y342158D02*
X722150D01*
X728842Y301488D02*
Y312512D01*
X709158Y301488D02*
Y312512D01*
X715850Y316843D02*
X722150D01*
X715850Y297158D02*
X722150D01*
X728842Y256488D02*
Y267512D01*
X709158Y256488D02*
Y267512D01*
X715850Y271843D02*
X722150D01*
X715850Y252157D02*
X722150D01*
X728842Y211488D02*
Y222512D01*
X709158Y211488D02*
Y222512D01*
X715850Y226842D02*
X722150D01*
X715850Y207157D02*
X722150D01*
X728842Y166488D02*
Y177512D01*
X709158Y166488D02*
Y177512D01*
X715850Y181843D02*
X722150D01*
X715850Y162157D02*
X722150D01*
D12*
X1011988Y551553D02*
X1012382D01*
X1011988D02*
Y565480D01*
X1012776D01*
X1022561Y551540D02*
X1022954D01*
Y565468D01*
X1022167D02*
X1022954D01*
X924488Y551553D02*
X924882D01*
X924488D02*
Y565480D01*
X925276D01*
X935061Y551540D02*
X935454D01*
Y565468D01*
X934667D02*
X935454D01*
X837488Y551553D02*
X837882D01*
X837488D02*
Y565480D01*
X838276D01*
X848061Y551540D02*
X848454D01*
Y565468D01*
X847667D02*
X848454D01*
X999988Y519053D02*
X1000382D01*
X999988D02*
Y532980D01*
X1000776D01*
X1010561Y519040D02*
X1010954D01*
Y532968D01*
X1010167D02*
X1010954D01*
X915988Y519053D02*
X916382D01*
X915988D02*
Y532980D01*
X916776D01*
X926561Y519040D02*
X926954D01*
Y532968D01*
X926167D02*
X926954D01*
X832488Y519053D02*
X832882D01*
X832488D02*
Y532980D01*
X833276D01*
X843061Y519040D02*
X843454D01*
Y532968D01*
X842667D02*
X843454D01*
X807598Y133595D02*
Y136594D01*
X800970Y133595D02*
X807598D01*
X793500Y138563D02*
Y156500D01*
X800970Y161406D02*
X807598D01*
Y158405D02*
Y161406D01*
X706250Y128786D02*
Y124850D01*
X708874Y128786D02*
Y124850D01*
X706250Y126912D02*
X708874D01*
X710898Y127474D02*
X710524Y127287D01*
X710149Y126912D01*
X709961Y126349D01*
Y125975D01*
X710149Y125412D01*
X710524Y125037D01*
X710898Y124850D01*
X711461D01*
X711836Y125037D01*
X712211Y125412D01*
X712398Y125975D01*
Y126349D01*
X712211Y126912D01*
X711836Y127287D01*
X711461Y127474D01*
X710898D01*
X713260Y128786D02*
Y124850D01*
X714085Y126349D02*
X716334D01*
Y126724D01*
X716147Y127099D01*
X715959Y127287D01*
X715584Y127474D01*
X715022D01*
X714647Y127287D01*
X714272Y126912D01*
X714085Y126349D01*
Y125975D01*
X714272Y125412D01*
X714647Y125037D01*
X715022Y124850D01*
X715584D01*
X715959Y125037D01*
X716334Y125412D01*
X717552Y128786D02*
X719614D01*
X718490Y127287D01*
X719052D01*
X719427Y127099D01*
X719614Y126912D01*
X719802Y126349D01*
Y125975D01*
X719614Y125412D01*
X719239Y125037D01*
X718677Y124850D01*
X718115D01*
X717552Y125037D01*
X717365Y125225D01*
X717177Y125600D01*
X755200Y143336D02*
Y139400D01*
X757824Y143336D02*
Y139400D01*
X755200Y141462D02*
X757824D01*
X759848Y142024D02*
X759474Y141837D01*
X759099Y141462D01*
X758911Y140900D01*
Y140525D01*
X759099Y139962D01*
X759474Y139587D01*
X759848Y139400D01*
X760411D01*
X760786Y139587D01*
X761161Y139962D01*
X761348Y140525D01*
Y140900D01*
X761161Y141462D01*
X760786Y141837D01*
X760411Y142024D01*
X759848D01*
X762210Y143336D02*
Y139400D01*
X763035Y140900D02*
X765284D01*
Y141274D01*
X765097Y141649D01*
X764909Y141837D01*
X764534Y142024D01*
X763972D01*
X763597Y141837D01*
X763222Y141462D01*
X763035Y140900D01*
Y140525D01*
X763222Y139962D01*
X763597Y139587D01*
X763972Y139400D01*
X764534D01*
X764909Y139587D01*
X765284Y139962D01*
X766315Y142399D02*
Y142586D01*
X766502Y142961D01*
X766690Y143149D01*
X767065Y143336D01*
X767814D01*
X768189Y143149D01*
X768377Y142961D01*
X768564Y142586D01*
Y142212D01*
X768377Y141837D01*
X768002Y141274D01*
X766127Y139400D01*
X768752D01*
X732200Y132336D02*
Y128400D01*
X734824Y132336D02*
Y128400D01*
X732200Y130462D02*
X734824D01*
X736848Y131024D02*
X736474Y130837D01*
X736099Y130462D01*
X735911Y129900D01*
Y129525D01*
X736099Y128962D01*
X736474Y128587D01*
X736848Y128400D01*
X737411D01*
X737786Y128587D01*
X738161Y128962D01*
X738348Y129525D01*
Y129900D01*
X738161Y130462D01*
X737786Y130837D01*
X737411Y131024D01*
X736848D01*
X739210Y132336D02*
Y128400D01*
X740035Y129900D02*
X742284D01*
Y130274D01*
X742097Y130649D01*
X741909Y130837D01*
X741534Y131024D01*
X740972D01*
X740597Y130837D01*
X740222Y130462D01*
X740035Y129900D01*
Y129525D01*
X740222Y128962D01*
X740597Y128587D01*
X740972Y128400D01*
X741534D01*
X741909Y128587D01*
X742284Y128962D01*
X743127Y131586D02*
X743502Y131774D01*
X744065Y132336D01*
Y128400D01*
X705800Y509836D02*
Y505900D01*
X708049D01*
X710917Y509836D02*
X708480D01*
Y505900D01*
X710917D01*
X708480Y507962D02*
X709980D01*
X711573Y509836D02*
Y505900D01*
Y509836D02*
X712885D01*
X713447Y509649D01*
X713822Y509274D01*
X714010Y508899D01*
X714197Y508337D01*
Y507400D01*
X714010Y506837D01*
X713822Y506462D01*
X713447Y506087D01*
X712885Y505900D01*
X711573D01*
X715078Y509086D02*
X715453Y509274D01*
X716015Y509836D01*
Y505900D01*
X717965Y504588D02*
X720964D01*
X721470Y509836D02*
Y505900D01*
Y509836D02*
X723157D01*
X723719Y509649D01*
X723906Y509461D01*
X724094Y509086D01*
Y508711D01*
X723906Y508337D01*
X723719Y508149D01*
X723157Y507962D01*
X721470D01*
X722782D02*
X724094Y505900D01*
X727786Y508899D02*
X727599Y509274D01*
X727224Y509649D01*
X726849Y509836D01*
X726099D01*
X725725Y509649D01*
X725350Y509274D01*
X725162Y508899D01*
X724975Y508337D01*
Y507400D01*
X725162Y506837D01*
X725350Y506462D01*
X725725Y506087D01*
X726099Y505900D01*
X726849D01*
X727224Y506087D01*
X727599Y506462D01*
X727786Y506837D01*
Y507400D01*
X726849D02*
X727786D01*
X728686Y509836D02*
Y505900D01*
Y509836D02*
X730373D01*
X730935Y509649D01*
X731123Y509461D01*
X731310Y509086D01*
Y508711D01*
X731123Y508337D01*
X730935Y508149D01*
X730373Y507962D01*
X728686D02*
X730373D01*
X730935Y507774D01*
X731123Y507587D01*
X731310Y507212D01*
Y506650D01*
X731123Y506275D01*
X730935Y506087D01*
X730373Y505900D01*
X728686D01*
X732191Y504588D02*
X735190D01*
X735696Y509836D02*
Y505900D01*
X737945D01*
X740813Y509836D02*
X738376D01*
Y505900D01*
X740813D01*
X738376Y507962D02*
X739876D01*
X741469Y509836D02*
Y505900D01*
Y509836D02*
X742781D01*
X743343Y509649D01*
X743718Y509274D01*
X743906Y508899D01*
X744093Y508337D01*
Y507400D01*
X743906Y506837D01*
X743718Y506462D01*
X743343Y506087D01*
X742781Y505900D01*
X741469D01*
X745911Y509836D02*
X745349Y509649D01*
X745162Y509274D01*
Y508899D01*
X745349Y508524D01*
X745724Y508337D01*
X746474Y508149D01*
X747036Y507962D01*
X747411Y507587D01*
X747598Y507212D01*
Y506650D01*
X747411Y506275D01*
X747223Y506087D01*
X746661Y505900D01*
X745911D01*
X745349Y506087D01*
X745162Y506275D01*
X744974Y506650D01*
Y507212D01*
X745162Y507587D01*
X745537Y507962D01*
X746099Y508149D01*
X746849Y508337D01*
X747223Y508524D01*
X747411Y508899D01*
Y509274D01*
X747223Y509649D01*
X746661Y509836D01*
X745911D01*
X705800Y464836D02*
Y460900D01*
X708049D01*
X710917Y464836D02*
X708480D01*
Y460900D01*
X710917D01*
X708480Y462962D02*
X709980D01*
X711573Y464836D02*
Y460900D01*
Y464836D02*
X712885D01*
X713447Y464649D01*
X713822Y464274D01*
X714010Y463899D01*
X714197Y463337D01*
Y462399D01*
X714010Y461837D01*
X713822Y461462D01*
X713447Y461087D01*
X712885Y460900D01*
X711573D01*
X715078Y464086D02*
X715453Y464274D01*
X716015Y464836D01*
Y460900D01*
X717965Y459588D02*
X720964D01*
X721470Y464836D02*
Y460900D01*
Y464836D02*
X723157D01*
X723719Y464649D01*
X723906Y464461D01*
X724094Y464086D01*
Y463712D01*
X723906Y463337D01*
X723719Y463149D01*
X723157Y462962D01*
X721470D01*
X722782D02*
X724094Y460900D01*
X727786Y463899D02*
X727599Y464274D01*
X727224Y464649D01*
X726849Y464836D01*
X726099D01*
X725725Y464649D01*
X725350Y464274D01*
X725162Y463899D01*
X724975Y463337D01*
Y462399D01*
X725162Y461837D01*
X725350Y461462D01*
X725725Y461087D01*
X726099Y460900D01*
X726849D01*
X727224Y461087D01*
X727599Y461462D01*
X727786Y461837D01*
Y462399D01*
X726849D02*
X727786D01*
X728686Y464836D02*
Y460900D01*
Y464836D02*
X730373D01*
X730935Y464649D01*
X731123Y464461D01*
X731310Y464086D01*
Y463712D01*
X731123Y463337D01*
X730935Y463149D01*
X730373Y462962D01*
X728686D02*
X730373D01*
X730935Y462774D01*
X731123Y462587D01*
X731310Y462212D01*
Y461650D01*
X731123Y461275D01*
X730935Y461087D01*
X730373Y460900D01*
X728686D01*
X732191Y459588D02*
X735190D01*
X735696Y464836D02*
Y460900D01*
X737945D01*
X740813Y464836D02*
X738376D01*
Y460900D01*
X740813D01*
X738376Y462962D02*
X739876D01*
X741469Y464836D02*
Y460900D01*
Y464836D02*
X742781D01*
X743343Y464649D01*
X743718Y464274D01*
X743906Y463899D01*
X744093Y463337D01*
Y462399D01*
X743906Y461837D01*
X743718Y461462D01*
X743343Y461087D01*
X742781Y460900D01*
X741469D01*
X747598Y464836D02*
X745724Y460900D01*
X744974Y464836D02*
X747598D01*
X705800Y419836D02*
Y415900D01*
X708049D01*
X710917Y419836D02*
X708480D01*
Y415900D01*
X710917D01*
X708480Y417962D02*
X709980D01*
X711573Y419836D02*
Y415900D01*
Y419836D02*
X712885D01*
X713447Y419649D01*
X713822Y419274D01*
X714010Y418899D01*
X714197Y418337D01*
Y417400D01*
X714010Y416837D01*
X713822Y416462D01*
X713447Y416087D01*
X712885Y415900D01*
X711573D01*
X715078Y419086D02*
X715453Y419274D01*
X716015Y419836D01*
Y415900D01*
X717965Y414588D02*
X720964D01*
X721470Y419836D02*
Y415900D01*
Y419836D02*
X723157D01*
X723719Y419649D01*
X723906Y419461D01*
X724094Y419086D01*
Y418712D01*
X723906Y418337D01*
X723719Y418149D01*
X723157Y417962D01*
X721470D01*
X722782D02*
X724094Y415900D01*
X727786Y418899D02*
X727599Y419274D01*
X727224Y419649D01*
X726849Y419836D01*
X726099D01*
X725725Y419649D01*
X725350Y419274D01*
X725162Y418899D01*
X724975Y418337D01*
Y417400D01*
X725162Y416837D01*
X725350Y416462D01*
X725725Y416087D01*
X726099Y415900D01*
X726849D01*
X727224Y416087D01*
X727599Y416462D01*
X727786Y416837D01*
Y417400D01*
X726849D02*
X727786D01*
X728686Y419836D02*
Y415900D01*
Y419836D02*
X730373D01*
X730935Y419649D01*
X731123Y419461D01*
X731310Y419086D01*
Y418712D01*
X731123Y418337D01*
X730935Y418149D01*
X730373Y417962D01*
X728686D02*
X730373D01*
X730935Y417774D01*
X731123Y417587D01*
X731310Y417212D01*
Y416650D01*
X731123Y416275D01*
X730935Y416087D01*
X730373Y415900D01*
X728686D01*
X732191Y414588D02*
X735190D01*
X735696Y419836D02*
Y415900D01*
X737945D01*
X740813Y419836D02*
X738376D01*
Y415900D01*
X740813D01*
X738376Y417962D02*
X739876D01*
X741469Y419836D02*
Y415900D01*
Y419836D02*
X742781D01*
X743343Y419649D01*
X743718Y419274D01*
X743906Y418899D01*
X744093Y418337D01*
Y417400D01*
X743906Y416837D01*
X743718Y416462D01*
X743343Y416087D01*
X742781Y415900D01*
X741469D01*
X747223Y419274D02*
X747036Y419649D01*
X746474Y419836D01*
X746099D01*
X745537Y419649D01*
X745162Y419086D01*
X744974Y418149D01*
Y417212D01*
X745162Y416462D01*
X745537Y416087D01*
X746099Y415900D01*
X746286D01*
X746849Y416087D01*
X747223Y416462D01*
X747411Y417025D01*
Y417212D01*
X747223Y417774D01*
X746849Y418149D01*
X746286Y418337D01*
X746099D01*
X745537Y418149D01*
X745162Y417774D01*
X744974Y417212D01*
X705800Y374836D02*
Y370900D01*
X708049D01*
X710917Y374836D02*
X708480D01*
Y370900D01*
X710917D01*
X708480Y372962D02*
X709980D01*
X711573Y374836D02*
Y370900D01*
Y374836D02*
X712885D01*
X713447Y374649D01*
X713822Y374274D01*
X714010Y373899D01*
X714197Y373337D01*
Y372399D01*
X714010Y371837D01*
X713822Y371462D01*
X713447Y371087D01*
X712885Y370900D01*
X711573D01*
X715078Y374086D02*
X715453Y374274D01*
X716015Y374836D01*
Y370900D01*
X717965Y369588D02*
X720964D01*
X721470Y374836D02*
Y370900D01*
Y374836D02*
X723157D01*
X723719Y374649D01*
X723906Y374461D01*
X724094Y374086D01*
Y373711D01*
X723906Y373337D01*
X723719Y373149D01*
X723157Y372962D01*
X721470D01*
X722782D02*
X724094Y370900D01*
X727786Y373899D02*
X727599Y374274D01*
X727224Y374649D01*
X726849Y374836D01*
X726099D01*
X725725Y374649D01*
X725350Y374274D01*
X725162Y373899D01*
X724975Y373337D01*
Y372399D01*
X725162Y371837D01*
X725350Y371462D01*
X725725Y371087D01*
X726099Y370900D01*
X726849D01*
X727224Y371087D01*
X727599Y371462D01*
X727786Y371837D01*
Y372399D01*
X726849D02*
X727786D01*
X728686Y374836D02*
Y370900D01*
Y374836D02*
X730373D01*
X730935Y374649D01*
X731123Y374461D01*
X731310Y374086D01*
Y373711D01*
X731123Y373337D01*
X730935Y373149D01*
X730373Y372962D01*
X728686D02*
X730373D01*
X730935Y372774D01*
X731123Y372587D01*
X731310Y372212D01*
Y371650D01*
X731123Y371275D01*
X730935Y371087D01*
X730373Y370900D01*
X728686D01*
X732191Y369588D02*
X735190D01*
X735696Y374836D02*
Y370900D01*
X737945D01*
X740813Y374836D02*
X738376D01*
Y370900D01*
X740813D01*
X738376Y372962D02*
X739876D01*
X741469Y374836D02*
Y370900D01*
Y374836D02*
X742781D01*
X743343Y374649D01*
X743718Y374274D01*
X743906Y373899D01*
X744093Y373337D01*
Y372399D01*
X743906Y371837D01*
X743718Y371462D01*
X743343Y371087D01*
X742781Y370900D01*
X741469D01*
X747223Y374836D02*
X745349D01*
X745162Y373149D01*
X745349Y373337D01*
X745911Y373524D01*
X746474D01*
X747036Y373337D01*
X747411Y372962D01*
X747598Y372399D01*
Y372025D01*
X747411Y371462D01*
X747036Y371087D01*
X746474Y370900D01*
X745911D01*
X745349Y371087D01*
X745162Y371275D01*
X744974Y371650D01*
X705800Y329836D02*
Y325900D01*
X708049D01*
X710917Y329836D02*
X708480D01*
Y325900D01*
X710917D01*
X708480Y327962D02*
X709980D01*
X711573Y329836D02*
Y325900D01*
Y329836D02*
X712885D01*
X713447Y329649D01*
X713822Y329274D01*
X714010Y328899D01*
X714197Y328337D01*
Y327399D01*
X714010Y326837D01*
X713822Y326462D01*
X713447Y326087D01*
X712885Y325900D01*
X711573D01*
X715078Y329086D02*
X715453Y329274D01*
X716015Y329836D01*
Y325900D01*
X717965Y324588D02*
X720964D01*
X721470Y329836D02*
Y325900D01*
Y329836D02*
X723157D01*
X723719Y329649D01*
X723906Y329461D01*
X724094Y329086D01*
Y328712D01*
X723906Y328337D01*
X723719Y328149D01*
X723157Y327962D01*
X721470D01*
X722782D02*
X724094Y325900D01*
X727786Y328899D02*
X727599Y329274D01*
X727224Y329649D01*
X726849Y329836D01*
X726099D01*
X725725Y329649D01*
X725350Y329274D01*
X725162Y328899D01*
X724975Y328337D01*
Y327399D01*
X725162Y326837D01*
X725350Y326462D01*
X725725Y326087D01*
X726099Y325900D01*
X726849D01*
X727224Y326087D01*
X727599Y326462D01*
X727786Y326837D01*
Y327399D01*
X726849D02*
X727786D01*
X728686Y329836D02*
Y325900D01*
Y329836D02*
X730373D01*
X730935Y329649D01*
X731123Y329461D01*
X731310Y329086D01*
Y328712D01*
X731123Y328337D01*
X730935Y328149D01*
X730373Y327962D01*
X728686D02*
X730373D01*
X730935Y327774D01*
X731123Y327587D01*
X731310Y327212D01*
Y326650D01*
X731123Y326275D01*
X730935Y326087D01*
X730373Y325900D01*
X728686D01*
X732191Y324588D02*
X735190D01*
X735696Y329836D02*
Y325900D01*
X737945D01*
X740813Y329836D02*
X738376D01*
Y325900D01*
X740813D01*
X738376Y327962D02*
X739876D01*
X741469Y329836D02*
Y325900D01*
Y329836D02*
X742781D01*
X743343Y329649D01*
X743718Y329274D01*
X743906Y328899D01*
X744093Y328337D01*
Y327399D01*
X743906Y326837D01*
X743718Y326462D01*
X743343Y326087D01*
X742781Y325900D01*
X741469D01*
X746849Y329836D02*
X744974Y327212D01*
X747786D01*
X746849Y329836D02*
Y325900D01*
X705800Y284836D02*
Y280900D01*
X708049D01*
X710917Y284836D02*
X708480D01*
Y280900D01*
X710917D01*
X708480Y282962D02*
X709980D01*
X711573Y284836D02*
Y280900D01*
Y284836D02*
X712885D01*
X713447Y284649D01*
X713822Y284274D01*
X714010Y283899D01*
X714197Y283337D01*
Y282400D01*
X714010Y281837D01*
X713822Y281462D01*
X713447Y281087D01*
X712885Y280900D01*
X711573D01*
X715078Y284086D02*
X715453Y284274D01*
X716015Y284836D01*
Y280900D01*
X717965Y279588D02*
X720964D01*
X721470Y284836D02*
Y280900D01*
Y284836D02*
X723157D01*
X723719Y284649D01*
X723906Y284461D01*
X724094Y284086D01*
Y283712D01*
X723906Y283337D01*
X723719Y283149D01*
X723157Y282962D01*
X721470D01*
X722782D02*
X724094Y280900D01*
X727786Y283899D02*
X727599Y284274D01*
X727224Y284649D01*
X726849Y284836D01*
X726099D01*
X725725Y284649D01*
X725350Y284274D01*
X725162Y283899D01*
X724975Y283337D01*
Y282400D01*
X725162Y281837D01*
X725350Y281462D01*
X725725Y281087D01*
X726099Y280900D01*
X726849D01*
X727224Y281087D01*
X727599Y281462D01*
X727786Y281837D01*
Y282400D01*
X726849D02*
X727786D01*
X728686Y284836D02*
Y280900D01*
Y284836D02*
X730373D01*
X730935Y284649D01*
X731123Y284461D01*
X731310Y284086D01*
Y283712D01*
X731123Y283337D01*
X730935Y283149D01*
X730373Y282962D01*
X728686D02*
X730373D01*
X730935Y282774D01*
X731123Y282587D01*
X731310Y282212D01*
Y281650D01*
X731123Y281275D01*
X730935Y281087D01*
X730373Y280900D01*
X728686D01*
X732191Y279588D02*
X735190D01*
X735696Y284836D02*
Y280900D01*
X737945D01*
X740813Y284836D02*
X738376D01*
Y280900D01*
X740813D01*
X738376Y282962D02*
X739876D01*
X741469Y284836D02*
Y280900D01*
Y284836D02*
X742781D01*
X743343Y284649D01*
X743718Y284274D01*
X743906Y283899D01*
X744093Y283337D01*
Y282400D01*
X743906Y281837D01*
X743718Y281462D01*
X743343Y281087D01*
X742781Y280900D01*
X741469D01*
X745349Y284836D02*
X747411D01*
X746286Y283337D01*
X746849D01*
X747223Y283149D01*
X747411Y282962D01*
X747598Y282400D01*
Y282025D01*
X747411Y281462D01*
X747036Y281087D01*
X746474Y280900D01*
X745911D01*
X745349Y281087D01*
X745162Y281275D01*
X744974Y281650D01*
X705800Y239836D02*
Y235900D01*
X708049D01*
X710917Y239836D02*
X708480D01*
Y235900D01*
X710917D01*
X708480Y237962D02*
X709980D01*
X711573Y239836D02*
Y235900D01*
Y239836D02*
X712885D01*
X713447Y239649D01*
X713822Y239274D01*
X714010Y238899D01*
X714197Y238337D01*
Y237400D01*
X714010Y236837D01*
X713822Y236462D01*
X713447Y236087D01*
X712885Y235900D01*
X711573D01*
X715078Y239086D02*
X715453Y239274D01*
X716015Y239836D01*
Y235900D01*
X717965Y234588D02*
X720964D01*
X721470Y239836D02*
Y235900D01*
Y239836D02*
X723157D01*
X723719Y239649D01*
X723906Y239461D01*
X724094Y239086D01*
Y238712D01*
X723906Y238337D01*
X723719Y238149D01*
X723157Y237962D01*
X721470D01*
X722782D02*
X724094Y235900D01*
X727786Y238899D02*
X727599Y239274D01*
X727224Y239649D01*
X726849Y239836D01*
X726099D01*
X725725Y239649D01*
X725350Y239274D01*
X725162Y238899D01*
X724975Y238337D01*
Y237400D01*
X725162Y236837D01*
X725350Y236462D01*
X725725Y236087D01*
X726099Y235900D01*
X726849D01*
X727224Y236087D01*
X727599Y236462D01*
X727786Y236837D01*
Y237400D01*
X726849D02*
X727786D01*
X728686Y239836D02*
Y235900D01*
Y239836D02*
X730373D01*
X730935Y239649D01*
X731123Y239461D01*
X731310Y239086D01*
Y238712D01*
X731123Y238337D01*
X730935Y238149D01*
X730373Y237962D01*
X728686D02*
X730373D01*
X730935Y237774D01*
X731123Y237587D01*
X731310Y237212D01*
Y236650D01*
X731123Y236275D01*
X730935Y236087D01*
X730373Y235900D01*
X728686D01*
X732191Y234588D02*
X735190D01*
X735696Y239836D02*
Y235900D01*
X737945D01*
X740813Y239836D02*
X738376D01*
Y235900D01*
X740813D01*
X738376Y237962D02*
X739876D01*
X741469Y239836D02*
Y235900D01*
Y239836D02*
X742781D01*
X743343Y239649D01*
X743718Y239274D01*
X743906Y238899D01*
X744093Y238337D01*
Y237400D01*
X743906Y236837D01*
X743718Y236462D01*
X743343Y236087D01*
X742781Y235900D01*
X741469D01*
X745162Y238899D02*
Y239086D01*
X745349Y239461D01*
X745537Y239649D01*
X745911Y239836D01*
X746661D01*
X747036Y239649D01*
X747223Y239461D01*
X747411Y239086D01*
Y238712D01*
X747223Y238337D01*
X746849Y237774D01*
X744974Y235900D01*
X747598D01*
X705800Y194836D02*
Y190900D01*
X708049D01*
X710917Y194836D02*
X708480D01*
Y190900D01*
X710917D01*
X708480Y192962D02*
X709980D01*
X711573Y194836D02*
Y190900D01*
Y194836D02*
X712885D01*
X713447Y194649D01*
X713822Y194274D01*
X714010Y193899D01*
X714197Y193337D01*
Y192400D01*
X714010Y191837D01*
X713822Y191462D01*
X713447Y191087D01*
X712885Y190900D01*
X711573D01*
X715078Y194086D02*
X715453Y194274D01*
X716015Y194836D01*
Y190900D01*
X717965Y189588D02*
X720964D01*
X721470Y194836D02*
Y190900D01*
Y194836D02*
X723157D01*
X723719Y194649D01*
X723906Y194461D01*
X724094Y194086D01*
Y193712D01*
X723906Y193337D01*
X723719Y193149D01*
X723157Y192962D01*
X721470D01*
X722782D02*
X724094Y190900D01*
X727786Y193899D02*
X727599Y194274D01*
X727224Y194649D01*
X726849Y194836D01*
X726099D01*
X725725Y194649D01*
X725350Y194274D01*
X725162Y193899D01*
X724975Y193337D01*
Y192400D01*
X725162Y191837D01*
X725350Y191462D01*
X725725Y191087D01*
X726099Y190900D01*
X726849D01*
X727224Y191087D01*
X727599Y191462D01*
X727786Y191837D01*
Y192400D01*
X726849D02*
X727786D01*
X728686Y194836D02*
Y190900D01*
Y194836D02*
X730373D01*
X730935Y194649D01*
X731123Y194461D01*
X731310Y194086D01*
Y193712D01*
X731123Y193337D01*
X730935Y193149D01*
X730373Y192962D01*
X728686D02*
X730373D01*
X730935Y192774D01*
X731123Y192587D01*
X731310Y192212D01*
Y191650D01*
X731123Y191275D01*
X730935Y191087D01*
X730373Y190900D01*
X728686D01*
X732191Y189588D02*
X735190D01*
X735696Y194836D02*
Y190900D01*
X737945D01*
X740813Y194836D02*
X738376D01*
Y190900D01*
X740813D01*
X738376Y192962D02*
X739876D01*
X741469Y194836D02*
Y190900D01*
Y194836D02*
X742781D01*
X743343Y194649D01*
X743718Y194274D01*
X743906Y193899D01*
X744093Y193337D01*
Y192400D01*
X743906Y191837D01*
X743718Y191462D01*
X743343Y191087D01*
X742781Y190900D01*
X741469D01*
X744974Y194086D02*
X745349Y194274D01*
X745911Y194836D01*
Y190900D01*
X785374Y165036D02*
Y162037D01*
X785187Y161475D01*
X785000Y161287D01*
X784625Y161100D01*
X784250D01*
X783875Y161287D01*
X783687Y161475D01*
X783500Y162037D01*
Y162412D01*
X786386Y164286D02*
X786761Y164474D01*
X787324Y165036D01*
Y161100D01*
X1011900Y575136D02*
Y571200D01*
Y575136D02*
X1013212D01*
X1013774Y574949D01*
X1014149Y574574D01*
X1014337Y574199D01*
X1014524Y573637D01*
Y572699D01*
X1014337Y572137D01*
X1014149Y571762D01*
X1013774Y571387D01*
X1013212Y571200D01*
X1011900D01*
X1015405Y574386D02*
X1015780Y574574D01*
X1016342Y575136D01*
Y571200D01*
X1018292Y569888D02*
X1021291D01*
X1021797Y575136D02*
X1022734Y571200D01*
X1023671Y575136D02*
X1022734Y571200D01*
X1023671Y575136D02*
X1024608Y571200D01*
X1025545Y575136D02*
X1024608Y571200D01*
X1026333Y575136D02*
Y571200D01*
X1028957Y575136D02*
Y571200D01*
X1026333Y573262D02*
X1028957D01*
X1031356Y575136D02*
Y571200D01*
X1030044Y575136D02*
X1032668D01*
X1033136Y569888D02*
X1036135D01*
X1036642Y575136D02*
Y571200D01*
X1038891D01*
X1041759Y575136D02*
X1039322D01*
Y571200D01*
X1041759D01*
X1039322Y573262D02*
X1040821D01*
X1042415Y575136D02*
Y571200D01*
Y575136D02*
X1043727D01*
X1044289Y574949D01*
X1044664Y574574D01*
X1044851Y574199D01*
X1045039Y573637D01*
Y572699D01*
X1044851Y572137D01*
X1044664Y571762D01*
X1044289Y571387D01*
X1043727Y571200D01*
X1042415D01*
X1046107Y574199D02*
Y574386D01*
X1046295Y574761D01*
X1046482Y574949D01*
X1046857Y575136D01*
X1047607D01*
X1047981Y574949D01*
X1048169Y574761D01*
X1048356Y574386D01*
Y574012D01*
X1048169Y573637D01*
X1047794Y573074D01*
X1045920Y571200D01*
X1048544D01*
X837400Y575136D02*
Y571200D01*
Y575136D02*
X838712D01*
X839274Y574949D01*
X839649Y574574D01*
X839837Y574199D01*
X840024Y573637D01*
Y572699D01*
X839837Y572137D01*
X839649Y571762D01*
X839274Y571387D01*
X838712Y571200D01*
X837400D01*
X841280Y575136D02*
X843342D01*
X842217Y573637D01*
X842779D01*
X843154Y573449D01*
X843342Y573262D01*
X843529Y572699D01*
Y572325D01*
X843342Y571762D01*
X842967Y571387D01*
X842405Y571200D01*
X841842D01*
X841280Y571387D01*
X841092Y571575D01*
X840905Y571950D01*
X844410Y569888D02*
X847409D01*
X847915Y575136D02*
X848852Y571200D01*
X849790Y575136D02*
X848852Y571200D01*
X849790Y575136D02*
X850727Y571200D01*
X851664Y575136D02*
X850727Y571200D01*
X852451Y575136D02*
Y571200D01*
X855075Y575136D02*
Y571200D01*
X852451Y573262D02*
X855075D01*
X857474Y575136D02*
Y571200D01*
X856162Y575136D02*
X858786D01*
X859255Y569888D02*
X862254D01*
X862760Y575136D02*
Y571200D01*
X865009D01*
X867877Y575136D02*
X865440D01*
Y571200D01*
X867877D01*
X865440Y573262D02*
X866940D01*
X868533Y575136D02*
Y571200D01*
Y575136D02*
X869845D01*
X870408Y574949D01*
X870782Y574574D01*
X870970Y574199D01*
X871157Y573637D01*
Y572699D01*
X870970Y572137D01*
X870782Y571762D01*
X870408Y571387D01*
X869845Y571200D01*
X868533D01*
X872226Y574199D02*
Y574386D01*
X872413Y574761D01*
X872600Y574949D01*
X872975Y575136D01*
X873725D01*
X874100Y574949D01*
X874288Y574761D01*
X874475Y574386D01*
Y574012D01*
X874288Y573637D01*
X873913Y573074D01*
X872038Y571200D01*
X874662D01*
X924400Y575136D02*
Y571200D01*
Y575136D02*
X925712D01*
X926274Y574949D01*
X926649Y574574D01*
X926837Y574199D01*
X927024Y573637D01*
Y572699D01*
X926837Y572137D01*
X926649Y571762D01*
X926274Y571387D01*
X925712Y571200D01*
X924400D01*
X928092Y574199D02*
Y574386D01*
X928280Y574761D01*
X928467Y574949D01*
X928842Y575136D01*
X929592D01*
X929967Y574949D01*
X930154Y574761D01*
X930342Y574386D01*
Y574012D01*
X930154Y573637D01*
X929779Y573074D01*
X927905Y571200D01*
X930529D01*
X931410Y569888D02*
X934409D01*
X934915Y575136D02*
X935852Y571200D01*
X936790Y575136D02*
X935852Y571200D01*
X936790Y575136D02*
X937727Y571200D01*
X938664Y575136D02*
X937727Y571200D01*
X939451Y575136D02*
Y571200D01*
X942075Y575136D02*
Y571200D01*
X939451Y573262D02*
X942075D01*
X944474Y575136D02*
Y571200D01*
X943162Y575136D02*
X945786D01*
X946255Y569888D02*
X949254D01*
X949760Y575136D02*
Y571200D01*
X952009D01*
X954877Y575136D02*
X952440D01*
Y571200D01*
X954877D01*
X952440Y573262D02*
X953940D01*
X955533Y575136D02*
Y571200D01*
Y575136D02*
X956845D01*
X957408Y574949D01*
X957782Y574574D01*
X957970Y574199D01*
X958157Y573637D01*
Y572699D01*
X957970Y572137D01*
X957782Y571762D01*
X957408Y571387D01*
X956845Y571200D01*
X955533D01*
X959226Y574199D02*
Y574386D01*
X959413Y574761D01*
X959601Y574949D01*
X959975Y575136D01*
X960725D01*
X961100Y574949D01*
X961287Y574761D01*
X961475Y574386D01*
Y574012D01*
X961287Y573637D01*
X960913Y573074D01*
X959038Y571200D01*
X961662D01*
X999900Y542636D02*
Y538700D01*
Y542636D02*
X1001212D01*
X1001774Y542449D01*
X1002149Y542074D01*
X1002337Y541699D01*
X1002524Y541137D01*
Y540200D01*
X1002337Y539637D01*
X1002149Y539262D01*
X1001774Y538887D01*
X1001212Y538700D01*
X999900D01*
X1003405Y541886D02*
X1003780Y542074D01*
X1004342Y542636D01*
Y538700D01*
X1006292Y537388D02*
X1009291D01*
X1009797Y542636D02*
X1010734Y538700D01*
X1011671Y542636D02*
X1010734Y538700D01*
X1011671Y542636D02*
X1012608Y538700D01*
X1013545Y542636D02*
X1012608Y538700D01*
X1014333Y542636D02*
Y538700D01*
X1016957Y542636D02*
Y538700D01*
X1014333Y540762D02*
X1016957D01*
X1019356Y542636D02*
Y538700D01*
X1018044Y542636D02*
X1020668D01*
X1021136Y537388D02*
X1024135D01*
X1024642Y542636D02*
Y538700D01*
X1026891D01*
X1029759Y542636D02*
X1027322D01*
Y538700D01*
X1029759D01*
X1027322Y540762D02*
X1028821D01*
X1030415Y542636D02*
Y538700D01*
Y542636D02*
X1031727D01*
X1032289Y542449D01*
X1032664Y542074D01*
X1032851Y541699D01*
X1033039Y541137D01*
Y540200D01*
X1032851Y539637D01*
X1032664Y539262D01*
X1032289Y538887D01*
X1031727Y538700D01*
X1030415D01*
X1033920Y541886D02*
X1034295Y542074D01*
X1034857Y542636D01*
Y538700D01*
X832400Y542636D02*
Y538700D01*
Y542636D02*
X833712D01*
X834274Y542449D01*
X834649Y542074D01*
X834837Y541699D01*
X835024Y541137D01*
Y540200D01*
X834837Y539637D01*
X834649Y539262D01*
X834274Y538887D01*
X833712Y538700D01*
X832400D01*
X836280Y542636D02*
X838342D01*
X837217Y541137D01*
X837779D01*
X838154Y540949D01*
X838342Y540762D01*
X838529Y540200D01*
Y539825D01*
X838342Y539262D01*
X837967Y538887D01*
X837405Y538700D01*
X836842D01*
X836280Y538887D01*
X836092Y539075D01*
X835905Y539450D01*
X839410Y537388D02*
X842409D01*
X842915Y542636D02*
X843852Y538700D01*
X844790Y542636D02*
X843852Y538700D01*
X844790Y542636D02*
X845727Y538700D01*
X846664Y542636D02*
X845727Y538700D01*
X847451Y542636D02*
Y538700D01*
X850075Y542636D02*
Y538700D01*
X847451Y540762D02*
X850075D01*
X852474Y542636D02*
Y538700D01*
X851162Y542636D02*
X853786D01*
X854255Y537388D02*
X857254D01*
X857760Y542636D02*
Y538700D01*
X860009D01*
X862877Y542636D02*
X860441D01*
Y538700D01*
X862877D01*
X860441Y540762D02*
X861940D01*
X863533Y542636D02*
Y538700D01*
Y542636D02*
X864845D01*
X865408Y542449D01*
X865782Y542074D01*
X865970Y541699D01*
X866157Y541137D01*
Y540200D01*
X865970Y539637D01*
X865782Y539262D01*
X865408Y538887D01*
X864845Y538700D01*
X863533D01*
X867038Y541886D02*
X867413Y542074D01*
X867975Y542636D01*
Y538700D01*
X915900Y542636D02*
Y538700D01*
Y542636D02*
X917212D01*
X917774Y542449D01*
X918149Y542074D01*
X918337Y541699D01*
X918524Y541137D01*
Y540200D01*
X918337Y539637D01*
X918149Y539262D01*
X917774Y538887D01*
X917212Y538700D01*
X915900D01*
X919592Y541699D02*
Y541886D01*
X919780Y542261D01*
X919967Y542449D01*
X920342Y542636D01*
X921092D01*
X921467Y542449D01*
X921654Y542261D01*
X921842Y541886D01*
Y541511D01*
X921654Y541137D01*
X921279Y540574D01*
X919405Y538700D01*
X922029D01*
X922910Y537388D02*
X925909D01*
X926415Y542636D02*
X927352Y538700D01*
X928290Y542636D02*
X927352Y538700D01*
X928290Y542636D02*
X929227Y538700D01*
X930164Y542636D02*
X929227Y538700D01*
X930951Y542636D02*
Y538700D01*
X933575Y542636D02*
Y538700D01*
X930951Y540762D02*
X933575D01*
X935974Y542636D02*
Y538700D01*
X934662Y542636D02*
X937286D01*
X937755Y537388D02*
X940754D01*
X941260Y542636D02*
Y538700D01*
X943509D01*
X946377Y542636D02*
X943941D01*
Y538700D01*
X946377D01*
X943941Y540762D02*
X945440D01*
X947033Y542636D02*
Y538700D01*
Y542636D02*
X948345D01*
X948908Y542449D01*
X949282Y542074D01*
X949470Y541699D01*
X949657Y541137D01*
Y540200D01*
X949470Y539637D01*
X949282Y539262D01*
X948908Y538887D01*
X948345Y538700D01*
X947033D01*
X950538Y541886D02*
X950913Y542074D01*
X951475Y542636D01*
Y538700D01*
X883311Y573899D02*
X883124Y574274D01*
X882749Y574649D01*
X882374Y574836D01*
X881625D01*
X881250Y574649D01*
X880875Y574274D01*
X880687Y573899D01*
X880500Y573337D01*
Y572400D01*
X880687Y571837D01*
X880875Y571462D01*
X881250Y571087D01*
X881625Y570900D01*
X882374D01*
X882749Y571087D01*
X883124Y571462D01*
X883311Y571837D01*
X884605Y573899D02*
Y574086D01*
X884792Y574461D01*
X884980Y574649D01*
X885355Y574836D01*
X886104D01*
X886479Y574649D01*
X886667Y574461D01*
X886854Y574086D01*
Y573711D01*
X886667Y573337D01*
X886292Y572774D01*
X884417Y570900D01*
X887041D01*
X887922Y569588D02*
X890921D01*
X891428Y574836D02*
X892365Y570900D01*
X893302Y574836D02*
X892365Y570900D01*
X893302Y574836D02*
X894239Y570900D01*
X895176Y574836D02*
X894239Y570900D01*
X895963Y574836D02*
Y570900D01*
X898588Y574836D02*
Y570900D01*
X895963Y572962D02*
X898588D01*
X900987Y574836D02*
Y570900D01*
X899675Y574836D02*
X902299D01*
X902767Y569588D02*
X905766D01*
X906273Y574836D02*
Y570900D01*
X908522D01*
X911390Y574836D02*
X908953D01*
Y570900D01*
X911390D01*
X908953Y572962D02*
X910452D01*
X912045Y574836D02*
Y570900D01*
Y574836D02*
X913358D01*
X913920Y574649D01*
X914295Y574274D01*
X914482Y573899D01*
X914670Y573337D01*
Y572400D01*
X914482Y571837D01*
X914295Y571462D01*
X913920Y571087D01*
X913358Y570900D01*
X912045D01*
X915738Y573899D02*
Y574086D01*
X915926Y574461D01*
X916113Y574649D01*
X916488Y574836D01*
X917237D01*
X917612Y574649D01*
X917800Y574461D01*
X917987Y574086D01*
Y573711D01*
X917800Y573337D01*
X917425Y572774D01*
X915551Y570900D01*
X918175D01*
X970811Y573899D02*
X970624Y574274D01*
X970249Y574649D01*
X969874Y574836D01*
X969125D01*
X968750Y574649D01*
X968375Y574274D01*
X968187Y573899D01*
X968000Y573337D01*
Y572400D01*
X968187Y571837D01*
X968375Y571462D01*
X968750Y571087D01*
X969125Y570900D01*
X969874D01*
X970249Y571087D01*
X970624Y571462D01*
X970811Y571837D01*
X971917Y574086D02*
X972292Y574274D01*
X972855Y574836D01*
Y570900D01*
X974804Y569588D02*
X977803D01*
X978309Y574836D02*
X979246Y570900D01*
X980183Y574836D02*
X979246Y570900D01*
X980183Y574836D02*
X981121Y570900D01*
X982058Y574836D02*
X981121Y570900D01*
X982845Y574836D02*
Y570900D01*
X985469Y574836D02*
Y570900D01*
X982845Y572962D02*
X985469D01*
X987868Y574836D02*
Y570900D01*
X986556Y574836D02*
X989180D01*
X989649Y569588D02*
X992648D01*
X993154Y574836D02*
Y570900D01*
X995403D01*
X998271Y574836D02*
X995834D01*
Y570900D01*
X998271D01*
X995834Y572962D02*
X997334D01*
X998927Y574836D02*
Y570900D01*
Y574836D02*
X1000239D01*
X1000801Y574649D01*
X1001176Y574274D01*
X1001364Y573899D01*
X1001551Y573337D01*
Y572400D01*
X1001364Y571837D01*
X1001176Y571462D01*
X1000801Y571087D01*
X1000239Y570900D01*
X998927D01*
X1002619Y573899D02*
Y574086D01*
X1002807Y574461D01*
X1002994Y574649D01*
X1003369Y574836D01*
X1004119D01*
X1004494Y574649D01*
X1004681Y574461D01*
X1004869Y574086D01*
Y573711D01*
X1004681Y573337D01*
X1004306Y572774D01*
X1002432Y570900D01*
X1005056D01*
X796312Y573899D02*
X796124Y574274D01*
X795749Y574649D01*
X795374Y574836D01*
X794625D01*
X794250Y574649D01*
X793875Y574274D01*
X793687Y573899D01*
X793500Y573337D01*
Y572400D01*
X793687Y571837D01*
X793875Y571462D01*
X794250Y571087D01*
X794625Y570900D01*
X795374D01*
X795749Y571087D01*
X796124Y571462D01*
X796312Y571837D01*
X797792Y574836D02*
X799854D01*
X798730Y573337D01*
X799292D01*
X799667Y573149D01*
X799854Y572962D01*
X800041Y572400D01*
Y572025D01*
X799854Y571462D01*
X799479Y571087D01*
X798917Y570900D01*
X798355D01*
X797792Y571087D01*
X797605Y571275D01*
X797417Y571650D01*
X800922Y569588D02*
X803922D01*
X804428Y574836D02*
X805365Y570900D01*
X806302Y574836D02*
X805365Y570900D01*
X806302Y574836D02*
X807239Y570900D01*
X808176Y574836D02*
X807239Y570900D01*
X808963Y574836D02*
Y570900D01*
X811588Y574836D02*
Y570900D01*
X808963Y572962D02*
X811588D01*
X813987Y574836D02*
Y570900D01*
X812675Y574836D02*
X815299D01*
X815767Y569588D02*
X818766D01*
X819273Y574836D02*
Y570900D01*
X821522D01*
X824389Y574836D02*
X821953D01*
Y570900D01*
X824389D01*
X821953Y572962D02*
X823452D01*
X825045Y574836D02*
Y570900D01*
Y574836D02*
X826358D01*
X826920Y574649D01*
X827295Y574274D01*
X827482Y573899D01*
X827670Y573337D01*
Y572400D01*
X827482Y571837D01*
X827295Y571462D01*
X826920Y571087D01*
X826358Y570900D01*
X825045D01*
X828738Y573899D02*
Y574086D01*
X828926Y574461D01*
X829113Y574649D01*
X829488Y574836D01*
X830237D01*
X830612Y574649D01*
X830800Y574461D01*
X830987Y574086D01*
Y573711D01*
X830800Y573337D01*
X830425Y572774D01*
X828551Y570900D01*
X831175D01*
X792811Y541399D02*
X792624Y541774D01*
X792249Y542149D01*
X791874Y542336D01*
X791125D01*
X790750Y542149D01*
X790375Y541774D01*
X790187Y541399D01*
X790000Y540837D01*
Y539899D01*
X790187Y539337D01*
X790375Y538962D01*
X790750Y538587D01*
X791125Y538400D01*
X791874D01*
X792249Y538587D01*
X792624Y538962D01*
X792811Y539337D01*
X794292Y542336D02*
X796354D01*
X795229Y540837D01*
X795792D01*
X796167Y540649D01*
X796354Y540462D01*
X796542Y539899D01*
Y539525D01*
X796354Y538962D01*
X795979Y538587D01*
X795417Y538400D01*
X794855D01*
X794292Y538587D01*
X794105Y538775D01*
X793917Y539150D01*
X797423Y537088D02*
X800422D01*
X800928Y542336D02*
X801865Y538400D01*
X802802Y542336D02*
X801865Y538400D01*
X802802Y542336D02*
X803739Y538400D01*
X804676Y542336D02*
X803739Y538400D01*
X805464Y542336D02*
Y538400D01*
X808088Y542336D02*
Y538400D01*
X805464Y540462D02*
X808088D01*
X810487Y542336D02*
Y538400D01*
X809175Y542336D02*
X811799D01*
X812267Y537088D02*
X815266D01*
X815773Y542336D02*
Y538400D01*
X818022D01*
X820889Y542336D02*
X818453D01*
Y538400D01*
X820889D01*
X818453Y540462D02*
X819952D01*
X821546Y542336D02*
Y538400D01*
Y542336D02*
X822858D01*
X823420Y542149D01*
X823795Y541774D01*
X823982Y541399D01*
X824170Y540837D01*
Y539899D01*
X823982Y539337D01*
X823795Y538962D01*
X823420Y538587D01*
X822858Y538400D01*
X821546D01*
X825051Y541586D02*
X825426Y541774D01*
X825988Y542336D01*
Y538400D01*
X960312Y541399D02*
X960124Y541774D01*
X959749Y542149D01*
X959374Y542336D01*
X958625D01*
X958250Y542149D01*
X957875Y541774D01*
X957687Y541399D01*
X957500Y540837D01*
Y539899D01*
X957687Y539337D01*
X957875Y538962D01*
X958250Y538587D01*
X958625Y538400D01*
X959374D01*
X959749Y538587D01*
X960124Y538962D01*
X960312Y539337D01*
X961417Y541586D02*
X961792Y541774D01*
X962355Y542336D01*
Y538400D01*
X964304Y537088D02*
X967303D01*
X967809Y542336D02*
X968746Y538400D01*
X969683Y542336D02*
X968746Y538400D01*
X969683Y542336D02*
X970621Y538400D01*
X971558Y542336D02*
X970621Y538400D01*
X972345Y542336D02*
Y538400D01*
X974969Y542336D02*
Y538400D01*
X972345Y540462D02*
X974969D01*
X977368Y542336D02*
Y538400D01*
X976056Y542336D02*
X978680D01*
X979149Y537088D02*
X982148D01*
X982654Y542336D02*
Y538400D01*
X984903D01*
X987771Y542336D02*
X985334D01*
Y538400D01*
X987771D01*
X985334Y540462D02*
X986834D01*
X988427Y542336D02*
Y538400D01*
Y542336D02*
X989739D01*
X990301Y542149D01*
X990676Y541774D01*
X990864Y541399D01*
X991051Y540837D01*
Y539899D01*
X990864Y539337D01*
X990676Y538962D01*
X990301Y538587D01*
X989739Y538400D01*
X988427D01*
X991932Y541586D02*
X992307Y541774D01*
X992869Y542336D01*
Y538400D01*
X876812Y541399D02*
X876624Y541774D01*
X876249Y542149D01*
X875874Y542336D01*
X875125D01*
X874750Y542149D01*
X874375Y541774D01*
X874187Y541399D01*
X874000Y540837D01*
Y539899D01*
X874187Y539337D01*
X874375Y538962D01*
X874750Y538587D01*
X875125Y538400D01*
X875874D01*
X876249Y538587D01*
X876624Y538962D01*
X876812Y539337D01*
X878105Y541399D02*
Y541586D01*
X878292Y541961D01*
X878480Y542149D01*
X878855Y542336D01*
X879604D01*
X879979Y542149D01*
X880167Y541961D01*
X880354Y541586D01*
Y541212D01*
X880167Y540837D01*
X879792Y540274D01*
X877917Y538400D01*
X880542D01*
X881423Y537088D02*
X884422D01*
X884927Y542336D02*
X885865Y538400D01*
X886802Y542336D02*
X885865Y538400D01*
X886802Y542336D02*
X887739Y538400D01*
X888676Y542336D02*
X887739Y538400D01*
X889464Y542336D02*
Y538400D01*
X892088Y542336D02*
Y538400D01*
X889464Y540462D02*
X892088D01*
X894487Y542336D02*
Y538400D01*
X893175Y542336D02*
X895799D01*
X896267Y537088D02*
X899266D01*
X899772Y542336D02*
Y538400D01*
X902022D01*
X904889Y542336D02*
X902453D01*
Y538400D01*
X904889D01*
X902453Y540462D02*
X903952D01*
X905546Y542336D02*
Y538400D01*
Y542336D02*
X906858D01*
X907420Y542149D01*
X907795Y541774D01*
X907982Y541399D01*
X908170Y540837D01*
Y539899D01*
X907982Y539337D01*
X907795Y538962D01*
X907420Y538587D01*
X906858Y538400D01*
X905546D01*
X909051Y541586D02*
X909426Y541774D01*
X909988Y542336D01*
Y538400D01*
X757311Y508899D02*
X757124Y509274D01*
X756749Y509649D01*
X756374Y509836D01*
X755625D01*
X755250Y509649D01*
X754875Y509274D01*
X754687Y508899D01*
X754500Y508337D01*
Y507400D01*
X754687Y506837D01*
X754875Y506462D01*
X755250Y506087D01*
X755625Y505900D01*
X756374D01*
X756749Y506087D01*
X757124Y506462D01*
X757311Y506837D01*
X760292Y509836D02*
X758417Y507212D01*
X761229D01*
X760292Y509836D02*
Y505900D01*
X761923Y504588D02*
X764922D01*
X765427Y509836D02*
Y505900D01*
Y509836D02*
X767114D01*
X767677Y509649D01*
X767864Y509461D01*
X768052Y509086D01*
Y508711D01*
X767864Y508337D01*
X767677Y508149D01*
X767114Y507962D01*
X765427D01*
X766740D02*
X768052Y505900D01*
X771744Y508899D02*
X771557Y509274D01*
X771182Y509649D01*
X770807Y509836D01*
X770057D01*
X769682Y509649D01*
X769308Y509274D01*
X769120Y508899D01*
X768933Y508337D01*
Y507400D01*
X769120Y506837D01*
X769308Y506462D01*
X769682Y506087D01*
X770057Y505900D01*
X770807D01*
X771182Y506087D01*
X771557Y506462D01*
X771744Y506837D01*
Y507400D01*
X770807D02*
X771744D01*
X772644Y509836D02*
Y505900D01*
Y509836D02*
X774331D01*
X774893Y509649D01*
X775080Y509461D01*
X775268Y509086D01*
Y508711D01*
X775080Y508337D01*
X774893Y508149D01*
X774331Y507962D01*
X772644D02*
X774331D01*
X774893Y507774D01*
X775080Y507587D01*
X775268Y507212D01*
Y506650D01*
X775080Y506275D01*
X774893Y506087D01*
X774331Y505900D01*
X772644D01*
X776149Y504588D02*
X779148D01*
X779654Y509836D02*
Y505900D01*
X781903D01*
X784771Y509836D02*
X782334D01*
Y505900D01*
X784771D01*
X782334Y507962D02*
X783834D01*
X785427Y509836D02*
Y505900D01*
Y509836D02*
X786739D01*
X787301Y509649D01*
X787676Y509274D01*
X787864Y508899D01*
X788051Y508337D01*
Y507400D01*
X787864Y506837D01*
X787676Y506462D01*
X787301Y506087D01*
X786739Y505900D01*
X785427D01*
X789869Y509836D02*
X789307Y509649D01*
X789119Y509274D01*
Y508899D01*
X789307Y508524D01*
X789682Y508337D01*
X790431Y508149D01*
X790994Y507962D01*
X791369Y507587D01*
X791556Y507212D01*
Y506650D01*
X791369Y506275D01*
X791181Y506087D01*
X790619Y505900D01*
X789869D01*
X789307Y506087D01*
X789119Y506275D01*
X788932Y506650D01*
Y507212D01*
X789119Y507587D01*
X789494Y507962D01*
X790057Y508149D01*
X790806Y508337D01*
X791181Y508524D01*
X791369Y508899D01*
Y509274D01*
X791181Y509649D01*
X790619Y509836D01*
X789869D01*
X757311Y463899D02*
X757124Y464274D01*
X756749Y464649D01*
X756374Y464836D01*
X755625D01*
X755250Y464649D01*
X754875Y464274D01*
X754687Y463899D01*
X754500Y463337D01*
Y462399D01*
X754687Y461837D01*
X754875Y461462D01*
X755250Y461087D01*
X755625Y460900D01*
X756374D01*
X756749Y461087D01*
X757124Y461462D01*
X757311Y461837D01*
X760292Y464836D02*
X758417Y462212D01*
X761229D01*
X760292Y464836D02*
Y460900D01*
X761923Y459588D02*
X764922D01*
X765427Y464836D02*
Y460900D01*
Y464836D02*
X767114D01*
X767677Y464649D01*
X767864Y464461D01*
X768052Y464086D01*
Y463712D01*
X767864Y463337D01*
X767677Y463149D01*
X767114Y462962D01*
X765427D01*
X766740D02*
X768052Y460900D01*
X771744Y463899D02*
X771557Y464274D01*
X771182Y464649D01*
X770807Y464836D01*
X770057D01*
X769682Y464649D01*
X769308Y464274D01*
X769120Y463899D01*
X768933Y463337D01*
Y462399D01*
X769120Y461837D01*
X769308Y461462D01*
X769682Y461087D01*
X770057Y460900D01*
X770807D01*
X771182Y461087D01*
X771557Y461462D01*
X771744Y461837D01*
Y462399D01*
X770807D02*
X771744D01*
X772644Y464836D02*
Y460900D01*
Y464836D02*
X774331D01*
X774893Y464649D01*
X775080Y464461D01*
X775268Y464086D01*
Y463712D01*
X775080Y463337D01*
X774893Y463149D01*
X774331Y462962D01*
X772644D02*
X774331D01*
X774893Y462774D01*
X775080Y462587D01*
X775268Y462212D01*
Y461650D01*
X775080Y461275D01*
X774893Y461087D01*
X774331Y460900D01*
X772644D01*
X776149Y459588D02*
X779148D01*
X779654Y464836D02*
Y460900D01*
X781903D01*
X784771Y464836D02*
X782334D01*
Y460900D01*
X784771D01*
X782334Y462962D02*
X783834D01*
X785427Y464836D02*
Y460900D01*
Y464836D02*
X786739D01*
X787301Y464649D01*
X787676Y464274D01*
X787864Y463899D01*
X788051Y463337D01*
Y462399D01*
X787864Y461837D01*
X787676Y461462D01*
X787301Y461087D01*
X786739Y460900D01*
X785427D01*
X791556Y464836D02*
X789682Y460900D01*
X788932Y464836D02*
X791556D01*
X757311Y418899D02*
X757124Y419274D01*
X756749Y419649D01*
X756374Y419836D01*
X755625D01*
X755250Y419649D01*
X754875Y419274D01*
X754687Y418899D01*
X754500Y418337D01*
Y417400D01*
X754687Y416837D01*
X754875Y416462D01*
X755250Y416087D01*
X755625Y415900D01*
X756374D01*
X756749Y416087D01*
X757124Y416462D01*
X757311Y416837D01*
X760292Y419836D02*
X758417Y417212D01*
X761229D01*
X760292Y419836D02*
Y415900D01*
X761923Y414588D02*
X764922D01*
X765427Y419836D02*
Y415900D01*
Y419836D02*
X767114D01*
X767677Y419649D01*
X767864Y419461D01*
X768052Y419086D01*
Y418712D01*
X767864Y418337D01*
X767677Y418149D01*
X767114Y417962D01*
X765427D01*
X766740D02*
X768052Y415900D01*
X771744Y418899D02*
X771557Y419274D01*
X771182Y419649D01*
X770807Y419836D01*
X770057D01*
X769682Y419649D01*
X769308Y419274D01*
X769120Y418899D01*
X768933Y418337D01*
Y417400D01*
X769120Y416837D01*
X769308Y416462D01*
X769682Y416087D01*
X770057Y415900D01*
X770807D01*
X771182Y416087D01*
X771557Y416462D01*
X771744Y416837D01*
Y417400D01*
X770807D02*
X771744D01*
X772644Y419836D02*
Y415900D01*
Y419836D02*
X774331D01*
X774893Y419649D01*
X775080Y419461D01*
X775268Y419086D01*
Y418712D01*
X775080Y418337D01*
X774893Y418149D01*
X774331Y417962D01*
X772644D02*
X774331D01*
X774893Y417774D01*
X775080Y417587D01*
X775268Y417212D01*
Y416650D01*
X775080Y416275D01*
X774893Y416087D01*
X774331Y415900D01*
X772644D01*
X776149Y414588D02*
X779148D01*
X779654Y419836D02*
Y415900D01*
X781903D01*
X784771Y419836D02*
X782334D01*
Y415900D01*
X784771D01*
X782334Y417962D02*
X783834D01*
X785427Y419836D02*
Y415900D01*
Y419836D02*
X786739D01*
X787301Y419649D01*
X787676Y419274D01*
X787864Y418899D01*
X788051Y418337D01*
Y417400D01*
X787864Y416837D01*
X787676Y416462D01*
X787301Y416087D01*
X786739Y415900D01*
X785427D01*
X791181Y419274D02*
X790994Y419649D01*
X790431Y419836D01*
X790057D01*
X789494Y419649D01*
X789119Y419086D01*
X788932Y418149D01*
Y417212D01*
X789119Y416462D01*
X789494Y416087D01*
X790057Y415900D01*
X790244D01*
X790806Y416087D01*
X791181Y416462D01*
X791369Y417025D01*
Y417212D01*
X791181Y417774D01*
X790806Y418149D01*
X790244Y418337D01*
X790057D01*
X789494Y418149D01*
X789119Y417774D01*
X788932Y417212D01*
X757311Y373899D02*
X757124Y374274D01*
X756749Y374649D01*
X756374Y374836D01*
X755625D01*
X755250Y374649D01*
X754875Y374274D01*
X754687Y373899D01*
X754500Y373337D01*
Y372399D01*
X754687Y371837D01*
X754875Y371462D01*
X755250Y371087D01*
X755625Y370900D01*
X756374D01*
X756749Y371087D01*
X757124Y371462D01*
X757311Y371837D01*
X760292Y374836D02*
X758417Y372212D01*
X761229D01*
X760292Y374836D02*
Y370900D01*
X761923Y369588D02*
X764922D01*
X765427Y374836D02*
Y370900D01*
Y374836D02*
X767114D01*
X767677Y374649D01*
X767864Y374461D01*
X768052Y374086D01*
Y373711D01*
X767864Y373337D01*
X767677Y373149D01*
X767114Y372962D01*
X765427D01*
X766740D02*
X768052Y370900D01*
X771744Y373899D02*
X771557Y374274D01*
X771182Y374649D01*
X770807Y374836D01*
X770057D01*
X769682Y374649D01*
X769308Y374274D01*
X769120Y373899D01*
X768933Y373337D01*
Y372399D01*
X769120Y371837D01*
X769308Y371462D01*
X769682Y371087D01*
X770057Y370900D01*
X770807D01*
X771182Y371087D01*
X771557Y371462D01*
X771744Y371837D01*
Y372399D01*
X770807D02*
X771744D01*
X772644Y374836D02*
Y370900D01*
Y374836D02*
X774331D01*
X774893Y374649D01*
X775080Y374461D01*
X775268Y374086D01*
Y373711D01*
X775080Y373337D01*
X774893Y373149D01*
X774331Y372962D01*
X772644D02*
X774331D01*
X774893Y372774D01*
X775080Y372587D01*
X775268Y372212D01*
Y371650D01*
X775080Y371275D01*
X774893Y371087D01*
X774331Y370900D01*
X772644D01*
X776149Y369588D02*
X779148D01*
X779654Y374836D02*
Y370900D01*
X781903D01*
X784771Y374836D02*
X782334D01*
Y370900D01*
X784771D01*
X782334Y372962D02*
X783834D01*
X785427Y374836D02*
Y370900D01*
Y374836D02*
X786739D01*
X787301Y374649D01*
X787676Y374274D01*
X787864Y373899D01*
X788051Y373337D01*
Y372399D01*
X787864Y371837D01*
X787676Y371462D01*
X787301Y371087D01*
X786739Y370900D01*
X785427D01*
X791181Y374836D02*
X789307D01*
X789119Y373149D01*
X789307Y373337D01*
X789869Y373524D01*
X790431D01*
X790994Y373337D01*
X791369Y372962D01*
X791556Y372399D01*
Y372025D01*
X791369Y371462D01*
X790994Y371087D01*
X790431Y370900D01*
X789869D01*
X789307Y371087D01*
X789119Y371275D01*
X788932Y371650D01*
X757811Y328899D02*
X757624Y329274D01*
X757249Y329649D01*
X756874Y329836D01*
X756125D01*
X755750Y329649D01*
X755375Y329274D01*
X755187Y328899D01*
X755000Y328337D01*
Y327399D01*
X755187Y326837D01*
X755375Y326462D01*
X755750Y326087D01*
X756125Y325900D01*
X756874D01*
X757249Y326087D01*
X757624Y326462D01*
X757811Y326837D01*
X760792Y329836D02*
X758917Y327212D01*
X761729D01*
X760792Y329836D02*
Y325900D01*
X762423Y324588D02*
X765421D01*
X765928Y329836D02*
Y325900D01*
Y329836D02*
X767615D01*
X768177Y329649D01*
X768364Y329461D01*
X768552Y329086D01*
Y328712D01*
X768364Y328337D01*
X768177Y328149D01*
X767615Y327962D01*
X765928D01*
X767240D02*
X768552Y325900D01*
X772244Y328899D02*
X772057Y329274D01*
X771682Y329649D01*
X771307Y329836D01*
X770557D01*
X770182Y329649D01*
X769807Y329274D01*
X769620Y328899D01*
X769433Y328337D01*
Y327399D01*
X769620Y326837D01*
X769807Y326462D01*
X770182Y326087D01*
X770557Y325900D01*
X771307D01*
X771682Y326087D01*
X772057Y326462D01*
X772244Y326837D01*
Y327399D01*
X771307D02*
X772244D01*
X773144Y329836D02*
Y325900D01*
Y329836D02*
X774831D01*
X775393Y329649D01*
X775581Y329461D01*
X775768Y329086D01*
Y328712D01*
X775581Y328337D01*
X775393Y328149D01*
X774831Y327962D01*
X773144D02*
X774831D01*
X775393Y327774D01*
X775581Y327587D01*
X775768Y327212D01*
Y326650D01*
X775581Y326275D01*
X775393Y326087D01*
X774831Y325900D01*
X773144D01*
X776649Y324588D02*
X779648D01*
X780154Y329836D02*
Y325900D01*
X782403D01*
X785271Y329836D02*
X782834D01*
Y325900D01*
X785271D01*
X782834Y327962D02*
X784334D01*
X785927Y329836D02*
Y325900D01*
Y329836D02*
X787239D01*
X787801Y329649D01*
X788176Y329274D01*
X788364Y328899D01*
X788551Y328337D01*
Y327399D01*
X788364Y326837D01*
X788176Y326462D01*
X787801Y326087D01*
X787239Y325900D01*
X785927D01*
X791306Y329836D02*
X789432Y327212D01*
X792244D01*
X791306Y329836D02*
Y325900D01*
X757311Y283899D02*
X757124Y284274D01*
X756749Y284649D01*
X756374Y284836D01*
X755625D01*
X755250Y284649D01*
X754875Y284274D01*
X754687Y283899D01*
X754500Y283337D01*
Y282400D01*
X754687Y281837D01*
X754875Y281462D01*
X755250Y281087D01*
X755625Y280900D01*
X756374D01*
X756749Y281087D01*
X757124Y281462D01*
X757311Y281837D01*
X760292Y284836D02*
X758417Y282212D01*
X761229D01*
X760292Y284836D02*
Y280900D01*
X761923Y279588D02*
X764922D01*
X765427Y284836D02*
Y280900D01*
Y284836D02*
X767114D01*
X767677Y284649D01*
X767864Y284461D01*
X768052Y284086D01*
Y283712D01*
X767864Y283337D01*
X767677Y283149D01*
X767114Y282962D01*
X765427D01*
X766740D02*
X768052Y280900D01*
X771744Y283899D02*
X771557Y284274D01*
X771182Y284649D01*
X770807Y284836D01*
X770057D01*
X769682Y284649D01*
X769308Y284274D01*
X769120Y283899D01*
X768933Y283337D01*
Y282400D01*
X769120Y281837D01*
X769308Y281462D01*
X769682Y281087D01*
X770057Y280900D01*
X770807D01*
X771182Y281087D01*
X771557Y281462D01*
X771744Y281837D01*
Y282400D01*
X770807D02*
X771744D01*
X772644Y284836D02*
Y280900D01*
Y284836D02*
X774331D01*
X774893Y284649D01*
X775080Y284461D01*
X775268Y284086D01*
Y283712D01*
X775080Y283337D01*
X774893Y283149D01*
X774331Y282962D01*
X772644D02*
X774331D01*
X774893Y282774D01*
X775080Y282587D01*
X775268Y282212D01*
Y281650D01*
X775080Y281275D01*
X774893Y281087D01*
X774331Y280900D01*
X772644D01*
X776149Y279588D02*
X779148D01*
X779654Y284836D02*
Y280900D01*
X781903D01*
X784771Y284836D02*
X782334D01*
Y280900D01*
X784771D01*
X782334Y282962D02*
X783834D01*
X785427Y284836D02*
Y280900D01*
Y284836D02*
X786739D01*
X787301Y284649D01*
X787676Y284274D01*
X787864Y283899D01*
X788051Y283337D01*
Y282400D01*
X787864Y281837D01*
X787676Y281462D01*
X787301Y281087D01*
X786739Y280900D01*
X785427D01*
X789307Y284836D02*
X791369D01*
X790244Y283337D01*
X790806D01*
X791181Y283149D01*
X791369Y282962D01*
X791556Y282400D01*
Y282025D01*
X791369Y281462D01*
X790994Y281087D01*
X790431Y280900D01*
X789869D01*
X789307Y281087D01*
X789119Y281275D01*
X788932Y281650D01*
X757311Y238899D02*
X757124Y239274D01*
X756749Y239649D01*
X756374Y239836D01*
X755625D01*
X755250Y239649D01*
X754875Y239274D01*
X754687Y238899D01*
X754500Y238337D01*
Y237400D01*
X754687Y236837D01*
X754875Y236462D01*
X755250Y236087D01*
X755625Y235900D01*
X756374D01*
X756749Y236087D01*
X757124Y236462D01*
X757311Y236837D01*
X760292Y239836D02*
X758417Y237212D01*
X761229D01*
X760292Y239836D02*
Y235900D01*
X761923Y234588D02*
X764922D01*
X765427Y239836D02*
Y235900D01*
Y239836D02*
X767114D01*
X767677Y239649D01*
X767864Y239461D01*
X768052Y239086D01*
Y238712D01*
X767864Y238337D01*
X767677Y238149D01*
X767114Y237962D01*
X765427D01*
X766740D02*
X768052Y235900D01*
X771744Y238899D02*
X771557Y239274D01*
X771182Y239649D01*
X770807Y239836D01*
X770057D01*
X769682Y239649D01*
X769308Y239274D01*
X769120Y238899D01*
X768933Y238337D01*
Y237400D01*
X769120Y236837D01*
X769308Y236462D01*
X769682Y236087D01*
X770057Y235900D01*
X770807D01*
X771182Y236087D01*
X771557Y236462D01*
X771744Y236837D01*
Y237400D01*
X770807D02*
X771744D01*
X772644Y239836D02*
Y235900D01*
Y239836D02*
X774331D01*
X774893Y239649D01*
X775080Y239461D01*
X775268Y239086D01*
Y238712D01*
X775080Y238337D01*
X774893Y238149D01*
X774331Y237962D01*
X772644D02*
X774331D01*
X774893Y237774D01*
X775080Y237587D01*
X775268Y237212D01*
Y236650D01*
X775080Y236275D01*
X774893Y236087D01*
X774331Y235900D01*
X772644D01*
X776149Y234588D02*
X779148D01*
X779654Y239836D02*
Y235900D01*
X781903D01*
X784771Y239836D02*
X782334D01*
Y235900D01*
X784771D01*
X782334Y237962D02*
X783834D01*
X785427Y239836D02*
Y235900D01*
Y239836D02*
X786739D01*
X787301Y239649D01*
X787676Y239274D01*
X787864Y238899D01*
X788051Y238337D01*
Y237400D01*
X787864Y236837D01*
X787676Y236462D01*
X787301Y236087D01*
X786739Y235900D01*
X785427D01*
X789119Y238899D02*
Y239086D01*
X789307Y239461D01*
X789494Y239649D01*
X789869Y239836D01*
X790619D01*
X790994Y239649D01*
X791181Y239461D01*
X791369Y239086D01*
Y238712D01*
X791181Y238337D01*
X790806Y237774D01*
X788932Y235900D01*
X791556D01*
X755812Y193899D02*
X755624Y194274D01*
X755249Y194649D01*
X754874Y194836D01*
X754125D01*
X753750Y194649D01*
X753375Y194274D01*
X753187Y193899D01*
X753000Y193337D01*
Y192400D01*
X753187Y191837D01*
X753375Y191462D01*
X753750Y191087D01*
X754125Y190900D01*
X754874D01*
X755249Y191087D01*
X755624Y191462D01*
X755812Y191837D01*
X758792Y194836D02*
X756917Y192212D01*
X759729D01*
X758792Y194836D02*
Y190900D01*
X760423Y189588D02*
X763421D01*
X763928Y194836D02*
Y190900D01*
Y194836D02*
X765615D01*
X766177Y194649D01*
X766364Y194461D01*
X766552Y194086D01*
Y193712D01*
X766364Y193337D01*
X766177Y193149D01*
X765615Y192962D01*
X763928D01*
X765240D02*
X766552Y190900D01*
X770244Y193899D02*
X770057Y194274D01*
X769682Y194649D01*
X769307Y194836D01*
X768557D01*
X768182Y194649D01*
X767807Y194274D01*
X767620Y193899D01*
X767433Y193337D01*
Y192400D01*
X767620Y191837D01*
X767807Y191462D01*
X768182Y191087D01*
X768557Y190900D01*
X769307D01*
X769682Y191087D01*
X770057Y191462D01*
X770244Y191837D01*
Y192400D01*
X769307D02*
X770244D01*
X771144Y194836D02*
Y190900D01*
Y194836D02*
X772831D01*
X773393Y194649D01*
X773581Y194461D01*
X773768Y194086D01*
Y193712D01*
X773581Y193337D01*
X773393Y193149D01*
X772831Y192962D01*
X771144D02*
X772831D01*
X773393Y192774D01*
X773581Y192587D01*
X773768Y192212D01*
Y191650D01*
X773581Y191275D01*
X773393Y191087D01*
X772831Y190900D01*
X771144D01*
X774649Y189588D02*
X777648D01*
X778154Y194836D02*
Y190900D01*
X780403D01*
X783271Y194836D02*
X780834D01*
Y190900D01*
X783271D01*
X780834Y192962D02*
X782334D01*
X783927Y194836D02*
Y190900D01*
Y194836D02*
X785239D01*
X785801Y194649D01*
X786176Y194274D01*
X786364Y193899D01*
X786551Y193337D01*
Y192400D01*
X786364Y191837D01*
X786176Y191462D01*
X785801Y191087D01*
X785239Y190900D01*
X783927D01*
X787432Y194086D02*
X787807Y194274D01*
X788369Y194836D01*
Y190900D01*
D13*
X968425Y560999D02*
X971575D01*
X880925D02*
X884075D01*
X793925D02*
X797075D01*
X957925Y528500D02*
X961075D01*
X874425D02*
X877575D01*
X790425D02*
X793575D01*
X754925Y495999D02*
X758075D01*
X754925Y450999D02*
X758075D01*
X754925Y406000D02*
X758075D01*
X754925Y360999D02*
X758075D01*
X755425Y316000D02*
X758575D01*
X754925Y271000D02*
X758075D01*
X754925Y225999D02*
X758075D01*
X753425Y181000D02*
X756575D01*
D14*
X967681Y566386D02*
X972319D01*
X967681Y564024D02*
Y566386D01*
X972319Y564023D02*
Y566386D01*
X967681Y555614D02*
Y557976D01*
X972319Y555614D02*
Y557976D01*
X967681Y555614D02*
X972319D01*
X880181Y566386D02*
X884819D01*
X880181Y564024D02*
Y566386D01*
X884819Y564023D02*
Y566386D01*
X880181Y555614D02*
Y557976D01*
X884819Y555614D02*
Y557976D01*
X880181Y555614D02*
X884819D01*
X793181Y566386D02*
X797819D01*
X793181Y564024D02*
Y566386D01*
X797819Y564023D02*
Y566386D01*
X793181Y555614D02*
Y557976D01*
X797819Y555614D02*
Y557976D01*
X793181Y555614D02*
X797819D01*
X957181Y533886D02*
X961819D01*
X957181Y531524D02*
Y533886D01*
X961819Y531524D02*
Y533886D01*
X957181Y523114D02*
Y525476D01*
X961819Y523114D02*
Y525476D01*
X957181Y523114D02*
X961819D01*
X873681Y533886D02*
X878319D01*
X873681Y531524D02*
Y533886D01*
X878319Y531524D02*
Y533886D01*
X873681Y523114D02*
Y525476D01*
X878319Y523114D02*
Y525476D01*
X873681Y523114D02*
X878319D01*
X789681Y533886D02*
X794319D01*
X789681Y531524D02*
Y533886D01*
X794319Y531524D02*
Y533886D01*
X789681Y523114D02*
Y525476D01*
X794319Y523114D02*
Y525476D01*
X789681Y523114D02*
X794319D01*
X754181Y501386D02*
X758819D01*
X754181Y499024D02*
Y501386D01*
X758819Y499023D02*
Y501386D01*
X754181Y490614D02*
Y492976D01*
X758819Y490614D02*
Y492976D01*
X754181Y490614D02*
X758819D01*
X754181Y456386D02*
X758819D01*
X754181Y454024D02*
Y456386D01*
X758819Y454024D02*
Y456386D01*
X754181Y445614D02*
Y447976D01*
X758819Y445614D02*
Y447976D01*
X754181Y445614D02*
X758819D01*
X754181Y411386D02*
X758819D01*
X754181Y409024D02*
Y411386D01*
X758819Y409024D02*
Y411386D01*
X754181Y400614D02*
Y402976D01*
X758819Y400614D02*
Y402976D01*
X754181Y400614D02*
X758819D01*
X754181Y366386D02*
X758819D01*
X754181Y364024D02*
Y366386D01*
X758819Y364023D02*
Y366386D01*
X754181Y355614D02*
Y357976D01*
X758819Y355614D02*
Y357976D01*
X754181Y355614D02*
X758819D01*
X754681Y321386D02*
X759319D01*
X754681Y319024D02*
Y321386D01*
X759319Y319023D02*
Y321386D01*
X754681Y310614D02*
Y312976D01*
X759319Y310614D02*
Y312976D01*
X754681Y310614D02*
X759319D01*
X754181Y276386D02*
X758819D01*
X754181Y274024D02*
Y276386D01*
X758819Y274024D02*
Y276386D01*
X754181Y265614D02*
Y267976D01*
X758819Y265614D02*
Y267976D01*
X754181Y265614D02*
X758819D01*
X754181Y231386D02*
X758819D01*
X754181Y229024D02*
Y231386D01*
X758819Y229024D02*
Y231386D01*
X754181Y220614D02*
Y222976D01*
X758819Y220614D02*
Y222976D01*
X754181Y220614D02*
X758819D01*
X752681Y186386D02*
X757319D01*
X752681Y184024D02*
Y186386D01*
X757319Y184023D02*
Y186386D01*
X752681Y175614D02*
Y177976D01*
X757319Y175614D02*
Y177976D01*
X752681Y175614D02*
X757319D01*
M02*
