M48
;Layer_Color=9474304
;FILE_FORMAT=2:5
INCH,TZ
;TYPE=PLATED
T01F00S00C0.00787
T02F00S00C0.01181
T03F00S00C0.08465
%
T01
X7874Y7874
X23622
X31496
X39370
X47244
X55118
X62992
X70866
X78740
X86614
X94488
X110236
Y23622
Y31496
Y39370
Y47244
Y55118
Y62992
Y70866
Y78740
Y86614
X94488
Y78740
X86614
X82500Y68500
X75455Y61500
X63000Y68500
X55500Y68000
X52500Y70000
X50500Y64500
Y59500
X54851Y57803
X47244Y55118
Y78740
Y86614
X55118
X62992
X70866Y78740
X39370
Y86614
X31496
Y78740
X23622
Y86614
X7874
Y78740
Y70866
Y55118
Y47244
X15748Y39370
Y31496
X23622
Y23622
X31496
Y15748
X39370
X47244
X55118
X62992
X70866
X78740
X86614
X98500Y25500
X101000Y39500
Y43500
X98453Y48050
X89000Y36000
X53000Y35000
X47000Y31500
X7874Y23622
T02
X57101Y28601
X80500Y28500
T03
X15748Y15748
Y82677
X102362
Y15748
M30
