G04*
G04 #@! TF.GenerationSoftware,Altium Limited,Altium Designer,25.5.2 (35)*
G04*
G04 Layer_Color=8421504*
%FSLAX25Y25*%
%MOIN*%
G70*
G04*
G04 #@! TF.SameCoordinates,B5FEB460-497D-4EFD-8A55-F2067931CFC5*
G04*
G04*
G04 #@! TF.FilePolarity,Positive*
G04*
G01*
G75*
%ADD15R,0.03347X0.03347*%
%ADD16R,0.06102X0.02362*%
%ADD17R,0.07087X0.04724*%
%ADD18R,0.02362X0.03347*%
G04:AMPARAMS|DCode=19|XSize=33.47mil|YSize=23.62mil|CornerRadius=0mil|HoleSize=0mil|Usage=FLASHONLY|Rotation=225.000|XOffset=0mil|YOffset=0mil|HoleType=Round|Shape=Rectangle|*
%AMROTATEDRECTD19*
4,1,4,0.00348,0.02018,0.02018,0.00348,-0.00348,-0.02018,-0.02018,-0.00348,0.00348,0.02018,0.0*
%
%ADD19ROTATEDRECTD19*%

%ADD20R,0.00984X0.02264*%
%ADD21R,0.02657X0.00984*%
%ADD22R,0.03347X0.02362*%
%ADD23R,0.02559X0.00984*%
%ADD24R,0.02559X0.01378*%
%ADD25R,0.03347X0.03347*%
%ADD26R,0.04724X0.04724*%
%ADD27R,0.05906X0.03150*%
G36*
X48453Y26898D02*
X48236Y26937D01*
X47817Y27073D01*
X47421Y27266D01*
X47056Y27512D01*
X46729Y27807D01*
X46446Y28144D01*
X46212Y28518D01*
X46033Y28920D01*
X45912Y29344D01*
X45850Y29780D01*
X45850Y30220D01*
X45912Y30656D01*
X46033Y31080D01*
X46212Y31482D01*
X46446Y31856D01*
X46729Y32193D01*
X47056Y32488D01*
X47421Y32734D01*
X47817Y32927D01*
X48236Y33064D01*
X48453Y33102D01*
X48453D01*
X48453Y26898D01*
D02*
G37*
G36*
X49764Y33064D02*
X50183Y32927D01*
X50579Y32734D01*
X50944Y32488D01*
X51271Y32193D01*
X51554Y31856D01*
X51788Y31482D01*
X51967Y31080D01*
X52088Y30656D01*
X52150Y30220D01*
Y29780D01*
X52088Y29344D01*
X51967Y28920D01*
X51788Y28518D01*
X51554Y28144D01*
X51271Y27807D01*
X50944Y27512D01*
X50579Y27266D01*
X50183Y27073D01*
X49764Y26937D01*
X49547Y26898D01*
X49547D01*
X49547Y33102D01*
X49764Y33064D01*
D02*
G37*
G36*
X39953Y46898D02*
X39736Y46937D01*
X39317Y47073D01*
X38921Y47266D01*
X38556Y47512D01*
X38229Y47807D01*
X37946Y48144D01*
X37712Y48518D01*
X37533Y48920D01*
X37412Y49344D01*
X37350Y49780D01*
X37350Y50220D01*
X37412Y50656D01*
X37533Y51080D01*
X37712Y51482D01*
X37946Y51856D01*
X38229Y52193D01*
X38556Y52488D01*
X38921Y52734D01*
X39317Y52927D01*
X39736Y53063D01*
X39953Y53102D01*
X39953D01*
X39953Y46898D01*
D02*
G37*
G36*
X41264Y53063D02*
X41683Y52927D01*
X42079Y52734D01*
X42444Y52488D01*
X42771Y52193D01*
X43054Y51856D01*
X43288Y51482D01*
X43467Y51080D01*
X43588Y50656D01*
X43650Y50220D01*
Y49780D01*
X43588Y49344D01*
X43467Y48920D01*
X43288Y48518D01*
X43054Y48144D01*
X42771Y47807D01*
X42444Y47512D01*
X42079Y47266D01*
X41683Y47073D01*
X41264Y46937D01*
X41047Y46898D01*
X41047D01*
X41047Y53102D01*
X41264Y53063D01*
D02*
G37*
D15*
X78500Y64949D02*
D03*
Y71051D02*
D03*
X72500Y64949D02*
D03*
Y71051D02*
D03*
D16*
X21386Y49213D02*
D03*
Y41339D02*
D03*
Y45276D02*
D03*
Y53150D02*
D03*
Y57087D02*
D03*
Y61024D02*
D03*
Y37402D02*
D03*
D17*
X6130Y32283D02*
D03*
Y66142D02*
D03*
D18*
X55899Y47500D02*
D03*
X51000D02*
D03*
X58000Y73000D02*
D03*
X62899D02*
D03*
D19*
X38464Y37536D02*
D03*
X35000Y41000D02*
D03*
X29000Y35000D02*
D03*
X32464Y31536D02*
D03*
D20*
X69882Y40106D02*
D03*
X71850D02*
D03*
X67913D02*
D03*
X69882Y58315D02*
D03*
X71850D02*
D03*
X73819Y40106D02*
D03*
Y58315D02*
D03*
X67913D02*
D03*
D21*
X64717Y42323D02*
D03*
X77016Y52165D02*
D03*
X77020Y48228D02*
D03*
X77016Y46260D02*
D03*
Y44291D02*
D03*
Y42323D02*
D03*
X64717Y40354D02*
D03*
Y44291D02*
D03*
Y46260D02*
D03*
Y48228D02*
D03*
Y50197D02*
D03*
Y52165D02*
D03*
Y54134D02*
D03*
Y56102D02*
D03*
X77016Y58071D02*
D03*
Y54134D02*
D03*
Y40354D02*
D03*
Y56102D02*
D03*
X64717Y58071D02*
D03*
X77020Y50197D02*
D03*
D22*
X70000Y28601D02*
D03*
Y33500D02*
D03*
X61000D02*
D03*
Y28601D02*
D03*
X65500Y33500D02*
D03*
Y28601D02*
D03*
D23*
X33165Y66516D02*
D03*
Y68484D02*
D03*
X28835D02*
D03*
Y66516D02*
D03*
D24*
X33165Y64350D02*
D03*
Y70650D02*
D03*
X28835D02*
D03*
Y64350D02*
D03*
D25*
X57551Y53000D02*
D03*
X51449D02*
D03*
X41949Y69500D02*
D03*
X48051D02*
D03*
X90051Y60500D02*
D03*
X83949D02*
D03*
X90051Y43500D02*
D03*
X83949D02*
D03*
D26*
X55366Y79500D02*
D03*
X63634D02*
D03*
D27*
X86000Y54953D02*
D03*
Y49047D02*
D03*
M02*
