G04*
G04 #@! TF.GenerationSoftware,Altium Limited,Altium Designer,25.5.2 (35)*
G04*
G04 Layer_Color=8388736*
%FSLAX25Y25*%
%MOIN*%
G70*
G04*
G04 #@! TF.SameCoordinates,B5FEB460-497D-4EFD-8A55-F2067931CFC5*
G04*
G04*
G04 #@! TF.FilePolarity,Negative*
G04*
G01*
G75*
%ADD28R,0.03661X0.03661*%
%ADD29R,0.06417X0.02677*%
%ADD30R,0.07402X0.05039*%
%ADD31R,0.02677X0.03661*%
G04:AMPARAMS|DCode=32|XSize=36.61mil|YSize=26.77mil|CornerRadius=0mil|HoleSize=0mil|Usage=FLASHONLY|Rotation=225.000|XOffset=0mil|YOffset=0mil|HoleType=Round|Shape=Rectangle|*
%AMROTATEDRECTD32*
4,1,4,0.00348,0.02241,0.02241,0.00348,-0.00348,-0.02241,-0.02241,-0.00348,0.00348,0.02241,0.0*
%
%ADD32ROTATEDRECTD32*%

%ADD33R,0.01299X0.02579*%
%ADD34R,0.02972X0.01299*%
%ADD35R,0.03661X0.02677*%
%ADD36R,0.02874X0.01299*%
%ADD37R,0.02874X0.01693*%
%ADD38R,0.03661X0.03661*%
%ADD39R,0.05039X0.05039*%
%ADD40R,0.06221X0.03465*%
%ADD41C,0.12126*%
%ADD42C,0.02677*%
%ADD43C,0.02284*%
G36*
X48455Y33260D02*
X48456Y33260D01*
X48470Y33258D01*
X48484Y33257D01*
X48486Y33257D01*
X48487Y33256D01*
X48500Y33252D01*
X48514Y33248D01*
X48515Y33247D01*
X48517Y33247D01*
X48529Y33240D01*
X48541Y33233D01*
X48542Y33232D01*
X48544Y33231D01*
X48554Y33223D01*
X48565Y33214D01*
X48566Y33212D01*
X48567Y33211D01*
X48576Y33200D01*
X48585Y33190D01*
X48586Y33188D01*
X48586Y33187D01*
X48593Y33175D01*
X48599Y33162D01*
X48600Y33161D01*
X48601Y33159D01*
X48604Y33146D01*
X48608Y33133D01*
X48608Y33131D01*
X48609Y33129D01*
X48610Y33116D01*
X48611Y33102D01*
X48611Y26898D01*
X48610Y26885D01*
X48609Y26871D01*
X48608Y26869D01*
X48608Y26867D01*
X48604Y26854D01*
X48601Y26841D01*
X48600Y26839D01*
X48599Y26838D01*
X48593Y26825D01*
X48586Y26813D01*
X48585Y26812D01*
X48585Y26810D01*
X48576Y26800D01*
X48567Y26789D01*
X48566Y26788D01*
X48565Y26786D01*
X48554Y26777D01*
X48544Y26769D01*
X48542Y26768D01*
X48541Y26767D01*
X48529Y26760D01*
X48517Y26753D01*
X48515Y26753D01*
X48514Y26752D01*
X48500Y26748D01*
X48487Y26744D01*
X48486Y26744D01*
X48484Y26743D01*
X48470Y26742D01*
X48456Y26740D01*
X48455Y26740D01*
X48453Y26740D01*
X48439Y26741D01*
X48426Y26742D01*
X48209Y26781D01*
X48198Y26784D01*
X48187Y26786D01*
X47768Y26922D01*
X47758Y26926D01*
X47748Y26930D01*
X47352Y27123D01*
X47343Y27129D01*
X47333Y27134D01*
X46968Y27381D01*
X46959Y27388D01*
X46950Y27394D01*
X46623Y27689D01*
X46616Y27697D01*
X46608Y27705D01*
X46325Y28043D01*
X46318Y28052D01*
X46312Y28060D01*
X46078Y28434D01*
X46073Y28444D01*
X46068Y28453D01*
X45889Y28856D01*
X45885Y28866D01*
X45881Y28877D01*
X45760Y29300D01*
X45758Y29311D01*
X45755Y29322D01*
X45694Y29758D01*
X45693Y29769D01*
X45692Y29780D01*
X45692Y30220D01*
X45693Y30231D01*
X45694Y30242D01*
X45755Y30678D01*
X45758Y30689D01*
X45760Y30700D01*
X45881Y31124D01*
X45885Y31134D01*
X45889Y31144D01*
X46068Y31547D01*
X46073Y31556D01*
X46078Y31566D01*
X46312Y31940D01*
X46318Y31948D01*
X46325Y31958D01*
X46608Y32295D01*
X46615Y32303D01*
X46623Y32311D01*
X46950Y32606D01*
X46959Y32612D01*
X46968Y32619D01*
X47333Y32866D01*
X47343Y32871D01*
X47352Y32877D01*
X47748Y33070D01*
X47758Y33073D01*
X47768Y33078D01*
X48187Y33214D01*
X48198Y33216D01*
X48209Y33219D01*
X48426Y33258D01*
X48439Y33259D01*
X48453Y33260D01*
X48453D01*
X48455Y33260D01*
D02*
G37*
G36*
X49561Y33259D02*
X49574Y33258D01*
X49791Y33219D01*
X49802Y33216D01*
X49813Y33214D01*
X50232Y33078D01*
X50242Y33073D01*
X50252Y33070D01*
X50648Y32877D01*
X50657Y32871D01*
X50667Y32866D01*
X51032Y32619D01*
X51041Y32612D01*
X51050Y32606D01*
X51377Y32311D01*
X51385Y32303D01*
X51392Y32295D01*
X51675Y31958D01*
X51682Y31948D01*
X51688Y31940D01*
X51922Y31566D01*
X51927Y31556D01*
X51932Y31547D01*
X52112Y31144D01*
X52115Y31134D01*
X52119Y31124D01*
X52240Y30700D01*
X52242Y30689D01*
X52245Y30678D01*
X52306Y30242D01*
X52307Y30231D01*
X52308Y30220D01*
Y29780D01*
X52307Y29769D01*
X52306Y29758D01*
X52245Y29322D01*
X52242Y29311D01*
X52240Y29300D01*
X52119Y28877D01*
X52115Y28866D01*
X52112Y28856D01*
X51932Y28453D01*
X51927Y28444D01*
X51922Y28434D01*
X51688Y28060D01*
X51682Y28052D01*
X51675Y28043D01*
X51392Y27705D01*
X51385Y27697D01*
X51377Y27689D01*
X51050Y27394D01*
X51041Y27388D01*
X51032Y27381D01*
X50667Y27134D01*
X50657Y27129D01*
X50648Y27123D01*
X50252Y26930D01*
X50242Y26926D01*
X50232Y26922D01*
X49813Y26786D01*
X49802Y26784D01*
X49791Y26781D01*
X49574Y26742D01*
X49561Y26741D01*
X49547Y26740D01*
X49547D01*
X49545Y26740D01*
X49543Y26740D01*
X49530Y26742D01*
X49516Y26743D01*
X49514Y26744D01*
X49513Y26744D01*
X49500Y26748D01*
X49486Y26752D01*
X49485Y26753D01*
X49483Y26753D01*
X49471Y26760D01*
X49459Y26767D01*
X49458Y26768D01*
X49456Y26769D01*
X49446Y26777D01*
X49435Y26786D01*
X49434Y26788D01*
X49433Y26789D01*
X49424Y26799D01*
X49415Y26810D01*
X49415Y26812D01*
X49413Y26813D01*
X49407Y26825D01*
X49401Y26838D01*
X49400Y26839D01*
X49400Y26841D01*
X49396Y26854D01*
X49392Y26867D01*
X49392Y26869D01*
X49391Y26871D01*
X49390Y26884D01*
X49389Y26898D01*
X49389Y33102D01*
X49390Y33115D01*
X49391Y33129D01*
X49392Y33131D01*
X49392Y33133D01*
X49396Y33146D01*
X49400Y33159D01*
X49400Y33161D01*
X49401Y33162D01*
X49407Y33174D01*
X49413Y33187D01*
X49415Y33188D01*
X49415Y33190D01*
X49424Y33200D01*
X49433Y33211D01*
X49434Y33212D01*
X49435Y33214D01*
X49446Y33222D01*
X49456Y33231D01*
X49458Y33232D01*
X49459Y33233D01*
X49471Y33240D01*
X49483Y33247D01*
X49485Y33247D01*
X49486Y33248D01*
X49499Y33252D01*
X49513Y33256D01*
X49514Y33257D01*
X49516Y33257D01*
X49530Y33258D01*
X49543Y33260D01*
X49545Y33260D01*
X49547Y33260D01*
X49561Y33259D01*
D02*
G37*
G36*
X39955Y53260D02*
X39957Y53260D01*
X39970Y53258D01*
X39984Y53257D01*
X39986Y53256D01*
X39987Y53256D01*
X40000Y53252D01*
X40014Y53248D01*
X40015Y53247D01*
X40017Y53247D01*
X40029Y53240D01*
X40041Y53233D01*
X40042Y53232D01*
X40044Y53231D01*
X40054Y53223D01*
X40065Y53214D01*
X40066Y53212D01*
X40067Y53211D01*
X40076Y53201D01*
X40085Y53190D01*
X40086Y53188D01*
X40086Y53187D01*
X40093Y53175D01*
X40099Y53162D01*
X40100Y53161D01*
X40100Y53159D01*
X40104Y53146D01*
X40108Y53133D01*
X40108Y53131D01*
X40109Y53129D01*
X40110Y53116D01*
X40111Y53102D01*
X40111Y46898D01*
X40110Y46885D01*
X40109Y46871D01*
X40108Y46869D01*
X40108Y46867D01*
X40104Y46854D01*
X40100Y46841D01*
X40100Y46839D01*
X40099Y46838D01*
X40093Y46826D01*
X40086Y46813D01*
X40085Y46812D01*
X40085Y46810D01*
X40076Y46800D01*
X40067Y46789D01*
X40066Y46788D01*
X40065Y46786D01*
X40054Y46777D01*
X40044Y46769D01*
X40042Y46768D01*
X40041Y46767D01*
X40029Y46760D01*
X40017Y46753D01*
X40015Y46753D01*
X40014Y46752D01*
X40001Y46748D01*
X39987Y46744D01*
X39986Y46744D01*
X39984Y46743D01*
X39970Y46742D01*
X39957Y46740D01*
X39955Y46740D01*
X39953Y46740D01*
X39939Y46741D01*
X39926Y46742D01*
X39709Y46781D01*
X39698Y46784D01*
X39687Y46786D01*
X39268Y46922D01*
X39258Y46927D01*
X39248Y46930D01*
X38852Y47124D01*
X38843Y47129D01*
X38833Y47135D01*
X38468Y47381D01*
X38459Y47388D01*
X38450Y47394D01*
X38123Y47689D01*
X38116Y47697D01*
X38108Y47705D01*
X37824Y48043D01*
X37818Y48052D01*
X37811Y48060D01*
X37578Y48434D01*
X37573Y48444D01*
X37568Y48453D01*
X37389Y48856D01*
X37385Y48866D01*
X37381Y48877D01*
X37260Y49300D01*
X37258Y49311D01*
X37255Y49321D01*
X37194Y49758D01*
X37193Y49769D01*
X37192Y49780D01*
X37192Y50220D01*
X37193Y50231D01*
X37194Y50242D01*
X37255Y50678D01*
X37258Y50689D01*
X37260Y50700D01*
X37381Y51123D01*
X37385Y51134D01*
X37389Y51144D01*
X37568Y51547D01*
X37573Y51556D01*
X37578Y51566D01*
X37811Y51940D01*
X37818Y51948D01*
X37824Y51957D01*
X38108Y52295D01*
X38116Y52303D01*
X38123Y52311D01*
X38450Y52606D01*
X38459Y52612D01*
X38468Y52619D01*
X38833Y52865D01*
X38842Y52871D01*
X38852Y52877D01*
X39248Y53070D01*
X39258Y53074D01*
X39268Y53078D01*
X39687Y53214D01*
X39698Y53216D01*
X39709Y53219D01*
X39926Y53258D01*
X39939Y53259D01*
X39953Y53260D01*
X39953D01*
X39955Y53260D01*
D02*
G37*
G36*
X41061Y53259D02*
X41074Y53258D01*
X41291Y53219D01*
X41302Y53216D01*
X41313Y53214D01*
X41732Y53078D01*
X41742Y53074D01*
X41752Y53070D01*
X42148Y52877D01*
X42157Y52871D01*
X42167Y52865D01*
X42532Y52619D01*
X42541Y52612D01*
X42550Y52606D01*
X42877Y52311D01*
X42884Y52303D01*
X42892Y52295D01*
X43176Y51957D01*
X43182Y51948D01*
X43189Y51940D01*
X43422Y51566D01*
X43427Y51556D01*
X43432Y51547D01*
X43611Y51144D01*
X43615Y51134D01*
X43619Y51123D01*
X43740Y50700D01*
X43742Y50689D01*
X43745Y50678D01*
X43806Y50242D01*
X43807Y50231D01*
X43808Y50220D01*
Y49780D01*
X43807Y49769D01*
X43806Y49758D01*
X43745Y49321D01*
X43742Y49311D01*
X43740Y49300D01*
X43619Y48877D01*
X43615Y48866D01*
X43611Y48856D01*
X43432Y48453D01*
X43427Y48444D01*
X43422Y48434D01*
X43189Y48060D01*
X43182Y48052D01*
X43176Y48043D01*
X42892Y47705D01*
X42884Y47697D01*
X42877Y47689D01*
X42550Y47394D01*
X42541Y47388D01*
X42532Y47381D01*
X42167Y47135D01*
X42158Y47129D01*
X42148Y47124D01*
X41752Y46930D01*
X41742Y46927D01*
X41732Y46922D01*
X41313Y46786D01*
X41302Y46784D01*
X41291Y46781D01*
X41074Y46742D01*
X41061Y46741D01*
X41047Y46740D01*
X41047D01*
X41045Y46740D01*
X41043Y46740D01*
X41030Y46742D01*
X41016Y46743D01*
X41014Y46744D01*
X41013Y46744D01*
X41000Y46748D01*
X40986Y46752D01*
X40985Y46753D01*
X40983Y46753D01*
X40971Y46760D01*
X40959Y46767D01*
X40958Y46768D01*
X40956Y46769D01*
X40946Y46777D01*
X40935Y46786D01*
X40934Y46788D01*
X40933Y46789D01*
X40924Y46799D01*
X40915Y46810D01*
X40914Y46812D01*
X40914Y46813D01*
X40907Y46825D01*
X40901Y46838D01*
X40900Y46839D01*
X40900Y46841D01*
X40896Y46854D01*
X40892Y46867D01*
X40892Y46869D01*
X40891Y46871D01*
X40890Y46884D01*
X40889Y46898D01*
X40889Y53102D01*
X40890Y53115D01*
X40891Y53129D01*
X40892Y53131D01*
X40892Y53133D01*
X40896Y53146D01*
X40900Y53159D01*
X40900Y53161D01*
X40901Y53162D01*
X40907Y53175D01*
X40914Y53187D01*
X40915Y53188D01*
X40915Y53190D01*
X40924Y53200D01*
X40933Y53211D01*
X40934Y53212D01*
X40935Y53214D01*
X40946Y53223D01*
X40956Y53231D01*
X40958Y53232D01*
X40959Y53233D01*
X40971Y53240D01*
X40983Y53247D01*
X40985Y53247D01*
X40986Y53248D01*
X40999Y53252D01*
X41013Y53256D01*
X41014Y53256D01*
X41016Y53257D01*
X41030Y53258D01*
X41043Y53260D01*
X41045Y53260D01*
X41047Y53260D01*
X41061Y53259D01*
D02*
G37*
D28*
X78500Y64949D02*
D03*
Y71051D02*
D03*
X72500Y64949D02*
D03*
Y71051D02*
D03*
D29*
X21386Y49213D02*
D03*
Y41339D02*
D03*
Y45276D02*
D03*
Y53150D02*
D03*
Y57087D02*
D03*
Y61024D02*
D03*
Y37402D02*
D03*
D30*
X6130Y32283D02*
D03*
Y66142D02*
D03*
D31*
X55899Y47500D02*
D03*
X51000D02*
D03*
X58000Y73000D02*
D03*
X62899D02*
D03*
D32*
X38464Y37536D02*
D03*
X35000Y41000D02*
D03*
X29000Y35000D02*
D03*
X32464Y31536D02*
D03*
D33*
X69882Y40106D02*
D03*
X71850D02*
D03*
X67913D02*
D03*
X69882Y58315D02*
D03*
X71850D02*
D03*
X73819Y40106D02*
D03*
Y58315D02*
D03*
X67913D02*
D03*
D34*
X64717Y42323D02*
D03*
X77016Y52165D02*
D03*
X77020Y48228D02*
D03*
X77016Y46260D02*
D03*
Y44291D02*
D03*
Y42323D02*
D03*
X64717Y40354D02*
D03*
Y44291D02*
D03*
Y46260D02*
D03*
Y48228D02*
D03*
Y50197D02*
D03*
Y52165D02*
D03*
Y54134D02*
D03*
Y56102D02*
D03*
X77016Y58071D02*
D03*
Y54134D02*
D03*
Y40354D02*
D03*
Y56102D02*
D03*
X64717Y58071D02*
D03*
X77020Y50197D02*
D03*
D35*
X70000Y28601D02*
D03*
Y33500D02*
D03*
X61000D02*
D03*
Y28601D02*
D03*
X65500Y33500D02*
D03*
Y28601D02*
D03*
D36*
X33165Y66516D02*
D03*
Y68484D02*
D03*
X28835D02*
D03*
Y66516D02*
D03*
D37*
X33165Y64350D02*
D03*
Y70650D02*
D03*
X28835D02*
D03*
Y64350D02*
D03*
D38*
X57551Y53000D02*
D03*
X51449D02*
D03*
X41949Y69500D02*
D03*
X48051D02*
D03*
X90051Y60500D02*
D03*
X83949D02*
D03*
X90051Y43500D02*
D03*
X83949D02*
D03*
D39*
X55366Y79500D02*
D03*
X63634D02*
D03*
D40*
X86000Y54953D02*
D03*
Y49047D02*
D03*
D41*
X15748Y15748D02*
D03*
X102362Y82677D02*
D03*
Y15748D02*
D03*
X15748Y82677D02*
D03*
D42*
X57101Y28601D02*
D03*
X80500Y28500D02*
D03*
D43*
X75455Y61500D02*
D03*
X98500Y25500D02*
D03*
X98453Y48050D02*
D03*
X50500Y59500D02*
D03*
Y64500D02*
D03*
M02*
