G04*
G04 #@! TF.GenerationSoftware,Altium Limited,Altium Designer,25.5.2 (35)*
G04*
G04 Layer_Color=16711935*
%FSLAX25Y25*%
%MOIN*%
G70*
G04*
G04 #@! TF.SameCoordinates,B5FEB460-497D-4EFD-8A55-F2067931CFC5*
G04*
G04*
G04 #@! TF.FilePolarity,Negative*
G04*
G01*
G75*
%ADD28R,0.03661X0.03661*%
%ADD29R,0.06417X0.02677*%
%ADD30R,0.07402X0.05039*%
%ADD31R,0.02677X0.03661*%
%ADD35R,0.03661X0.02677*%
%ADD38R,0.03661X0.03661*%
%ADD39R,0.05039X0.05039*%
%ADD41C,0.12126*%
%ADD42C,0.02677*%
%ADD43C,0.02284*%
%ADD55R,0.01890X0.01890*%
%ADD56R,0.01299X0.01398*%
%ADD57R,0.01398X0.01299*%
G36*
X72116Y64610D02*
X72129Y64609D01*
X72131Y64609D01*
X72133Y64608D01*
X72146Y64604D01*
X72159Y64600D01*
X72161Y64600D01*
X72162Y64599D01*
X72175Y64593D01*
X72187Y64587D01*
X72188Y64586D01*
X72190Y64585D01*
X72201Y64576D01*
X72211Y64567D01*
X72212Y64566D01*
X72214Y64565D01*
X72223Y64554D01*
X72231Y64544D01*
X72232Y64542D01*
X72233Y64541D01*
X72240Y64529D01*
X72247Y64517D01*
X72247Y64515D01*
X72248Y64514D01*
X72252Y64500D01*
X72256Y64487D01*
X72256Y64486D01*
X72257Y64484D01*
X72258Y64470D01*
X72260Y64456D01*
X72260Y64455D01*
X72260Y64453D01*
Y64453D01*
X72259Y64439D01*
X72258Y64426D01*
X72219Y64209D01*
X72216Y64198D01*
X72214Y64187D01*
X72078Y63768D01*
X72074Y63758D01*
X72070Y63748D01*
X71877Y63352D01*
X71871Y63342D01*
X71865Y63333D01*
X71619Y62968D01*
X71612Y62959D01*
X71606Y62950D01*
X71311Y62623D01*
X71303Y62616D01*
X71295Y62608D01*
X70957Y62325D01*
X70948Y62318D01*
X70940Y62312D01*
X70566Y62078D01*
X70556Y62073D01*
X70547Y62068D01*
X70144Y61888D01*
X70134Y61885D01*
X70123Y61881D01*
X69700Y61760D01*
X69689Y61758D01*
X69678Y61755D01*
X69242Y61694D01*
X69231Y61693D01*
X69220Y61692D01*
X68780Y61692D01*
X68769Y61693D01*
X68758Y61694D01*
X68322Y61755D01*
X68311Y61758D01*
X68300Y61760D01*
X67876Y61881D01*
X67866Y61885D01*
X67856Y61888D01*
X67453Y62068D01*
X67444Y62073D01*
X67434Y62078D01*
X67060Y62312D01*
X67052Y62318D01*
X67042Y62325D01*
X66705Y62608D01*
X66697Y62616D01*
X66689Y62623D01*
X66394Y62950D01*
X66388Y62959D01*
X66381Y62968D01*
X66135Y63333D01*
X66129Y63343D01*
X66123Y63352D01*
X65930Y63748D01*
X65926Y63758D01*
X65922Y63768D01*
X65786Y64187D01*
X65784Y64198D01*
X65781Y64209D01*
X65742Y64426D01*
X65741Y64439D01*
X65740Y64453D01*
X65740Y64455D01*
X65740Y64456D01*
X65742Y64470D01*
X65743Y64484D01*
X65743Y64486D01*
X65744Y64487D01*
X65748Y64500D01*
X65752Y64514D01*
X65753Y64515D01*
X65753Y64517D01*
X65760Y64529D01*
X65767Y64541D01*
X65768Y64542D01*
X65769Y64544D01*
X65777Y64554D01*
X65786Y64565D01*
X65788Y64566D01*
X65789Y64567D01*
X65800Y64576D01*
X65810Y64585D01*
X65812Y64586D01*
X65813Y64587D01*
X65825Y64593D01*
X65838Y64599D01*
X65839Y64600D01*
X65841Y64600D01*
X65854Y64604D01*
X65867Y64608D01*
X65869Y64608D01*
X65871Y64609D01*
X65885Y64610D01*
X65898Y64611D01*
X72102Y64611D01*
X72116Y64610D01*
D02*
G37*
G36*
X69231Y68307D02*
X69242Y68306D01*
X69678Y68245D01*
X69689Y68242D01*
X69700Y68240D01*
X70123Y68119D01*
X70134Y68115D01*
X70144Y68111D01*
X70547Y67932D01*
X70556Y67927D01*
X70566Y67922D01*
X70940Y67689D01*
X70948Y67682D01*
X70957Y67676D01*
X71295Y67392D01*
X71303Y67384D01*
X71311Y67377D01*
X71606Y67050D01*
X71612Y67041D01*
X71619Y67032D01*
X71865Y66667D01*
X71871Y66657D01*
X71877Y66648D01*
X72070Y66252D01*
X72074Y66242D01*
X72078Y66232D01*
X72214Y65813D01*
X72216Y65802D01*
X72219Y65791D01*
X72258Y65574D01*
X72259Y65561D01*
X72260Y65547D01*
X72260Y65545D01*
X72260Y65544D01*
X72258Y65530D01*
X72257Y65516D01*
X72256Y65514D01*
X72256Y65513D01*
X72252Y65500D01*
X72248Y65486D01*
X72247Y65485D01*
X72247Y65483D01*
X72240Y65471D01*
X72233Y65459D01*
X72232Y65458D01*
X72231Y65456D01*
X72223Y65446D01*
X72214Y65435D01*
X72212Y65434D01*
X72211Y65433D01*
X72200Y65424D01*
X72190Y65415D01*
X72188Y65415D01*
X72187Y65413D01*
X72175Y65407D01*
X72162Y65401D01*
X72161Y65400D01*
X72159Y65399D01*
X72146Y65396D01*
X72133Y65392D01*
X72131Y65392D01*
X72129Y65391D01*
X72115Y65390D01*
X72102Y65389D01*
X65898Y65389D01*
X65884Y65390D01*
X65871Y65391D01*
X65869Y65391D01*
X65867Y65392D01*
X65865Y65392D01*
X65854Y65396D01*
X65841Y65399D01*
X65839Y65400D01*
X65838Y65401D01*
X65825Y65407D01*
X65813Y65413D01*
X65812Y65415D01*
X65810Y65415D01*
X65799Y65424D01*
X65789Y65433D01*
X65788Y65434D01*
X65786Y65435D01*
X65777Y65446D01*
X65769Y65456D01*
X65768Y65458D01*
X65767Y65459D01*
X65767Y65459D01*
X65760Y65471D01*
X65753Y65483D01*
X65753Y65485D01*
X65752Y65486D01*
X65748Y65500D01*
X65744Y65513D01*
X65743Y65514D01*
X65743Y65516D01*
X65742Y65530D01*
X65740Y65544D01*
X65740Y65545D01*
X65740Y65547D01*
Y65547D01*
X65741Y65561D01*
X65742Y65574D01*
X65781Y65791D01*
X65784Y65802D01*
X65786Y65813D01*
X65922Y66232D01*
X65926Y66242D01*
X65930Y66252D01*
X66123Y66648D01*
X66129Y66658D01*
X66135Y66667D01*
X66381Y67032D01*
X66388Y67041D01*
X66394Y67050D01*
X66689Y67377D01*
X66697Y67384D01*
X66705Y67392D01*
X67042Y67676D01*
X67052Y67682D01*
X67060Y67689D01*
X67434Y67922D01*
X67444Y67927D01*
X67453Y67932D01*
X67856Y68111D01*
X67866Y68115D01*
X67876Y68119D01*
X68300Y68240D01*
X68311Y68242D01*
X68322Y68245D01*
X68758Y68306D01*
X68769Y68307D01*
X68780Y68308D01*
X69220D01*
X69231Y68307D01*
D02*
G37*
G36*
X91616Y66610D02*
X91629Y66609D01*
X91631Y66609D01*
X91633Y66608D01*
X91646Y66604D01*
X91659Y66601D01*
X91661Y66600D01*
X91662Y66599D01*
X91675Y66593D01*
X91687Y66587D01*
X91688Y66585D01*
X91690Y66585D01*
X91701Y66576D01*
X91711Y66567D01*
X91712Y66566D01*
X91714Y66565D01*
X91723Y66554D01*
X91731Y66544D01*
X91732Y66542D01*
X91733Y66541D01*
X91740Y66529D01*
X91747Y66517D01*
X91747Y66515D01*
X91748Y66514D01*
X91752Y66500D01*
X91756Y66487D01*
X91756Y66486D01*
X91757Y66484D01*
X91758Y66470D01*
X91760Y66457D01*
X91760Y66455D01*
X91760Y66453D01*
Y66453D01*
X91759Y66439D01*
X91758Y66426D01*
X91719Y66209D01*
X91716Y66198D01*
X91714Y66187D01*
X91578Y65768D01*
X91574Y65758D01*
X91570Y65748D01*
X91377Y65352D01*
X91371Y65342D01*
X91365Y65333D01*
X91119Y64968D01*
X91112Y64959D01*
X91106Y64950D01*
X90811Y64623D01*
X90803Y64615D01*
X90795Y64608D01*
X90457Y64324D01*
X90448Y64318D01*
X90440Y64311D01*
X90066Y64078D01*
X90056Y64073D01*
X90047Y64068D01*
X89644Y63889D01*
X89634Y63885D01*
X89623Y63881D01*
X89200Y63760D01*
X89189Y63758D01*
X89179Y63755D01*
X88742Y63694D01*
X88731Y63693D01*
X88720Y63692D01*
X88280Y63692D01*
X88269Y63693D01*
X88258Y63694D01*
X87822Y63755D01*
X87811Y63758D01*
X87800Y63760D01*
X87376Y63881D01*
X87366Y63885D01*
X87356Y63889D01*
X86953Y64068D01*
X86944Y64073D01*
X86934Y64078D01*
X86560Y64311D01*
X86552Y64318D01*
X86542Y64324D01*
X86205Y64608D01*
X86197Y64615D01*
X86189Y64623D01*
X85894Y64950D01*
X85888Y64959D01*
X85881Y64968D01*
X85634Y65333D01*
X85629Y65343D01*
X85624Y65352D01*
X85430Y65748D01*
X85426Y65758D01*
X85422Y65768D01*
X85286Y66187D01*
X85284Y66198D01*
X85281Y66209D01*
X85242Y66426D01*
X85241Y66439D01*
X85240Y66453D01*
X85240Y66455D01*
X85240Y66457D01*
X85242Y66470D01*
X85243Y66484D01*
X85243Y66486D01*
X85244Y66487D01*
X85248Y66501D01*
X85252Y66514D01*
X85253Y66515D01*
X85253Y66517D01*
X85260Y66529D01*
X85267Y66541D01*
X85268Y66542D01*
X85269Y66544D01*
X85277Y66554D01*
X85286Y66565D01*
X85288Y66566D01*
X85289Y66567D01*
X85300Y66576D01*
X85310Y66585D01*
X85312Y66585D01*
X85313Y66587D01*
X85325Y66593D01*
X85338Y66599D01*
X85339Y66600D01*
X85341Y66601D01*
X85354Y66604D01*
X85367Y66608D01*
X85369Y66608D01*
X85371Y66609D01*
X85385Y66610D01*
X85398Y66611D01*
X91602Y66611D01*
X91616Y66610D01*
D02*
G37*
G36*
X88731Y70307D02*
X88742Y70306D01*
X89179Y70245D01*
X89189Y70242D01*
X89200Y70240D01*
X89623Y70119D01*
X89634Y70115D01*
X89644Y70112D01*
X90047Y69932D01*
X90056Y69927D01*
X90066Y69922D01*
X90440Y69688D01*
X90448Y69682D01*
X90457Y69675D01*
X90795Y69392D01*
X90803Y69384D01*
X90811Y69377D01*
X91106Y69050D01*
X91112Y69041D01*
X91119Y69032D01*
X91365Y68667D01*
X91371Y68657D01*
X91377Y68648D01*
X91570Y68252D01*
X91574Y68242D01*
X91578Y68232D01*
X91714Y67813D01*
X91716Y67802D01*
X91719Y67791D01*
X91758Y67574D01*
X91759Y67561D01*
X91760Y67547D01*
X91760Y67545D01*
X91760Y67544D01*
X91758Y67530D01*
X91757Y67516D01*
X91756Y67514D01*
X91756Y67513D01*
X91752Y67500D01*
X91748Y67486D01*
X91747Y67485D01*
X91747Y67483D01*
X91740Y67471D01*
X91733Y67459D01*
X91732Y67458D01*
X91731Y67456D01*
X91723Y67446D01*
X91714Y67435D01*
X91712Y67434D01*
X91711Y67433D01*
X91700Y67424D01*
X91690Y67415D01*
X91688Y67414D01*
X91687Y67414D01*
X91675Y67407D01*
X91662Y67401D01*
X91661Y67400D01*
X91659Y67400D01*
X91646Y67396D01*
X91633Y67392D01*
X91631Y67392D01*
X91629Y67391D01*
X91615Y67390D01*
X91602Y67389D01*
X85398Y67389D01*
X85384Y67390D01*
X85371Y67391D01*
X85369Y67392D01*
X85367Y67392D01*
X85354Y67396D01*
X85341Y67400D01*
X85339Y67400D01*
X85338Y67401D01*
X85325Y67407D01*
X85313Y67414D01*
X85312Y67414D01*
X85310Y67415D01*
X85299Y67424D01*
X85289Y67433D01*
X85288Y67434D01*
X85286Y67435D01*
X85277Y67446D01*
X85269Y67456D01*
X85268Y67458D01*
X85267Y67459D01*
X85260Y67471D01*
X85253Y67483D01*
X85253Y67485D01*
X85252Y67486D01*
X85248Y67500D01*
X85244Y67513D01*
X85243Y67514D01*
X85243Y67516D01*
X85242Y67530D01*
X85240Y67544D01*
X85240Y67545D01*
X85240Y67547D01*
Y67547D01*
X85241Y67561D01*
X85242Y67574D01*
X85281Y67791D01*
X85284Y67802D01*
X85286Y67813D01*
X85422Y68232D01*
X85426Y68242D01*
X85430Y68252D01*
X85624Y68648D01*
X85629Y68657D01*
X85634Y68667D01*
X85881Y69032D01*
X85888Y69041D01*
X85894Y69050D01*
X86189Y69377D01*
X86197Y69384D01*
X86205Y69392D01*
X86542Y69675D01*
X86552Y69682D01*
X86560Y69688D01*
X86934Y69922D01*
X86944Y69927D01*
X86953Y69932D01*
X87356Y70112D01*
X87366Y70115D01*
X87376Y70119D01*
X87800Y70240D01*
X87811Y70242D01*
X87822Y70245D01*
X88258Y70306D01*
X88269Y70307D01*
X88280Y70308D01*
X88720D01*
X88731Y70307D01*
D02*
G37*
D28*
X76500Y47051D02*
D03*
Y40949D02*
D03*
D29*
X21386Y53150D02*
D03*
Y57087D02*
D03*
Y49213D02*
D03*
Y45276D02*
D03*
Y41339D02*
D03*
D30*
X6130Y36220D02*
D03*
Y62205D02*
D03*
D31*
X30899Y72000D02*
D03*
X26000D02*
D03*
X82399Y78500D02*
D03*
X77500D02*
D03*
X26000Y67500D02*
D03*
X30899D02*
D03*
X58500Y42000D02*
D03*
X63399D02*
D03*
X88601Y58500D02*
D03*
X93500D02*
D03*
D35*
X96000Y53000D02*
D03*
Y48101D02*
D03*
D38*
X84949Y40000D02*
D03*
X91051D02*
D03*
X58949Y78500D02*
D03*
X65051D02*
D03*
X59000Y47500D02*
D03*
X65102D02*
D03*
X59000Y54000D02*
D03*
X65102D02*
D03*
D39*
X83000Y85000D02*
D03*
X74732D02*
D03*
D41*
X15748Y15748D02*
D03*
X102362Y82677D02*
D03*
Y15748D02*
D03*
X15748Y82677D02*
D03*
D42*
X57101Y28601D02*
D03*
X80500Y28500D02*
D03*
D43*
X75455Y61500D02*
D03*
X98500Y25500D02*
D03*
X98453Y48050D02*
D03*
X50500Y59500D02*
D03*
Y64500D02*
D03*
D55*
X42520Y50787D02*
D03*
Y47638D02*
D03*
Y44488D02*
D03*
X51968D02*
D03*
Y47638D02*
D03*
Y53937D02*
D03*
X42520D02*
D03*
X51968Y50787D02*
D03*
D56*
X84646Y46213D02*
D03*
X88583Y52213D02*
D03*
X86614D02*
D03*
X84646D02*
D03*
X88583Y46213D02*
D03*
X86614D02*
D03*
D57*
X89618Y48228D02*
D03*
Y50197D02*
D03*
X83610D02*
D03*
Y48228D02*
D03*
M02*
