G04*
G04 #@! TF.GenerationSoftware,Altium Limited,Altium Designer,25.5.2 (35)*
G04*
G04 Layer_Physical_Order=2*
G04 Layer_Color=16711680*
%FSLAX25Y25*%
%MOIN*%
G70*
G04*
G04 #@! TF.SameCoordinates,0C9127BE-03E8-42DE-BC35-3FD092215F23*
G04*
G04*
G04 #@! TF.FilePolarity,Positive*
G04*
G01*
G75*
%ADD16R,0.02362X0.06102*%
%ADD17R,0.04724X0.07087*%
%ADD22R,0.03347X0.03347*%
%ADD24R,0.03347X0.03347*%
%ADD51C,0.01575*%
%ADD52C,0.00906*%
%ADD53C,0.01968*%
%ADD54C,0.01181*%
%ADD56C,0.11811*%
%ADD57C,0.01968*%
%ADD58C,0.02362*%
%ADD59R,0.00315X0.00984*%
%ADD60R,0.01968X0.01968*%
G36*
X104331Y72835D02*
X105234D01*
X107025Y72599D01*
X108770Y72131D01*
X110438Y71440D01*
X112003Y70537D01*
X113436Y69437D01*
X114713Y68160D01*
X115813Y66727D01*
X116716Y65163D01*
X117407Y63494D01*
X117875Y61749D01*
X118110Y59958D01*
Y59055D01*
X118110Y39370D01*
Y38467D01*
X117875Y36676D01*
X117407Y34931D01*
X116716Y33263D01*
X115813Y31698D01*
X114713Y30265D01*
X113436Y28988D01*
X112003Y27888D01*
X110438Y26985D01*
X108770Y26294D01*
X107025Y25826D01*
X105234Y25591D01*
X98425D01*
Y25591D01*
X97653Y25565D01*
X96121Y25364D01*
X94629Y24964D01*
X93201Y24373D01*
X91863Y23600D01*
X90638Y22659D01*
X89545Y21567D01*
X88605Y20341D01*
X87832Y19003D01*
X87241Y17576D01*
X86841Y16084D01*
X86639Y14552D01*
X86614Y13780D01*
X86614Y5324D01*
X86387Y4183D01*
X85942Y3108D01*
X85296Y2141D01*
X84473Y1318D01*
X83506Y672D01*
X82431Y227D01*
X81290Y0D01*
X36820D01*
X35679Y227D01*
X34604Y672D01*
X33637Y1318D01*
X32814Y2141D01*
X32168Y3108D01*
X31723Y4183D01*
X31496Y5324D01*
Y13780D01*
X31496D01*
X31471Y14552D01*
X31269Y16084D01*
X30869Y17576D01*
X30278Y19003D01*
X29506Y20341D01*
X28565Y21567D01*
X27473Y22659D01*
X26247Y23600D01*
X24909Y24373D01*
X23482Y24964D01*
X21989Y25364D01*
X20458Y25565D01*
X19685Y25591D01*
X12876Y25591D01*
X11085Y25826D01*
X9341Y26294D01*
X7672Y26985D01*
X6108Y27888D01*
X4675Y28988D01*
X3397Y30265D01*
X2298Y31698D01*
X1395Y33263D01*
X703Y34931D01*
X236Y36676D01*
X0Y38467D01*
Y39370D01*
Y59055D01*
Y59958D01*
X236Y61749D01*
X703Y63494D01*
X1395Y65163D01*
X2298Y66727D01*
X3397Y68160D01*
X4675Y69437D01*
X6108Y70537D01*
X7672Y71440D01*
X9341Y72131D01*
X11085Y72599D01*
X12876Y72835D01*
X13780Y72835D01*
X104331Y72835D01*
Y72835D01*
D02*
G37*
%LPC*%
G36*
X74961Y60724D02*
X70039D01*
Y60311D01*
X69399Y59671D01*
X67126Y59672D01*
Y60039D01*
X64189D01*
Y60252D01*
X62835D01*
Y59138D01*
X61575D01*
Y60252D01*
X59685D01*
Y59138D01*
X58425D01*
Y60252D01*
X56535D01*
Y59138D01*
X55276D01*
Y60252D01*
X53921D01*
Y60039D01*
X50984D01*
Y59532D01*
X49768D01*
X49284Y59436D01*
X48874Y59162D01*
X45913Y56201D01*
X45639Y55791D01*
X45543Y55307D01*
Y42693D01*
X45639Y42209D01*
X45913Y41799D01*
X51106Y36606D01*
X51516Y36332D01*
X52000Y36236D01*
X71741D01*
X72225Y36332D01*
X72635Y36606D01*
X73894Y37865D01*
X74168Y38275D01*
X74264Y38759D01*
Y40913D01*
X74168Y41397D01*
X73894Y41807D01*
X73414Y42287D01*
X73789Y43193D01*
X74224D01*
Y45236D01*
X73110D01*
Y46496D01*
X74224D01*
Y47623D01*
X77894D01*
Y46253D01*
X77728Y45852D01*
Y45148D01*
X77894Y44747D01*
Y37165D01*
X75335Y34606D01*
X39665D01*
X31072Y43199D01*
Y50165D01*
X31135Y50228D01*
X31435Y50952D01*
Y51735D01*
X31135Y52458D01*
X30581Y53012D01*
X29858Y53312D01*
X29074D01*
X28351Y53012D01*
X27797Y52458D01*
X27498Y51735D01*
Y50952D01*
X27797Y50228D01*
X27861Y50165D01*
Y42534D01*
X27860Y42534D01*
X27983Y41919D01*
X28331Y41399D01*
X37865Y31865D01*
X37865Y31865D01*
X38385Y31517D01*
X39000Y31394D01*
X39000Y31394D01*
X76000D01*
X76000Y31394D01*
X76614Y31517D01*
X77135Y31865D01*
X80635Y35365D01*
X80635Y35365D01*
X80983Y35886D01*
X81106Y36500D01*
X81106Y36500D01*
Y44747D01*
X81272Y45148D01*
Y45852D01*
X81106Y46253D01*
Y49028D01*
Y56000D01*
X80983Y56615D01*
X80635Y57135D01*
X80635Y57135D01*
X78372Y59399D01*
X77851Y59747D01*
X77236Y59869D01*
X77236Y59869D01*
X74961D01*
Y60724D01*
D02*
G37*
G36*
X103021Y55905D02*
X101703D01*
X100410Y55648D01*
X99192Y55144D01*
X98096Y54411D01*
X97163Y53479D01*
X96431Y52383D01*
X95926Y51165D01*
X95669Y49872D01*
Y48553D01*
X95926Y47260D01*
X96431Y46042D01*
X97163Y44946D01*
X98096Y44014D01*
X99192Y43281D01*
X100410Y42777D01*
X101703Y42520D01*
X103021D01*
X104314Y42777D01*
X105533Y43281D01*
X106629Y44014D01*
X107561Y44946D01*
X108293Y46042D01*
X108798Y47260D01*
X109055Y48553D01*
Y49872D01*
X108798Y51165D01*
X108293Y52383D01*
X107561Y53479D01*
X106629Y54411D01*
X105533Y55144D01*
X104314Y55648D01*
X103021Y55905D01*
D02*
G37*
G36*
X16407D02*
X15089D01*
X13796Y55648D01*
X12578Y55144D01*
X11482Y54411D01*
X10549Y53479D01*
X9817Y52383D01*
X9312Y51165D01*
X9055Y49872D01*
Y48553D01*
X9312Y47260D01*
X9817Y46042D01*
X10549Y44946D01*
X11482Y44014D01*
X12578Y43281D01*
X13796Y42777D01*
X15089Y42520D01*
X16407D01*
X17700Y42777D01*
X18918Y43281D01*
X20015Y44014D01*
X20947Y44946D01*
X21679Y46042D01*
X22184Y47260D01*
X22441Y48553D01*
Y49872D01*
X22184Y51165D01*
X21679Y52383D01*
X20947Y53479D01*
X20015Y54411D01*
X18918Y55144D01*
X17700Y55648D01*
X16407Y55905D01*
D02*
G37*
G36*
X77165Y21112D02*
X70866D01*
Y14596D01*
X70013Y14169D01*
X69289Y14469D01*
X68506D01*
X67782Y14169D01*
X67347Y13734D01*
X66968Y13635D01*
X66279Y13688D01*
X65964Y14002D01*
X65313Y14272D01*
X64608D01*
X63957Y14002D01*
X63459Y13504D01*
X62525D01*
X62027Y14002D01*
X61376Y14272D01*
X60671D01*
X60020Y14002D01*
X59522Y13504D01*
X58588D01*
X58090Y14002D01*
X57439Y14272D01*
X56734D01*
X56083Y14002D01*
X55585Y13504D01*
X54651D01*
X54153Y14002D01*
X53502Y14272D01*
X52797D01*
X52146Y14002D01*
X51648Y13504D01*
X51378Y12852D01*
Y12148D01*
X51544Y11747D01*
Y11735D01*
X51394Y10892D01*
X49843D01*
Y9778D01*
X48583D01*
Y10892D01*
X47032D01*
Y7470D01*
X48146D01*
Y6211D01*
X47032D01*
Y2789D01*
X48583D01*
Y3903D01*
X49843D01*
Y2789D01*
X51394D01*
Y3002D01*
X70866D01*
Y10679D01*
X70704D01*
Y11612D01*
X70735Y11771D01*
X70943Y12140D01*
X71703Y12451D01*
X77165D01*
Y21112D01*
D02*
G37*
G36*
X47244D02*
X40945D01*
Y12451D01*
X47244D01*
Y21112D01*
D02*
G37*
%LPD*%
G36*
X70039Y56860D02*
Y55803D01*
X74961D01*
Y56658D01*
X76571D01*
X77894Y55335D01*
Y50433D01*
X75173D01*
Y51531D01*
X74059D01*
Y52791D01*
X75173D01*
Y54835D01*
X73130D01*
Y53721D01*
X71870D01*
Y54835D01*
X69827D01*
Y52791D01*
X70941D01*
Y51531D01*
X69827D01*
Y50433D01*
X67126D01*
Y53134D01*
X67339D01*
Y54488D01*
X66224D01*
Y55748D01*
X67339D01*
Y55998D01*
X68093Y56861D01*
X70039Y56860D01*
D02*
G37*
D16*
X49213Y6841D02*
D03*
X57087D02*
D03*
X64961D02*
D03*
X68898D02*
D03*
X61024D02*
D03*
X53150D02*
D03*
D17*
X74016Y16781D02*
D03*
X44094D02*
D03*
D22*
X65449Y45866D02*
D03*
X71551D02*
D03*
D24*
X72500Y58264D02*
D03*
Y52161D02*
D03*
D51*
X79500Y45500D02*
Y49028D01*
X76000Y33000D02*
X79500Y36500D01*
X39000Y33000D02*
X76000D01*
X79500Y36500D02*
Y45500D01*
Y49028D02*
Y56000D01*
X64961Y6841D02*
Y12500D01*
X61024Y6841D02*
Y12500D01*
X57087Y6841D02*
Y12500D01*
X53150Y6841D02*
Y12500D01*
X77236Y58264D02*
X79500Y56000D01*
X73000Y58264D02*
X77236D01*
X29466Y42534D02*
X39000Y33000D01*
X29466Y42534D02*
Y51343D01*
D52*
X71689Y42224D02*
X73000Y40913D01*
X67878Y42224D02*
X71689D01*
X51894Y40000D02*
X70000D01*
X60500Y43500D02*
X61773Y44773D01*
X59375Y46125D02*
Y51649D01*
X59055Y51968D02*
X59375Y51649D01*
X55125Y43500D02*
X60500D01*
X52500Y46125D02*
X55125Y43500D01*
X61773Y44773D02*
Y46077D01*
X71741Y37500D02*
X73000Y38759D01*
Y40913D01*
X52000Y37500D02*
X71741D01*
X46807Y42693D02*
X52000Y37500D01*
X46807Y55307D02*
X49768Y58268D01*
X52756D01*
X46807Y42693D02*
Y55307D01*
X50468Y51968D02*
X52756D01*
X48500Y50000D02*
X50468Y51968D01*
X48500Y43394D02*
Y50000D01*
Y43394D02*
X51894Y40000D01*
X61773Y51537D02*
X62205Y51968D01*
X61772Y46079D02*
X61773Y46077D01*
X61772Y47921D02*
X61773Y47923D01*
Y51537D01*
X61772Y46079D02*
Y47921D01*
D53*
X68898Y6841D02*
Y12500D01*
D54*
X65402Y49028D02*
X79500D01*
X65402D02*
Y51968D01*
Y46350D02*
Y49028D01*
X72500Y58264D02*
X73000Y58264D01*
X66496Y58267D02*
X72500Y58264D01*
X65354Y58268D02*
X66496Y58267D01*
X65354Y58268D02*
X65748Y57874D01*
X65354Y58264D02*
Y58268D01*
X63996Y46953D02*
X64598Y46350D01*
X65402D01*
X63996Y46953D02*
Y47000D01*
X62205Y55810D02*
Y58268D01*
Y55810D02*
X62897Y55118D01*
X65354D01*
X55905Y55905D02*
Y58268D01*
X55000Y55000D02*
X55905Y55905D01*
X52874Y55000D02*
X55000D01*
D56*
X15748Y49213D02*
D03*
X102362D02*
D03*
D57*
X110236Y62992D02*
D03*
Y55118D02*
D03*
Y47244D02*
D03*
Y39370D02*
D03*
Y31496D02*
D03*
X102362Y62992D02*
D03*
Y39370D02*
D03*
Y31496D02*
D03*
X86614Y47244D02*
D03*
Y39370D02*
D03*
Y31496D02*
D03*
X78740Y23622D02*
D03*
Y7874D02*
D03*
X47244Y62992D02*
D03*
Y23622D02*
D03*
X39370Y39370D02*
D03*
Y23622D02*
D03*
Y15748D02*
D03*
Y7874D02*
D03*
X31496Y62992D02*
D03*
X23622D02*
D03*
Y55118D02*
D03*
Y47244D02*
D03*
Y39370D02*
D03*
X15748Y62992D02*
D03*
Y39370D02*
D03*
X7874Y62992D02*
D03*
Y55118D02*
D03*
Y47244D02*
D03*
Y39370D02*
D03*
Y31496D02*
D03*
X70000Y40000D02*
D03*
X67878Y42224D02*
D03*
X79500Y45500D02*
D03*
X59375Y46125D02*
D03*
X57087Y12500D02*
D03*
X64961D02*
D03*
X61024D02*
D03*
X53150D02*
D03*
X52500Y46125D02*
D03*
X63996Y47000D02*
D03*
X76000Y38500D02*
D03*
X42500Y49000D02*
D03*
X42000Y43500D02*
D03*
D58*
X68898Y12500D02*
D03*
X29466Y51343D02*
D03*
D59*
X66496Y57776D02*
D03*
D60*
X65354Y55118D02*
D03*
Y51968D02*
D03*
X62205D02*
D03*
X59055D02*
D03*
X55905D02*
D03*
X52756D02*
D03*
Y55118D02*
D03*
Y58268D02*
D03*
X55905D02*
D03*
X59055D02*
D03*
X62205D02*
D03*
X65354D02*
D03*
M02*
