G04*
G04 #@! TF.GenerationSoftware,Altium Limited,Altium Designer,25.5.2 (35)*
G04*
G04 Layer_Color=16711935*
%FSLAX25Y25*%
%MOIN*%
G70*
G04*
G04 #@! TF.SameCoordinates,0C9127BE-03E8-42DE-BC35-3FD092215F23*
G04*
G04*
G04 #@! TF.FilePolarity,Negative*
G04*
G01*
G75*
%ADD32R,0.02677X0.06417*%
%ADD33R,0.05039X0.07402*%
%ADD38R,0.03661X0.03661*%
%ADD40R,0.03661X0.03661*%
%ADD48C,0.12126*%
%ADD49C,0.02284*%
%ADD50C,0.02677*%
%ADD61R,0.00630X0.01299*%
%ADD62R,0.02284X0.02284*%
D32*
X49213Y6841D02*
D03*
X57087D02*
D03*
X64961D02*
D03*
X68898D02*
D03*
X61024D02*
D03*
X53150D02*
D03*
D33*
X74016Y16781D02*
D03*
X44094D02*
D03*
D38*
X65449Y45866D02*
D03*
X71551D02*
D03*
D40*
X72500Y58264D02*
D03*
Y52161D02*
D03*
D48*
X15748Y49213D02*
D03*
X102362D02*
D03*
D49*
X70000Y40000D02*
D03*
X67878Y42224D02*
D03*
X79500Y45500D02*
D03*
X59375Y46125D02*
D03*
X57087Y12500D02*
D03*
X64961D02*
D03*
X61024D02*
D03*
X53150D02*
D03*
X52500Y46125D02*
D03*
X63996Y47000D02*
D03*
D50*
X68898Y12500D02*
D03*
X29466Y51343D02*
D03*
D61*
X66496Y57776D02*
D03*
D62*
X65354Y55118D02*
D03*
Y51968D02*
D03*
X62205D02*
D03*
X59055D02*
D03*
X55905D02*
D03*
X52756D02*
D03*
Y55118D02*
D03*
Y58268D02*
D03*
X55905D02*
D03*
X59055D02*
D03*
X62205D02*
D03*
X65354D02*
D03*
M02*
