G04*
G04 #@! TF.GenerationSoftware,Altium Limited,Altium Designer,25.5.2 (35)*
G04*
G04 Layer_Color=32896*
%FSLAX25Y25*%
%MOIN*%
G70*
G04*
G04 #@! TF.SameCoordinates,0C9127BE-03E8-42DE-BC35-3FD092215F23*
G04*
G04*
G04 #@! TF.FilePolarity,Positive*
G04*
G01*
G75*
%ADD12C,0.00787*%
%ADD13C,0.00276*%
%ADD14C,0.00591*%
%ADD15C,0.00551*%
%ADD63C,0.00472*%
G36*
X35778Y55317D02*
X35895D01*
Y55278D01*
X35972D01*
Y55239D01*
X36011D01*
Y55200D01*
X36089D01*
Y55161D01*
X36128D01*
Y55122D01*
X36206D01*
Y55083D01*
X36244D01*
Y55044D01*
X36283D01*
Y55006D01*
X36361D01*
Y54967D01*
X36400D01*
Y54928D01*
X36439D01*
Y54889D01*
X36517D01*
Y54850D01*
X36556D01*
Y54811D01*
X36633D01*
Y54772D01*
X36672D01*
Y54733D01*
X36711D01*
Y54694D01*
X36789D01*
Y54656D01*
X36828D01*
Y54617D01*
X36867D01*
Y54578D01*
X36944D01*
Y54539D01*
X36983D01*
Y54500D01*
X37022D01*
Y54461D01*
X37100D01*
Y54422D01*
X37139D01*
Y54383D01*
X37217D01*
Y54344D01*
X37256D01*
Y54306D01*
X37295D01*
Y54267D01*
X37372D01*
Y54228D01*
X37411D01*
Y54189D01*
X37450D01*
Y54150D01*
X37528D01*
Y54111D01*
X37567D01*
Y54072D01*
X37606D01*
Y54033D01*
X37683D01*
Y53994D01*
X37722D01*
Y53956D01*
X37761D01*
Y53917D01*
X37839D01*
Y53878D01*
X37878D01*
Y53839D01*
X37956D01*
Y53800D01*
X37995D01*
Y53761D01*
X38033D01*
Y53722D01*
X38111D01*
Y53683D01*
X38150D01*
Y53644D01*
X38189D01*
Y53606D01*
X38267D01*
Y53567D01*
X38306D01*
Y53528D01*
X38344D01*
Y53489D01*
X38422D01*
Y53450D01*
X38461D01*
Y53411D01*
X38500D01*
Y52478D01*
X38461D01*
Y52089D01*
X38422D01*
Y52128D01*
X38344D01*
Y52167D01*
X38306D01*
Y52206D01*
X38228D01*
Y52244D01*
X38189D01*
Y52283D01*
X38111D01*
Y52322D01*
X38072D01*
Y52361D01*
X38033D01*
Y52400D01*
X37956D01*
Y52439D01*
X37917D01*
Y52478D01*
X37839D01*
Y52517D01*
X37800D01*
Y52556D01*
X37722D01*
Y52594D01*
X37683D01*
Y52633D01*
X37644D01*
Y52672D01*
X37567D01*
Y52711D01*
X37528D01*
Y52750D01*
X37450D01*
Y52789D01*
X37411D01*
Y52828D01*
X37333D01*
Y52867D01*
X37295D01*
Y52906D01*
X37217D01*
Y52944D01*
X37178D01*
Y52983D01*
X37139D01*
Y53022D01*
X37061D01*
Y53061D01*
X37022D01*
Y53100D01*
X36944D01*
Y53139D01*
X36906D01*
Y53178D01*
X36828D01*
Y53217D01*
X36789D01*
Y53256D01*
X36750D01*
Y53294D01*
X36672D01*
Y53333D01*
X36633D01*
Y53372D01*
X36556D01*
Y53411D01*
X36517D01*
Y53450D01*
X36439D01*
Y53489D01*
X36400D01*
Y53528D01*
X36322D01*
Y53567D01*
X36283D01*
Y53606D01*
X36244D01*
Y53644D01*
X36167D01*
Y53683D01*
X36128D01*
Y53722D01*
X36050D01*
Y53761D01*
X36011D01*
Y53800D01*
X35933D01*
Y53839D01*
X35895D01*
Y53878D01*
X35817D01*
Y53917D01*
X35739D01*
Y53956D01*
X35311D01*
Y53917D01*
X35195D01*
Y53878D01*
X35117D01*
Y53839D01*
X35039D01*
Y53800D01*
X34922D01*
Y53761D01*
X34844D01*
Y53722D01*
X34767D01*
Y53683D01*
X34689D01*
Y53644D01*
X34611D01*
Y53606D01*
X34495D01*
Y53567D01*
X34417D01*
Y53528D01*
X34339D01*
Y53489D01*
X34261D01*
Y53450D01*
X34183D01*
Y53411D01*
X34222D01*
Y53372D01*
X34300D01*
Y53333D01*
X34339D01*
Y53294D01*
X34417D01*
Y53256D01*
X34456D01*
Y53217D01*
X34533D01*
Y53178D01*
X34572D01*
Y53139D01*
X34611D01*
Y53100D01*
X34689D01*
Y53061D01*
X34728D01*
Y53022D01*
X34806D01*
Y52983D01*
X34844D01*
Y52944D01*
X34922D01*
Y52906D01*
X34961D01*
Y52867D01*
X35039D01*
Y52828D01*
X35078D01*
Y52789D01*
X35156D01*
Y52750D01*
X35195D01*
Y52711D01*
X35272D01*
Y52672D01*
X35311D01*
Y52633D01*
X35389D01*
Y52594D01*
X35428D01*
Y52556D01*
X35506D01*
Y52517D01*
X35544D01*
Y52478D01*
X35622D01*
Y52439D01*
X35661D01*
Y52400D01*
X35739D01*
Y52361D01*
X35778D01*
Y52322D01*
X35856D01*
Y52283D01*
X35895D01*
Y52244D01*
X35933D01*
Y52206D01*
X36011D01*
Y52167D01*
X36050D01*
Y52128D01*
X36128D01*
Y52089D01*
X36167D01*
Y52050D01*
X36244D01*
Y52011D01*
X36283D01*
Y51972D01*
X36361D01*
Y51933D01*
X36400D01*
Y51894D01*
X36478D01*
Y51856D01*
X36517D01*
Y51817D01*
X36595D01*
Y51778D01*
X36633D01*
Y51739D01*
X36711D01*
Y51700D01*
X36750D01*
Y51661D01*
X36828D01*
Y51622D01*
X36867D01*
Y51583D01*
X36944D01*
Y51544D01*
X36983D01*
Y51506D01*
X37061D01*
Y51467D01*
X37100D01*
Y51428D01*
X37139D01*
Y51389D01*
X37217D01*
Y51350D01*
X37256D01*
Y51311D01*
X37333D01*
Y51272D01*
X37372D01*
Y51233D01*
X37450D01*
Y51195D01*
X37489D01*
Y51156D01*
X37567D01*
Y51117D01*
X37606D01*
Y51078D01*
X37683D01*
Y51039D01*
X37722D01*
Y51000D01*
X37800D01*
Y50961D01*
X37839D01*
Y50922D01*
X37917D01*
Y50883D01*
X37956D01*
Y50845D01*
X38033D01*
Y50806D01*
X38072D01*
Y50767D01*
X38111D01*
Y50728D01*
X38150D01*
Y50689D01*
X38189D01*
Y50611D01*
X38228D01*
Y50533D01*
X38267D01*
Y50494D01*
Y50456D01*
Y50417D01*
X38306D01*
Y50106D01*
X38267D01*
Y49367D01*
X38306D01*
Y49328D01*
X38344D01*
Y49289D01*
X38383D01*
Y49250D01*
X38422D01*
Y49211D01*
X38461D01*
Y49172D01*
X38500D01*
Y49133D01*
X38539D01*
Y49056D01*
X38578D01*
Y48978D01*
X38617D01*
Y48900D01*
X38656D01*
Y48822D01*
X38695D01*
Y48667D01*
X38733D01*
Y48239D01*
X38695D01*
Y48083D01*
X38656D01*
Y48006D01*
X38617D01*
Y47928D01*
X38578D01*
Y47850D01*
X38539D01*
Y47811D01*
X38500D01*
Y47733D01*
X38461D01*
Y47695D01*
X38422D01*
Y47656D01*
X38383D01*
Y47617D01*
X38344D01*
Y47578D01*
X38306D01*
Y47539D01*
X38228D01*
Y47500D01*
X38189D01*
Y47461D01*
X38111D01*
Y47422D01*
X38033D01*
Y47383D01*
X37917D01*
Y47344D01*
X37722D01*
Y47306D01*
X37411D01*
Y47344D01*
X37256D01*
Y47383D01*
X37178D01*
Y47422D01*
X37061D01*
Y47461D01*
X37022D01*
Y47500D01*
X36944D01*
Y47539D01*
X36906D01*
Y47578D01*
X36828D01*
Y47617D01*
X36789D01*
Y47656D01*
X36750D01*
Y47733D01*
X36711D01*
Y47772D01*
X36672D01*
Y47811D01*
X36633D01*
Y47889D01*
X36595D01*
Y47928D01*
X36556D01*
Y48044D01*
X36517D01*
Y48161D01*
X36478D01*
Y48395D01*
X36439D01*
Y48511D01*
X36478D01*
Y48744D01*
X36517D01*
Y48861D01*
X36556D01*
Y48939D01*
X36595D01*
Y49056D01*
X36633D01*
Y49095D01*
X36672D01*
Y49133D01*
X36711D01*
Y49211D01*
X36750D01*
Y49250D01*
X36789D01*
Y49289D01*
X36828D01*
Y49328D01*
X36867D01*
Y49367D01*
X36944D01*
Y49406D01*
X37022D01*
Y49444D01*
X37061D01*
Y49483D01*
X37100D01*
Y49872D01*
X37061D01*
Y49989D01*
X37022D01*
Y50067D01*
X36983D01*
Y50106D01*
X36944D01*
Y50144D01*
X36906D01*
Y50183D01*
X36867D01*
Y50222D01*
X36789D01*
Y50261D01*
X36750D01*
Y50300D01*
X36672D01*
Y50339D01*
X36633D01*
Y50378D01*
X36595D01*
Y50417D01*
X36517D01*
Y50456D01*
X36478D01*
Y50494D01*
X36400D01*
Y50533D01*
X36361D01*
Y50572D01*
X36283D01*
Y50611D01*
X36244D01*
Y50650D01*
X36167D01*
Y50689D01*
X36128D01*
Y50728D01*
X36050D01*
Y50767D01*
X36011D01*
Y50806D01*
X35972D01*
Y50845D01*
X35895D01*
Y50883D01*
X35856D01*
Y50922D01*
X35778D01*
Y50961D01*
X35739D01*
Y51000D01*
X35661D01*
Y51039D01*
X35622D01*
Y51078D01*
X35544D01*
Y51117D01*
X35506D01*
Y51156D01*
X35428D01*
Y51195D01*
X35389D01*
Y51233D01*
X35311D01*
Y51272D01*
X35272D01*
Y51311D01*
X35233D01*
Y51350D01*
X35156D01*
Y51389D01*
X35117D01*
Y51428D01*
X35039D01*
Y51467D01*
X35000D01*
Y51506D01*
X34922D01*
Y51544D01*
X34883D01*
Y51583D01*
X34806D01*
Y51622D01*
X34767D01*
Y51661D01*
X34689D01*
Y51700D01*
X34650D01*
Y51739D01*
X34611D01*
Y51778D01*
X34533D01*
Y51817D01*
X34495D01*
Y51856D01*
X34417D01*
Y51894D01*
X34378D01*
Y51933D01*
X34300D01*
Y51972D01*
X34261D01*
Y52011D01*
X34183D01*
Y52050D01*
X34144D01*
Y52089D01*
X34067D01*
Y52128D01*
X34028D01*
Y52167D01*
X33989D01*
Y52206D01*
X33911D01*
Y52244D01*
X33872D01*
Y52283D01*
X33795D01*
Y52322D01*
X33756D01*
Y52361D01*
X33678D01*
Y52400D01*
X33639D01*
Y52439D01*
X33561D01*
Y52478D01*
X33522D01*
Y52517D01*
X33444D01*
Y52556D01*
X33406D01*
Y52594D01*
X33328D01*
Y52633D01*
X33289D01*
Y52672D01*
X33250D01*
Y52711D01*
X33172D01*
Y52750D01*
X33133D01*
Y52789D01*
X33056D01*
Y52828D01*
X33017D01*
Y52867D01*
X32939D01*
Y52906D01*
X32900D01*
Y52944D01*
X32822D01*
Y52983D01*
X32783D01*
Y53022D01*
X32706D01*
Y53061D01*
X32667D01*
Y53100D01*
X32628D01*
Y53139D01*
X32550D01*
Y53178D01*
X32511D01*
Y53217D01*
X32433D01*
Y53256D01*
X32394D01*
Y53294D01*
X32317D01*
Y53333D01*
X32278D01*
Y53372D01*
X32200D01*
Y53411D01*
X32161D01*
Y53450D01*
X32083D01*
Y53489D01*
X32045D01*
Y53528D01*
X31967D01*
Y53567D01*
X31928D01*
Y53644D01*
X32006D01*
Y53683D01*
X32083D01*
Y53722D01*
X32161D01*
Y53761D01*
X32239D01*
Y53800D01*
X32317D01*
Y53839D01*
X32394D01*
Y53878D01*
X32472D01*
Y53917D01*
X32511D01*
Y53956D01*
X32589D01*
Y53994D01*
X32667D01*
Y54033D01*
X32745D01*
Y54072D01*
X32822D01*
Y54111D01*
X32900D01*
Y54150D01*
X32978D01*
Y54189D01*
X33056D01*
Y54228D01*
X33133D01*
Y54267D01*
X33211D01*
Y54306D01*
X33289D01*
Y54344D01*
X33367D01*
Y54383D01*
X33444D01*
Y54422D01*
X33522D01*
Y54461D01*
X33600D01*
Y54500D01*
X33678D01*
Y54539D01*
X33756D01*
Y54578D01*
X33833D01*
Y54617D01*
X33911D01*
Y54656D01*
X33989D01*
Y54694D01*
X34067D01*
Y54733D01*
X34144D01*
Y54772D01*
X34222D01*
Y54811D01*
X34300D01*
Y54850D01*
X34378D01*
Y54889D01*
X34456D01*
Y54928D01*
X34533D01*
Y54967D01*
X34611D01*
Y55006D01*
X34689D01*
Y55044D01*
X34767D01*
Y55083D01*
X34844D01*
Y55122D01*
X34922D01*
Y55161D01*
X35000D01*
Y55200D01*
X35078D01*
Y55239D01*
X35156D01*
Y55278D01*
X35233D01*
Y55317D01*
X35350D01*
Y55356D01*
X35778D01*
Y55317D01*
D02*
G37*
G36*
X31072Y52400D02*
X31150D01*
Y52361D01*
X31228D01*
Y52322D01*
X31306D01*
Y52283D01*
X31345D01*
Y52244D01*
X31422D01*
Y52206D01*
X31500D01*
Y52167D01*
X31578D01*
Y52128D01*
X31656D01*
Y52089D01*
X31694D01*
Y52050D01*
X31772D01*
Y52011D01*
X31850D01*
Y51972D01*
X31928D01*
Y51933D01*
X31967D01*
Y51894D01*
X32045D01*
Y51856D01*
X32122D01*
Y51817D01*
X32161D01*
Y51778D01*
X32122D01*
Y51739D01*
X32045D01*
Y51700D01*
X31967D01*
Y51661D01*
X31889D01*
Y51622D01*
X31850D01*
Y51583D01*
X31772D01*
Y51544D01*
X31694D01*
Y51506D01*
X31617D01*
Y51467D01*
X31539D01*
Y51428D01*
X31461D01*
Y51389D01*
X31383D01*
Y51350D01*
X31306D01*
Y51311D01*
X31228D01*
Y51272D01*
X31150D01*
Y51233D01*
X31072D01*
Y51195D01*
X30994D01*
Y51156D01*
X30917D01*
Y51117D01*
X30839D01*
Y51078D01*
X30761D01*
Y51039D01*
X30683D01*
Y51000D01*
X30606D01*
Y50961D01*
X30528D01*
Y50922D01*
X30450D01*
Y50883D01*
X30372D01*
Y50845D01*
X30294D01*
Y50806D01*
X30217D01*
Y50767D01*
X30139D01*
Y50728D01*
X30061D01*
Y50689D01*
X29983D01*
Y50650D01*
X29906D01*
Y50611D01*
X29828D01*
Y50572D01*
X29750D01*
Y50533D01*
X29672D01*
Y50494D01*
X29594D01*
Y50456D01*
X29517D01*
Y50417D01*
X29439D01*
Y50378D01*
X29400D01*
Y50339D01*
X29322D01*
Y50300D01*
X29283D01*
Y50261D01*
X29245D01*
Y50222D01*
X29206D01*
Y50183D01*
X29167D01*
Y50144D01*
X29128D01*
Y50067D01*
X29089D01*
Y49989D01*
X29050D01*
Y49678D01*
X29011D01*
Y49095D01*
X28972D01*
Y48667D01*
X29011D01*
Y48706D01*
X29089D01*
Y48744D01*
X29167D01*
Y48783D01*
X29245D01*
Y48822D01*
X29322D01*
Y48861D01*
X29400D01*
Y48900D01*
X29478D01*
Y48939D01*
X29556D01*
Y48978D01*
X29633D01*
Y49017D01*
X29711D01*
Y49056D01*
X29789D01*
Y49095D01*
X29828D01*
Y49133D01*
X29906D01*
Y49172D01*
X29983D01*
Y49211D01*
X30061D01*
Y49250D01*
X30139D01*
Y49289D01*
X30217D01*
Y49328D01*
X30294D01*
Y49367D01*
X30372D01*
Y49406D01*
X30450D01*
Y49444D01*
X30528D01*
Y49483D01*
X30606D01*
Y49522D01*
X30645D01*
Y49561D01*
X30722D01*
Y49600D01*
X30800D01*
Y49639D01*
X30878D01*
Y49678D01*
X30956D01*
Y49717D01*
X31033D01*
Y49756D01*
X31111D01*
Y49795D01*
X31189D01*
Y49833D01*
X31267D01*
Y49872D01*
X31345D01*
Y49911D01*
X31422D01*
Y49950D01*
X31461D01*
Y49989D01*
X31539D01*
Y50028D01*
X31617D01*
Y50067D01*
X31694D01*
Y50106D01*
X31772D01*
Y50144D01*
X31850D01*
Y50183D01*
X31928D01*
Y50222D01*
X32006D01*
Y50261D01*
X32083D01*
Y50300D01*
X32161D01*
Y50339D01*
X32239D01*
Y50378D01*
X32278D01*
Y50417D01*
X32356D01*
Y50456D01*
X32433D01*
Y50494D01*
X32511D01*
Y50533D01*
X32589D01*
Y50572D01*
X32667D01*
Y50611D01*
X32745D01*
Y50650D01*
X32822D01*
Y50689D01*
X32900D01*
Y50728D01*
X32978D01*
Y50767D01*
X33056D01*
Y50806D01*
X33133D01*
Y50845D01*
X33211D01*
Y50883D01*
X33522D01*
Y50845D01*
X33600D01*
Y50806D01*
X33678D01*
Y50767D01*
X33756D01*
Y50728D01*
X33833D01*
Y50689D01*
X33872D01*
Y50650D01*
X33950D01*
Y50611D01*
X34028D01*
Y50572D01*
X34067D01*
Y50533D01*
X34144D01*
Y50494D01*
X34222D01*
Y50456D01*
X34261D01*
Y50417D01*
X34339D01*
Y50378D01*
X34417D01*
Y50339D01*
X34495D01*
Y50378D01*
X34611D01*
Y50417D01*
X34767D01*
Y50456D01*
X35117D01*
Y50417D01*
X35311D01*
Y50378D01*
X35428D01*
Y50339D01*
X35506D01*
Y50300D01*
X35544D01*
Y50261D01*
X35622D01*
Y50222D01*
X35661D01*
Y50183D01*
X35700D01*
Y50144D01*
X35739D01*
Y50106D01*
X35817D01*
Y50028D01*
X35856D01*
Y49989D01*
X35895D01*
Y49950D01*
X35933D01*
Y49872D01*
X35972D01*
Y49795D01*
X36011D01*
Y49717D01*
X36050D01*
Y49561D01*
X36089D01*
Y49017D01*
X36050D01*
Y48900D01*
X36011D01*
Y48822D01*
X35972D01*
Y48744D01*
X35933D01*
Y48706D01*
X35895D01*
Y48628D01*
X35856D01*
Y48589D01*
X35817D01*
Y48550D01*
X35778D01*
Y48511D01*
X35739D01*
Y48472D01*
X35700D01*
Y48433D01*
X35661D01*
Y48395D01*
X35622D01*
Y48356D01*
X35544D01*
Y48317D01*
X35467D01*
Y48278D01*
X35389D01*
Y48239D01*
X35272D01*
Y48200D01*
X35117D01*
Y48161D01*
X34806D01*
Y48200D01*
X34650D01*
Y48239D01*
X34533D01*
Y48278D01*
X34456D01*
Y48317D01*
X34378D01*
Y48356D01*
X34300D01*
Y48395D01*
X34261D01*
Y48433D01*
X34222D01*
Y48472D01*
X34183D01*
Y48511D01*
X34144D01*
Y48550D01*
X34106D01*
Y48589D01*
X34067D01*
Y48628D01*
X34028D01*
Y48706D01*
X33989D01*
Y48744D01*
X33950D01*
Y48822D01*
X33911D01*
Y48900D01*
X33872D01*
Y49056D01*
X33833D01*
Y49367D01*
X33756D01*
Y49406D01*
X33678D01*
Y49444D01*
X33639D01*
Y49483D01*
X33522D01*
Y49522D01*
X33367D01*
Y49561D01*
X33289D01*
Y49522D01*
X33094D01*
Y49483D01*
X33017D01*
Y49444D01*
X32939D01*
Y49406D01*
X32861D01*
Y49367D01*
X32783D01*
Y49328D01*
X32706D01*
Y49289D01*
X32667D01*
Y49250D01*
X32589D01*
Y49211D01*
X32511D01*
Y49172D01*
X32433D01*
Y49133D01*
X32356D01*
Y49095D01*
X32278D01*
Y49056D01*
X32200D01*
Y49017D01*
X32122D01*
Y48978D01*
X32045D01*
Y48939D01*
X31967D01*
Y48900D01*
X31889D01*
Y48861D01*
X31811D01*
Y48822D01*
X31733D01*
Y48783D01*
X31656D01*
Y48744D01*
X31578D01*
Y48706D01*
X31500D01*
Y48667D01*
X31461D01*
Y48628D01*
X31383D01*
Y48589D01*
X31306D01*
Y48550D01*
X31228D01*
Y48511D01*
X31150D01*
Y48472D01*
X31072D01*
Y48433D01*
X30994D01*
Y48395D01*
X30917D01*
Y48356D01*
X30839D01*
Y48317D01*
X30761D01*
Y48278D01*
X30683D01*
Y48239D01*
X30606D01*
Y48200D01*
X30528D01*
Y48161D01*
X30450D01*
Y48122D01*
X30372D01*
Y48083D01*
X30294D01*
Y48044D01*
X30256D01*
Y48006D01*
X30178D01*
Y47967D01*
X30100D01*
Y47928D01*
X30022D01*
Y47889D01*
X29945D01*
Y47850D01*
X29867D01*
Y47811D01*
X29789D01*
Y47772D01*
X29711D01*
Y47733D01*
X29633D01*
Y47695D01*
X29556D01*
Y47656D01*
X29478D01*
Y47617D01*
X29400D01*
Y47578D01*
X29322D01*
Y47539D01*
X29245D01*
Y47500D01*
X29167D01*
Y47461D01*
X29089D01*
Y47422D01*
X29050D01*
Y47383D01*
X28972D01*
Y47344D01*
X28894D01*
Y47306D01*
X28817D01*
Y47267D01*
X28739D01*
Y47228D01*
X28661D01*
Y47189D01*
X28583D01*
Y47150D01*
X28506D01*
Y47111D01*
X28428D01*
Y47072D01*
X28350D01*
Y47033D01*
X28272D01*
Y46995D01*
X28194D01*
Y46956D01*
X28117D01*
Y46917D01*
X28039D01*
Y46878D01*
X27961D01*
Y46839D01*
X27883D01*
Y46800D01*
X27845D01*
Y46761D01*
X27728D01*
Y47850D01*
X27767D01*
Y49367D01*
X27806D01*
Y50494D01*
X27845D01*
Y50650D01*
X27883D01*
Y50767D01*
X27922D01*
Y50806D01*
X27961D01*
Y50883D01*
X28000D01*
Y50922D01*
X28039D01*
Y50961D01*
X28078D01*
Y51000D01*
X28117D01*
Y51039D01*
X28156D01*
Y51078D01*
X28233D01*
Y51117D01*
X28272D01*
Y51156D01*
X28350D01*
Y51195D01*
X28428D01*
Y51233D01*
X28506D01*
Y51272D01*
X28583D01*
Y51311D01*
X28661D01*
Y51350D01*
X28739D01*
Y51389D01*
X28817D01*
Y51428D01*
X28933D01*
Y51467D01*
X29011D01*
Y51506D01*
X29089D01*
Y51544D01*
X29167D01*
Y51583D01*
X29245D01*
Y51622D01*
X29322D01*
Y51661D01*
X29400D01*
Y51700D01*
X29478D01*
Y51739D01*
X29556D01*
Y51778D01*
X29633D01*
Y51817D01*
X29750D01*
Y51856D01*
X29828D01*
Y51894D01*
X29906D01*
Y51933D01*
X29983D01*
Y51972D01*
X30061D01*
Y52011D01*
X30139D01*
Y52050D01*
X30217D01*
Y52089D01*
X30294D01*
Y52128D01*
X30372D01*
Y52167D01*
X30489D01*
Y52206D01*
X30567D01*
Y52244D01*
X30645D01*
Y52283D01*
X30722D01*
Y52322D01*
X30800D01*
Y52361D01*
X30878D01*
Y52400D01*
X30956D01*
Y52439D01*
X31072D01*
Y52400D01*
D02*
G37*
G36*
X39356Y53567D02*
X39433D01*
Y53528D01*
X39511D01*
Y53489D01*
X39589D01*
Y53450D01*
X39667D01*
Y53411D01*
X39744D01*
Y53372D01*
X39822D01*
Y53333D01*
X39861D01*
Y53294D01*
X39939D01*
Y53256D01*
X40017D01*
Y53217D01*
X40095D01*
Y53178D01*
X40172D01*
Y53139D01*
X40250D01*
Y53100D01*
X40328D01*
Y53061D01*
X40367D01*
Y53022D01*
X40444D01*
Y52983D01*
X40522D01*
Y52944D01*
X40600D01*
Y52906D01*
X40678D01*
Y52867D01*
X40756D01*
Y52828D01*
X40833D01*
Y52789D01*
X40872D01*
Y52750D01*
X40950D01*
Y52711D01*
X41028D01*
Y52672D01*
X41106D01*
Y52633D01*
X41183D01*
Y52594D01*
X41261D01*
Y52556D01*
X41339D01*
Y52517D01*
X41378D01*
Y52478D01*
X41456D01*
Y52439D01*
X41533D01*
Y52400D01*
X41611D01*
Y52361D01*
X41689D01*
Y52322D01*
X41767D01*
Y52283D01*
X41844D01*
Y52244D01*
X41883D01*
Y52206D01*
X41961D01*
Y52167D01*
X42039D01*
Y52128D01*
X42117D01*
Y52089D01*
X42195D01*
Y52050D01*
X42272D01*
Y52011D01*
X42350D01*
Y51972D01*
X42428D01*
Y51933D01*
X42467D01*
Y51894D01*
X42544D01*
Y51856D01*
X42583D01*
Y51817D01*
X42661D01*
Y51778D01*
X42700D01*
Y51739D01*
X42739D01*
Y51700D01*
X42778D01*
Y51661D01*
X42817D01*
Y51583D01*
X42856D01*
Y51544D01*
X42895D01*
Y51467D01*
X42933D01*
Y51350D01*
X42972D01*
Y49989D01*
X42933D01*
Y48317D01*
X42895D01*
Y48083D01*
X42856D01*
Y48044D01*
X42817D01*
Y48006D01*
X42739D01*
Y47967D01*
X42700D01*
Y47928D01*
X42622D01*
Y47889D01*
X42583D01*
Y47850D01*
X42506D01*
Y47811D01*
X42467D01*
Y47772D01*
X42389D01*
Y47733D01*
X42350D01*
Y47695D01*
X42272D01*
Y47656D01*
X42233D01*
Y47617D01*
X42156D01*
Y47578D01*
X42117D01*
Y47539D01*
X42039D01*
Y47500D01*
X42000D01*
Y47461D01*
X41922D01*
Y47422D01*
X41883D01*
Y47383D01*
X41767D01*
Y50689D01*
X41728D01*
Y50806D01*
X41689D01*
Y50845D01*
X41650D01*
Y50922D01*
X41611D01*
Y50961D01*
X41572D01*
Y51000D01*
X41495D01*
Y51039D01*
X41456D01*
Y51078D01*
X41378D01*
Y51117D01*
X41339D01*
Y51156D01*
X41261D01*
Y51195D01*
X41183D01*
Y51233D01*
X41144D01*
Y51272D01*
X41067D01*
Y51311D01*
X40989D01*
Y51350D01*
X40950D01*
Y51389D01*
X40872D01*
Y51428D01*
X40795D01*
Y51467D01*
X40717D01*
Y51506D01*
X40678D01*
Y51544D01*
X40600D01*
Y51583D01*
X40522D01*
Y51622D01*
X40483D01*
Y51661D01*
X40444D01*
Y50689D01*
X40483D01*
Y48589D01*
Y48550D01*
Y48083D01*
X40522D01*
Y46839D01*
X40483D01*
Y46722D01*
X40444D01*
Y46683D01*
X40406D01*
Y46606D01*
X40367D01*
Y46567D01*
X40328D01*
Y46528D01*
X40289D01*
Y46489D01*
X40211D01*
Y46450D01*
X40172D01*
Y46411D01*
X40095D01*
Y46372D01*
X40056D01*
Y46333D01*
X39978D01*
Y46295D01*
X39900D01*
Y46256D01*
X39861D01*
Y46217D01*
X39783D01*
Y46178D01*
X39744D01*
Y46139D01*
X39667D01*
Y46100D01*
X39628D01*
Y46061D01*
X39550D01*
Y46022D01*
X39472D01*
Y45789D01*
X39433D01*
Y45633D01*
X39395D01*
Y45517D01*
X39356D01*
Y45439D01*
X39317D01*
Y45400D01*
X39278D01*
Y45322D01*
X39239D01*
Y45283D01*
X39200D01*
Y45245D01*
X39161D01*
Y45206D01*
X39122D01*
Y45167D01*
X39083D01*
Y45128D01*
X39044D01*
Y45089D01*
X39006D01*
Y45050D01*
X38928D01*
Y45011D01*
X38889D01*
Y44972D01*
X38772D01*
Y44933D01*
X38695D01*
Y44894D01*
X38539D01*
Y44856D01*
X38150D01*
Y44894D01*
X37956D01*
Y44933D01*
X37878D01*
Y44972D01*
X37800D01*
Y45011D01*
X37722D01*
Y45050D01*
X37683D01*
Y45089D01*
X37606D01*
Y45128D01*
X37567D01*
Y45167D01*
X37528D01*
Y45206D01*
X37489D01*
Y45245D01*
X37450D01*
Y45283D01*
X37411D01*
Y45361D01*
X37372D01*
Y45439D01*
X37333D01*
Y45478D01*
X37295D01*
Y45594D01*
X37256D01*
Y45672D01*
X37217D01*
Y45867D01*
X37178D01*
Y46100D01*
X37217D01*
Y46295D01*
X37256D01*
Y46411D01*
X37295D01*
Y46489D01*
X37333D01*
Y46567D01*
X37372D01*
Y46644D01*
X37411D01*
Y46683D01*
X37450D01*
Y46761D01*
X37489D01*
Y46800D01*
X37567D01*
Y46839D01*
X37606D01*
Y46878D01*
X37644D01*
Y46917D01*
X37683D01*
Y46956D01*
X37761D01*
Y46995D01*
X37800D01*
Y47033D01*
X37917D01*
Y47072D01*
X37995D01*
Y47111D01*
X38189D01*
Y47150D01*
X38461D01*
Y47111D01*
X38656D01*
Y47072D01*
X38733D01*
Y47033D01*
X38850D01*
Y46995D01*
X38928D01*
Y47033D01*
X38967D01*
Y47072D01*
X39044D01*
Y47111D01*
X39083D01*
Y47150D01*
X39122D01*
Y47189D01*
X39161D01*
Y47228D01*
X39200D01*
Y47267D01*
X39239D01*
Y47306D01*
X39278D01*
Y47383D01*
X39317D01*
Y47539D01*
X39356D01*
Y48122D01*
X39317D01*
Y52322D01*
X39278D01*
Y53606D01*
X39356D01*
Y53567D01*
D02*
G37*
G36*
X32978Y48356D02*
X33250D01*
Y48317D01*
X33406D01*
Y48278D01*
X33483D01*
Y48239D01*
X33561D01*
Y48200D01*
X33600D01*
Y48161D01*
X33678D01*
Y48122D01*
X33717D01*
Y48083D01*
X33756D01*
Y48044D01*
X33795D01*
Y48006D01*
X33833D01*
Y47967D01*
X33872D01*
Y47928D01*
X33911D01*
Y47850D01*
X33950D01*
Y47811D01*
X33989D01*
Y47733D01*
X34028D01*
Y47617D01*
X34067D01*
Y47500D01*
X34106D01*
Y46956D01*
X34067D01*
Y46839D01*
X34028D01*
Y46761D01*
X33989D01*
Y46683D01*
X33950D01*
Y46606D01*
X33911D01*
Y46567D01*
X33872D01*
Y46489D01*
X33833D01*
Y46450D01*
X33795D01*
Y46411D01*
X33756D01*
Y46372D01*
X33717D01*
Y46333D01*
X33639D01*
Y46295D01*
X33600D01*
Y46256D01*
X33522D01*
Y46217D01*
X33444D01*
Y46178D01*
X33367D01*
Y46139D01*
X33211D01*
Y46100D01*
X32745D01*
Y46139D01*
X32589D01*
Y46178D01*
X32511D01*
Y46217D01*
X32433D01*
Y46256D01*
X32394D01*
Y46217D01*
X32317D01*
Y46178D01*
X32239D01*
Y46139D01*
X32200D01*
Y46100D01*
X32122D01*
Y46061D01*
X32083D01*
Y46022D01*
X32045D01*
Y45944D01*
X32006D01*
Y45906D01*
X31967D01*
Y45789D01*
X31928D01*
Y45011D01*
X31889D01*
Y43261D01*
X31850D01*
Y41511D01*
X31811D01*
Y39761D01*
X31772D01*
Y39645D01*
X31733D01*
Y39683D01*
X31656D01*
Y39722D01*
X31617D01*
Y39761D01*
X31539D01*
Y39800D01*
X31461D01*
Y39839D01*
X31383D01*
Y39878D01*
X31345D01*
Y39917D01*
X31267D01*
Y39956D01*
X31189D01*
Y39994D01*
X31111D01*
Y40033D01*
X31072D01*
Y40072D01*
X30994D01*
Y40111D01*
X30917D01*
Y40150D01*
X30878D01*
Y40189D01*
X30800D01*
Y40228D01*
X30722D01*
Y40267D01*
X30645D01*
Y40306D01*
X30606D01*
Y40345D01*
X30528D01*
Y40383D01*
X30450D01*
Y40422D01*
X30372D01*
Y40461D01*
X30333D01*
Y40500D01*
X30256D01*
Y40539D01*
X30178D01*
Y40578D01*
X30139D01*
Y40617D01*
X30061D01*
Y40656D01*
X29983D01*
Y40694D01*
X29906D01*
Y40733D01*
X29867D01*
Y40772D01*
X29789D01*
Y40811D01*
X29711D01*
Y40850D01*
X29633D01*
Y40889D01*
X29594D01*
Y40928D01*
X29517D01*
Y40967D01*
X29439D01*
Y41006D01*
X29400D01*
Y41045D01*
X29322D01*
Y41083D01*
X29245D01*
Y41122D01*
X29167D01*
Y41161D01*
X29128D01*
Y41200D01*
X29050D01*
Y41239D01*
X28972D01*
Y41278D01*
X28894D01*
Y41317D01*
X28856D01*
Y41356D01*
X28778D01*
Y41394D01*
X28700D01*
Y41433D01*
X28661D01*
Y41472D01*
X28583D01*
Y41511D01*
X28545D01*
Y41550D01*
X28467D01*
Y41589D01*
X28428D01*
Y41628D01*
X28389D01*
Y41706D01*
X28350D01*
Y41745D01*
X28311D01*
Y41783D01*
X28272D01*
Y41861D01*
X28233D01*
Y41978D01*
X28194D01*
Y42950D01*
X28233D01*
Y43650D01*
X28272D01*
Y44350D01*
X28311D01*
Y45050D01*
X28350D01*
Y45283D01*
X28389D01*
Y45322D01*
X28428D01*
Y45361D01*
X28506D01*
Y45400D01*
X28583D01*
Y45439D01*
X28622D01*
Y45478D01*
X28700D01*
Y45517D01*
X28739D01*
Y45556D01*
X28817D01*
Y45594D01*
X28894D01*
Y45633D01*
X28933D01*
Y45672D01*
X29011D01*
Y45711D01*
X29050D01*
Y45750D01*
X29128D01*
Y45789D01*
X29206D01*
Y45828D01*
X29245D01*
Y45867D01*
X29322D01*
Y45906D01*
X29361D01*
Y45944D01*
X29439D01*
Y45983D01*
X29478D01*
Y45011D01*
X29439D01*
Y43728D01*
X29400D01*
Y42639D01*
X29439D01*
Y42561D01*
X29478D01*
Y42483D01*
X29517D01*
Y42406D01*
X29556D01*
Y42367D01*
X29594D01*
Y42328D01*
X29672D01*
Y42289D01*
X29711D01*
Y42250D01*
X29750D01*
Y42211D01*
X29828D01*
Y42172D01*
X29906D01*
Y42133D01*
X29945D01*
Y42094D01*
X30022D01*
Y42056D01*
X30061D01*
Y42017D01*
X30139D01*
Y41978D01*
X30178D01*
Y41939D01*
X30256D01*
Y41900D01*
X30333D01*
Y41861D01*
X30372D01*
Y41822D01*
X30450D01*
Y41783D01*
X30489D01*
Y41745D01*
X30567D01*
Y41706D01*
X30606D01*
Y41667D01*
X30683D01*
Y42483D01*
X30722D01*
Y44856D01*
X30761D01*
Y46411D01*
X30800D01*
Y46528D01*
X30839D01*
Y46606D01*
X30878D01*
Y46644D01*
X30917D01*
Y46722D01*
X30956D01*
Y46761D01*
X31033D01*
Y46800D01*
X31072D01*
Y46839D01*
X31150D01*
Y46878D01*
X31228D01*
Y46917D01*
X31267D01*
Y46956D01*
X31345D01*
Y46995D01*
X31422D01*
Y47033D01*
X31461D01*
Y47072D01*
X31539D01*
Y47111D01*
X31617D01*
Y47150D01*
X31656D01*
Y47189D01*
X31733D01*
Y47228D01*
X31811D01*
Y47267D01*
X31850D01*
Y47461D01*
X31889D01*
Y47617D01*
X31928D01*
Y47695D01*
X31967D01*
Y47772D01*
X32006D01*
Y47850D01*
X32045D01*
Y47889D01*
X32083D01*
Y47967D01*
X32122D01*
Y48006D01*
X32161D01*
Y48044D01*
X32200D01*
Y48083D01*
X32239D01*
Y48122D01*
X32278D01*
Y48161D01*
X32356D01*
Y48200D01*
X32433D01*
Y48239D01*
X32472D01*
Y48278D01*
X32589D01*
Y48317D01*
X32706D01*
Y48356D01*
X32900D01*
Y48395D01*
X32978D01*
Y48356D01*
D02*
G37*
G36*
X43633Y42911D02*
X43595D01*
Y42794D01*
X43556D01*
Y42717D01*
X43517D01*
Y42639D01*
X43478D01*
Y42600D01*
X43439D01*
Y42561D01*
X43400D01*
Y42522D01*
X43361D01*
Y42483D01*
X43322D01*
Y42445D01*
X43283D01*
Y42406D01*
X43206D01*
Y42367D01*
X43167D01*
Y42328D01*
X43089D01*
Y42289D01*
X43011D01*
Y42250D01*
X42933D01*
Y42211D01*
X42856D01*
Y42172D01*
X42778D01*
Y42133D01*
X42700D01*
Y42094D01*
X42622D01*
Y42056D01*
X42544D01*
Y42017D01*
X42467D01*
Y41978D01*
X42389D01*
Y41939D01*
X42311D01*
Y41900D01*
X42233D01*
Y41861D01*
X42156D01*
Y41822D01*
X42078D01*
Y41783D01*
X42000D01*
Y41745D01*
X41922D01*
Y41706D01*
X41844D01*
Y41667D01*
X41767D01*
Y41628D01*
X41689D01*
Y41589D01*
X41611D01*
Y41550D01*
X41533D01*
Y41511D01*
X41456D01*
Y41472D01*
X41378D01*
Y41433D01*
X41300D01*
Y41394D01*
X41222D01*
Y41356D01*
X41144D01*
Y41317D01*
X41106D01*
Y41278D01*
X41028D01*
Y41239D01*
X40950D01*
Y41200D01*
X40872D01*
Y41161D01*
X40795D01*
Y41122D01*
X40717D01*
Y41083D01*
X40639D01*
Y41045D01*
X40561D01*
Y41006D01*
X40444D01*
Y41045D01*
X40367D01*
Y41083D01*
X40289D01*
Y41122D01*
X40211D01*
Y41161D01*
X40133D01*
Y41200D01*
X40056D01*
Y41239D01*
X39978D01*
Y41278D01*
X39900D01*
Y41317D01*
X39822D01*
Y41356D01*
X39783D01*
Y41394D01*
X39706D01*
Y41433D01*
X39628D01*
Y41472D01*
X39550D01*
Y41511D01*
X39472D01*
Y41550D01*
X39395D01*
Y41589D01*
X39317D01*
Y41628D01*
X39356D01*
Y41667D01*
X39433D01*
Y41706D01*
X39472D01*
Y41745D01*
X39550D01*
Y41783D01*
X39628D01*
Y41822D01*
X39706D01*
Y41861D01*
X39783D01*
Y41900D01*
X39861D01*
Y41939D01*
X39939D01*
Y41978D01*
X39978D01*
Y42017D01*
X40056D01*
Y42056D01*
X40133D01*
Y42094D01*
X40211D01*
Y42133D01*
X40289D01*
Y42172D01*
X40367D01*
Y42211D01*
X40406D01*
Y42250D01*
X40483D01*
Y42289D01*
X40561D01*
Y42328D01*
X40639D01*
Y42367D01*
X40717D01*
Y42406D01*
X40795D01*
Y42445D01*
X40872D01*
Y42483D01*
X40911D01*
Y42522D01*
X40989D01*
Y42561D01*
X41067D01*
Y42600D01*
X41144D01*
Y42639D01*
X41222D01*
Y42678D01*
X41300D01*
Y42717D01*
X41378D01*
Y42756D01*
X41417D01*
Y42794D01*
X41495D01*
Y42833D01*
X41572D01*
Y42872D01*
X41650D01*
Y42911D01*
X41728D01*
Y42950D01*
X41806D01*
Y42989D01*
X41844D01*
Y43028D01*
X41922D01*
Y43067D01*
X42000D01*
Y43106D01*
X42078D01*
Y43145D01*
X42117D01*
Y43183D01*
X42195D01*
Y43222D01*
X42233D01*
Y43261D01*
X42272D01*
Y43339D01*
X42311D01*
Y43378D01*
X42350D01*
Y43494D01*
X42389D01*
Y43689D01*
X42428D01*
Y44661D01*
X42467D01*
Y44856D01*
X42428D01*
Y44817D01*
X42350D01*
Y44778D01*
X42311D01*
Y44739D01*
X42233D01*
Y44700D01*
X42156D01*
Y44661D01*
X42078D01*
Y44622D01*
X42000D01*
Y44583D01*
X41961D01*
Y44545D01*
X41883D01*
Y44506D01*
X41806D01*
Y44467D01*
X41728D01*
Y44428D01*
X41650D01*
Y44389D01*
X41611D01*
Y44350D01*
X41533D01*
Y44311D01*
X41456D01*
Y44272D01*
X41378D01*
Y44233D01*
X41339D01*
Y44194D01*
X41261D01*
Y44156D01*
X41183D01*
Y44117D01*
X41106D01*
Y44078D01*
X41028D01*
Y44039D01*
X40989D01*
Y44000D01*
X40911D01*
Y43961D01*
X40833D01*
Y43922D01*
X40756D01*
Y43883D01*
X40678D01*
Y43845D01*
X40639D01*
Y43806D01*
X40561D01*
Y43767D01*
X40483D01*
Y43728D01*
X40406D01*
Y43689D01*
X40328D01*
Y43650D01*
X40289D01*
Y43611D01*
X40211D01*
Y43572D01*
X40133D01*
Y43533D01*
X40056D01*
Y43494D01*
X39978D01*
Y43456D01*
X39939D01*
Y43417D01*
X39861D01*
Y43378D01*
X39783D01*
Y43339D01*
X39706D01*
Y43300D01*
X39667D01*
Y43261D01*
X39589D01*
Y43222D01*
X39511D01*
Y43183D01*
X39433D01*
Y43145D01*
X39356D01*
Y43106D01*
X39317D01*
Y43067D01*
X39239D01*
Y43028D01*
X39161D01*
Y42989D01*
X39083D01*
Y42950D01*
X39006D01*
Y42911D01*
X38967D01*
Y42872D01*
X38889D01*
Y42833D01*
X38811D01*
Y42794D01*
X38733D01*
Y42756D01*
X38656D01*
Y42717D01*
X38617D01*
Y42678D01*
X38539D01*
Y42639D01*
X38461D01*
Y42600D01*
X38383D01*
Y42561D01*
X38306D01*
Y42522D01*
X38150D01*
Y42483D01*
X38033D01*
Y42522D01*
X37878D01*
Y42561D01*
X37800D01*
Y42600D01*
X37722D01*
Y42639D01*
X37644D01*
Y42678D01*
X37606D01*
Y42717D01*
X37528D01*
Y42756D01*
X37450D01*
Y42794D01*
X37372D01*
Y42833D01*
X37295D01*
Y42872D01*
X37256D01*
Y42911D01*
X37178D01*
Y42950D01*
X37100D01*
Y42989D01*
X37022D01*
Y43028D01*
X36983D01*
Y42989D01*
X36906D01*
Y42950D01*
X36789D01*
Y42911D01*
X36595D01*
Y42872D01*
X36400D01*
Y42911D01*
X36167D01*
Y42950D01*
X36050D01*
Y42989D01*
X35972D01*
Y43028D01*
X35895D01*
Y43067D01*
X35817D01*
Y43106D01*
X35778D01*
Y43145D01*
X35739D01*
Y43183D01*
X35700D01*
Y43222D01*
X35661D01*
Y43261D01*
X35622D01*
Y43300D01*
X35583D01*
Y43339D01*
X35544D01*
Y43417D01*
X35506D01*
Y43456D01*
X35467D01*
Y43533D01*
X35428D01*
Y43611D01*
X35389D01*
Y43767D01*
X35350D01*
Y44311D01*
X35389D01*
Y44428D01*
X35428D01*
Y44506D01*
X35467D01*
Y44583D01*
X35506D01*
Y44661D01*
X35544D01*
Y44700D01*
X35583D01*
Y44739D01*
X35622D01*
Y44817D01*
X35661D01*
Y44856D01*
X35700D01*
Y44894D01*
X35778D01*
Y44933D01*
X35817D01*
Y44972D01*
X35856D01*
Y45011D01*
X35933D01*
Y45050D01*
X36011D01*
Y45089D01*
X36128D01*
Y45128D01*
X36244D01*
Y45167D01*
X36711D01*
Y45128D01*
X36828D01*
Y45089D01*
X36944D01*
Y45050D01*
X37022D01*
Y45011D01*
X37061D01*
Y44972D01*
X37139D01*
Y44933D01*
X37178D01*
Y44894D01*
X37217D01*
Y44856D01*
X37295D01*
Y44778D01*
X37333D01*
Y44739D01*
X37372D01*
Y44700D01*
X37411D01*
Y44661D01*
X37450D01*
Y44583D01*
X37489D01*
Y44506D01*
X37528D01*
Y44428D01*
X37567D01*
Y44272D01*
X37606D01*
Y44000D01*
X37683D01*
Y43961D01*
X37761D01*
Y43922D01*
X37839D01*
Y43883D01*
X37917D01*
Y43845D01*
X38267D01*
Y43883D01*
X38383D01*
Y43922D01*
X38461D01*
Y43961D01*
X38500D01*
Y44000D01*
X38578D01*
Y44039D01*
X38656D01*
Y44078D01*
X38733D01*
Y44117D01*
X38811D01*
Y44156D01*
X38850D01*
Y44194D01*
X38928D01*
Y44233D01*
X39006D01*
Y44272D01*
X39083D01*
Y44311D01*
X39161D01*
Y44350D01*
X39239D01*
Y44389D01*
X39278D01*
Y44428D01*
X39356D01*
Y44467D01*
X39433D01*
Y44506D01*
X39511D01*
Y44545D01*
X39589D01*
Y44583D01*
X39628D01*
Y44622D01*
X39706D01*
Y44661D01*
X39783D01*
Y44700D01*
X39861D01*
Y44739D01*
X39939D01*
Y44778D01*
X40017D01*
Y44817D01*
X40056D01*
Y44856D01*
X40133D01*
Y44894D01*
X40211D01*
Y44933D01*
X40289D01*
Y44972D01*
X40367D01*
Y45011D01*
X40406D01*
Y45050D01*
X40483D01*
Y45089D01*
X40561D01*
Y45128D01*
X40639D01*
Y45167D01*
X40717D01*
Y45206D01*
X40795D01*
Y45245D01*
X40833D01*
Y45283D01*
X40911D01*
Y45322D01*
X40989D01*
Y45361D01*
X41067D01*
Y45400D01*
X41144D01*
Y45439D01*
X41183D01*
Y45478D01*
X41261D01*
Y45517D01*
X41339D01*
Y45556D01*
X41417D01*
Y45594D01*
X41495D01*
Y45633D01*
X41533D01*
Y45672D01*
X41611D01*
Y45711D01*
X41689D01*
Y45750D01*
X41767D01*
Y45789D01*
X41844D01*
Y45828D01*
X41922D01*
Y45867D01*
X41961D01*
Y45906D01*
X42039D01*
Y45944D01*
X42117D01*
Y45983D01*
X42195D01*
Y46022D01*
X42272D01*
Y46061D01*
X42311D01*
Y46100D01*
X42389D01*
Y46139D01*
X42467D01*
Y46178D01*
X42544D01*
Y46217D01*
X42622D01*
Y46256D01*
X42700D01*
Y46295D01*
X42739D01*
Y46333D01*
X42817D01*
Y46372D01*
X42895D01*
Y46411D01*
X42972D01*
Y46450D01*
X43050D01*
Y46489D01*
X43089D01*
Y46528D01*
X43167D01*
Y46567D01*
X43244D01*
Y46606D01*
X43322D01*
Y46644D01*
X43400D01*
Y46683D01*
X43478D01*
Y46722D01*
X43517D01*
Y46761D01*
X43595D01*
Y46800D01*
X43633D01*
Y42911D01*
D02*
G37*
G36*
X33950Y45750D02*
X34106D01*
Y45711D01*
X34222D01*
Y45672D01*
X34300D01*
Y45633D01*
X34378D01*
Y45594D01*
X34417D01*
Y45556D01*
X34495D01*
Y45517D01*
X34533D01*
Y45478D01*
X34572D01*
Y45439D01*
X34611D01*
Y45400D01*
X34650D01*
Y45361D01*
X34689D01*
Y45283D01*
X34728D01*
Y45245D01*
X34767D01*
Y45167D01*
X34806D01*
Y45089D01*
X34844D01*
Y45011D01*
X34883D01*
Y44817D01*
X34922D01*
Y44700D01*
Y44661D01*
Y44467D01*
X34883D01*
Y44311D01*
X34844D01*
Y44194D01*
X34806D01*
Y44117D01*
X34767D01*
Y44039D01*
X34728D01*
Y44000D01*
X34689D01*
Y43922D01*
X34650D01*
Y43883D01*
X34611D01*
Y43845D01*
X34572D01*
Y43806D01*
X34533D01*
Y43767D01*
X34495D01*
Y43728D01*
X34417D01*
Y43689D01*
X34378D01*
Y43650D01*
X34339D01*
Y43261D01*
X34378D01*
Y43183D01*
X34417D01*
Y43106D01*
X34456D01*
Y43028D01*
X34495D01*
Y42989D01*
X34533D01*
Y42950D01*
X34611D01*
Y42911D01*
X34650D01*
Y42872D01*
X34728D01*
Y42833D01*
X34806D01*
Y42794D01*
X34844D01*
Y42756D01*
X34922D01*
Y42717D01*
X34961D01*
Y42678D01*
X35039D01*
Y42639D01*
X35117D01*
Y42600D01*
X35156D01*
Y42561D01*
X35233D01*
Y42522D01*
X35311D01*
Y42483D01*
X35350D01*
Y42445D01*
X35428D01*
Y42406D01*
X35467D01*
Y42367D01*
X35544D01*
Y42328D01*
X35622D01*
Y42289D01*
X35661D01*
Y42250D01*
X35739D01*
Y42211D01*
X35817D01*
Y42172D01*
X35856D01*
Y42133D01*
X35933D01*
Y42094D01*
X35972D01*
Y42056D01*
X36050D01*
Y42017D01*
X36128D01*
Y41978D01*
X36167D01*
Y41939D01*
X36244D01*
Y41900D01*
X36283D01*
Y41861D01*
X36361D01*
Y41822D01*
X36439D01*
Y41783D01*
X36478D01*
Y41745D01*
X36556D01*
Y41706D01*
X36633D01*
Y41667D01*
X36672D01*
Y41628D01*
X36750D01*
Y41589D01*
X36789D01*
Y41550D01*
X36867D01*
Y41511D01*
X36944D01*
Y41472D01*
X36983D01*
Y41433D01*
X37061D01*
Y41394D01*
X37139D01*
Y41356D01*
X37178D01*
Y41317D01*
X37256D01*
Y41278D01*
X37295D01*
Y41239D01*
X37372D01*
Y41200D01*
X37450D01*
Y41161D01*
X37489D01*
Y41122D01*
X37567D01*
Y41083D01*
X37644D01*
Y41045D01*
X37683D01*
Y41006D01*
X37761D01*
Y40967D01*
X37800D01*
Y40928D01*
X37878D01*
Y40889D01*
X37956D01*
Y40850D01*
X37995D01*
Y40811D01*
X38072D01*
Y40772D01*
X38111D01*
Y40733D01*
X38189D01*
Y40694D01*
X38267D01*
Y40656D01*
X38306D01*
Y40617D01*
X38383D01*
Y40578D01*
X38461D01*
Y40539D01*
X38500D01*
Y40500D01*
X38578D01*
Y40461D01*
X38617D01*
Y40422D01*
X38695D01*
Y40383D01*
X38772D01*
Y40345D01*
X38811D01*
Y40306D01*
X38889D01*
Y40267D01*
X38967D01*
Y40228D01*
X39006D01*
Y40189D01*
X39083D01*
Y40150D01*
X39122D01*
Y40111D01*
X39200D01*
Y40072D01*
X39278D01*
Y40033D01*
X39317D01*
Y39994D01*
X39395D01*
Y39956D01*
X39472D01*
Y39917D01*
X39511D01*
Y39878D01*
X39589D01*
Y39839D01*
X39628D01*
Y39800D01*
X39706D01*
Y39761D01*
X39667D01*
Y39722D01*
X39628D01*
Y39683D01*
X39550D01*
Y39645D01*
X39472D01*
Y39606D01*
X39395D01*
Y39567D01*
X39356D01*
Y39528D01*
X39278D01*
Y39489D01*
X39200D01*
Y39450D01*
X39122D01*
Y39411D01*
X39044D01*
Y39372D01*
X39006D01*
Y39333D01*
X38928D01*
Y39294D01*
X38850D01*
Y39256D01*
X38772D01*
Y39217D01*
X38733D01*
Y39178D01*
X38656D01*
Y39139D01*
X38578D01*
Y39100D01*
X38500D01*
Y39061D01*
X38461D01*
Y39022D01*
X38383D01*
Y38983D01*
X38306D01*
Y38945D01*
X38228D01*
Y38906D01*
X38189D01*
Y38867D01*
X38111D01*
Y38828D01*
X38033D01*
Y38789D01*
X37956D01*
Y38750D01*
X37917D01*
Y38711D01*
X37839D01*
Y38672D01*
X37761D01*
Y38633D01*
X37683D01*
Y38594D01*
X37606D01*
Y38556D01*
X37567D01*
Y38517D01*
X37489D01*
Y38478D01*
X37411D01*
Y38439D01*
X37333D01*
Y38400D01*
X37295D01*
Y38361D01*
X37217D01*
Y38322D01*
X37139D01*
Y38283D01*
X37061D01*
Y38245D01*
X37022D01*
Y38206D01*
X36944D01*
Y38167D01*
X36867D01*
Y38128D01*
X36789D01*
Y38089D01*
X36750D01*
Y38050D01*
X36672D01*
Y38011D01*
X36595D01*
Y37972D01*
X36517D01*
Y37933D01*
X36439D01*
Y37894D01*
X36322D01*
Y37856D01*
X35856D01*
Y37894D01*
X35778D01*
Y37933D01*
X35700D01*
Y37972D01*
X35622D01*
Y38011D01*
X35544D01*
Y38050D01*
X35506D01*
Y38089D01*
X35428D01*
Y38128D01*
X35389D01*
Y38167D01*
X35311D01*
Y38206D01*
X35272D01*
Y38245D01*
X35195D01*
Y38283D01*
X35156D01*
Y38322D01*
X35078D01*
Y38361D01*
X35039D01*
Y38400D01*
X34961D01*
Y38439D01*
X34922D01*
Y38478D01*
X34844D01*
Y38517D01*
X34806D01*
Y38556D01*
X34728D01*
Y38594D01*
X34689D01*
Y38633D01*
X34611D01*
Y38672D01*
X34572D01*
Y38711D01*
X34495D01*
Y38750D01*
X34456D01*
Y38789D01*
X34378D01*
Y38828D01*
X34339D01*
Y38867D01*
X34261D01*
Y38906D01*
X34222D01*
Y38945D01*
X34144D01*
Y38983D01*
X34106D01*
Y39022D01*
X34028D01*
Y39061D01*
X33989D01*
Y39100D01*
X33911D01*
Y39139D01*
X33872D01*
Y39178D01*
X33795D01*
Y39217D01*
X33756D01*
Y39256D01*
X33678D01*
Y39294D01*
X33639D01*
Y39333D01*
X33561D01*
Y39372D01*
X33522D01*
Y39411D01*
X33444D01*
Y39450D01*
X33406D01*
Y39489D01*
X33328D01*
Y39528D01*
X33289D01*
Y39567D01*
X33211D01*
Y39606D01*
X33172D01*
Y39645D01*
X33133D01*
Y39761D01*
X33094D01*
Y40967D01*
X33172D01*
Y40928D01*
X33211D01*
Y40889D01*
X33289D01*
Y40850D01*
X33328D01*
Y40811D01*
X33406D01*
Y40772D01*
X33483D01*
Y40733D01*
X33522D01*
Y40694D01*
X33600D01*
Y40656D01*
X33639D01*
Y40617D01*
X33717D01*
Y40578D01*
X33795D01*
Y40539D01*
X33833D01*
Y40500D01*
X33911D01*
Y40461D01*
X33950D01*
Y40422D01*
X34028D01*
Y40383D01*
X34106D01*
Y40345D01*
X34144D01*
Y40306D01*
X34222D01*
Y40267D01*
X34261D01*
Y40228D01*
X34339D01*
Y40189D01*
X34417D01*
Y40150D01*
X34456D01*
Y40111D01*
X34533D01*
Y40072D01*
X34572D01*
Y40033D01*
X34650D01*
Y39994D01*
X34689D01*
Y39956D01*
X34767D01*
Y39917D01*
X34844D01*
Y39878D01*
X34883D01*
Y39839D01*
X34961D01*
Y39800D01*
X35000D01*
Y39761D01*
X35078D01*
Y39722D01*
X35156D01*
Y39683D01*
X35195D01*
Y39645D01*
X35272D01*
Y39606D01*
X35311D01*
Y39567D01*
X35389D01*
Y39528D01*
X35467D01*
Y39489D01*
X35506D01*
Y39450D01*
X35583D01*
Y39411D01*
X35622D01*
Y39372D01*
X35700D01*
Y39333D01*
X35778D01*
Y39294D01*
X35856D01*
Y39256D01*
X36011D01*
Y39217D01*
X36167D01*
Y39256D01*
X36322D01*
Y39294D01*
X36400D01*
Y39333D01*
X36478D01*
Y39372D01*
X36556D01*
Y39411D01*
X36633D01*
Y39450D01*
X36711D01*
Y39489D01*
X36789D01*
Y39528D01*
X36867D01*
Y39567D01*
X36944D01*
Y39606D01*
X37022D01*
Y39645D01*
X37100D01*
Y39683D01*
X37178D01*
Y39722D01*
X37256D01*
Y39761D01*
X37333D01*
Y39800D01*
X37411D01*
Y39878D01*
X37333D01*
Y39917D01*
X37295D01*
Y39956D01*
X37217D01*
Y39994D01*
X37139D01*
Y40033D01*
X37100D01*
Y40072D01*
X37022D01*
Y40111D01*
X36944D01*
Y40150D01*
X36906D01*
Y40189D01*
X36828D01*
Y40228D01*
X36750D01*
Y40267D01*
X36711D01*
Y40306D01*
X36633D01*
Y40345D01*
X36595D01*
Y40383D01*
X36517D01*
Y40422D01*
X36439D01*
Y40461D01*
X36400D01*
Y40500D01*
X36322D01*
Y40539D01*
X36244D01*
Y40578D01*
X36206D01*
Y40617D01*
X36128D01*
Y40656D01*
X36050D01*
Y40694D01*
X36011D01*
Y40733D01*
X35933D01*
Y40772D01*
X35856D01*
Y40811D01*
X35817D01*
Y40850D01*
X35739D01*
Y40889D01*
X35700D01*
Y40928D01*
X35622D01*
Y40967D01*
X35544D01*
Y41006D01*
X35506D01*
Y41045D01*
X35428D01*
Y41083D01*
X35350D01*
Y41122D01*
X35311D01*
Y41161D01*
X35233D01*
Y41200D01*
X35156D01*
Y41239D01*
X35117D01*
Y41278D01*
X35039D01*
Y41317D01*
X35000D01*
Y41356D01*
X34922D01*
Y41394D01*
X34844D01*
Y41433D01*
X34806D01*
Y41472D01*
X34728D01*
Y41511D01*
X34650D01*
Y41550D01*
X34611D01*
Y41589D01*
X34533D01*
Y41628D01*
X34456D01*
Y41667D01*
X34417D01*
Y41706D01*
X34339D01*
Y41745D01*
X34261D01*
Y41783D01*
X34222D01*
Y41822D01*
X34144D01*
Y41861D01*
X34106D01*
Y41900D01*
X34028D01*
Y41939D01*
X33950D01*
Y41978D01*
X33911D01*
Y42017D01*
X33833D01*
Y42056D01*
X33756D01*
Y42094D01*
X33717D01*
Y42133D01*
X33639D01*
Y42172D01*
X33561D01*
Y42211D01*
X33522D01*
Y42250D01*
X33444D01*
Y42289D01*
X33406D01*
Y42328D01*
X33367D01*
Y42367D01*
X33328D01*
Y42406D01*
X33289D01*
Y42445D01*
X33250D01*
Y42522D01*
X33211D01*
Y42600D01*
X33172D01*
Y43689D01*
X33133D01*
Y43728D01*
X33094D01*
Y43767D01*
X33056D01*
Y43806D01*
X32978D01*
Y43845D01*
X32939D01*
Y43883D01*
X32900D01*
Y43961D01*
X32861D01*
Y44000D01*
X32822D01*
Y44078D01*
X32783D01*
Y44117D01*
X32745D01*
Y44233D01*
X32706D01*
Y44311D01*
X32667D01*
Y44506D01*
X32628D01*
Y44778D01*
X32667D01*
Y44972D01*
X32706D01*
Y45050D01*
X32745D01*
Y45167D01*
X32783D01*
Y45245D01*
X32822D01*
Y45283D01*
X32861D01*
Y45361D01*
X32900D01*
Y45400D01*
X32939D01*
Y45439D01*
X32978D01*
Y45478D01*
X33017D01*
Y45517D01*
X33056D01*
Y45556D01*
X33133D01*
Y45594D01*
X33172D01*
Y45633D01*
X33250D01*
Y45672D01*
X33328D01*
Y45711D01*
X33444D01*
Y45750D01*
X33600D01*
Y45789D01*
X33950D01*
Y45750D01*
D02*
G37*
%LPC*%
G36*
X37800Y49056D02*
X37411D01*
Y49017D01*
X37295D01*
Y48978D01*
X37256D01*
Y48939D01*
X37178D01*
Y48900D01*
X37139D01*
Y48861D01*
X37100D01*
Y48783D01*
X37061D01*
Y48706D01*
X37022D01*
Y48628D01*
X36983D01*
Y48278D01*
X37022D01*
Y48200D01*
X37061D01*
Y48122D01*
X37100D01*
Y48083D01*
X37139D01*
Y48006D01*
X37217D01*
Y47967D01*
X37256D01*
Y47928D01*
X37333D01*
Y47889D01*
X37411D01*
Y47850D01*
X37761D01*
Y47889D01*
X37878D01*
Y47928D01*
X37956D01*
Y47967D01*
X37995D01*
Y48006D01*
X38033D01*
Y48044D01*
X38072D01*
Y48083D01*
X38111D01*
Y48161D01*
X38150D01*
Y48239D01*
X38189D01*
Y48667D01*
X38150D01*
Y48744D01*
X38111D01*
Y48822D01*
X38072D01*
Y48861D01*
X38033D01*
Y48900D01*
X37995D01*
Y48939D01*
X37956D01*
Y48978D01*
X37878D01*
Y49017D01*
X37800D01*
Y49056D01*
D02*
G37*
G36*
X35156Y49911D02*
X34767D01*
Y49872D01*
X34689D01*
Y49833D01*
X34611D01*
Y49795D01*
X34572D01*
Y49756D01*
X34533D01*
Y49717D01*
X34495D01*
Y49678D01*
X34456D01*
Y49639D01*
X34417D01*
Y49561D01*
X34378D01*
Y49406D01*
X34339D01*
Y49211D01*
X34378D01*
Y49056D01*
X34417D01*
Y48978D01*
X34456D01*
Y48939D01*
X34495D01*
Y48900D01*
X34533D01*
Y48861D01*
X34572D01*
Y48822D01*
X34611D01*
Y48783D01*
X34689D01*
Y48744D01*
X34767D01*
Y48706D01*
X35156D01*
Y48744D01*
X35233D01*
Y48783D01*
X35311D01*
Y48822D01*
X35350D01*
Y48861D01*
X35389D01*
Y48900D01*
X35428D01*
Y48939D01*
X35467D01*
Y48978D01*
X35506D01*
Y49056D01*
X35544D01*
Y49211D01*
X35583D01*
Y49406D01*
X35544D01*
Y49561D01*
X35506D01*
Y49639D01*
X35467D01*
Y49678D01*
X35428D01*
Y49717D01*
X35389D01*
Y49756D01*
X35350D01*
Y49795D01*
X35311D01*
Y49833D01*
X35233D01*
Y49872D01*
X35156D01*
Y49911D01*
D02*
G37*
G36*
X38500Y46606D02*
X38150D01*
Y46567D01*
X38072D01*
Y46528D01*
X37995D01*
Y46489D01*
X37956D01*
Y46450D01*
X37878D01*
Y46372D01*
X37839D01*
Y46333D01*
X37800D01*
Y46256D01*
X37761D01*
Y46139D01*
X37722D01*
Y45828D01*
X37761D01*
Y45711D01*
X37800D01*
Y45672D01*
X37839D01*
Y45594D01*
X37878D01*
Y45556D01*
X37917D01*
Y45517D01*
X37995D01*
Y45478D01*
X38033D01*
Y45439D01*
X38111D01*
Y45400D01*
X38539D01*
Y45439D01*
X38617D01*
Y45478D01*
X38695D01*
Y45517D01*
X38733D01*
Y45556D01*
X38772D01*
Y45594D01*
X38811D01*
Y45633D01*
X38850D01*
Y45711D01*
X38889D01*
Y45789D01*
X38928D01*
Y46217D01*
X38889D01*
Y46295D01*
X38850D01*
Y46372D01*
X38811D01*
Y46411D01*
X38772D01*
Y46450D01*
X38733D01*
Y46489D01*
X38656D01*
Y46528D01*
X38617D01*
Y46567D01*
X38500D01*
Y46606D01*
D02*
G37*
G36*
X33133Y47850D02*
X32861D01*
Y47811D01*
X32745D01*
Y47772D01*
X32667D01*
Y47733D01*
X32589D01*
Y47695D01*
X32550D01*
Y47656D01*
X32511D01*
Y47617D01*
X32472D01*
Y47539D01*
X32433D01*
Y47461D01*
X32394D01*
Y47306D01*
X32356D01*
Y47150D01*
X32394D01*
Y46995D01*
X32433D01*
Y46917D01*
X32472D01*
Y46878D01*
X32511D01*
Y46800D01*
X32550D01*
Y46761D01*
X32628D01*
Y46722D01*
X32667D01*
Y46683D01*
X32745D01*
Y46644D01*
X32900D01*
Y46606D01*
X33056D01*
Y46644D01*
X33211D01*
Y46683D01*
X33289D01*
Y46722D01*
X33367D01*
Y46761D01*
X33406D01*
Y46800D01*
X33444D01*
Y46839D01*
X33483D01*
Y46917D01*
X33522D01*
Y46995D01*
X33561D01*
Y47111D01*
X33600D01*
Y47383D01*
X33561D01*
Y47500D01*
X33522D01*
Y47578D01*
X33483D01*
Y47617D01*
X33444D01*
Y47656D01*
X33406D01*
Y47695D01*
X33367D01*
Y47733D01*
X33289D01*
Y47772D01*
X33250D01*
Y47811D01*
X33133D01*
Y47850D01*
D02*
G37*
G36*
X36672Y44622D02*
X36244D01*
Y44583D01*
X36167D01*
Y44545D01*
X36128D01*
Y44506D01*
X36050D01*
Y44467D01*
X36011D01*
Y44428D01*
X35972D01*
Y44350D01*
X35933D01*
Y44272D01*
X35895D01*
Y44156D01*
X35856D01*
Y43922D01*
X35895D01*
Y43767D01*
X35933D01*
Y43689D01*
X35972D01*
Y43650D01*
X36011D01*
Y43611D01*
X36050D01*
Y43572D01*
X36089D01*
Y43533D01*
X36128D01*
Y43494D01*
X36206D01*
Y43456D01*
X36322D01*
Y43417D01*
X36633D01*
Y43456D01*
X36750D01*
Y43494D01*
X36789D01*
Y43533D01*
X36867D01*
Y43572D01*
X36906D01*
Y43611D01*
X36944D01*
Y43650D01*
X36983D01*
Y43728D01*
X37022D01*
Y43806D01*
X37061D01*
Y43961D01*
X37100D01*
Y44117D01*
X37061D01*
Y44272D01*
X37022D01*
Y44350D01*
X36983D01*
Y44389D01*
X36944D01*
Y44428D01*
X36906D01*
Y44467D01*
X36867D01*
Y44506D01*
X36828D01*
Y44545D01*
X36789D01*
Y44583D01*
X36672D01*
Y44622D01*
D02*
G37*
G36*
X33989Y45245D02*
X33600D01*
Y45206D01*
X33483D01*
Y45167D01*
X33444D01*
Y45128D01*
X33367D01*
Y45089D01*
X33328D01*
Y45050D01*
X33289D01*
Y44972D01*
X33250D01*
Y44933D01*
X33211D01*
Y44856D01*
Y44817D01*
X33172D01*
Y44467D01*
X33211D01*
Y44389D01*
X33250D01*
Y44311D01*
X33289D01*
Y44233D01*
X33328D01*
Y44194D01*
X33367D01*
Y44156D01*
X33444D01*
Y44117D01*
X33483D01*
Y44078D01*
X33600D01*
Y44039D01*
X33950D01*
Y44078D01*
X34067D01*
Y44117D01*
X34144D01*
Y44156D01*
X34183D01*
Y44194D01*
X34222D01*
Y44233D01*
X34261D01*
Y44272D01*
X34300D01*
Y44350D01*
X34339D01*
Y44428D01*
X34378D01*
Y44856D01*
X34339D01*
Y44933D01*
X34300D01*
Y45011D01*
X34261D01*
Y45050D01*
X34222D01*
Y45089D01*
X34183D01*
Y45128D01*
X34144D01*
Y45167D01*
X34067D01*
Y45206D01*
X33989D01*
Y45245D01*
D02*
G37*
%LPD*%
D12*
X65354Y62598D02*
G03*
X65354Y62205I0J-197D01*
G01*
D02*
G03*
X65354Y62598I0J197D01*
G01*
D02*
G03*
X65354Y62205I0J-197D01*
G01*
X49606Y50197D02*
X68701D01*
X49606D02*
Y60039D01*
X68701D01*
Y50197D02*
Y60039D01*
X43181Y5213D02*
X46181D01*
X43181D02*
Y11841D01*
X48055Y19311D02*
X69961D01*
X74929Y5213D02*
Y11841D01*
X71929Y5213D02*
X74929D01*
D13*
X63114Y48185D02*
X65476D01*
X63114Y43547D02*
Y48185D01*
Y43547D02*
X65477D01*
X71524Y48185D02*
X73886D01*
X71524Y43547D02*
X73886D01*
Y48185D01*
X70181Y49827D02*
Y52189D01*
Y49827D02*
X74819D01*
Y52189D01*
X70181Y58236D02*
Y60598D01*
X74819Y58236D02*
Y60598D01*
X70181D02*
X74819D01*
D14*
X68501Y44291D02*
Y47441D01*
X70925Y55213D02*
X74075D01*
X38964Y67069D02*
Y64314D01*
X37586D01*
X37127Y64773D01*
Y66610D01*
X37586Y67069D01*
X38964D01*
X34372D02*
X36209D01*
Y64314D01*
X34372D01*
X36209Y65691D02*
X35291D01*
X31617Y66610D02*
X32076Y67069D01*
X32995D01*
X33454Y66610D01*
Y66150D01*
X32995Y65691D01*
X32076D01*
X31617Y65232D01*
Y64773D01*
X32076Y64314D01*
X32995D01*
X33454Y64773D01*
X30699Y67069D02*
X29781D01*
X30240D01*
Y64314D01*
X30699D01*
X29781D01*
X26566Y66610D02*
X27025Y67069D01*
X27944D01*
X28403Y66610D01*
Y64773D01*
X27944Y64314D01*
X27025D01*
X26566Y64773D01*
Y65691D01*
X27485D01*
X25648Y64314D02*
Y67069D01*
X23811Y64314D01*
Y67069D01*
X21056D02*
X22893D01*
Y64314D01*
X21056D01*
X22893Y65691D02*
X21975D01*
X20138Y67069D02*
Y64314D01*
X18760D01*
X18301Y64773D01*
Y66610D01*
X18760Y67069D01*
X20138D01*
X14628D02*
Y64314D01*
X13250D01*
X12791Y64773D01*
Y65232D01*
X13250Y65691D01*
X14628D01*
X13250D01*
X12791Y66150D01*
Y66610D01*
X13250Y67069D01*
X14628D01*
X11873D02*
Y66610D01*
X10954Y65691D01*
X10036Y66610D01*
Y67069D01*
X10954Y65691D02*
Y64314D01*
X36668Y61886D02*
X37127Y62346D01*
X38045D01*
X38505Y61886D01*
Y61427D01*
X38045Y60968D01*
X37127D01*
X36668Y60509D01*
Y60050D01*
X37127Y59591D01*
X38045D01*
X38505Y60050D01*
X35750Y59591D02*
Y60050D01*
X35291D01*
Y59591D01*
X35750D01*
X31617Y61886D02*
X32076Y62346D01*
X32995D01*
X33454Y61886D01*
Y61427D01*
X32995Y60968D01*
X32076D01*
X31617Y60509D01*
Y60050D01*
X32076Y59591D01*
X32995D01*
X33454Y60050D01*
X30699Y59591D02*
Y60050D01*
X30240D01*
Y59591D01*
X30699D01*
X28403D02*
Y61427D01*
X27485Y62346D01*
X26566Y61427D01*
Y59591D01*
Y60968D01*
X28403D01*
X25648Y59591D02*
Y60050D01*
X25189D01*
Y59591D01*
X25648D01*
X18760D02*
X20597D01*
X18760Y61427D01*
Y61886D01*
X19219Y62346D01*
X20138D01*
X20597Y61886D01*
X17842D02*
X17383Y62346D01*
X16465D01*
X16005Y61886D01*
Y60050D01*
X16465Y59591D01*
X17383D01*
X17842Y60050D01*
Y61886D01*
X13250Y59591D02*
X15087D01*
X13250Y61427D01*
Y61886D01*
X13710Y62346D01*
X14628D01*
X15087Y61886D01*
X10495Y62346D02*
X12332D01*
Y60968D01*
X11414Y61427D01*
X10954D01*
X10495Y60968D01*
Y60050D01*
X10954Y59591D01*
X11873D01*
X12332Y60050D01*
X40117Y8378D02*
Y6278D01*
X40248Y5885D01*
X40379Y5754D01*
X40641Y5622D01*
X40904D01*
X41166Y5754D01*
X41298Y5885D01*
X41429Y6278D01*
Y6541D01*
X39277Y7722D02*
Y7853D01*
X39146Y8115D01*
X39015Y8247D01*
X38752Y8378D01*
X38227D01*
X37965Y8247D01*
X37834Y8115D01*
X37703Y7853D01*
Y7590D01*
X37834Y7328D01*
X38096Y6934D01*
X39408Y5622D01*
X37571D01*
X55078Y64378D02*
Y61622D01*
X52533Y63722D02*
X52664Y63984D01*
X52926Y64246D01*
X53189Y64378D01*
X53714D01*
X53976Y64246D01*
X54238Y63984D01*
X54370Y63722D01*
X54501Y63328D01*
Y62672D01*
X54370Y62278D01*
X54238Y62016D01*
X53976Y61753D01*
X53714Y61622D01*
X53189D01*
X52926Y61753D01*
X52664Y62016D01*
X52533Y62278D01*
X51496Y64378D02*
X50053D01*
X50840Y63328D01*
X50447D01*
X50184Y63197D01*
X50053Y63066D01*
X49922Y62672D01*
Y62410D01*
X50053Y62016D01*
X50315Y61753D01*
X50709Y61622D01*
X51103D01*
X51496Y61753D01*
X51627Y61885D01*
X51759Y62147D01*
X72756Y63722D02*
X72887Y63984D01*
X73150Y64246D01*
X73412Y64378D01*
X73937D01*
X74199Y64246D01*
X74462Y63984D01*
X74593Y63722D01*
X74724Y63328D01*
Y62672D01*
X74593Y62278D01*
X74462Y62016D01*
X74199Y61753D01*
X73937Y61622D01*
X73412D01*
X73150Y61753D01*
X72887Y62016D01*
X72756Y62278D01*
X70407Y63984D02*
X70539Y64246D01*
X70932Y64378D01*
X71194D01*
X71588Y64246D01*
X71851Y63853D01*
X71982Y63197D01*
Y62541D01*
X71851Y62016D01*
X71588Y61753D01*
X71194Y61622D01*
X71063D01*
X70670Y61753D01*
X70407Y62016D01*
X70276Y62410D01*
Y62541D01*
X70407Y62934D01*
X70670Y63197D01*
X71063Y63328D01*
X71194D01*
X71588Y63197D01*
X71851Y62934D01*
X71982Y62541D01*
X77222Y45545D02*
X77484Y45414D01*
X77746Y45151D01*
X77878Y44889D01*
Y44364D01*
X77746Y44101D01*
X77484Y43839D01*
X77222Y43708D01*
X76828Y43577D01*
X76172D01*
X75778Y43708D01*
X75516Y43839D01*
X75253Y44101D01*
X75122Y44364D01*
Y44889D01*
X75253Y45151D01*
X75516Y45414D01*
X75778Y45545D01*
X77878Y47893D02*
Y46581D01*
X76697Y46450D01*
X76828Y46581D01*
X76959Y46975D01*
Y47368D01*
X76828Y47762D01*
X76566Y48024D01*
X76172Y48156D01*
X75910D01*
X75516Y48024D01*
X75253Y47762D01*
X75122Y47368D01*
Y46975D01*
X75253Y46581D01*
X75385Y46450D01*
X75647Y46319D01*
D15*
X107323Y62551D02*
X109291D01*
X107323Y64519D01*
Y65011D01*
X107815Y65503D01*
X108799D01*
X109291Y65011D01*
X106339Y62551D02*
X104372Y64519D01*
X101420Y62551D02*
X103388D01*
X101420Y64519D01*
Y65011D01*
X101912Y65503D01*
X102896D01*
X103388Y65011D01*
X98960Y62551D02*
Y65503D01*
X100436Y64027D01*
X98468D01*
X97484Y62551D02*
X95516Y64519D01*
X92564Y62551D02*
X94532D01*
X92564Y64519D01*
Y65011D01*
X93056Y65503D01*
X94040D01*
X94532Y65011D01*
X91580D02*
X91088Y65503D01*
X90104D01*
X89612Y65011D01*
Y63043D01*
X90104Y62551D01*
X91088D01*
X91580Y63043D01*
Y65011D01*
X86661Y62551D02*
X88629D01*
X86661Y64519D01*
Y65011D01*
X87153Y65503D01*
X88137D01*
X88629Y65011D01*
X83709Y65503D02*
X84693Y65011D01*
X85677Y64027D01*
Y63043D01*
X85185Y62551D01*
X84201D01*
X83709Y63043D01*
Y63535D01*
X84201Y64027D01*
X85677D01*
D63*
X81944Y27768D02*
Y25013D01*
X81813Y27768D02*
Y25013D01*
X82731Y27768D02*
X82862Y26981D01*
Y27768D01*
X80894D01*
Y26981D01*
X81025Y27768D01*
X82338Y25013D02*
X81419D01*
X80107Y27768D02*
Y25013D01*
X79976Y27768D02*
Y25013D01*
Y26456D02*
X79713Y26719D01*
X79320Y26850D01*
X79057D01*
X78664Y26719D01*
X78533Y26456D01*
Y25013D01*
X79057Y26850D02*
X78795Y26719D01*
X78664Y26456D01*
Y25013D01*
X80501Y27768D02*
X79976D01*
X80501Y25013D02*
X79582D01*
X79057D02*
X78139D01*
X77653Y26063D02*
X76079D01*
Y26325D01*
X76210Y26587D01*
X76341Y26719D01*
X76604Y26850D01*
X76998D01*
X77391Y26719D01*
X77653Y26456D01*
X77785Y26063D01*
Y25800D01*
X77653Y25407D01*
X77391Y25144D01*
X76998Y25013D01*
X76735D01*
X76341Y25144D01*
X76079Y25407D01*
X76210Y26063D02*
Y26456D01*
X76341Y26719D01*
X76998Y26850D02*
X77260Y26719D01*
X77522Y26456D01*
X77653Y26063D01*
Y25800D01*
X77522Y25407D01*
X77260Y25144D01*
X76998Y25013D01*
X72786Y27768D02*
Y25013D01*
X72655Y27768D02*
Y25013D01*
X73179Y27768D02*
X71605D01*
X71211Y27637D01*
X71080Y27506D01*
X70949Y27243D01*
Y26981D01*
X71080Y26719D01*
X71211Y26587D01*
X71605Y26456D01*
X72655D01*
X71605Y27768D02*
X71342Y27637D01*
X71211Y27506D01*
X71080Y27243D01*
Y26981D01*
X71211Y26719D01*
X71342Y26587D01*
X71605Y26456D01*
X73179Y25013D02*
X72261D01*
X71999Y26456D02*
X71736Y26325D01*
X71605Y26194D01*
X71211Y25275D01*
X71080Y25144D01*
X70949D01*
X70818Y25275D01*
X71736Y26325D02*
X71605Y26063D01*
X71342Y25144D01*
X71211Y25013D01*
X70949D01*
X70818Y25275D01*
Y25407D01*
X69545Y27768D02*
X69939Y27637D01*
X70201Y27375D01*
X70332Y27112D01*
X70464Y26587D01*
Y26194D01*
X70332Y25669D01*
X70201Y25407D01*
X69939Y25144D01*
X69545Y25013D01*
X69283D01*
X68889Y25144D01*
X68627Y25407D01*
X68495Y25669D01*
X68364Y26194D01*
Y26587D01*
X68495Y27112D01*
X68627Y27375D01*
X68889Y27637D01*
X69283Y27768D01*
X69545D01*
X69807Y27637D01*
X70070Y27375D01*
X70201Y27112D01*
X70332Y26587D01*
Y26194D01*
X70201Y25669D01*
X70070Y25407D01*
X69807Y25144D01*
X69545Y25013D01*
X69283D02*
X69020Y25144D01*
X68758Y25407D01*
X68627Y25669D01*
X68495Y26194D01*
Y26587D01*
X68627Y27112D01*
X68758Y27375D01*
X69020Y27637D01*
X69283Y27768D01*
X66278Y27375D02*
X66147Y27768D01*
Y26981D01*
X66278Y27375D01*
X66540Y27637D01*
X66934Y27768D01*
X67328D01*
X67721Y27637D01*
X67984Y27375D01*
Y27112D01*
X67852Y26850D01*
X67721Y26719D01*
X67459Y26587D01*
X66672Y26325D01*
X66409Y26194D01*
X66147Y25931D01*
X67984Y27112D02*
X67721Y26850D01*
X67459Y26719D01*
X66672Y26456D01*
X66409Y26325D01*
X66278Y26194D01*
X66147Y25931D01*
Y25407D01*
X66409Y25144D01*
X66803Y25013D01*
X67196D01*
X67590Y25144D01*
X67852Y25407D01*
X67984Y25800D01*
Y25013D01*
X67852Y25407D01*
X62867Y27768D02*
Y25013D01*
X62735Y27768D02*
Y25013D01*
X63260Y27768D02*
X61686D01*
X61292Y27637D01*
X61161Y27506D01*
X61030Y27243D01*
Y26981D01*
X61161Y26719D01*
X61292Y26587D01*
X61686Y26456D01*
X62735D01*
X61686Y27768D02*
X61423Y27637D01*
X61292Y27506D01*
X61161Y27243D01*
Y26981D01*
X61292Y26719D01*
X61423Y26587D01*
X61686Y26456D01*
X63260Y25013D02*
X62342D01*
X62079Y26456D02*
X61817Y26325D01*
X61686Y26194D01*
X61292Y25275D01*
X61161Y25144D01*
X61030D01*
X60899Y25275D01*
X61817Y26325D02*
X61686Y26063D01*
X61423Y25144D01*
X61292Y25013D01*
X61030D01*
X60899Y25275D01*
Y25407D01*
X59757Y26850D02*
X60151Y26719D01*
X60413Y26456D01*
X60544Y26063D01*
Y25800D01*
X60413Y25407D01*
X60151Y25144D01*
X59757Y25013D01*
X59495D01*
X59101Y25144D01*
X58839Y25407D01*
X58707Y25800D01*
Y26063D01*
X58839Y26456D01*
X59101Y26719D01*
X59495Y26850D01*
X59757D01*
X60019Y26719D01*
X60282Y26456D01*
X60413Y26063D01*
Y25800D01*
X60282Y25407D01*
X60019Y25144D01*
X59757Y25013D01*
X59495D02*
X59232Y25144D01*
X58970Y25407D01*
X58839Y25800D01*
Y26063D01*
X58970Y26456D01*
X59232Y26719D01*
X59495Y26850D01*
X57907Y27768D02*
Y25013D01*
X57776Y27768D02*
Y25013D01*
Y26456D02*
X57513Y26719D01*
X57251Y26850D01*
X56989D01*
X56595Y26719D01*
X56333Y26456D01*
X56201Y26063D01*
Y25800D01*
X56333Y25407D01*
X56595Y25144D01*
X56989Y25013D01*
X57251D01*
X57513Y25144D01*
X57776Y25407D01*
X56989Y26850D02*
X56726Y26719D01*
X56464Y26456D01*
X56333Y26063D01*
Y25800D01*
X56464Y25407D01*
X56726Y25144D01*
X56989Y25013D01*
X58301Y27768D02*
X57776D01*
X55034Y26850D02*
X55427Y26719D01*
X55690Y26456D01*
X55821Y26063D01*
Y25800D01*
X55690Y25407D01*
X55427Y25144D01*
X55034Y25013D01*
X54771D01*
X54378Y25144D01*
X54115Y25407D01*
X53984Y25800D01*
Y26063D01*
X54115Y26456D01*
X54378Y26719D01*
X54771Y26850D01*
X55034D01*
X55296Y26719D01*
X55559Y26456D01*
X55690Y26063D01*
Y25800D01*
X55559Y25407D01*
X55296Y25144D01*
X55034Y25013D01*
X54771D02*
X54509Y25144D01*
X54246Y25407D01*
X54115Y25800D01*
Y26063D01*
X54246Y26456D01*
X54509Y26719D01*
X54771Y26850D01*
X52790Y25013D02*
X52921Y25144D01*
X53052Y25538D01*
Y27768D01*
X53184D01*
Y25538D01*
X53052Y25144D01*
X52790Y25013D01*
X52528D01*
X52265Y25144D01*
X52134Y25407D01*
X53577Y26850D02*
X52528D01*
X48814Y27768D02*
Y25013D01*
X48683Y27768D02*
Y25013D01*
X49208Y27768D02*
X47634D01*
X47240Y27637D01*
X47109Y27506D01*
X46978Y27243D01*
Y26850D01*
X47109Y26587D01*
X47240Y26456D01*
X47634Y26325D01*
X48683D01*
X47634Y27768D02*
X47371Y27637D01*
X47240Y27506D01*
X47109Y27243D01*
Y26850D01*
X47240Y26587D01*
X47371Y26456D01*
X47634Y26325D01*
X49208Y25013D02*
X48290D01*
X46217Y26850D02*
Y25013D01*
X46085Y26850D02*
Y25013D01*
Y26063D02*
X45954Y26456D01*
X45692Y26719D01*
X45429Y26850D01*
X45036D01*
X44905Y26719D01*
Y26587D01*
X45036Y26456D01*
X45167Y26587D01*
X45036Y26719D01*
X46610Y26850D02*
X46085D01*
X46610Y25013D02*
X45692D01*
X43698Y26850D02*
X44091Y26719D01*
X44354Y26456D01*
X44485Y26063D01*
Y25800D01*
X44354Y25407D01*
X44091Y25144D01*
X43698Y25013D01*
X43435D01*
X43042Y25144D01*
X42779Y25407D01*
X42648Y25800D01*
Y26063D01*
X42779Y26456D01*
X43042Y26719D01*
X43435Y26850D01*
X43698D01*
X43960Y26719D01*
X44222Y26456D01*
X44354Y26063D01*
Y25800D01*
X44222Y25407D01*
X43960Y25144D01*
X43698Y25013D01*
X43435D02*
X43173Y25144D01*
X42910Y25407D01*
X42779Y25800D01*
Y26063D01*
X42910Y26456D01*
X43173Y26719D01*
X43435Y26850D01*
X41585Y27768D02*
X41716Y27637D01*
X41585Y27506D01*
X41454Y27637D01*
X41585Y27768D01*
X41454Y26850D02*
Y24488D01*
X41585Y24226D01*
X41848Y24094D01*
X42110D01*
X42241Y24226D01*
Y24357D01*
X42110Y24488D01*
X41979Y24357D01*
X42110Y24226D01*
X41585Y26850D02*
Y24488D01*
X41716Y24226D01*
X41848Y24094D01*
X41979Y26850D02*
X41454D01*
X40811Y26063D02*
X39237D01*
Y26325D01*
X39368Y26587D01*
X39499Y26719D01*
X39761Y26850D01*
X40155D01*
X40549Y26719D01*
X40811Y26456D01*
X40942Y26063D01*
Y25800D01*
X40811Y25407D01*
X40549Y25144D01*
X40155Y25013D01*
X39893D01*
X39499Y25144D01*
X39237Y25407D01*
X39368Y26063D02*
Y26456D01*
X39499Y26719D01*
X40155Y26850D02*
X40417Y26719D01*
X40680Y26456D01*
X40811Y26063D01*
Y25800D01*
X40680Y25407D01*
X40417Y25144D01*
X40155Y25013D01*
X37242Y26456D02*
X37373Y26325D01*
X37242Y26194D01*
X37111Y26325D01*
Y26456D01*
X37373Y26719D01*
X37636Y26850D01*
X38029D01*
X38423Y26719D01*
X38685Y26456D01*
X38817Y26063D01*
Y25800D01*
X38685Y25407D01*
X38423Y25144D01*
X38029Y25013D01*
X37767D01*
X37373Y25144D01*
X37111Y25407D01*
X38029Y26850D02*
X38292Y26719D01*
X38554Y26456D01*
X38685Y26063D01*
Y25800D01*
X38554Y25407D01*
X38292Y25144D01*
X38029Y25013D01*
X35904D02*
X36035Y25144D01*
X36166Y25538D01*
Y27768D01*
X36298D01*
Y25538D01*
X36166Y25144D01*
X35904Y25013D01*
X35641D01*
X35379Y25144D01*
X35248Y25407D01*
X36691Y26850D02*
X35641D01*
X106150Y33464D02*
X106405Y33336D01*
X106533Y33209D01*
X106660Y32954D01*
Y32699D01*
X106533Y32444D01*
X106405Y32317D01*
X106150Y32189D01*
X105896D01*
X105641Y32317D01*
X105513Y32444D01*
X105386Y32699D01*
Y32954D01*
X105513Y33209D01*
X105641Y33336D01*
X105896Y33464D01*
X106150D01*
X106405Y33336D02*
X106533Y33082D01*
Y32572D01*
X106405Y32317D01*
X105641D02*
X105513Y32572D01*
Y33082D01*
X105641Y33336D01*
X105513Y33209D02*
X105386Y33336D01*
X105131Y33464D01*
Y33336D01*
X105386D01*
X106533Y32444D02*
X106660Y32317D01*
X106788Y32062D01*
Y31934D01*
X106660Y31680D01*
X106278Y31552D01*
X105641D01*
X105258Y31425D01*
X105131Y31297D01*
X106788Y31934D02*
X106660Y31807D01*
X106278Y31680D01*
X105641D01*
X105258Y31552D01*
X105131Y31297D01*
Y31170D01*
X105258Y30915D01*
X105641Y30787D01*
X106405D01*
X106788Y30915D01*
X106915Y31170D01*
Y31297D01*
X106788Y31552D01*
X106405Y31680D01*
X104353Y34356D02*
X104481Y34229D01*
X104353Y34101D01*
X104226Y34229D01*
X104353Y34356D01*
Y33464D02*
Y31680D01*
X104226Y33464D02*
Y31680D01*
X104736Y33464D02*
X104226D01*
X104736Y31680D02*
X103843D01*
X102594D02*
X102722Y31807D01*
X102849Y32189D01*
Y34356D01*
X102977D01*
Y32189D01*
X102849Y31807D01*
X102594Y31680D01*
X102339D01*
X102085Y31807D01*
X101957Y32062D01*
X103359Y33464D02*
X102339D01*
X101141Y34356D02*
Y31680D01*
X101014Y34356D02*
Y31680D01*
Y33082D02*
X100759Y33336D01*
X100377Y33464D01*
X100122D01*
X99739Y33336D01*
X99612Y33082D01*
Y31680D01*
X100122Y33464D02*
X99867Y33336D01*
X99739Y33082D01*
Y31680D01*
X101524Y34356D02*
X101014D01*
X101524Y31680D02*
X100632D01*
X100122D02*
X99230D01*
X98503Y33464D02*
Y32062D01*
X98376Y31807D01*
X97993Y31680D01*
X97738D01*
X97356Y31807D01*
X97101Y32062D01*
X98376Y33464D02*
Y32062D01*
X98248Y31807D01*
X97993Y31680D01*
X97101Y33464D02*
Y31680D01*
X96974Y33464D02*
Y31680D01*
X98885Y33464D02*
X98376D01*
X97483D02*
X96974D01*
X97101Y31680D02*
X96591D01*
X95865Y34356D02*
Y31680D01*
X95737Y34356D02*
Y31680D01*
Y33082D02*
X95482Y33336D01*
X95227Y33464D01*
X94972D01*
X94590Y33336D01*
X94335Y33082D01*
X94208Y32699D01*
Y32444D01*
X94335Y32062D01*
X94590Y31807D01*
X94972Y31680D01*
X95227D01*
X95482Y31807D01*
X95737Y32062D01*
X94972Y33464D02*
X94718Y33336D01*
X94463Y33082D01*
X94335Y32699D01*
Y32444D01*
X94463Y32062D01*
X94718Y31807D01*
X94972Y31680D01*
X96247Y34356D02*
X95737D01*
X93711Y31934D02*
X93838Y31807D01*
X93711Y31680D01*
X93583Y31807D01*
X93711Y31934D01*
X91506Y33082D02*
X91633Y32954D01*
X91506Y32827D01*
X91378Y32954D01*
Y33082D01*
X91633Y33336D01*
X91888Y33464D01*
X92270D01*
X92653Y33336D01*
X92908Y33082D01*
X93035Y32699D01*
Y32444D01*
X92908Y32062D01*
X92653Y31807D01*
X92270Y31680D01*
X92015D01*
X91633Y31807D01*
X91378Y32062D01*
X92270Y33464D02*
X92525Y33336D01*
X92780Y33082D01*
X92908Y32699D01*
Y32444D01*
X92780Y32062D01*
X92525Y31807D01*
X92270Y31680D01*
X90206Y33464D02*
X90588Y33336D01*
X90843Y33082D01*
X90970Y32699D01*
Y32444D01*
X90843Y32062D01*
X90588Y31807D01*
X90206Y31680D01*
X89951D01*
X89568Y31807D01*
X89313Y32062D01*
X89186Y32444D01*
Y32699D01*
X89313Y33082D01*
X89568Y33336D01*
X89951Y33464D01*
X90206D01*
X90460Y33336D01*
X90715Y33082D01*
X90843Y32699D01*
Y32444D01*
X90715Y32062D01*
X90460Y31807D01*
X90206Y31680D01*
X89951D02*
X89696Y31807D01*
X89441Y32062D01*
X89313Y32444D01*
Y32699D01*
X89441Y33082D01*
X89696Y33336D01*
X89951Y33464D01*
X88408D02*
Y31680D01*
X88281Y33464D02*
Y31680D01*
Y33082D02*
X88026Y33336D01*
X87644Y33464D01*
X87389D01*
X87006Y33336D01*
X86879Y33082D01*
Y31680D01*
X87389Y33464D02*
X87134Y33336D01*
X87006Y33082D01*
Y31680D01*
X86879Y33082D02*
X86624Y33336D01*
X86242Y33464D01*
X85987D01*
X85604Y33336D01*
X85477Y33082D01*
Y31680D01*
X85987Y33464D02*
X85732Y33336D01*
X85604Y33082D01*
Y31680D01*
X88791Y33464D02*
X88281D01*
X88791Y31680D02*
X87899D01*
X87389D02*
X86497D01*
X85987D02*
X85095D01*
X82469Y33846D02*
X84636Y31680D01*
X84891D01*
X82214Y34356D01*
X81959D01*
X82469Y33846D01*
X80748Y33209D02*
X80621Y33464D01*
Y32954D01*
X80748Y33209D01*
X80876Y33336D01*
X81131Y33464D01*
X81640D01*
X81895Y33336D01*
X82023Y33209D01*
Y32954D01*
X81895Y32827D01*
X81640Y32699D01*
X81003Y32444D01*
X80748Y32317D01*
X80621Y32189D01*
X82023Y33082D02*
X81895Y32954D01*
X81640Y32827D01*
X81003Y32572D01*
X80748Y32444D01*
X80621Y32317D01*
Y31934D01*
X80748Y31807D01*
X81003Y31680D01*
X81513D01*
X81768Y31807D01*
X81895Y31934D01*
X82023Y32189D01*
Y31680D01*
X81895Y31934D01*
X79933Y33209D02*
Y33082D01*
X80060D01*
Y33209D01*
X79933Y33336D01*
X79678Y33464D01*
X79168D01*
X78913Y33336D01*
X78786Y33209D01*
X78658Y32954D01*
Y32062D01*
X78531Y31807D01*
X78403Y31680D01*
X78786Y33209D02*
Y32062D01*
X78658Y31807D01*
X78403Y31680D01*
X78276D01*
X78786Y32954D02*
X78913Y32827D01*
X79678Y32699D01*
X80060Y32572D01*
X80187Y32317D01*
Y32062D01*
X80060Y31807D01*
X79678Y31680D01*
X79295D01*
X79040Y31807D01*
X78786Y32062D01*
X79678Y32699D02*
X79933Y32572D01*
X80060Y32317D01*
Y32062D01*
X79933Y31807D01*
X79678Y31680D01*
X77511Y33464D02*
Y31680D01*
X77383Y33464D02*
Y31680D01*
Y33082D02*
X77128Y33336D01*
X76746Y33464D01*
X76491D01*
X76109Y33336D01*
X75981Y33082D01*
Y31680D01*
X76491Y33464D02*
X76236Y33336D01*
X76109Y33082D01*
Y31680D01*
X75981Y33082D02*
X75726Y33336D01*
X75344Y33464D01*
X75089D01*
X74707Y33336D01*
X74579Y33082D01*
Y31680D01*
X75089Y33464D02*
X74834Y33336D01*
X74707Y33082D01*
Y31680D01*
X77893Y33464D02*
X77383D01*
X77893Y31680D02*
X77001D01*
X76491D02*
X75599D01*
X75089D02*
X74197D01*
X73738Y33464D02*
X72973Y31680D01*
X73611Y33464D02*
X72973Y31934D01*
X72209Y33464D02*
X72973Y31680D01*
X73228Y31170D01*
X73483Y30915D01*
X73738Y30787D01*
X73866D01*
X73993Y30915D01*
X73866Y31042D01*
X73738Y30915D01*
X73993Y33464D02*
X73228D01*
X72719D02*
X71954D01*
X71329Y33209D02*
Y33082D01*
X71457D01*
Y33209D01*
X71329Y33336D01*
X71074Y33464D01*
X70565D01*
X70310Y33336D01*
X70182Y33209D01*
X70055Y32954D01*
Y32062D01*
X69927Y31807D01*
X69800Y31680D01*
X70182Y33209D02*
Y32062D01*
X70055Y31807D01*
X69800Y31680D01*
X69672D01*
X70182Y32954D02*
X70310Y32827D01*
X71074Y32699D01*
X71457Y32572D01*
X71584Y32317D01*
Y32062D01*
X71457Y31807D01*
X71074Y31680D01*
X70692D01*
X70437Y31807D01*
X70182Y32062D01*
X71074Y32699D02*
X71329Y32572D01*
X71457Y32317D01*
Y32062D01*
X71329Y31807D01*
X71074Y31680D01*
X68907Y33464D02*
Y31680D01*
X68780Y33464D02*
Y31680D01*
Y32699D02*
X68653Y33082D01*
X68398Y33336D01*
X68143Y33464D01*
X67760D01*
X67633Y33336D01*
Y33209D01*
X67760Y33082D01*
X67888Y33209D01*
X67760Y33336D01*
X69290Y33464D02*
X68780D01*
X69290Y31680D02*
X68398D01*
X65951Y33209D02*
X65823Y33464D01*
Y32954D01*
X65951Y33209D01*
X66078Y33336D01*
X66333Y33464D01*
X66843D01*
X67098Y33336D01*
X67225Y33209D01*
Y32954D01*
X67098Y32827D01*
X66843Y32699D01*
X66205Y32444D01*
X65951Y32317D01*
X65823Y32189D01*
X67225Y33082D02*
X67098Y32954D01*
X66843Y32827D01*
X66205Y32572D01*
X65951Y32444D01*
X65823Y32317D01*
Y31934D01*
X65951Y31807D01*
X66205Y31680D01*
X66715D01*
X66970Y31807D01*
X67098Y31934D01*
X67225Y32189D01*
Y31680D01*
X67098Y31934D01*
X65135Y33209D02*
Y33082D01*
X65262D01*
Y33209D01*
X65135Y33336D01*
X64880Y33464D01*
X64370D01*
X64115Y33336D01*
X63988Y33209D01*
X63860Y32954D01*
Y32062D01*
X63733Y31807D01*
X63605Y31680D01*
X63988Y33209D02*
Y32062D01*
X63860Y31807D01*
X63605Y31680D01*
X63478D01*
X63988Y32954D02*
X64115Y32827D01*
X64880Y32699D01*
X65262Y32572D01*
X65390Y32317D01*
Y32062D01*
X65262Y31807D01*
X64880Y31680D01*
X64498D01*
X64243Y31807D01*
X63988Y32062D01*
X64880Y32699D02*
X65135Y32572D01*
X65262Y32317D01*
Y32062D01*
X65135Y31807D01*
X64880Y31680D01*
X61566Y34356D02*
Y31680D01*
X61439Y34356D02*
Y31680D01*
X61566Y33082D02*
X61821Y33336D01*
X62076Y33464D01*
X62331D01*
X62713Y33336D01*
X62968Y33082D01*
X63095Y32699D01*
Y32444D01*
X62968Y32062D01*
X62713Y31807D01*
X62331Y31680D01*
X62076D01*
X61821Y31807D01*
X61566Y32062D01*
X62331Y33464D02*
X62586Y33336D01*
X62841Y33082D01*
X62968Y32699D01*
Y32444D01*
X62841Y32062D01*
X62586Y31807D01*
X62331Y31680D01*
X61948Y34356D02*
X61439D01*
X61566Y31680D02*
X61056D01*
X60432Y33209D02*
Y33082D01*
X60559D01*
Y33209D01*
X60432Y33336D01*
X60177Y33464D01*
X59667D01*
X59412Y33336D01*
X59285Y33209D01*
X59157Y32954D01*
Y32062D01*
X59030Y31807D01*
X58902Y31680D01*
X59285Y33209D02*
Y32062D01*
X59157Y31807D01*
X58902Y31680D01*
X58775D01*
X59285Y32954D02*
X59412Y32827D01*
X60177Y32699D01*
X60559Y32572D01*
X60687Y32317D01*
Y32062D01*
X60559Y31807D01*
X60177Y31680D01*
X59794D01*
X59539Y31807D01*
X59285Y32062D01*
X60177Y32699D02*
X60432Y32572D01*
X60559Y32317D01*
Y32062D01*
X60432Y31807D01*
X60177Y31680D01*
X57628D02*
X57755Y31807D01*
X57882Y32189D01*
Y34356D01*
X58010D01*
Y32189D01*
X57882Y31807D01*
X57628Y31680D01*
X57373D01*
X57118Y31807D01*
X56990Y32062D01*
X58392Y33464D02*
X57373D01*
X54135Y33846D02*
X56302Y31680D01*
X56557D01*
X53880Y34356D01*
X53625D01*
X54135Y33846D01*
X53307Y34356D02*
Y31680D01*
X53179Y34356D02*
Y31680D01*
X53689Y34356D02*
X52160D01*
X51777Y34229D01*
X51650Y34101D01*
X51522Y33846D01*
Y33591D01*
X51650Y33336D01*
X51777Y33209D01*
X52160Y33082D01*
X53179D01*
X52160Y34356D02*
X51905Y34229D01*
X51777Y34101D01*
X51650Y33846D01*
Y33591D01*
X51777Y33336D01*
X51905Y33209D01*
X52160Y33082D01*
X53689Y31680D02*
X52797D01*
X52542Y33082D02*
X52287Y32954D01*
X52160Y32827D01*
X51777Y31934D01*
X51650Y31807D01*
X51522D01*
X51395Y31934D01*
X52287Y32954D02*
X52160Y32699D01*
X51905Y31807D01*
X51777Y31680D01*
X51522D01*
X51395Y31934D01*
Y32062D01*
X50159Y34356D02*
X50541Y34229D01*
X50796Y33974D01*
X50923Y33719D01*
X51051Y33209D01*
Y32827D01*
X50923Y32317D01*
X50796Y32062D01*
X50541Y31807D01*
X50159Y31680D01*
X49904D01*
X49521Y31807D01*
X49266Y32062D01*
X49139Y32317D01*
X49011Y32827D01*
Y33209D01*
X49139Y33719D01*
X49266Y33974D01*
X49521Y34229D01*
X49904Y34356D01*
X50159D01*
X50414Y34229D01*
X50668Y33974D01*
X50796Y33719D01*
X50923Y33209D01*
Y32827D01*
X50796Y32317D01*
X50668Y32062D01*
X50414Y31807D01*
X50159Y31680D01*
X49904D02*
X49649Y31807D01*
X49394Y32062D01*
X49266Y32317D01*
X49139Y32827D01*
Y33209D01*
X49266Y33719D01*
X49394Y33974D01*
X49649Y34229D01*
X49904Y34356D01*
X46985Y33974D02*
X46858Y34356D01*
Y33591D01*
X46985Y33974D01*
X47240Y34229D01*
X47622Y34356D01*
X48005D01*
X48387Y34229D01*
X48642Y33974D01*
Y33719D01*
X48514Y33464D01*
X48387Y33336D01*
X48132Y33209D01*
X47367Y32954D01*
X47112Y32827D01*
X46858Y32572D01*
X48642Y33719D02*
X48387Y33464D01*
X48132Y33336D01*
X47367Y33082D01*
X47112Y32954D01*
X46985Y32827D01*
X46858Y32572D01*
Y32062D01*
X47112Y31807D01*
X47495Y31680D01*
X47877D01*
X48259Y31807D01*
X48514Y32062D01*
X48642Y32444D01*
Y31680D01*
X48514Y32062D01*
X46462Y32827D02*
X44168D01*
X43442Y34356D02*
Y31680D01*
X43314Y34356D02*
Y31680D01*
X43824Y34356D02*
X42294D01*
X41912Y34229D01*
X41785Y34101D01*
X41657Y33846D01*
Y33591D01*
X41785Y33336D01*
X41912Y33209D01*
X42294Y33082D01*
X43314D01*
X42294Y34356D02*
X42040Y34229D01*
X41912Y34101D01*
X41785Y33846D01*
Y33591D01*
X41912Y33336D01*
X42040Y33209D01*
X42294Y33082D01*
X43824Y31680D02*
X42932D01*
X42677Y33082D02*
X42422Y32954D01*
X42294Y32827D01*
X41912Y31934D01*
X41785Y31807D01*
X41657D01*
X41530Y31934D01*
X42422Y32954D02*
X42294Y32699D01*
X42040Y31807D01*
X41912Y31680D01*
X41657D01*
X41530Y31934D01*
Y32062D01*
X40421Y33464D02*
X40803Y33336D01*
X41058Y33082D01*
X41186Y32699D01*
Y32444D01*
X41058Y32062D01*
X40803Y31807D01*
X40421Y31680D01*
X40166D01*
X39784Y31807D01*
X39529Y32062D01*
X39401Y32444D01*
Y32699D01*
X39529Y33082D01*
X39784Y33336D01*
X40166Y33464D01*
X40421D01*
X40676Y33336D01*
X40931Y33082D01*
X41058Y32699D01*
Y32444D01*
X40931Y32062D01*
X40676Y31807D01*
X40421Y31680D01*
X40166D02*
X39911Y31807D01*
X39656Y32062D01*
X39529Y32444D01*
Y32699D01*
X39656Y33082D01*
X39911Y33336D01*
X40166Y33464D01*
X38624Y34356D02*
Y31680D01*
X38496Y34356D02*
Y31680D01*
Y33082D02*
X38241Y33336D01*
X37986Y33464D01*
X37732D01*
X37349Y33336D01*
X37094Y33082D01*
X36967Y32699D01*
Y32444D01*
X37094Y32062D01*
X37349Y31807D01*
X37732Y31680D01*
X37986D01*
X38241Y31807D01*
X38496Y32062D01*
X37732Y33464D02*
X37477Y33336D01*
X37222Y33082D01*
X37094Y32699D01*
Y32444D01*
X37222Y32062D01*
X37477Y31807D01*
X37732Y31680D01*
X39006Y34356D02*
X38496D01*
X35833Y33464D02*
X36215Y33336D01*
X36470Y33082D01*
X36597Y32699D01*
Y32444D01*
X36470Y32062D01*
X36215Y31807D01*
X35833Y31680D01*
X35577D01*
X35195Y31807D01*
X34940Y32062D01*
X34813Y32444D01*
Y32699D01*
X34940Y33082D01*
X35195Y33336D01*
X35577Y33464D01*
X35833D01*
X36087Y33336D01*
X36342Y33082D01*
X36470Y32699D01*
Y32444D01*
X36342Y32062D01*
X36087Y31807D01*
X35833Y31680D01*
X35577D02*
X35323Y31807D01*
X35068Y32062D01*
X34940Y32444D01*
Y32699D01*
X35068Y33082D01*
X35323Y33336D01*
X35577Y33464D01*
X33653Y31680D02*
X33780Y31807D01*
X33908Y32189D01*
Y34356D01*
X34035D01*
Y32189D01*
X33908Y31807D01*
X33653Y31680D01*
X33398D01*
X33143Y31807D01*
X33016Y32062D01*
X34418Y33464D02*
X33398D01*
X32582Y32827D02*
X30288D01*
X29562Y34356D02*
Y31680D01*
X29434Y34356D02*
Y31680D01*
X27905Y34356D02*
Y31680D01*
X27777Y34356D02*
Y31680D01*
X29944Y34356D02*
X29052D01*
X28287D02*
X27395D01*
X29434Y33082D02*
X27905D01*
X29944Y31680D02*
X29052D01*
X28287D02*
X27395D01*
X26821Y33209D02*
Y33082D01*
X26949D01*
Y33209D01*
X26821Y33336D01*
X26566Y33464D01*
X26057D01*
X25802Y33336D01*
X25674Y33209D01*
X25547Y32954D01*
Y32062D01*
X25419Y31807D01*
X25292Y31680D01*
X25674Y33209D02*
Y32062D01*
X25547Y31807D01*
X25292Y31680D01*
X25164D01*
X25674Y32954D02*
X25802Y32827D01*
X26566Y32699D01*
X26949Y32572D01*
X27076Y32317D01*
Y32062D01*
X26949Y31807D01*
X26566Y31680D01*
X26184D01*
X25929Y31807D01*
X25674Y32062D01*
X26566Y32699D02*
X26821Y32572D01*
X26949Y32317D01*
Y32062D01*
X26821Y31807D01*
X26566Y31680D01*
X24400Y33464D02*
Y31680D01*
X24272Y33464D02*
Y31680D01*
Y32699D02*
X24145Y33082D01*
X23890Y33336D01*
X23635Y33464D01*
X23252D01*
X23125Y33336D01*
Y33209D01*
X23252Y33082D01*
X23380Y33209D01*
X23252Y33336D01*
X24782Y33464D02*
X24272D01*
X24782Y31680D02*
X23890D01*
X21188Y34356D02*
Y31680D01*
X21060Y34356D02*
Y31680D01*
X21188Y33082D02*
X21443Y33336D01*
X21698Y33464D01*
X21952D01*
X22335Y33336D01*
X22590Y33082D01*
X22717Y32699D01*
Y32444D01*
X22590Y32062D01*
X22335Y31807D01*
X21952Y31680D01*
X21698D01*
X21443Y31807D01*
X21188Y32062D01*
X21952Y33464D02*
X22207Y33336D01*
X22462Y33082D01*
X22590Y32699D01*
Y32444D01*
X22462Y32062D01*
X22207Y31807D01*
X21952Y31680D01*
X21570Y34356D02*
X21060D01*
X21188Y31680D02*
X20678D01*
X19926Y33464D02*
X19416Y31680D01*
X19798Y33464D02*
X19416Y32062D01*
X18906Y33464D02*
X19416Y31680D01*
X18906Y33464D02*
X18396Y31680D01*
X18779Y33464D02*
X18396Y32062D01*
X17887Y33464D02*
X18396Y31680D01*
X20308Y33464D02*
X19416D01*
X18269D02*
X17504D01*
X16956Y33209D02*
Y33082D01*
X17084D01*
Y33209D01*
X16956Y33336D01*
X16701Y33464D01*
X16191D01*
X15936Y33336D01*
X15809Y33209D01*
X15682Y32954D01*
Y32062D01*
X15554Y31807D01*
X15427Y31680D01*
X15809Y33209D02*
Y32062D01*
X15682Y31807D01*
X15427Y31680D01*
X15299D01*
X15809Y32954D02*
X15936Y32827D01*
X16701Y32699D01*
X17084Y32572D01*
X17211Y32317D01*
Y32062D01*
X17084Y31807D01*
X16701Y31680D01*
X16319D01*
X16064Y31807D01*
X15809Y32062D01*
X16701Y32699D02*
X16956Y32572D01*
X17084Y32317D01*
Y32062D01*
X16956Y31807D01*
X16701Y31680D01*
X14534Y33464D02*
Y31680D01*
X14407Y33464D02*
Y31680D01*
Y32699D02*
X14279Y33082D01*
X14025Y33336D01*
X13770Y33464D01*
X13387D01*
X13260Y33336D01*
Y33209D01*
X13387Y33082D01*
X13515Y33209D01*
X13387Y33336D01*
X14917Y33464D02*
X14407D01*
X14917Y31680D02*
X14025D01*
X12724Y32699D02*
X11195D01*
Y32954D01*
X11322Y33209D01*
X11450Y33336D01*
X11705Y33464D01*
X12087D01*
X12470Y33336D01*
X12724Y33082D01*
X12852Y32699D01*
Y32444D01*
X12724Y32062D01*
X12470Y31807D01*
X12087Y31680D01*
X11832D01*
X11450Y31807D01*
X11195Y32062D01*
X11322Y32699D02*
Y33082D01*
X11450Y33336D01*
X12087Y33464D02*
X12342Y33336D01*
X12597Y33082D01*
X12724Y32699D01*
Y32444D01*
X12597Y32062D01*
X12342Y31807D01*
X12087Y31680D01*
M02*
