M48
;Layer_Color=9474304
;FILE_FORMAT=2:5
INCH,TZ
;TYPE=PLATED
T01F00S00C0.00787
T02F00S00C0.01181
T03F00S00C0.08465
%
T01
X7874Y31496
Y39370
X15748
X23622
Y47244
Y55118
Y62992
X31496
X47244
X42500Y49000
X42000Y43500
X39370Y39370
Y23622
X47244
X39370Y15748
Y7874
X53150Y12500
X57087
X61024
X64961
X78740Y7874
Y23622
X86614Y31496
Y39370
Y47244
X79500Y45500
X76000Y38500
X70000Y40000
X67878Y42224
X63996Y47000
X59375Y46125
X52500
X7874Y47244
Y55118
Y62992
X15748
X102362
X110236
Y55118
Y47244
Y39370
Y31496
X102362
Y39370
T02
X29466Y51343
X68898Y12500
T03
X15748Y49213
X102362
M30
