M48
;Layer_Color=9474304
;FILE_FORMAT=2:5
INCH,TZ
;TYPE=PLATED
T01F00S00C0.03543
T02F00S00C0.03937
T03F00S00C0.04016
T04F00S00C0.10236
;TYPE=NON_PLATED
T05F00S00C0.03543
T06F00S00C0.04016
T07F00S00C0.04921
%
T01
X706500Y117736
Y127579
Y137421
Y147264
X781500Y243000
Y252842
Y262685
X653500Y265685
Y255842
Y246000
X551000Y246736
Y256579
Y266421
Y276264
Y286106
X518500
Y276264
Y266421
Y256579
Y246736
Y236894
X551000
X471000Y181000
X461158
X451315
X353500Y429736
Y439579
Y449421
Y459264
X358500Y498736
Y508579
Y518421
Y528264
Y567736
Y577579
Y587421
Y597264
X359000Y636736
Y646579
Y656421
Y666264
T02
X616000Y84500
Y94342
X664657Y86500
X674500
X666421Y199000
X656579
X145421Y208500
X135579
X215079Y425000
X224921
X220079Y468000
X229921
X736579Y529500
X746421
Y572500
X736579
X737079Y615500
X746921
X230421Y554000
X220579
X220079Y511000
X229921
T03
X299000Y10000
Y20000
Y30000
Y40000
X300500Y63000
Y73000
Y83000
Y93000
X305500Y138000
Y148000
X790189Y183500
X802000
Y195311
X790189
X305500Y168000
Y158000
T04
X466000Y322000
X490000
X514000
X538000
T05
X187000Y21189
Y33000
X241000Y90095
Y101906
Y154095
Y165905
T06
X813811Y199012
X778378
T07
X307504Y20000
X309004Y73000
X314004Y148000
M30
