G04*
G04 #@! TF.GenerationSoftware,Altium Limited,Altium Designer,26.7.1 (11)*
G04*
G04 Layer_Color=8421504*
G04 Board_Origin=0|0*
%FSLAX25Y25*%
%MOIN*%
G70*
G04*
G04 #@! TF.SameCoordinates,CABA3DA7-016B-4E50-8321-5EC41EE3296A*
G04*
G04*
G04 #@! TF.FilePolarity,Positive*
G04*
G01*
G75*
%ADD17R,0.09449X0.06102*%
%ADD18R,0.04724X0.06299*%
%ADD19R,0.03347X0.03740*%
%ADD20R,0.04724X0.04724*%
%ADD21R,0.03543X0.03937*%
%ADD22R,0.04724X0.06496*%
%ADD23R,0.03827X0.03158*%
%ADD24R,0.07087X0.15354*%
%ADD25R,0.05118X0.17717*%
%ADD26R,0.12402X0.09646*%
%ADD27R,0.03543X0.03150*%
%ADD28R,0.01968X0.00984*%
%ADD29R,0.06102X0.02362*%
%ADD30R,0.07087X0.04724*%
%ADD31R,0.02362X0.06102*%
%ADD32R,0.04724X0.07087*%
%ADD33R,0.02461X0.03268*%
%ADD34R,0.02756X0.03937*%
%ADD35R,0.04724X0.02362*%
%ADD36R,0.14370X0.06299*%
%ADD37R,0.01575X0.02756*%
%ADD38R,0.00803X0.02981*%
%ADD39R,0.02981X0.00803*%
%ADD40R,0.11400X0.11400*%
G36*
X240094Y284234D02*
X235181D01*
Y289147D01*
X240094D01*
Y284234D01*
D02*
G37*
G36*
X234394D02*
X229481D01*
Y289147D01*
X234394D01*
Y284234D01*
D02*
G37*
G36*
X240094Y278534D02*
X235181D01*
Y283447D01*
X240094D01*
Y278534D01*
D02*
G37*
G36*
X234394D02*
X229481D01*
Y283447D01*
X234394D01*
Y278534D01*
D02*
G37*
G36*
X323652Y268043D02*
X322470D01*
Y270287D01*
X323652D01*
Y268043D01*
D02*
G37*
G36*
X321093D02*
X319911D01*
Y270287D01*
X321093D01*
Y268043D01*
D02*
G37*
G36*
X318533D02*
X317352D01*
Y270287D01*
X318533D01*
Y268043D01*
D02*
G37*
G36*
X315974D02*
X314793D01*
Y270287D01*
X315974D01*
Y268043D01*
D02*
G37*
G36*
X323809Y265957D02*
X319478D01*
Y267453D01*
X323809D01*
Y265957D01*
D02*
G37*
G36*
X318967D02*
X314636D01*
Y267453D01*
X318967D01*
Y265957D01*
D02*
G37*
G36*
X323809Y263870D02*
X319478D01*
Y265366D01*
X323809D01*
Y263870D01*
D02*
G37*
G36*
X318967D02*
X314636D01*
Y265366D01*
X318967D01*
Y263870D01*
D02*
G37*
G36*
X320935Y261311D02*
X314636D01*
Y263280D01*
X320935D01*
Y261311D01*
D02*
G37*
G36*
X326463Y260563D02*
X324809D01*
Y262138D01*
X326463D01*
Y260563D01*
D02*
G37*
G36*
X324219D02*
X322565D01*
Y262138D01*
X324219D01*
Y260563D01*
D02*
G37*
G36*
X323652Y257610D02*
X319478D01*
Y258476D01*
X323652D01*
Y257610D01*
D02*
G37*
G36*
X318967D02*
X314793D01*
Y258476D01*
X318967D01*
Y257610D01*
D02*
G37*
G36*
X323652Y255524D02*
X322470D01*
Y257098D01*
X323652D01*
Y255524D01*
D02*
G37*
G36*
X321093D02*
X319911D01*
Y257098D01*
X321093D01*
Y255524D01*
D02*
G37*
G36*
X318533D02*
X317352D01*
Y257098D01*
X318533D01*
Y255524D01*
D02*
G37*
G36*
X315974D02*
X314793D01*
Y257098D01*
X315974D01*
Y255524D01*
D02*
G37*
G36*
X323992Y248402D02*
X322811D01*
Y249976D01*
X323992D01*
Y248402D01*
D02*
G37*
G36*
X321433D02*
X320252D01*
Y249976D01*
X321433D01*
Y248402D01*
D02*
G37*
G36*
X318874D02*
X317693D01*
Y249976D01*
X318874D01*
Y248402D01*
D02*
G37*
G36*
X316315D02*
X315134D01*
Y249976D01*
X316315D01*
Y248402D01*
D02*
G37*
G36*
X323992Y247024D02*
X319819D01*
Y247890D01*
X323992D01*
Y247024D01*
D02*
G37*
G36*
X319307D02*
X315134D01*
Y247890D01*
X319307D01*
Y247024D01*
D02*
G37*
G36*
X316220Y243362D02*
X314567D01*
Y244937D01*
X316220D01*
Y243362D01*
D02*
G37*
G36*
X313976D02*
X312323D01*
Y244937D01*
X313976D01*
Y243362D01*
D02*
G37*
G36*
X324150Y242220D02*
X317850D01*
Y244189D01*
X324150D01*
Y242220D01*
D02*
G37*
G36*
Y240134D02*
X319819D01*
Y241630D01*
X324150D01*
Y240134D01*
D02*
G37*
G36*
X319307D02*
X314976D01*
Y241630D01*
X319307D01*
Y240134D01*
D02*
G37*
G36*
X324150Y238047D02*
X319819D01*
Y239543D01*
X324150D01*
Y238047D01*
D02*
G37*
G36*
X319307D02*
X314976D01*
Y239543D01*
X319307D01*
Y238047D01*
D02*
G37*
G36*
X323992Y235213D02*
X322811D01*
Y237457D01*
X323992D01*
Y235213D01*
D02*
G37*
G36*
X321433D02*
X320252D01*
Y237457D01*
X321433D01*
Y235213D01*
D02*
G37*
G36*
X318874D02*
X317693D01*
Y237457D01*
X318874D01*
Y235213D01*
D02*
G37*
G36*
X316315D02*
X315134D01*
Y237457D01*
X316315D01*
Y235213D01*
D02*
G37*
G36*
X438421Y127130D02*
X435059D01*
Y132902D01*
X438421D01*
Y127130D01*
D02*
G37*
G36*
X375264Y52064D02*
X375683Y51927D01*
X376079Y51734D01*
X376444Y51488D01*
X376771Y51193D01*
X377054Y50856D01*
X377288Y50482D01*
X377467Y50080D01*
X377588Y49656D01*
X377650Y49220D01*
Y48780D01*
X377588Y48344D01*
X377467Y47920D01*
X377288Y47518D01*
X377054Y47144D01*
X376771Y46807D01*
X376444Y46512D01*
X376079Y46266D01*
X375683Y46073D01*
X375264Y45937D01*
X375047Y45898D01*
X375047D01*
X375047Y52102D01*
X375264Y52064D01*
D02*
G37*
G36*
X373953Y45898D02*
X373736Y45937D01*
X373317Y46073D01*
X372921Y46266D01*
X372556Y46512D01*
X372229Y46807D01*
X371946Y47144D01*
X371712Y47518D01*
X371533Y47920D01*
X371412Y48344D01*
X371350Y48780D01*
X371350Y49220D01*
X371412Y49656D01*
X371533Y50080D01*
X371712Y50482D01*
X371946Y50856D01*
X372229Y51193D01*
X372556Y51488D01*
X372921Y51734D01*
X373317Y51927D01*
X373736Y52064D01*
X373953Y52102D01*
X373953D01*
X373953Y45898D01*
D02*
G37*
D17*
X368000Y74500D02*
D03*
Y84146D02*
D03*
D18*
X359535Y79323D02*
D03*
D19*
X643941Y27000D02*
D03*
X649059D02*
D03*
X480941Y10000D02*
D03*
X486059D02*
D03*
X492000Y28000D02*
D03*
X497118D02*
D03*
X401000D02*
D03*
X406118D02*
D03*
X434500Y18000D02*
D03*
X439618D02*
D03*
X413941Y17500D02*
D03*
X419059D02*
D03*
X403500Y55500D02*
D03*
X408618D02*
D03*
X415441Y106500D02*
D03*
X420559D02*
D03*
X464941D02*
D03*
X470059D02*
D03*
X497941D02*
D03*
X503059D02*
D03*
X513941D02*
D03*
X519059D02*
D03*
X530441D02*
D03*
X535559D02*
D03*
X437441Y58500D02*
D03*
X442559D02*
D03*
X613441D02*
D03*
X618559D02*
D03*
X687441D02*
D03*
X692559D02*
D03*
X719441D02*
D03*
X724559D02*
D03*
X661042Y101000D02*
D03*
X666160D02*
D03*
X750941Y58500D02*
D03*
X756059D02*
D03*
X465941Y24000D02*
D03*
X471059D02*
D03*
X449042Y23500D02*
D03*
X454160D02*
D03*
X543941Y10000D02*
D03*
X549059D02*
D03*
X574441D02*
D03*
X579559D02*
D03*
X559441D02*
D03*
X564559D02*
D03*
X589941D02*
D03*
X595059D02*
D03*
X466441D02*
D03*
X471559D02*
D03*
X497941D02*
D03*
X503059D02*
D03*
X512441D02*
D03*
X517559D02*
D03*
X539542Y21500D02*
D03*
X544660D02*
D03*
D20*
X650000Y48366D02*
D03*
Y56634D02*
D03*
X664000Y48366D02*
D03*
Y56634D02*
D03*
X677500Y48366D02*
D03*
Y56634D02*
D03*
D21*
X407657Y106000D02*
D03*
X402343D02*
D03*
X440158D02*
D03*
X434842D02*
D03*
X456658D02*
D03*
X451342D02*
D03*
X489657D02*
D03*
X484342D02*
D03*
X555158D02*
D03*
X549843D02*
D03*
X477658Y58000D02*
D03*
X472342D02*
D03*
X429157D02*
D03*
X423842D02*
D03*
X425157Y85000D02*
D03*
X419842D02*
D03*
X483157Y81500D02*
D03*
X477843D02*
D03*
X549157Y58000D02*
D03*
X543843D02*
D03*
X532657D02*
D03*
X527343D02*
D03*
X515658D02*
D03*
X510343D02*
D03*
X637657D02*
D03*
X632342D02*
D03*
X711657D02*
D03*
X706343D02*
D03*
X459709Y84000D02*
D03*
X454394D02*
D03*
X743157Y58000D02*
D03*
X737843D02*
D03*
X775157D02*
D03*
X769842D02*
D03*
X513209Y26000D02*
D03*
X507894D02*
D03*
X658157Y9500D02*
D03*
X652843D02*
D03*
X866158Y58000D02*
D03*
X860843D02*
D03*
X500157Y82000D02*
D03*
X494842D02*
D03*
X515709Y36500D02*
D03*
X510394D02*
D03*
X407657Y86500D02*
D03*
X402343D02*
D03*
X526158D02*
D03*
X520843D02*
D03*
X788658D02*
D03*
X783343D02*
D03*
X730158Y144500D02*
D03*
X724843D02*
D03*
D22*
X483488Y173000D02*
D03*
X494512D02*
D03*
X486988Y139000D02*
D03*
X498012D02*
D03*
X483988Y154000D02*
D03*
X495012D02*
D03*
D23*
X842516Y57740D02*
D03*
Y50260D02*
D03*
X849484Y54000D02*
D03*
X299016Y299740D02*
D03*
Y292260D02*
D03*
X305984Y296000D02*
D03*
D24*
X206638Y381858D02*
D03*
X261362D02*
D03*
D25*
X229079Y354299D02*
D03*
X238921D02*
D03*
X248764D02*
D03*
X219236D02*
D03*
D26*
X441500Y206205D02*
D03*
Y181795D02*
D03*
D27*
X477500Y40500D02*
D03*
X469626Y36760D02*
D03*
Y44240D02*
D03*
X423437Y38500D02*
D03*
X415563Y34760D02*
D03*
Y42240D02*
D03*
X460000Y43000D02*
D03*
X452126Y39260D02*
D03*
Y46740D02*
D03*
X813437Y54000D02*
D03*
X805563Y50260D02*
D03*
Y57740D02*
D03*
D28*
X433000Y132968D02*
D03*
Y131000D02*
D03*
Y129032D02*
D03*
Y127063D02*
D03*
X440480D02*
D03*
Y129032D02*
D03*
Y131000D02*
D03*
Y132968D02*
D03*
D29*
X725000Y186437D02*
D03*
Y182500D02*
D03*
D30*
X715059Y177382D02*
D03*
Y191555D02*
D03*
D31*
X711969Y95530D02*
D03*
X708032D02*
D03*
X620968Y73529D02*
D03*
X617031D02*
D03*
X471437Y216000D02*
D03*
X467500D02*
D03*
D32*
X702913Y105471D02*
D03*
X717087D02*
D03*
X611913Y83470D02*
D03*
X626087D02*
D03*
X462382Y225941D02*
D03*
X476555D02*
D03*
D33*
X786120Y57500D02*
D03*
X794880D02*
D03*
D34*
X593768Y37642D02*
D03*
Y55358D02*
D03*
X602232Y37642D02*
D03*
Y55358D02*
D03*
D35*
X498921Y57240D02*
D03*
Y49760D02*
D03*
X489079D02*
D03*
Y53500D02*
D03*
Y57240D02*
D03*
D36*
X285000Y288000D02*
D03*
Y263000D02*
D03*
D37*
X458878Y9500D02*
D03*
X456122D02*
D03*
X436878Y38500D02*
D03*
X434122D02*
D03*
X442878Y84000D02*
D03*
X440122D02*
D03*
X403878Y9500D02*
D03*
X401122D02*
D03*
D38*
X229275Y291681D02*
D03*
Y276000D02*
D03*
X230850D02*
D03*
X232425D02*
D03*
X234000D02*
D03*
X235575D02*
D03*
X237150D02*
D03*
X238725D02*
D03*
X240300D02*
D03*
Y291681D02*
D03*
X238725D02*
D03*
X237150D02*
D03*
X235575D02*
D03*
X234000D02*
D03*
X232425D02*
D03*
X230850D02*
D03*
D39*
X226947Y289353D02*
D03*
Y287778D02*
D03*
Y286203D02*
D03*
Y284628D02*
D03*
Y283053D02*
D03*
Y281478D02*
D03*
Y279903D02*
D03*
Y278328D02*
D03*
X242628D02*
D03*
Y279903D02*
D03*
Y281478D02*
D03*
Y283053D02*
D03*
Y284628D02*
D03*
Y286203D02*
D03*
Y287778D02*
D03*
Y289353D02*
D03*
D40*
X234788Y283840D02*
D03*
M02*
