M48
;Layer_Color=9474304
;FILE_FORMAT=2:5
INCH,TZ
;TYPE=PLATED
T01F00S00C0.01181
T02F00S00C0.05512
T03F00S00C0.07087
T04F00S00C0.08661
T05F00S00C0.10236
T06F00S00C0.10630
%
T01
X976500Y175669
Y180000
Y184331
X980831Y180000
X972169
X563000Y352425
Y355575
T02
X590500Y28000
Y47685
Y57528
Y67370
Y77213
Y87055
Y96898
Y106740
Y116583
Y126425
T03
X508248Y255122
X455098
T04
X584988Y12449
Y141976
T05
X408500Y324500
X435500
X464500
X493500
T06
X495847Y231500
X467500
M30
