G04*
G04 #@! TF.GenerationSoftware,Altium Limited,Altium Designer,26.8.1 (31)*
G04*
G04 Layer_Color=8388736*
G04 Board_Origin=0|0*
%FSLAX25Y25*%
%MOIN*%
G70*
G04*
G04 #@! TF.SameCoordinates,692C5A72-D855-48AD-9A12-2F9F26B47555*
G04*
G04*
G04 #@! TF.FilePolarity,Negative*
G04*
G01*
G75*
%ADD43R,0.04331X0.03937*%
%ADD44R,0.04134X0.03740*%
%ADD45R,0.02368X0.01384*%
%ADD46R,0.03943X0.06699*%
%ADD47R,0.03937X0.04331*%
%ADD48R,0.02756X0.06496*%
%ADD49R,0.05118X0.07480*%
%ADD50R,0.18110X0.05512*%
%ADD51R,0.15748X0.07480*%
%ADD52R,0.03937X0.03543*%
%ADD53R,0.03543X0.04331*%
%ADD54R,0.03740X0.04134*%
%ADD55R,0.03150X0.01378*%
%ADD56R,0.01772X0.04331*%
%ADD57R,0.02795X0.01378*%
%ADD58R,0.09843X0.06496*%
%ADD59R,0.05118X0.06693*%
%ADD60R,0.04221X0.03551*%
%ADD61R,0.02854X0.03661*%
%ADD62R,0.05512X0.05906*%
%ADD63R,0.05118X0.06890*%
%ADD64R,0.01197X0.03375*%
%ADD65R,0.03375X0.01197*%
%ADD66R,0.11794X0.11794*%
%ADD67R,0.05118X0.05118*%
%ADD68R,0.04331X0.03150*%
%ADD69R,0.05118X0.02756*%
%ADD70R,0.14764X0.06693*%
%ADD71R,0.12795X0.10039*%
%ADD72R,0.01968X0.03150*%
%ADD73C,0.02962*%
%ADD74C,0.16142*%
%ADD75C,0.11024*%
%ADD76C,0.16339*%
%ADD77R,0.16339X0.16339*%
%ADD78R,0.08661X0.08661*%
%ADD79C,0.08661*%
%ADD80C,0.13386*%
%ADD81C,0.02362*%
G36*
X1278455Y177799D02*
X1278457Y177799D01*
X1278474Y177797D01*
X1278492Y177796D01*
X1278494Y177795D01*
X1278496Y177795D01*
X1278512Y177789D01*
X1278529Y177785D01*
X1278531Y177784D01*
X1278533Y177783D01*
X1278548Y177774D01*
X1278563Y177766D01*
X1278565Y177765D01*
X1278566Y177764D01*
X1278580Y177753D01*
X1278593Y177742D01*
X1278594Y177740D01*
X1278596Y177738D01*
X1278606Y177725D01*
X1278617Y177712D01*
X1278619Y177710D01*
X1278620Y177708D01*
X1278628Y177693D01*
X1278636Y177677D01*
X1278636Y177675D01*
X1278637Y177673D01*
X1278642Y177657D01*
X1278647Y177640D01*
X1278647Y177638D01*
X1278648Y177636D01*
X1278649Y177619D01*
X1278651Y177602D01*
X1278651Y171398D01*
X1278649Y171381D01*
X1278648Y171364D01*
X1278647Y171362D01*
X1278647Y171360D01*
X1278642Y171343D01*
X1278637Y171326D01*
X1278636Y171325D01*
X1278636Y171323D01*
X1278628Y171308D01*
X1278620Y171292D01*
X1278619Y171290D01*
X1278617Y171288D01*
X1278607Y171275D01*
X1278596Y171262D01*
X1278594Y171260D01*
X1278593Y171258D01*
X1278580Y171247D01*
X1278566Y171236D01*
X1278565Y171235D01*
X1278563Y171234D01*
X1278548Y171226D01*
X1278533Y171217D01*
X1278531Y171216D01*
X1278529Y171215D01*
X1278512Y171211D01*
X1278496Y171205D01*
X1278494Y171205D01*
X1278492Y171204D01*
X1278474Y171203D01*
X1278457Y171201D01*
X1278455Y171201D01*
X1278453Y171200D01*
X1278436Y171202D01*
X1278419Y171203D01*
X1278202Y171242D01*
X1278189Y171245D01*
X1278175Y171248D01*
X1277756Y171385D01*
X1277743Y171390D01*
X1277730Y171395D01*
X1277335Y171588D01*
X1277323Y171595D01*
X1277311Y171602D01*
X1276946Y171848D01*
X1276935Y171857D01*
X1276924Y171865D01*
X1276597Y172160D01*
X1276587Y172170D01*
X1276577Y172180D01*
X1276294Y172517D01*
X1276286Y172529D01*
X1276278Y172539D01*
X1276044Y172913D01*
X1276038Y172925D01*
X1276032Y172937D01*
X1275852Y173340D01*
X1275848Y173353D01*
X1275843Y173366D01*
X1275722Y173789D01*
X1275719Y173803D01*
X1275716Y173816D01*
X1275655Y174252D01*
X1275654Y174266D01*
X1275653Y174280D01*
X1275653Y174720D01*
X1275654Y174734D01*
X1275655Y174748D01*
X1275716Y175184D01*
X1275719Y175197D01*
X1275722Y175211D01*
X1275843Y175634D01*
X1275848Y175647D01*
X1275852Y175660D01*
X1276032Y176063D01*
X1276038Y176075D01*
X1276044Y176087D01*
X1276278Y176461D01*
X1276286Y176472D01*
X1276294Y176483D01*
X1276577Y176820D01*
X1276587Y176830D01*
X1276597Y176840D01*
X1276924Y177135D01*
X1276935Y177143D01*
X1276946Y177152D01*
X1277311Y177398D01*
X1277323Y177405D01*
X1277335Y177412D01*
X1277731Y177605D01*
X1277743Y177610D01*
X1277756Y177615D01*
X1278175Y177752D01*
X1278189Y177755D01*
X1278202Y177758D01*
X1278419Y177797D01*
X1278436Y177798D01*
X1278453Y177800D01*
X1278453D01*
X1278455Y177799D01*
D02*
G37*
G36*
X1279564Y177798D02*
X1279581Y177797D01*
X1279798Y177758D01*
X1279811Y177755D01*
X1279825Y177752D01*
X1280244Y177615D01*
X1280257Y177610D01*
X1280270Y177605D01*
X1280665Y177412D01*
X1280677Y177405D01*
X1280689Y177398D01*
X1281054Y177152D01*
X1281065Y177143D01*
X1281076Y177135D01*
X1281404Y176840D01*
X1281413Y176830D01*
X1281423Y176820D01*
X1281706Y176483D01*
X1281714Y176471D01*
X1281722Y176461D01*
X1281956Y176087D01*
X1281962Y176075D01*
X1281968Y176063D01*
X1282148Y175660D01*
X1282152Y175647D01*
X1282157Y175634D01*
X1282278Y175211D01*
X1282281Y175197D01*
X1282284Y175184D01*
X1282345Y174748D01*
X1282346Y174734D01*
X1282347Y174720D01*
Y174280D01*
X1282346Y174266D01*
X1282345Y174252D01*
X1282284Y173816D01*
X1282281Y173803D01*
X1282278Y173789D01*
X1282157Y173366D01*
X1282152Y173353D01*
X1282148Y173340D01*
X1281968Y172937D01*
X1281962Y172925D01*
X1281956Y172913D01*
X1281722Y172539D01*
X1281714Y172528D01*
X1281706Y172517D01*
X1281423Y172180D01*
X1281413Y172170D01*
X1281404Y172160D01*
X1281076Y171865D01*
X1281065Y171857D01*
X1281054Y171848D01*
X1280689Y171602D01*
X1280677Y171595D01*
X1280665Y171588D01*
X1280269Y171395D01*
X1280257Y171390D01*
X1280244Y171385D01*
X1279825Y171248D01*
X1279811Y171245D01*
X1279798Y171242D01*
X1279581Y171203D01*
X1279564Y171202D01*
X1279547Y171200D01*
X1279547D01*
X1279545Y171201D01*
X1279543Y171201D01*
X1279526Y171203D01*
X1279508Y171204D01*
X1279506Y171205D01*
X1279504Y171205D01*
X1279488Y171211D01*
X1279471Y171215D01*
X1279469Y171216D01*
X1279467Y171217D01*
X1279452Y171226D01*
X1279437Y171234D01*
X1279435Y171235D01*
X1279434Y171236D01*
X1279420Y171247D01*
X1279407Y171258D01*
X1279406Y171260D01*
X1279404Y171262D01*
X1279394Y171275D01*
X1279383Y171288D01*
X1279381Y171290D01*
X1279380Y171292D01*
X1279372Y171307D01*
X1279364Y171323D01*
X1279364Y171325D01*
X1279363Y171326D01*
X1279358Y171343D01*
X1279353Y171360D01*
X1279353Y171362D01*
X1279352Y171364D01*
X1279351Y171381D01*
X1279349Y171398D01*
X1279349Y177602D01*
X1279351Y177619D01*
X1279352Y177636D01*
X1279353Y177638D01*
X1279353Y177640D01*
X1279358Y177657D01*
X1279363Y177673D01*
X1279364Y177675D01*
X1279364Y177677D01*
X1279372Y177692D01*
X1279380Y177708D01*
X1279381Y177710D01*
X1279383Y177712D01*
X1279393Y177725D01*
X1279404Y177738D01*
X1279406Y177740D01*
X1279407Y177742D01*
X1279420Y177752D01*
X1279434Y177764D01*
X1279435Y177765D01*
X1279437Y177766D01*
X1279452Y177774D01*
X1279467Y177783D01*
X1279469Y177784D01*
X1279471Y177785D01*
X1279488Y177789D01*
X1279504Y177795D01*
X1279506Y177795D01*
X1279508Y177796D01*
X1279526Y177797D01*
X1279543Y177799D01*
X1279545Y177799D01*
X1279547Y177800D01*
X1279564Y177798D01*
D02*
G37*
G36*
X1463262Y180132D02*
X1465880D01*
Y173518D01*
X1459384D01*
Y183006D01*
X1463262D01*
Y180132D01*
D02*
G37*
G36*
X1469817Y173734D02*
X1468439D01*
X1468439Y182789D01*
X1469817D01*
Y173734D01*
D02*
G37*
G36*
X1488262Y180132D02*
X1490880D01*
Y173518D01*
X1484384D01*
Y183006D01*
X1488262D01*
Y180132D01*
D02*
G37*
G36*
X1494817Y173734D02*
X1493439D01*
X1493439Y182789D01*
X1494817D01*
Y173734D01*
D02*
G37*
D43*
X624000Y357658D02*
D03*
Y352343D02*
D03*
X471000Y357658D02*
D03*
Y352343D02*
D03*
X448000Y357658D02*
D03*
Y352343D02*
D03*
X402000Y357658D02*
D03*
Y352343D02*
D03*
X690000Y178157D02*
D03*
Y172843D02*
D03*
X624000Y178157D02*
D03*
Y172843D02*
D03*
X581000Y178157D02*
D03*
Y172843D02*
D03*
X559000Y178157D02*
D03*
Y172843D02*
D03*
X493000Y178157D02*
D03*
Y172843D02*
D03*
X425000Y178157D02*
D03*
Y172843D02*
D03*
X525000Y8658D02*
D03*
Y3342D02*
D03*
X453000Y8658D02*
D03*
Y3342D02*
D03*
D44*
X601000Y351941D02*
D03*
Y357059D02*
D03*
X578000Y351941D02*
D03*
Y357059D02*
D03*
X517000Y351941D02*
D03*
Y357059D02*
D03*
X494000Y351941D02*
D03*
Y357059D02*
D03*
X425000Y351941D02*
D03*
Y357059D02*
D03*
X1255000Y172441D02*
D03*
Y177559D02*
D03*
X1162000Y172441D02*
D03*
Y177559D02*
D03*
X1140000Y172441D02*
D03*
Y177559D02*
D03*
X1080000Y172441D02*
D03*
Y177559D02*
D03*
X1034000Y172441D02*
D03*
Y177559D02*
D03*
X924500Y172441D02*
D03*
Y177559D02*
D03*
X793500Y172441D02*
D03*
Y177559D02*
D03*
X470000Y172441D02*
D03*
Y177559D02*
D03*
X447000Y172441D02*
D03*
Y177559D02*
D03*
X675500Y2941D02*
D03*
Y8059D02*
D03*
X631500Y2941D02*
D03*
Y8059D02*
D03*
X548000Y2941D02*
D03*
Y8059D02*
D03*
D45*
X559260Y356953D02*
D03*
Y354984D02*
D03*
Y353016D02*
D03*
Y351047D02*
D03*
X566740D02*
D03*
Y353016D02*
D03*
Y354984D02*
D03*
Y356953D02*
D03*
D46*
X563000Y354000D02*
D03*
D47*
X545657Y352000D02*
D03*
X540343D02*
D03*
X631157Y222500D02*
D03*
X625843D02*
D03*
X531157D02*
D03*
X525843D02*
D03*
X407657D02*
D03*
X402343D02*
D03*
X1599158Y172500D02*
D03*
X1593843D02*
D03*
X1582158D02*
D03*
X1576842D02*
D03*
X1565158D02*
D03*
X1559842D02*
D03*
X1209657D02*
D03*
X1204342D02*
D03*
X1022657D02*
D03*
X1017342D02*
D03*
X864157D02*
D03*
X858842D02*
D03*
D48*
X653469Y225029D02*
D03*
X649532D02*
D03*
X553968D02*
D03*
X550032D02*
D03*
X430469D02*
D03*
X426532D02*
D03*
D49*
X644413Y234970D02*
D03*
X658587D02*
D03*
X544913D02*
D03*
X559087D02*
D03*
X421413D02*
D03*
X435587D02*
D03*
D50*
X580299Y266764D02*
D03*
Y237236D02*
D03*
Y247079D02*
D03*
Y256921D02*
D03*
D51*
X607858Y224638D02*
D03*
Y279362D02*
D03*
D52*
X1547437Y176500D02*
D03*
X1539563Y172760D02*
D03*
Y180240D02*
D03*
X1002937Y176500D02*
D03*
X995063Y172760D02*
D03*
Y180240D02*
D03*
X844437Y176500D02*
D03*
X836563Y172760D02*
D03*
Y180240D02*
D03*
X675937Y176500D02*
D03*
X668063Y172760D02*
D03*
Y180240D02*
D03*
D53*
X1524039Y172500D02*
D03*
X1528961D02*
D03*
D54*
X1506941D02*
D03*
X1512059D02*
D03*
X1387941D02*
D03*
X1393059D02*
D03*
X1370941D02*
D03*
X1376059D02*
D03*
X1353941D02*
D03*
X1359059D02*
D03*
X1336941D02*
D03*
X1342059D02*
D03*
X1319941D02*
D03*
X1325059D02*
D03*
X1237941D02*
D03*
X1243059D02*
D03*
X1220941D02*
D03*
X1226059D02*
D03*
X1183941D02*
D03*
X1189059D02*
D03*
X602941D02*
D03*
X608059D02*
D03*
X654441Y3500D02*
D03*
X659559D02*
D03*
D55*
X1495014Y174423D02*
D03*
Y182100D02*
D03*
Y179541D02*
D03*
Y176982D02*
D03*
X1470014Y174423D02*
D03*
Y182100D02*
D03*
Y179541D02*
D03*
Y176982D02*
D03*
D56*
X1490663Y183577D02*
D03*
X1465663D02*
D03*
D57*
X1483026Y174423D02*
D03*
Y176982D02*
D03*
Y179541D02*
D03*
Y182100D02*
D03*
X1458026Y174423D02*
D03*
Y176982D02*
D03*
Y179541D02*
D03*
Y182100D02*
D03*
D58*
X1439051Y179677D02*
D03*
Y189323D02*
D03*
D59*
X1430587Y184500D02*
D03*
D60*
X1405016Y180240D02*
D03*
Y172760D02*
D03*
X1411984Y176500D02*
D03*
X1298016Y180240D02*
D03*
Y172760D02*
D03*
X1304984Y176500D02*
D03*
D61*
X1120620Y173000D02*
D03*
X1129380D02*
D03*
D62*
X1102850Y173500D02*
D03*
X1109150D02*
D03*
X947350D02*
D03*
X953650D02*
D03*
X537850D02*
D03*
X544150D02*
D03*
X515850D02*
D03*
X522150D02*
D03*
D63*
X1056988Y174500D02*
D03*
X1068012D02*
D03*
X901488D02*
D03*
X912512D02*
D03*
X712988D02*
D03*
X724012D02*
D03*
D64*
X970988Y187841D02*
D03*
Y172159D02*
D03*
X972563D02*
D03*
X974137D02*
D03*
X975712D02*
D03*
X977287D02*
D03*
X978862D02*
D03*
X980437D02*
D03*
X982012D02*
D03*
Y187841D02*
D03*
X980437D02*
D03*
X978862D02*
D03*
X977287D02*
D03*
X975712D02*
D03*
X974137D02*
D03*
X972563D02*
D03*
D65*
X968659Y185512D02*
D03*
Y183938D02*
D03*
Y182362D02*
D03*
Y180788D02*
D03*
Y179212D02*
D03*
Y177638D02*
D03*
Y176063D02*
D03*
Y174487D02*
D03*
X984341D02*
D03*
Y176063D02*
D03*
Y177638D02*
D03*
Y179212D02*
D03*
Y180788D02*
D03*
Y182362D02*
D03*
Y183938D02*
D03*
Y185512D02*
D03*
D66*
X976500Y180000D02*
D03*
D67*
X879866Y173500D02*
D03*
X888134D02*
D03*
X816366D02*
D03*
X824634D02*
D03*
X772866D02*
D03*
X781134D02*
D03*
D68*
X740642Y184232D02*
D03*
X758358D02*
D03*
X740642Y175768D02*
D03*
X758358D02*
D03*
D69*
X656421Y180240D02*
D03*
Y172760D02*
D03*
X646579D02*
D03*
Y176500D02*
D03*
Y180240D02*
D03*
D70*
X407500Y174500D02*
D03*
Y199500D02*
D03*
D71*
X503500Y7795D02*
D03*
Y32205D02*
D03*
D72*
X477878Y3000D02*
D03*
X475122D02*
D03*
X437878D02*
D03*
X435122D02*
D03*
X420878D02*
D03*
X418122D02*
D03*
X403878D02*
D03*
X401122D02*
D03*
D73*
X563000Y352425D02*
D03*
Y355575D02*
D03*
D74*
X493500Y324500D02*
D03*
X464500D02*
D03*
X435500D02*
D03*
X408500D02*
D03*
D75*
X508248Y255122D02*
D03*
X455098D02*
D03*
D76*
X495847Y231500D02*
D03*
D77*
X467500D02*
D03*
D78*
X590500Y28000D02*
D03*
D79*
Y47685D02*
D03*
Y57528D02*
D03*
Y67370D02*
D03*
Y77213D02*
D03*
Y87055D02*
D03*
Y96898D02*
D03*
Y106740D02*
D03*
Y116583D02*
D03*
Y126425D02*
D03*
D80*
X584988Y12449D02*
D03*
Y141976D02*
D03*
D81*
X976500Y175669D02*
D03*
Y184331D02*
D03*
X980831Y180000D02*
D03*
X972169D02*
D03*
X976500D02*
D03*
M02*
