G04*
G04 #@! TF.GenerationSoftware,Altium Limited,Altium Designer,26.7.1 (11)*
G04*
G04 Layer_Color=16711935*
G04 Board_Origin=0|0*
%FSLAX25Y25*%
%MOIN*%
G70*
G04*
G04 #@! TF.SameCoordinates,CABA3DA7-016B-4E50-8321-5EC41EE3296A*
G04*
G04*
G04 #@! TF.FilePolarity,Negative*
G04*
G01*
G75*
%ADD69C,0.11024*%
%ADD70C,0.16339*%
%ADD71R,0.16339X0.16339*%
%ADD72C,0.16142*%
%ADD73C,0.02962*%
%ADD74C,0.13386*%
%ADD75C,0.08661*%
%ADD76R,0.08661X0.08661*%
%ADD77C,0.02362*%
%ADD90C,0.02756*%
D69*
X330248Y346622D02*
D03*
X277098D02*
D03*
D70*
X317846Y323000D02*
D03*
D71*
X289500D02*
D03*
D72*
X583000Y114500D02*
D03*
X540500Y135500D02*
D03*
X583500Y83500D02*
D03*
X616000Y125000D02*
D03*
D73*
X436740Y128441D02*
D03*
Y131590D02*
D03*
D74*
X357476Y38583D02*
D03*
X227949D02*
D03*
D75*
X341925Y33071D02*
D03*
X332083D02*
D03*
X322240D02*
D03*
X312398D02*
D03*
X302555D02*
D03*
X292713D02*
D03*
X282870D02*
D03*
X273028D02*
D03*
X263185D02*
D03*
D76*
X243500D02*
D03*
D77*
X234788Y279510D02*
D03*
Y288171D02*
D03*
X239118Y283840D02*
D03*
X230457D02*
D03*
D90*
X234788D02*
D03*
M02*
