G04*
G04 #@! TF.GenerationSoftware,Altium Limited,Altium Designer,26.8.1 (31)*
G04*
G04 Layer_Color=16711935*
G04 Board_Origin=0|0*
%FSLAX25Y25*%
%MOIN*%
G70*
G04*
G04 #@! TF.SameCoordinates,692C5A72-D855-48AD-9A12-2F9F26B47555*
G04*
G04*
G04 #@! TF.FilePolarity,Negative*
G04*
G01*
G75*
%ADD73C,0.02962*%
%ADD74C,0.16142*%
%ADD75C,0.11024*%
%ADD76C,0.16339*%
%ADD77R,0.16339X0.16339*%
%ADD78R,0.08661X0.08661*%
%ADD79C,0.08661*%
%ADD80C,0.13386*%
%ADD81C,0.02362*%
%ADD90C,0.02756*%
D73*
X563000Y352425D02*
D03*
Y355575D02*
D03*
D74*
X493500Y324500D02*
D03*
X464500D02*
D03*
X435500D02*
D03*
X408500D02*
D03*
D75*
X508248Y255122D02*
D03*
X455098D02*
D03*
D76*
X495847Y231500D02*
D03*
D77*
X467500D02*
D03*
D78*
X590500Y28000D02*
D03*
D79*
Y47685D02*
D03*
Y57528D02*
D03*
Y67370D02*
D03*
Y77213D02*
D03*
Y87055D02*
D03*
Y96898D02*
D03*
Y106740D02*
D03*
Y116583D02*
D03*
Y126425D02*
D03*
D80*
X584988Y12449D02*
D03*
Y141976D02*
D03*
D81*
X976500Y175669D02*
D03*
Y184331D02*
D03*
X980831Y180000D02*
D03*
X972169D02*
D03*
D90*
X976500D02*
D03*
M02*
