G04*
G04 #@! TF.GenerationSoftware,Altium Limited,Altium Designer,26.7.1 (11)*
G04*
G04 Layer_Physical_Order=1*
G04 Layer_Color=255*
G04 Board_Origin=0|0*
%FSLAX25Y25*%
%MOIN*%
G70*
G04*
G04 #@! TF.SameCoordinates,CABA3DA7-016B-4E50-8321-5EC41EE3296A*
G04*
G04*
G04 #@! TF.FilePolarity,Positive*
G04*
G01*
G75*
%ADD17R,0.09449X0.06102*%
%ADD18R,0.04724X0.06299*%
%ADD19R,0.03347X0.03740*%
%ADD20R,0.04724X0.04724*%
%ADD21R,0.03543X0.03937*%
%ADD22R,0.04724X0.06496*%
%ADD23R,0.03827X0.03158*%
%ADD24R,0.07087X0.15354*%
%ADD25R,0.05118X0.17717*%
%ADD26R,0.12402X0.09646*%
%ADD27R,0.03543X0.03150*%
%ADD28R,0.01968X0.00984*%
%ADD29R,0.06102X0.02362*%
%ADD30R,0.07087X0.04724*%
%ADD31R,0.02362X0.06102*%
%ADD32R,0.04724X0.07087*%
%ADD33R,0.02461X0.03268*%
%ADD34R,0.02756X0.03937*%
%ADD35R,0.04724X0.02362*%
%ADD36R,0.14370X0.06299*%
%ADD37R,0.01575X0.02756*%
%ADD38R,0.00803X0.02981*%
%ADD39R,0.02981X0.00803*%
%ADD40R,0.11400X0.11400*%
%ADD48R,0.01378X0.02795*%
%ADD49R,0.04331X0.01772*%
%ADD50R,0.01378X0.03150*%
%ADD77C,0.02362*%
%ADD78R,0.05906X0.01968*%
%ADD79R,0.01968X0.05906*%
%ADD80R,0.03543X0.06299*%
%ADD81R,0.05906X0.05906*%
%ADD82R,0.05906X0.05906*%
%ADD83C,0.10630*%
%ADD84C,0.15945*%
%ADD85R,0.15945X0.15945*%
%ADD86C,0.15748*%
%ADD87C,0.12992*%
%ADD88C,0.08268*%
%ADD89R,0.08268X0.08268*%
G36*
X324309Y244366D02*
Y237870D01*
X314821D01*
Y241748D01*
X317695D01*
Y244366D01*
X324309D01*
D02*
G37*
G36*
X315037Y246925D02*
Y248303D01*
X324093D01*
Y246925D01*
X315037Y246925D01*
D02*
G37*
G36*
X323748Y258575D02*
Y257197D01*
X314693D01*
Y258575D01*
X323748Y258575D01*
D02*
G37*
G36*
X314476Y261134D02*
Y267630D01*
X323965D01*
Y263752D01*
X321091D01*
Y261134D01*
X314476D01*
D02*
G37*
G36*
G01X375047Y45898D02*
G01Y52102D01*
G02Y45898I-547J-3102D01*
D02*
G37*
G36*
G01X373953D02*
G02Y52102I547J3102D01*
G01Y45898D01*
D02*
G37*
D17*
X368000Y74500D02*
D03*
Y84146D02*
D03*
D18*
X359535Y79323D02*
D03*
D19*
X643941Y27000D02*
D03*
X649059D02*
D03*
X480941Y10000D02*
D03*
X486059D02*
D03*
X492000Y28000D02*
D03*
X497118D02*
D03*
X401000D02*
D03*
X406118D02*
D03*
X434500Y18000D02*
D03*
X439618D02*
D03*
X413941Y17500D02*
D03*
X419059D02*
D03*
X403500Y55500D02*
D03*
X408618D02*
D03*
X415441Y106500D02*
D03*
X420559D02*
D03*
X464941D02*
D03*
X470059D02*
D03*
X497941D02*
D03*
X503059D02*
D03*
X513941D02*
D03*
X519059D02*
D03*
X530441D02*
D03*
X535559D02*
D03*
X437441Y58500D02*
D03*
X442559D02*
D03*
X613441D02*
D03*
X618559D02*
D03*
X687441D02*
D03*
X692559D02*
D03*
X719441D02*
D03*
X724559D02*
D03*
X661042Y101000D02*
D03*
X666160D02*
D03*
X750941Y58500D02*
D03*
X756059D02*
D03*
X465941Y24000D02*
D03*
X471059D02*
D03*
X449042Y23500D02*
D03*
X454160D02*
D03*
X543941Y10000D02*
D03*
X549059D02*
D03*
X574441D02*
D03*
X579559D02*
D03*
X559441D02*
D03*
X564559D02*
D03*
X589941D02*
D03*
X595059D02*
D03*
X466441D02*
D03*
X471559D02*
D03*
X497941D02*
D03*
X503059D02*
D03*
X512441D02*
D03*
X517559D02*
D03*
X539542Y21500D02*
D03*
X544660D02*
D03*
D20*
X650000Y48366D02*
D03*
Y56634D02*
D03*
X664000Y48366D02*
D03*
Y56634D02*
D03*
X677500Y48366D02*
D03*
Y56634D02*
D03*
D21*
X407657Y106000D02*
D03*
X402343D02*
D03*
X440158D02*
D03*
X434842D02*
D03*
X456658D02*
D03*
X451342D02*
D03*
X489657D02*
D03*
X484342D02*
D03*
X555158D02*
D03*
X549843D02*
D03*
X477658Y58000D02*
D03*
X472342D02*
D03*
X429157D02*
D03*
X423842D02*
D03*
X425157Y85000D02*
D03*
X419842D02*
D03*
X483157Y81500D02*
D03*
X477843D02*
D03*
X549157Y58000D02*
D03*
X543843D02*
D03*
X532657D02*
D03*
X527343D02*
D03*
X515658D02*
D03*
X510343D02*
D03*
X637657D02*
D03*
X632342D02*
D03*
X711657D02*
D03*
X706343D02*
D03*
X459709Y84000D02*
D03*
X454394D02*
D03*
X743157Y58000D02*
D03*
X737843D02*
D03*
X775157D02*
D03*
X769842D02*
D03*
X513209Y26000D02*
D03*
X507894D02*
D03*
X658157Y9500D02*
D03*
X652843D02*
D03*
X866158Y58000D02*
D03*
X860843D02*
D03*
X500157Y82000D02*
D03*
X494842D02*
D03*
X515709Y36500D02*
D03*
X510394D02*
D03*
X407657Y86500D02*
D03*
X402343D02*
D03*
X526158D02*
D03*
X520843D02*
D03*
X788658D02*
D03*
X783343D02*
D03*
X730158Y144500D02*
D03*
X724843D02*
D03*
D22*
X483488Y173000D02*
D03*
X494512D02*
D03*
X486988Y139000D02*
D03*
X498012D02*
D03*
X483988Y154000D02*
D03*
X495012D02*
D03*
D23*
X842516Y57740D02*
D03*
Y50260D02*
D03*
X849484Y54000D02*
D03*
X299016Y299740D02*
D03*
Y292260D02*
D03*
X305984Y296000D02*
D03*
D24*
X206638Y381858D02*
D03*
X261362D02*
D03*
D25*
X229079Y354299D02*
D03*
X238921D02*
D03*
X248764D02*
D03*
X219236D02*
D03*
D26*
X441500Y206205D02*
D03*
Y181795D02*
D03*
D27*
X477500Y40500D02*
D03*
X469626Y36760D02*
D03*
Y44240D02*
D03*
X423437Y38500D02*
D03*
X415563Y34760D02*
D03*
Y42240D02*
D03*
X460000Y43000D02*
D03*
X452126Y39260D02*
D03*
Y46740D02*
D03*
X813437Y54000D02*
D03*
X805563Y50260D02*
D03*
Y57740D02*
D03*
D28*
X433000Y132968D02*
D03*
Y131000D02*
D03*
Y129032D02*
D03*
Y127063D02*
D03*
X440480D02*
D03*
Y129032D02*
D03*
Y131000D02*
D03*
Y132968D02*
D03*
D29*
X725000Y186437D02*
D03*
Y182500D02*
D03*
D30*
X715059Y177382D02*
D03*
Y191555D02*
D03*
D31*
X711969Y95530D02*
D03*
X708032D02*
D03*
X620968Y73529D02*
D03*
X617031D02*
D03*
X471437Y216000D02*
D03*
X467500D02*
D03*
D32*
X702913Y105471D02*
D03*
X717087D02*
D03*
X611913Y83470D02*
D03*
X626087D02*
D03*
X462382Y225941D02*
D03*
X476555D02*
D03*
D33*
X786120Y57500D02*
D03*
X794880D02*
D03*
D34*
X593768Y37642D02*
D03*
Y55358D02*
D03*
X602232Y37642D02*
D03*
Y55358D02*
D03*
D35*
X498921Y57240D02*
D03*
Y49760D02*
D03*
X489079D02*
D03*
Y53500D02*
D03*
Y57240D02*
D03*
D36*
X285000Y288000D02*
D03*
Y263000D02*
D03*
D37*
X458878Y9500D02*
D03*
X456122D02*
D03*
X436878Y38500D02*
D03*
X434122D02*
D03*
X442878Y84000D02*
D03*
X440122D02*
D03*
X403878Y9500D02*
D03*
X401122D02*
D03*
D38*
X229275Y291681D02*
D03*
Y276000D02*
D03*
X230850D02*
D03*
X232425D02*
D03*
X234000D02*
D03*
X235575D02*
D03*
X237150D02*
D03*
X238725D02*
D03*
X240300D02*
D03*
Y291681D02*
D03*
X238725D02*
D03*
X237150D02*
D03*
X235575D02*
D03*
X234000D02*
D03*
X232425D02*
D03*
X230850D02*
D03*
D39*
X226947Y289353D02*
D03*
Y287778D02*
D03*
Y286203D02*
D03*
Y284628D02*
D03*
Y283053D02*
D03*
Y281478D02*
D03*
Y279903D02*
D03*
Y278328D02*
D03*
X242628D02*
D03*
Y279903D02*
D03*
Y281478D02*
D03*
Y283053D02*
D03*
Y284628D02*
D03*
Y286203D02*
D03*
Y287778D02*
D03*
Y289353D02*
D03*
D40*
X234788Y283840D02*
D03*
D48*
X315726Y236512D02*
D03*
X318285D02*
D03*
X320845D02*
D03*
X323404D02*
D03*
X315382Y268988D02*
D03*
X317941D02*
D03*
X320500D02*
D03*
X323059D02*
D03*
D49*
X314250Y244150D02*
D03*
X324535Y261350D02*
D03*
D50*
X320845Y248500D02*
D03*
X318285D02*
D03*
X315726D02*
D03*
X323404D02*
D03*
X315382Y257000D02*
D03*
X323059D02*
D03*
X320500D02*
D03*
X317941D02*
D03*
D77*
X436740Y128441D02*
D03*
Y131590D02*
D03*
X234788Y279510D02*
D03*
Y288171D02*
D03*
X239118Y283840D02*
D03*
X230457D02*
D03*
X234788D02*
D03*
D78*
X571000Y62953D02*
D03*
Y57047D02*
D03*
D79*
X562906Y69000D02*
D03*
X557000D02*
D03*
D80*
X436740Y130016D02*
D03*
D81*
X571000Y60001D02*
D03*
D82*
X559953Y69000D02*
D03*
D83*
X330248Y346622D02*
D03*
X277098D02*
D03*
D84*
X317846Y323000D02*
D03*
D85*
X289500D02*
D03*
D86*
X583000Y114500D02*
D03*
X540500Y135500D02*
D03*
X583500Y83500D02*
D03*
X616000Y125000D02*
D03*
D87*
X357476Y38583D02*
D03*
X227949D02*
D03*
D88*
X341925Y33071D02*
D03*
X332083D02*
D03*
X322240D02*
D03*
X312398D02*
D03*
X302555D02*
D03*
X292713D02*
D03*
X282870D02*
D03*
X273028D02*
D03*
X263185D02*
D03*
D89*
X243500D02*
D03*
M02*
