G04*
G04 #@! TF.GenerationSoftware,Altium Limited,Altium Designer,26.8.1 (31)*
G04*
G04 Layer_Physical_Order=1*
G04 Layer_Color=255*
G04 Board_Origin=0|0*
%FSLAX25Y25*%
%MOIN*%
G70*
G04*
G04 #@! TF.SameCoordinates,692C5A72-D855-48AD-9A12-2F9F26B47555*
G04*
G04*
G04 #@! TF.FilePolarity,Positive*
G04*
G01*
G75*
%ADD17R,0.03937X0.03543*%
%ADD18R,0.03740X0.03347*%
%ADD19R,0.01968X0.00984*%
%ADD20R,0.03543X0.03937*%
%ADD21R,0.02362X0.06102*%
%ADD22R,0.04724X0.07087*%
%ADD23R,0.17717X0.05118*%
%ADD24R,0.15354X0.07087*%
%ADD25R,0.03543X0.03150*%
%ADD26R,0.03150X0.03937*%
%ADD27R,0.03347X0.03740*%
%ADD28R,0.09449X0.06102*%
%ADD29R,0.04724X0.06299*%
%ADD30R,0.03827X0.03158*%
%ADD31R,0.02461X0.03268*%
%ADD32R,0.05118X0.05512*%
%ADD33R,0.04724X0.06496*%
%ADD34R,0.00803X0.02981*%
%ADD35R,0.02981X0.00803*%
%ADD36R,0.11400X0.11400*%
%ADD37R,0.04724X0.04724*%
%ADD38R,0.03937X0.02756*%
%ADD39R,0.04724X0.02362*%
%ADD40R,0.14370X0.06299*%
%ADD41R,0.12402X0.09646*%
%ADD42R,0.01575X0.02756*%
%ADD55R,0.03150X0.01378*%
%ADD56R,0.01772X0.04331*%
%ADD57R,0.02795X0.01378*%
%ADD81C,0.02362*%
%ADD82R,0.03543X0.06299*%
%ADD83C,0.15748*%
%ADD84C,0.10630*%
%ADD85C,0.15945*%
%ADD86R,0.15945X0.15945*%
%ADD87R,0.08268X0.08268*%
%ADD88C,0.08268*%
%ADD89C,0.12992*%
G36*
X1465880Y173518D02*
X1459384D01*
Y183006D01*
X1463262D01*
Y180132D01*
X1465880D01*
Y173518D01*
D02*
G37*
G36*
X1468439Y182789D02*
X1469817D01*
Y173734D01*
X1468439D01*
X1468439Y182789D01*
D02*
G37*
G36*
X1490880Y173518D02*
X1484384D01*
Y183006D01*
X1488262D01*
Y180132D01*
X1490880D01*
Y173518D01*
D02*
G37*
G36*
X1493439Y182789D02*
X1494817D01*
Y173734D01*
X1493439D01*
X1493439Y182789D01*
D02*
G37*
G36*
G01X1279547Y171398D02*
G01Y177602D01*
G02Y171398I-547J-3102D01*
D02*
G37*
G36*
G01X1278453D02*
G02Y177602I547J3102D01*
G01Y171398D01*
D02*
G37*
D17*
X624000Y357658D02*
D03*
Y352343D02*
D03*
X471000Y357658D02*
D03*
Y352343D02*
D03*
X448000Y357658D02*
D03*
Y352343D02*
D03*
X402000Y357658D02*
D03*
Y352343D02*
D03*
X690000Y178157D02*
D03*
Y172843D02*
D03*
X624000Y178157D02*
D03*
Y172843D02*
D03*
X581000Y178157D02*
D03*
Y172843D02*
D03*
X559000Y178157D02*
D03*
Y172843D02*
D03*
X493000Y178157D02*
D03*
Y172843D02*
D03*
X425000Y178157D02*
D03*
Y172843D02*
D03*
X525000Y8658D02*
D03*
Y3342D02*
D03*
X453000Y8658D02*
D03*
Y3342D02*
D03*
D18*
X601000Y351941D02*
D03*
Y357059D02*
D03*
X578000Y351941D02*
D03*
Y357059D02*
D03*
X517000Y351941D02*
D03*
Y357059D02*
D03*
X494000Y351941D02*
D03*
Y357059D02*
D03*
X425000Y351941D02*
D03*
Y357059D02*
D03*
X1255000Y172441D02*
D03*
Y177559D02*
D03*
X1162000Y172441D02*
D03*
Y177559D02*
D03*
X1140000Y172441D02*
D03*
Y177559D02*
D03*
X1080000Y172441D02*
D03*
Y177559D02*
D03*
X1034000Y172441D02*
D03*
Y177559D02*
D03*
X924500Y172441D02*
D03*
Y177559D02*
D03*
X793500Y172441D02*
D03*
Y177559D02*
D03*
X470000Y172441D02*
D03*
Y177559D02*
D03*
X447000Y172441D02*
D03*
Y177559D02*
D03*
X675500Y2941D02*
D03*
Y8059D02*
D03*
X631500Y2941D02*
D03*
Y8059D02*
D03*
X548000Y2941D02*
D03*
Y8059D02*
D03*
D19*
X559260Y356953D02*
D03*
Y354984D02*
D03*
Y353016D02*
D03*
Y351047D02*
D03*
X566740D02*
D03*
Y353016D02*
D03*
Y354984D02*
D03*
Y356953D02*
D03*
D20*
X545657Y352000D02*
D03*
X540343D02*
D03*
X631157Y222500D02*
D03*
X625843D02*
D03*
X531157D02*
D03*
X525843D02*
D03*
X407657D02*
D03*
X402343D02*
D03*
X1599158Y172500D02*
D03*
X1593843D02*
D03*
X1582158D02*
D03*
X1576842D02*
D03*
X1565158D02*
D03*
X1559842D02*
D03*
X1209657D02*
D03*
X1204342D02*
D03*
X1022657D02*
D03*
X1017342D02*
D03*
X864157D02*
D03*
X858842D02*
D03*
D21*
X653469Y225029D02*
D03*
X649532D02*
D03*
X553968D02*
D03*
X550032D02*
D03*
X430469D02*
D03*
X426532D02*
D03*
D22*
X644413Y234970D02*
D03*
X658587D02*
D03*
X544913D02*
D03*
X559087D02*
D03*
X421413D02*
D03*
X435587D02*
D03*
D23*
X580299Y266764D02*
D03*
Y237236D02*
D03*
Y247079D02*
D03*
Y256921D02*
D03*
D24*
X607858Y224638D02*
D03*
Y279362D02*
D03*
D25*
X1547437Y176500D02*
D03*
X1539563Y172760D02*
D03*
Y180240D02*
D03*
X1002937Y176500D02*
D03*
X995063Y172760D02*
D03*
Y180240D02*
D03*
X844437Y176500D02*
D03*
X836563Y172760D02*
D03*
Y180240D02*
D03*
X675937Y176500D02*
D03*
X668063Y172760D02*
D03*
Y180240D02*
D03*
D26*
X1524039Y172500D02*
D03*
X1528961D02*
D03*
D27*
X1506941D02*
D03*
X1512059D02*
D03*
X1387941D02*
D03*
X1393059D02*
D03*
X1370941D02*
D03*
X1376059D02*
D03*
X1353941D02*
D03*
X1359059D02*
D03*
X1336941D02*
D03*
X1342059D02*
D03*
X1319941D02*
D03*
X1325059D02*
D03*
X1237941D02*
D03*
X1243059D02*
D03*
X1220941D02*
D03*
X1226059D02*
D03*
X1183941D02*
D03*
X1189059D02*
D03*
X602941D02*
D03*
X608059D02*
D03*
X654441Y3500D02*
D03*
X659559D02*
D03*
D28*
X1439051Y179677D02*
D03*
Y189323D02*
D03*
D29*
X1430587Y184500D02*
D03*
D30*
X1405016Y180240D02*
D03*
Y172760D02*
D03*
X1411984Y176500D02*
D03*
X1298016Y180240D02*
D03*
Y172760D02*
D03*
X1304984Y176500D02*
D03*
D31*
X1120620Y173000D02*
D03*
X1129380D02*
D03*
D32*
X1102850Y173500D02*
D03*
X1109150D02*
D03*
X947350D02*
D03*
X953650D02*
D03*
X537850D02*
D03*
X544150D02*
D03*
X515850D02*
D03*
X522150D02*
D03*
D33*
X1056988Y174500D02*
D03*
X1068012D02*
D03*
X901488D02*
D03*
X912512D02*
D03*
X712988D02*
D03*
X724012D02*
D03*
D34*
X970988Y187841D02*
D03*
Y172159D02*
D03*
X972563D02*
D03*
X974137D02*
D03*
X975712D02*
D03*
X977287D02*
D03*
X978862D02*
D03*
X980437D02*
D03*
X982012D02*
D03*
Y187841D02*
D03*
X980437D02*
D03*
X978862D02*
D03*
X977287D02*
D03*
X975712D02*
D03*
X974137D02*
D03*
X972563D02*
D03*
D35*
X968659Y185512D02*
D03*
Y183938D02*
D03*
Y182362D02*
D03*
Y180788D02*
D03*
Y179212D02*
D03*
Y177638D02*
D03*
Y176063D02*
D03*
Y174487D02*
D03*
X984341D02*
D03*
Y176063D02*
D03*
Y177638D02*
D03*
Y179212D02*
D03*
Y180788D02*
D03*
Y182362D02*
D03*
Y183938D02*
D03*
Y185512D02*
D03*
D36*
X976500Y180000D02*
D03*
D37*
X879866Y173500D02*
D03*
X888134D02*
D03*
X816366D02*
D03*
X824634D02*
D03*
X772866D02*
D03*
X781134D02*
D03*
D38*
X740642Y184232D02*
D03*
X758358D02*
D03*
X740642Y175768D02*
D03*
X758358D02*
D03*
D39*
X656421Y180240D02*
D03*
Y172760D02*
D03*
X646579D02*
D03*
Y176500D02*
D03*
Y180240D02*
D03*
D40*
X407500Y174500D02*
D03*
Y199500D02*
D03*
D41*
X503500Y7795D02*
D03*
Y32205D02*
D03*
D42*
X477878Y3000D02*
D03*
X475122D02*
D03*
X437878D02*
D03*
X435122D02*
D03*
X420878D02*
D03*
X418122D02*
D03*
X403878D02*
D03*
X401122D02*
D03*
D55*
X1495014Y174423D02*
D03*
Y182100D02*
D03*
Y179541D02*
D03*
Y176982D02*
D03*
X1470014Y174423D02*
D03*
Y182100D02*
D03*
Y179541D02*
D03*
Y176982D02*
D03*
D56*
X1490663Y183577D02*
D03*
X1465663D02*
D03*
D57*
X1483026Y174423D02*
D03*
Y176982D02*
D03*
Y179541D02*
D03*
Y182100D02*
D03*
X1458026Y174423D02*
D03*
Y176982D02*
D03*
Y179541D02*
D03*
Y182100D02*
D03*
D81*
X563000Y352425D02*
D03*
Y355575D02*
D03*
X976500Y175669D02*
D03*
Y184331D02*
D03*
X980831Y180000D02*
D03*
X972169D02*
D03*
X976500D02*
D03*
D82*
X563000Y354000D02*
D03*
D83*
X493500Y324500D02*
D03*
X464500D02*
D03*
X435500D02*
D03*
X408500D02*
D03*
D84*
X508248Y255122D02*
D03*
X455098D02*
D03*
D85*
X495847Y231500D02*
D03*
D86*
X467500D02*
D03*
D87*
X590500Y28000D02*
D03*
D88*
Y47685D02*
D03*
Y57528D02*
D03*
Y67370D02*
D03*
Y77213D02*
D03*
Y87055D02*
D03*
Y96898D02*
D03*
Y106740D02*
D03*
Y116583D02*
D03*
Y126425D02*
D03*
D89*
X584988Y12449D02*
D03*
Y141976D02*
D03*
M02*
