M48
;Layer_Color=9474304
;FILE_FORMAT=2:5
INCH,TZ
;TYPE=PLATED
T01F00S00C0.00787
T02F00S00C0.01181
T03F00S00C0.08465
%
T01
X7874Y7874
Y23622
Y31496
X15748Y39370
Y47244
X23622
Y39370
Y31496
X31496
Y23622
Y39370
Y47244
X39370
X55055Y36000
X62929
X71000Y37500
X68500Y45000
X69069Y50431
X73436Y51564
X70866Y62992
X78740
X86614Y55118
Y47244
X102362
X96610Y57087
Y61024
X110236Y62992
Y55118
Y39370
Y23622
Y7874
X94488
X78740
X70866
X62992
X55118
X47244
X39370
X23622
X21500Y64961
Y68898
X23622Y78740
X7874Y70866
Y62992
Y94488
Y110236
X23622
X31496Y94488
X47091Y96457
Y100394
X47244Y110236
X55118
X62992
X70866
X71020Y92520
Y88583
X86614Y86614
Y94488
X94488Y86614
Y78740
X110236Y86614
Y94488
Y110236
X94488
X47244Y78740
X78740Y15748
T02
X77000Y27500
T03
X15748Y15748
Y102362
X102362
Y15748
M30
