G04*
G04 #@! TF.GenerationSoftware,Altium Limited,Altium Designer,25.5.2 (35)*
G04*
G04 Layer_Physical_Order=1*
G04 Layer_Color=255*
%FSLAX25Y25*%
%MOIN*%
G70*
G04*
G04 #@! TF.SameCoordinates,1AF6E2F4-78F0-4DA7-8A0E-505A44BB4709*
G04*
G04*
G04 #@! TF.FilePolarity,Positive*
G04*
G01*
G75*
%ADD11C,0.01000*%
%ADD15R,0.03347X0.03347*%
%ADD16R,0.06102X0.02362*%
%ADD17R,0.07087X0.04724*%
%ADD18R,0.02362X0.03347*%
%ADD19R,0.05906X0.13386*%
%ADD20R,0.03937X0.13780*%
%ADD21R,0.03347X0.01181*%
%ADD22R,0.01181X0.03347*%
%ADD23R,0.06102X0.06102*%
%ADD24R,0.03347X0.03347*%
%ADD25R,0.04724X0.04724*%
%ADD40C,0.01181*%
%ADD41C,0.01575*%
%ADD42C,0.02362*%
%ADD43C,0.11811*%
%ADD44C,0.01968*%
%ADD45C,0.02362*%
G36*
X102362Y118110D02*
X103394D01*
X105441Y117841D01*
X107435Y117306D01*
X109342Y116516D01*
X111130Y115484D01*
X112768Y114228D01*
X114228Y112768D01*
X115484Y111130D01*
X116516Y109342D01*
X117306Y107435D01*
X117841Y105441D01*
X118110Y103394D01*
Y102362D01*
X118110D01*
X118110Y16000D01*
X118110Y15748D01*
Y14716D01*
X117841Y12669D01*
X117306Y10675D01*
X116516Y8768D01*
X115484Y6980D01*
X114228Y5342D01*
X112768Y3883D01*
X111130Y2626D01*
X109342Y1594D01*
X107435Y804D01*
X105441Y270D01*
X103394Y0D01*
X14716D01*
X12669Y270D01*
X10675Y804D01*
X8768Y1594D01*
X6980Y2626D01*
X5342Y3883D01*
X3883Y5342D01*
X2626Y6980D01*
X1594Y8768D01*
X804Y10675D01*
X270Y12669D01*
X0Y14716D01*
Y15748D01*
Y15748D01*
Y102362D01*
Y103394D01*
X270Y105441D01*
X804Y107435D01*
X1594Y109342D01*
X2626Y111130D01*
X3883Y112768D01*
X5342Y114228D01*
X6980Y115484D01*
X8768Y116516D01*
X10675Y117306D01*
X12669Y117841D01*
X14716Y118110D01*
X15748D01*
X15748Y118110D01*
X102362Y118110D01*
D02*
G37*
%LPC*%
G36*
X38730Y112598D02*
X30069D01*
Y106299D01*
X38730D01*
Y112598D01*
D02*
G37*
G36*
X103021Y109055D02*
X101703D01*
X100410Y108798D01*
X99192Y108293D01*
X98096Y107561D01*
X97163Y106629D01*
X96431Y105533D01*
X95926Y104314D01*
X95669Y103021D01*
Y101703D01*
X95926Y100410D01*
X96431Y99192D01*
X97163Y98096D01*
X98096Y97163D01*
X99192Y96431D01*
X100410Y95926D01*
X101703Y95669D01*
X103021D01*
X104314Y95926D01*
X105533Y96431D01*
X106629Y97163D01*
X107561Y98096D01*
X108293Y99192D01*
X108798Y100410D01*
X109055Y101703D01*
Y103021D01*
X108798Y104314D01*
X108293Y105533D01*
X107561Y106629D01*
X106629Y107561D01*
X105533Y108293D01*
X104314Y108798D01*
X103021Y109055D01*
D02*
G37*
G36*
X16407D02*
X15089D01*
X13796Y108798D01*
X12578Y108293D01*
X11482Y107561D01*
X10549Y106629D01*
X9817Y105533D01*
X9312Y104314D01*
X9055Y103021D01*
Y101703D01*
X9312Y100410D01*
X9817Y99192D01*
X10549Y98096D01*
X11482Y97163D01*
X12578Y96431D01*
X13796Y95926D01*
X15089Y95669D01*
X16407D01*
X17700Y95926D01*
X18918Y96431D01*
X20015Y97163D01*
X20947Y98096D01*
X21679Y99192D01*
X22184Y100410D01*
X22441Y101703D01*
Y103021D01*
X22184Y104314D01*
X21679Y105533D01*
X20947Y106629D01*
X20015Y107561D01*
X18918Y108293D01*
X17700Y108798D01*
X16407Y109055D01*
D02*
G37*
G36*
X88041Y112598D02*
X79380D01*
Y106338D01*
X73770D01*
X73576Y106299D01*
X69931D01*
Y102362D01*
Y101799D01*
X67894D01*
X67356Y101692D01*
X66900Y101387D01*
X61014Y95501D01*
X60710Y95046D01*
X60603Y94508D01*
Y66453D01*
X59476D01*
Y86429D01*
X59369Y86967D01*
X59064Y87423D01*
X52974Y93513D01*
X52518Y93818D01*
X51980Y93925D01*
X48179D01*
Y94488D01*
Y95040D01*
X48592Y95453D01*
X48862Y96104D01*
Y96809D01*
X48592Y97460D01*
X48179Y97874D01*
Y98425D01*
Y98977D01*
X48592Y99390D01*
X48862Y100041D01*
Y100746D01*
X48592Y101397D01*
X48179Y101811D01*
Y102150D01*
X48392D01*
Y103701D01*
X47278D01*
Y104961D01*
X48392D01*
Y106512D01*
X44971D01*
Y105398D01*
X43711D01*
Y106512D01*
X40289D01*
Y104961D01*
X41403D01*
Y103701D01*
X40289D01*
Y102150D01*
X40502D01*
Y98425D01*
Y94488D01*
Y90551D01*
Y86653D01*
X6646D01*
X5878Y86500D01*
X5226Y86065D01*
X1581Y82419D01*
X1146Y81768D01*
X993Y81000D01*
Y53500D01*
Y42500D01*
X1146Y41732D01*
X1581Y41081D01*
X25581Y17081D01*
X26232Y16646D01*
X27000Y16493D01*
X75500D01*
X76268Y16646D01*
X76919Y17081D01*
X80159Y20321D01*
X80594Y20972D01*
X80620Y21100D01*
X80747Y21740D01*
Y23228D01*
X81496D01*
Y23977D01*
X107484D01*
X108252Y24130D01*
X108904Y24565D01*
X116419Y32081D01*
X116854Y32732D01*
X117007Y33500D01*
Y66500D01*
X116854Y67268D01*
X116419Y67919D01*
X110085Y74254D01*
X109433Y74689D01*
X108859Y74803D01*
X113632D01*
Y81102D01*
X104971D01*
Y74842D01*
X101007D01*
Y91500D01*
X100854Y92268D01*
X100419Y92919D01*
X87589Y105750D01*
X86937Y106185D01*
X86363Y106299D01*
X88041D01*
Y112598D01*
D02*
G37*
G36*
X103021Y22441D02*
X101703D01*
X100410Y22184D01*
X99192Y21679D01*
X98096Y20947D01*
X97163Y20015D01*
X96431Y18918D01*
X95926Y17700D01*
X95669Y16407D01*
Y15089D01*
X95926Y13796D01*
X96431Y12578D01*
X97163Y11482D01*
X98096Y10549D01*
X99192Y9817D01*
X100410Y9312D01*
X101703Y9055D01*
X103021D01*
X104314Y9312D01*
X105533Y9817D01*
X106629Y10549D01*
X107561Y11482D01*
X108293Y12578D01*
X108798Y13796D01*
X109055Y15089D01*
Y16407D01*
X108798Y17700D01*
X108293Y18918D01*
X107561Y20015D01*
X106629Y20947D01*
X105533Y21679D01*
X104314Y22184D01*
X103021Y22441D01*
D02*
G37*
G36*
X16407D02*
X15089D01*
X13796Y22184D01*
X12578Y21679D01*
X11482Y20947D01*
X10549Y20015D01*
X9817Y18918D01*
X9312Y17700D01*
X9055Y16407D01*
Y15089D01*
X9312Y13796D01*
X9817Y12578D01*
X10549Y11482D01*
X11482Y10549D01*
X12578Y9817D01*
X13796Y9312D01*
X15089Y9055D01*
X16407D01*
X17700Y9312D01*
X18918Y9817D01*
X20015Y10549D01*
X20947Y11482D01*
X21679Y12578D01*
X22184Y13796D01*
X22441Y15089D01*
Y16407D01*
X22184Y17700D01*
X21679Y18918D01*
X20947Y20015D01*
X20015Y20947D01*
X18918Y21679D01*
X17700Y22184D01*
X16407Y22441D01*
D02*
G37*
G36*
X91732Y15748D02*
X84252D01*
Y787D01*
X91732D01*
Y15748D01*
D02*
G37*
G36*
X33858D02*
X26378D01*
Y787D01*
X33858D01*
Y15748D01*
D02*
G37*
%LPD*%
G36*
X96993Y90669D02*
Y74803D01*
X95522D01*
Y70866D01*
Y70303D01*
X92898D01*
X92360Y70196D01*
X91904Y69891D01*
X82473Y60460D01*
X67224D01*
Y62402D01*
X66169D01*
Y93182D01*
X68039Y95052D01*
X69931D01*
Y94488D01*
Y93937D01*
X69518Y93523D01*
X69248Y92872D01*
Y92167D01*
X69518Y91516D01*
X69931Y91103D01*
Y90551D01*
Y90000D01*
X69518Y89586D01*
X69248Y88935D01*
Y88230D01*
X69518Y87579D01*
X69931Y87166D01*
Y86827D01*
X69718D01*
Y85276D01*
X70833D01*
Y84016D01*
X69718D01*
Y82465D01*
X73140D01*
Y83579D01*
X74400D01*
Y82465D01*
X77821D01*
Y84016D01*
X76707D01*
Y85276D01*
X77821D01*
Y86827D01*
X77608D01*
Y90551D01*
Y94488D01*
Y98425D01*
Y102324D01*
X85338D01*
X96993Y90669D01*
D02*
G37*
G36*
X54697Y83316D02*
Y63779D01*
X54724Y63644D01*
Y62402D01*
X53482D01*
X53347Y62429D01*
X22589D01*
Y62992D01*
Y63544D01*
X23002Y63957D01*
X23272Y64608D01*
Y65313D01*
X23002Y65964D01*
X22589Y66378D01*
Y66929D01*
Y67481D01*
X23002Y67894D01*
X23272Y68545D01*
Y69250D01*
X23002Y69901D01*
X22589Y70315D01*
Y70653D01*
X22801D01*
Y72205D01*
X21687D01*
Y73465D01*
X22801D01*
Y75016D01*
X19380D01*
Y73902D01*
X18120D01*
Y75016D01*
X14699D01*
Y73465D01*
X15813D01*
Y72205D01*
X14699D01*
Y70653D01*
X14911D01*
Y66929D01*
Y62992D01*
Y59055D01*
Y55157D01*
X5007D01*
Y74803D01*
X13140D01*
Y81102D01*
X5941D01*
X7477Y82639D01*
X30069D01*
Y76378D01*
X38730D01*
Y82639D01*
X44341D01*
X44534Y82677D01*
X48179D01*
Y86614D01*
Y87178D01*
X50835D01*
X54697Y83316D01*
D02*
G37*
G36*
X112993Y65669D02*
Y51181D01*
X104971D01*
Y44882D01*
X112993D01*
Y34331D01*
X106653Y27991D01*
X81496D01*
Y29501D01*
X97031D01*
Y28039D01*
X100969D01*
Y32961D01*
X97031D01*
Y32311D01*
X81496D01*
Y38583D01*
X79804D01*
Y42000D01*
Y45039D01*
X80368D01*
Y49961D01*
X80005D01*
Y51039D01*
X80368D01*
Y55682D01*
X84114D01*
X84652Y55789D01*
X85108Y56093D01*
X92610Y63595D01*
X95522D01*
Y62992D01*
Y62441D01*
X95108Y62027D01*
X94839Y61376D01*
Y60671D01*
X95108Y60020D01*
X95522Y59607D01*
Y59055D01*
Y58504D01*
X95108Y58090D01*
X94839Y57439D01*
Y56734D01*
X95108Y56083D01*
X95522Y55670D01*
Y55331D01*
X95309D01*
Y53780D01*
X96423D01*
Y52520D01*
X95309D01*
Y50968D01*
X98730D01*
Y52083D01*
X99990D01*
Y50968D01*
X103411D01*
Y52520D01*
X102297D01*
Y53780D01*
X103411D01*
Y55331D01*
X103199D01*
Y59055D01*
Y62992D01*
Y66929D01*
Y70828D01*
X107834D01*
X112993Y65669D01*
D02*
G37*
G36*
X46507Y55993D02*
X46202Y55538D01*
X46095Y55000D01*
Y54961D01*
X42531D01*
Y50039D01*
X46095D01*
Y38583D01*
X44488D01*
Y23228D01*
X50000D01*
Y38583D01*
X48905D01*
Y52500D01*
Y54418D01*
X50169Y55682D01*
X50886D01*
Y53740D01*
X51942D01*
Y41654D01*
X52048Y41116D01*
X52353Y40660D01*
X53595Y39418D01*
Y38583D01*
X52362D01*
Y23228D01*
X57874D01*
Y38583D01*
X56405D01*
Y40000D01*
X56298Y40538D01*
X56083Y40859D01*
X60236Y36706D01*
Y23228D01*
X65748D01*
Y38583D01*
X62333D01*
X57507Y43409D01*
Y49902D01*
X58634D01*
Y48961D01*
X58488D01*
Y44039D01*
X59544D01*
Y43551D01*
X59651Y43014D01*
X59955Y42558D01*
X61507Y41006D01*
X61962Y40702D01*
X62500Y40595D01*
X76994D01*
Y38583D01*
X75984D01*
Y29210D01*
X75885Y29169D01*
X75331Y28615D01*
X75032Y27892D01*
Y27108D01*
X75331Y26385D01*
X75885Y25831D01*
X75984Y25790D01*
Y23228D01*
X76733D01*
Y22571D01*
X74669Y20507D01*
X27831D01*
X5007Y43331D01*
Y44882D01*
X13140D01*
Y51143D01*
X18750D01*
X18944Y51181D01*
X22589D01*
Y51745D01*
X37632D01*
Y50039D01*
X41569D01*
Y54961D01*
X37632D01*
Y54555D01*
X22589D01*
Y55118D01*
Y55682D01*
X24087D01*
X24624Y55789D01*
X25080Y56093D01*
X26637Y57650D01*
X48163D01*
X46507Y55993D01*
D02*
G37*
G36*
X76431Y51039D02*
X76794D01*
Y49961D01*
X76431D01*
Y45039D01*
X76994D01*
Y43405D01*
X63082D01*
X62448Y44039D01*
X63410D01*
Y48961D01*
X61444D01*
Y49902D01*
X63386D01*
Y50957D01*
X66556D01*
X67297Y50216D01*
Y50079D01*
X67567Y49428D01*
X67821Y49173D01*
X64378D01*
Y47130D01*
X65492D01*
Y45870D01*
X64378D01*
Y43827D01*
X66421D01*
Y44941D01*
X67681D01*
Y43827D01*
X69724D01*
Y45870D01*
X68610D01*
Y47130D01*
X69724D01*
Y47789D01*
X70258Y47255D01*
X70714Y46951D01*
X71251Y46844D01*
X71531D01*
Y45039D01*
X75468D01*
Y49961D01*
X74196D01*
X74440Y50062D01*
X74938Y50560D01*
X75137Y51039D01*
X75468D01*
Y55682D01*
X76431D01*
Y51039D01*
D02*
G37*
%LPC*%
G36*
X88041Y82677D02*
X79380D01*
Y76378D01*
X88041D01*
Y82677D01*
D02*
G37*
G36*
X100728Y40362D02*
X97996D01*
Y39248D01*
X96736D01*
Y40362D01*
X94004D01*
Y37630D01*
X95118D01*
Y36370D01*
X94004D01*
Y33638D01*
X96736D01*
Y34752D01*
X97996D01*
Y33638D01*
X100728D01*
Y36370D01*
X99614D01*
Y37630D01*
X100728D01*
Y40362D01*
D02*
G37*
G36*
X108783Y40150D02*
X102484D01*
Y33850D01*
X102505D01*
Y32961D01*
X101931D01*
Y28039D01*
X105868D01*
Y32961D01*
X105314D01*
Y33850D01*
X108783D01*
Y40150D01*
D02*
G37*
G36*
X42339Y38795D02*
X40000D01*
Y37681D01*
X38740D01*
Y38795D01*
X36402D01*
Y31535D01*
X37516D01*
Y30276D01*
X36402D01*
Y23016D01*
X38740D01*
Y24130D01*
X40000D01*
Y23016D01*
X42339D01*
Y30276D01*
X41225D01*
Y31535D01*
X42339D01*
Y38795D01*
D02*
G37*
G36*
X71352Y39272D02*
X70648D01*
X69996Y39002D01*
X69577Y38583D01*
X68110D01*
Y23228D01*
X73622D01*
Y38583D01*
X72423D01*
X72004Y39002D01*
X71352Y39272D01*
D02*
G37*
%LPD*%
D11*
X62929Y30906D02*
Y36000D01*
X62819D02*
X62929D01*
X61524Y37295D02*
X62819Y36000D01*
X61524Y37295D02*
Y37405D01*
X55055Y30906D02*
Y36000D01*
X55000Y36055D02*
X55055Y36000D01*
X99321Y65000D02*
X99360Y64961D01*
X58071Y52362D02*
X60039D01*
X64764Y55118D02*
X64819Y55063D01*
D15*
X127500Y136449D02*
D03*
Y142551D02*
D03*
Y101949D02*
D03*
Y108051D02*
D03*
Y67449D02*
D03*
Y73551D02*
D03*
Y32949D02*
D03*
Y39051D02*
D03*
D16*
X99360Y57087D02*
D03*
Y64961D02*
D03*
Y72835D02*
D03*
Y68898D02*
D03*
Y61024D02*
D03*
Y53150D02*
D03*
X73770Y84646D02*
D03*
Y92520D02*
D03*
Y100394D02*
D03*
Y104331D02*
D03*
Y96457D02*
D03*
Y88583D02*
D03*
X44341Y104331D02*
D03*
Y96457D02*
D03*
Y88583D02*
D03*
Y84646D02*
D03*
Y92520D02*
D03*
Y100394D02*
D03*
X18750Y72835D02*
D03*
Y64961D02*
D03*
Y57087D02*
D03*
Y53150D02*
D03*
Y61024D02*
D03*
Y68898D02*
D03*
D17*
X109301Y48031D02*
D03*
Y77953D02*
D03*
X83711Y109449D02*
D03*
Y79528D02*
D03*
X34400D02*
D03*
Y109449D02*
D03*
X8809Y48031D02*
D03*
Y77953D02*
D03*
D18*
X78399Y47500D02*
D03*
X73500D02*
D03*
X44500Y52500D02*
D03*
X39601D02*
D03*
X73500Y53500D02*
D03*
X78399D02*
D03*
X99000Y30500D02*
D03*
X103899D02*
D03*
D19*
X30118Y8268D02*
D03*
X87992D02*
D03*
D20*
X70866Y30906D02*
D03*
X78740D02*
D03*
X62992D02*
D03*
X55118D02*
D03*
X47244D02*
D03*
X39370D02*
D03*
D21*
X64764Y55118D02*
D03*
Y57087D02*
D03*
Y59055D02*
D03*
Y61024D02*
D03*
X53347D02*
D03*
Y59055D02*
D03*
Y57087D02*
D03*
Y55118D02*
D03*
D22*
X62008Y63779D02*
D03*
X60039D02*
D03*
X58071D02*
D03*
X56102D02*
D03*
Y52362D02*
D03*
X58071D02*
D03*
X60039D02*
D03*
X62008D02*
D03*
D23*
X59055Y58071D02*
D03*
D24*
X60949Y46500D02*
D03*
X67051D02*
D03*
D25*
X97366Y37000D02*
D03*
X105634D02*
D03*
D40*
X56102Y42827D02*
X61524Y37405D01*
X56102Y42827D02*
Y52362D01*
X55000Y36055D02*
Y40000D01*
X53347Y41654D02*
X55000Y40000D01*
X53347Y41654D02*
Y55118D01*
X64764Y59055D02*
X83055D01*
X92898Y68898D01*
X99360D01*
X64764Y57087D02*
X84114D01*
X92028Y65000D01*
X99321D01*
X62008Y63779D02*
Y94508D01*
X67894Y100394D01*
X73770D01*
X64764Y61024D02*
Y93764D01*
X67457Y96457D01*
X73770D01*
X56102Y63779D02*
Y83898D01*
X51417Y88583D02*
X56102Y83898D01*
X44341Y88583D02*
X51417D01*
X58071Y63779D02*
Y86429D01*
X51980Y92520D02*
X58071Y86429D01*
X44341Y92520D02*
X51980D01*
X26055Y59055D02*
X53347D01*
X24087Y57087D02*
X26055Y59055D01*
X18750Y57087D02*
X24087D01*
X18750Y61024D02*
X53347D01*
X60039Y47409D02*
Y52362D01*
X39601Y52500D02*
Y52559D01*
X18750Y53150D02*
X39010D01*
X39601Y52559D01*
X60949Y43551D02*
Y46500D01*
X78740Y30906D02*
X98594D01*
X99000Y30500D01*
X78399Y35688D02*
Y42000D01*
X60949Y43551D02*
X62500Y42000D01*
X78399D01*
Y48500D01*
X60039Y63779D02*
Y69461D01*
Y59055D02*
Y63779D01*
X59055Y58071D02*
X60039Y59055D01*
X67051Y46500D02*
X68500Y45051D01*
Y45000D02*
Y45051D01*
X47500Y55000D02*
X49587Y57087D01*
X53347D01*
X47500Y52500D02*
Y55000D01*
X44500Y52500D02*
X47500D01*
Y30906D02*
Y52500D01*
X64819Y55063D02*
X67937D01*
X69500Y53500D01*
X73500D01*
X73436Y51564D02*
X73468Y51595D01*
Y53468D01*
X73500Y53500D01*
X72909Y48249D02*
X73500Y47658D01*
X69069Y50431D02*
X71251Y48249D01*
X72909D01*
X73500Y47500D02*
Y47658D01*
X67138Y52362D02*
X69069Y50431D01*
X103899Y30500D02*
X103909Y30510D01*
Y35276D01*
X105634Y37000D01*
X62008Y52362D02*
X67138D01*
D41*
X78399Y48500D02*
Y53500D01*
D42*
X99360Y72835D02*
X108665D01*
X115000Y66500D01*
X73770Y104331D02*
X86169D01*
X99000Y91500D01*
Y72835D02*
X99360D01*
X6646Y84646D02*
X44341D01*
X3000Y81000D02*
X6646Y84646D01*
X3000Y53500D02*
Y81000D01*
X3350Y53150D02*
X18750D01*
X3000Y53500D02*
X3350Y53150D01*
X107484Y25984D02*
X115000Y33500D01*
Y66500D01*
X78740Y25984D02*
X107484D01*
X99000Y72835D02*
Y91500D01*
X75500Y18500D02*
X78740Y21740D01*
Y25984D01*
X27000Y18500D02*
X75500D01*
X3000Y42500D02*
Y53500D01*
Y42500D02*
X27000Y18500D01*
D43*
X15748Y15748D02*
D03*
Y102362D02*
D03*
X102362Y15748D02*
D03*
Y102362D02*
D03*
D44*
X62929Y36000D02*
D03*
X96610Y61024D02*
D03*
X71020Y92520D02*
D03*
X47091Y96457D02*
D03*
X21500Y64961D02*
D03*
X55055Y36000D02*
D03*
X21500Y68898D02*
D03*
X71020Y88583D02*
D03*
X96610Y57087D02*
D03*
X47091Y100394D02*
D03*
X68500Y45000D02*
D03*
X7874Y7874D02*
D03*
Y23622D02*
D03*
Y31496D02*
D03*
Y62992D02*
D03*
Y70866D02*
D03*
Y94488D02*
D03*
Y110236D02*
D03*
X15748Y39370D02*
D03*
Y47244D02*
D03*
X23622Y7874D02*
D03*
Y31496D02*
D03*
Y39370D02*
D03*
Y47244D02*
D03*
Y78740D02*
D03*
Y110236D02*
D03*
X31496Y23622D02*
D03*
Y31496D02*
D03*
Y39370D02*
D03*
Y47244D02*
D03*
Y94488D02*
D03*
X39370Y7874D02*
D03*
Y47244D02*
D03*
X47244Y7874D02*
D03*
Y78740D02*
D03*
Y110236D02*
D03*
X55118Y7874D02*
D03*
Y110236D02*
D03*
X62992Y7874D02*
D03*
Y110236D02*
D03*
X70866Y7874D02*
D03*
Y62992D02*
D03*
Y110236D02*
D03*
X78740Y7874D02*
D03*
Y15748D02*
D03*
Y62992D02*
D03*
X86614Y47244D02*
D03*
Y55118D02*
D03*
Y86614D02*
D03*
Y94488D02*
D03*
X94488Y7874D02*
D03*
Y78740D02*
D03*
Y86614D02*
D03*
Y110236D02*
D03*
X102362Y47244D02*
D03*
X110236Y7874D02*
D03*
Y23622D02*
D03*
Y39370D02*
D03*
Y55118D02*
D03*
Y62992D02*
D03*
Y86614D02*
D03*
Y94488D02*
D03*
Y110236D02*
D03*
X71000Y37500D02*
D03*
X73436Y51564D02*
D03*
X69069Y50431D02*
D03*
D45*
X77000Y27500D02*
D03*
M02*
