G04*
G04 #@! TF.GenerationSoftware,Altium Limited,Altium Designer,25.5.2 (35)*
G04*
G04 Layer_Color=65535*
%FSLAX25Y25*%
%MOIN*%
G70*
G04*
G04 #@! TF.SameCoordinates,B5FEB460-497D-4EFD-8A55-F2067931CFC5*
G04*
G04*
G04 #@! TF.FilePolarity,Positive*
G04*
G01*
G75*
%ADD10C,0.00394*%
%ADD11C,0.00787*%
%ADD12C,0.01000*%
%ADD13C,0.00276*%
%ADD14C,0.00591*%
G36*
X37689Y94272D02*
X37806D01*
Y94233D01*
X37883D01*
Y94194D01*
X37922D01*
Y94156D01*
X38000D01*
Y94117D01*
X38039D01*
Y94078D01*
X38117D01*
Y94039D01*
X38156D01*
Y94000D01*
X38195D01*
Y93961D01*
X38272D01*
Y93922D01*
X38311D01*
Y93883D01*
X38350D01*
Y93844D01*
X38428D01*
Y93806D01*
X38467D01*
Y93767D01*
X38544D01*
Y93728D01*
X38583D01*
Y93689D01*
X38622D01*
Y93650D01*
X38700D01*
Y93611D01*
X38739D01*
Y93572D01*
X38778D01*
Y93533D01*
X38856D01*
Y93494D01*
X38895D01*
Y93456D01*
X38933D01*
Y93417D01*
X39011D01*
Y93378D01*
X39050D01*
Y93339D01*
X39128D01*
Y93300D01*
X39167D01*
Y93261D01*
X39206D01*
Y93222D01*
X39283D01*
Y93183D01*
X39322D01*
Y93144D01*
X39361D01*
Y93106D01*
X39439D01*
Y93067D01*
X39478D01*
Y93028D01*
X39517D01*
Y92989D01*
X39595D01*
Y92950D01*
X39633D01*
Y92911D01*
X39672D01*
Y92872D01*
X39750D01*
Y92833D01*
X39789D01*
Y92794D01*
X39867D01*
Y92756D01*
X39906D01*
Y92717D01*
X39944D01*
Y92678D01*
X40022D01*
Y92639D01*
X40061D01*
Y92600D01*
X40100D01*
Y92561D01*
X40178D01*
Y92522D01*
X40217D01*
Y92483D01*
X40256D01*
Y92444D01*
X40333D01*
Y92406D01*
X40372D01*
Y92367D01*
X40411D01*
Y91433D01*
X40372D01*
Y91044D01*
X40333D01*
Y91083D01*
X40256D01*
Y91122D01*
X40217D01*
Y91161D01*
X40139D01*
Y91200D01*
X40100D01*
Y91239D01*
X40022D01*
Y91278D01*
X39983D01*
Y91317D01*
X39944D01*
Y91356D01*
X39867D01*
Y91394D01*
X39828D01*
Y91433D01*
X39750D01*
Y91472D01*
X39711D01*
Y91511D01*
X39633D01*
Y91550D01*
X39595D01*
Y91589D01*
X39556D01*
Y91628D01*
X39478D01*
Y91667D01*
X39439D01*
Y91706D01*
X39361D01*
Y91744D01*
X39322D01*
Y91783D01*
X39244D01*
Y91822D01*
X39206D01*
Y91861D01*
X39128D01*
Y91900D01*
X39089D01*
Y91939D01*
X39050D01*
Y91978D01*
X38972D01*
Y92017D01*
X38933D01*
Y92056D01*
X38856D01*
Y92094D01*
X38817D01*
Y92133D01*
X38739D01*
Y92172D01*
X38700D01*
Y92211D01*
X38661D01*
Y92250D01*
X38583D01*
Y92289D01*
X38544D01*
Y92328D01*
X38467D01*
Y92367D01*
X38428D01*
Y92406D01*
X38350D01*
Y92444D01*
X38311D01*
Y92483D01*
X38233D01*
Y92522D01*
X38195D01*
Y92561D01*
X38156D01*
Y92600D01*
X38078D01*
Y92639D01*
X38039D01*
Y92678D01*
X37961D01*
Y92717D01*
X37922D01*
Y92756D01*
X37844D01*
Y92794D01*
X37806D01*
Y92833D01*
X37728D01*
Y92872D01*
X37650D01*
Y92911D01*
X37222D01*
Y92872D01*
X37106D01*
Y92833D01*
X37028D01*
Y92794D01*
X36950D01*
Y92756D01*
X36833D01*
Y92717D01*
X36756D01*
Y92678D01*
X36678D01*
Y92639D01*
X36600D01*
Y92600D01*
X36522D01*
Y92561D01*
X36406D01*
Y92522D01*
X36328D01*
Y92483D01*
X36250D01*
Y92444D01*
X36172D01*
Y92406D01*
X36094D01*
Y92367D01*
X36133D01*
Y92328D01*
X36211D01*
Y92289D01*
X36250D01*
Y92250D01*
X36328D01*
Y92211D01*
X36367D01*
Y92172D01*
X36445D01*
Y92133D01*
X36483D01*
Y92094D01*
X36522D01*
Y92056D01*
X36600D01*
Y92017D01*
X36639D01*
Y91978D01*
X36717D01*
Y91939D01*
X36756D01*
Y91900D01*
X36833D01*
Y91861D01*
X36872D01*
Y91822D01*
X36950D01*
Y91783D01*
X36989D01*
Y91744D01*
X37067D01*
Y91706D01*
X37106D01*
Y91667D01*
X37183D01*
Y91628D01*
X37222D01*
Y91589D01*
X37300D01*
Y91550D01*
X37339D01*
Y91511D01*
X37417D01*
Y91472D01*
X37456D01*
Y91433D01*
X37533D01*
Y91394D01*
X37572D01*
Y91356D01*
X37650D01*
Y91317D01*
X37689D01*
Y91278D01*
X37767D01*
Y91239D01*
X37806D01*
Y91200D01*
X37844D01*
Y91161D01*
X37922D01*
Y91122D01*
X37961D01*
Y91083D01*
X38039D01*
Y91044D01*
X38078D01*
Y91006D01*
X38156D01*
Y90967D01*
X38195D01*
Y90928D01*
X38272D01*
Y90889D01*
X38311D01*
Y90850D01*
X38389D01*
Y90811D01*
X38428D01*
Y90772D01*
X38506D01*
Y90733D01*
X38544D01*
Y90694D01*
X38622D01*
Y90656D01*
X38661D01*
Y90617D01*
X38739D01*
Y90578D01*
X38778D01*
Y90539D01*
X38856D01*
Y90500D01*
X38895D01*
Y90461D01*
X38972D01*
Y90422D01*
X39011D01*
Y90383D01*
X39050D01*
Y90344D01*
X39128D01*
Y90306D01*
X39167D01*
Y90267D01*
X39244D01*
Y90228D01*
X39283D01*
Y90189D01*
X39361D01*
Y90150D01*
X39400D01*
Y90111D01*
X39478D01*
Y90072D01*
X39517D01*
Y90033D01*
X39595D01*
Y89994D01*
X39633D01*
Y89956D01*
X39711D01*
Y89917D01*
X39750D01*
Y89878D01*
X39828D01*
Y89839D01*
X39867D01*
Y89800D01*
X39944D01*
Y89761D01*
X39983D01*
Y89722D01*
X40022D01*
Y89683D01*
X40061D01*
Y89644D01*
X40100D01*
Y89567D01*
X40139D01*
Y89489D01*
X40178D01*
Y89450D01*
Y89411D01*
Y89372D01*
X40217D01*
Y89061D01*
X40178D01*
Y88322D01*
X40217D01*
Y88283D01*
X40256D01*
Y88244D01*
X40295D01*
Y88206D01*
X40333D01*
Y88167D01*
X40372D01*
Y88128D01*
X40411D01*
Y88089D01*
X40450D01*
Y88011D01*
X40489D01*
Y87933D01*
X40528D01*
Y87856D01*
X40567D01*
Y87778D01*
X40606D01*
Y87622D01*
X40644D01*
Y87194D01*
X40606D01*
Y87039D01*
X40567D01*
Y86961D01*
X40528D01*
Y86883D01*
X40489D01*
Y86806D01*
X40450D01*
Y86767D01*
X40411D01*
Y86689D01*
X40372D01*
Y86650D01*
X40333D01*
Y86611D01*
X40295D01*
Y86572D01*
X40256D01*
Y86533D01*
X40217D01*
Y86494D01*
X40139D01*
Y86456D01*
X40100D01*
Y86417D01*
X40022D01*
Y86378D01*
X39944D01*
Y86339D01*
X39828D01*
Y86300D01*
X39633D01*
Y86261D01*
X39322D01*
Y86300D01*
X39167D01*
Y86339D01*
X39089D01*
Y86378D01*
X38972D01*
Y86417D01*
X38933D01*
Y86456D01*
X38856D01*
Y86494D01*
X38817D01*
Y86533D01*
X38739D01*
Y86572D01*
X38700D01*
Y86611D01*
X38661D01*
Y86689D01*
X38622D01*
Y86728D01*
X38583D01*
Y86767D01*
X38544D01*
Y86844D01*
X38506D01*
Y86883D01*
X38467D01*
Y87000D01*
X38428D01*
Y87117D01*
X38389D01*
Y87350D01*
X38350D01*
Y87467D01*
X38389D01*
Y87700D01*
X38428D01*
Y87817D01*
X38467D01*
Y87894D01*
X38506D01*
Y88011D01*
X38544D01*
Y88050D01*
X38583D01*
Y88089D01*
X38622D01*
Y88167D01*
X38661D01*
Y88206D01*
X38700D01*
Y88244D01*
X38739D01*
Y88283D01*
X38778D01*
Y88322D01*
X38856D01*
Y88361D01*
X38933D01*
Y88400D01*
X38972D01*
Y88439D01*
X39011D01*
Y88828D01*
X38972D01*
Y88944D01*
X38933D01*
Y89022D01*
X38895D01*
Y89061D01*
X38856D01*
Y89100D01*
X38817D01*
Y89139D01*
X38778D01*
Y89178D01*
X38700D01*
Y89217D01*
X38661D01*
Y89256D01*
X38583D01*
Y89294D01*
X38544D01*
Y89333D01*
X38506D01*
Y89372D01*
X38428D01*
Y89411D01*
X38389D01*
Y89450D01*
X38311D01*
Y89489D01*
X38272D01*
Y89528D01*
X38195D01*
Y89567D01*
X38156D01*
Y89606D01*
X38078D01*
Y89644D01*
X38039D01*
Y89683D01*
X37961D01*
Y89722D01*
X37922D01*
Y89761D01*
X37883D01*
Y89800D01*
X37806D01*
Y89839D01*
X37767D01*
Y89878D01*
X37689D01*
Y89917D01*
X37650D01*
Y89956D01*
X37572D01*
Y89994D01*
X37533D01*
Y90033D01*
X37456D01*
Y90072D01*
X37417D01*
Y90111D01*
X37339D01*
Y90150D01*
X37300D01*
Y90189D01*
X37222D01*
Y90228D01*
X37183D01*
Y90267D01*
X37145D01*
Y90306D01*
X37067D01*
Y90344D01*
X37028D01*
Y90383D01*
X36950D01*
Y90422D01*
X36911D01*
Y90461D01*
X36833D01*
Y90500D01*
X36794D01*
Y90539D01*
X36717D01*
Y90578D01*
X36678D01*
Y90617D01*
X36600D01*
Y90656D01*
X36561D01*
Y90694D01*
X36522D01*
Y90733D01*
X36445D01*
Y90772D01*
X36406D01*
Y90811D01*
X36328D01*
Y90850D01*
X36289D01*
Y90889D01*
X36211D01*
Y90928D01*
X36172D01*
Y90967D01*
X36094D01*
Y91006D01*
X36056D01*
Y91044D01*
X35978D01*
Y91083D01*
X35939D01*
Y91122D01*
X35900D01*
Y91161D01*
X35822D01*
Y91200D01*
X35783D01*
Y91239D01*
X35706D01*
Y91278D01*
X35667D01*
Y91317D01*
X35589D01*
Y91356D01*
X35550D01*
Y91394D01*
X35472D01*
Y91433D01*
X35433D01*
Y91472D01*
X35356D01*
Y91511D01*
X35317D01*
Y91550D01*
X35239D01*
Y91589D01*
X35200D01*
Y91628D01*
X35161D01*
Y91667D01*
X35083D01*
Y91706D01*
X35045D01*
Y91744D01*
X34967D01*
Y91783D01*
X34928D01*
Y91822D01*
X34850D01*
Y91861D01*
X34811D01*
Y91900D01*
X34733D01*
Y91939D01*
X34694D01*
Y91978D01*
X34617D01*
Y92017D01*
X34578D01*
Y92056D01*
X34539D01*
Y92094D01*
X34461D01*
Y92133D01*
X34422D01*
Y92172D01*
X34345D01*
Y92211D01*
X34306D01*
Y92250D01*
X34228D01*
Y92289D01*
X34189D01*
Y92328D01*
X34111D01*
Y92367D01*
X34072D01*
Y92406D01*
X33994D01*
Y92444D01*
X33956D01*
Y92483D01*
X33878D01*
Y92522D01*
X33839D01*
Y92600D01*
X33917D01*
Y92639D01*
X33994D01*
Y92678D01*
X34072D01*
Y92717D01*
X34150D01*
Y92756D01*
X34228D01*
Y92794D01*
X34306D01*
Y92833D01*
X34383D01*
Y92872D01*
X34422D01*
Y92911D01*
X34500D01*
Y92950D01*
X34578D01*
Y92989D01*
X34656D01*
Y93028D01*
X34733D01*
Y93067D01*
X34811D01*
Y93106D01*
X34889D01*
Y93144D01*
X34967D01*
Y93183D01*
X35045D01*
Y93222D01*
X35122D01*
Y93261D01*
X35200D01*
Y93300D01*
X35278D01*
Y93339D01*
X35356D01*
Y93378D01*
X35433D01*
Y93417D01*
X35511D01*
Y93456D01*
X35589D01*
Y93494D01*
X35667D01*
Y93533D01*
X35745D01*
Y93572D01*
X35822D01*
Y93611D01*
X35900D01*
Y93650D01*
X35978D01*
Y93689D01*
X36056D01*
Y93728D01*
X36133D01*
Y93767D01*
X36211D01*
Y93806D01*
X36289D01*
Y93844D01*
X36367D01*
Y93883D01*
X36445D01*
Y93922D01*
X36522D01*
Y93961D01*
X36600D01*
Y94000D01*
X36678D01*
Y94039D01*
X36756D01*
Y94078D01*
X36833D01*
Y94117D01*
X36911D01*
Y94156D01*
X36989D01*
Y94194D01*
X37067D01*
Y94233D01*
X37145D01*
Y94272D01*
X37261D01*
Y94311D01*
X37689D01*
Y94272D01*
D02*
G37*
G36*
X32983Y91356D02*
X33061D01*
Y91317D01*
X33139D01*
Y91278D01*
X33217D01*
Y91239D01*
X33256D01*
Y91200D01*
X33333D01*
Y91161D01*
X33411D01*
Y91122D01*
X33489D01*
Y91083D01*
X33567D01*
Y91044D01*
X33606D01*
Y91006D01*
X33683D01*
Y90967D01*
X33761D01*
Y90928D01*
X33839D01*
Y90889D01*
X33878D01*
Y90850D01*
X33956D01*
Y90811D01*
X34033D01*
Y90772D01*
X34072D01*
Y90733D01*
X34033D01*
Y90694D01*
X33956D01*
Y90656D01*
X33878D01*
Y90617D01*
X33800D01*
Y90578D01*
X33761D01*
Y90539D01*
X33683D01*
Y90500D01*
X33606D01*
Y90461D01*
X33528D01*
Y90422D01*
X33450D01*
Y90383D01*
X33372D01*
Y90344D01*
X33294D01*
Y90306D01*
X33217D01*
Y90267D01*
X33139D01*
Y90228D01*
X33061D01*
Y90189D01*
X32983D01*
Y90150D01*
X32906D01*
Y90111D01*
X32828D01*
Y90072D01*
X32750D01*
Y90033D01*
X32672D01*
Y89994D01*
X32594D01*
Y89956D01*
X32517D01*
Y89917D01*
X32439D01*
Y89878D01*
X32361D01*
Y89839D01*
X32283D01*
Y89800D01*
X32206D01*
Y89761D01*
X32128D01*
Y89722D01*
X32050D01*
Y89683D01*
X31972D01*
Y89644D01*
X31894D01*
Y89606D01*
X31817D01*
Y89567D01*
X31739D01*
Y89528D01*
X31661D01*
Y89489D01*
X31583D01*
Y89450D01*
X31506D01*
Y89411D01*
X31428D01*
Y89372D01*
X31350D01*
Y89333D01*
X31311D01*
Y89294D01*
X31233D01*
Y89256D01*
X31194D01*
Y89217D01*
X31156D01*
Y89178D01*
X31117D01*
Y89139D01*
X31078D01*
Y89100D01*
X31039D01*
Y89022D01*
X31000D01*
Y88944D01*
X30961D01*
Y88633D01*
X30922D01*
Y88050D01*
X30883D01*
Y87622D01*
X30922D01*
Y87661D01*
X31000D01*
Y87700D01*
X31078D01*
Y87739D01*
X31156D01*
Y87778D01*
X31233D01*
Y87817D01*
X31311D01*
Y87856D01*
X31389D01*
Y87894D01*
X31467D01*
Y87933D01*
X31545D01*
Y87972D01*
X31622D01*
Y88011D01*
X31700D01*
Y88050D01*
X31739D01*
Y88089D01*
X31817D01*
Y88128D01*
X31894D01*
Y88167D01*
X31972D01*
Y88206D01*
X32050D01*
Y88244D01*
X32128D01*
Y88283D01*
X32206D01*
Y88322D01*
X32283D01*
Y88361D01*
X32361D01*
Y88400D01*
X32439D01*
Y88439D01*
X32517D01*
Y88478D01*
X32556D01*
Y88517D01*
X32633D01*
Y88556D01*
X32711D01*
Y88594D01*
X32789D01*
Y88633D01*
X32867D01*
Y88672D01*
X32945D01*
Y88711D01*
X33022D01*
Y88750D01*
X33100D01*
Y88789D01*
X33178D01*
Y88828D01*
X33256D01*
Y88867D01*
X33333D01*
Y88906D01*
X33372D01*
Y88944D01*
X33450D01*
Y88983D01*
X33528D01*
Y89022D01*
X33606D01*
Y89061D01*
X33683D01*
Y89100D01*
X33761D01*
Y89139D01*
X33839D01*
Y89178D01*
X33917D01*
Y89217D01*
X33994D01*
Y89256D01*
X34072D01*
Y89294D01*
X34150D01*
Y89333D01*
X34189D01*
Y89372D01*
X34267D01*
Y89411D01*
X34345D01*
Y89450D01*
X34422D01*
Y89489D01*
X34500D01*
Y89528D01*
X34578D01*
Y89567D01*
X34656D01*
Y89606D01*
X34733D01*
Y89644D01*
X34811D01*
Y89683D01*
X34889D01*
Y89722D01*
X34967D01*
Y89761D01*
X35045D01*
Y89800D01*
X35122D01*
Y89839D01*
X35433D01*
Y89800D01*
X35511D01*
Y89761D01*
X35589D01*
Y89722D01*
X35667D01*
Y89683D01*
X35745D01*
Y89644D01*
X35783D01*
Y89606D01*
X35861D01*
Y89567D01*
X35939D01*
Y89528D01*
X35978D01*
Y89489D01*
X36056D01*
Y89450D01*
X36133D01*
Y89411D01*
X36172D01*
Y89372D01*
X36250D01*
Y89333D01*
X36328D01*
Y89294D01*
X36406D01*
Y89333D01*
X36522D01*
Y89372D01*
X36678D01*
Y89411D01*
X37028D01*
Y89372D01*
X37222D01*
Y89333D01*
X37339D01*
Y89294D01*
X37417D01*
Y89256D01*
X37456D01*
Y89217D01*
X37533D01*
Y89178D01*
X37572D01*
Y89139D01*
X37611D01*
Y89100D01*
X37650D01*
Y89061D01*
X37728D01*
Y88983D01*
X37767D01*
Y88944D01*
X37806D01*
Y88906D01*
X37844D01*
Y88828D01*
X37883D01*
Y88750D01*
X37922D01*
Y88672D01*
X37961D01*
Y88517D01*
X38000D01*
Y87972D01*
X37961D01*
Y87856D01*
X37922D01*
Y87778D01*
X37883D01*
Y87700D01*
X37844D01*
Y87661D01*
X37806D01*
Y87583D01*
X37767D01*
Y87544D01*
X37728D01*
Y87506D01*
X37689D01*
Y87467D01*
X37650D01*
Y87428D01*
X37611D01*
Y87389D01*
X37572D01*
Y87350D01*
X37533D01*
Y87311D01*
X37456D01*
Y87272D01*
X37378D01*
Y87233D01*
X37300D01*
Y87194D01*
X37183D01*
Y87156D01*
X37028D01*
Y87117D01*
X36717D01*
Y87156D01*
X36561D01*
Y87194D01*
X36445D01*
Y87233D01*
X36367D01*
Y87272D01*
X36289D01*
Y87311D01*
X36211D01*
Y87350D01*
X36172D01*
Y87389D01*
X36133D01*
Y87428D01*
X36094D01*
Y87467D01*
X36056D01*
Y87506D01*
X36017D01*
Y87544D01*
X35978D01*
Y87583D01*
X35939D01*
Y87661D01*
X35900D01*
Y87700D01*
X35861D01*
Y87778D01*
X35822D01*
Y87856D01*
X35783D01*
Y88011D01*
X35745D01*
Y88322D01*
X35667D01*
Y88361D01*
X35589D01*
Y88400D01*
X35550D01*
Y88439D01*
X35433D01*
Y88478D01*
X35278D01*
Y88517D01*
X35200D01*
Y88478D01*
X35006D01*
Y88439D01*
X34928D01*
Y88400D01*
X34850D01*
Y88361D01*
X34772D01*
Y88322D01*
X34694D01*
Y88283D01*
X34617D01*
Y88244D01*
X34578D01*
Y88206D01*
X34500D01*
Y88167D01*
X34422D01*
Y88128D01*
X34345D01*
Y88089D01*
X34267D01*
Y88050D01*
X34189D01*
Y88011D01*
X34111D01*
Y87972D01*
X34033D01*
Y87933D01*
X33956D01*
Y87894D01*
X33878D01*
Y87856D01*
X33800D01*
Y87817D01*
X33722D01*
Y87778D01*
X33645D01*
Y87739D01*
X33567D01*
Y87700D01*
X33489D01*
Y87661D01*
X33411D01*
Y87622D01*
X33372D01*
Y87583D01*
X33294D01*
Y87544D01*
X33217D01*
Y87506D01*
X33139D01*
Y87467D01*
X33061D01*
Y87428D01*
X32983D01*
Y87389D01*
X32906D01*
Y87350D01*
X32828D01*
Y87311D01*
X32750D01*
Y87272D01*
X32672D01*
Y87233D01*
X32594D01*
Y87194D01*
X32517D01*
Y87156D01*
X32439D01*
Y87117D01*
X32361D01*
Y87078D01*
X32283D01*
Y87039D01*
X32206D01*
Y87000D01*
X32167D01*
Y86961D01*
X32089D01*
Y86922D01*
X32011D01*
Y86883D01*
X31933D01*
Y86844D01*
X31856D01*
Y86806D01*
X31778D01*
Y86767D01*
X31700D01*
Y86728D01*
X31622D01*
Y86689D01*
X31545D01*
Y86650D01*
X31467D01*
Y86611D01*
X31389D01*
Y86572D01*
X31311D01*
Y86533D01*
X31233D01*
Y86494D01*
X31156D01*
Y86456D01*
X31078D01*
Y86417D01*
X31000D01*
Y86378D01*
X30961D01*
Y86339D01*
X30883D01*
Y86300D01*
X30806D01*
Y86261D01*
X30728D01*
Y86222D01*
X30650D01*
Y86183D01*
X30572D01*
Y86144D01*
X30494D01*
Y86106D01*
X30417D01*
Y86067D01*
X30339D01*
Y86028D01*
X30261D01*
Y85989D01*
X30183D01*
Y85950D01*
X30106D01*
Y85911D01*
X30028D01*
Y85872D01*
X29950D01*
Y85833D01*
X29872D01*
Y85794D01*
X29794D01*
Y85756D01*
X29756D01*
Y85717D01*
X29639D01*
Y86806D01*
X29678D01*
Y88322D01*
X29717D01*
Y89450D01*
X29756D01*
Y89606D01*
X29794D01*
Y89722D01*
X29833D01*
Y89761D01*
X29872D01*
Y89839D01*
X29911D01*
Y89878D01*
X29950D01*
Y89917D01*
X29989D01*
Y89956D01*
X30028D01*
Y89994D01*
X30067D01*
Y90033D01*
X30145D01*
Y90072D01*
X30183D01*
Y90111D01*
X30261D01*
Y90150D01*
X30339D01*
Y90189D01*
X30417D01*
Y90228D01*
X30494D01*
Y90267D01*
X30572D01*
Y90306D01*
X30650D01*
Y90344D01*
X30728D01*
Y90383D01*
X30845D01*
Y90422D01*
X30922D01*
Y90461D01*
X31000D01*
Y90500D01*
X31078D01*
Y90539D01*
X31156D01*
Y90578D01*
X31233D01*
Y90617D01*
X31311D01*
Y90656D01*
X31389D01*
Y90694D01*
X31467D01*
Y90733D01*
X31545D01*
Y90772D01*
X31661D01*
Y90811D01*
X31739D01*
Y90850D01*
X31817D01*
Y90889D01*
X31894D01*
Y90928D01*
X31972D01*
Y90967D01*
X32050D01*
Y91006D01*
X32128D01*
Y91044D01*
X32206D01*
Y91083D01*
X32283D01*
Y91122D01*
X32400D01*
Y91161D01*
X32478D01*
Y91200D01*
X32556D01*
Y91239D01*
X32633D01*
Y91278D01*
X32711D01*
Y91317D01*
X32789D01*
Y91356D01*
X32867D01*
Y91394D01*
X32983D01*
Y91356D01*
D02*
G37*
G36*
X41267Y92522D02*
X41344D01*
Y92483D01*
X41422D01*
Y92444D01*
X41500D01*
Y92406D01*
X41578D01*
Y92367D01*
X41656D01*
Y92328D01*
X41733D01*
Y92289D01*
X41772D01*
Y92250D01*
X41850D01*
Y92211D01*
X41928D01*
Y92172D01*
X42006D01*
Y92133D01*
X42083D01*
Y92094D01*
X42161D01*
Y92056D01*
X42239D01*
Y92017D01*
X42278D01*
Y91978D01*
X42356D01*
Y91939D01*
X42433D01*
Y91900D01*
X42511D01*
Y91861D01*
X42589D01*
Y91822D01*
X42667D01*
Y91783D01*
X42744D01*
Y91744D01*
X42783D01*
Y91706D01*
X42861D01*
Y91667D01*
X42939D01*
Y91628D01*
X43017D01*
Y91589D01*
X43095D01*
Y91550D01*
X43172D01*
Y91511D01*
X43250D01*
Y91472D01*
X43289D01*
Y91433D01*
X43367D01*
Y91394D01*
X43444D01*
Y91356D01*
X43522D01*
Y91317D01*
X43600D01*
Y91278D01*
X43678D01*
Y91239D01*
X43756D01*
Y91200D01*
X43795D01*
Y91161D01*
X43872D01*
Y91122D01*
X43950D01*
Y91083D01*
X44028D01*
Y91044D01*
X44106D01*
Y91006D01*
X44183D01*
Y90967D01*
X44261D01*
Y90928D01*
X44339D01*
Y90889D01*
X44378D01*
Y90850D01*
X44456D01*
Y90811D01*
X44495D01*
Y90772D01*
X44572D01*
Y90733D01*
X44611D01*
Y90694D01*
X44650D01*
Y90656D01*
X44689D01*
Y90617D01*
X44728D01*
Y90539D01*
X44767D01*
Y90500D01*
X44806D01*
Y90422D01*
X44844D01*
Y90306D01*
X44883D01*
Y88944D01*
X44844D01*
Y87272D01*
X44806D01*
Y87039D01*
X44767D01*
Y87000D01*
X44728D01*
Y86961D01*
X44650D01*
Y86922D01*
X44611D01*
Y86883D01*
X44533D01*
Y86844D01*
X44495D01*
Y86806D01*
X44417D01*
Y86767D01*
X44378D01*
Y86728D01*
X44300D01*
Y86689D01*
X44261D01*
Y86650D01*
X44183D01*
Y86611D01*
X44144D01*
Y86572D01*
X44067D01*
Y86533D01*
X44028D01*
Y86494D01*
X43950D01*
Y86456D01*
X43911D01*
Y86417D01*
X43833D01*
Y86378D01*
X43795D01*
Y86339D01*
X43678D01*
Y89644D01*
X43639D01*
Y89761D01*
X43600D01*
Y89800D01*
X43561D01*
Y89878D01*
X43522D01*
Y89917D01*
X43483D01*
Y89956D01*
X43406D01*
Y89994D01*
X43367D01*
Y90033D01*
X43289D01*
Y90072D01*
X43250D01*
Y90111D01*
X43172D01*
Y90150D01*
X43095D01*
Y90189D01*
X43056D01*
Y90228D01*
X42978D01*
Y90267D01*
X42900D01*
Y90306D01*
X42861D01*
Y90344D01*
X42783D01*
Y90383D01*
X42706D01*
Y90422D01*
X42628D01*
Y90461D01*
X42589D01*
Y90500D01*
X42511D01*
Y90539D01*
X42433D01*
Y90578D01*
X42395D01*
Y90617D01*
X42356D01*
Y89644D01*
X42395D01*
Y87544D01*
Y87506D01*
Y87039D01*
X42433D01*
Y85794D01*
X42395D01*
Y85678D01*
X42356D01*
Y85639D01*
X42317D01*
Y85561D01*
X42278D01*
Y85522D01*
X42239D01*
Y85483D01*
X42200D01*
Y85444D01*
X42122D01*
Y85406D01*
X42083D01*
Y85367D01*
X42006D01*
Y85328D01*
X41967D01*
Y85289D01*
X41889D01*
Y85250D01*
X41811D01*
Y85211D01*
X41772D01*
Y85172D01*
X41695D01*
Y85133D01*
X41656D01*
Y85094D01*
X41578D01*
Y85056D01*
X41539D01*
Y85017D01*
X41461D01*
Y84978D01*
X41383D01*
Y84744D01*
X41344D01*
Y84589D01*
X41306D01*
Y84472D01*
X41267D01*
Y84394D01*
X41228D01*
Y84356D01*
X41189D01*
Y84278D01*
X41150D01*
Y84239D01*
X41111D01*
Y84200D01*
X41072D01*
Y84161D01*
X41033D01*
Y84122D01*
X40995D01*
Y84083D01*
X40956D01*
Y84044D01*
X40917D01*
Y84006D01*
X40839D01*
Y83967D01*
X40800D01*
Y83928D01*
X40683D01*
Y83889D01*
X40606D01*
Y83850D01*
X40450D01*
Y83811D01*
X40061D01*
Y83850D01*
X39867D01*
Y83889D01*
X39789D01*
Y83928D01*
X39711D01*
Y83967D01*
X39633D01*
Y84006D01*
X39595D01*
Y84044D01*
X39517D01*
Y84083D01*
X39478D01*
Y84122D01*
X39439D01*
Y84161D01*
X39400D01*
Y84200D01*
X39361D01*
Y84239D01*
X39322D01*
Y84317D01*
X39283D01*
Y84394D01*
X39244D01*
Y84433D01*
X39206D01*
Y84550D01*
X39167D01*
Y84628D01*
X39128D01*
Y84822D01*
X39089D01*
Y85056D01*
X39128D01*
Y85250D01*
X39167D01*
Y85367D01*
X39206D01*
Y85444D01*
X39244D01*
Y85522D01*
X39283D01*
Y85600D01*
X39322D01*
Y85639D01*
X39361D01*
Y85717D01*
X39400D01*
Y85756D01*
X39478D01*
Y85794D01*
X39517D01*
Y85833D01*
X39556D01*
Y85872D01*
X39595D01*
Y85911D01*
X39672D01*
Y85950D01*
X39711D01*
Y85989D01*
X39828D01*
Y86028D01*
X39906D01*
Y86067D01*
X40100D01*
Y86106D01*
X40372D01*
Y86067D01*
X40567D01*
Y86028D01*
X40644D01*
Y85989D01*
X40761D01*
Y85950D01*
X40839D01*
Y85989D01*
X40878D01*
Y86028D01*
X40956D01*
Y86067D01*
X40995D01*
Y86106D01*
X41033D01*
Y86144D01*
X41072D01*
Y86183D01*
X41111D01*
Y86222D01*
X41150D01*
Y86261D01*
X41189D01*
Y86339D01*
X41228D01*
Y86494D01*
X41267D01*
Y87078D01*
X41228D01*
Y91278D01*
X41189D01*
Y92561D01*
X41267D01*
Y92522D01*
D02*
G37*
G36*
X34889Y87311D02*
X35161D01*
Y87272D01*
X35317D01*
Y87233D01*
X35394D01*
Y87194D01*
X35472D01*
Y87156D01*
X35511D01*
Y87117D01*
X35589D01*
Y87078D01*
X35628D01*
Y87039D01*
X35667D01*
Y87000D01*
X35706D01*
Y86961D01*
X35745D01*
Y86922D01*
X35783D01*
Y86883D01*
X35822D01*
Y86806D01*
X35861D01*
Y86767D01*
X35900D01*
Y86689D01*
X35939D01*
Y86572D01*
X35978D01*
Y86456D01*
X36017D01*
Y85911D01*
X35978D01*
Y85794D01*
X35939D01*
Y85717D01*
X35900D01*
Y85639D01*
X35861D01*
Y85561D01*
X35822D01*
Y85522D01*
X35783D01*
Y85444D01*
X35745D01*
Y85406D01*
X35706D01*
Y85367D01*
X35667D01*
Y85328D01*
X35628D01*
Y85289D01*
X35550D01*
Y85250D01*
X35511D01*
Y85211D01*
X35433D01*
Y85172D01*
X35356D01*
Y85133D01*
X35278D01*
Y85094D01*
X35122D01*
Y85056D01*
X34656D01*
Y85094D01*
X34500D01*
Y85133D01*
X34422D01*
Y85172D01*
X34345D01*
Y85211D01*
X34306D01*
Y85172D01*
X34228D01*
Y85133D01*
X34150D01*
Y85094D01*
X34111D01*
Y85056D01*
X34033D01*
Y85017D01*
X33994D01*
Y84978D01*
X33956D01*
Y84900D01*
X33917D01*
Y84861D01*
X33878D01*
Y84744D01*
X33839D01*
Y83967D01*
X33800D01*
Y82217D01*
X33761D01*
Y80467D01*
X33722D01*
Y78717D01*
X33683D01*
Y78600D01*
X33645D01*
Y78639D01*
X33567D01*
Y78678D01*
X33528D01*
Y78717D01*
X33450D01*
Y78756D01*
X33372D01*
Y78794D01*
X33294D01*
Y78833D01*
X33256D01*
Y78872D01*
X33178D01*
Y78911D01*
X33100D01*
Y78950D01*
X33022D01*
Y78989D01*
X32983D01*
Y79028D01*
X32906D01*
Y79067D01*
X32828D01*
Y79106D01*
X32789D01*
Y79144D01*
X32711D01*
Y79183D01*
X32633D01*
Y79222D01*
X32556D01*
Y79261D01*
X32517D01*
Y79300D01*
X32439D01*
Y79339D01*
X32361D01*
Y79378D01*
X32283D01*
Y79417D01*
X32245D01*
Y79456D01*
X32167D01*
Y79494D01*
X32089D01*
Y79533D01*
X32050D01*
Y79572D01*
X31972D01*
Y79611D01*
X31894D01*
Y79650D01*
X31817D01*
Y79689D01*
X31778D01*
Y79728D01*
X31700D01*
Y79767D01*
X31622D01*
Y79806D01*
X31545D01*
Y79844D01*
X31506D01*
Y79883D01*
X31428D01*
Y79922D01*
X31350D01*
Y79961D01*
X31311D01*
Y80000D01*
X31233D01*
Y80039D01*
X31156D01*
Y80078D01*
X31078D01*
Y80117D01*
X31039D01*
Y80156D01*
X30961D01*
Y80194D01*
X30883D01*
Y80233D01*
X30806D01*
Y80272D01*
X30767D01*
Y80311D01*
X30689D01*
Y80350D01*
X30611D01*
Y80389D01*
X30572D01*
Y80428D01*
X30494D01*
Y80467D01*
X30456D01*
Y80506D01*
X30378D01*
Y80544D01*
X30339D01*
Y80583D01*
X30300D01*
Y80661D01*
X30261D01*
Y80700D01*
X30222D01*
Y80739D01*
X30183D01*
Y80817D01*
X30145D01*
Y80933D01*
X30106D01*
Y81906D01*
X30145D01*
Y82606D01*
X30183D01*
Y83306D01*
X30222D01*
Y84006D01*
X30261D01*
Y84239D01*
X30300D01*
Y84278D01*
X30339D01*
Y84317D01*
X30417D01*
Y84356D01*
X30494D01*
Y84394D01*
X30533D01*
Y84433D01*
X30611D01*
Y84472D01*
X30650D01*
Y84511D01*
X30728D01*
Y84550D01*
X30806D01*
Y84589D01*
X30845D01*
Y84628D01*
X30922D01*
Y84667D01*
X30961D01*
Y84706D01*
X31039D01*
Y84744D01*
X31117D01*
Y84783D01*
X31156D01*
Y84822D01*
X31233D01*
Y84861D01*
X31272D01*
Y84900D01*
X31350D01*
Y84939D01*
X31389D01*
Y83967D01*
X31350D01*
Y82683D01*
X31311D01*
Y81594D01*
X31350D01*
Y81517D01*
X31389D01*
Y81439D01*
X31428D01*
Y81361D01*
X31467D01*
Y81322D01*
X31506D01*
Y81283D01*
X31583D01*
Y81244D01*
X31622D01*
Y81206D01*
X31661D01*
Y81167D01*
X31739D01*
Y81128D01*
X31817D01*
Y81089D01*
X31856D01*
Y81050D01*
X31933D01*
Y81011D01*
X31972D01*
Y80972D01*
X32050D01*
Y80933D01*
X32089D01*
Y80894D01*
X32167D01*
Y80856D01*
X32245D01*
Y80817D01*
X32283D01*
Y80778D01*
X32361D01*
Y80739D01*
X32400D01*
Y80700D01*
X32478D01*
Y80661D01*
X32517D01*
Y80622D01*
X32594D01*
Y81439D01*
X32633D01*
Y83811D01*
X32672D01*
Y85367D01*
X32711D01*
Y85483D01*
X32750D01*
Y85561D01*
X32789D01*
Y85600D01*
X32828D01*
Y85678D01*
X32867D01*
Y85717D01*
X32945D01*
Y85756D01*
X32983D01*
Y85794D01*
X33061D01*
Y85833D01*
X33139D01*
Y85872D01*
X33178D01*
Y85911D01*
X33256D01*
Y85950D01*
X33333D01*
Y85989D01*
X33372D01*
Y86028D01*
X33450D01*
Y86067D01*
X33528D01*
Y86106D01*
X33567D01*
Y86144D01*
X33645D01*
Y86183D01*
X33722D01*
Y86222D01*
X33761D01*
Y86417D01*
X33800D01*
Y86572D01*
X33839D01*
Y86650D01*
X33878D01*
Y86728D01*
X33917D01*
Y86806D01*
X33956D01*
Y86844D01*
X33994D01*
Y86922D01*
X34033D01*
Y86961D01*
X34072D01*
Y87000D01*
X34111D01*
Y87039D01*
X34150D01*
Y87078D01*
X34189D01*
Y87117D01*
X34267D01*
Y87156D01*
X34345D01*
Y87194D01*
X34383D01*
Y87233D01*
X34500D01*
Y87272D01*
X34617D01*
Y87311D01*
X34811D01*
Y87350D01*
X34889D01*
Y87311D01*
D02*
G37*
G36*
X45544Y81867D02*
X45506D01*
Y81750D01*
X45467D01*
Y81672D01*
X45428D01*
Y81594D01*
X45389D01*
Y81556D01*
X45350D01*
Y81517D01*
X45311D01*
Y81478D01*
X45272D01*
Y81439D01*
X45233D01*
Y81400D01*
X45195D01*
Y81361D01*
X45117D01*
Y81322D01*
X45078D01*
Y81283D01*
X45000D01*
Y81244D01*
X44922D01*
Y81206D01*
X44844D01*
Y81167D01*
X44767D01*
Y81128D01*
X44689D01*
Y81089D01*
X44611D01*
Y81050D01*
X44533D01*
Y81011D01*
X44456D01*
Y80972D01*
X44378D01*
Y80933D01*
X44300D01*
Y80894D01*
X44222D01*
Y80856D01*
X44144D01*
Y80817D01*
X44067D01*
Y80778D01*
X43989D01*
Y80739D01*
X43911D01*
Y80700D01*
X43833D01*
Y80661D01*
X43756D01*
Y80622D01*
X43678D01*
Y80583D01*
X43600D01*
Y80544D01*
X43522D01*
Y80506D01*
X43444D01*
Y80467D01*
X43367D01*
Y80428D01*
X43289D01*
Y80389D01*
X43211D01*
Y80350D01*
X43133D01*
Y80311D01*
X43056D01*
Y80272D01*
X43017D01*
Y80233D01*
X42939D01*
Y80194D01*
X42861D01*
Y80156D01*
X42783D01*
Y80117D01*
X42706D01*
Y80078D01*
X42628D01*
Y80039D01*
X42550D01*
Y80000D01*
X42472D01*
Y79961D01*
X42356D01*
Y80000D01*
X42278D01*
Y80039D01*
X42200D01*
Y80078D01*
X42122D01*
Y80117D01*
X42044D01*
Y80156D01*
X41967D01*
Y80194D01*
X41889D01*
Y80233D01*
X41811D01*
Y80272D01*
X41733D01*
Y80311D01*
X41695D01*
Y80350D01*
X41617D01*
Y80389D01*
X41539D01*
Y80428D01*
X41461D01*
Y80467D01*
X41383D01*
Y80506D01*
X41306D01*
Y80544D01*
X41228D01*
Y80583D01*
X41267D01*
Y80622D01*
X41344D01*
Y80661D01*
X41383D01*
Y80700D01*
X41461D01*
Y80739D01*
X41539D01*
Y80778D01*
X41617D01*
Y80817D01*
X41695D01*
Y80856D01*
X41772D01*
Y80894D01*
X41850D01*
Y80933D01*
X41889D01*
Y80972D01*
X41967D01*
Y81011D01*
X42044D01*
Y81050D01*
X42122D01*
Y81089D01*
X42200D01*
Y81128D01*
X42278D01*
Y81167D01*
X42317D01*
Y81206D01*
X42395D01*
Y81244D01*
X42472D01*
Y81283D01*
X42550D01*
Y81322D01*
X42628D01*
Y81361D01*
X42706D01*
Y81400D01*
X42783D01*
Y81439D01*
X42822D01*
Y81478D01*
X42900D01*
Y81517D01*
X42978D01*
Y81556D01*
X43056D01*
Y81594D01*
X43133D01*
Y81633D01*
X43211D01*
Y81672D01*
X43289D01*
Y81711D01*
X43328D01*
Y81750D01*
X43406D01*
Y81789D01*
X43483D01*
Y81828D01*
X43561D01*
Y81867D01*
X43639D01*
Y81906D01*
X43717D01*
Y81944D01*
X43756D01*
Y81983D01*
X43833D01*
Y82022D01*
X43911D01*
Y82061D01*
X43989D01*
Y82100D01*
X44028D01*
Y82139D01*
X44106D01*
Y82178D01*
X44144D01*
Y82217D01*
X44183D01*
Y82294D01*
X44222D01*
Y82333D01*
X44261D01*
Y82450D01*
X44300D01*
Y82644D01*
X44339D01*
Y83617D01*
X44378D01*
Y83811D01*
X44339D01*
Y83772D01*
X44261D01*
Y83733D01*
X44222D01*
Y83694D01*
X44144D01*
Y83656D01*
X44067D01*
Y83617D01*
X43989D01*
Y83578D01*
X43911D01*
Y83539D01*
X43872D01*
Y83500D01*
X43795D01*
Y83461D01*
X43717D01*
Y83422D01*
X43639D01*
Y83383D01*
X43561D01*
Y83344D01*
X43522D01*
Y83306D01*
X43444D01*
Y83267D01*
X43367D01*
Y83228D01*
X43289D01*
Y83189D01*
X43250D01*
Y83150D01*
X43172D01*
Y83111D01*
X43095D01*
Y83072D01*
X43017D01*
Y83033D01*
X42939D01*
Y82994D01*
X42900D01*
Y82956D01*
X42822D01*
Y82917D01*
X42744D01*
Y82878D01*
X42667D01*
Y82839D01*
X42589D01*
Y82800D01*
X42550D01*
Y82761D01*
X42472D01*
Y82722D01*
X42395D01*
Y82683D01*
X42317D01*
Y82644D01*
X42239D01*
Y82606D01*
X42200D01*
Y82567D01*
X42122D01*
Y82528D01*
X42044D01*
Y82489D01*
X41967D01*
Y82450D01*
X41889D01*
Y82411D01*
X41850D01*
Y82372D01*
X41772D01*
Y82333D01*
X41695D01*
Y82294D01*
X41617D01*
Y82256D01*
X41578D01*
Y82217D01*
X41500D01*
Y82178D01*
X41422D01*
Y82139D01*
X41344D01*
Y82100D01*
X41267D01*
Y82061D01*
X41228D01*
Y82022D01*
X41150D01*
Y81983D01*
X41072D01*
Y81944D01*
X40995D01*
Y81906D01*
X40917D01*
Y81867D01*
X40878D01*
Y81828D01*
X40800D01*
Y81789D01*
X40722D01*
Y81750D01*
X40644D01*
Y81711D01*
X40567D01*
Y81672D01*
X40528D01*
Y81633D01*
X40450D01*
Y81594D01*
X40372D01*
Y81556D01*
X40295D01*
Y81517D01*
X40217D01*
Y81478D01*
X40061D01*
Y81439D01*
X39944D01*
Y81478D01*
X39789D01*
Y81517D01*
X39711D01*
Y81556D01*
X39633D01*
Y81594D01*
X39556D01*
Y81633D01*
X39517D01*
Y81672D01*
X39439D01*
Y81711D01*
X39361D01*
Y81750D01*
X39283D01*
Y81789D01*
X39206D01*
Y81828D01*
X39167D01*
Y81867D01*
X39089D01*
Y81906D01*
X39011D01*
Y81944D01*
X38933D01*
Y81983D01*
X38895D01*
Y81944D01*
X38817D01*
Y81906D01*
X38700D01*
Y81867D01*
X38506D01*
Y81828D01*
X38311D01*
Y81867D01*
X38078D01*
Y81906D01*
X37961D01*
Y81944D01*
X37883D01*
Y81983D01*
X37806D01*
Y82022D01*
X37728D01*
Y82061D01*
X37689D01*
Y82100D01*
X37650D01*
Y82139D01*
X37611D01*
Y82178D01*
X37572D01*
Y82217D01*
X37533D01*
Y82256D01*
X37495D01*
Y82294D01*
X37456D01*
Y82372D01*
X37417D01*
Y82411D01*
X37378D01*
Y82489D01*
X37339D01*
Y82567D01*
X37300D01*
Y82722D01*
X37261D01*
Y83267D01*
X37300D01*
Y83383D01*
X37339D01*
Y83461D01*
X37378D01*
Y83539D01*
X37417D01*
Y83617D01*
X37456D01*
Y83656D01*
X37495D01*
Y83694D01*
X37533D01*
Y83772D01*
X37572D01*
Y83811D01*
X37611D01*
Y83850D01*
X37689D01*
Y83889D01*
X37728D01*
Y83928D01*
X37767D01*
Y83967D01*
X37844D01*
Y84006D01*
X37922D01*
Y84044D01*
X38039D01*
Y84083D01*
X38156D01*
Y84122D01*
X38622D01*
Y84083D01*
X38739D01*
Y84044D01*
X38856D01*
Y84006D01*
X38933D01*
Y83967D01*
X38972D01*
Y83928D01*
X39050D01*
Y83889D01*
X39089D01*
Y83850D01*
X39128D01*
Y83811D01*
X39206D01*
Y83733D01*
X39244D01*
Y83694D01*
X39283D01*
Y83656D01*
X39322D01*
Y83617D01*
X39361D01*
Y83539D01*
X39400D01*
Y83461D01*
X39439D01*
Y83383D01*
X39478D01*
Y83228D01*
X39517D01*
Y82956D01*
X39595D01*
Y82917D01*
X39672D01*
Y82878D01*
X39750D01*
Y82839D01*
X39828D01*
Y82800D01*
X40178D01*
Y82839D01*
X40295D01*
Y82878D01*
X40372D01*
Y82917D01*
X40411D01*
Y82956D01*
X40489D01*
Y82994D01*
X40567D01*
Y83033D01*
X40644D01*
Y83072D01*
X40722D01*
Y83111D01*
X40761D01*
Y83150D01*
X40839D01*
Y83189D01*
X40917D01*
Y83228D01*
X40995D01*
Y83267D01*
X41072D01*
Y83306D01*
X41150D01*
Y83344D01*
X41189D01*
Y83383D01*
X41267D01*
Y83422D01*
X41344D01*
Y83461D01*
X41422D01*
Y83500D01*
X41500D01*
Y83539D01*
X41539D01*
Y83578D01*
X41617D01*
Y83617D01*
X41695D01*
Y83656D01*
X41772D01*
Y83694D01*
X41850D01*
Y83733D01*
X41928D01*
Y83772D01*
X41967D01*
Y83811D01*
X42044D01*
Y83850D01*
X42122D01*
Y83889D01*
X42200D01*
Y83928D01*
X42278D01*
Y83967D01*
X42317D01*
Y84006D01*
X42395D01*
Y84044D01*
X42472D01*
Y84083D01*
X42550D01*
Y84122D01*
X42628D01*
Y84161D01*
X42706D01*
Y84200D01*
X42744D01*
Y84239D01*
X42822D01*
Y84278D01*
X42900D01*
Y84317D01*
X42978D01*
Y84356D01*
X43056D01*
Y84394D01*
X43095D01*
Y84433D01*
X43172D01*
Y84472D01*
X43250D01*
Y84511D01*
X43328D01*
Y84550D01*
X43406D01*
Y84589D01*
X43444D01*
Y84628D01*
X43522D01*
Y84667D01*
X43600D01*
Y84706D01*
X43678D01*
Y84744D01*
X43756D01*
Y84783D01*
X43833D01*
Y84822D01*
X43872D01*
Y84861D01*
X43950D01*
Y84900D01*
X44028D01*
Y84939D01*
X44106D01*
Y84978D01*
X44183D01*
Y85017D01*
X44222D01*
Y85056D01*
X44300D01*
Y85094D01*
X44378D01*
Y85133D01*
X44456D01*
Y85172D01*
X44533D01*
Y85211D01*
X44611D01*
Y85250D01*
X44650D01*
Y85289D01*
X44728D01*
Y85328D01*
X44806D01*
Y85367D01*
X44883D01*
Y85406D01*
X44961D01*
Y85444D01*
X45000D01*
Y85483D01*
X45078D01*
Y85522D01*
X45156D01*
Y85561D01*
X45233D01*
Y85600D01*
X45311D01*
Y85639D01*
X45389D01*
Y85678D01*
X45428D01*
Y85717D01*
X45506D01*
Y85756D01*
X45544D01*
Y81867D01*
D02*
G37*
G36*
X35861Y84706D02*
X36017D01*
Y84667D01*
X36133D01*
Y84628D01*
X36211D01*
Y84589D01*
X36289D01*
Y84550D01*
X36328D01*
Y84511D01*
X36406D01*
Y84472D01*
X36445D01*
Y84433D01*
X36483D01*
Y84394D01*
X36522D01*
Y84356D01*
X36561D01*
Y84317D01*
X36600D01*
Y84239D01*
X36639D01*
Y84200D01*
X36678D01*
Y84122D01*
X36717D01*
Y84044D01*
X36756D01*
Y83967D01*
X36794D01*
Y83772D01*
X36833D01*
Y83656D01*
Y83617D01*
Y83422D01*
X36794D01*
Y83267D01*
X36756D01*
Y83150D01*
X36717D01*
Y83072D01*
X36678D01*
Y82994D01*
X36639D01*
Y82956D01*
X36600D01*
Y82878D01*
X36561D01*
Y82839D01*
X36522D01*
Y82800D01*
X36483D01*
Y82761D01*
X36445D01*
Y82722D01*
X36406D01*
Y82683D01*
X36328D01*
Y82644D01*
X36289D01*
Y82606D01*
X36250D01*
Y82217D01*
X36289D01*
Y82139D01*
X36328D01*
Y82061D01*
X36367D01*
Y81983D01*
X36406D01*
Y81944D01*
X36445D01*
Y81906D01*
X36522D01*
Y81867D01*
X36561D01*
Y81828D01*
X36639D01*
Y81789D01*
X36717D01*
Y81750D01*
X36756D01*
Y81711D01*
X36833D01*
Y81672D01*
X36872D01*
Y81633D01*
X36950D01*
Y81594D01*
X37028D01*
Y81556D01*
X37067D01*
Y81517D01*
X37145D01*
Y81478D01*
X37222D01*
Y81439D01*
X37261D01*
Y81400D01*
X37339D01*
Y81361D01*
X37378D01*
Y81322D01*
X37456D01*
Y81283D01*
X37533D01*
Y81244D01*
X37572D01*
Y81206D01*
X37650D01*
Y81167D01*
X37728D01*
Y81128D01*
X37767D01*
Y81089D01*
X37844D01*
Y81050D01*
X37883D01*
Y81011D01*
X37961D01*
Y80972D01*
X38039D01*
Y80933D01*
X38078D01*
Y80894D01*
X38156D01*
Y80856D01*
X38195D01*
Y80817D01*
X38272D01*
Y80778D01*
X38350D01*
Y80739D01*
X38389D01*
Y80700D01*
X38467D01*
Y80661D01*
X38544D01*
Y80622D01*
X38583D01*
Y80583D01*
X38661D01*
Y80544D01*
X38700D01*
Y80506D01*
X38778D01*
Y80467D01*
X38856D01*
Y80428D01*
X38895D01*
Y80389D01*
X38972D01*
Y80350D01*
X39050D01*
Y80311D01*
X39089D01*
Y80272D01*
X39167D01*
Y80233D01*
X39206D01*
Y80194D01*
X39283D01*
Y80156D01*
X39361D01*
Y80117D01*
X39400D01*
Y80078D01*
X39478D01*
Y80039D01*
X39556D01*
Y80000D01*
X39595D01*
Y79961D01*
X39672D01*
Y79922D01*
X39711D01*
Y79883D01*
X39789D01*
Y79844D01*
X39867D01*
Y79806D01*
X39906D01*
Y79767D01*
X39983D01*
Y79728D01*
X40022D01*
Y79689D01*
X40100D01*
Y79650D01*
X40178D01*
Y79611D01*
X40217D01*
Y79572D01*
X40295D01*
Y79533D01*
X40372D01*
Y79494D01*
X40411D01*
Y79456D01*
X40489D01*
Y79417D01*
X40528D01*
Y79378D01*
X40606D01*
Y79339D01*
X40683D01*
Y79300D01*
X40722D01*
Y79261D01*
X40800D01*
Y79222D01*
X40878D01*
Y79183D01*
X40917D01*
Y79144D01*
X40995D01*
Y79106D01*
X41033D01*
Y79067D01*
X41111D01*
Y79028D01*
X41189D01*
Y78989D01*
X41228D01*
Y78950D01*
X41306D01*
Y78911D01*
X41383D01*
Y78872D01*
X41422D01*
Y78833D01*
X41500D01*
Y78794D01*
X41539D01*
Y78756D01*
X41617D01*
Y78717D01*
X41578D01*
Y78678D01*
X41539D01*
Y78639D01*
X41461D01*
Y78600D01*
X41383D01*
Y78561D01*
X41306D01*
Y78522D01*
X41267D01*
Y78483D01*
X41189D01*
Y78444D01*
X41111D01*
Y78406D01*
X41033D01*
Y78367D01*
X40956D01*
Y78328D01*
X40917D01*
Y78289D01*
X40839D01*
Y78250D01*
X40761D01*
Y78211D01*
X40683D01*
Y78172D01*
X40644D01*
Y78133D01*
X40567D01*
Y78094D01*
X40489D01*
Y78056D01*
X40411D01*
Y78017D01*
X40372D01*
Y77978D01*
X40295D01*
Y77939D01*
X40217D01*
Y77900D01*
X40139D01*
Y77861D01*
X40100D01*
Y77822D01*
X40022D01*
Y77783D01*
X39944D01*
Y77744D01*
X39867D01*
Y77706D01*
X39828D01*
Y77667D01*
X39750D01*
Y77628D01*
X39672D01*
Y77589D01*
X39595D01*
Y77550D01*
X39517D01*
Y77511D01*
X39478D01*
Y77472D01*
X39400D01*
Y77433D01*
X39322D01*
Y77394D01*
X39244D01*
Y77356D01*
X39206D01*
Y77317D01*
X39128D01*
Y77278D01*
X39050D01*
Y77239D01*
X38972D01*
Y77200D01*
X38933D01*
Y77161D01*
X38856D01*
Y77122D01*
X38778D01*
Y77083D01*
X38700D01*
Y77044D01*
X38661D01*
Y77006D01*
X38583D01*
Y76967D01*
X38506D01*
Y76928D01*
X38428D01*
Y76889D01*
X38350D01*
Y76850D01*
X38233D01*
Y76811D01*
X37767D01*
Y76850D01*
X37689D01*
Y76889D01*
X37611D01*
Y76928D01*
X37533D01*
Y76967D01*
X37456D01*
Y77006D01*
X37417D01*
Y77044D01*
X37339D01*
Y77083D01*
X37300D01*
Y77122D01*
X37222D01*
Y77161D01*
X37183D01*
Y77200D01*
X37106D01*
Y77239D01*
X37067D01*
Y77278D01*
X36989D01*
Y77317D01*
X36950D01*
Y77356D01*
X36872D01*
Y77394D01*
X36833D01*
Y77433D01*
X36756D01*
Y77472D01*
X36717D01*
Y77511D01*
X36639D01*
Y77550D01*
X36600D01*
Y77589D01*
X36522D01*
Y77628D01*
X36483D01*
Y77667D01*
X36406D01*
Y77706D01*
X36367D01*
Y77744D01*
X36289D01*
Y77783D01*
X36250D01*
Y77822D01*
X36172D01*
Y77861D01*
X36133D01*
Y77900D01*
X36056D01*
Y77939D01*
X36017D01*
Y77978D01*
X35939D01*
Y78017D01*
X35900D01*
Y78056D01*
X35822D01*
Y78094D01*
X35783D01*
Y78133D01*
X35706D01*
Y78172D01*
X35667D01*
Y78211D01*
X35589D01*
Y78250D01*
X35550D01*
Y78289D01*
X35472D01*
Y78328D01*
X35433D01*
Y78367D01*
X35356D01*
Y78406D01*
X35317D01*
Y78444D01*
X35239D01*
Y78483D01*
X35200D01*
Y78522D01*
X35122D01*
Y78561D01*
X35083D01*
Y78600D01*
X35045D01*
Y78717D01*
X35006D01*
Y79922D01*
X35083D01*
Y79883D01*
X35122D01*
Y79844D01*
X35200D01*
Y79806D01*
X35239D01*
Y79767D01*
X35317D01*
Y79728D01*
X35394D01*
Y79689D01*
X35433D01*
Y79650D01*
X35511D01*
Y79611D01*
X35550D01*
Y79572D01*
X35628D01*
Y79533D01*
X35706D01*
Y79494D01*
X35745D01*
Y79456D01*
X35822D01*
Y79417D01*
X35861D01*
Y79378D01*
X35939D01*
Y79339D01*
X36017D01*
Y79300D01*
X36056D01*
Y79261D01*
X36133D01*
Y79222D01*
X36172D01*
Y79183D01*
X36250D01*
Y79144D01*
X36328D01*
Y79106D01*
X36367D01*
Y79067D01*
X36445D01*
Y79028D01*
X36483D01*
Y78989D01*
X36561D01*
Y78950D01*
X36600D01*
Y78911D01*
X36678D01*
Y78872D01*
X36756D01*
Y78833D01*
X36794D01*
Y78794D01*
X36872D01*
Y78756D01*
X36911D01*
Y78717D01*
X36989D01*
Y78678D01*
X37067D01*
Y78639D01*
X37106D01*
Y78600D01*
X37183D01*
Y78561D01*
X37222D01*
Y78522D01*
X37300D01*
Y78483D01*
X37378D01*
Y78444D01*
X37417D01*
Y78406D01*
X37495D01*
Y78367D01*
X37533D01*
Y78328D01*
X37611D01*
Y78289D01*
X37689D01*
Y78250D01*
X37767D01*
Y78211D01*
X37922D01*
Y78172D01*
X38078D01*
Y78211D01*
X38233D01*
Y78250D01*
X38311D01*
Y78289D01*
X38389D01*
Y78328D01*
X38467D01*
Y78367D01*
X38544D01*
Y78406D01*
X38622D01*
Y78444D01*
X38700D01*
Y78483D01*
X38778D01*
Y78522D01*
X38856D01*
Y78561D01*
X38933D01*
Y78600D01*
X39011D01*
Y78639D01*
X39089D01*
Y78678D01*
X39167D01*
Y78717D01*
X39244D01*
Y78756D01*
X39322D01*
Y78833D01*
X39244D01*
Y78872D01*
X39206D01*
Y78911D01*
X39128D01*
Y78950D01*
X39050D01*
Y78989D01*
X39011D01*
Y79028D01*
X38933D01*
Y79067D01*
X38856D01*
Y79106D01*
X38817D01*
Y79144D01*
X38739D01*
Y79183D01*
X38661D01*
Y79222D01*
X38622D01*
Y79261D01*
X38544D01*
Y79300D01*
X38506D01*
Y79339D01*
X38428D01*
Y79378D01*
X38350D01*
Y79417D01*
X38311D01*
Y79456D01*
X38233D01*
Y79494D01*
X38156D01*
Y79533D01*
X38117D01*
Y79572D01*
X38039D01*
Y79611D01*
X37961D01*
Y79650D01*
X37922D01*
Y79689D01*
X37844D01*
Y79728D01*
X37767D01*
Y79767D01*
X37728D01*
Y79806D01*
X37650D01*
Y79844D01*
X37611D01*
Y79883D01*
X37533D01*
Y79922D01*
X37456D01*
Y79961D01*
X37417D01*
Y80000D01*
X37339D01*
Y80039D01*
X37261D01*
Y80078D01*
X37222D01*
Y80117D01*
X37145D01*
Y80156D01*
X37067D01*
Y80194D01*
X37028D01*
Y80233D01*
X36950D01*
Y80272D01*
X36911D01*
Y80311D01*
X36833D01*
Y80350D01*
X36756D01*
Y80389D01*
X36717D01*
Y80428D01*
X36639D01*
Y80467D01*
X36561D01*
Y80506D01*
X36522D01*
Y80544D01*
X36445D01*
Y80583D01*
X36367D01*
Y80622D01*
X36328D01*
Y80661D01*
X36250D01*
Y80700D01*
X36172D01*
Y80739D01*
X36133D01*
Y80778D01*
X36056D01*
Y80817D01*
X36017D01*
Y80856D01*
X35939D01*
Y80894D01*
X35861D01*
Y80933D01*
X35822D01*
Y80972D01*
X35745D01*
Y81011D01*
X35667D01*
Y81050D01*
X35628D01*
Y81089D01*
X35550D01*
Y81128D01*
X35472D01*
Y81167D01*
X35433D01*
Y81206D01*
X35356D01*
Y81244D01*
X35317D01*
Y81283D01*
X35278D01*
Y81322D01*
X35239D01*
Y81361D01*
X35200D01*
Y81400D01*
X35161D01*
Y81478D01*
X35122D01*
Y81556D01*
X35083D01*
Y82644D01*
X35045D01*
Y82683D01*
X35006D01*
Y82722D01*
X34967D01*
Y82761D01*
X34889D01*
Y82800D01*
X34850D01*
Y82839D01*
X34811D01*
Y82917D01*
X34772D01*
Y82956D01*
X34733D01*
Y83033D01*
X34694D01*
Y83072D01*
X34656D01*
Y83189D01*
X34617D01*
Y83267D01*
X34578D01*
Y83461D01*
X34539D01*
Y83733D01*
X34578D01*
Y83928D01*
X34617D01*
Y84006D01*
X34656D01*
Y84122D01*
X34694D01*
Y84200D01*
X34733D01*
Y84239D01*
X34772D01*
Y84317D01*
X34811D01*
Y84356D01*
X34850D01*
Y84394D01*
X34889D01*
Y84433D01*
X34928D01*
Y84472D01*
X34967D01*
Y84511D01*
X35045D01*
Y84550D01*
X35083D01*
Y84589D01*
X35161D01*
Y84628D01*
X35239D01*
Y84667D01*
X35356D01*
Y84706D01*
X35511D01*
Y84744D01*
X35861D01*
Y84706D01*
D02*
G37*
%LPC*%
G36*
X39711Y88011D02*
X39322D01*
Y87972D01*
X39206D01*
Y87933D01*
X39167D01*
Y87894D01*
X39089D01*
Y87856D01*
X39050D01*
Y87817D01*
X39011D01*
Y87739D01*
X38972D01*
Y87661D01*
X38933D01*
Y87583D01*
X38895D01*
Y87233D01*
X38933D01*
Y87156D01*
X38972D01*
Y87078D01*
X39011D01*
Y87039D01*
X39050D01*
Y86961D01*
X39128D01*
Y86922D01*
X39167D01*
Y86883D01*
X39244D01*
Y86844D01*
X39322D01*
Y86806D01*
X39672D01*
Y86844D01*
X39789D01*
Y86883D01*
X39867D01*
Y86922D01*
X39906D01*
Y86961D01*
X39944D01*
Y87000D01*
X39983D01*
Y87039D01*
X40022D01*
Y87117D01*
X40061D01*
Y87194D01*
X40100D01*
Y87622D01*
X40061D01*
Y87700D01*
X40022D01*
Y87778D01*
X39983D01*
Y87817D01*
X39944D01*
Y87856D01*
X39906D01*
Y87894D01*
X39867D01*
Y87933D01*
X39789D01*
Y87972D01*
X39711D01*
Y88011D01*
D02*
G37*
G36*
X37067Y88867D02*
X36678D01*
Y88828D01*
X36600D01*
Y88789D01*
X36522D01*
Y88750D01*
X36483D01*
Y88711D01*
X36445D01*
Y88672D01*
X36406D01*
Y88633D01*
X36367D01*
Y88594D01*
X36328D01*
Y88517D01*
X36289D01*
Y88361D01*
X36250D01*
Y88167D01*
X36289D01*
Y88011D01*
X36328D01*
Y87933D01*
X36367D01*
Y87894D01*
X36406D01*
Y87856D01*
X36445D01*
Y87817D01*
X36483D01*
Y87778D01*
X36522D01*
Y87739D01*
X36600D01*
Y87700D01*
X36678D01*
Y87661D01*
X37067D01*
Y87700D01*
X37145D01*
Y87739D01*
X37222D01*
Y87778D01*
X37261D01*
Y87817D01*
X37300D01*
Y87856D01*
X37339D01*
Y87894D01*
X37378D01*
Y87933D01*
X37417D01*
Y88011D01*
X37456D01*
Y88167D01*
X37495D01*
Y88361D01*
X37456D01*
Y88517D01*
X37417D01*
Y88594D01*
X37378D01*
Y88633D01*
X37339D01*
Y88672D01*
X37300D01*
Y88711D01*
X37261D01*
Y88750D01*
X37222D01*
Y88789D01*
X37145D01*
Y88828D01*
X37067D01*
Y88867D01*
D02*
G37*
G36*
X40411Y85561D02*
X40061D01*
Y85522D01*
X39983D01*
Y85483D01*
X39906D01*
Y85444D01*
X39867D01*
Y85406D01*
X39789D01*
Y85328D01*
X39750D01*
Y85289D01*
X39711D01*
Y85211D01*
X39672D01*
Y85094D01*
X39633D01*
Y84783D01*
X39672D01*
Y84667D01*
X39711D01*
Y84628D01*
X39750D01*
Y84550D01*
X39789D01*
Y84511D01*
X39828D01*
Y84472D01*
X39906D01*
Y84433D01*
X39944D01*
Y84394D01*
X40022D01*
Y84356D01*
X40450D01*
Y84394D01*
X40528D01*
Y84433D01*
X40606D01*
Y84472D01*
X40644D01*
Y84511D01*
X40683D01*
Y84550D01*
X40722D01*
Y84589D01*
X40761D01*
Y84667D01*
X40800D01*
Y84744D01*
X40839D01*
Y85172D01*
X40800D01*
Y85250D01*
X40761D01*
Y85328D01*
X40722D01*
Y85367D01*
X40683D01*
Y85406D01*
X40644D01*
Y85444D01*
X40567D01*
Y85483D01*
X40528D01*
Y85522D01*
X40411D01*
Y85561D01*
D02*
G37*
G36*
X35045Y86806D02*
X34772D01*
Y86767D01*
X34656D01*
Y86728D01*
X34578D01*
Y86689D01*
X34500D01*
Y86650D01*
X34461D01*
Y86611D01*
X34422D01*
Y86572D01*
X34383D01*
Y86494D01*
X34345D01*
Y86417D01*
X34306D01*
Y86261D01*
X34267D01*
Y86106D01*
X34306D01*
Y85950D01*
X34345D01*
Y85872D01*
X34383D01*
Y85833D01*
X34422D01*
Y85756D01*
X34461D01*
Y85717D01*
X34539D01*
Y85678D01*
X34578D01*
Y85639D01*
X34656D01*
Y85600D01*
X34811D01*
Y85561D01*
X34967D01*
Y85600D01*
X35122D01*
Y85639D01*
X35200D01*
Y85678D01*
X35278D01*
Y85717D01*
X35317D01*
Y85756D01*
X35356D01*
Y85794D01*
X35394D01*
Y85872D01*
X35433D01*
Y85950D01*
X35472D01*
Y86067D01*
X35511D01*
Y86339D01*
X35472D01*
Y86456D01*
X35433D01*
Y86533D01*
X35394D01*
Y86572D01*
X35356D01*
Y86611D01*
X35317D01*
Y86650D01*
X35278D01*
Y86689D01*
X35200D01*
Y86728D01*
X35161D01*
Y86767D01*
X35045D01*
Y86806D01*
D02*
G37*
G36*
X38583Y83578D02*
X38156D01*
Y83539D01*
X38078D01*
Y83500D01*
X38039D01*
Y83461D01*
X37961D01*
Y83422D01*
X37922D01*
Y83383D01*
X37883D01*
Y83306D01*
X37844D01*
Y83228D01*
X37806D01*
Y83111D01*
X37767D01*
Y82878D01*
X37806D01*
Y82722D01*
X37844D01*
Y82644D01*
X37883D01*
Y82606D01*
X37922D01*
Y82567D01*
X37961D01*
Y82528D01*
X38000D01*
Y82489D01*
X38039D01*
Y82450D01*
X38117D01*
Y82411D01*
X38233D01*
Y82372D01*
X38544D01*
Y82411D01*
X38661D01*
Y82450D01*
X38700D01*
Y82489D01*
X38778D01*
Y82528D01*
X38817D01*
Y82567D01*
X38856D01*
Y82606D01*
X38895D01*
Y82683D01*
X38933D01*
Y82761D01*
X38972D01*
Y82917D01*
X39011D01*
Y83072D01*
X38972D01*
Y83228D01*
X38933D01*
Y83306D01*
X38895D01*
Y83344D01*
X38856D01*
Y83383D01*
X38817D01*
Y83422D01*
X38778D01*
Y83461D01*
X38739D01*
Y83500D01*
X38700D01*
Y83539D01*
X38583D01*
Y83578D01*
D02*
G37*
G36*
X35900Y84200D02*
X35511D01*
Y84161D01*
X35394D01*
Y84122D01*
X35356D01*
Y84083D01*
X35278D01*
Y84044D01*
X35239D01*
Y84006D01*
X35200D01*
Y83928D01*
X35161D01*
Y83889D01*
X35122D01*
Y83811D01*
Y83772D01*
X35083D01*
Y83422D01*
X35122D01*
Y83344D01*
X35161D01*
Y83267D01*
X35200D01*
Y83189D01*
X35239D01*
Y83150D01*
X35278D01*
Y83111D01*
X35356D01*
Y83072D01*
X35394D01*
Y83033D01*
X35511D01*
Y82994D01*
X35861D01*
Y83033D01*
X35978D01*
Y83072D01*
X36056D01*
Y83111D01*
X36094D01*
Y83150D01*
X36133D01*
Y83189D01*
X36172D01*
Y83228D01*
X36211D01*
Y83306D01*
X36250D01*
Y83383D01*
X36289D01*
Y83811D01*
X36250D01*
Y83889D01*
X36211D01*
Y83967D01*
X36172D01*
Y84006D01*
X36133D01*
Y84044D01*
X36094D01*
Y84083D01*
X36056D01*
Y84122D01*
X35978D01*
Y84161D01*
X35900D01*
Y84200D01*
D02*
G37*
%LPD*%
D10*
X80315Y58071D02*
G03*
X80709Y58071I197J0D01*
G01*
D02*
G03*
X80315Y58071I-197J0D01*
G01*
D11*
X53331Y30000D02*
G03*
X53331Y30000I-4331J0D01*
G01*
X44831Y50000D02*
G03*
X44831Y50000I-4331J0D01*
G01*
X90921Y47276D02*
G03*
X90921Y47276I-197J0D01*
G01*
X22886Y31370D02*
Y34370D01*
X11386Y31370D02*
X22886D01*
X3386Y36370D02*
Y62213D01*
X11386Y67055D02*
X22886D01*
Y64055D02*
Y67055D01*
X53056Y48779D02*
X53843D01*
X53056Y46220D02*
X53843D01*
X35549Y38642D02*
X36106Y38085D01*
X37358Y40451D02*
X37915Y39894D01*
X29549Y32642D02*
X30106Y32085D01*
X31359Y34451D02*
X31915Y33894D01*
X71280Y30657D02*
Y31444D01*
X68721Y30657D02*
Y31444D01*
X59720Y30657D02*
Y31444D01*
X62279Y30657D02*
Y31444D01*
X26374Y62480D02*
X35626D01*
Y72520D01*
X26374D02*
X35626D01*
X26374Y62480D02*
Y72520D01*
X64220Y30657D02*
Y31444D01*
X66780Y30657D02*
Y31444D01*
X60056Y74279D02*
X60843D01*
X60056Y71720D02*
X60843D01*
D12*
X22835Y15748D02*
G03*
X22835Y15748I-7087J0D01*
G01*
X109449Y82677D02*
G03*
X109449Y82677I-7087J0D01*
G01*
Y15748D02*
G03*
X109449Y15748I-7087J0D01*
G01*
X22835Y82677D02*
G03*
X22835Y82677I-7087J0D01*
G01*
D13*
X76181Y62614D02*
X80819D01*
Y64976D01*
X76181Y62614D02*
Y64976D01*
X80819Y71023D02*
Y73386D01*
X76181Y71024D02*
Y73386D01*
Y73386D02*
X80819D01*
X49114Y50681D02*
Y55319D01*
Y50681D02*
X51476D01*
X49114Y55319D02*
X51476D01*
X57524Y50681D02*
X59886D01*
X57524Y55319D02*
X59886D01*
X59886Y50681D02*
Y55319D01*
X70181Y73386D02*
X74819D01*
X70181Y71024D02*
Y73386D01*
X74819Y71024D02*
Y73386D01*
X70181Y62614D02*
Y64977D01*
X74819Y62614D02*
Y64976D01*
X70181Y62614D02*
X74819D01*
X39614Y67181D02*
Y71819D01*
X39614Y67181D02*
X41976D01*
X39614Y71819D02*
X41976D01*
X48024Y67181D02*
X50386D01*
X48024Y71819D02*
X50386D01*
Y67181D02*
Y71819D01*
X81614Y58181D02*
Y62819D01*
X81614Y58181D02*
X83976D01*
X81614Y62819D02*
X83977D01*
X90024Y58181D02*
X92386D01*
X90024Y62819D02*
X92386D01*
Y58181D02*
Y62819D01*
Y41181D02*
Y45819D01*
X90024D02*
X92386D01*
X90024Y41181D02*
X92386D01*
X81614Y45819D02*
X83977D01*
X81614Y41181D02*
X83976D01*
X81614D02*
Y45819D01*
D14*
X76925Y68000D02*
X80075D01*
X54500Y51425D02*
Y54575D01*
X70925Y68001D02*
X74075D01*
X45000Y67925D02*
Y71075D01*
X51500Y78500D02*
X52000D01*
X51500Y75957D02*
Y78500D01*
Y75957D02*
X52000D01*
X51500Y83043D02*
X52000D01*
X51500Y80500D02*
Y83043D01*
Y80500D02*
X52000D01*
X67500Y75957D02*
Y76744D01*
X52000Y75957D02*
X67500D01*
X52000D02*
Y78500D01*
X67500Y82256D02*
Y83043D01*
X52000D02*
X67500D01*
X52000Y80500D02*
Y83043D01*
X59500Y75957D02*
Y83043D01*
X58500Y79500D02*
X59500D01*
X60500Y78500D02*
Y80500D01*
X59500Y79500D02*
X60500Y78500D01*
X59500Y79500D02*
X60500Y80500D01*
X87001Y58925D02*
Y62075D01*
X82063Y46488D02*
X89937D01*
X82063D02*
Y57512D01*
X89937D01*
Y46488D02*
Y57512D01*
X87001Y41925D02*
Y45075D01*
X45510Y15550D02*
X44591D01*
X45050D01*
Y13254D01*
X44591Y12795D01*
X44132D01*
X43673Y13254D01*
X46428Y12795D02*
X47346D01*
X46887D01*
Y15550D01*
X46428Y15091D01*
X48724Y14632D02*
X49183D01*
Y14173D01*
X48724D01*
Y14632D01*
Y13254D02*
X49183D01*
Y12795D01*
X48724D01*
Y13254D01*
X53775Y15550D02*
X54693D01*
X54234D01*
Y12795D01*
X53775D01*
X54693D01*
X56071D02*
Y15550D01*
X56989Y14632D01*
X57907Y15550D01*
Y12795D01*
X58825Y15550D02*
Y13254D01*
X59285Y12795D01*
X60203D01*
X60662Y13254D01*
Y15550D01*
X64336Y12795D02*
Y14632D01*
X65254Y15550D01*
X66172Y14632D01*
Y12795D01*
Y14173D01*
X64336D01*
X67091Y15550D02*
Y12795D01*
X68468D01*
X68927Y13254D01*
Y15091D01*
X68468Y15550D01*
X67091D01*
X69846D02*
Y12795D01*
X71223D01*
X71682Y13254D01*
Y15091D01*
X71223Y15550D01*
X69846D01*
X72601Y12795D02*
Y15550D01*
X73978D01*
X74437Y15091D01*
Y14173D01*
X73978Y13713D01*
X72601D01*
X73519D02*
X74437Y12795D01*
X42525Y10827D02*
X41607D01*
X42066D01*
Y8531D01*
X41607Y8072D01*
X41148D01*
X40688Y8531D01*
X43443Y10368D02*
X43903Y10827D01*
X44821D01*
X45280Y10368D01*
Y9909D01*
X44821Y9449D01*
X44362D01*
X44821D01*
X45280Y8990D01*
Y8531D01*
X44821Y8072D01*
X43903D01*
X43443Y8531D01*
X46198Y9909D02*
X46657D01*
Y9449D01*
X46198D01*
Y9909D01*
Y8531D02*
X46657D01*
Y8072D01*
X46198D01*
Y8531D01*
X51249Y10827D02*
X52168D01*
X51708D01*
Y8072D01*
X51249D01*
X52168D01*
X53545D02*
Y10827D01*
X54463Y9909D01*
X55382Y10827D01*
Y8072D01*
X56300Y10827D02*
Y8531D01*
X56759Y8072D01*
X57678D01*
X58137Y8531D01*
Y10827D01*
X63647Y10368D02*
X63188Y10827D01*
X62269D01*
X61810Y10368D01*
Y8531D01*
X62269Y8072D01*
X63188D01*
X63647Y8531D01*
X64565Y10827D02*
Y8072D01*
X66402D01*
X67320Y10827D02*
Y8072D01*
Y8990D01*
X69157Y10827D01*
X67779Y9449D01*
X69157Y8072D01*
X71912Y10368D02*
X71453Y10827D01*
X70534D01*
X70075Y10368D01*
Y9909D01*
X70534Y9449D01*
X71453D01*
X71912Y8990D01*
Y8531D01*
X71453Y8072D01*
X70534D01*
X70075Y8531D01*
X72830Y8072D02*
Y10827D01*
X74208D01*
X74667Y10368D01*
Y9449D01*
X74208Y8990D01*
X72830D01*
X73749D02*
X74667Y8072D01*
X77422Y10368D02*
X76963Y10827D01*
X76044D01*
X75585Y10368D01*
Y8531D01*
X76044Y8072D01*
X76963D01*
X77422Y8531D01*
X112069Y63676D02*
X109314D01*
Y62299D01*
X109773Y61840D01*
X111610D01*
X112069Y62299D01*
Y63676D01*
Y59085D02*
Y60921D01*
X109314D01*
Y59085D01*
X110691Y60921D02*
Y60003D01*
X111610Y56330D02*
X112069Y56789D01*
Y57707D01*
X111610Y58166D01*
X111151D01*
X110691Y57707D01*
Y56789D01*
X110232Y56330D01*
X109773D01*
X109314Y56789D01*
Y57707D01*
X109773Y58166D01*
X112069Y55411D02*
Y54493D01*
Y54952D01*
X109314D01*
Y55411D01*
Y54493D01*
X111610Y51279D02*
X112069Y51738D01*
Y52656D01*
X111610Y53115D01*
X109773D01*
X109314Y52656D01*
Y51738D01*
X109773Y51279D01*
X110691D01*
Y52197D01*
X109314Y50361D02*
X112069D01*
X109314Y48524D01*
X112069D01*
Y45769D02*
Y47605D01*
X109314D01*
Y45769D01*
X110691Y47605D02*
Y46687D01*
X112069Y44851D02*
X109314D01*
Y43473D01*
X109773Y43014D01*
X111610D01*
X112069Y43473D01*
Y44851D01*
Y39340D02*
X109314D01*
Y37963D01*
X109773Y37504D01*
X110232D01*
X110691Y37963D01*
Y39340D01*
Y37963D01*
X111151Y37504D01*
X111610D01*
X112069Y37963D01*
Y39340D01*
Y36585D02*
X111610D01*
X110691Y35667D01*
X111610Y34749D01*
X112069D01*
X110691Y35667D02*
X109314D01*
X106886Y61381D02*
X107346Y61840D01*
Y62758D01*
X106886Y63217D01*
X106427D01*
X105968Y62758D01*
Y61840D01*
X105509Y61381D01*
X105050D01*
X104590Y61840D01*
Y62758D01*
X105050Y63217D01*
X104590Y60462D02*
X105050D01*
Y60003D01*
X104590D01*
Y60462D01*
X106886Y56330D02*
X107346Y56789D01*
Y57707D01*
X106886Y58166D01*
X106427D01*
X105968Y57707D01*
Y56789D01*
X105509Y56330D01*
X105050D01*
X104590Y56789D01*
Y57707D01*
X105050Y58166D01*
X104590Y55411D02*
X105050D01*
Y54952D01*
X104590D01*
Y55411D01*
Y53115D02*
X106427D01*
X107346Y52197D01*
X106427Y51279D01*
X104590D01*
X105968D01*
Y53115D01*
X104590Y50361D02*
X105050D01*
Y49901D01*
X104590D01*
Y50361D01*
Y43473D02*
Y45310D01*
X106427Y43473D01*
X106886D01*
X107346Y43932D01*
Y44851D01*
X106886Y45310D01*
Y42555D02*
X107346Y42096D01*
Y41177D01*
X106886Y40718D01*
X105050D01*
X104590Y41177D01*
Y42096D01*
X105050Y42555D01*
X106886D01*
X104590Y37963D02*
Y39800D01*
X106427Y37963D01*
X106886D01*
X107346Y38422D01*
Y39340D01*
X106886Y39800D01*
X107346Y35208D02*
X106886Y36126D01*
X105968Y37045D01*
X105050D01*
X104590Y36585D01*
Y35667D01*
X105050Y35208D01*
X105509D01*
X105968Y35667D01*
Y37045D01*
X63040Y91739D02*
Y88591D01*
X63190Y91739D02*
Y88591D01*
X62590Y91739D02*
X64390D01*
X64840Y91589D01*
X64990Y91440D01*
X65140Y91140D01*
Y90840D01*
X64990Y90540D01*
X64840Y90390D01*
X64390Y90240D01*
Y91739D02*
X64690Y91589D01*
X64840Y91440D01*
X64990Y91140D01*
Y90840D01*
X64840Y90540D01*
X64690Y90390D01*
X64390Y90240D01*
X63190D02*
X64390D01*
X64840Y90090D01*
X64990Y89940D01*
X65140Y89640D01*
Y89190D01*
X64990Y88890D01*
X64840Y88740D01*
X64390Y88591D01*
X62590D01*
X64390Y90240D02*
X64690Y90090D01*
X64840Y89940D01*
X64990Y89640D01*
Y89190D01*
X64840Y88890D01*
X64690Y88740D01*
X64390Y88591D01*
X66009Y91739D02*
Y88591D01*
X66159Y91739D02*
X67959Y88890D01*
X66159Y91440D02*
X67959Y88591D01*
Y91739D02*
Y88591D01*
X65560Y91739D02*
X66159D01*
X67509D02*
X68409D01*
X65560Y88591D02*
X66459D01*
X69848Y91739D02*
X69398Y91589D01*
X69098Y91290D01*
X68948Y90990D01*
X68798Y90390D01*
Y89940D01*
X68948Y89340D01*
X69098Y89040D01*
X69398Y88740D01*
X69848Y88591D01*
X70148D01*
X70598Y88740D01*
X70898Y89040D01*
X71048Y89340D01*
X71198Y89940D01*
Y90390D01*
X71048Y90990D01*
X70898Y91290D01*
X70598Y91589D01*
X70148Y91739D01*
X69848D01*
X69548Y91589D01*
X69248Y91290D01*
X69098Y90990D01*
X68948Y90390D01*
Y89940D01*
X69098Y89340D01*
X69248Y89040D01*
X69548Y88740D01*
X69848Y88591D01*
X70148D02*
X70448Y88740D01*
X70748Y89040D01*
X70898Y89340D01*
X71048Y89940D01*
Y90390D01*
X70898Y90990D01*
X70748Y91290D01*
X70448Y91589D01*
X70148Y91739D01*
X72532D02*
X72082Y91589D01*
X71782Y91140D01*
X71632Y90390D01*
Y89940D01*
X71782Y89190D01*
X72082Y88740D01*
X72532Y88591D01*
X72832D01*
X73282Y88740D01*
X73582Y89190D01*
X73732Y89940D01*
Y90390D01*
X73582Y91140D01*
X73282Y91589D01*
X72832Y91739D01*
X72532D01*
X72232Y91589D01*
X72082Y91440D01*
X71932Y91140D01*
X71782Y90390D01*
Y89940D01*
X71932Y89190D01*
X72082Y88890D01*
X72232Y88740D01*
X72532Y88591D01*
X72832D02*
X73132Y88740D01*
X73282Y88890D01*
X73432Y89190D01*
X73582Y89940D01*
Y90390D01*
X73432Y91140D01*
X73282Y91440D01*
X73132Y91589D01*
X72832Y91739D01*
X74946D02*
X74497Y91589D01*
X74347Y91290D01*
Y90840D01*
X74497Y90540D01*
X74946Y90390D01*
X75546D01*
X75996Y90540D01*
X76146Y90840D01*
Y91290D01*
X75996Y91589D01*
X75546Y91739D01*
X74946D01*
X74647Y91589D01*
X74497Y91290D01*
Y90840D01*
X74647Y90540D01*
X74946Y90390D01*
X75546D02*
X75846Y90540D01*
X75996Y90840D01*
Y91290D01*
X75846Y91589D01*
X75546Y91739D01*
X74946Y90390D02*
X74497Y90240D01*
X74347Y90090D01*
X74197Y89790D01*
Y89190D01*
X74347Y88890D01*
X74497Y88740D01*
X74946Y88591D01*
X75546D01*
X75996Y88740D01*
X76146Y88890D01*
X76296Y89190D01*
Y89790D01*
X76146Y90090D01*
X75996Y90240D01*
X75546Y90390D01*
X74946D02*
X74647Y90240D01*
X74497Y90090D01*
X74347Y89790D01*
Y89190D01*
X74497Y88890D01*
X74647Y88740D01*
X74946Y88591D01*
X75546D02*
X75846Y88740D01*
X75996Y88890D01*
X76146Y89190D01*
Y89790D01*
X75996Y90090D01*
X75846Y90240D01*
X75546Y90390D01*
X78560Y91290D02*
X78410Y91140D01*
X78560Y90990D01*
X78710Y91140D01*
Y91290D01*
X78560Y91589D01*
X78260Y91739D01*
X77810D01*
X77360Y91589D01*
X77061Y91290D01*
X76911Y90990D01*
X76761Y90390D01*
Y89490D01*
X76911Y89040D01*
X77211Y88740D01*
X77660Y88591D01*
X77960D01*
X78410Y88740D01*
X78710Y89040D01*
X78860Y89490D01*
Y89640D01*
X78710Y90090D01*
X78410Y90390D01*
X77960Y90540D01*
X77810D01*
X77360Y90390D01*
X77061Y90090D01*
X76911Y89640D01*
X77810Y91739D02*
X77510Y91589D01*
X77211Y91290D01*
X77061Y90990D01*
X76911Y90390D01*
Y89490D01*
X77061Y89040D01*
X77360Y88740D01*
X77660Y88591D01*
X77960D02*
X78260Y88740D01*
X78560Y89040D01*
X78710Y89490D01*
Y89640D01*
X78560Y90090D01*
X78260Y90390D01*
X77960Y90540D01*
X82609Y91739D02*
Y88591D01*
X82759Y91739D02*
Y88591D01*
X82159Y91739D02*
X83209D01*
X82159Y88591D02*
X83209D01*
X84228Y91739D02*
Y88591D01*
X84378Y91739D02*
X85278Y89040D01*
X84228Y91739D02*
X85278Y88591D01*
X86327Y91739D02*
X85278Y88591D01*
X86327Y91739D02*
Y88591D01*
X86477Y91739D02*
Y88591D01*
X83778Y91739D02*
X84378D01*
X86327D02*
X86927D01*
X83778Y88591D02*
X84678D01*
X85878D02*
X86927D01*
X87737Y91739D02*
Y89490D01*
X87887Y89040D01*
X88187Y88740D01*
X88637Y88591D01*
X88937D01*
X89386Y88740D01*
X89686Y89040D01*
X89836Y89490D01*
Y91739D01*
X87887D02*
Y89490D01*
X88037Y89040D01*
X88337Y88740D01*
X88637Y88591D01*
X87287Y91739D02*
X88337D01*
X89386D02*
X90286D01*
X57178Y58722D02*
X57047Y58984D01*
X56785Y59246D01*
X56523Y59378D01*
X55998D01*
X55735Y59246D01*
X55473Y58984D01*
X55342Y58722D01*
X55211Y58328D01*
Y57672D01*
X55342Y57278D01*
X55473Y57016D01*
X55735Y56753D01*
X55998Y56622D01*
X56523D01*
X56785Y56753D01*
X57047Y57016D01*
X57178Y57278D01*
X58084Y58722D02*
Y58853D01*
X58215Y59115D01*
X58346Y59246D01*
X58609Y59378D01*
X59133D01*
X59396Y59246D01*
X59527Y59115D01*
X59658Y58853D01*
Y58590D01*
X59527Y58328D01*
X59265Y57934D01*
X57953Y56622D01*
X59790D01*
X39883Y58878D02*
Y56778D01*
X39752Y56385D01*
X39621Y56253D01*
X39358Y56122D01*
X39096D01*
X38834Y56253D01*
X38702Y56385D01*
X38571Y56778D01*
Y57041D01*
X40854Y58878D02*
X42298D01*
X41510Y57828D01*
X41904D01*
X42166Y57697D01*
X42298Y57566D01*
X42429Y57172D01*
Y56910D01*
X42298Y56516D01*
X42035Y56253D01*
X41642Y56122D01*
X41248D01*
X40854Y56253D01*
X40723Y56385D01*
X40592Y56647D01*
X66878Y26145D02*
X64122D01*
X66878D02*
Y24964D01*
X66746Y24571D01*
X66615Y24440D01*
X66353Y24308D01*
X66090D01*
X65828Y24440D01*
X65697Y24571D01*
X65566Y24964D01*
Y26145D01*
Y25227D02*
X64122Y24308D01*
X66222Y23561D02*
X66353D01*
X66615Y23429D01*
X66746Y23298D01*
X66878Y23036D01*
Y22511D01*
X66746Y22248D01*
X66615Y22117D01*
X66353Y21986D01*
X66090D01*
X65828Y22117D01*
X65434Y22380D01*
X64122Y23692D01*
Y21855D01*
X20789Y72378D02*
Y69622D01*
Y72378D02*
X21970D01*
X22364Y72246D01*
X22495Y72115D01*
X22626Y71853D01*
Y71590D01*
X22495Y71328D01*
X22364Y71197D01*
X21970Y71066D01*
X20789D01*
X21708D02*
X22626Y69622D01*
X24555Y72378D02*
X23243Y70541D01*
X25211D01*
X24555Y72378D02*
Y69622D01*
X62378Y26055D02*
X59622D01*
X62378D02*
Y24874D01*
X62246Y24480D01*
X62115Y24349D01*
X61853Y24218D01*
X61590D01*
X61328Y24349D01*
X61197Y24480D01*
X61066Y24874D01*
Y26055D01*
Y25136D02*
X59622Y24218D01*
X61853Y23601D02*
X61984Y23339D01*
X62378Y22945D01*
X59622D01*
X48974Y38878D02*
Y36778D01*
X48842Y36385D01*
X48711Y36254D01*
X48449Y36122D01*
X48186D01*
X47924Y36254D01*
X47793Y36385D01*
X47662Y36778D01*
Y37041D01*
X49682Y38353D02*
X49945Y38484D01*
X50338Y38878D01*
Y36122D01*
X41769Y65222D02*
X41638Y65484D01*
X41375Y65746D01*
X41113Y65878D01*
X40588D01*
X40326Y65746D01*
X40063Y65484D01*
X39932Y65222D01*
X39801Y64828D01*
Y64172D01*
X39932Y63778D01*
X40063Y63516D01*
X40326Y63253D01*
X40588Y63122D01*
X41113D01*
X41375Y63253D01*
X41638Y63516D01*
X41769Y63778D01*
X42543Y65353D02*
X42805Y65484D01*
X43199Y65878D01*
Y63122D01*
X71378Y26145D02*
X68622D01*
X71378D02*
Y24964D01*
X71246Y24571D01*
X71115Y24440D01*
X70853Y24308D01*
X70590D01*
X70328Y24440D01*
X70197Y24571D01*
X70066Y24964D01*
Y26145D01*
Y25227D02*
X68622Y24308D01*
X71378Y23429D02*
Y21986D01*
X70328Y22773D01*
Y22380D01*
X70197Y22117D01*
X70066Y21986D01*
X69672Y21855D01*
X69410D01*
X69016Y21986D01*
X68753Y22248D01*
X68622Y22642D01*
Y23036D01*
X68753Y23429D01*
X68885Y23561D01*
X69147Y23692D01*
X57355Y70378D02*
Y67622D01*
Y70378D02*
X58536D01*
X58929Y70246D01*
X59061Y70115D01*
X59192Y69853D01*
Y69590D01*
X59061Y69328D01*
X58929Y69197D01*
X58536Y69066D01*
X57355D01*
X58273D02*
X59192Y67622D01*
X60464Y70378D02*
X60071Y70246D01*
X59939Y69984D01*
Y69722D01*
X60071Y69459D01*
X60333Y69328D01*
X60858Y69197D01*
X61252Y69066D01*
X61514Y68803D01*
X61645Y68541D01*
Y68147D01*
X61514Y67885D01*
X61383Y67753D01*
X60989Y67622D01*
X60464D01*
X60071Y67753D01*
X59939Y67885D01*
X59808Y68147D01*
Y68541D01*
X59939Y68803D01*
X60202Y69066D01*
X60596Y69197D01*
X61120Y69328D01*
X61383Y69459D01*
X61514Y69722D01*
Y69984D01*
X61383Y70246D01*
X60989Y70378D01*
X60464D01*
X91445Y53378D02*
X92495Y52066D01*
Y50622D01*
X93545Y53378D02*
X92495Y52066D01*
X93899Y52853D02*
X94161Y52984D01*
X94555Y53378D01*
Y50622D01*
X63999Y63535D02*
Y61567D01*
X64130Y61173D01*
X64393Y60911D01*
X64786Y60780D01*
X65049D01*
X65442Y60911D01*
X65705Y61173D01*
X65836Y61567D01*
Y63535D01*
X66597Y63010D02*
X66859Y63142D01*
X67253Y63535D01*
Y60780D01*
X37445Y29496D02*
X35496Y31445D01*
X37445Y29496D02*
X36610Y28661D01*
X36239Y28476D01*
X36053D01*
X35775Y28569D01*
X35589Y28754D01*
X35496Y29032D01*
Y29218D01*
X35682Y29589D01*
X36517Y30424D01*
X35867Y29775D02*
X34198Y30146D01*
X34318Y26926D02*
X34596Y26834D01*
X34967Y27019D01*
X35153Y27205D01*
X35339Y27576D01*
X35246Y28040D01*
X34875Y28596D01*
X34411Y29060D01*
X33947Y29339D01*
X33576D01*
X33205Y29153D01*
X33112Y29060D01*
X32926Y28689D01*
Y28318D01*
X33112Y27947D01*
X33205Y27854D01*
X33576Y27669D01*
X33947D01*
X34318Y27854D01*
X34411Y27947D01*
X34596Y28318D01*
Y28689D01*
X34411Y29060D01*
X42991Y35043D02*
X41043Y36991D01*
X42991Y35043D02*
X42156Y34208D01*
X41785Y34022D01*
X41599D01*
X41321Y34115D01*
X41135Y34301D01*
X41043Y34579D01*
Y34764D01*
X41228Y35135D01*
X42063Y35971D01*
X41414Y35321D02*
X39744Y35692D01*
X39957Y32009D02*
X38937Y34885D01*
X41256Y33308D02*
X39957Y32009D01*
X50355Y44878D02*
Y42122D01*
Y44878D02*
X51536D01*
X51929Y44746D01*
X52061Y44615D01*
X52192Y44353D01*
Y44090D01*
X52061Y43828D01*
X51929Y43697D01*
X51536Y43566D01*
X50355D01*
X51273D02*
X52192Y42122D01*
X54383Y44878D02*
X53071D01*
X52939Y43697D01*
X53071Y43828D01*
X53464Y43959D01*
X53858D01*
X54252Y43828D01*
X54514Y43566D01*
X54645Y43172D01*
Y42910D01*
X54514Y42516D01*
X54252Y42254D01*
X53858Y42122D01*
X53464D01*
X53071Y42254D01*
X52939Y42385D01*
X52808Y42647D01*
X13383Y29878D02*
Y27778D01*
X13252Y27385D01*
X13121Y27254D01*
X12858Y27122D01*
X12596D01*
X12334Y27254D01*
X12202Y27385D01*
X12071Y27778D01*
Y28041D01*
X14223Y29222D02*
Y29353D01*
X14354Y29615D01*
X14485Y29746D01*
X14748Y29878D01*
X15273D01*
X15535Y29746D01*
X15666Y29615D01*
X15798Y29353D01*
Y29090D01*
X15666Y28828D01*
X15404Y28434D01*
X14092Y27122D01*
X15929D01*
X51945Y87378D02*
Y84622D01*
Y87378D02*
X52864D01*
X53257Y87247D01*
X53520Y86984D01*
X53651Y86722D01*
X53782Y86328D01*
Y85672D01*
X53651Y85278D01*
X53520Y85016D01*
X53257Y84754D01*
X52864Y84622D01*
X51945D01*
X54399Y86853D02*
X54661Y86984D01*
X55055Y87378D01*
Y84622D01*
X72179Y76722D02*
X72047Y76984D01*
X71785Y77246D01*
X71522Y77378D01*
X70998D01*
X70735Y77246D01*
X70473Y76984D01*
X70342Y76722D01*
X70210Y76328D01*
Y75672D01*
X70342Y75278D01*
X70473Y75016D01*
X70735Y74753D01*
X70998Y74622D01*
X71522D01*
X71785Y74753D01*
X72047Y75016D01*
X72179Y75278D01*
X74527Y77378D02*
X73215D01*
X73084Y76197D01*
X73215Y76328D01*
X73609Y76459D01*
X74002D01*
X74396Y76328D01*
X74658Y76066D01*
X74790Y75672D01*
Y75410D01*
X74658Y75016D01*
X74396Y74753D01*
X74002Y74622D01*
X73609D01*
X73215Y74753D01*
X73084Y74885D01*
X72953Y75147D01*
X95613Y44222D02*
X95482Y44484D01*
X95219Y44746D01*
X94957Y44878D01*
X94432D01*
X94170Y44746D01*
X93907Y44484D01*
X93776Y44222D01*
X93645Y43828D01*
Y43172D01*
X93776Y42778D01*
X93907Y42516D01*
X94170Y42254D01*
X94432Y42122D01*
X94957D01*
X95219Y42254D01*
X95482Y42516D01*
X95613Y42778D01*
X97699Y44878D02*
X96387Y43041D01*
X98355D01*
X97699Y44878D02*
Y42122D01*
X78244Y76722D02*
X78113Y76984D01*
X77851Y77246D01*
X77588Y77378D01*
X77063D01*
X76801Y77246D01*
X76538Y76984D01*
X76407Y76722D01*
X76276Y76328D01*
Y75672D01*
X76407Y75278D01*
X76538Y75016D01*
X76801Y74753D01*
X77063Y74622D01*
X77588D01*
X77851Y74753D01*
X78113Y75016D01*
X78244Y75278D01*
X80593Y76984D02*
X80462Y77246D01*
X80068Y77378D01*
X79805D01*
X79412Y77246D01*
X79150Y76853D01*
X79018Y76197D01*
Y75541D01*
X79150Y75016D01*
X79412Y74753D01*
X79805Y74622D01*
X79937D01*
X80330Y74753D01*
X80593Y75016D01*
X80724Y75410D01*
Y75541D01*
X80593Y75934D01*
X80330Y76197D01*
X79937Y76328D01*
X79805D01*
X79412Y76197D01*
X79150Y75934D01*
X79018Y75541D01*
X95679Y61222D02*
X95547Y61484D01*
X95285Y61747D01*
X95022Y61878D01*
X94498D01*
X94235Y61747D01*
X93973Y61484D01*
X93842Y61222D01*
X93711Y60828D01*
Y60172D01*
X93842Y59778D01*
X93973Y59516D01*
X94235Y59254D01*
X94498Y59122D01*
X95022D01*
X95285Y59254D01*
X95547Y59516D01*
X95679Y59778D01*
X96715Y61878D02*
X98158D01*
X97371Y60828D01*
X97765D01*
X98027Y60697D01*
X98158Y60566D01*
X98290Y60172D01*
Y59910D01*
X98158Y59516D01*
X97896Y59254D01*
X97502Y59122D01*
X97109D01*
X96715Y59254D01*
X96584Y59385D01*
X96453Y59647D01*
M02*
