G04*
G04 #@! TF.GenerationSoftware,Altium Limited,Altium Designer,25.5.2 (35)*
G04*
G04 Layer_Color=128*
%FSLAX25Y25*%
%MOIN*%
G70*
G04*
G04 #@! TF.SameCoordinates,B5FEB460-497D-4EFD-8A55-F2067931CFC5*
G04*
G04*
G04 #@! TF.FilePolarity,Positive*
G04*
G01*
G75*
%ADD15R,0.03347X0.03347*%
%ADD16R,0.06102X0.02362*%
%ADD17R,0.07087X0.04724*%
%ADD18R,0.02362X0.03347*%
%ADD22R,0.03347X0.02362*%
%ADD25R,0.03347X0.03347*%
%ADD26R,0.04724X0.04724*%
%ADD51R,0.01575X0.01575*%
%ADD52R,0.00984X0.01083*%
%ADD53R,0.01083X0.00984*%
G36*
X72102Y64453D02*
X72063Y64236D01*
X71927Y63817D01*
X71734Y63421D01*
X71488Y63056D01*
X71193Y62729D01*
X70856Y62446D01*
X70482Y62212D01*
X70080Y62033D01*
X69656Y61912D01*
X69220Y61850D01*
X68780Y61850D01*
X68344Y61912D01*
X67920Y62033D01*
X67518Y62212D01*
X67144Y62446D01*
X66807Y62729D01*
X66512Y63056D01*
X66266Y63421D01*
X66073Y63817D01*
X65936Y64236D01*
X65898Y64453D01*
X72102Y64453D01*
Y64453D01*
D02*
G37*
G36*
X69656Y68088D02*
X70080Y67967D01*
X70482Y67788D01*
X70856Y67554D01*
X71193Y67271D01*
X71488Y66944D01*
X71734Y66579D01*
X71927Y66183D01*
X72063Y65764D01*
X72102Y65547D01*
X65898Y65547D01*
Y65547D01*
X65936Y65764D01*
X66073Y66183D01*
X66266Y66579D01*
X66512Y66944D01*
X66807Y67271D01*
X67144Y67554D01*
X67518Y67788D01*
X67920Y67967D01*
X68344Y68088D01*
X68780Y68150D01*
X69220D01*
X69656Y68088D01*
D02*
G37*
G36*
X91602Y66453D02*
X91563Y66236D01*
X91427Y65817D01*
X91234Y65421D01*
X90988Y65056D01*
X90693Y64729D01*
X90356Y64446D01*
X89982Y64212D01*
X89580Y64033D01*
X89156Y63912D01*
X88720Y63850D01*
X88280Y63850D01*
X87844Y63912D01*
X87420Y64033D01*
X87018Y64212D01*
X86644Y64446D01*
X86307Y64729D01*
X86012Y65056D01*
X85766Y65421D01*
X85573Y65817D01*
X85436Y66236D01*
X85398Y66453D01*
X91602Y66453D01*
Y66453D01*
D02*
G37*
G36*
X89156Y70088D02*
X89580Y69967D01*
X89982Y69788D01*
X90356Y69554D01*
X90693Y69271D01*
X90988Y68944D01*
X91234Y68579D01*
X91427Y68183D01*
X91563Y67764D01*
X91602Y67547D01*
X85398Y67547D01*
Y67547D01*
X85436Y67764D01*
X85573Y68183D01*
X85766Y68579D01*
X86012Y68944D01*
X86307Y69271D01*
X86644Y69554D01*
X87018Y69788D01*
X87420Y69967D01*
X87844Y70088D01*
X88280Y70150D01*
X88720D01*
X89156Y70088D01*
D02*
G37*
D15*
X76500Y47051D02*
D03*
Y40949D02*
D03*
D16*
X21386Y53150D02*
D03*
Y57087D02*
D03*
Y49213D02*
D03*
Y45276D02*
D03*
Y41339D02*
D03*
D17*
X6130Y36220D02*
D03*
Y62205D02*
D03*
D18*
X30899Y72000D02*
D03*
X26000D02*
D03*
X82399Y78500D02*
D03*
X77500D02*
D03*
X26000Y67500D02*
D03*
X30899D02*
D03*
X58500Y42000D02*
D03*
X63399D02*
D03*
X88601Y58500D02*
D03*
X93500D02*
D03*
D22*
X96000Y53000D02*
D03*
Y48101D02*
D03*
D25*
X84949Y40000D02*
D03*
X91051D02*
D03*
X58949Y78500D02*
D03*
X65051D02*
D03*
X59000Y47500D02*
D03*
X65102D02*
D03*
X59000Y54000D02*
D03*
X65102D02*
D03*
D26*
X83000Y85000D02*
D03*
X74732D02*
D03*
D51*
X42520Y50787D02*
D03*
Y47638D02*
D03*
Y44488D02*
D03*
X51968D02*
D03*
Y47638D02*
D03*
Y53937D02*
D03*
X42520D02*
D03*
X51968Y50787D02*
D03*
D52*
X84646Y46213D02*
D03*
X88583Y52213D02*
D03*
X86614D02*
D03*
X84646D02*
D03*
X88583Y46213D02*
D03*
X86614D02*
D03*
D53*
X89618Y48228D02*
D03*
Y50197D02*
D03*
X83610D02*
D03*
Y48228D02*
D03*
M02*
