G04*
G04 #@! TF.GenerationSoftware,Altium Limited,Altium Designer,25.5.2 (35)*
G04*
G04 Layer_Physical_Order=2*
G04 Layer_Color=16711680*
%FSLAX25Y25*%
%MOIN*%
G70*
G04*
G04 #@! TF.SameCoordinates,B5FEB460-497D-4EFD-8A55-F2067931CFC5*
G04*
G04*
G04 #@! TF.FilePolarity,Positive*
G04*
G01*
G75*
%ADD15R,0.03347X0.03347*%
%ADD16R,0.06102X0.02362*%
%ADD17R,0.07087X0.04724*%
%ADD18R,0.02362X0.03347*%
%ADD22R,0.03347X0.02362*%
%ADD25R,0.03347X0.03347*%
%ADD26R,0.04724X0.04724*%
%ADD44C,0.00984*%
%ADD45C,0.02362*%
%ADD46C,0.01181*%
%ADD48C,0.11811*%
%ADD49C,0.02362*%
%ADD50C,0.01968*%
%ADD51R,0.01575X0.01575*%
%ADD52R,0.00984X0.01083*%
%ADD53R,0.01083X0.00984*%
%ADD54C,0.01575*%
G36*
X102362Y98425D02*
X103394D01*
X105441Y98156D01*
X107435Y97621D01*
X109342Y96831D01*
X111130Y95799D01*
X112768Y94543D01*
X114228Y93083D01*
X115484Y91445D01*
X116516Y89657D01*
X117306Y87750D01*
X117841Y85756D01*
X118110Y83709D01*
Y82677D01*
X118110D01*
X118110Y15748D01*
Y14716D01*
X117841Y12669D01*
X117306Y10675D01*
X116516Y8768D01*
X115484Y6980D01*
X114228Y5342D01*
X112768Y3883D01*
X111130Y2626D01*
X109342Y1594D01*
X107435Y804D01*
X105441Y270D01*
X103394Y0D01*
X14716D01*
X12669Y269D01*
X10675Y804D01*
X8768Y1594D01*
X6980Y2626D01*
X5342Y3883D01*
X3883Y5342D01*
X2626Y6980D01*
X1594Y8768D01*
X804Y10675D01*
X270Y12669D01*
X0Y14716D01*
Y15748D01*
Y82677D01*
Y83709D01*
X270Y85756D01*
X804Y87750D01*
X1594Y89657D01*
X2626Y91445D01*
X3883Y93083D01*
X5342Y94543D01*
X6980Y95799D01*
X8768Y96831D01*
X10675Y97621D01*
X12669Y98156D01*
X14716Y98425D01*
X15748D01*
X15748Y98425D01*
X102362Y98425D01*
D02*
G37*
%LPC*%
G36*
X16407Y89370D02*
X15089D01*
X13796Y89113D01*
X12578Y88608D01*
X11482Y87876D01*
X10549Y86944D01*
X9817Y85848D01*
X9312Y84629D01*
X9055Y83336D01*
Y82018D01*
X9312Y80725D01*
X9817Y79507D01*
X10549Y78411D01*
X11482Y77478D01*
X12578Y76746D01*
X13796Y76241D01*
X15089Y75984D01*
X16407D01*
X17700Y76241D01*
X18918Y76746D01*
X20015Y77478D01*
X20947Y78411D01*
X21679Y79507D01*
X22184Y80725D01*
X22441Y82018D01*
Y83336D01*
X22184Y84629D01*
X21679Y85848D01*
X20947Y86944D01*
X20015Y87876D01*
X18918Y88608D01*
X17700Y89113D01*
X16407Y89370D01*
D02*
G37*
G36*
X103021D02*
X101703D01*
X100410Y89113D01*
X99192Y88608D01*
X98096Y87876D01*
X97163Y86944D01*
X96431Y85848D01*
X95926Y84629D01*
X95669Y83336D01*
Y82018D01*
X95926Y80725D01*
X96431Y79507D01*
X97163Y78411D01*
X98096Y77478D01*
X99192Y76746D01*
X100001Y76411D01*
X99713Y75465D01*
X99500Y75507D01*
X85132D01*
X84368Y76039D01*
X84368Y76491D01*
Y78306D01*
X84406Y78500D01*
Y81850D01*
X86150D01*
Y88150D01*
X79850D01*
Y81850D01*
X79850D01*
X79664Y81250D01*
X78655Y81098D01*
X78095Y81638D01*
X78095Y81945D01*
Y84370D01*
X76980D01*
Y85630D01*
X78095D01*
Y88362D01*
X75362D01*
Y87248D01*
X74102D01*
Y88362D01*
X71370D01*
Y85630D01*
X72484D01*
Y84370D01*
X71370D01*
Y81638D01*
X74828D01*
X75532Y80961D01*
X75532Y80654D01*
Y76039D01*
X74768Y75507D01*
X68576D01*
X67724Y75827D01*
X67724Y76491D01*
Y77870D01*
X66610D01*
Y79130D01*
X67724D01*
Y81173D01*
X65681D01*
Y80059D01*
X64421D01*
Y81173D01*
X62378D01*
Y80999D01*
X61409Y80961D01*
X61394Y80961D01*
X56488D01*
Y76039D01*
X55724Y75507D01*
X46500D01*
X45732Y75354D01*
X45081Y74919D01*
X34957Y64795D01*
X32868Y66884D01*
Y67306D01*
X32906Y67500D01*
Y72000D01*
X32868Y72194D01*
Y74461D01*
X28953D01*
X28931Y74461D01*
Y74461D01*
X27968D01*
Y74461D01*
X24032D01*
Y73405D01*
X17000D01*
X16462Y73298D01*
X16006Y72993D01*
X11538Y68525D01*
X11233Y68069D01*
X11127Y67532D01*
Y66063D01*
X10461Y65354D01*
X10142Y65354D01*
X1799D01*
Y59055D01*
X10142D01*
X10461Y59055D01*
X11127Y58347D01*
Y52969D01*
X11233Y52431D01*
X11538Y51975D01*
X15294Y48219D01*
X15750Y47915D01*
X16287Y47808D01*
X17547D01*
Y43520D01*
X17335D01*
Y41969D01*
X18449D01*
Y40709D01*
X17335D01*
Y39158D01*
X20756D01*
Y40272D01*
X22016D01*
Y39158D01*
X25437D01*
Y40709D01*
X24323D01*
Y41969D01*
X25437D01*
Y43520D01*
X26276Y43871D01*
X27643D01*
X49507Y22006D01*
X49962Y21702D01*
X50500Y21595D01*
X96000D01*
X96538Y21702D01*
X96993Y22006D01*
X98715Y23728D01*
X98852D01*
X99504Y23998D01*
X100002Y24496D01*
X100272Y25148D01*
Y25852D01*
X100002Y26504D01*
X99504Y27002D01*
X98852Y27272D01*
X98148D01*
X97496Y27002D01*
X96998Y26504D01*
X96728Y25852D01*
Y25715D01*
X95418Y24405D01*
X51082D01*
X29218Y46269D01*
X28762Y46574D01*
X28224Y46681D01*
X25224D01*
Y47808D01*
X29706D01*
X34018Y43495D01*
X34474Y43190D01*
X35012Y43083D01*
X40945D01*
Y42913D01*
X41215D01*
Y41475D01*
X41314Y40976D01*
X41597Y40552D01*
X50844Y31306D01*
X51267Y31023D01*
X51766Y30924D01*
X55248D01*
X55286Y30873D01*
X55535Y30336D01*
X55628Y29939D01*
X55572Y29856D01*
X55432Y29716D01*
X55356Y29533D01*
X55247Y29369D01*
X55208Y29175D01*
X55132Y28992D01*
Y28795D01*
X55094Y28601D01*
X55132Y28407D01*
Y28209D01*
X55208Y28027D01*
X55247Y27833D01*
X55356Y27668D01*
X55432Y27486D01*
X55572Y27346D01*
X55682Y27182D01*
X55846Y27072D01*
X55986Y26932D01*
X56168Y26856D01*
X56333Y26746D01*
X56527Y26708D01*
X56709Y26632D01*
X56907D01*
X57101Y26594D01*
X79958D01*
X80108Y26531D01*
X80306D01*
X80500Y26493D01*
X80694Y26531D01*
X80892D01*
X81074Y26607D01*
X81268Y26646D01*
X81432Y26755D01*
X81615Y26831D01*
X81755Y26971D01*
X81919Y27081D01*
X82029Y27245D01*
X82169Y27385D01*
X82244Y27568D01*
X82354Y27732D01*
X82393Y27926D01*
X82468Y28108D01*
Y28306D01*
X82507Y28500D01*
X82468Y28694D01*
Y28892D01*
X82393Y29074D01*
X82354Y29268D01*
X82244Y29432D01*
X82169Y29615D01*
X82029Y29755D01*
X81919Y29919D01*
X81818Y30020D01*
X81654Y30130D01*
X81615Y30169D01*
X81564Y30190D01*
X81167Y30455D01*
X80399Y30608D01*
X70414D01*
X70009Y31592D01*
X74470Y36053D01*
X74752Y36476D01*
X74852Y36976D01*
Y38276D01*
X75870D01*
Y39390D01*
X77130D01*
Y38276D01*
X79173D01*
Y40319D01*
X78059D01*
Y41579D01*
X79173D01*
Y41651D01*
X80083Y42028D01*
X82488Y39622D01*
Y37539D01*
X82942D01*
Y34551D01*
X83095Y33783D01*
X83530Y33132D01*
X86081Y30581D01*
X86732Y30146D01*
X87500Y29993D01*
X99500D01*
X100268Y30146D01*
X100919Y30581D01*
X105520Y35181D01*
X105955Y35833D01*
X106108Y36601D01*
Y53000D01*
Y68899D01*
X105955Y69667D01*
X105520Y70319D01*
X100919Y74919D01*
X100611Y75125D01*
X100456Y75229D01*
X100840Y76156D01*
X100941Y76136D01*
X101703Y75984D01*
X103021D01*
X104314Y76241D01*
X105533Y76746D01*
X106629Y77478D01*
X107561Y78411D01*
X108293Y79507D01*
X108798Y80725D01*
X109055Y82018D01*
Y83336D01*
X108798Y84629D01*
X108293Y85848D01*
X107561Y86944D01*
X106629Y87876D01*
X105533Y88608D01*
X104314Y89113D01*
X103021Y89370D01*
D02*
G37*
G36*
X10461Y39370D02*
X1799D01*
Y33071D01*
X10461D01*
Y39370D01*
D02*
G37*
G36*
X103021Y22441D02*
X101703D01*
X100410Y22184D01*
X99192Y21679D01*
X98096Y20947D01*
X97163Y20015D01*
X96431Y18918D01*
X95926Y17700D01*
X95669Y16407D01*
Y15089D01*
X95926Y13796D01*
X96431Y12578D01*
X97163Y11482D01*
X98096Y10549D01*
X99192Y9817D01*
X100410Y9312D01*
X101703Y9055D01*
X103021D01*
X104314Y9312D01*
X105533Y9817D01*
X106629Y10549D01*
X107561Y11482D01*
X108293Y12578D01*
X108798Y13796D01*
X109055Y15089D01*
Y16407D01*
X108798Y17700D01*
X108293Y18918D01*
X107561Y20015D01*
X106629Y20947D01*
X105533Y21679D01*
X104314Y22184D01*
X103021Y22441D01*
D02*
G37*
G36*
X16407D02*
X15089D01*
X13796Y22184D01*
X12578Y21679D01*
X11482Y20947D01*
X10549Y20015D01*
X9817Y18918D01*
X9312Y17700D01*
X9055Y16407D01*
Y15089D01*
X9312Y13796D01*
X9817Y12578D01*
X10549Y11482D01*
X11482Y10549D01*
X12578Y9817D01*
X13796Y9312D01*
X15089Y9055D01*
X16407D01*
X17700Y9312D01*
X18918Y9817D01*
X20015Y10549D01*
X20947Y11482D01*
X21679Y12578D01*
X22184Y13796D01*
X22441Y15089D01*
Y16407D01*
X22184Y17700D01*
X21679Y18918D01*
X20947Y20015D01*
X20015Y20947D01*
X18918Y21679D01*
X17700Y22184D01*
X16407Y22441D01*
D02*
G37*
%LPD*%
G36*
X86247Y70509D02*
X86104Y70419D01*
X86052Y70370D01*
X85989Y70335D01*
X85651Y70052D01*
X85606Y69996D01*
X85549Y69953D01*
X85254Y69626D01*
X85218Y69564D01*
X85167Y69514D01*
X84920Y69149D01*
X84893Y69083D01*
X84849Y69026D01*
X84656Y68630D01*
X84638Y68560D01*
X84603Y68498D01*
X84467Y68079D01*
X84458Y68008D01*
X84432Y67941D01*
X84394Y67724D01*
X84396Y67635D01*
X84379Y67547D01*
X84400Y67438D01*
X84403Y67326D01*
X84439Y67244D01*
X84456Y67157D01*
X84518Y67064D01*
X84563Y66962D01*
X84628Y66900D01*
X84677Y66826D01*
X84693Y66815D01*
X84657Y66760D01*
X84643Y66691D01*
X84614Y66627D01*
X84613Y66539D01*
X84595Y66453D01*
X84609Y66384D01*
X84608Y66314D01*
X84646Y66097D01*
X84666Y66044D01*
X84673Y65988D01*
X84809Y65569D01*
X84837Y65520D01*
X84851Y65465D01*
X85044Y65069D01*
X85078Y65025D01*
X85100Y64972D01*
X85347Y64607D01*
X85387Y64568D01*
X85415Y64519D01*
X85710Y64192D01*
X85755Y64158D01*
X85791Y64114D01*
X86128Y63831D01*
X86178Y63803D01*
X86219Y63765D01*
X86592Y63531D01*
X86645Y63511D01*
X86691Y63479D01*
X87094Y63300D01*
X87149Y63287D01*
X87199Y63261D01*
X87296Y63234D01*
Y60961D01*
X86632D01*
Y57497D01*
X85648Y57106D01*
X85499Y57205D01*
X85000Y57305D01*
X73655D01*
X73156Y57205D01*
X72733Y56923D01*
X70269Y54459D01*
X69360Y54836D01*
Y61059D01*
X69768Y61117D01*
X69822Y61135D01*
X69878Y61140D01*
X70301Y61261D01*
X70351Y61287D01*
X70406Y61300D01*
X70809Y61479D01*
X70855Y61511D01*
X70908Y61531D01*
X71281Y61765D01*
X71322Y61804D01*
X71372Y61831D01*
X71709Y62114D01*
X71745Y62158D01*
X71790Y62192D01*
X72085Y62519D01*
X72114Y62568D01*
X72154Y62607D01*
X72400Y62972D01*
X72422Y63024D01*
X72456Y63069D01*
X72649Y63465D01*
X72663Y63520D01*
X72691Y63569D01*
X72827Y63988D01*
X72834Y64044D01*
X72854Y64097D01*
X72892Y64314D01*
X72891Y64384D01*
X72905Y64453D01*
X72887Y64539D01*
X72886Y64627D01*
X72857Y64691D01*
X72843Y64760D01*
X72807Y64815D01*
X72823Y64826D01*
X72872Y64900D01*
X72937Y64962D01*
X72982Y65064D01*
X73044Y65157D01*
X73061Y65244D01*
X73097Y65326D01*
X73100Y65438D01*
X73121Y65547D01*
X73104Y65635D01*
X73106Y65724D01*
X73068Y65941D01*
X73042Y66008D01*
X73033Y66079D01*
X72897Y66498D01*
X72862Y66560D01*
X72844Y66630D01*
X72651Y67026D01*
X72607Y67083D01*
X72580Y67149D01*
X72333Y67514D01*
X72282Y67564D01*
X72246Y67626D01*
X71951Y67953D01*
X71894Y67996D01*
X71849Y68052D01*
X71511Y68335D01*
X71448Y68370D01*
X71396Y68419D01*
X71023Y68652D01*
X70955Y68678D01*
X70897Y68719D01*
X70495Y68898D01*
X70425Y68914D01*
X70361Y68947D01*
X69937Y69068D01*
X69866Y69074D01*
X69798Y69098D01*
X69630Y69122D01*
Y67972D01*
X68370D01*
Y69122D01*
X68202Y69098D01*
X68134Y69074D01*
X68063Y69068D01*
X67639Y68947D01*
X67575Y68914D01*
X67505Y68898D01*
X67103Y68719D01*
X67045Y68678D01*
X66977Y68652D01*
X66604Y68419D01*
X66552Y68370D01*
X66489Y68335D01*
X66151Y68052D01*
X66106Y67996D01*
X66049Y67953D01*
X65754Y67626D01*
X65718Y67564D01*
X65667Y67514D01*
X65420Y67149D01*
X65393Y67083D01*
X65349Y67026D01*
X65156Y66630D01*
X65138Y66560D01*
X65103Y66498D01*
X64967Y66079D01*
X64958Y66008D01*
X64932Y65941D01*
X64894Y65724D01*
X64896Y65635D01*
X64879Y65547D01*
X64900Y65438D01*
X64903Y65326D01*
X64939Y65244D01*
X64956Y65157D01*
X65018Y65064D01*
X65063Y64962D01*
X65128Y64900D01*
X65177Y64826D01*
X65193Y64815D01*
X65157Y64760D01*
X65143Y64691D01*
X65114Y64627D01*
X65113Y64539D01*
X65095Y64453D01*
X65109Y64384D01*
X65108Y64314D01*
X65146Y64097D01*
X65166Y64044D01*
X65173Y63988D01*
X65309Y63569D01*
X65337Y63520D01*
X65351Y63465D01*
X65544Y63069D01*
X65578Y63024D01*
X65600Y62972D01*
X65847Y62607D01*
X65886Y62568D01*
X65915Y62519D01*
X66210Y62192D01*
X66255Y62158D01*
X66291Y62114D01*
X66628Y61831D01*
X66678Y61804D01*
X66719Y61765D01*
X66751Y61745D01*
Y56673D01*
X65732D01*
Y55559D01*
X64472D01*
Y56673D01*
X62429D01*
Y56673D01*
X61519Y56852D01*
X61011Y57249D01*
X61007Y57257D01*
Y71493D01*
X85991D01*
X86247Y70509D01*
D02*
G37*
G36*
X56993Y56461D02*
X56539D01*
Y55543D01*
X51968D01*
X51813Y55512D01*
X50394D01*
Y54092D01*
X50363Y53937D01*
X50394Y53782D01*
Y52575D01*
X50181D01*
Y51417D01*
X51295D01*
Y50157D01*
X50181D01*
Y50056D01*
X49197Y49648D01*
X47135Y51710D01*
X46712Y51993D01*
X46213Y52092D01*
X45268D01*
X44307Y52150D01*
Y53307D01*
X43193D01*
Y54567D01*
X44307D01*
Y55724D01*
X43150D01*
Y54610D01*
X41890D01*
Y55724D01*
X40732D01*
Y54567D01*
X41846D01*
Y53307D01*
X40732D01*
Y52150D01*
X40945D01*
Y49043D01*
X36944D01*
X31844Y54143D01*
X31388Y54448D01*
X31229Y55483D01*
X31506Y55667D01*
X36919Y61081D01*
X36919Y61081D01*
X47331Y71493D01*
X56993D01*
Y56461D01*
D02*
G37*
G36*
X102094Y37432D02*
X98669Y34007D01*
X88331D01*
X86956Y35383D01*
Y36737D01*
X86967Y36756D01*
X87468Y37148D01*
X88378Y37327D01*
Y37327D01*
X90421D01*
Y38441D01*
X91681D01*
Y37327D01*
X93724D01*
Y39370D01*
X92610D01*
Y40630D01*
X93724D01*
Y42673D01*
X91681D01*
Y41559D01*
X90421D01*
Y42673D01*
X88378D01*
Y42499D01*
X87410Y42461D01*
X87394Y42461D01*
X85950D01*
Y44671D01*
X90075D01*
Y46924D01*
X93539D01*
Y46132D01*
X98461D01*
Y46279D01*
X98805D01*
X99456Y46549D01*
X99955Y47047D01*
X100224Y47698D01*
Y48403D01*
X99955Y49054D01*
X99456Y49552D01*
X99264Y49632D01*
X98789Y49890D01*
X98762Y50009D01*
X99545Y50993D01*
X102094D01*
Y37432D01*
D02*
G37*
G36*
X83153Y53754D02*
X83153D01*
Y51501D01*
X74490D01*
X73990Y51402D01*
X73567Y51119D01*
X72625Y50177D01*
X72342Y49754D01*
X72243Y49254D01*
Y37722D01*
X71956Y37513D01*
X71100Y38107D01*
X71131Y38266D01*
Y51631D01*
X74195Y54695D01*
X83050D01*
X83153Y53754D01*
D02*
G37*
G36*
X55077Y35577D02*
X55501Y35295D01*
X56000Y35195D01*
X68061D01*
X68560Y35295D01*
X68770Y35435D01*
X69397Y34670D01*
X68260Y33533D01*
X52306D01*
X43910Y41929D01*
X44032Y42913D01*
X44094D01*
Y45169D01*
X45079Y45576D01*
X55077Y35577D01*
D02*
G37*
%LPC*%
G36*
X50852Y66272D02*
X50148D01*
X49496Y66002D01*
X48998Y65504D01*
X48728Y64852D01*
Y64148D01*
X48998Y63496D01*
X49095Y63399D01*
Y60601D01*
X48998Y60504D01*
X48728Y59852D01*
Y59148D01*
X48998Y58496D01*
X49496Y57998D01*
X50148Y57728D01*
X50852D01*
X51504Y57998D01*
X52002Y58496D01*
X52272Y59148D01*
Y59852D01*
X52002Y60504D01*
X51905Y60601D01*
Y63399D01*
X52002Y63496D01*
X52272Y64148D01*
Y64852D01*
X52002Y65504D01*
X51504Y66002D01*
X50852Y66272D01*
D02*
G37*
%LPD*%
G36*
G01X85398Y66453D02*
G03X91602I3102J547D01*
G01X85398D01*
D02*
G37*
G36*
G01Y67547D02*
G01X91602D01*
G03X85398I-3102J-547D01*
D02*
G37*
G36*
G01X65898Y64453D02*
G03X72102I3102J547D01*
G01X65898D01*
D02*
G37*
G36*
G01Y65547D02*
G01X72102D01*
G03X65898I-3102J-547D01*
D02*
G37*
D15*
X76500Y47051D02*
D03*
Y40949D02*
D03*
D16*
X21386Y53150D02*
D03*
Y57087D02*
D03*
Y49213D02*
D03*
Y45276D02*
D03*
Y41339D02*
D03*
D17*
X6130Y36220D02*
D03*
Y62205D02*
D03*
D18*
X30899Y72000D02*
D03*
X26000D02*
D03*
X82399Y78500D02*
D03*
X77500D02*
D03*
X26000Y67500D02*
D03*
X30899D02*
D03*
X58500Y42000D02*
D03*
X63399D02*
D03*
X88601Y58500D02*
D03*
X93500D02*
D03*
D22*
X96000Y53000D02*
D03*
Y48101D02*
D03*
D25*
X84949Y40000D02*
D03*
X91051D02*
D03*
X58949Y78500D02*
D03*
X65051D02*
D03*
X59000Y47500D02*
D03*
X65102D02*
D03*
X59000Y54000D02*
D03*
X65102D02*
D03*
D26*
X83000Y85000D02*
D03*
X74732D02*
D03*
D44*
X68800Y32228D02*
X73547Y36976D01*
X42520Y41475D02*
Y44488D01*
X52500Y34000D02*
X68066D01*
X51766Y32228D02*
X68800D01*
X42520Y41475D02*
X51766Y32228D01*
X68066Y34000D02*
X71598Y37532D01*
X59077Y38423D02*
X66923D01*
X68055Y39555D01*
Y62248D01*
X71598Y37532D02*
Y49715D01*
X44862Y47638D02*
X56000Y36500D01*
X68061D02*
X69827Y38266D01*
X56000Y36500D02*
X68061D01*
X58500Y39000D02*
X59077Y38423D01*
X58500Y39000D02*
Y42000D01*
X73547Y36976D02*
Y49254D01*
X69827Y38266D02*
Y52172D01*
X71598Y49715D02*
X71883Y50000D01*
X82152Y68848D02*
X88500D01*
X69827Y52172D02*
X73655Y56000D01*
X68055Y62248D02*
X68154Y62347D01*
X73547Y49254D02*
X74490Y50197D01*
X83610D01*
X71883Y50000D02*
Y51088D01*
X73008Y52213D01*
X84646D01*
X73655Y56000D02*
X85000D01*
X86614Y52213D02*
Y54386D01*
X85000Y56000D02*
X86614Y54386D01*
Y43886D02*
X87000Y43500D01*
X86614Y43886D02*
Y46213D01*
X91287D02*
X91500Y46000D01*
X88583Y46213D02*
X91287D01*
X81500Y69500D02*
X82152Y68848D01*
X77500Y73500D02*
Y78500D01*
X35407Y62500D02*
X35500D01*
X30899Y67008D02*
X35407Y62500D01*
X30899Y67008D02*
Y67500D01*
X58862Y47029D02*
Y47638D01*
Y47029D02*
X63399Y42492D01*
Y42000D02*
Y42492D01*
X94189Y57319D02*
X94339D01*
X93500Y58008D02*
X94189Y57319D01*
X94339D02*
X96000Y55658D01*
X93500Y58008D02*
Y58500D01*
X96000Y53000D02*
Y55658D01*
X89618Y50197D02*
X89667D01*
X92471Y53000D01*
X96000D01*
X42520Y47638D02*
X44862D01*
X77677Y48228D02*
X83610D01*
X76500Y47051D02*
X77677Y48228D01*
X88500Y65152D02*
X88601Y65051D01*
Y58500D02*
Y65051D01*
X88583Y58583D02*
X89000Y59000D01*
X88583Y52213D02*
Y58583D01*
X89618Y48228D02*
X96272D01*
X84646Y40543D02*
Y46213D01*
X46213Y50787D02*
X49362Y47638D01*
X42520Y50787D02*
X46213D01*
X49362Y47638D02*
X51968D01*
D45*
X57101Y28601D02*
X80399D01*
X104101Y53000D02*
Y68899D01*
X99500Y73500D02*
X104101Y68899D01*
X99500Y32000D02*
X104101Y36601D01*
X96000Y53000D02*
X104101D01*
Y36601D02*
Y53000D01*
X65000Y59000D02*
X65102Y58898D01*
Y54000D02*
Y58898D01*
Y47500D02*
Y54000D01*
X77500Y73500D02*
X99500D01*
X82399Y84399D02*
X83000Y85000D01*
X82399Y78500D02*
Y84399D01*
X59000Y73500D02*
Y78449D01*
Y73500D02*
X77500D01*
X59000Y54000D02*
Y73500D01*
X46500D02*
X59000D01*
X35500Y62500D02*
X46500Y73500D01*
X59000Y47776D02*
Y54000D01*
X77449Y47500D02*
X84949Y40000D01*
X76500Y47051D02*
X76992Y46559D01*
X30899Y67500D02*
Y72000D01*
X58862Y47638D02*
X59000Y47776D01*
X30087Y57087D02*
X35500Y62500D01*
X21386Y57087D02*
X30087D01*
X84949Y34551D02*
X87500Y32000D01*
X84949Y34551D02*
Y40000D01*
X87500Y32000D02*
X99500D01*
X77000Y47500D02*
X77449D01*
X80399Y28601D02*
X80500Y28500D01*
D46*
X50500Y23000D02*
X96000D01*
X98500Y25500D01*
X28224Y45276D02*
X50500Y23000D01*
X21386Y45276D02*
X28224D01*
X96450Y48050D02*
X96475Y48076D01*
X96272Y48228D02*
X96450Y48050D01*
X98427Y48076D02*
X98453Y48050D01*
X96475Y48076D02*
X98427D01*
X16500Y67500D02*
X26000D01*
X14500Y56000D02*
Y65500D01*
X16500Y67500D01*
X17000Y72000D02*
X26000D01*
X12531Y52969D02*
Y67532D01*
X17000Y72000D01*
X16287Y49213D02*
X21386D01*
X12531Y52969D02*
X16287Y49213D01*
X21386D02*
X30287D01*
X14500Y56000D02*
X17255Y53245D01*
X21290D02*
X21386Y53150D01*
X17255Y53245D02*
X21290D01*
X21386Y53150D02*
X30850D01*
X51968Y44488D02*
X54457Y42000D01*
X50500Y59500D02*
Y64500D01*
X54457Y42000D02*
X58500D01*
X35012Y44488D02*
X42520D01*
X30287Y49213D02*
X35012Y44488D01*
X36362Y47638D02*
X42520D01*
X30850Y53150D02*
X36362Y47638D01*
D48*
X15748Y15748D02*
D03*
X102362Y82677D02*
D03*
Y15748D02*
D03*
X15748Y82677D02*
D03*
D49*
X57101Y28601D02*
D03*
X80500Y28500D02*
D03*
D50*
X75455Y61500D02*
D03*
X98500Y25500D02*
D03*
X53000Y35000D02*
D03*
X47000Y31500D02*
D03*
X98453Y48050D02*
D03*
X101000Y43500D02*
D03*
Y39500D02*
D03*
X54851Y57803D02*
D03*
X55500Y68000D02*
D03*
X52500Y70000D02*
D03*
X89000Y36000D02*
D03*
X63000Y68500D02*
D03*
X82500D02*
D03*
X110236Y86614D02*
D03*
Y78740D02*
D03*
Y70866D02*
D03*
Y62992D02*
D03*
Y55118D02*
D03*
Y47244D02*
D03*
Y39370D02*
D03*
Y31496D02*
D03*
Y23622D02*
D03*
Y7874D02*
D03*
X94488Y86614D02*
D03*
Y78740D02*
D03*
Y7874D02*
D03*
X86614Y78740D02*
D03*
Y15748D02*
D03*
Y7874D02*
D03*
X78740Y15748D02*
D03*
Y7874D02*
D03*
X70866Y78740D02*
D03*
Y15748D02*
D03*
Y7874D02*
D03*
X62992Y86614D02*
D03*
Y15748D02*
D03*
Y7874D02*
D03*
X55118Y86614D02*
D03*
Y15748D02*
D03*
Y7874D02*
D03*
X47244Y86614D02*
D03*
Y78740D02*
D03*
Y55118D02*
D03*
Y15748D02*
D03*
Y7874D02*
D03*
X39370Y86614D02*
D03*
Y78740D02*
D03*
Y15748D02*
D03*
Y7874D02*
D03*
X31496Y86614D02*
D03*
Y78740D02*
D03*
Y23622D02*
D03*
Y15748D02*
D03*
Y7874D02*
D03*
X23622Y86614D02*
D03*
Y78740D02*
D03*
Y31496D02*
D03*
Y23622D02*
D03*
Y7874D02*
D03*
X15748Y39370D02*
D03*
Y31496D02*
D03*
X7874Y86614D02*
D03*
Y78740D02*
D03*
Y70866D02*
D03*
Y55118D02*
D03*
Y47244D02*
D03*
Y23622D02*
D03*
Y7874D02*
D03*
X50500Y59500D02*
D03*
Y64500D02*
D03*
D51*
X42520Y50787D02*
D03*
Y47638D02*
D03*
Y44488D02*
D03*
X51968D02*
D03*
Y47638D02*
D03*
Y53937D02*
D03*
X42520D02*
D03*
X51968Y50787D02*
D03*
D52*
X84646Y46213D02*
D03*
X88583Y52213D02*
D03*
X86614D02*
D03*
X84646D02*
D03*
X88583Y46213D02*
D03*
X86614D02*
D03*
D53*
X89618Y48228D02*
D03*
Y50197D02*
D03*
X83610D02*
D03*
Y48228D02*
D03*
D54*
X51968Y53937D02*
X58937D01*
X51968Y47638D02*
X58862D01*
M02*
