G04*
G04 #@! TF.GenerationSoftware,Altium Limited,Altium Designer,25.5.2 (35)*
G04*
G04 Layer_Physical_Order=1*
G04 Layer_Color=255*
%FSLAX25Y25*%
%MOIN*%
G70*
G04*
G04 #@! TF.SameCoordinates,0C9127BE-03E8-42DE-BC35-3FD092215F23*
G04*
G04*
G04 #@! TF.FilePolarity,Positive*
G04*
G01*
G75*
%ADD16R,0.02362X0.06102*%
%ADD17R,0.04724X0.07087*%
%ADD18R,0.01968X0.02028*%
%ADD19R,0.00906X0.03150*%
%ADD20R,0.00394X0.00787*%
%ADD21R,0.02559X0.00984*%
%ADD22R,0.03347X0.03347*%
%ADD23R,0.02106X0.01968*%
%ADD24R,0.03347X0.03347*%
%ADD25R,0.05118X0.05512*%
%ADD26R,0.03150X0.00906*%
%ADD27R,0.03347X0.02362*%
%ADD28R,0.02362X0.04724*%
%ADD29R,0.02559X0.01378*%
%ADD30R,0.09118X0.04724*%
%ADD31R,0.08071X0.08071*%
%ADD51C,0.01575*%
%ADD52C,0.00906*%
%ADD53C,0.01968*%
%ADD54C,0.01181*%
%ADD55C,0.02362*%
%ADD56C,0.11811*%
%ADD57C,0.01968*%
%ADD58C,0.02362*%
G36*
X104331Y72835D02*
X105234D01*
X107025Y72599D01*
X108770Y72131D01*
X110438Y71440D01*
X112003Y70537D01*
X113436Y69437D01*
X114713Y68160D01*
X115813Y66727D01*
X116716Y65163D01*
X117407Y63494D01*
X117875Y61749D01*
X118110Y59958D01*
Y59055D01*
X118110Y39370D01*
Y38467D01*
X117875Y36676D01*
X117407Y34931D01*
X116716Y33263D01*
X115813Y31698D01*
X114713Y30265D01*
X113436Y28988D01*
X112003Y27888D01*
X110438Y26985D01*
X108770Y26294D01*
X107025Y25826D01*
X105234Y25591D01*
X98425D01*
Y25591D01*
X97653Y25565D01*
X96121Y25364D01*
X94629Y24964D01*
X93201Y24373D01*
X91863Y23600D01*
X90638Y22659D01*
X89545Y21567D01*
X88605Y20341D01*
X87832Y19003D01*
X87241Y17576D01*
X86841Y16084D01*
X86639Y14552D01*
X86614Y13780D01*
X86614Y5324D01*
X86387Y4183D01*
X85942Y3108D01*
X85296Y2141D01*
X84473Y1318D01*
X83506Y672D01*
X82431Y227D01*
X81290Y0D01*
X65800D01*
X65665Y187D01*
X65460Y905D01*
X69961Y5406D01*
X70807Y5123D01*
X70866Y5076D01*
Y3297D01*
X77165D01*
Y11959D01*
X71710D01*
X70866Y12108D01*
X70866Y12864D01*
X70866Y13730D01*
X70866D01*
Y15963D01*
X78569D01*
X78569Y15963D01*
X79183Y16085D01*
X79704Y16433D01*
X93135Y29865D01*
X93135Y29865D01*
X93483Y30386D01*
X93606Y31000D01*
Y64500D01*
X93483Y65114D01*
X93135Y65635D01*
X93135Y65635D01*
X87635Y71135D01*
X87115Y71483D01*
X86500Y71606D01*
X86500Y71606D01*
X60500D01*
X60500Y71606D01*
X59886Y71483D01*
X59365Y71135D01*
X59365Y71135D01*
X57314Y69084D01*
X56965Y68563D01*
X56843Y67949D01*
X56163Y67461D01*
X55988D01*
Y62539D01*
X57650D01*
Y61085D01*
X55134D01*
Y61297D01*
X53780D01*
Y60183D01*
X52520D01*
Y61297D01*
X50827D01*
Y60183D01*
X49567D01*
Y61297D01*
X48213D01*
Y59913D01*
X49327D01*
Y58653D01*
X48213D01*
Y57270D01*
X47464Y56890D01*
X46711D01*
Y56523D01*
X44961D01*
Y60409D01*
X40039D01*
Y56523D01*
X31118D01*
X30580Y56416D01*
X30125Y56112D01*
X28473Y54460D01*
X28168Y54004D01*
X28061Y53466D01*
Y52722D01*
X27797Y52458D01*
X27625Y52043D01*
X26004D01*
Y44957D01*
X26253D01*
Y40921D01*
X26291Y40727D01*
Y37772D01*
X27955D01*
X28680Y36965D01*
X28606Y36394D01*
X27375Y35163D01*
X27101Y34753D01*
X27004Y34269D01*
Y34228D01*
X26291D01*
Y34007D01*
X22996D01*
Y37043D01*
X16909D01*
Y37256D01*
X13980D01*
Y36142D01*
X12720D01*
Y37256D01*
X9791D01*
Y34130D01*
X10905D01*
Y32870D01*
X9791D01*
Y29744D01*
X12720D01*
Y30858D01*
X13980D01*
Y29744D01*
X16909D01*
Y29957D01*
X22996D01*
Y29993D01*
X26291D01*
Y27929D01*
X26454D01*
Y26240D01*
X26591Y25549D01*
X26983Y24963D01*
X33694Y18252D01*
Y6500D01*
X33831Y5809D01*
X34223Y5223D01*
X38540Y905D01*
X38335Y187D01*
X38199Y0D01*
X36820D01*
X35679Y227D01*
X34604Y672D01*
X33637Y1318D01*
X32814Y2141D01*
X32168Y3108D01*
X31723Y4183D01*
X31496Y5324D01*
Y13780D01*
X31496D01*
X31471Y14552D01*
X31269Y16084D01*
X30869Y17576D01*
X30278Y19003D01*
X29506Y20341D01*
X28565Y21567D01*
X27473Y22659D01*
X26247Y23600D01*
X24909Y24373D01*
X23482Y24964D01*
X21989Y25364D01*
X20458Y25565D01*
X19685Y25591D01*
X12876Y25591D01*
X11085Y25826D01*
X9341Y26294D01*
X7672Y26985D01*
X6108Y27888D01*
X4675Y28988D01*
X3397Y30265D01*
X2298Y31698D01*
X1395Y33263D01*
X703Y34931D01*
X236Y36676D01*
X0Y38467D01*
Y39370D01*
Y59055D01*
Y59958D01*
X236Y61749D01*
X703Y63494D01*
X1395Y65163D01*
X2298Y66727D01*
X3397Y68160D01*
X4675Y69437D01*
X6108Y70537D01*
X7672Y71440D01*
X9341Y72131D01*
X11085Y72599D01*
X12876Y72835D01*
X13780Y72835D01*
X104331Y72835D01*
Y72835D01*
D02*
G37*
G36*
X46711Y53347D02*
X47464D01*
X48213Y52966D01*
Y51583D01*
X49327D01*
Y50323D01*
X48213D01*
Y48939D01*
X49567D01*
Y50053D01*
X50827D01*
Y48939D01*
X52422D01*
X52812Y48403D01*
X52846Y48235D01*
X52554Y47897D01*
X52148D01*
X51496Y47627D01*
X50998Y47128D01*
X50728Y46477D01*
Y45772D01*
X50998Y45121D01*
X51496Y44623D01*
X52148Y44353D01*
X52466D01*
X53098Y43646D01*
X53143Y43517D01*
X53033Y43154D01*
X51823D01*
Y38429D01*
X50927Y38405D01*
X50740D01*
Y37291D01*
X49480D01*
Y38405D01*
X47535D01*
Y38405D01*
X47173Y38080D01*
X45130D01*
Y36966D01*
X43870D01*
Y38080D01*
X41827D01*
Y36152D01*
X40990Y35806D01*
X38583Y38213D01*
X38173Y38487D01*
X37709Y38579D01*
Y44071D01*
X38269Y44744D01*
X39209D01*
Y47870D01*
X38095D01*
Y49130D01*
X39209D01*
Y52256D01*
X36279D01*
Y51142D01*
X35020D01*
Y52256D01*
X32091D01*
Y52256D01*
X31548Y52281D01*
X31231Y53002D01*
X31799Y53713D01*
X46711D01*
Y53347D01*
D02*
G37*
G36*
X42039Y31180D02*
Y29032D01*
X46961D01*
Y29783D01*
X50110D01*
X50232Y29807D01*
X51015D01*
X51823Y29571D01*
Y24847D01*
X52375D01*
X52722Y24010D01*
X52106Y23394D01*
X51832Y22984D01*
X51736Y22500D01*
Y22384D01*
X51394Y21620D01*
X49843D01*
Y20506D01*
X48583D01*
Y21620D01*
X47032D01*
Y18199D01*
X48146D01*
Y16939D01*
X47032D01*
Y13518D01*
X48583D01*
Y14632D01*
X49843D01*
Y13518D01*
X50673D01*
X51378Y12852D01*
X51378Y12619D01*
Y12148D01*
X51648Y11496D01*
X52146Y10998D01*
X52797Y10728D01*
X53502D01*
X54153Y10998D01*
X54651Y11496D01*
X55585D01*
X56083Y10998D01*
X56734Y10728D01*
X57439D01*
X58090Y10998D01*
X58588Y11496D01*
X59522D01*
X60020Y10998D01*
X60671Y10728D01*
X61376D01*
X62027Y10998D01*
X62525Y11496D01*
X63459D01*
X63957Y10998D01*
X64608Y10728D01*
X65313D01*
X65964Y10998D01*
X66186Y11220D01*
X67091Y10845D01*
Y7646D01*
X63252Y3806D01*
X47244D01*
Y11959D01*
X40945D01*
Y4890D01*
X40039Y4515D01*
X37306Y7248D01*
Y19000D01*
X37169Y19691D01*
X36777Y20277D01*
X30244Y26811D01*
X30494Y27716D01*
X31370D01*
Y28831D01*
X32630D01*
Y27716D01*
X34181D01*
Y27929D01*
X37709D01*
Y34228D01*
X36996D01*
Y34269D01*
X36899Y34753D01*
X37490Y35499D01*
X37683Y35537D01*
X42039Y31180D01*
D02*
G37*
G36*
X90394Y63835D02*
Y31665D01*
X77904Y19174D01*
X70866D01*
Y21407D01*
X70303D01*
Y26039D01*
X71909D01*
Y30961D01*
X71909D01*
Y31539D01*
X71909D01*
Y35230D01*
X71972Y35272D01*
X72878Y34788D01*
Y34630D01*
X73992D01*
Y33370D01*
X72878D01*
Y32079D01*
X72878Y31327D01*
X72878Y30421D01*
Y29130D01*
X73992D01*
Y27870D01*
X72878D01*
Y25827D01*
X74921D01*
Y26941D01*
X76181D01*
Y25827D01*
X78224D01*
Y27870D01*
X77110D01*
Y29130D01*
X78224D01*
Y30421D01*
X78224Y31173D01*
X78224Y32079D01*
Y33370D01*
X77110D01*
Y34630D01*
X78224D01*
Y36673D01*
X76181D01*
Y35559D01*
X74921D01*
Y36673D01*
X73742D01*
X73367Y37579D01*
X79517Y43728D01*
X79852D01*
X80504Y43998D01*
X81002Y44496D01*
X81272Y45148D01*
Y45483D01*
X88894Y53106D01*
X89168Y53516D01*
X89264Y54000D01*
Y57500D01*
X89168Y57984D01*
X88894Y58394D01*
X87878Y59410D01*
X87468Y59684D01*
X86984Y59780D01*
X85945D01*
Y62020D01*
X84831D01*
Y63279D01*
X85945D01*
Y64339D01*
X84295D01*
Y63225D01*
X83035D01*
Y64339D01*
X81386D01*
Y64126D01*
X77268D01*
Y63914D01*
X68094D01*
X67224Y64775D01*
Y67673D01*
X67670Y68394D01*
X85835D01*
X90394Y63835D01*
D02*
G37*
%LPC*%
G36*
X45173Y66724D02*
X43130D01*
Y65610D01*
X41870D01*
Y66724D01*
X39827D01*
Y64681D01*
X40941D01*
Y63421D01*
X39827D01*
Y61378D01*
X41870D01*
Y62492D01*
X43130D01*
Y61378D01*
X45173D01*
Y63421D01*
X44059D01*
Y64681D01*
X45173D01*
Y66724D01*
D02*
G37*
G36*
X103021Y55905D02*
X101703D01*
X100410Y55648D01*
X99192Y55144D01*
X98096Y54411D01*
X97163Y53479D01*
X96431Y52383D01*
X95926Y51165D01*
X95669Y49872D01*
Y48553D01*
X95926Y47260D01*
X96431Y46042D01*
X97163Y44946D01*
X98096Y44014D01*
X99192Y43281D01*
X100410Y42777D01*
X101703Y42520D01*
X103021D01*
X104314Y42777D01*
X105533Y43281D01*
X106629Y44014D01*
X107561Y44946D01*
X108293Y46042D01*
X108798Y47260D01*
X109055Y48553D01*
Y49872D01*
X108798Y51165D01*
X108293Y52383D01*
X107561Y53479D01*
X106629Y54411D01*
X105533Y55144D01*
X104314Y55648D01*
X103021Y55905D01*
D02*
G37*
G36*
X16407D02*
X15089D01*
X13796Y55648D01*
X12578Y55144D01*
X11482Y54411D01*
X10549Y53479D01*
X9817Y52383D01*
X9312Y51165D01*
X9055Y49872D01*
Y48553D01*
X9312Y47260D01*
X9817Y46042D01*
X10549Y44946D01*
X11482Y44014D01*
X12578Y43281D01*
X13796Y42777D01*
X15089Y42520D01*
X16407D01*
X17700Y42777D01*
X18918Y43281D01*
X20015Y44014D01*
X20947Y44946D01*
X21679Y46042D01*
X22184Y47260D01*
X22441Y48553D01*
Y49872D01*
X22184Y51165D01*
X21679Y52383D01*
X20947Y53479D01*
X20015Y54411D01*
X18918Y55144D01*
X17700Y55648D01*
X16407Y55905D01*
D02*
G37*
%LPD*%
D16*
X49213Y17569D02*
D03*
X57087D02*
D03*
X64961D02*
D03*
X68898D02*
D03*
X61024D02*
D03*
X53150D02*
D03*
D17*
X74016Y7628D02*
D03*
X44094D02*
D03*
D18*
X64961Y50953D02*
D03*
X67913D02*
D03*
X59055D02*
D03*
X56102D02*
D03*
X62008D02*
D03*
Y59284D02*
D03*
X53150D02*
D03*
Y50953D02*
D03*
X50197D02*
D03*
Y59284D02*
D03*
X56102D02*
D03*
X59055D02*
D03*
X64961D02*
D03*
X67913D02*
D03*
D19*
X58969Y40791D02*
D03*
X60937D02*
D03*
X57000D02*
D03*
X55032D02*
D03*
X53063D02*
D03*
Y27209D02*
D03*
X55032D02*
D03*
X57000D02*
D03*
X58969D02*
D03*
X60937D02*
D03*
D20*
X69095Y51575D02*
D03*
D21*
X83665Y58516D02*
D03*
Y60484D02*
D03*
X79335D02*
D03*
Y58516D02*
D03*
D22*
X69449Y34000D02*
D03*
X64551Y65000D02*
D03*
X75551Y34000D02*
D03*
Y28500D02*
D03*
X58449Y65000D02*
D03*
X69449Y28500D02*
D03*
D23*
X48551Y55118D02*
D03*
X69559D02*
D03*
D24*
X42500Y57949D02*
D03*
Y64051D02*
D03*
D25*
X29350Y48500D02*
D03*
X35650D02*
D03*
X13350Y33500D02*
D03*
X19650D02*
D03*
D26*
X63890Y36953D02*
D03*
X50110Y31047D02*
D03*
Y36953D02*
D03*
X63890Y31047D02*
D03*
D27*
X44500Y31000D02*
D03*
Y35899D02*
D03*
D28*
X28260Y40921D02*
D03*
X32000Y31079D02*
D03*
X35740D02*
D03*
X28260D02*
D03*
X35740Y40921D02*
D03*
D29*
X83665Y62650D02*
D03*
X79335D02*
D03*
Y56350D02*
D03*
X83665D02*
D03*
D30*
X59055Y55118D02*
D03*
D31*
X57000Y34000D02*
D03*
D51*
X68386Y65886D02*
X69000Y66500D01*
X65437Y65886D02*
X68386D01*
X64551Y65000D02*
X65437Y65886D01*
X62008Y62457D02*
X64551Y65000D01*
X62008Y59284D02*
Y62457D01*
X59055Y55118D02*
X60433D01*
X62008Y56693D01*
Y59284D01*
X58449Y65000D02*
Y67949D01*
X60500Y70000D02*
X86500D01*
X58449Y67949D02*
X60500Y70000D01*
X92000Y31000D02*
Y64500D01*
X86500Y70000D02*
X92000Y64500D01*
X78569Y17569D02*
X92000Y31000D01*
X68898Y17569D02*
X78569D01*
X64961Y12500D02*
Y17482D01*
X61024Y12500D02*
Y17482D01*
X57087Y12500D02*
Y17482D01*
X53000Y17569D02*
X53150Y17419D01*
Y12500D02*
Y17419D01*
X57673Y56500D02*
X59055Y55118D01*
X57663Y53726D02*
X59055Y55118D01*
X53150Y56500D02*
X57673D01*
X53150D02*
Y59284D01*
Y53726D02*
Y56500D01*
Y53726D02*
X57663D01*
X53150Y50953D02*
Y53726D01*
D52*
X64876Y29000D02*
X69449D01*
X83665Y58516D02*
X86984D01*
X70953Y36953D02*
X88000Y54000D01*
X86984Y58516D02*
X88000Y57500D01*
Y54000D02*
Y57500D01*
X60937Y27209D02*
X63291D01*
X64961Y25539D01*
Y16781D02*
Y25539D01*
X60937Y40000D02*
Y40791D01*
X70102Y40102D02*
Y50722D01*
X60937Y40000D02*
X70000D01*
X67878Y42224D02*
Y43969D01*
X69449Y36953D02*
X70953D01*
X68445Y51500D02*
X69325D01*
X70000Y40000D02*
X70102Y40102D01*
X57000Y46125D02*
X59375D01*
X43961Y31047D02*
X50110D01*
X57000Y17569D02*
Y27209D01*
X53000Y17569D02*
Y22500D01*
X64109Y29767D02*
Y31047D01*
X53000Y16931D02*
Y17569D01*
Y22500D02*
X55032Y24532D01*
Y27209D01*
X58969Y24032D02*
X61000Y22000D01*
Y16805D02*
Y22000D01*
X58969Y24032D02*
Y27209D01*
X53000Y16931D02*
X53150Y16781D01*
X61000Y16805D02*
X61024Y16781D01*
X67878Y43969D02*
Y46264D01*
X65492Y48650D02*
X67878Y46264D01*
X65492Y48650D02*
Y50421D01*
X64961Y50953D02*
X65492Y50421D01*
X58969Y42968D02*
X59969Y43969D01*
X67878D01*
X58969Y40791D02*
Y42968D01*
X69325Y51500D02*
X70102Y50722D01*
X67913Y50968D02*
X68445Y51500D01*
X67913Y50953D02*
Y50968D01*
X57000Y40791D02*
Y46125D01*
Y47202D01*
X58909Y49111D01*
Y50807D01*
X59055Y50953D01*
X55032Y40791D02*
Y46125D01*
Y48031D01*
X52500Y46125D02*
X55032D01*
Y48031D02*
X56102Y49102D01*
Y50953D01*
X63876Y47000D02*
X63996D01*
X69449Y34000D02*
Y36953D01*
X63890D02*
X69449D01*
X62008Y48868D02*
Y50953D01*
Y48868D02*
X63876Y47000D01*
X30681Y37319D02*
X37689D01*
X43961Y31047D01*
X28988Y39012D02*
X30681Y37319D01*
X28260Y43104D02*
X28761Y42603D01*
X28260Y39740D02*
X28988Y39012D01*
X28988D01*
X28260Y39740D02*
Y40921D01*
X87484Y60484D02*
X87500Y60500D01*
X83665Y60484D02*
X87484D01*
X50110Y36953D02*
X54047D01*
X28260Y31079D02*
X28269Y31088D01*
Y34269D01*
X63890Y31047D02*
X64109D01*
Y29767D02*
X64876Y29000D01*
X28269Y34269D02*
X29500Y35500D01*
X34500D01*
X35731Y31088D02*
X35740Y31079D01*
X35731Y31088D02*
Y34269D01*
X34500Y35500D02*
X35731Y34269D01*
X72118Y55118D02*
X75516Y58516D01*
X69559Y55118D02*
X72118D01*
X75516Y58516D02*
X79335D01*
X67332Y62650D02*
X79335D01*
X64591Y59909D02*
X67332Y62650D01*
X64961Y59284D02*
X65492Y59815D01*
X67913Y59284D02*
Y59313D01*
X69085Y60484D01*
X79335D01*
D53*
X35500Y6500D02*
Y19000D01*
Y6500D02*
X40000Y2000D01*
X64000D01*
X28260Y26240D02*
X35500Y19000D01*
X68898Y6898D02*
Y12500D01*
Y17482D01*
X64000Y2000D02*
X68898Y6898D01*
X28260Y26240D02*
Y31079D01*
D54*
X57000Y17569D02*
X57087Y17482D01*
X68898Y17569D02*
Y28449D01*
X69449Y29000D01*
X42500Y55118D02*
X48551D01*
X31118D02*
X42500D01*
Y57949D01*
X29466Y51343D02*
Y53466D01*
X31118Y55118D01*
X29466Y48616D02*
Y51343D01*
X29350Y48500D02*
X29466Y48616D01*
X50197Y50953D02*
X53150D01*
X58500Y64972D02*
X59055Y64417D01*
Y59284D02*
Y64417D01*
D55*
X28260Y43104D02*
Y47909D01*
Y40921D02*
Y43104D01*
X20953Y32000D02*
X28260D01*
X19650Y33303D02*
X20953Y32000D01*
X28260Y31079D02*
Y32000D01*
D56*
X15748Y49213D02*
D03*
X102362D02*
D03*
D57*
X110236Y62992D02*
D03*
Y55118D02*
D03*
Y47244D02*
D03*
Y39370D02*
D03*
Y31496D02*
D03*
X102362Y62992D02*
D03*
Y39370D02*
D03*
Y31496D02*
D03*
X86614Y47244D02*
D03*
Y39370D02*
D03*
Y31496D02*
D03*
X78740Y23622D02*
D03*
Y7874D02*
D03*
X47244Y62992D02*
D03*
Y23622D02*
D03*
X39370Y39370D02*
D03*
Y23622D02*
D03*
Y15748D02*
D03*
Y7874D02*
D03*
X31496Y62992D02*
D03*
X23622D02*
D03*
Y55118D02*
D03*
Y47244D02*
D03*
Y39370D02*
D03*
X15748Y62992D02*
D03*
Y39370D02*
D03*
X7874Y62992D02*
D03*
Y55118D02*
D03*
Y47244D02*
D03*
Y39370D02*
D03*
Y31496D02*
D03*
X70000Y40000D02*
D03*
X67878Y42224D02*
D03*
X79500Y45500D02*
D03*
X59375Y46125D02*
D03*
X57087Y12500D02*
D03*
X64961D02*
D03*
X61024D02*
D03*
X53150D02*
D03*
X52500Y46125D02*
D03*
X63996Y47000D02*
D03*
X76000Y38500D02*
D03*
X42500Y49000D02*
D03*
X42000Y43500D02*
D03*
D58*
X68898Y12500D02*
D03*
X29466Y51343D02*
D03*
M02*
