M48
;Layer_Color=9474304
;FILE_FORMAT=2:5
INCH,TZ
;TYPE=PLATED
T01F00S00C0.01181
T02F00S00C0.03543
T03F00S00C0.04016
T04F00S00C0.04331
T05F00S00C0.07087
T06F00S00C0.10630
T07F00S00C0.13780
;TYPE=NON_PLATED
T08F00S00C0.04016
%
T01
X400500Y126500
X416000
Y540500
X432000
X431000Y605000
X415000
X447500
X641500Y880500
X691500
X673000Y930000
X625500
X549000Y1045500
X498500
X640000Y979500
X690500
X550000Y1111500
X499500
X501000Y1177500
X552000
T02
X760500Y248236
Y258079
Y267921
Y277764
T03
X671000Y45000
X682811
Y56811
X671000
X814189Y51689
X826000
Y63500
X814189
X870500Y66000
X882311
Y77811
X870500
X943012Y199756
Y211567
Y223378
Y235189
X931201
Y223378
Y211567
Y199756
X637311Y192500
Y180689
X625500
Y192500
T04
X992500Y150630
Y245709
T05
X836850Y223000
X890000
T06
X849252Y199378
X877598
T07
X411000Y318500
X446500Y321000
X484000Y328000
X543000Y323000
T08
X659189Y60512
X694622
X802378Y67201
X837811
X858689Y81512
X894122
X927500Y187945
Y247000
X649122Y196201
X613689
M30
